<svg width="23" height="21" viewBox="0 0 23 21" fill="none" xmlns="http://www.w3.org/2000/svg">
<g clip-path="url(#clip0_951_1820)">
<path d="M1.95837 2.83325V8.58325H7.70837" stroke="#767676" stroke-width="2" stroke-linecap="round" stroke-linejoin="round"/>
<path d="M4.3637 13.3751C4.98665 15.1383 6.1658 16.6514 7.72347 17.6862C9.28114 18.721 11.1329 19.2215 12.9998 19.1122C14.8667 19.003 16.6475 18.29 18.0739 17.0807C19.5002 15.8713 20.4949 14.2311 20.908 12.4072C21.3211 10.5834 21.1302 8.67465 20.3642 6.9687C19.5981 5.26276 18.2983 3.85201 16.6607 2.94904C15.0231 2.04608 13.1364 1.69982 11.2848 1.96244C9.4333 2.22506 7.71728 3.08234 6.39536 4.40509L1.95828 8.58343" stroke="#767676" stroke-width="2" stroke-linecap="round" stroke-linejoin="round"/>
</g>
<defs>
<clipPath id="clip0_951_1820">
<rect width="23" height="21" fill="white" transform="matrix(-1 0 0 1 23 0)"/>
</clipPath>
</defs>
</svg>
