<svg width="16" height="16" viewBox="0 0 16 16" fill="none" xmlns="http://www.w3.org/2000/svg">
<path d="M8.01774 0C3.50064 0 0 3.30146 0 7.76072C0 10.0931 0.958387 12.1087 2.51839 13.501C2.78774 13.7433 2.73226 13.8836 2.77806 15.3795C2.78167 15.4843 2.81086 15.5866 2.86308 15.6775C2.9153 15.7684 2.98897 15.8452 3.07767 15.901C3.16636 15.9569 3.26738 15.9903 3.37192 15.9982C3.47646 16.0061 3.58134 15.9883 3.67742 15.9463C5.38419 15.1946 5.40613 15.1353 5.69548 15.214C10.6403 16.575 16 13.4104 16 7.76072C16 3.30146 12.5352 0 8.01774 0Z" fill="#B1C500"/>
</svg>
