<svg width="15" height="15" viewBox="0 0 15 15" fill="none" xmlns="http://www.w3.org/2000/svg">
<path d="M13.4062 5.67188H8.76562V1.03125C8.76562 0.461807 8.30382 0 7.73438 0H6.70312C6.13368 0 5.67188 0.461807 5.67188 1.03125V5.67188H1.03125C0.461807 5.67188 0 6.13368 0 6.70312V7.73438C0 8.30382 0.461807 8.76562 1.03125 8.76562H5.67188V13.4062C5.67188 13.9757 6.13368 14.4375 6.70312 14.4375H7.73438C8.30382 14.4375 8.76562 13.9757 8.76562 13.4062V8.76562H13.4062C13.9757 8.76562 14.4375 8.30382 14.4375 7.73438V6.70312C14.4375 6.13368 13.9757 5.67188 13.4062 5.67188Z" fill="#D9D9D9"/>
</svg>
