<svg width="21" height="20" viewBox="0 0 21 20" fill="none" xmlns="http://www.w3.org/2000/svg">
<path d="M10.3594 0C4.83518 0 0.359375 4.47581 0.359375 10C0.359375 15.5242 4.83518 20 10.3594 20C15.8836 20 20.3594 15.5242 20.3594 10C20.3594 4.47581 15.8836 0 10.3594 0ZM4.8755 8.68548C5.00857 6.9879 6.17389 5.80645 7.13357 5.80645C8.09325 5.80645 9.25857 6.9879 9.39163 8.68548C9.41986 9.03226 8.95615 9.16532 8.79083 8.86694L8.40776 8.18145C8.09728 7.62903 7.63357 7.31048 7.1376 7.31048C6.64163 7.31048 6.17792 7.62903 5.86744 8.18145L5.48438 8.86694C5.31099 9.16532 4.84728 9.02823 4.8755 8.68548ZM14.9884 13.6371C13.8392 15.0161 12.1537 15.8065 10.3594 15.8065C8.56502 15.8065 6.87954 15.0161 5.73034 13.6371C5.18599 12.9798 6.17389 12.1573 6.72228 12.8105C7.6255 13.8952 8.94808 14.5121 10.3594 14.5121C11.7707 14.5121 13.0932 13.8911 13.9965 12.8105C14.5449 12.1573 15.5328 12.9839 14.9884 13.6371ZM15.2384 8.86694L14.8553 8.18145C14.5449 7.62903 14.0811 7.31048 13.5852 7.31048C13.0892 7.31048 12.6255 7.62903 12.315 8.18145L11.932 8.86694C11.7666 9.16129 11.3029 9.02823 11.3311 8.68548C11.4642 6.9879 12.6295 5.80645 13.5892 5.80645C14.5489 5.80645 15.7142 6.9879 15.8473 8.68548C15.8715 9.03226 15.4037 9.16532 15.2384 8.86694Z" fill="#FFD6DB"/>
</svg>
