<svg width="252" height="147" viewBox="0 0 252 147" fill="none" xmlns="http://www.w3.org/2000/svg">
<path d="M141.781 102.214C141.669 102.465 141.44 102.547 141.249 102.371C141.047 102.188 140.878 102.259 140.68 102.349C140.38 102.483 140.077 102.543 139.796 102.292C139.71 102.218 139.612 102.206 139.534 102.3C139.332 102.536 139.077 102.472 138.852 102.386C138.706 102.33 138.612 102.349 138.474 102.39C138.17 102.483 137.852 102.495 137.545 102.375C137.493 102.352 137.451 102.304 137.384 102.322C136.418 102.562 135.436 102.397 134.463 102.442C134.38 102.446 134.316 102.394 134.242 102.367C133.897 102.233 133.537 102.442 133.178 102.337C133.099 102.315 132.949 102.394 132.803 102.311C132.65 102.225 132.462 102.24 132.294 102.349C132.05 102.506 131.818 102.495 131.601 102.274C131.373 102.042 131.301 102.06 131.185 102.33C131.122 102.483 131.009 102.454 130.919 102.382C130.657 102.173 130.414 102.139 130.152 102.39C130.099 102.442 129.983 102.439 129.897 102.439C129.62 102.446 129.339 102.435 129.062 102.442C128.826 102.45 128.62 102.424 128.44 102.236C128.313 102.105 128.129 102 128.047 102.304C128.017 102.409 127.957 102.424 127.871 102.352C127.698 102.21 127.519 102.255 127.343 102.341C127.088 102.465 126.833 102.506 126.582 102.337C126.522 102.296 126.444 102.259 126.391 102.307C126.181 102.51 125.923 102.435 125.683 102.439C125.017 102.446 124.35 102.439 123.687 102.442C123.53 102.442 123.369 102.427 123.226 102.521C123.211 102.532 123.185 102.551 123.174 102.543C122.799 102.352 122.477 102.487 122.14 102.663C122.017 102.727 121.844 102.656 121.691 102.581C121.485 102.48 121.241 102.337 121.028 102.615C120.957 102.708 120.822 102.674 120.717 102.674C120.129 102.674 119.545 102.671 118.957 102.674C118.736 102.674 118.556 102.637 118.391 102.472C118.249 102.33 118.065 102.221 117.975 102.536C117.96 102.585 117.912 102.656 117.882 102.626C117.691 102.431 117.541 102.637 117.376 102.667C117.046 102.723 116.777 102.555 116.533 102.39C116.376 102.285 116.324 102.263 116.215 102.42C116.024 102.686 115.646 102.772 115.346 102.611C115.091 102.472 114.825 102.424 114.544 102.461C114.338 102.487 114.144 102.341 113.926 102.42C113.818 102.457 113.691 102.442 113.619 102.57C113.567 102.671 113.5 102.63 113.425 102.577C113.121 102.375 112.582 102.379 112.301 102.585C112.241 102.63 112.192 102.648 112.151 102.585C112.039 102.405 111.859 102.45 111.694 102.435C111.278 102.394 110.84 102.555 110.447 102.289C110.395 102.255 110.331 102.296 110.282 102.334C110.14 102.446 110.001 102.472 109.855 102.334C109.773 102.255 109.717 102.334 109.649 102.371C109.462 102.465 109.271 102.442 109.076 102.379C108.526 102.199 107.975 102.105 107.428 102.386C107.312 102.446 107.203 102.424 107.087 102.375C106.567 102.158 106.035 102.191 105.507 102.349C105.469 102.36 105.424 102.39 105.398 102.375C104.967 102.165 104.522 102.218 104.076 102.281C104.065 102.281 104.057 102.281 104.046 102.281C103.413 102.068 102.773 102.27 102.136 102.251C102.005 102.248 101.878 102.251 101.78 102.139C101.739 102.094 101.69 102.06 101.623 102.094C101.084 102.371 100.51 102.206 99.9487 102.233C99.8625 102.233 99.7726 102.154 99.6827 102.109C99.6116 102.072 99.5254 102 99.4655 102.064C99.1284 102.409 98.7089 102.158 98.3456 102.248C98.0235 102.326 97.6789 102.139 97.3868 102.367C97.3344 102.409 97.2782 102.386 97.222 102.356C96.8924 102.191 96.5628 102.206 96.2295 102.364C96.0047 102.468 95.7538 102.483 95.5403 102.364C95.2182 102.184 94.9073 102.27 94.604 102.364C94.4204 102.424 94.2631 102.461 94.1021 102.334C93.9747 102.233 93.8137 102.165 93.6863 102.251C93.4429 102.412 93.1657 102.337 92.911 102.412C92.7762 102.45 92.6676 102.39 92.544 102.33C92.2818 102.203 92.0047 102.101 91.7425 102.334C91.6676 102.401 91.6076 102.397 91.5327 102.341C91.3679 102.218 91.2031 102.225 91.0458 102.364C90.9634 102.435 90.8586 102.435 90.7612 102.427C90.3042 102.386 89.8286 102.547 89.3979 102.27C89.3155 102.218 89.2106 102.27 89.1207 102.326C88.8847 102.476 88.645 102.513 88.4315 102.277C88.3229 102.161 88.1956 102.199 88.1132 102.277C87.9596 102.431 87.7761 102.435 87.5888 102.424C87.1956 102.401 86.7873 102.364 86.4053 102.386C85.7798 102.42 85.1506 102.349 84.5363 102.45C84.2816 102.491 84.0794 102.51 83.8247 102.446C83.6112 102.39 83.3266 102.33 83.1505 102.603C83.1131 102.659 83.0344 102.641 82.997 102.585C82.8209 102.341 82.6674 102.394 82.4988 102.596C82.4202 102.686 82.2704 102.693 82.1992 102.611C81.9408 102.311 81.6112 102.454 81.3078 102.439C80.8846 102.416 80.4613 102.506 80.0381 102.439C80.0194 102.439 79.9931 102.424 79.9782 102.431C79.5774 102.663 79.1392 102.326 78.7796 102.468C78.495 102.581 78.3077 102.611 78.0643 102.454C77.9969 102.412 77.9257 102.502 77.862 102.551C77.6448 102.701 77.4313 102.723 77.2178 102.536C77.0343 102.371 76.7946 102.431 76.5961 102.446C76.3751 102.461 76.0979 102.334 75.9182 102.611C75.8657 102.689 75.7871 102.592 75.7346 102.528C75.6148 102.39 75.4837 102.397 75.3489 102.517C75.1054 102.731 74.8694 102.716 74.6372 102.491C74.4799 102.334 74.3264 102.214 74.1541 102.506C74.0342 102.708 73.7271 102.738 73.5586 102.573C73.4537 102.472 73.3638 102.454 73.2439 102.498C73.0716 102.562 72.9106 102.491 72.7458 102.468C72.2626 102.405 71.7832 102.412 71.3113 102.528C71.2739 102.536 71.2289 102.551 71.1952 102.54C70.8581 102.405 70.5248 102.349 70.2064 102.596C70.1615 102.63 70.1165 102.603 70.0791 102.562C69.903 102.364 69.7457 102.409 69.5772 102.585C69.4648 102.701 68.9292 102.716 68.8131 102.603C68.536 102.337 68.2326 102.476 67.9629 102.573C67.8019 102.63 67.6783 102.682 67.5172 102.615C67.4648 102.592 67.3974 102.566 67.3487 102.581C66.7719 102.761 66.1839 102.633 65.6033 102.671C65.4647 102.678 65.3262 102.656 65.2363 102.809C65.1689 102.922 65.0865 102.873 65.019 102.798C64.8917 102.663 64.7531 102.626 64.6033 102.757C64.5134 102.836 64.446 102.772 64.3636 102.746C64.0452 102.648 63.7156 102.521 63.431 102.839C63.3486 102.929 63.2287 102.907 63.1201 102.907C62.6445 102.907 62.165 102.914 61.6894 102.91C61.3073 102.91 60.9328 102.97 60.5658 103.071C60.4721 103.098 60.3635 103.105 60.2699 103.086C59.4871 102.948 58.7043 103.195 57.9215 103.094C57.8728 103.086 57.8091 103.079 57.7754 103.101C57.5507 103.27 57.341 103.3 57.1312 103.079C57.0975 103.045 57.0189 103.06 57.0039 103.113C56.914 103.397 56.6818 103.319 56.4833 103.326C56.326 103.334 56.1649 103.307 56.0188 103.405C55.9439 103.453 55.8803 103.438 55.8016 103.39C55.6593 103.3 55.517 103.296 55.4158 103.453C55.3559 103.543 55.2772 103.543 55.1836 103.543C54.8578 103.543 54.5282 103.555 54.2023 103.562C54.0862 103.562 53.9626 103.547 53.869 103.648C53.809 103.712 53.7529 103.708 53.6892 103.648C53.663 103.626 52.7416 103.659 52.7079 103.667C52.2135 103.757 51.7191 103.824 51.2285 103.633C51.1835 103.614 51.1311 103.566 51.0936 103.6C50.8764 103.798 50.5468 103.641 50.3708 103.764C50.0674 103.982 49.8502 103.776 49.5917 103.776C49.1385 103.776 48.6853 103.719 48.2284 103.757C48.1385 103.764 48.0561 103.802 47.9887 103.865C47.8314 104.008 47.6778 104.041 47.5355 103.843C47.5055 103.802 47.4381 103.749 47.4194 103.776C47.2284 104.034 47.0898 103.772 46.9362 103.727C46.8389 103.701 46.7415 103.701 46.6441 103.712C46.2096 103.772 45.7714 103.727 45.3332 103.734C45.2508 103.734 45.1759 103.719 45.1197 103.652C44.9886 103.495 44.8838 103.296 44.6216 103.502C44.5317 103.573 44.4867 103.39 44.4156 103.33C44.0148 103.004 43.9287 102.671 44.0972 102.188C44.1197 102.124 44.1646 102.042 44.1459 101.989C43.9549 101.54 44.2695 101.218 44.4193 100.854C44.4867 100.693 44.453 100.521 44.453 100.353C44.453 100.124 44.483 99.9181 44.7152 99.7945C44.7939 99.7533 44.8313 99.6672 44.865 99.5773C44.9624 99.3226 45.1272 99.2889 45.3332 99.4687C45.5804 99.6821 45.9137 99.6859 46.1872 99.8282C46.5055 99.5211 46.8014 99.8844 47.116 99.8694C47.7078 99.8394 48.3071 99.8619 48.8988 99.8619C49.0674 99.8619 49.2359 99.8619 49.382 99.9742C49.4569 100.034 49.5618 100.064 49.6329 100C49.8165 99.8207 50.0374 99.8656 50.2509 99.8656C50.9551 99.8619 51.6629 99.8993 52.3671 99.8469C52.7379 99.8207 53.1461 99.9293 53.4869 99.6559C53.5319 99.6185 53.6218 99.6185 53.6892 99.6297C54.1986 99.7009 54.7042 99.596 55.2098 99.6222C55.3671 99.6297 55.5319 99.6409 55.663 99.5211C55.6818 99.5024 55.7267 99.4799 55.7417 99.4874C56.2436 99.7608 56.693 99.3114 57.1799 99.3938C57.517 99.4537 57.7792 99.1391 58.1238 99.199C58.9103 99.3376 59.6856 99.1166 60.4684 99.1204C60.7081 99.1204 60.9328 99.2589 61.1837 99.1953C61.2587 99.1765 61.3635 99.2177 61.4122 99.1541C61.6032 98.8994 61.8766 98.9369 62.1201 98.9706C62.5845 99.038 63.0415 98.9219 63.5021 98.9593C63.5209 98.9593 63.5433 98.9631 63.5621 98.9593C63.9329 98.817 64.2999 98.7571 64.6819 98.9518C64.7793 99.0005 64.9142 98.9518 65.0228 98.8807C65.0865 98.8395 65.1763 98.7833 65.24 98.7945C65.6483 98.8844 66.0453 98.7084 66.4498 98.7683C66.6932 98.802 66.9404 98.7234 67.1914 98.7496C67.3599 98.7646 67.5285 98.7496 67.6708 98.8657C67.7419 98.9219 67.8019 98.9256 67.8805 98.8657C68.4311 98.4388 69.0678 98.5249 69.6933 98.5848C69.933 98.6073 70.2027 98.4874 70.4124 98.6972C70.5959 98.5137 70.8356 98.5773 71.0529 98.5586C71.2401 98.5399 71.4312 98.5174 71.5922 98.6635C71.6484 98.7121 71.7308 98.7309 71.7832 98.6747C71.948 98.5062 72.154 98.5399 72.345 98.5549C72.6784 98.5811 73.008 98.5961 73.3413 98.5549C73.5136 98.5324 73.6821 98.5511 73.8507 98.6635C74.0267 98.7796 74.229 98.6522 74.42 98.6148C74.817 98.5361 75.214 98.4687 75.6073 98.6522C75.641 98.6672 75.6859 98.6859 75.7159 98.6747C76.3863 98.4013 77.0867 98.6035 77.7684 98.5736C78.0081 98.5623 78.2478 98.7796 78.5287 98.7309C78.6261 98.7122 78.7235 98.7196 78.8171 98.6672C79.1617 98.4837 79.4351 98.5361 79.7048 98.8432C79.7534 98.8994 79.7872 98.9631 79.8696 98.9219C79.9332 98.8882 79.9445 98.8208 79.9108 98.7683C79.7647 98.5361 79.9257 98.5511 80.0756 98.5511C80.1654 98.5511 80.2553 98.5511 80.3452 98.5511C80.4501 98.5586 80.5287 98.5923 80.4538 98.7159C80.4089 98.7871 80.3714 98.8657 80.4651 98.9219C80.555 98.9743 80.6861 98.9855 80.7422 98.9031C81.0269 98.4762 81.4576 98.5436 81.8696 98.5436C81.9895 98.5436 82.1093 98.5549 82.2104 98.6298C82.3153 98.7084 82.4239 98.7384 82.5363 98.6447C82.5999 98.5923 82.6599 98.5923 82.7235 98.6447C82.8284 98.7309 82.9146 98.6934 83.0119 98.6148C83.1618 98.4949 83.2891 98.5361 83.3715 98.7084C83.4427 98.8545 83.5513 98.9518 83.7198 98.9443C83.8921 98.9369 83.8659 98.7871 83.8959 98.6784C83.9071 98.6298 83.9595 98.5623 83.9932 98.5998C84.1655 98.7796 84.2891 98.6148 84.4352 98.5661C84.5139 98.5399 84.63 98.5399 84.6936 98.5811C84.8135 98.656 84.9071 98.6447 85.0195 98.5773C85.0644 98.5511 85.1543 98.5399 85.1918 98.5698C85.4577 98.7721 85.7086 98.7459 85.9858 98.5698C86.0719 98.5137 86.233 98.5174 86.3341 98.5549C86.6412 98.6747 86.9334 98.6485 87.2442 98.5549C87.3716 98.5137 87.5177 98.5474 87.6076 98.4013C87.6787 98.289 87.7761 98.3339 87.8622 98.4013C88.1469 98.6148 88.4278 98.5848 88.7199 98.4013C88.9297 98.2665 89.1319 98.2627 89.3417 98.4388C89.5439 98.611 89.7836 98.6035 89.9934 98.4462C90.0833 98.3788 90.1357 98.3152 90.2406 98.3976C90.5065 98.5961 90.8848 98.5212 91.132 98.7721C91.1544 98.7945 91.2181 98.802 91.2443 98.7871C91.4728 98.656 91.7462 98.5923 91.9485 98.4462C92.1507 98.3039 92.3005 98.2815 92.4803 98.4125C92.6451 98.5324 92.78 98.5623 92.9522 98.4013C93.1245 98.2403 93.5627 98.2777 93.7463 98.4462C93.8848 98.5698 94.0047 98.5698 94.132 98.435C94.1732 98.3938 94.2407 98.3227 94.2669 98.3339C94.5328 98.4425 94.8137 98.3414 95.0984 98.4725C95.4729 98.6447 95.9186 98.611 96.3119 98.435C96.4842 98.3601 96.6152 98.3114 96.7651 98.4575C96.825 98.5174 96.9074 98.5286 96.9748 98.4537C97.1883 98.2178 97.4168 98.2852 97.6377 98.4313C97.7613 98.5099 97.8962 98.5137 98.0273 98.5474C98.3157 98.626 98.5741 98.7047 98.7539 98.3601C98.7951 98.2852 98.9187 98.3376 98.9786 98.4238C99.0423 98.5137 99.1322 98.5661 99.2333 98.5286C99.4131 98.4612 99.5479 98.42 99.6715 98.6485C99.7427 98.7796 99.8438 98.6672 99.8588 98.5549C99.9 98.2665 100.031 98.289 100.222 98.4313C100.368 98.5361 100.507 98.5736 100.664 98.4051C100.829 98.229 101.151 98.2964 101.319 98.5024C101.585 98.8245 101.675 98.8133 101.851 98.4537C101.949 98.2552 102.113 98.2777 102.237 98.4125C102.357 98.5436 102.454 98.5324 102.567 98.4388C102.69 98.3339 102.833 98.3152 102.986 98.3227C103.499 98.3526 104.012 98.289 104.529 98.3676C104.758 98.4013 105.016 98.3264 105.263 98.3189C105.484 98.3114 105.653 98.3564 105.743 98.5811C105.806 98.7346 105.93 98.7571 106.057 98.6747C106.237 98.5586 106.439 98.5212 106.63 98.5661C106.964 98.6447 107.278 98.5436 107.604 98.5174C107.672 98.5099 107.702 98.4612 107.747 98.42C107.911 98.2815 108.069 98.259 108.17 98.4949C108.23 98.641 108.312 98.656 108.451 98.5961C108.657 98.5099 108.915 98.6073 109.091 98.4051C109.144 98.3451 109.2 98.4013 109.241 98.4462C109.282 98.4912 109.353 98.5511 109.391 98.4987C109.597 98.2066 109.702 98.4537 109.829 98.5698C109.956 98.6859 110.08 98.7496 110.245 98.6185C110.305 98.5698 110.413 98.5623 110.499 98.5623C111.372 98.5623 112.245 98.5623 113.114 98.5623C113.215 98.5623 113.316 98.5623 113.391 98.641C113.477 98.7271 113.556 98.7384 113.649 98.6485C113.683 98.6185 113.762 98.5811 113.773 98.5923C114.091 98.8769 114.503 98.3264 114.807 98.7122C115.043 98.4987 115.256 98.7496 115.485 98.7421C116.17 98.7234 116.855 98.7459 117.537 98.7983C117.751 98.8133 117.975 98.7608 118.148 98.9556C118.211 99.0267 118.324 99.0043 118.398 98.9481C118.683 98.7346 119.005 98.7346 119.331 98.7758C119.432 98.7908 119.53 98.7833 119.623 98.7459C119.799 98.6822 119.957 98.6223 120.046 98.8732C120.084 98.9743 120.208 98.993 120.305 98.9331C120.702 98.6822 121.148 98.7196 121.571 98.7608C121.867 98.7871 122.215 98.6035 122.47 98.9069C122.477 98.9181 122.515 98.9181 122.526 98.9069C122.852 98.5736 123.331 98.8732 123.68 98.6185C123.754 98.5623 123.852 98.5773 123.938 98.6185C124.421 98.847 124.908 98.7421 125.391 98.6335C125.429 98.626 125.47 98.5848 125.5 98.5923C125.931 98.7234 126.391 98.3938 126.811 98.6897C126.837 98.7084 126.893 98.7159 126.923 98.7009C127.474 98.465 128.039 98.5623 128.605 98.6185C128.747 98.6335 128.916 98.5249 129.035 98.5736C129.477 98.7384 129.904 98.5212 130.339 98.5586C130.616 98.5811 130.897 98.5586 131.174 98.5623C131.331 98.5623 131.492 98.5399 131.62 98.6747C131.676 98.7346 131.755 98.7271 131.811 98.6747C131.961 98.5361 132.14 98.5661 132.32 98.5586C132.504 98.5549 132.665 98.5698 132.672 98.8095C132.672 98.8694 132.702 98.9294 132.773 98.9406C132.845 98.9518 132.886 98.9031 132.904 98.8432C133.002 98.5736 133.212 98.5474 133.459 98.5549C133.875 98.5661 134.294 98.5623 134.71 98.5549C134.919 98.5511 135.095 98.5886 135.234 98.7646C135.346 98.9069 135.478 98.9593 135.534 98.7047C135.56 98.5811 135.657 98.5623 135.762 98.5586C136.039 98.5586 136.346 98.4837 136.59 98.5773C136.908 98.6972 137.185 98.5886 137.459 98.6035C137.766 98.626 138.058 98.5024 138.343 98.5661C138.684 98.6447 139.032 98.5549 139.339 98.5961C139.736 98.6485 140.096 98.5399 140.47 98.5586C140.777 98.5736 141.081 98.6859 141.392 98.5586C141.47 98.5286 141.564 98.5698 141.642 98.6223C141.908 98.7945 142.186 98.7871 142.448 98.626C142.568 98.5511 142.691 98.5549 142.819 98.5549C143.534 98.5549 144.249 98.5549 144.965 98.5549C145.114 98.5549 145.253 98.5549 145.369 98.4163C145.481 98.2815 145.646 98.274 145.759 98.4088C145.931 98.6148 146.118 98.5623 146.287 98.45C146.437 98.3451 146.59 98.3189 146.762 98.3189C147.429 98.3189 148.092 98.3189 148.759 98.3152C148.819 98.3152 148.89 98.3302 148.935 98.3039C149.373 98.0231 149.86 98.1691 150.328 98.1429C150.909 98.1092 151.493 98.098 152.077 98.0792C152.178 98.0792 152.276 98.0605 152.354 97.9893C152.452 97.907 152.59 97.862 152.688 97.9107C153.156 98.1279 153.605 97.8433 154.07 97.892C154.542 97.9407 155.021 97.9032 155.5 97.8995C155.62 97.8995 155.751 97.9257 155.849 97.8433C156.044 97.6822 156.212 97.5849 156.339 97.9107C156.369 97.9856 156.459 97.9594 156.527 97.9332C156.609 97.9032 156.673 97.9332 156.744 97.9781C157.006 98.1429 157.062 98.1092 157.137 97.8058C157.193 97.5774 157.373 97.641 157.486 97.7197C157.654 97.8358 157.763 97.8058 157.939 97.7197C158.167 97.6073 158.448 97.5961 158.68 97.7347C158.819 97.8171 158.886 97.7983 158.976 97.6897C159.07 97.5774 159.197 97.5137 159.336 97.4987C159.549 97.4763 159.733 97.4351 159.931 97.2965C160.126 97.1579 160.422 97.3077 160.68 97.2553C161.036 97.1804 161.34 97.2853 161.609 97.5736C161.748 97.7272 162.002 97.7946 162.216 97.8583C162.583 97.9706 162.748 98.1504 162.74 98.5211C162.737 98.8507 162.838 99.1915 162.658 99.5099C162.65 99.5248 162.647 99.5511 162.654 99.5698C162.808 100.139 162.366 100.394 162.044 100.705C161.905 100.836 161.781 100.955 161.74 101.161C161.684 101.439 161.444 101.596 161.231 101.753C161.149 101.813 161.047 101.749 160.954 101.704C160.699 101.585 160.467 101.42 160.186 101.341C160.04 101.3 159.92 101.15 159.796 101.042C159.673 100.929 159.542 100.922 159.418 101.019C159.287 101.12 159.145 101.124 158.995 101.124C158.781 101.128 158.564 101.083 158.403 101.308C158.339 101.397 158.178 101.39 158.107 101.296C157.987 101.139 157.897 101.098 157.774 101.285C157.718 101.367 157.613 101.349 157.527 101.356C157.137 101.382 156.736 101.278 156.369 101.517C156.235 101.607 156.062 101.457 155.905 101.469C155.306 101.51 154.71 101.555 154.111 101.596C154.017 101.603 153.939 101.63 153.867 101.69C153.736 101.802 153.598 101.798 153.463 101.686C153.313 101.562 153.141 101.558 152.991 101.652C152.819 101.761 152.639 101.764 152.452 101.776C151.86 101.809 151.261 101.682 150.676 101.873C150.609 101.895 150.515 101.866 150.448 101.832C150.212 101.723 149.995 101.97 149.864 101.94C149.65 101.892 149.504 101.776 149.298 101.963C149.182 102.068 149.006 102.034 148.897 101.899C148.774 101.742 148.65 101.753 148.523 101.881C148.414 101.989 148.291 102.015 148.144 102.015C147.89 102.015 147.631 101.993 147.399 102.158C147.287 102.236 147.152 102.188 147.028 102.124C146.834 102.027 146.661 102.072 146.444 102.124C146.017 102.221 145.56 102.352 145.118 102.135C145.036 102.094 144.931 102.053 144.863 102.098C144.609 102.27 144.279 102.191 144.028 102.36C143.953 102.412 143.908 102.371 143.845 102.337C143.613 102.218 143.373 102.203 143.144 102.352C143.092 102.386 143.032 102.446 142.987 102.409C142.77 102.24 142.586 102.341 142.369 102.424C142.144 102.506 141.95 102.371 141.789 102.206L141.781 102.214Z" fill="#FFE3CD"/>
<path d="M189.314 88.9933C189.351 88.851 189.34 88.7386 189.209 88.6674C189.153 88.6375 189.134 88.5776 189.127 88.5176C188.966 87.2181 188.76 85.9185 188.932 84.604C188.947 84.4804 188.992 84.3868 189.063 84.2857C189.179 84.1134 189.355 83.9936 189.404 83.7539C189.434 83.6116 189.584 83.4168 189.816 83.428C189.969 83.4355 189.988 83.2745 190.085 83.2221C190.423 83.0498 190.737 82.8513 191.115 82.7352C191.4 82.6453 191.726 82.6004 191.988 82.4244C192.089 82.357 192.19 82.3532 192.299 82.3532C192.726 82.3532 193.153 82.3644 193.58 82.3457C193.868 82.3345 194.101 82.4918 194.307 82.6191C194.471 82.7202 194.61 82.7689 194.786 82.7727C194.981 82.7764 195.19 82.739 195.314 82.9599C195.329 82.9861 195.385 83.0011 195.423 83.0011C196.108 82.9974 196.501 83.488 196.94 83.8962C197.108 84.0535 197.258 84.2332 197.434 84.3868C197.55 84.4879 197.674 84.5965 197.659 84.7838C197.655 84.8512 197.666 84.9298 197.756 84.9486C197.846 84.9673 197.857 84.8699 197.906 84.8325C198.176 84.6152 198.265 84.2595 198.524 84.0348C198.719 83.8625 198.977 83.7726 199.074 83.4767C199.119 83.3344 199.28 83.1734 199.509 83.1734C199.595 83.1734 199.715 83.076 199.767 82.9936C200.015 82.6004 200.479 82.5554 200.801 82.3158C201.089 82.1023 201.501 82.2483 201.696 81.9113C202.146 81.9113 202.546 81.6042 203.015 81.6978C203.142 81.724 203.295 81.6079 203.382 81.6042C203.588 81.5967 203.85 81.4993 203.985 81.563C204.277 81.7016 204.58 81.7952 204.872 81.9188C205.213 82.0611 205.576 82.0499 205.891 82.1772C206.232 82.3158 206.584 82.5142 206.831 82.8251C206.966 82.9899 207.108 83.1509 207.082 83.4018C207.06 83.6003 207.03 83.8288 207.258 83.9599C207.281 83.9711 207.281 84.016 207.299 84.0385C207.464 84.2482 206.988 84.3231 207.194 84.5216C207.408 84.7313 207.194 84.8549 207.146 85.031C207.071 85.2894 206.921 85.5141 206.876 85.795C206.82 86.1395 206.655 86.4841 206.348 86.7125C206.273 86.7687 206.209 86.8211 206.202 86.9222C206.164 87.3866 205.996 87.7799 205.621 88.0832C205.472 88.2031 205.453 88.4427 205.4 88.6075C205.325 88.8472 205.063 88.9783 205.086 89.2517C205.086 89.2854 205.026 89.3266 204.988 89.3566C204.7 89.5738 204.678 89.9483 204.475 90.2217C204.325 90.4239 204.209 90.6636 204.131 90.907C204.048 91.1654 203.857 91.3564 203.779 91.6223C203.719 91.8171 203.599 92.0268 203.468 92.1953C203.123 92.6298 202.88 93.1054 202.715 93.6297C202.681 93.7421 202.58 93.7758 202.509 93.8357C202.146 94.1353 201.973 94.5473 201.805 94.963C201.775 95.0379 201.685 95.0903 201.621 95.1502C201.213 95.5322 200.97 96.0416 200.599 96.461C200.363 96.7307 200.078 97.0228 199.921 97.3486C199.689 97.8392 199.243 98.1163 198.917 98.5058C198.801 98.6481 198.528 98.753 198.288 98.7755C198.123 98.7905 197.943 98.7568 197.846 98.9478C197.835 98.9702 197.756 98.989 197.745 98.9777C197.539 98.7605 197.396 98.9777 197.273 99.0751C197.041 99.2511 196.816 99.2399 196.587 99.1051C196.483 99.0414 196.426 99.0526 196.325 99.1125C196.067 99.2698 195.835 99.1125 195.58 99.0713C195.37 99.0339 195.112 99.3073 194.85 99.1051C194.782 99.0526 194.73 99.0189 194.64 99.0676C194.441 99.1725 194.209 99.0713 194.153 98.8391C194.119 98.7043 194.041 98.6182 193.969 98.5133C193.644 98.034 193.284 97.5845 192.865 97.1726C192.576 96.8917 192.415 96.4835 192.183 96.1389C191.988 95.8506 191.943 95.4648 191.595 95.2663C191.445 95.1839 191.501 94.9817 191.43 94.8356C191.239 94.4424 190.996 94.0791 190.831 93.6709C190.685 93.3001 190.632 92.8919 190.408 92.5586C190.149 92.1804 190.175 91.6972 189.977 91.3302C189.816 91.0306 189.887 90.6486 189.602 90.4164C189.587 90.4052 189.572 90.3827 189.572 90.364C189.617 89.8809 189.325 89.4652 189.31 89.012L189.314 88.9933ZM195.438 90.319H195.445C195.445 90.2179 195.445 90.1205 195.445 90.0194C195.434 89.7498 195.344 89.4726 195.322 89.2255C195.284 88.806 195.026 88.469 195.022 88.0607C195.022 88.0121 195.022 87.9409 194.992 87.9184C194.733 87.7349 194.797 87.4653 194.782 87.2144C194.778 87.1132 194.771 87.0196 194.681 86.9447C194.4 86.7088 194.348 86.3343 194.149 86.0571C193.969 85.8062 193.962 85.4542 193.681 85.2669C193.527 85.1658 193.43 85.016 193.314 84.8849C193.262 84.825 193.232 84.7239 193.134 84.7913C193.044 84.8512 193.097 84.9261 193.157 84.9898C193.295 85.1433 193.344 85.2931 193.134 85.4392C193.082 85.4766 193.063 85.5628 193.123 85.5927C193.321 85.6863 193.269 85.8586 193.254 86.0047C193.228 86.2556 193.187 86.4803 193.262 86.7612C193.389 87.2406 193.292 87.7536 193.445 88.263C193.576 88.6974 193.801 89.1431 193.733 89.6299C193.73 89.6711 193.76 89.7348 193.797 89.7573C193.962 89.8621 193.951 90.0194 193.954 90.1805C193.954 90.2591 193.954 90.364 194.003 90.4052C194.265 90.6336 194.22 90.9857 194.34 91.2665C194.516 91.6785 194.61 92.1204 194.812 92.5324C195.097 93.1054 195.37 93.6859 195.632 94.2664C195.85 94.7458 196.19 95.139 196.389 95.6184C196.43 95.7157 196.554 95.7869 196.655 95.8431C196.715 95.8768 196.752 95.7944 196.771 95.7382C196.846 95.5023 197.011 95.345 197.183 95.1802C197.348 95.0229 197.531 94.8656 197.64 94.6521C197.756 94.4237 197.861 94.1877 197.992 93.9705C198.161 93.6896 198.408 93.4425 198.52 93.1466C198.647 92.8095 198.79 92.4762 199.033 92.244C199.209 92.0755 199.146 91.7946 199.382 91.6897C199.419 91.671 199.393 91.5999 199.344 91.5662C199.265 91.51 198.64 91.5175 198.591 91.5999C198.464 91.8021 198.273 91.7721 198.089 91.7721C197.752 91.7721 197.415 91.7721 197.074 91.7721C196.996 91.7721 196.906 91.7721 196.842 91.7384C196.426 91.5287 196.179 91.4688 195.816 91.51C195.79 91.51 195.748 91.5025 195.734 91.4838C195.617 91.3152 195.389 91.2179 195.43 90.9445C195.46 90.7422 195.438 90.5288 195.438 90.319ZM199.632 90.5512C199.632 90.6786 199.629 90.8096 199.632 90.937C199.632 91.0081 199.666 91.083 199.756 91.0756C199.827 91.0681 199.842 91.0006 199.846 90.9407C199.85 90.8059 199.913 90.7085 199.988 90.5962C200.179 90.3078 200.314 89.9857 200.468 89.6786C200.573 89.4652 200.64 89.2554 200.846 89.1169C200.913 89.0719 200.932 89.0008 200.921 88.9334C200.861 88.6188 201.086 88.454 201.269 88.2667C201.318 88.218 201.367 88.1806 201.393 88.1094C201.52 87.7462 201.633 87.3754 201.936 87.1095C202.007 87.0458 202.045 86.9597 202.041 86.8698C202.041 86.6039 202.187 86.4316 202.374 86.2781C202.434 86.2294 202.483 86.1732 202.468 86.1058C202.378 85.7575 202.655 85.5141 202.771 85.2519C202.913 84.9336 202.869 84.6377 202.891 84.3344C202.895 84.2595 202.857 84.1359 202.764 84.2145C202.659 84.3007 202.475 84.3306 202.483 84.5291C202.49 84.6377 202.423 84.6976 202.348 84.7763C202.164 84.9598 201.955 85.1471 201.846 85.3755C201.696 85.7013 201.423 85.9373 201.28 86.2706C201.224 86.4017 201.236 86.6039 201.097 86.6788C200.651 86.9185 200.805 87.4465 200.535 87.7836C200.37 87.9896 200.288 88.2817 200.224 88.5738C200.131 88.9933 199.79 89.3491 199.842 89.8247C199.846 89.8584 199.831 89.9146 199.805 89.9333C199.569 90.0906 199.636 90.334 199.632 90.555V90.5512Z" fill="#FF8CAE"/>
<path d="M203.543 72.9343C203.303 72.9343 203.067 72.9343 202.827 72.9343C202.584 72.9343 202.333 72.9718 202.135 72.762C202.09 72.7134 201.985 72.6984 201.91 72.7059C201.715 72.7208 201.588 72.6235 201.479 72.4924C201.37 72.3576 201.288 72.1741 201.127 72.4512C201.086 72.5224 201.003 72.4999 200.955 72.4287C200.917 72.3688 200.872 72.3239 200.82 72.2752C200.726 72.1928 200.599 72.0992 200.576 71.9943C200.535 71.7808 200.779 71.9119 200.846 71.8258C200.977 71.6572 201.217 71.5524 201.168 71.2715C201.146 71.1404 201.176 71.0168 201.314 70.9419C201.352 70.9232 201.382 70.8633 201.385 70.8183C201.412 70.5 201.397 70.1854 201.565 69.8783C201.651 69.7248 201.606 69.515 201.764 69.3503C201.891 69.2192 201.809 68.987 201.82 68.7997C201.831 68.6162 201.779 68.4177 201.992 68.2979C202.03 68.2754 202.048 68.193 202.052 68.1368C202.056 67.9384 202.194 67.7361 202.191 67.5863C202.176 67.1444 202.367 66.7661 202.505 66.3916C202.629 66.0508 202.67 65.7025 202.775 65.373C202.827 65.2157 202.902 65.0734 202.899 64.9011C202.899 64.7887 202.917 64.6839 203.026 64.6202C203.052 64.6052 203.09 64.5753 203.086 64.5603C203.037 64.182 203.393 63.9199 203.374 63.5416C203.352 63.1296 203.655 62.7664 203.573 62.3394C203.906 62.126 203.685 61.6653 203.97 61.4294C203.985 61.4181 203.992 61.3919 203.992 61.3732C203.951 60.9313 204.251 60.553 204.213 60.1148C204.202 59.995 204.213 59.8714 204.344 59.8077C204.371 59.7965 204.408 59.7665 204.408 59.7478C204.348 59.377 204.678 59.1224 204.693 58.7629C204.708 58.3322 204.805 57.909 205.063 57.5457C205.093 57.5008 205.101 57.4333 205.105 57.3772C205.12 57.1262 205.198 56.8978 205.277 56.6618C205.382 56.3435 205.573 56.0214 205.535 55.6507C205.517 55.4784 205.502 55.2911 205.704 55.1788C205.741 55.1563 205.76 55.0739 205.76 55.0177C205.768 54.8193 205.753 54.6208 205.951 54.4859C205.992 54.456 206 54.3549 205.996 54.2912C205.977 53.8755 206.105 53.516 206.371 53.1901C206.479 53.0591 206.434 52.8606 206.416 52.6958C206.371 52.3026 206.659 52.0366 206.76 51.6996C206.764 51.6846 206.798 51.6734 206.801 51.6584C206.854 51.3475 206.977 51.0629 207.063 50.7633C207.131 50.5311 207.011 50.2427 207.281 50.0705C207.292 50.063 207.299 50.033 207.299 50.0143C207.228 49.49 207.487 49.0181 207.592 48.5312C207.681 48.1193 207.584 47.6212 207.925 47.2691C207.944 47.2504 207.959 47.213 207.955 47.1867C207.887 46.64 208.269 46.1568 208.165 45.5988C208.131 45.4228 208.12 45.2206 208.333 45.097C208.412 45.052 208.386 44.9322 208.389 44.8461C208.401 44.6064 208.329 44.3405 208.588 44.1757C208.607 44.1644 208.618 44.1195 208.614 44.0933C208.55 43.4004 208.91 42.76 208.824 42.0559C208.768 41.5953 209.004 41.3968 209.472 41.3968C209.88 41.3968 210.288 41.4193 210.693 41.3856C211.015 41.3594 211.21 41.5241 211.449 41.6889C211.76 41.9024 212.045 42.1533 212.404 42.3069C212.592 42.3855 212.794 42.4829 212.94 42.6177C213.056 42.7226 212.981 42.9398 212.989 43.1083C212.989 43.2282 212.989 43.348 212.989 43.4641C212.981 43.7075 213 43.936 212.843 44.1719C212.73 44.3367 212.79 44.5951 212.771 44.8086C212.734 45.2655 212.629 45.7149 212.374 46.1156C212.292 46.2467 212.341 46.4078 212.33 46.5538C212.307 46.8609 212.378 47.168 212.18 47.4714C212.082 47.6212 212.146 47.8758 212.142 48.0856C212.138 48.2241 212.142 48.3552 212 48.4526C211.861 48.5425 211.918 48.7035 211.91 48.8383C211.895 49.0293 211.962 49.2428 211.734 49.3664C211.708 49.3814 211.682 49.4375 211.689 49.4713C211.76 49.872 211.487 50.2053 211.476 50.5873C211.468 50.9356 211.333 51.2914 211.198 51.5573C211.022 51.9056 211.086 52.2389 210.996 52.5647C210.932 52.8081 210.854 53.0591 210.689 53.2763C210.509 53.5085 210.603 53.8118 210.569 54.0777C210.554 54.1901 210.513 54.2612 210.464 54.3586C210.344 54.6058 210.187 54.8492 210.172 55.1338C210.165 55.2649 210.157 55.3885 210.03 55.4747C209.992 55.5009 209.955 55.5533 209.951 55.5945C209.94 55.9053 209.816 56.1862 209.745 56.4746C209.659 56.8229 209.64 57.2199 209.483 57.5382C209.318 57.8753 209.386 58.2947 209.086 58.5756C209.067 58.5943 209.049 58.6318 209.056 58.658C209.146 59.0662 208.835 59.407 208.854 59.804C208.858 59.8976 208.835 59.9838 208.749 60.0399C208.644 60.1073 208.622 60.2122 208.622 60.3246C208.622 60.4931 208.64 60.6654 208.453 60.7702C208.416 60.7927 208.397 60.8751 208.393 60.9313C208.371 61.1934 208.266 61.4631 208.251 61.6878C208.221 62.1409 207.947 62.5117 207.944 62.9649C207.944 63.2345 207.704 63.4667 207.652 63.7476C207.644 63.7888 207.569 63.8562 207.573 63.8599C207.783 64.0772 207.524 64.2644 207.539 64.4666C207.55 64.6277 207.539 64.7812 207.371 64.8786C207.288 64.9273 207.307 65.0396 207.307 65.1295C207.307 65.2793 207.318 65.4291 207.153 65.519C207.116 65.5377 207.082 65.6014 207.082 65.6426C207.093 65.9797 207.026 66.2943 206.899 66.6088C206.831 66.7699 206.899 66.9759 206.7 67.1032C206.618 67.1556 206.655 67.2867 206.648 67.3878C206.637 67.6088 206.704 67.8522 206.457 68.002C206.431 68.017 206.416 68.0769 206.419 68.1106C206.475 68.575 206.198 68.9308 206.03 69.3278C205.944 69.53 206.004 69.7585 205.992 69.9794C205.985 70.118 206.004 70.2603 205.846 70.3427C205.816 70.3577 205.779 70.4026 205.779 70.4326C205.771 70.691 205.58 70.9232 205.565 71.1292C205.532 71.5262 205.363 71.8819 205.333 72.2677C205.314 72.5299 204.869 72.9418 204.58 72.9493C204.232 72.9568 203.884 72.9493 203.535 72.9493L203.543 72.9343Z" fill="#FF8CAE"/>
<mask id="path-4-outside-1_1025_1558" maskUnits="userSpaceOnUse" x="39" y="45" width="156" height="50" fill="black">
<rect fill="white" x="39" y="45" width="156" height="50"/>
<path d="M68.3922 77.834L69.1322 85.382C64.7662 87.01 54.8502 86.936 51.2982 86.936C48.4862 86.936 46.5622 87.084 44.2682 87.084C43.8982 81.682 43.5282 78.5 43.5282 74.06L43.4542 59.408C43.4542 57.114 45.4522 55.634 47.1542 55.264C51.8162 54.82 60.0302 54.154 66.4682 53.266L67.6522 61.11C55.5902 62.442 53.5182 62.738 51.7422 62.96L51.8162 66.216C62.9902 66.068 66.6162 65.846 67.9482 65.846L68.3922 73.912C64.3962 74.578 55.5162 74.356 51.8162 74.652V78.426C53.9622 78.944 65.6542 78.278 68.3922 77.834ZM106.108 55.264L114.322 55.708C113.804 60.222 114.026 67.77 113.878 72.802C113.73 76.206 114.174 80.35 113.582 83.162C113.064 85.678 111.214 86.788 109.216 85.382C101.594 80.202 97.3019 75.91 89.6059 71.174C89.7539 74.06 89.8279 81.016 89.8279 83.68H81.8359C81.8359 79.092 81.3919 69.768 80.7999 61.258C80.8739 59.852 81.3179 58.076 82.9459 58.076C83.5379 58.076 84.2779 58.298 85.1659 58.816L89.0139 61.184C93.9719 64.44 101.002 68.288 105.664 73.912C105.664 73.098 105.738 72.728 105.738 70.952C105.738 67.03 105.738 59.778 106.108 55.264ZM152.508 60.074H142.74C140.076 60.074 137.264 60.148 135.858 60.222C135.71 62.664 135.858 64.884 135.858 68.214C140.964 67.622 152.36 67.696 152.878 67.696V75.836C152.286 75.836 140.594 76.058 135.932 76.576C135.932 80.498 136.154 86.196 136.376 89.6L128.236 90.044C127.718 87.528 127.792 81.756 127.718 74.06C127.718 71.396 127.644 68.954 127.644 65.846C127.644 62.22 127.792 57.706 127.792 53.932C135.266 51.342 151.546 51.86 152.508 51.86V60.074ZM166.189 50.75C170.851 49.788 175.587 49.492 180.101 50.602C187.427 52.674 190.535 58.742 190.535 64.588C190.535 72.062 181.729 77.464 173.737 77.612C173.663 81.756 173.515 89.822 173.367 90.784L165.153 90.488C165.153 86.418 165.449 79.758 165.449 75.688C165.449 67.844 165.005 59.778 164.339 53.562C164.191 51.786 165.079 51.046 166.189 50.75ZM182.617 63.478C182.617 59.408 178.325 57.484 173.071 58.224C173.219 59.778 173.367 66.512 173.737 69.25C178.473 69.546 182.617 66.29 182.617 63.478Z"/>
</mask>
<path d="M68.3922 77.834L69.1322 85.382C64.7662 87.01 54.8502 86.936 51.2982 86.936C48.4862 86.936 46.5622 87.084 44.2682 87.084C43.8982 81.682 43.5282 78.5 43.5282 74.06L43.4542 59.408C43.4542 57.114 45.4522 55.634 47.1542 55.264C51.8162 54.82 60.0302 54.154 66.4682 53.266L67.6522 61.11C55.5902 62.442 53.5182 62.738 51.7422 62.96L51.8162 66.216C62.9902 66.068 66.6162 65.846 67.9482 65.846L68.3922 73.912C64.3962 74.578 55.5162 74.356 51.8162 74.652V78.426C53.9622 78.944 65.6542 78.278 68.3922 77.834ZM106.108 55.264L114.322 55.708C113.804 60.222 114.026 67.77 113.878 72.802C113.73 76.206 114.174 80.35 113.582 83.162C113.064 85.678 111.214 86.788 109.216 85.382C101.594 80.202 97.3019 75.91 89.6059 71.174C89.7539 74.06 89.8279 81.016 89.8279 83.68H81.8359C81.8359 79.092 81.3919 69.768 80.7999 61.258C80.8739 59.852 81.3179 58.076 82.9459 58.076C83.5379 58.076 84.2779 58.298 85.1659 58.816L89.0139 61.184C93.9719 64.44 101.002 68.288 105.664 73.912C105.664 73.098 105.738 72.728 105.738 70.952C105.738 67.03 105.738 59.778 106.108 55.264ZM152.508 60.074H142.74C140.076 60.074 137.264 60.148 135.858 60.222C135.71 62.664 135.858 64.884 135.858 68.214C140.964 67.622 152.36 67.696 152.878 67.696V75.836C152.286 75.836 140.594 76.058 135.932 76.576C135.932 80.498 136.154 86.196 136.376 89.6L128.236 90.044C127.718 87.528 127.792 81.756 127.718 74.06C127.718 71.396 127.644 68.954 127.644 65.846C127.644 62.22 127.792 57.706 127.792 53.932C135.266 51.342 151.546 51.86 152.508 51.86V60.074ZM166.189 50.75C170.851 49.788 175.587 49.492 180.101 50.602C187.427 52.674 190.535 58.742 190.535 64.588C190.535 72.062 181.729 77.464 173.737 77.612C173.663 81.756 173.515 89.822 173.367 90.784L165.153 90.488C165.153 86.418 165.449 79.758 165.449 75.688C165.449 67.844 165.005 59.778 164.339 53.562C164.191 51.786 165.079 51.046 166.189 50.75ZM182.617 63.478C182.617 59.408 178.325 57.484 173.071 58.224C173.219 59.778 173.367 66.512 173.737 69.25C178.473 69.546 182.617 66.29 182.617 63.478Z" fill="#EDF798"/>
<path d="M68.3922 77.834L72.3731 77.4437L71.9574 73.2036L67.7519 73.8856L68.3922 77.834ZM69.1322 85.382L70.5297 89.1299L73.4134 88.0546L73.1131 84.9917L69.1322 85.382ZM44.2682 87.084L40.2775 87.3573L40.5328 91.084H44.2682V87.084ZM43.5282 74.06H47.5282V74.0499L47.5281 74.0398L43.5282 74.06ZM43.4542 59.408H39.4542V59.4181L39.4542 59.4282L43.4542 59.408ZM47.1542 55.264L46.775 51.282L46.5375 51.3046L46.3045 51.3553L47.1542 55.264ZM66.4682 53.266L70.4234 52.669L69.8339 48.7639L65.9216 49.3035L66.4682 53.266ZM67.6522 61.11L68.0912 65.0858L72.2287 64.6289L71.6074 60.513L67.6522 61.11ZM51.7422 62.96L51.2461 58.9909L47.6611 59.439L47.7432 63.0509L51.7422 62.96ZM51.8162 66.216L47.8172 66.3069L47.9073 70.2681L51.8692 70.2156L51.8162 66.216ZM67.9482 65.846L71.9422 65.6261L71.7341 61.846H67.9482V65.846ZM68.3922 73.912L69.0498 77.8576L72.583 77.2687L72.3862 73.6922L68.3922 73.912ZM51.8162 74.652L51.4972 70.6647L47.8162 70.9592V74.652H51.8162ZM51.8162 78.426H47.8162V81.5754L50.8776 82.3143L51.8162 78.426ZM64.4113 78.2243L65.1513 85.7723L73.1131 84.9917L72.3731 77.4437L64.4113 78.2243ZM67.7347 81.6341C66.1965 82.2076 63.2015 82.5883 59.6969 82.7752C56.3548 82.9534 53.0998 82.936 51.2982 82.936V90.936C53.0486 90.936 56.5276 90.9556 60.123 90.7638C63.5559 90.5807 67.7019 90.1844 70.5297 89.1299L67.7347 81.6341ZM51.2982 82.936C49.8214 82.936 48.5811 82.975 47.4568 83.0122C46.3218 83.0497 45.3366 83.084 44.2682 83.084V91.084C45.4938 91.084 46.6176 91.0443 47.7211 91.0078C48.8353 90.971 49.963 90.936 51.2982 90.936V82.936ZM48.2588 86.8107C47.8764 81.2267 47.5282 78.3176 47.5282 74.06H39.5282C39.5282 78.6824 39.92 82.1373 40.2775 87.3573L48.2588 86.8107ZM47.5281 74.0398L47.4541 59.3878L39.4542 59.4282L39.5282 74.0802L47.5281 74.0398ZM47.4542 59.408C47.4542 59.431 47.446 59.4748 47.4298 59.5101C47.4182 59.5355 47.4216 59.5149 47.4758 59.4614C47.532 59.4059 47.6198 59.3385 47.7344 59.2776C47.8507 59.2158 47.9504 59.1843 48.0039 59.1727L46.3045 51.3553C43.5758 51.9485 39.4542 54.5108 39.4542 59.408H47.4542ZM47.5334 59.246C52.0995 58.8111 60.4658 58.1318 67.0147 57.2285L65.9216 49.3035C59.5946 50.1762 51.5329 50.8289 46.775 51.282L47.5334 59.246ZM62.513 53.863L63.697 61.707L71.6074 60.513L70.4234 52.669L62.513 53.863ZM67.2131 57.1342C55.1245 58.4691 53.0316 58.7677 51.2461 58.9909L52.2383 66.9291C54.0048 66.7083 56.0559 66.4149 68.0912 65.0858L67.2131 57.1342ZM47.7432 63.0509L47.8172 66.3069L55.8152 66.1251L55.7412 62.8691L47.7432 63.0509ZM51.8692 70.2156C57.4781 70.1414 61.2004 70.0484 63.6927 69.9737C66.2757 69.8963 67.3605 69.846 67.9482 69.846V61.846C67.2039 61.846 65.8097 61.9067 63.4531 61.9773C61.006 62.0506 57.3283 62.1426 51.7632 62.2164L51.8692 70.2156ZM63.9542 66.0658L64.3982 74.1319L72.3862 73.6922L71.9422 65.6261L63.9542 66.0658ZM67.7346 69.9664C66.0786 70.2424 63.1689 70.3553 59.9118 70.4216C56.8705 70.4835 53.5051 70.5041 51.4972 70.6647L52.1352 78.6393C53.8273 78.5039 56.7519 78.4875 60.0746 78.4199C63.1814 78.3567 66.7098 78.2476 69.0498 77.8576L67.7346 69.9664ZM47.8162 74.652V78.426H55.8162V74.652H47.8162ZM50.8776 82.3143C51.9571 82.5749 53.5852 82.6112 54.9169 82.6145C56.4425 82.6181 58.2581 82.567 60.06 82.4868C63.5813 82.3301 67.4049 82.0464 69.0325 81.7824L67.7519 73.8856C66.6415 74.0656 63.2501 74.3369 59.7044 74.4947C57.9728 74.5718 56.2919 74.6177 54.9361 74.6145C53.3864 74.6107 52.7483 74.5361 52.7548 74.5377L50.8776 82.3143ZM106.108 55.264L106.324 51.2698L102.439 51.0598L102.121 54.9372L106.108 55.264ZM114.322 55.708L118.296 56.164L118.78 51.9431L114.538 51.7138L114.322 55.708ZM113.878 72.802L117.874 72.9757L117.875 72.9477L117.876 72.9196L113.878 72.802ZM113.582 83.162L109.668 82.338L109.666 82.3467L109.664 82.3554L113.582 83.162ZM109.216 85.382L111.518 82.1108L111.491 82.092L111.464 82.0737L109.216 85.382ZM89.6059 71.174L91.7023 67.7674L85.2214 63.7791L85.6112 71.3789L89.6059 71.174ZM89.8279 83.68V87.68H93.8279V83.68H89.8279ZM81.8359 83.68H77.8359V87.68H81.8359V83.68ZM80.7999 61.258L76.8054 61.0478L76.7926 61.2918L76.8096 61.5356L80.7999 61.258ZM85.1659 58.816L87.2623 55.4094L87.2221 55.3846L87.1814 55.3609L85.1659 58.816ZM89.0139 61.184L91.2096 57.8405L91.1604 57.8082L91.1103 57.7774L89.0139 61.184ZM105.664 73.912L102.584 76.4648L109.664 85.0051V73.912H105.664ZM105.892 59.2582L114.106 59.7022L114.538 51.7138L106.324 51.2698L105.892 59.2582ZM110.348 55.252C110.062 57.745 109.989 60.9569 109.961 64.0247C109.933 67.2007 109.952 70.2195 109.88 72.6844L117.876 72.9196C117.952 70.3525 117.934 67.0813 117.961 64.0968C117.989 61.0041 118.064 58.185 118.296 56.164L110.348 55.252ZM109.882 72.6283C109.801 74.4726 109.88 76.602 109.897 78.2448C109.915 80.0675 109.864 81.4075 109.668 82.338L117.496 83.986C117.892 82.1045 117.915 79.9665 117.896 78.1632C117.876 76.18 117.806 74.5354 117.874 72.9757L109.882 72.6283ZM109.664 82.3554C109.55 82.9118 109.442 82.5507 110.065 82.2168C110.401 82.0366 110.789 81.9688 111.135 82.0094C111.453 82.0468 111.582 82.156 111.518 82.1108L106.914 88.6532C108.848 90.0144 111.437 90.5577 113.843 89.2687C116.02 88.1023 117.096 85.9282 117.5 83.9686L109.664 82.3554ZM111.464 82.0737C107.78 79.5698 104.916 77.2931 101.887 74.9483C98.8676 72.6113 95.7358 70.2495 91.7023 67.7674L87.5095 74.5806C91.172 76.8345 94.0343 78.9867 96.9904 81.2747C99.9364 83.5549 103.03 86.0142 106.968 88.6903L111.464 82.0737ZM85.6112 71.3789C85.7534 74.1524 85.8279 81.0175 85.8279 83.68H93.8279C93.8279 81.0145 93.7544 73.9676 93.6007 70.9691L85.6112 71.3789ZM89.8279 79.68H81.8359V87.68H89.8279V79.68ZM85.8359 83.68C85.8359 78.9469 85.3836 69.5089 84.7903 60.9804L76.8096 61.5356C77.4003 70.0271 77.8359 79.2371 77.8359 83.68H85.8359ZM84.7944 61.4682C84.8047 61.273 84.8259 61.1132 84.85 60.9998C84.8763 60.8763 84.8884 60.8906 84.8356 60.9918C84.7801 61.098 84.6029 61.3924 84.2139 61.6622C83.7846 61.96 83.3145 62.076 82.9459 62.076V54.076C80.2773 54.076 78.571 55.706 77.7448 57.2877C77.0294 58.6572 76.854 60.1256 76.8054 61.0478L84.7944 61.4682ZM82.9459 62.076C82.746 62.076 82.6584 62.0396 82.7086 62.0559C82.7577 62.0719 82.9036 62.1271 83.1504 62.2711L87.1814 55.3609C85.9433 54.6387 84.4976 54.076 82.9459 54.076V62.076ZM83.0695 62.2226L86.9175 64.5906L91.1103 57.7774L87.2623 55.4094L83.0695 62.2226ZM86.8182 64.5275C92.1929 68.0571 98.4224 71.4439 102.584 76.4648L108.743 71.3592C103.581 65.1321 95.7509 60.8228 91.2096 57.8405L86.8182 64.5275ZM109.664 73.912C109.664 73.6202 109.676 73.4526 109.697 72.9703C109.718 72.5011 109.738 71.9051 109.738 70.952H101.738C101.738 71.7749 101.721 72.2519 101.705 72.6152C101.689 72.9654 101.664 73.3898 101.664 73.912H109.664ZM109.738 70.952C109.738 66.9669 109.741 59.9042 110.095 55.5908L102.121 54.9372C101.735 59.6518 101.738 67.0931 101.738 70.952H109.738ZM152.508 60.074V64.074H156.508V60.074H152.508ZM135.858 60.222L135.647 56.2275L132.081 56.4152L131.865 59.98L135.858 60.222ZM135.858 68.214H131.858V72.7046L136.318 72.1874L135.858 68.214ZM152.878 67.696H156.878V63.696H152.878V67.696ZM152.878 75.836V79.836H156.878V75.836H152.878ZM135.932 76.576L135.49 72.6005L131.932 72.9958V76.576H135.932ZM136.376 89.6L136.594 93.5941L140.63 93.3739L140.367 89.3397L136.376 89.6ZM128.236 90.044L124.318 90.8506L125.013 94.2257L128.454 94.0381L128.236 90.044ZM127.718 74.06H123.718V74.0792L123.718 74.0985L127.718 74.06ZM127.792 53.932L126.482 50.1525L123.792 51.0848V53.932H127.792ZM152.508 51.86H156.508V47.86H152.508V51.86ZM152.508 56.074H142.74V64.074H152.508V56.074ZM142.74 56.074C140.025 56.074 137.14 56.149 135.647 56.2275L136.068 64.2165C137.387 64.147 140.126 64.074 142.74 64.074V56.074ZM131.865 59.98C131.708 62.5647 131.858 65.2185 131.858 68.214H139.858C139.858 64.5495 139.711 62.7633 139.85 60.464L131.865 59.98ZM136.318 72.1874C141.129 71.6296 152.207 71.696 152.878 71.696V63.696C152.512 63.696 140.798 63.6144 135.397 64.2406L136.318 72.1874ZM148.878 67.696V75.836H156.878V67.696H148.878ZM152.878 71.836C152.277 71.836 140.391 72.0559 135.49 72.6005L136.373 80.5515C138.526 80.3123 142.462 80.1305 146.065 80.0095C147.838 79.9499 149.487 79.9064 150.728 79.8777C151.349 79.8634 151.866 79.8528 152.244 79.8459C152.434 79.8424 152.587 79.8398 152.7 79.8382C152.756 79.8374 152.801 79.8368 152.834 79.8364C152.871 79.836 152.882 79.836 152.878 79.836V71.836ZM131.932 76.576C131.932 80.6001 132.158 86.3863 132.384 89.8603L140.367 89.3397C140.15 86.0057 139.932 80.3959 139.932 76.576H131.932ZM136.158 85.6059L128.018 86.0499L128.454 94.0381L136.594 93.5941L136.158 85.6059ZM132.153 89.2374C131.981 88.3981 131.866 86.6949 131.809 83.9129C131.754 81.2187 131.755 77.9302 131.717 74.0215L123.718 74.0985C123.754 77.8858 123.755 81.3313 123.811 84.0761C123.865 86.7331 123.973 89.1739 124.318 90.8506L132.153 89.2374ZM131.718 74.06C131.718 72.695 131.699 71.3895 131.68 70.0639C131.662 68.7321 131.644 67.3694 131.644 65.846H123.644C123.644 67.4306 123.663 68.8429 123.681 70.175C123.7 71.5135 123.718 72.761 123.718 74.06H131.718ZM131.644 65.846C131.644 64.0762 131.68 62.0799 131.717 60.0166C131.754 57.9708 131.792 55.8616 131.792 53.932H123.792C123.792 55.7764 123.755 57.8112 123.718 59.8724C123.681 61.9161 123.644 63.9898 123.644 65.846H131.644ZM129.101 57.7115C132.208 56.635 137.59 56.1172 142.743 55.9219C147.77 55.7313 151.874 55.86 152.508 55.86V47.86C152.511 47.86 152.493 47.8599 152.434 47.8591C152.381 47.8583 152.313 47.8571 152.226 47.8555C152.055 47.8524 151.822 47.848 151.542 47.8433C150.979 47.8341 150.219 47.8237 149.309 47.8196C147.493 47.8113 145.075 47.8277 142.44 47.9276C137.344 48.1208 130.85 48.639 126.482 50.1525L129.101 57.7115ZM148.508 51.86V60.074H156.508V51.86H148.508ZM166.189 50.75L165.381 46.8325L165.269 46.8556L165.158 46.8851L166.189 50.75ZM180.101 50.602L181.19 46.753L181.123 46.7342L181.056 46.7177L180.101 50.602ZM173.737 77.612L173.663 73.6127L169.806 73.6841L169.738 77.5406L173.737 77.612ZM173.367 90.784L173.223 94.7814L176.779 94.9096L177.32 91.3922L173.367 90.784ZM165.153 90.488H161.153V94.3465L165.009 94.4854L165.153 90.488ZM164.339 53.562L160.353 53.8942L160.357 53.9412L160.362 53.9881L164.339 53.562ZM173.071 58.224L172.513 54.2631L168.726 54.7964L169.089 58.6032L173.071 58.224ZM173.737 69.25L169.773 69.7857L170.212 73.0375L173.487 73.2422L173.737 69.25ZM166.997 54.6675C171.326 53.7742 175.415 53.5688 179.146 54.4863L181.056 46.7177C175.759 45.4152 170.376 45.8018 165.381 46.8325L166.997 54.6675ZM179.012 54.451C184.283 55.9418 186.535 60.1606 186.535 64.588H194.535C194.535 57.3234 190.571 49.4062 181.19 46.753L179.012 54.451ZM186.535 64.588C186.535 66.6284 185.337 68.7724 182.796 70.6006C180.265 72.422 176.857 73.5535 173.663 73.6127L173.811 81.6113C178.609 81.5225 183.599 79.879 187.469 77.0939C191.33 74.3156 194.535 70.0216 194.535 64.588H186.535ZM169.738 77.5406C169.701 79.6136 169.645 82.6538 169.581 85.2937C169.549 86.6153 169.514 87.8228 169.48 88.7529C169.439 89.8243 169.406 90.2214 169.413 90.1758L177.32 91.3922C177.401 90.8656 177.442 89.8937 177.474 89.0526C177.511 88.0703 177.546 86.822 177.579 85.4888C177.644 82.8192 177.699 79.7544 177.736 77.6834L169.738 77.5406ZM173.511 86.7866L165.297 86.4906L165.009 94.4854L173.223 94.7814L173.511 86.7866ZM169.153 90.488C169.153 88.5206 169.225 85.901 169.299 83.1983C169.373 80.536 169.449 77.7906 169.449 75.688H161.449C161.449 77.6554 161.377 80.275 161.302 82.9777C161.229 85.64 161.153 88.3854 161.153 90.488H169.153ZM169.449 75.688C169.449 67.7122 168.998 59.5035 168.316 53.1359L160.362 53.9881C161.011 60.0525 161.449 67.9758 161.449 75.688H169.449ZM168.325 53.2298C168.311 53.0639 168.376 53.5041 167.96 54.043C167.584 54.5308 167.173 54.6273 167.22 54.6149L165.158 46.8851C164.095 47.1687 162.685 47.7831 161.624 49.159C160.524 50.5859 160.219 52.2841 160.353 53.8942L168.325 53.2298ZM186.617 63.478C186.617 59.7501 184.525 56.9847 181.656 55.4965C178.971 54.1036 175.682 53.8168 172.513 54.2631L173.629 62.1849C175.714 61.8912 177.198 62.1964 177.972 62.598C178.33 62.7833 178.467 62.9496 178.516 63.0245C178.552 63.0801 178.617 63.1951 178.617 63.478H186.617ZM169.089 58.6032C169.151 59.2498 169.217 61.1199 169.325 63.4761C169.424 65.6465 169.559 68.2057 169.773 69.7857L177.701 68.7143C177.544 67.5563 177.421 65.3795 177.317 63.1099C177.221 61.0261 177.139 58.7522 177.053 57.8448L169.089 58.6032ZM173.487 73.2422C176.82 73.4505 179.921 72.419 182.232 70.8169C184.372 69.3331 186.617 66.7592 186.617 63.478H178.617C178.617 63.2 178.711 63.172 178.564 63.3941C178.424 63.6049 178.141 63.9186 177.674 64.2421C176.729 64.897 175.39 65.3455 173.986 65.2578L173.487 73.2422Z" fill="#FF7989" mask="url(#path-4-outside-1_1025_1558)"/>
<path d="M157.744 16C157.746 16.0629 157.755 16.1325 157.831 16.1325C157.964 16.1325 158.038 16.2245 158.11 16.3031C158.213 16.4131 158.357 16.4714 158.476 16.5163C158.705 16.6016 158.828 16.7767 158.979 16.9361C158.988 16.9451 159.001 16.9631 158.999 16.9631C158.853 17.109 159.015 17.3559 158.828 17.4906C158.765 17.5355 158.779 17.6096 158.781 17.6725C158.797 17.9868 158.68 18.2629 158.554 18.5435C158.469 18.7321 158.361 18.9117 158.37 19.1474C158.375 19.3023 158.283 19.4707 158.222 19.6278C158.132 19.8658 158.038 20.0992 157.971 20.3484C157.923 20.519 157.914 20.7233 157.786 20.8715C157.771 20.8894 157.753 20.9119 157.753 20.9321C157.755 21.2015 157.593 21.4058 157.486 21.6303C157.479 21.646 157.468 21.6662 157.472 21.6819C157.51 21.9131 157.405 22.1399 157.322 22.3195C157.232 22.5193 157.27 22.728 157.183 22.8964C157.059 23.1389 157.028 23.4038 156.931 23.6395C156.855 23.8213 156.859 24.0323 156.727 24.1985C156.632 24.3152 156.619 24.4881 156.588 24.625C156.54 24.8293 156.352 24.9932 156.415 25.2221C156.244 25.3546 156.325 25.5881 156.204 25.7407C156.163 25.7924 156.17 25.853 156.168 25.9113C156.168 25.9899 156.163 26.0685 156.085 26.1156C156.071 26.1246 156.049 26.1426 156.049 26.1538C156.085 26.3715 155.883 26.5197 155.883 26.7262C155.883 26.8834 155.766 26.9934 155.703 27.1236C155.665 27.1999 155.629 27.2673 155.631 27.3526C155.631 27.4379 155.627 27.5187 155.541 27.5703C155.523 27.5816 155.501 27.6107 155.505 27.6287C155.535 27.8375 155.449 28.0463 155.364 28.1967C155.234 28.4257 155.33 28.7108 155.131 28.9016C155.122 28.9083 155.113 28.9218 155.113 28.933C155.119 29.1036 155.032 29.2473 154.996 29.4067C154.962 29.5504 155.016 29.7142 154.866 29.8287C154.834 29.8534 154.85 29.941 154.848 30.0016C154.843 30.1228 154.859 30.2373 154.742 30.3406C154.657 30.4147 154.717 30.5561 154.706 30.6683C154.688 30.8277 154.8 30.8232 154.908 30.8502C154.998 30.8726 155.092 30.9445 155.151 30.9961C155.312 31.133 155.564 31.0096 155.69 31.2116C155.707 31.2385 155.791 31.2296 155.844 31.2296C156.284 31.2296 156.727 31.2318 157.167 31.2296C157.445 31.2296 157.656 31.3777 157.867 31.5326C157.89 31.5483 157.908 31.6 157.923 31.5977C158.13 31.5663 158.271 31.7661 158.458 31.7571C158.693 31.7459 158.75 31.9524 158.887 32.0602C158.929 32.0939 158.864 32.132 158.819 32.1545C158.384 32.3543 157.903 32.3386 157.479 32.2443C156.938 32.1253 156.408 32.2128 155.876 32.1635C155.777 32.1545 155.669 32.1814 155.611 32.0624C155.604 32.049 155.58 32.031 155.568 32.0355C155.288 32.1006 155.065 31.8694 154.796 31.8806C154.738 31.8828 154.677 31.8806 154.623 31.8514C154.491 31.7751 154.318 31.8402 154.322 31.9861C154.331 32.2667 154.237 32.5002 154.078 32.7224C154.051 32.7606 154.066 32.8257 154.06 32.8796C154.055 32.9267 154.062 32.9963 154.037 33.0143C153.891 33.1153 153.914 33.2635 153.918 33.4004C153.929 33.6339 153.855 33.8337 153.705 34.0065C153.691 34.0222 153.678 34.0627 153.682 34.0671C153.813 34.1749 153.705 34.2961 153.66 34.3567C153.489 34.5723 153.584 34.8551 153.451 35.0751C153.444 35.0841 153.435 35.0976 153.438 35.1065C153.496 35.3445 153.343 35.5376 153.307 35.7486C153.267 36.0045 153.139 36.229 153.117 36.4939C153.092 36.7611 153.047 37.0462 152.91 37.2953C152.883 37.3447 152.883 37.3986 152.881 37.4502C152.879 37.5849 152.906 37.7286 152.769 37.8229C152.757 37.8319 152.746 37.8566 152.751 37.87C152.796 38.126 152.625 38.3415 152.625 38.5907C152.625 38.685 152.609 38.7815 152.533 38.8533C152.519 38.8645 152.506 38.8825 152.504 38.8982C152.49 39.1025 152.398 39.2956 152.374 39.4819C152.333 39.7693 152.237 40.0409 152.178 40.317C152.136 40.5191 152.142 40.7278 152.079 40.9142C152.019 41.0915 151.974 41.2756 151.9 41.4462C151.871 41.5136 151.841 41.5719 151.841 41.6438C151.841 41.7807 151.841 41.9199 151.727 42.0232C151.718 42.0299 151.711 42.0456 151.713 42.0546C151.772 42.3442 151.606 42.5911 151.543 42.8538C151.493 43.0648 151.5 43.305 151.341 43.4891C151.271 43.5699 151.312 43.6844 151.307 43.7854C151.303 43.9022 151.314 44.0122 151.206 44.1087C151.121 44.1873 151.161 44.3264 151.17 44.4364C151.186 44.6542 151.101 44.8091 150.923 44.9303C150.865 44.9707 150.813 44.9932 150.746 44.9932C150.288 44.9932 149.828 45.0134 149.37 44.9842C149.172 44.9707 148.974 44.8944 148.775 44.8607C148.665 44.8405 148.541 44.7171 148.548 44.542C148.552 44.4207 148.606 44.2748 148.458 44.185C148.427 44.1671 148.445 44.1154 148.472 44.1154C148.73 44.1064 148.658 43.8999 148.685 43.7607C148.701 43.6754 148.669 43.5811 148.775 43.534C148.784 43.5295 148.793 43.5138 148.793 43.5048C148.754 43.2556 148.925 43.0513 148.943 42.8179C148.959 42.6001 149.04 42.416 149.147 42.2364C149.156 42.2207 149.179 42.2005 149.174 42.1938C149.042 42.0007 149.278 41.8278 149.206 41.6325C149.181 41.5674 149.206 41.4911 149.282 41.4485C149.3 41.4372 149.327 41.4103 149.325 41.3946C149.289 41.1678 149.489 40.995 149.457 40.766C149.439 40.6313 149.446 40.4921 149.565 40.3866C149.61 40.344 149.594 40.2744 149.596 40.216C149.599 40.1374 149.603 40.0701 149.675 40.0095C149.776 39.9264 149.693 39.7939 149.733 39.6884C149.825 39.4527 149.792 39.1699 149.881 38.9611C149.974 38.7456 149.929 38.5278 150.012 38.3392C150.149 38.0362 150.113 37.686 150.268 37.4031C150.387 37.1876 150.346 36.9676 150.398 36.7588C150.438 36.5972 150.51 36.4355 150.564 36.2739C150.595 36.1796 150.636 36.0921 150.636 35.991C150.636 35.9237 150.64 35.8586 150.701 35.8159C150.719 35.8025 150.746 35.7666 150.744 35.7643C150.593 35.6072 150.766 35.4635 150.793 35.331C150.836 35.129 150.896 34.9247 150.95 34.7204C150.986 34.588 151.042 34.4533 151.049 34.3163C151.058 34.0784 151.127 33.8741 151.282 33.6945C151.294 33.681 151.305 33.6608 151.303 33.6473C151.251 33.3914 151.419 33.1714 151.424 32.9245C151.424 32.8235 151.437 32.7224 151.52 32.6461C151.57 32.6012 151.561 32.5361 151.561 32.4777C151.561 32.3879 151.559 32.2981 151.655 32.2443C151.673 32.2353 151.693 32.2039 151.691 32.1859C151.653 31.9547 151.799 31.7571 151.814 31.5371C151.819 31.49 151.808 31.4294 151.848 31.4024C152.014 31.2902 151.938 31.1218 151.951 30.9759C151.96 30.8794 151.902 30.8367 151.808 30.8389C151.718 30.8389 151.628 30.8389 151.541 30.8389C151.446 30.8389 151.348 30.8457 151.289 30.7424C151.278 30.7222 151.235 30.702 151.213 30.7065C150.858 30.7694 150.542 30.5336 150.187 30.583C150.07 30.5987 149.96 30.5718 149.855 30.4887C149.742 30.3989 149.59 30.4596 149.455 30.4483C149.349 30.4393 149.239 30.4663 149.172 30.3451C149.143 30.2957 149.075 30.3002 149.024 30.3069C148.896 30.3249 148.813 30.2485 148.725 30.1789C148.665 30.1295 148.662 30.0667 148.671 30.0016C148.683 29.9253 148.759 29.9365 148.799 29.9051C148.97 29.7749 149.194 29.7973 149.37 29.6873C149.455 29.6334 149.556 29.6648 149.65 29.6581C149.736 29.6514 149.832 29.6783 149.886 29.5751C149.906 29.5346 149.951 29.5324 149.971 29.5706C150.03 29.6828 150.131 29.6514 150.223 29.6581C150.436 29.6738 150.658 29.6132 150.86 29.7569C150.921 29.7995 151.035 29.7681 151.123 29.7704C151.237 29.7704 151.341 29.7838 151.437 29.8669C151.541 29.9544 151.678 29.8961 151.801 29.9095C151.913 29.923 152.041 29.8691 152.12 30.0106C152.149 30.0644 152.21 30.0398 152.225 29.9814C152.27 29.8085 152.391 29.6559 152.351 29.4583C152.335 29.3842 152.349 29.3034 152.432 29.2563C152.466 29.2383 152.488 29.2024 152.484 29.1665C152.439 28.9195 152.546 28.695 152.638 28.4908C152.726 28.2977 152.672 28.053 152.858 27.9026C152.867 27.8959 152.874 27.8801 152.872 27.8712C152.832 27.6512 153.007 27.4805 153.004 27.2583C153 26.9822 153.146 26.7375 153.242 26.4815C153.296 26.3424 153.364 26.2054 153.4 26.055C153.44 25.8866 153.507 25.716 153.62 25.5746C153.642 25.5454 153.671 25.5162 153.664 25.4826C153.626 25.2558 153.716 25.0515 153.795 24.854C153.858 24.6968 153.891 24.5195 154.012 24.3893C154.028 24.3736 154.053 24.3489 154.051 24.3332C154.012 24.1176 154.188 23.9538 154.183 23.7405C154.181 23.5497 154.307 23.3858 154.396 23.2197C154.408 23.1995 154.439 23.1838 154.439 23.1658C154.428 22.9435 154.511 22.7482 154.596 22.5507C154.69 22.3307 154.659 22.068 154.823 21.8705C154.827 21.866 154.832 21.8593 154.832 21.8548C154.789 21.6123 154.994 21.435 155 21.197C155.005 21.0241 155.077 20.8513 155.193 20.7076C155.205 20.6941 155.225 20.6784 155.225 20.6672C155.2 20.4315 155.308 20.2272 155.389 20.0229C155.47 19.8186 155.44 19.5739 155.609 19.3988C155.62 19.3876 155.631 19.3674 155.629 19.3517C155.618 19.1025 155.779 18.9206 155.867 18.7119C155.889 18.6602 155.885 18.5951 155.887 18.5368C155.894 18.42 155.865 18.2966 155.997 18.2202C156.02 18.209 156.026 18.1551 156.026 18.1215C156.029 18.007 156.022 17.8925 156.143 17.8251C156.154 17.8184 156.165 17.7914 156.163 17.778C156.125 17.567 156.32 17.4076 156.287 17.1988C156.284 17.1831 156.287 17.1561 156.296 17.1472C156.489 16.9945 156.406 16.779 156.426 16.5859C156.43 16.5388 156.426 16.4871 156.469 16.4535C156.554 16.3861 156.583 16.33 156.48 16.2425C156.403 16.1773 156.487 16.1549 156.538 16.1504C156.632 16.1414 156.682 16.1033 156.675 16.0045H157.748L157.744 16Z" fill="#FF9E9E"/>
<path d="M97.6495 30.2283C97.6495 30.5741 97.6495 30.9198 97.6495 31.2655C97.6495 31.3486 97.6562 31.4339 97.5686 31.4855C97.517 31.5169 97.5148 31.5731 97.5125 31.6292C97.5125 31.6943 97.5013 31.7616 97.5125 31.8245C97.5799 32.1882 97.4137 32.5204 97.3396 32.8594C97.2992 33.0412 97.2656 33.2208 97.2566 33.4049C97.2521 33.4767 97.2521 33.5486 97.178 33.5912C97.16 33.6025 97.1331 33.6294 97.1353 33.6451C97.169 33.8606 96.9872 34.0245 97.0029 34.2378C97.0119 34.3433 96.9939 34.4533 96.9041 34.5319C96.8704 34.561 96.8682 34.6059 96.8682 34.6486C96.8682 34.7608 96.8794 34.8776 96.7559 34.9449C96.7469 34.9494 96.738 34.9674 96.7402 34.9764C96.7784 35.1874 96.6122 35.3468 96.6055 35.5533C96.5988 35.7553 96.4888 35.9349 96.3787 36.1056C96.3698 36.1213 96.3473 36.1347 96.3496 36.1482C96.3698 36.3256 96.2418 36.4558 96.2081 36.6152C96.1677 36.8172 96.0936 36.9968 95.9724 37.1674C95.9118 37.2505 95.8691 37.365 95.8377 37.4682C95.7838 37.6478 95.6828 37.7982 95.584 37.9486C95.557 37.9913 95.5436 38.0362 95.5481 38.0833C95.557 38.2001 95.5189 38.2966 95.4358 38.3707C95.3325 38.4627 95.2741 38.5682 95.2876 38.7119C95.2921 38.7613 95.2584 38.7972 95.2248 38.8331C95.1282 38.9364 95.0294 39.0397 95.0317 39.1991C95.0317 39.2215 95.0249 39.2507 95.0092 39.2664C94.7802 39.5066 94.6747 39.8231 94.5041 40.0993C94.2504 40.5056 93.9024 40.8177 93.5701 41.1499C93.5566 41.1634 93.5432 41.1881 93.532 41.1858C93.2985 41.1409 93.1368 41.3632 92.9033 41.3497C92.589 41.3317 92.2724 41.3475 91.9559 41.3452C91.7808 41.3452 91.5989 41.3789 91.4507 41.2285C91.4193 41.197 91.3362 41.2083 91.2779 41.2083C91.1319 41.2038 90.9815 41.233 90.8625 41.1028C90.8356 41.0736 90.7727 41.0691 90.7278 41.0691C90.5011 41.0736 90.3125 40.986 90.1463 40.8423C90.1059 40.8087 90.0565 40.8132 90.0116 40.8064C89.96 40.7997 89.9106 40.784 89.9061 40.7279C89.8859 40.5303 89.731 40.4158 89.6053 40.3081C89.3269 40.0656 89.1675 39.7513 88.9789 39.4482C88.8487 39.2395 88.7342 39.0217 88.6376 38.804C88.4962 38.4874 88.3031 38.1978 88.1886 37.8656C88.1482 37.7466 88.1055 37.5872 87.9753 37.4997C87.9574 37.4884 87.9394 37.457 87.9416 37.4413C88.0045 37.1158 87.7171 36.8509 87.7845 36.5209C87.8069 36.4154 87.8159 36.2919 87.7104 36.2066C87.6992 36.1976 87.6902 36.1707 87.6947 36.1572C87.789 35.8811 87.6363 35.6139 87.67 35.3355C87.7059 35.0482 87.679 34.7519 87.679 34.46C87.679 34.3702 87.6745 34.2827 87.7508 34.2131C87.798 34.1704 87.7867 34.1031 87.7867 34.0425C87.7867 33.8449 87.7867 33.6496 87.7867 33.4521C87.7867 33.3465 87.7665 33.2343 87.8878 33.1692C87.9035 33.1602 87.9192 33.1288 87.9169 33.1086C87.9125 32.8504 88.101 32.6686 88.1662 32.4418C88.2088 32.2892 88.3098 32.1567 88.3166 31.9973C88.3233 31.8716 88.4445 31.8537 88.5029 31.7751C88.5344 31.7347 88.6017 31.71 88.5905 31.6516C88.559 31.472 88.7117 31.3486 88.7162 31.1824C88.7162 31.1577 88.7409 31.1151 88.7589 31.1128C89.0126 31.0679 89.0193 30.8345 89.1181 30.6639C89.1922 30.5359 89.3426 30.4506 89.4122 30.3204C89.6502 29.8781 90.061 29.5975 90.3753 29.2316C90.4741 29.1171 90.537 28.9555 90.6537 28.8387C90.894 28.6008 91.105 28.3134 91.3834 28.1338C91.6281 27.9767 91.7942 27.7275 92.03 27.6018C92.2343 27.494 92.3802 27.2246 92.6698 27.2897C92.8045 27.1146 93.065 27.2201 93.2019 27.0495C93.2176 27.0293 93.2536 27.0181 93.2827 27.0181C93.4062 27.0136 93.5275 26.9395 93.6285 26.9306C94.0102 26.8991 94.3649 26.6769 94.7623 26.7644C94.7959 26.7712 94.8431 26.7734 94.8611 26.7959C94.9711 26.9395 95.1327 26.9755 95.2899 27.045C95.6154 27.191 95.9544 27.283 96.2642 27.503C96.7155 27.8218 97.0702 28.2214 97.4272 28.6187C97.5574 28.7624 97.6427 28.9914 97.645 29.2136C97.6495 29.5526 97.645 29.8916 97.645 30.2328L97.6495 30.2283ZM90.3012 36.5298C90.1733 36.8598 90.4539 37.1494 90.4404 37.4862C90.4404 37.5019 90.4517 37.5221 90.4651 37.5311C90.5752 37.6164 90.5729 37.7354 90.5707 37.8566C90.5684 38.0227 90.6672 38.1552 90.7368 38.2899C90.8086 38.4291 90.8917 38.5637 90.9703 38.7007C91.0623 38.8646 91.0736 39.0778 91.2397 39.1968C91.3767 39.2956 91.4081 39.4595 91.4799 39.5897C91.554 39.7289 91.6483 39.8389 91.7448 39.9556C91.7965 40.0162 91.8167 39.9825 91.8683 39.9466C92.0143 39.8411 92.0255 39.657 92.1422 39.5313C92.2837 39.3787 92.4072 39.2013 92.3982 38.9701C92.3982 38.9431 92.4027 38.8982 92.4206 38.887C92.5935 38.7815 92.6541 38.5907 92.7372 38.4313C92.8045 38.3033 92.9056 38.1731 92.9213 38.0317C92.9392 37.8633 93.047 37.7601 93.1121 37.6276C93.1884 37.4727 93.3434 37.347 93.3232 37.1472C93.3164 37.0866 93.3501 37.0372 93.377 36.9833C93.4399 36.8599 93.5409 36.7454 93.5611 36.6196C93.5858 36.4737 93.6173 36.348 93.725 36.2515C93.8081 36.1774 93.8305 36.0876 93.8261 35.9798C93.8216 35.9035 93.8148 35.807 93.8687 35.7576C94.0326 35.6072 93.945 35.3737 94.0887 35.1986C94.1853 35.0796 94.1157 34.8596 94.2279 34.6778C94.3222 34.5251 94.421 34.3164 94.3671 34.0986C94.3604 34.0739 94.3761 34.0357 94.3941 34.0178C94.5625 33.8561 94.5714 33.6204 94.5961 33.4251C94.6343 33.1512 94.8251 32.9133 94.7668 32.6237C94.7645 32.6057 94.7847 32.5765 94.8027 32.5653C94.8992 32.5025 94.8902 32.4037 94.8925 32.3094C94.897 32.1837 94.8588 32.0333 94.9172 31.9412C95.0249 31.7706 95.0025 31.6 95.0047 31.4271C95.0047 31.2588 94.9778 31.0702 95.0541 30.9355C95.1933 30.6841 95.1282 30.4281 95.1484 30.1722C95.1574 30.06 95.1664 29.9432 95.1529 29.8332C95.1058 29.4875 95.2292 29.1396 95.0317 28.7871C94.8813 28.52 94.6612 28.3426 94.4771 28.1226C94.4502 28.0889 94.4098 28.0957 94.3851 28.1271C94.1987 28.3583 93.9495 28.5155 93.7228 28.7018C93.4062 28.9577 93.1076 29.2451 92.8786 29.6043C92.708 29.8714 92.4386 30.0734 92.2186 30.3114C92.149 30.3877 92.0322 30.4326 92.0143 30.5426C91.9941 30.6773 91.9065 30.7604 91.8167 30.8457C91.7538 30.9063 91.655 30.9602 91.6371 31.032C91.572 31.3014 91.3295 31.4541 91.224 31.692C91.1903 31.7684 91.0646 31.7818 91.0825 31.8829C91.1387 32.1769 90.8266 32.2892 90.7637 32.5361C90.7233 32.6933 90.5909 32.8325 90.5729 33.0098C90.5684 33.0637 90.5864 33.1333 90.5415 33.1625C90.4 33.2523 90.4382 33.3892 90.4315 33.5149C90.4292 33.5733 90.4494 33.6541 90.4045 33.6855C90.2563 33.7888 90.2945 33.937 90.2923 34.0739C90.2878 34.341 90.2923 34.6104 90.2878 34.8776C90.2878 34.9876 90.3192 35.1043 90.2137 35.1941C90.1778 35.2255 90.207 35.266 90.2294 35.3041C90.3282 35.4747 90.3102 35.6543 90.2474 35.8294C90.2361 35.8609 90.1935 35.8878 90.2204 35.9237C90.3596 36.1056 90.2563 36.3188 90.308 36.5343L90.3012 36.5298Z" fill="#FF9E9E"/>
<path d="M77.3827 43.4286C77.0998 43.4062 76.882 43.4668 76.6889 43.3231C76.6373 43.285 76.5363 43.2984 76.4622 43.3119C76.2579 43.3456 76.1142 43.2513 75.984 43.1143C75.8717 42.9954 75.7572 42.8786 75.6427 42.7619C75.5888 42.7058 75.609 42.6676 75.6674 42.6362C75.8223 42.5509 75.9728 42.4498 76.1366 42.3847C76.2556 42.3354 76.2579 42.2456 76.2646 42.1558C76.2848 41.8707 76.442 41.6057 76.3859 41.3094C76.5587 41.1568 76.451 40.9031 76.5475 40.7639C76.6642 40.5955 76.6036 40.4159 76.6777 40.2745C76.8281 39.9872 76.7451 39.6931 76.7765 39.4035C76.781 39.3631 76.7765 39.3002 76.8012 39.2845C76.9516 39.1857 76.9112 39.0353 76.9179 38.8984C76.9224 38.7704 76.891 38.6335 77.028 38.5437C77.0437 38.5324 77.0549 38.4988 77.0526 38.4786C76.9965 38.1373 77.2053 37.8275 77.1716 37.4886C77.1627 37.3988 77.1694 37.3112 77.2637 37.2551C77.3221 37.2192 77.3063 37.1496 77.3108 37.0912C77.3243 36.8892 77.2637 36.6737 77.4276 36.4985C77.4545 36.4694 77.4478 36.4065 77.4523 36.3594C77.4635 36.1977 77.4455 36.0383 77.5443 35.8812C77.6005 35.7892 77.5623 35.6387 77.5668 35.513C77.569 35.43 77.56 35.3424 77.6521 35.2953C77.6678 35.2885 77.688 35.2683 77.688 35.2571C77.6476 35.0169 77.8856 34.8485 77.8519 34.6083C77.8137 34.3344 78.0225 34.0942 77.9687 33.8159C78.1505 33.6789 78.027 33.4297 78.1213 33.304C78.247 33.1357 78.1819 32.9224 78.3211 32.7787C78.3571 32.7428 78.3548 32.6912 78.3548 32.644C78.3548 32.3993 78.3975 32.1479 78.5142 31.9503C78.6287 31.7573 78.5703 31.5462 78.6489 31.3801C78.7589 31.1467 78.6803 30.8705 78.8577 30.664C78.8847 30.6326 78.8847 30.5742 78.8847 30.5271C78.8869 30.4305 78.8779 30.334 78.9857 30.2801C78.9992 30.2734 79.0149 30.2509 79.0126 30.2375C78.9812 30.013 79.181 29.8356 79.1428 29.6066C79.1271 29.5101 79.1518 29.427 79.2349 29.353C79.318 29.2789 79.2731 29.1621 79.2798 29.0634C79.2888 28.9309 79.2439 28.785 79.392 28.6952C79.401 28.6907 79.4078 28.675 79.4078 28.6638C79.3763 28.4325 79.5806 28.2507 79.5357 28.015C79.52 27.9319 79.5357 27.8489 79.621 27.795C79.639 27.7838 79.6592 27.7568 79.6592 27.7389C79.6659 27.5391 79.7692 27.3505 79.7872 27.1754C79.8164 26.8948 79.9331 26.6456 79.978 26.3739C80.0072 26.1944 80.005 25.9788 80.0858 25.8374C80.1868 25.6645 80.1576 25.458 80.2834 25.3076C80.308 25.2784 80.3193 25.229 80.3148 25.1909C80.2946 24.9417 80.4091 24.7127 80.4854 24.4972C80.5887 24.2031 80.5977 23.8776 80.7324 23.6127C80.8267 23.4286 80.7705 23.1862 80.9614 23.0492C80.9748 23.0402 80.9861 23.0155 80.9816 23.0021C80.9322 22.7619 81.1006 22.5643 81.1051 22.3353C81.1051 22.2725 81.1208 22.2186 81.1814 22.1849C81.2218 22.1625 81.242 22.1243 81.2398 22.0817C81.2353 21.9492 81.3183 21.8414 81.3475 21.727C81.3924 21.5608 81.4912 21.4014 81.4912 21.2286C81.4912 21.0288 81.5586 20.8694 81.6865 20.7302C81.7337 20.6786 81.7696 20.6247 81.7719 20.5596C81.7763 20.2094 81.9739 19.9377 82.1401 19.6526C82.1513 19.6324 82.167 19.6077 82.1625 19.5875C82.1198 19.3473 82.2321 19.1363 82.3017 18.9253C82.3646 18.7345 82.4297 18.5549 82.4409 18.3506C82.4454 18.2541 82.6093 18.1643 82.4476 18.0543C82.4431 18.052 82.4589 18.0094 82.4723 17.9914C82.6138 17.8141 82.5532 17.6345 82.4746 17.4594C82.4566 17.4189 82.4342 17.392 82.4678 17.3471C82.5734 17.2057 82.6699 17.0934 82.8675 17.0238C83.0875 16.9475 83.2918 16.9632 83.5028 16.934C83.8194 16.8891 84.0664 16.9924 84.2617 17.2416C84.2864 17.2753 84.3133 17.3269 84.3537 17.3179C84.5513 17.2753 84.668 17.4526 84.8409 17.484C85.0183 17.5177 85.0744 17.6928 84.9801 17.8589C84.9621 17.8904 84.9397 17.9106 84.9599 17.9532C85.1058 18.2787 85.0677 18.6043 84.9554 18.9275C84.9375 18.9792 84.9262 19.0308 84.9262 19.0824C84.9262 19.1722 84.9285 19.262 84.8297 19.3137C84.796 19.3316 84.787 19.372 84.7893 19.4079C84.7915 19.5359 84.7084 19.6526 84.704 19.7559C84.6905 19.9939 84.5423 20.1847 84.5266 20.4137C84.5176 20.5394 84.4278 20.6269 84.3829 20.7347C84.2684 21.0153 84.2325 21.3296 84.0327 21.5765C83.9518 21.6753 83.9923 21.819 83.9294 21.9447C83.8531 22.1019 83.8418 22.2927 83.7565 22.4633C83.7094 22.5576 83.761 22.7012 83.6308 22.7731C83.6151 22.7821 83.6083 22.818 83.6106 22.8382C83.6488 23.0492 83.523 23.2311 83.4624 23.4084C83.404 23.5813 83.4175 23.7878 83.33 23.9113C83.2065 24.0841 83.2693 24.3086 83.1189 24.4545C83.101 24.4725 83.0875 24.5107 83.0897 24.5376C83.1122 24.7733 83.0314 25.0135 82.9348 25.1931C82.8136 25.4199 82.8271 25.6623 82.744 25.889C82.6654 26.1023 82.5105 26.3178 82.5621 26.576C82.5778 26.6501 82.5621 26.7309 82.4858 26.7825C82.4633 26.7982 82.4364 26.8319 82.4387 26.8544C82.4723 27.0968 82.3309 27.3078 82.3129 27.5391C82.3039 27.6423 82.3017 27.7411 82.2186 27.8174C82.1625 27.8668 82.1782 27.9364 82.1715 28.0015C82.1535 28.1878 82.2343 28.3989 82.0458 28.5448C82.0413 28.547 82.0413 28.556 82.039 28.5605C82.0143 28.8434 81.9133 29.1015 81.7876 29.3552C81.7584 29.4136 81.7808 29.4966 81.7763 29.5685C81.7696 29.7054 81.8123 29.8581 81.6641 29.9568C81.6484 29.9658 81.6394 30.0017 81.6439 30.0219C81.691 30.2689 81.5765 30.4889 81.4957 30.6999C81.4261 30.8862 81.4418 31.0995 81.361 31.2522C81.2645 31.4318 81.2959 31.6428 81.1657 31.7999C81.1298 31.8448 81.1342 31.9009 81.1342 31.9548C81.1342 32.0805 81.1342 32.204 81.0265 32.3005C80.9838 32.3387 80.9928 32.3993 80.9928 32.4532C80.9928 32.5565 80.995 32.6575 80.894 32.7226C80.8761 32.7338 80.8581 32.7652 80.8626 32.7832C80.912 33.0346 80.7301 33.2434 80.7369 33.4859C80.7391 33.5801 80.7211 33.6767 80.6448 33.7485C80.5909 33.8001 80.6044 33.8697 80.5999 33.9326C80.5954 33.991 80.6134 34.0628 80.5617 34.101C80.4719 34.1683 80.4248 34.2222 80.5528 34.294C80.5752 34.3075 80.5752 34.3344 80.5595 34.3569C80.4203 34.5814 80.3619 34.8283 80.3395 35.0887C80.335 35.1471 80.3305 35.2212 80.2946 35.2571C80.207 35.3491 80.2093 35.4569 80.2003 35.5714C80.1801 35.8587 80.0746 36.1236 79.9758 36.3908C79.9107 36.5659 79.9758 36.759 79.9241 36.9386C79.8635 37.1451 79.8658 37.3943 79.7782 37.5582C79.63 37.8388 79.7468 38.1284 79.6525 38.3776C79.538 38.6761 79.6413 39.0174 79.4392 39.289C79.4123 39.3272 79.419 39.3923 79.4167 39.4439C79.41 39.5786 79.4325 39.711 79.3067 39.821C79.2394 39.8794 79.2753 39.9917 79.2753 40.0792C79.2775 40.4406 79.19 40.7796 79.0463 41.1096C79.0171 41.1792 79.0261 41.2511 79.0238 41.3206C79.0194 41.4374 79.0441 41.5631 78.9161 41.6394C78.9026 41.6462 78.8914 41.6709 78.8936 41.6866C78.9385 41.9313 78.7657 42.1356 78.7679 42.3735C78.7679 42.47 78.7544 42.5643 78.6826 42.6384C78.6422 42.6811 78.6354 42.7305 78.631 42.7866C78.6063 43.0829 78.3638 43.2984 78.0652 43.3231C77.8115 43.3456 77.5758 43.5005 77.3827 43.4399V43.4286Z" fill="#FF9E9E"/>
<path d="M106.508 41.2015C106.351 41.2083 106.23 41.2015 106.106 41.2801C106.001 41.3497 105.828 41.3497 105.727 41.2846C105.556 41.1746 105.386 41.2127 105.211 41.2015C105.116 41.1948 105.027 41.2082 104.959 41.1095C104.905 41.0309 104.807 41.0646 104.726 41.0601C104.481 41.0511 104.256 40.885 104.189 40.6448C104.167 40.5617 104.108 40.4966 104.063 40.436C103.958 40.2946 103.978 40.0925 103.828 39.978C103.816 39.9691 103.805 39.9444 103.807 39.9309C103.857 39.6301 103.653 39.3674 103.682 39.0643C103.704 38.8354 103.688 38.6019 103.675 38.3707C103.668 38.2494 103.675 38.1215 103.576 38.0182C103.534 37.9733 103.536 37.8992 103.558 37.8476C103.594 37.7645 103.668 37.6905 103.565 37.6051C103.558 37.5984 103.569 37.5535 103.585 37.5445C103.74 37.448 103.668 37.356 103.59 37.2527C103.522 37.1651 103.52 37.0686 103.617 36.9855C103.711 36.9025 103.715 36.8127 103.617 36.7319C103.569 36.6937 103.563 36.6466 103.547 36.5949C103.502 36.44 103.684 36.2986 103.567 36.1392C103.565 36.1347 103.612 36.0921 103.637 36.0674C103.673 36.0337 103.688 35.9888 103.641 35.9619C103.543 35.9057 103.563 35.8631 103.641 35.8092C103.655 35.8002 103.657 35.78 103.666 35.7643C103.493 35.6835 103.626 35.5241 103.581 35.4029C103.52 35.2457 103.491 35.0527 103.63 34.8843C103.722 34.7721 103.729 34.6329 103.619 34.5139C103.509 34.3949 103.511 34.2512 103.596 34.1435C103.671 34.0537 103.686 33.9684 103.686 33.8673C103.686 33.5037 103.677 33.14 103.691 32.7786C103.7 32.5428 103.673 32.3094 103.774 32.0669C103.859 31.8671 103.807 31.6112 103.816 31.3777C103.816 31.3485 103.801 31.3036 103.816 31.2902C104.03 31.0994 103.913 30.8479 103.94 30.6234C103.947 30.5651 103.929 30.4932 103.987 30.4596C104.09 30.3989 104.072 30.3024 104.084 30.2104C104.099 30.051 104.025 29.8759 104.16 29.7322C104.189 29.7008 104.155 29.6671 104.129 29.6424C104.099 29.6132 104.086 29.5728 104.115 29.5459C104.236 29.4336 104.191 29.29 104.191 29.1575C104.196 28.6995 104.196 28.2393 104.191 27.7814C104.191 27.6489 104.232 27.5928 104.369 27.5277C104.544 27.4446 104.753 27.4648 104.908 27.3234C104.975 27.2628 105.08 27.2965 105.168 27.2897C105.256 27.283 105.35 27.3032 105.408 27.2089C105.426 27.182 105.46 27.1618 105.482 27.1865C105.651 27.3593 105.967 27.256 106.091 27.5165C106.102 27.5389 106.167 27.5412 106.207 27.5412C106.309 27.5456 106.412 27.5322 106.47 27.6489C106.481 27.6714 106.538 27.6871 106.567 27.6803C106.742 27.6444 106.868 27.7724 107.013 27.8218C107.121 27.8577 107.114 27.9767 107.043 28.0597C106.993 28.1159 106.924 28.1585 106.856 28.1944C106.663 28.2977 106.636 28.4526 106.78 28.6277C106.865 28.731 106.87 28.8612 106.78 28.951C106.706 29.025 106.692 29.0969 106.692 29.1889C106.692 29.3079 106.701 29.4269 106.692 29.5459C106.67 29.8287 106.746 30.1161 106.598 30.3967C106.515 30.5538 106.605 30.7783 106.452 30.9355C106.427 30.9602 106.443 31.0275 106.443 31.0747C106.443 31.2834 106.443 31.4922 106.443 31.701C106.443 31.82 106.443 31.939 106.342 32.031C106.297 32.0692 106.313 32.1298 106.304 32.1837C106.27 32.4059 106.383 32.6484 106.214 32.8549C106.333 33.0053 106.185 33.1422 106.187 33.2904C106.196 33.9729 106.201 34.6576 106.163 35.34C106.145 35.6498 106.21 35.9574 106.192 36.2672C106.16 36.8778 106.219 37.4907 106.172 38.1013C106.167 38.1484 106.178 38.1956 106.187 38.2427C106.201 38.3033 106.16 38.4021 106.241 38.4111C106.32 38.4201 106.288 38.319 106.306 38.2696C106.326 38.2135 106.376 38.1911 106.414 38.1552C106.621 37.9643 106.744 37.7084 106.906 37.4839C107.092 37.228 107.278 36.9631 107.44 36.6915C107.575 36.4602 107.736 36.2492 107.876 36.0247C108.03 35.7733 108.152 35.5106 108.286 35.2502C108.372 35.0841 108.426 34.8821 108.599 34.7563C108.695 34.6867 108.717 34.5476 108.771 34.4443C108.89 34.2243 108.967 33.9818 109.144 33.7955C109.16 33.7798 109.175 33.7506 109.171 33.7304C109.146 33.5127 109.371 33.3667 109.342 33.1467C109.339 33.122 109.36 33.0861 109.38 33.0704C109.568 32.92 109.598 32.682 109.712 32.4935C109.862 32.2488 109.914 31.9659 110.051 31.7145C110.132 31.5641 110.269 31.4047 110.246 31.1869C110.237 31.0881 110.377 30.9961 110.404 30.8681C110.464 30.5651 110.675 30.3226 110.767 30.024C110.839 29.7883 110.915 29.5436 111.037 29.3281C111.084 29.2451 111.18 29.1732 111.277 29.1126C111.454 28.9981 111.659 28.9936 111.84 28.9061C112.011 28.8253 112.229 28.8253 112.397 28.8971C112.615 28.9891 112.848 29.0632 113.028 29.2338C113.051 29.254 113.095 29.2563 113.129 29.2585C113.416 29.2653 113.614 29.4067 113.72 29.6671C113.769 29.7928 113.63 29.8691 113.571 29.8804C113.324 29.9298 113.345 30.1475 113.271 30.3047C113.244 30.3608 113.262 30.4349 113.183 30.464C113.152 30.4753 113.131 30.5045 113.136 30.5336C113.163 30.7492 113.062 30.9265 112.988 31.1151C112.954 31.2004 112.898 31.2655 112.857 31.3441C112.738 31.5753 112.642 31.82 112.525 32.0512C112.449 32.2016 112.334 32.3475 112.323 32.5451C112.316 32.682 112.188 32.8077 112.141 32.9469C112.092 33.0906 112.011 33.2163 111.937 33.3398C111.773 33.6024 111.784 33.9392 111.564 34.1704C111.425 34.3186 111.394 34.5274 111.284 34.68C111.174 34.8282 111.174 35.0347 110.999 35.1447C110.866 35.2278 110.85 35.4029 110.787 35.5308C110.675 35.7598 110.52 35.9708 110.431 36.2088C110.343 36.4423 110.118 36.586 110.035 36.779C109.948 36.9788 109.71 37.0821 109.719 37.3223C109.719 37.3268 109.719 37.3358 109.714 37.338C109.483 37.4705 109.452 37.7511 109.272 37.9307C109.146 38.0586 109.048 38.2337 108.951 38.3954C108.877 38.5188 108.81 38.6378 108.7 38.7299C108.574 38.8354 108.556 39.015 108.435 39.1205C108.215 39.3113 108.129 39.6031 107.909 39.7962C107.842 39.8568 107.86 39.9668 107.804 40.0521C107.727 40.1644 107.671 40.2631 107.541 40.3372C107.449 40.3889 107.424 40.555 107.355 40.6627C107.283 40.775 107.24 40.9142 107.112 40.9793C106.912 41.0803 106.742 41.2711 106.508 41.2038V41.2015Z" fill="#FF9E9E"/>
<path d="M121.964 42.1288C121.683 42.1288 121.405 42.1288 121.124 42.1288C120.976 42.1288 120.825 42.1423 120.709 42.0166C120.666 41.9717 120.594 41.9919 120.536 41.9896C120.403 41.9851 120.26 42.0188 120.165 41.8751C120.15 41.8504 120.087 41.8482 120.048 41.8504C119.793 41.8662 119.593 41.7449 119.373 41.6327C119.171 41.5294 119.049 41.3408 118.865 41.2511C118.376 41.0108 118.104 40.5394 117.707 40.2049C117.52 40.05 117.404 39.8278 117.307 39.601C117.3 39.5853 117.298 39.5629 117.285 39.5539C117.094 39.399 117.042 39.1543 116.894 38.968C116.78 38.8243 116.683 38.6604 116.654 38.4584C116.634 38.3214 116.519 38.1957 116.472 38.0543C116.463 38.0273 116.425 38.0026 116.429 37.9802C116.486 37.6008 116.194 37.2708 116.277 36.8914C116.333 36.6377 116.279 36.3863 116.277 36.1326C116.277 35.87 116.27 35.6073 116.277 35.3469C116.281 35.1763 116.216 34.99 116.393 34.853C116.425 34.8283 116.407 34.7408 116.414 34.6824C116.45 34.4355 116.333 34.1706 116.503 33.9393C116.51 33.9304 116.512 33.9124 116.508 33.9057C116.299 33.6453 116.539 33.4881 116.643 33.2973C116.656 33.2726 116.663 33.2412 116.665 33.212C116.676 33.0459 116.647 32.882 116.786 32.7316C116.865 32.6463 116.831 32.4824 116.887 32.3522C116.948 32.213 117.022 32.0626 117.089 31.9391C117.224 31.6989 117.188 31.425 117.312 31.1915C117.361 31.0973 117.422 30.9873 117.476 30.9177C117.631 30.7179 117.646 30.4597 117.808 30.2622C117.945 30.096 118.014 29.8693 118.091 29.6605C118.12 29.5819 118.169 29.537 118.212 29.4787C118.365 29.2587 118.522 29.0432 118.648 28.8029C118.776 28.5583 118.962 28.3517 119.155 28.1474C119.364 27.9252 119.586 27.7187 119.802 27.5054C119.862 27.4448 119.938 27.4425 120.008 27.4111C120.215 27.3168 120.455 27.3303 120.648 27.1844C120.747 27.1103 120.893 27.1597 121.016 27.1552C121.122 27.1507 121.218 27.1529 121.312 27.0721C121.425 26.9778 121.593 26.9801 121.701 27.0586C121.854 27.1686 122.013 27.1507 122.175 27.1552C122.287 27.1574 122.404 27.1395 122.48 27.2584C122.496 27.2809 122.543 27.2899 122.576 27.2921C122.85 27.2989 123.061 27.4335 123.243 27.6266C123.275 27.658 123.302 27.6872 123.347 27.6872C123.571 27.6895 123.742 27.8152 123.935 27.9072C124.139 28.006 124.263 28.1923 124.447 28.2844C124.615 28.3674 124.73 28.4932 124.866 28.6054C125.044 28.7491 125.071 28.9646 125.192 29.133C125.399 29.4203 125.315 29.7503 125.309 30.0624C125.304 30.2756 125.185 30.4911 125.203 30.6977C125.226 30.9558 125.026 31.1466 125.057 31.3936C125.062 31.4295 125.03 31.4542 125.003 31.4811C124.893 31.5822 124.801 31.6922 124.799 31.856C124.799 31.9189 124.763 31.975 124.721 32.0312C124.545 32.2579 124.395 32.4981 124.256 32.7495C124.191 32.8685 124.067 32.9583 123.968 33.0571C123.834 33.194 123.686 33.313 123.605 33.5016C123.558 33.6093 123.481 33.7126 123.342 33.744C123.21 33.7732 123.147 33.9057 123.043 33.9775C122.83 34.1279 122.621 34.2828 122.388 34.4085C122.26 34.4759 122.121 34.5679 121.99 34.6353C121.827 34.7228 121.64 34.8261 121.425 34.7857C121.308 34.7632 121.176 34.7565 121.086 34.8822C121.05 34.9316 120.976 34.9181 120.917 34.9181C120.531 34.9181 120.143 34.9181 119.757 34.9181C119.678 34.9181 119.608 34.9136 119.552 34.8395C119.503 34.7744 119.038 34.7542 118.969 34.8014C118.921 34.8328 118.921 34.88 118.919 34.9293C118.908 35.1583 118.948 35.394 118.807 35.6006C118.805 35.6051 118.8 35.614 118.802 35.6163C118.978 35.7779 118.841 35.9238 118.782 36.0743C118.771 36.1034 118.773 36.1528 118.789 36.1775C118.989 36.5008 118.888 36.86 118.897 37.2012C118.903 37.4908 118.888 37.7826 118.912 38.0722C118.921 38.1778 118.991 38.2451 119.031 38.3237C119.168 38.5796 119.225 38.8669 119.37 39.1206C119.534 39.408 119.761 39.6594 119.916 39.94C120.167 40.3912 120.567 40.6853 120.915 41.0266C121.153 41.26 121.508 41.2421 121.831 41.1994C121.925 41.1859 122.002 41.1006 122.076 41.0513C122.33 40.8806 122.669 40.9233 122.893 40.6988C122.918 40.6741 122.972 40.6786 123.012 40.6741C123.052 40.6696 123.111 40.6876 123.135 40.6674C123.342 40.4833 123.533 40.5708 123.744 40.6674C123.854 40.7168 123.953 40.7886 124.063 40.8402C124.209 40.9076 124.357 40.9166 124.503 40.9502C124.559 40.9637 124.62 40.9615 124.667 41.0086C124.738 41.0827 124.826 41.1568 124.795 41.2668C124.765 41.3633 124.669 41.4149 124.579 41.4576C124.422 41.5339 124.256 41.59 124.119 41.7045C124.045 41.7651 123.944 41.7786 123.863 41.8078C123.688 41.8684 123.555 42.0615 123.338 42.0009C123.326 41.9986 123.311 41.9986 123.302 42.0031C122.913 42.2568 122.48 42.0884 122.069 42.1356C122.033 42.14 121.997 42.1356 121.961 42.1356L121.964 42.1288ZM119.954 33.8338C120.17 33.863 120.349 33.8316 120.491 33.625C120.565 33.5173 120.673 33.3893 120.807 33.3557C120.969 33.3175 121.048 33.203 121.146 33.0975C121.256 32.9785 121.389 32.873 121.427 32.7001C121.643 32.6799 121.656 32.4599 121.77 32.3409C122.053 32.0446 122.101 31.5979 122.41 31.3128C122.424 31.2993 122.426 31.2679 122.426 31.2454C122.426 31.0254 122.633 30.8571 122.579 30.6236C122.579 30.6146 122.585 30.5966 122.592 30.5922C122.74 30.5046 122.698 30.3564 122.709 30.224C122.727 30.0062 122.653 29.775 122.808 29.5707C122.846 29.5213 122.826 29.4293 122.77 29.3732C122.729 29.3328 122.711 29.2834 122.711 29.2272C122.709 28.7985 122.444 28.5223 122.152 28.2619C122.089 28.2058 122.004 28.1991 121.941 28.2619C121.728 28.4707 121.49 28.666 121.319 28.9062C121.236 29.0252 121.176 29.1644 121.059 29.2632C121.03 29.2879 121.014 29.3125 121 29.3485C120.915 29.6044 120.785 29.8423 120.63 30.0556C120.468 30.2779 120.365 30.5315 120.235 30.7673C120.174 30.8773 120.114 31.0164 120.057 31.1399C120.01 31.2432 119.977 31.3599 119.909 31.452C119.799 31.6069 119.712 31.7775 119.714 31.9571C119.716 32.1681 119.604 32.3365 119.523 32.4959C119.42 32.7001 119.305 32.8865 119.303 33.1222C119.303 33.1738 119.294 33.2412 119.26 33.2748C119.146 33.3871 119.171 33.524 119.168 33.6587C119.168 33.7261 119.431 33.9618 119.496 33.9551C119.507 33.9551 119.523 33.9506 119.528 33.9416C119.631 33.762 119.806 33.8585 119.952 33.8271L119.954 33.8338Z" fill="#FF9E9E"/>
<path d="M138.835 40.1285C138.835 39.9556 138.835 39.7828 138.835 39.6099C138.835 39.5021 138.838 39.4079 138.93 39.3203C139.022 39.2327 138.968 39.0936 138.972 38.9768C138.979 38.7164 139.121 38.5121 139.368 38.447C139.46 38.4223 139.48 38.3685 139.478 38.2921C139.478 38.1776 139.478 38.0699 139.585 37.9891C139.632 37.9531 139.617 37.8791 139.619 37.8184C139.621 37.7017 139.601 37.576 139.725 37.4974C139.745 37.484 139.758 37.4435 139.754 37.4166C139.711 37.1764 139.801 36.9541 139.893 36.7544C139.978 36.568 139.958 36.3345 140.129 36.1864C140.14 36.1774 140.149 36.1527 140.144 36.137C140.097 35.9192 140.29 35.7531 140.266 35.5398C140.497 35.3692 140.297 35.037 140.519 34.8619C140.546 34.8394 140.548 34.7698 140.544 34.7272C140.513 34.4847 140.629 34.2962 140.755 34.1098C140.791 34.056 140.793 33.9998 140.795 33.9392C140.795 33.8494 140.791 33.7574 140.892 33.708C140.905 33.7013 140.923 33.6788 140.923 33.6676C140.876 33.4184 141.058 33.2276 141.094 32.9941C141.125 32.7853 141.137 32.5451 141.301 32.37C141.336 32.3319 141.33 32.2802 141.33 32.2331C141.33 32.1365 141.323 32.04 141.433 31.9884C141.447 31.9816 141.46 31.9592 141.46 31.9435C141.433 31.7033 141.631 31.508 141.588 31.261C141.568 31.1488 141.561 31.0231 141.691 30.9445C141.738 30.9153 141.723 30.8457 141.725 30.7941C141.734 30.6504 141.702 30.509 141.839 30.3877C141.911 30.3249 141.864 30.1835 141.866 30.0757C141.871 29.9522 141.857 29.8377 141.947 29.7233C142.019 29.6312 141.974 29.492 141.979 29.373C141.983 29.272 141.976 29.1755 142.075 29.1014C142.145 29.0498 142.116 28.9577 142.118 28.8814C142.122 28.7602 142.095 28.6322 142.228 28.5469C142.277 28.5155 142.252 28.4347 142.264 28.3785C142.291 28.2236 142.403 28.1608 142.52 28.0643C142.733 27.8847 143.027 28.0351 143.211 27.8285C143.254 27.7791 143.337 27.7994 143.4 27.7994C143.508 27.7994 143.615 27.8106 143.721 27.7971C143.941 27.7702 144.105 27.8398 144.239 28.0194C144.314 28.1181 144.455 28.1406 144.563 28.172C144.7 28.2147 144.832 28.2281 144.96 28.3179C145.034 28.3718 145.137 28.3763 145.142 28.4953C145.146 28.6232 145.03 28.6883 144.956 28.7063C144.673 28.7759 144.675 29.0183 144.63 29.2159C144.583 29.4179 144.67 29.6447 144.5 29.8265C144.468 29.8602 144.489 29.941 144.482 29.9994C144.477 30.0465 144.486 30.1184 144.462 30.1363C144.291 30.2598 144.352 30.4349 144.345 30.5943C144.338 30.7357 144.361 30.8771 144.253 31.0006C144.221 31.0365 144.235 31.1151 144.233 31.1735C144.228 31.3014 144.264 31.4406 144.118 31.5214C144.107 31.5282 144.1 31.5529 144.098 31.5686C144.089 31.7594 144.118 31.9592 143.954 32.1096C144.024 32.3745 143.799 32.5855 143.822 32.8414C143.829 32.9312 143.696 32.9425 143.703 33.03C143.725 33.2702 143.552 33.4341 143.469 33.6317C143.424 33.7394 143.438 33.8562 143.445 33.9662C143.456 34.1862 143.296 34.3321 143.225 34.5139C143.213 34.5431 143.162 34.5656 143.169 34.5992C143.213 34.8327 143.052 35.028 143.05 35.2503C143.05 35.3041 143.05 35.3625 142.996 35.3939C142.915 35.4411 142.908 35.5152 142.91 35.5937C142.913 35.6858 142.91 35.7733 142.816 35.8294C142.803 35.8384 142.785 35.8586 142.787 35.8721C142.818 36.0809 142.652 36.2448 142.657 36.449C142.657 36.5658 142.657 36.669 142.553 36.7701C142.477 36.8464 142.441 36.9923 142.416 37.1001C142.365 37.3246 142.221 37.5311 142.261 37.7825C142.279 37.8903 142.291 38.0138 142.158 38.0789C142.149 38.0833 142.138 38.0991 142.14 38.108C142.151 38.3348 142.055 38.5323 141.99 38.7411C141.911 38.9948 141.916 39.2821 141.839 39.5223C141.77 39.7401 141.741 39.9421 141.727 40.1599C141.727 40.1711 141.727 40.1891 141.723 40.1936C141.523 40.3709 141.628 40.6156 141.579 40.8244C141.545 40.9636 141.518 41.123 141.451 41.233C141.375 41.3587 141.193 41.4305 141.031 41.444C140.847 41.4597 140.638 41.5024 140.483 41.435C140.236 41.3273 139.945 41.4171 139.725 41.224C139.657 41.1656 139.552 41.1993 139.464 41.1971C139.363 41.1926 139.275 41.1903 139.199 41.0938C139.145 41.0264 139.071 40.9501 138.972 40.9299C138.86 40.9075 138.838 40.8311 138.838 40.7324C138.84 40.5303 138.838 40.3283 138.838 40.124L138.835 40.1285Z" fill="#FF9E9E"/>
<path d="M148.018 20.0857C148.011 20.2339 148.061 20.3933 147.933 20.5235C147.903 20.5527 147.915 20.6267 147.912 20.6784C147.906 20.8041 147.908 20.9276 147.809 21.0263C147.764 21.0712 147.775 21.1386 147.773 21.197C147.769 21.3249 147.802 21.4641 147.659 21.5472C147.647 21.5539 147.636 21.5808 147.638 21.5943C147.69 21.8502 147.517 22.068 147.517 22.3149C147.517 22.3935 147.504 22.4721 147.445 22.5282C147.38 22.5888 147.38 22.6629 147.378 22.7415C147.371 22.966 147.264 23.0827 147.041 23.0782C146.835 23.0737 146.61 23.1635 146.424 23.0647C146.269 22.9817 146.107 23.0176 145.97 22.9615C145.62 22.8178 145.212 22.7796 144.947 22.4564C144.843 22.3306 144.846 22.1555 144.96 22.0321C144.985 22.0051 145.014 21.9759 145.007 21.94C144.96 21.6527 145.122 21.4035 145.173 21.1363C145.209 20.95 145.198 20.7053 145.29 20.5863C145.463 20.3618 145.34 20.088 145.499 19.8769C145.573 19.7782 145.521 19.621 145.524 19.4908C145.528 19.1294 145.618 19.0396 145.977 19.0351C146.121 19.0351 146.267 19.0598 146.388 18.9251C146.467 18.8375 146.761 18.9184 146.862 18.9835C147.017 19.0822 147.097 19.2506 147.302 19.3157C147.481 19.3718 147.665 19.4773 147.843 19.5716C148.038 19.6771 148.063 19.8769 148.025 20.0835L148.018 20.0857Z" fill="#FF9E9E"/>
</svg>
