<svg width="252" height="147" viewBox="0 0 252 147" fill="none" xmlns="http://www.w3.org/2000/svg">
<mask id="path-1-outside-1_1025_1659" maskUnits="userSpaceOnUse" x="64" y="52.593" width="158" height="47" fill="black">
<rect fill="white" x="64" y="52.593" width="158" height="47"/>
<path d="M93.6275 82.427L94.3675 89.975C90.0015 91.603 80.0855 91.529 76.5335 91.529C73.7215 91.529 71.7975 91.677 69.5035 91.677C69.1335 86.275 68.7635 83.093 68.7635 78.653L68.6895 64.001C68.6895 61.707 70.6875 60.227 72.3895 59.857C77.0515 59.413 85.2655 58.747 91.7035 57.859L92.8875 65.703C80.8255 67.035 78.7535 67.331 76.9775 67.553L77.0515 70.809C88.2255 70.661 91.8515 70.439 93.1835 70.439L93.6275 78.505C89.6315 79.171 80.7515 78.949 77.0515 79.245V83.019C79.1975 83.537 90.8895 82.871 93.6275 82.427ZM131.343 59.857L139.557 60.301C139.039 64.815 139.261 72.363 139.113 77.395C138.965 80.799 139.409 84.943 138.817 87.755C138.299 90.271 136.449 91.381 134.451 89.975C126.829 84.795 122.537 80.503 114.841 75.767C114.989 78.653 115.063 85.609 115.063 88.273H107.071C107.071 83.685 106.627 74.361 106.035 65.851C106.109 64.445 106.553 62.669 108.181 62.669C108.773 62.669 109.513 62.891 110.401 63.409L114.249 65.777C119.207 69.033 126.237 72.881 130.899 78.505C130.899 77.691 130.973 77.321 130.973 75.545C130.973 71.623 130.973 64.371 131.343 59.857ZM161.093 92.195C161.685 85.239 161.685 75.841 161.389 68.959C156.653 68.959 151.769 69.699 149.549 69.699L149.179 61.855C152.509 60.597 159.909 60.671 164.793 60.671C172.563 60.671 179.815 60.671 182.553 61.337L181.887 69.403C178.631 69.181 173.007 68.959 169.603 68.959C170.047 75.841 169.603 86.127 169.233 92.491L161.093 92.195ZM199.299 87.163C202.777 87.163 203.961 83.981 203.961 81.169C203.961 77.247 202.555 70.957 201.593 66.369C198.189 66.295 194.267 66.073 192.787 65.703L193.157 57.933C193.749 57.933 198.115 58.229 201.297 58.229C207.587 58.229 213.507 57.489 216.615 57.489L217.355 65.185C215.875 65.703 212.027 65.925 210.029 66.073C211.139 70.883 212.175 76.137 212.175 81.169C212.175 88.643 207.735 95.377 199.225 95.377C193.897 95.377 188.791 91.677 187.163 87.533H187.237L193.749 83.315C195.229 85.535 197.005 87.163 199.299 87.163Z"/>
</mask>
<path d="M93.6275 82.427L94.3675 89.975C90.0015 91.603 80.0855 91.529 76.5335 91.529C73.7215 91.529 71.7975 91.677 69.5035 91.677C69.1335 86.275 68.7635 83.093 68.7635 78.653L68.6895 64.001C68.6895 61.707 70.6875 60.227 72.3895 59.857C77.0515 59.413 85.2655 58.747 91.7035 57.859L92.8875 65.703C80.8255 67.035 78.7535 67.331 76.9775 67.553L77.0515 70.809C88.2255 70.661 91.8515 70.439 93.1835 70.439L93.6275 78.505C89.6315 79.171 80.7515 78.949 77.0515 79.245V83.019C79.1975 83.537 90.8895 82.871 93.6275 82.427ZM131.343 59.857L139.557 60.301C139.039 64.815 139.261 72.363 139.113 77.395C138.965 80.799 139.409 84.943 138.817 87.755C138.299 90.271 136.449 91.381 134.451 89.975C126.829 84.795 122.537 80.503 114.841 75.767C114.989 78.653 115.063 85.609 115.063 88.273H107.071C107.071 83.685 106.627 74.361 106.035 65.851C106.109 64.445 106.553 62.669 108.181 62.669C108.773 62.669 109.513 62.891 110.401 63.409L114.249 65.777C119.207 69.033 126.237 72.881 130.899 78.505C130.899 77.691 130.973 77.321 130.973 75.545C130.973 71.623 130.973 64.371 131.343 59.857ZM161.093 92.195C161.685 85.239 161.685 75.841 161.389 68.959C156.653 68.959 151.769 69.699 149.549 69.699L149.179 61.855C152.509 60.597 159.909 60.671 164.793 60.671C172.563 60.671 179.815 60.671 182.553 61.337L181.887 69.403C178.631 69.181 173.007 68.959 169.603 68.959C170.047 75.841 169.603 86.127 169.233 92.491L161.093 92.195ZM199.299 87.163C202.777 87.163 203.961 83.981 203.961 81.169C203.961 77.247 202.555 70.957 201.593 66.369C198.189 66.295 194.267 66.073 192.787 65.703L193.157 57.933C193.749 57.933 198.115 58.229 201.297 58.229C207.587 58.229 213.507 57.489 216.615 57.489L217.355 65.185C215.875 65.703 212.027 65.925 210.029 66.073C211.139 70.883 212.175 76.137 212.175 81.169C212.175 88.643 207.735 95.377 199.225 95.377C193.897 95.377 188.791 91.677 187.163 87.533H187.237L193.749 83.315C195.229 85.535 197.005 87.163 199.299 87.163Z" fill="#EDF798"/>
<path d="M93.6275 82.427L97.6085 82.0367L97.1928 77.7966L92.9873 78.4786L93.6275 82.427ZM94.3675 89.975L95.7651 93.7229L98.6488 92.6477L98.3485 89.5847L94.3675 89.975ZM69.5035 91.677L65.5129 91.9503L65.7681 95.677H69.5035V91.677ZM68.7635 78.653H72.7635V78.6429L72.7635 78.6328L68.7635 78.653ZM68.6895 64.001H64.6895V64.0111L64.6896 64.0212L68.6895 64.001ZM72.3895 59.857L72.0103 55.875L71.7729 55.8976L71.5398 55.9483L72.3895 59.857ZM91.7035 57.859L95.6587 57.262L95.0693 53.3569L91.157 53.8965L91.7035 57.859ZM92.8875 65.703L93.3266 69.6788L97.464 69.222L96.8427 65.106L92.8875 65.703ZM76.9775 67.553L76.4814 63.5839L72.8965 64.032L72.9786 67.6439L76.9775 67.553ZM77.0515 70.809L73.0526 70.8999L73.1426 74.8611L77.1045 74.8087L77.0515 70.809ZM93.1835 70.439L97.1775 70.2192L96.9694 66.439H93.1835V70.439ZM93.6275 78.505L94.2851 82.4506L97.8184 81.8617L97.6215 78.2852L93.6275 78.505ZM77.0515 79.245L76.7326 75.2578L73.0515 75.5522V79.245H77.0515ZM77.0515 83.019H73.0515V86.1684L76.113 86.9073L77.0515 83.019ZM89.6466 82.8173L90.3866 90.3653L98.3485 89.5847L97.6085 82.0367L89.6466 82.8173ZM92.97 86.2271C91.4318 86.8007 88.4369 87.1813 84.9323 87.3682C81.5902 87.5464 78.3352 87.529 76.5335 87.529V95.529C78.2839 95.529 81.7629 95.5486 85.3583 95.3568C88.7912 95.1738 92.9373 94.7774 95.7651 93.7229L92.97 86.2271ZM76.5335 87.529C75.0568 87.529 73.8165 87.568 72.6921 87.6052C71.5572 87.6427 70.5719 87.677 69.5035 87.677V95.677C70.7292 95.677 71.8529 95.6373 72.9565 95.6008C74.0706 95.564 75.1983 95.529 76.5335 95.529V87.529ZM73.4942 91.4037C73.1117 85.8197 72.7635 82.9106 72.7635 78.653H64.7635C64.7635 83.2755 65.1554 86.7304 65.5129 91.9503L73.4942 91.4037ZM72.7635 78.6328L72.6895 63.9808L64.6896 64.0212L64.7636 78.6732L72.7635 78.6328ZM72.6895 64.001C72.6895 64.024 72.6813 64.0678 72.6652 64.1031C72.6535 64.1285 72.657 64.1079 72.7112 64.0544C72.7673 63.9989 72.8552 63.9315 72.9698 63.8706C73.0861 63.8088 73.1858 63.7774 73.2393 63.7657L71.5398 55.9483C68.8111 56.5415 64.6895 59.1038 64.6895 64.001H72.6895ZM72.7688 63.839C77.3348 63.4041 85.7011 62.7248 92.2501 61.8215L91.157 53.8965C84.83 54.7692 76.7683 55.4219 72.0103 55.875L72.7688 63.839ZM87.7484 58.456L88.9324 66.3L96.8427 65.106L95.6587 57.262L87.7484 58.456ZM92.4485 61.7272C80.3599 63.0621 78.2669 63.3607 76.4814 63.5839L77.4737 71.5221C79.2402 71.3013 81.2912 71.0079 93.3266 69.6788L92.4485 61.7272ZM72.9786 67.6439L73.0526 70.8999L81.0505 70.7181L80.9765 67.4621L72.9786 67.6439ZM77.1045 74.8087C82.7135 74.7344 86.4358 74.6414 88.9281 74.5667C91.5111 74.4893 92.5958 74.439 93.1835 74.439V66.439C92.4392 66.439 91.045 66.4997 88.6885 66.5703C86.2413 66.6436 82.5636 66.7357 76.9986 66.8094L77.1045 74.8087ZM89.1896 70.6589L89.6336 78.7249L97.6215 78.2852L97.1775 70.2192L89.1896 70.6589ZM92.97 74.5594C91.3139 74.8354 88.4043 74.9483 85.1472 75.0146C82.1058 75.0765 78.7405 75.0971 76.7326 75.2578L77.3705 83.2323C79.0626 83.0969 81.9873 83.0806 85.3099 83.0129C88.4168 82.9497 91.9452 82.8406 94.2851 82.4506L92.97 74.5594ZM73.0515 79.245V83.019H81.0515V79.245H73.0515ZM76.113 86.9073C77.1925 87.1679 78.8206 87.2043 80.1522 87.2075C81.6778 87.2111 83.4935 87.16 85.2954 87.0798C88.8166 86.9231 92.6402 86.6394 94.2678 86.3754L92.9873 78.4786C91.8769 78.6587 88.4855 78.9299 84.9397 79.0877C83.2081 79.1648 81.5273 79.2108 80.1715 79.2075C78.6218 79.2038 77.9836 79.1291 77.9901 79.1307L76.113 86.9073ZM131.343 59.857L131.559 55.8628L127.674 55.6529L127.357 59.5302L131.343 59.857ZM139.557 60.301L143.531 60.757L144.016 56.5362L139.773 56.3068L139.557 60.301ZM139.113 77.395L143.109 77.5688L143.111 77.5407L143.112 77.5126L139.113 77.395ZM138.817 87.755L134.903 86.931L134.901 86.9397L134.899 86.9484L138.817 87.755ZM134.451 89.975L136.753 86.7038L136.727 86.685L136.7 86.6667L134.451 89.975ZM114.841 75.767L116.938 72.3604L110.457 68.3722L110.847 75.9719L114.841 75.767ZM115.063 88.273V92.273H119.063V88.273H115.063ZM107.071 88.273H103.071V92.273H107.071V88.273ZM106.035 65.851L102.041 65.6408L102.028 65.8848L102.045 66.1286L106.035 65.851ZM110.401 63.409L112.498 60.0024L112.457 59.9777L112.417 59.9539L110.401 63.409ZM114.249 65.777L116.445 62.4335L116.396 62.4012L116.346 62.3704L114.249 65.777ZM130.899 78.505L127.82 81.0578L134.899 89.5981V78.505H130.899ZM131.127 63.8512L139.341 64.2952L139.773 56.3068L131.559 55.8628L131.127 63.8512ZM135.583 59.845C135.297 62.338 135.224 65.5499 135.197 68.6177C135.168 71.7937 135.187 74.8125 135.115 77.2774L143.112 77.5126C143.187 74.9456 143.169 71.6744 143.196 68.6898C143.224 65.5971 143.299 62.778 143.531 60.757L135.583 59.845ZM135.117 77.2213C135.037 79.0656 135.115 81.1951 135.132 82.8378C135.151 84.6605 135.099 86.0005 134.903 86.931L142.731 88.5791C143.128 86.6975 143.15 84.5595 143.132 82.7562C143.111 80.773 143.042 79.1284 143.109 77.5688L135.117 77.2213ZM134.899 86.9484C134.785 87.5048 134.677 87.1437 135.3 86.8098C135.637 86.6296 136.025 86.5618 136.37 86.6024C136.689 86.6399 136.817 86.749 136.753 86.7038L132.149 93.2462C134.084 94.6074 136.672 95.1507 139.078 93.8617C141.255 92.6953 142.332 90.5213 142.735 88.5616L134.899 86.9484ZM136.7 86.6667C133.015 84.1628 130.152 81.8861 127.122 79.5413C124.103 77.2043 120.971 74.8425 116.938 72.3604L112.745 79.1737C116.407 81.4275 119.27 83.5797 122.226 85.8677C125.172 88.148 128.265 90.6072 132.203 93.2833L136.7 86.6667ZM110.847 75.9719C110.989 78.7454 111.063 85.6105 111.063 88.273H119.063C119.063 85.6075 118.99 78.5606 118.836 75.5622L110.847 75.9719ZM115.063 84.273H107.071V92.273H115.063V84.273ZM111.071 88.273C111.071 83.5399 110.619 74.1019 110.026 65.5734L102.045 66.1286C102.636 74.6201 103.071 83.8301 103.071 88.273H111.071ZM110.03 66.0613C110.04 65.866 110.061 65.7062 110.085 65.5928C110.112 65.4693 110.124 65.4836 110.071 65.5848C110.015 65.6911 109.838 65.9854 109.449 66.2552C109.02 66.5531 108.55 66.669 108.181 66.669V58.669C105.513 58.669 103.806 60.299 102.98 61.8807C102.265 63.2502 102.089 64.7187 102.041 65.6408L110.03 66.0613ZM108.181 66.669C107.981 66.669 107.894 66.6326 107.944 66.6489C107.993 66.6649 108.139 66.7201 108.386 66.8641L112.417 59.9539C111.179 59.2317 109.733 58.669 108.181 58.669V66.669ZM108.305 66.8156L112.153 69.1836L116.346 62.3704L112.498 60.0024L108.305 66.8156ZM112.054 69.1205C117.428 72.6502 123.658 76.0369 127.82 81.0578L133.979 75.9523C128.817 69.7251 120.986 65.4159 116.445 62.4335L112.054 69.1205ZM134.899 78.505C134.899 78.2132 134.911 78.0456 134.932 77.5634C134.953 77.0942 134.973 76.4981 134.973 75.545H126.973C126.973 76.3679 126.956 76.8449 126.94 77.2082C126.925 77.5584 126.899 77.9828 126.899 78.505H134.899ZM134.973 75.545C134.973 71.5599 134.976 64.4972 135.33 60.1838L127.357 59.5302C126.97 64.2448 126.973 71.6861 126.973 75.545H134.973ZM161.093 92.195L157.107 91.8558L156.751 96.0398L160.948 96.1924L161.093 92.195ZM161.389 68.959L165.385 68.7871L165.221 64.959H161.389V68.959ZM149.549 69.699L145.553 69.8875L145.733 73.699H149.549V69.699ZM149.179 61.855L147.765 58.1131L145.047 59.1403L145.183 62.0435L149.179 61.855ZM182.553 61.337L186.539 61.6662L186.821 58.2585L183.498 57.4503L182.553 61.337ZM181.887 69.403L181.615 73.3937L185.549 73.662L185.873 69.7322L181.887 69.403ZM169.603 68.959V64.959H165.337L165.611 69.2165L169.603 68.959ZM169.233 92.491L169.088 96.4884L172.999 96.6306L173.226 92.7232L169.233 92.491ZM165.079 92.5342C165.69 85.3508 165.686 75.7702 165.385 68.7871L157.393 69.1309C157.684 75.9119 157.68 85.1272 157.107 91.8558L165.079 92.5342ZM161.389 64.959C158.834 64.959 156.282 65.1579 154.173 65.3446C151.912 65.5447 150.426 65.699 149.549 65.699V73.699C150.892 73.699 152.958 73.4834 154.878 73.3134C156.95 73.1301 159.208 72.959 161.389 72.959V64.959ZM153.545 69.5105L153.175 61.6665L145.183 62.0435L145.553 69.8875L153.545 69.5105ZM150.593 65.5969C151.596 65.2177 153.689 64.9268 156.596 64.7866C159.353 64.6536 162.308 64.671 164.793 64.671V56.671C162.394 56.671 159.207 56.6514 156.211 56.7959C153.364 56.9332 150.092 57.2343 147.765 58.1131L150.593 65.5969ZM164.793 64.671C168.694 64.671 172.391 64.6713 175.454 64.7528C178.659 64.8382 180.723 65.0085 181.608 65.2237L183.498 57.4503C181.645 56.9995 178.714 56.8368 175.666 56.7557C172.476 56.6707 168.662 56.671 164.793 56.671V64.671ZM178.567 61.0079L177.901 69.0739L185.873 69.7322L186.539 61.6662L178.567 61.0079ZM182.159 65.4123C178.83 65.1853 173.114 64.959 169.603 64.959V72.959C172.9 72.959 178.432 73.1767 181.615 73.3937L182.159 65.4123ZM165.611 69.2165C166.037 75.8225 165.611 85.8804 165.24 92.2589L173.226 92.7232C173.595 86.3736 174.057 75.8595 173.595 68.7015L165.611 69.2165ZM169.378 88.4937L161.238 88.1977L160.948 96.1924L169.088 96.4884L169.378 88.4937ZM201.593 66.369L205.508 65.5482L204.856 62.439L201.68 62.37L201.593 66.369ZM192.787 65.703L188.791 65.5128L188.636 68.7883L191.817 69.5836L192.787 65.703ZM193.157 57.933V53.933H189.343L189.161 57.7428L193.157 57.933ZM216.615 57.489L220.597 57.1062L220.249 53.489H216.615V57.489ZM217.355 65.185L218.676 68.9604L221.637 67.9243L221.337 64.8022L217.355 65.185ZM210.029 66.073L209.733 62.0839L205.083 62.4284L206.131 66.9725L210.029 66.073ZM187.163 87.533V83.533H181.294L183.44 88.9956L187.163 87.533ZM187.237 87.533V91.533H188.419L189.412 90.8903L187.237 87.533ZM193.749 83.315L197.077 81.0962L194.888 77.8117L191.574 79.9578L193.749 83.315ZM199.299 91.163C202.504 91.163 204.897 89.5834 206.308 87.3698C207.583 85.3678 207.961 83.0372 207.961 81.169H199.961C199.961 81.6009 199.915 82.0122 199.831 82.3645C199.746 82.7214 199.639 82.9487 199.561 83.0713C199.491 83.1802 199.468 83.173 199.513 83.1473C199.569 83.1155 199.536 83.163 199.299 83.163V91.163ZM207.961 81.169C207.961 76.7167 206.417 69.882 205.508 65.5482L197.678 67.1899C198.693 72.032 199.961 77.7774 199.961 81.169H207.961ZM201.68 62.37C200.024 62.334 198.258 62.2622 196.747 62.1567C195.125 62.0436 194.109 61.9105 193.757 61.8224L191.817 69.5836C192.945 69.8656 194.63 70.0284 196.19 70.1373C197.861 70.2539 199.758 70.3301 201.506 70.3681L201.68 62.37ZM196.782 65.8933L197.152 58.1233L189.161 57.7428L188.791 65.5128L196.782 65.8933ZM193.157 61.933C193.128 61.933 193.172 61.9331 193.369 61.9418C193.536 61.9492 193.755 61.9602 194.027 61.974C194.561 62.0014 195.275 62.0391 196.067 62.0765C197.64 62.151 199.606 62.229 201.297 62.229V54.229C199.806 54.229 197.998 54.159 196.445 54.0855C195.05 54.0195 193.577 53.933 193.157 53.933V61.933ZM201.297 62.229C204.587 62.229 207.753 62.0357 210.427 61.8493C213.206 61.6557 215.244 61.489 216.615 61.489V53.489C214.878 53.489 212.402 53.6923 209.871 53.8687C207.235 54.0524 204.297 54.229 201.297 54.229V62.229ZM212.633 57.8719L213.373 65.5679L221.337 64.8022L220.597 57.1062L212.633 57.8719ZM216.034 61.4096C216.045 61.4054 215.986 61.4262 215.826 61.4618C215.676 61.4954 215.479 61.5327 215.235 61.5717C214.744 61.6502 214.149 61.722 213.491 61.7874C212.16 61.9195 210.792 62.0056 209.733 62.0839L210.324 70.0621C211.264 69.9925 212.818 69.8935 214.282 69.7482C215.599 69.6173 217.411 69.4033 218.676 68.9604L216.034 61.4096ZM206.131 66.9725C207.233 71.7455 208.175 76.6226 208.175 81.169H216.175C216.175 75.6515 215.045 70.0205 213.927 65.1736L206.131 66.9725ZM208.175 81.169C208.175 84.1556 207.284 86.7499 205.814 88.5204C204.417 90.2021 202.318 91.377 199.225 91.377V99.377C204.642 99.377 209.018 97.1849 211.969 93.6311C214.846 90.1661 216.175 85.6564 216.175 81.169H208.175ZM199.225 91.377C195.501 91.377 191.898 88.6462 190.886 86.0704L183.44 88.9956C185.684 94.7078 192.293 99.377 199.225 99.377V91.377ZM187.163 91.533H187.237V83.533H187.163V91.533ZM189.412 90.8903L195.924 86.6723L191.574 79.9578L185.062 84.1758L189.412 90.8903ZM190.421 85.5338C192.069 88.0058 194.888 91.163 199.299 91.163V83.163C199.174 83.163 198.977 83.1395 198.614 82.8676C198.199 82.558 197.68 82.001 197.077 81.0962L190.421 85.5338Z" fill="#FF7989" mask="url(#path-1-outside-1_1025_1659)"/>
<path d="M68.4367 18.2227C68.5719 18.4182 68.7738 18.4629 68.9887 18.4588C69.2668 18.453 69.5479 18.456 69.8184 18.4134C70.3227 18.3357 70.7067 18.5402 71.0854 18.845C71.8237 19.4415 72.4903 20.1166 73.2009 20.7471C73.7056 21.1914 74.2877 21.5306 74.8493 21.8965C75.705 22.4481 76.5738 22.9806 77.3902 23.59C77.5558 23.716 77.7186 23.8479 77.9032 23.9428C78.3417 24.1633 78.7073 24.4873 79.0949 24.7892C79.4972 25.1057 79.8879 25.4311 80.3514 25.653C80.6319 25.7843 80.8146 26.0326 81.0542 26.2172C81.8027 26.8004 82.538 27.4028 83.2938 27.9785C83.6251 28.2305 84.0059 28.3967 84.3329 28.665C85.2074 29.3876 86.1344 30.048 86.9856 30.8032C87.4859 31.249 88.055 31.6222 88.5085 32.1184C88.633 32.2535 88.7796 32.381 88.9303 32.4776C89.381 32.7629 89.8347 33.0423 90.1569 33.4846C90.7311 33.7427 91.1625 34.2169 91.7076 34.5341C92.3458 34.9085 93.0029 35.2517 93.5859 35.7236C93.9039 35.9801 94.3097 36.1329 94.6832 36.3213C94.9741 36.4688 95.1566 36.6876 95.2028 37.0118C95.2459 37.2977 95.1384 37.5165 94.8684 37.6328C94.5499 37.7657 94.2195 37.8779 93.8891 37.9902C93.4486 38.1398 93.0064 38.2703 92.5629 38.4112C92.1194 38.552 91.7156 38.4774 91.302 38.2435C90.4306 37.7612 89.6349 37.1547 88.7532 36.6857C88.1876 36.3803 87.6815 35.9611 87.158 35.5774C86.4127 35.0325 85.612 34.5558 84.9089 33.9473C84.2103 33.3373 83.5263 32.7125 82.8248 32.1085C82.4918 31.8226 82.1237 31.5782 81.7776 31.3115C81.6312 31.1987 81.495 31.0725 81.3588 30.9464C81.2581 30.8525 81.1763 30.7276 81.0625 30.653C80.1995 30.1087 79.4692 29.3765 78.5959 28.8456C78.1246 28.5574 77.7129 28.1701 77.2707 27.8376C76.7309 27.4348 76.1824 27.0497 75.6397 26.6528C75.4356 26.5004 75.2418 26.3347 75.0406 26.1765C74.8941 26.0637 74.7506 25.9449 74.5984 25.8439C73.7395 25.254 72.8777 24.6699 72.0203 24.0843C71.8857 23.9921 71.757 23.888 71.6124 23.8238C71.3305 23.7029 71.0793 23.5566 70.8616 23.3351C70.6127 23.0797 70.2531 23.0048 69.9561 22.8249C69.3976 22.4974 69.4272 22.512 69.2545 23.1175C68.9121 24.3225 68.7642 25.5649 68.4218 26.77C68.3829 26.9014 68.3824 27.0444 68.3701 27.1817C68.2977 28.0388 68.1353 28.8772 68.0011 29.7258C67.9106 30.2985 67.8923 30.881 67.846 31.4534C67.8324 31.6157 67.8718 31.7895 67.8183 31.9358C67.5567 32.67 67.631 33.4527 67.4725 34.2011C67.3212 34.9274 67.1906 35.6566 67.0555 36.3872C67.0143 36.613 67.0012 36.8491 66.9703 37.0763C66.8623 37.9012 66.7559 38.7305 66.6376 39.5539C66.5925 39.855 66.565 40.1501 66.5846 40.4538C66.5914 40.5894 66.6057 40.7471 66.5476 40.8654C66.372 41.2452 66.4261 41.6358 66.4124 42.0296C66.3896 42.8157 66.3624 43.6033 66.2954 44.3896C66.242 45.0137 66.1681 45.6349 66.184 46.2601C66.1866 46.4414 66.1584 46.6333 66.1095 46.8075C66.0146 47.1501 65.9963 47.5012 66.0589 47.8445C66.1413 48.2894 66.0779 48.7248 66.0292 49.16C65.9638 49.734 65.8189 50.3054 65.8035 50.8821C65.784 51.7213 65.5213 52.5248 65.49 53.3582C65.4714 53.8965 65.2362 54.3902 65.0423 54.8896C64.9193 55.2073 64.6616 55.418 64.34 55.5273C63.8393 55.7023 63.3312 55.87 62.823 56.023C62.6497 56.0769 62.4614 56.0867 62.2913 56.179C61.9393 56.3725 61.5693 56.2814 61.2026 56.2434C61.0598 56.2279 60.9602 56.0795 60.9946 55.9348C61.0389 55.7325 61.1303 55.5389 61.1584 55.3323C61.3027 54.4409 61.5001 53.561 61.5766 52.6581C61.6562 51.7788 61.839 50.9137 61.8626 50.0288C61.8783 49.4964 61.9043 48.9654 61.9346 48.4329C61.9985 47.3914 62.0726 46.3514 62.1321 45.3115C62.1663 44.689 62.1755 44.0652 62.2082 43.4383C62.2277 43.0474 62.2501 42.6506 62.2991 42.2595C62.4446 41.1115 62.6049 39.9634 62.7549 38.8139C63.0517 36.4913 63.5298 34.1958 63.7633 31.8602C63.8725 30.7787 64.0096 29.6927 64.216 28.6225C64.4039 27.6424 64.5461 26.6581 64.7458 25.6838C64.837 25.2292 64.9813 24.786 65.074 24.3358C65.1653 23.8812 65.2255 23.4222 65.3006 22.9632C65.3232 22.8274 65.3207 22.6756 65.3832 22.5558C65.6099 22.1093 65.701 21.6399 65.7405 21.1487C65.8072 20.3181 66.1943 19.6496 66.8119 19.1097C66.9523 18.9881 67.1077 18.8812 67.1033 18.6659L68.4205 18.2184L68.4367 18.2227Z" fill="#FFB7B9"/>
<path d="M52.7194 60.8575C52.9283 60.8443 53.1379 60.8403 53.3416 60.818C53.8598 60.7571 54.3501 60.8428 54.8298 61.0554C55.1463 61.1942 55.4953 61.2562 55.828 61.3565C56.0277 61.4186 56.2643 61.4737 56.2577 61.7359C56.2524 61.9465 56.0328 62.0119 55.8805 62.1104C55.7242 62.2184 55.5286 62.2215 55.3429 62.2333C54.8321 62.2657 54.326 62.2979 53.8152 62.3303C53.5366 62.348 53.2746 62.4067 53.0226 62.5489C52.5991 62.7814 52.1172 62.9009 51.7057 63.1747C51.5937 63.2472 51.4524 63.2983 51.3184 63.3161C50.9574 63.3578 50.6662 63.5445 50.3701 63.7269C50.2715 63.7892 50.1834 63.8696 50.074 63.9093C49.0073 64.2902 48.0069 64.8351 46.9565 65.2523C46.5289 65.4197 46.0914 65.5783 45.6647 65.7597C45.052 66.0229 44.424 66.2638 43.8058 66.5134C43.7423 66.5408 43.679 66.5728 43.6097 66.5819C43.0276 66.6656 42.5189 66.9503 41.9825 67.1666C41.319 67.4378 40.6553 67.7043 39.9965 67.9751C39.8875 68.0194 39.7726 68.0454 39.6789 68.1121C38.8524 68.6787 37.9037 69.0101 37.061 69.5403C36.4557 69.9199 35.9022 70.3804 35.328 70.8095C34.9766 71.0748 34.6202 71.3358 34.2839 71.6189C34.0139 71.8464 34.0046 72.0666 34.2409 72.3367C34.3766 72.4917 34.5262 72.6458 34.697 72.7658C34.9024 72.9163 35.1242 73.0331 35.2824 73.2474C35.3437 73.3323 35.4639 73.3901 35.5693 73.4348C35.9724 73.6149 36.3459 73.8436 36.7072 74.1011C37.5179 74.6805 38.4303 75.0993 39.2198 75.7129C39.3081 75.7821 39.4269 75.8166 39.5323 75.8613C39.6615 75.9139 39.8208 75.9271 39.9193 76.0097C40.3382 76.3663 40.8761 76.4677 41.3558 76.6803C41.7731 76.8641 42.2315 76.9612 42.6621 77.1348C43.1118 77.3166 43.5738 77.4695 44.0314 77.6274C44.5127 77.7932 45.0204 77.8591 45.4905 78.0676C46.3823 78.455 47.2818 78.8185 48.1773 79.1916C48.4119 79.2889 48.6506 79.3766 48.8855 79.4785C49.8396 79.8947 50.7941 80.3155 51.748 80.7269C51.8966 80.7923 52.0459 80.8669 52.2018 80.8991C52.7542 81.0089 53.2459 81.2628 53.7424 81.521C54.0703 81.6918 54.4184 81.8146 54.7747 81.9182C55.5295 82.132 56.2693 82.4028 57.0201 82.6263C58.555 83.085 59.9974 83.7739 61.4921 84.3333C61.9648 84.509 62.3413 84.7842 62.7412 85.0626C62.9559 85.2126 63.0333 85.4039 63.0579 85.6454C63.0882 85.9753 63.0715 86.2989 62.9653 86.6094C62.6983 87.3976 62.5789 88.2324 62.2454 89.0014C62.1846 89.1455 62.1721 89.3145 62.1496 89.4749C62.0586 90.0976 61.8823 90.6977 61.7152 91.2972C61.6502 91.521 61.5758 91.7454 61.5578 91.9756C61.4964 92.6244 61.2931 93.2403 61.1325 93.8674C60.9718 94.4946 60.8823 95.1406 60.7452 95.7709C60.6225 96.3349 60.4717 96.896 60.3347 97.4562C60.1646 98.154 59.9283 98.8374 59.8809 99.5602C59.8741 99.6728 59.849 99.7912 59.8093 99.9012C59.4775 100.768 59.4495 101.724 59.0654 102.575C59.0367 102.638 59.0179 102.709 59.0224 102.779C59.0501 103.656 58.6859 104.455 58.5577 105.3C58.5177 105.55 58.4826 105.804 58.466 106.058C58.4004 107.006 58.1933 107.931 58.1042 108.876C58.0534 109.398 57.928 109.92 57.8401 110.444C57.7937 110.742 57.7427 111.039 57.696 111.332C57.6191 111.809 57.6504 112.302 57.4609 112.768C57.4044 112.907 57.4345 113.087 57.4402 113.251C57.4602 113.712 57.4991 114.177 57.4259 114.64C57.4158 114.701 57.44 114.788 57.4844 114.828C57.5635 114.897 57.6629 114.849 57.734 114.793C58.1336 114.478 58.5433 114.176 58.9176 113.83C59.3927 113.384 59.8987 112.982 60.4503 112.639C60.7238 112.467 60.9967 112.286 61.2548 112.092C61.6062 111.827 61.9731 111.584 62.3661 111.386C62.6147 111.263 62.8424 111.103 63.0851 110.962C63.2423 110.868 63.398 110.75 63.5669 110.693C64.2794 110.461 64.8962 110.043 65.509 109.635C66.4527 109.005 67.4222 108.415 68.413 107.866C68.5525 107.787 68.7013 107.707 68.8522 107.66C69.2137 107.553 69.5228 107.356 69.836 107.149C70.4534 106.741 71.0711 106.337 71.6935 105.933C71.8278 105.845 71.9673 105.766 72.1065 105.682C72.5154 105.441 72.9216 105.304 73.4097 105.502C73.802 105.659 74.2326 105.613 74.6505 105.586C74.9105 105.57 75.159 105.591 75.3627 105.789C75.5809 105.995 75.5899 106.284 75.3292 106.436C75.0101 106.624 74.6821 106.818 74.329 106.911C73.8245 107.041 73.3944 107.316 72.9477 107.55C71.86 108.114 70.788 108.706 69.7111 109.293C69.5263 109.394 69.3416 109.494 69.1821 109.626C68.1667 110.448 67.0253 111.048 65.8636 111.622C65.2623 111.917 64.632 112.196 64.1127 112.607C63.4953 113.09 62.8074 113.489 62.2662 114.071C62.061 114.289 61.8107 114.459 61.5755 114.647C60.8344 115.236 60.1543 115.906 59.3475 116.415C58.3881 117.018 57.4133 117.599 56.326 117.948C56.1525 118.006 55.9697 118.065 55.7886 118.076C55.0974 118.129 54.4009 118.174 53.7084 118.208C53.5738 118.217 53.4324 118.193 53.2957 118.169C53.0312 118.116 52.94 118 52.9649 117.732C53.0136 117.177 53.0669 116.622 53.1156 116.068C53.1288 115.908 53.137 115.744 53.1313 115.581C53.1018 115.115 53.0771 114.654 53.254 114.208C53.302 114.084 53.2922 113.93 53.279 113.795C53.2158 113.094 53.3825 112.415 53.4691 111.722C53.5864 110.78 53.8448 109.857 53.8445 108.899C53.8438 108.74 53.899 108.582 53.9308 108.421C53.9962 108.057 54.1081 107.69 54.1129 107.325C54.1268 106.735 54.3156 106.186 54.4198 105.623C54.5106 105.145 54.6346 104.675 54.6361 104.184C54.6352 103.95 54.6863 103.727 54.756 103.503C54.907 103.017 55.0387 102.522 55.1043 102.013C55.2551 100.863 55.6279 99.7601 55.9064 98.6394C55.9699 98.3924 56.0477 98.149 56.0547 97.8915C56.0601 97.7557 56.079 97.6142 56.1218 97.4807C56.3506 96.751 56.527 96.006 56.6141 95.248C56.6684 94.7819 56.8368 94.3505 56.9861 93.9111C57.0685 93.6675 57.1181 93.4213 57.1533 93.1666C57.2462 92.5017 57.3534 91.8406 57.4842 91.1826C57.5479 90.8654 57.7307 90.5874 57.7989 90.2653C57.9663 89.4507 58.1714 88.6432 58.3672 87.8362C58.4007 87.7032 58.4482 87.5693 58.5101 87.4438C58.7352 87.0229 58.6478 86.5284 58.8159 86.0924C58.8602 85.9821 58.7692 85.871 58.689 85.7826C58.544 85.6282 58.3819 85.4983 58.19 85.4124C57.8064 85.2451 57.4353 85.0537 57.0442 84.9149C56.2812 84.6455 55.559 84.2848 54.7954 84.0061C53.9078 83.6839 53.0002 83.4143 52.1201 83.0636C51.7758 82.9266 51.4311 82.7849 51.0714 82.7002C50.503 82.5587 49.9878 82.3016 49.4562 82.0783C49.1977 81.9732 48.9515 81.8393 48.6893 81.7484C48.3174 81.6178 47.9582 81.4677 47.6103 81.2748C47.33 81.1196 47.0408 80.9698 46.7067 80.9209C46.5514 80.898 46.3975 80.8237 46.2572 80.7438C44.9338 80.0192 43.5166 79.5063 42.1406 78.9066C41.6324 78.6865 41.0921 78.5479 40.5634 78.3711C39.6869 78.0762 38.8144 77.7718 37.9335 77.4818C37.7097 77.4072 37.5038 77.3222 37.2962 77.2091C37.0351 77.0621 36.7569 76.9396 36.4753 76.836C35.9933 76.6609 35.5365 76.4422 35.1128 76.156C34.5377 75.7625 33.9756 75.3542 33.3712 75.014C32.8055 74.6947 32.3383 74.2383 31.7343 73.9775C31.0154 73.6679 30.5071 73.0786 29.9255 72.5827C29.5115 72.2304 29.4639 71.7006 30.0546 71.3126C30.4441 71.0588 30.8289 70.8054 31.1879 70.5115C31.4938 70.263 31.8349 70.0544 32.1161 69.7842C32.8023 69.1377 33.6191 68.7119 34.4408 68.2905C35.0189 67.9967 35.5705 67.6532 36.1646 67.3912C37.0714 66.9877 37.9406 66.5072 38.8902 66.1899C39.721 65.9127 40.5231 65.5487 41.3322 65.2215C41.4412 65.1772 41.5401 65.1195 41.6501 65.0892C42.75 64.7903 43.762 64.282 44.8014 63.8375C45.414 63.5742 45.9982 63.2286 46.6545 63.0655C46.7232 63.0471 46.7923 63.0333 46.8506 62.9969C47.9237 62.3492 49.1317 61.9921 50.2319 61.4034C50.8361 61.08 51.4784 60.9176 52.1575 60.8932C52.3433 60.8814 52.529 60.8696 52.7147 60.8578L52.7194 60.8575Z" fill="#FFB7B9"/>
<path d="M140.957 106.686C140.906 106.507 140.827 106.331 140.805 106.152C140.756 105.661 140.59 105.2 140.43 104.742C139.935 103.344 139.518 101.914 138.96 100.532C138.893 100.363 138.868 100.174 138.812 99.9961C138.68 99.5779 138.521 99.1688 138.319 98.7746C138.105 98.3642 137.969 97.918 137.81 97.4794C137.651 97.0407 137.513 96.6049 137.145 96.2764C136.83 95.9993 136.79 95.6338 136.956 95.2569C137.114 94.8978 137.283 94.5401 137.457 94.1853C137.585 93.9251 137.788 93.7427 138.067 93.6528C138.379 93.5569 138.663 93.4109 138.902 93.1723C139.07 93.0019 139.297 92.9344 139.531 92.8993C139.924 92.8398 140.207 92.9947 140.37 93.3582C140.416 93.4656 140.458 93.5745 140.491 93.6864C140.773 94.6745 141.251 95.5761 141.684 96.503C141.735 96.6089 141.794 96.7118 141.826 96.8193C142.143 97.9827 142.646 99.0877 143.007 100.236C143.361 101.367 143.76 102.483 144.141 103.604C144.239 103.892 144.326 104.177 144.284 104.487C144.246 104.751 144.324 104.996 144.42 105.234C144.753 106.057 144.902 106.928 145.096 107.788C145.144 107.988 145.138 108.202 145.164 108.41C145.191 108.618 145.213 108.827 145.27 109.024C145.408 109.489 145.582 109.943 145.515 110.453C145.497 110.602 145.568 110.77 145.621 110.925C145.735 111.26 145.765 111.61 145.769 111.953C145.773 112.371 145.678 112.757 145.414 113.123C144.904 113.819 144.331 114.447 143.683 115.012C143.247 115.392 142.734 115.561 142.144 115.486C140.896 115.328 139.693 115.013 138.529 114.536C137.912 114.283 137.249 114.124 136.633 113.875C135.687 113.492 134.683 113.296 133.744 112.891C133.111 112.618 132.427 112.471 131.76 112.274C131.029 112.059 130.295 111.836 129.556 111.658C128.631 111.436 127.73 111.156 126.818 110.889C126.223 110.712 125.609 110.585 125.024 110.366C123.746 109.888 122.472 109.405 121.234 108.815C120.883 108.649 120.484 108.588 120.105 108.485C120.018 108.46 119.911 108.477 119.834 108.439C119.329 108.197 118.772 108.135 118.234 107.997C117.631 107.843 117.048 107.602 116.47 107.36C115.801 107.085 115.133 106.839 114.4 106.822C114.157 106.816 113.997 106.619 114.079 106.399C114.386 105.566 114.701 104.729 115.717 104.493C116.008 104.424 116.281 104.286 116.534 104.122C116.9 103.884 117.305 103.83 117.738 103.905C118.124 103.971 118.526 103.967 118.843 104.249C119.961 104.691 121.069 105.162 122.27 105.355C122.587 105.405 122.883 105.556 123.196 105.637C123.87 105.812 124.519 106.03 125.158 106.32C126.188 106.793 127.258 107.178 128.317 107.577C128.683 107.714 129.078 107.776 129.457 107.879C129.813 107.975 130.179 108.053 130.524 108.187C131.133 108.418 131.761 108.574 132.395 108.704C133.166 108.861 133.936 109.017 134.676 109.298C134.698 109.306 134.721 109.317 134.742 109.32C135.676 109.407 136.511 109.842 137.393 110.109C137.684 110.198 137.974 110.257 138.263 110.341C138.928 110.533 139.597 110.725 140.255 110.94C140.649 111.072 141.025 111.254 141.414 111.413C141.967 111.639 142.081 111.556 142.038 110.979C142.015 110.696 141.922 110.437 141.837 110.171C141.7 109.754 141.556 109.345 141.581 108.883C141.59 108.619 141.454 108.35 141.386 108.078C141.261 107.608 141.135 107.138 141.015 106.667C140.997 106.673 140.984 106.677 140.966 106.683L140.957 106.686Z" fill="#FFB7B9"/>
<path d="M115.894 30.4932C116.572 30.2628 117.255 30.0308 117.934 29.8003C118.352 29.6581 118.748 29.4791 119.145 29.2855C119.915 28.9056 120.737 28.636 121.572 28.4608C122.026 28.3656 122.474 28.2528 122.91 28.1046C123.241 27.9923 123.568 27.886 123.928 27.9314C124.235 27.9697 124.519 27.834 124.8 27.7383C126.492 27.1635 128.182 26.5991 129.871 26.0156C130.43 25.8255 130.971 25.6959 131.567 25.8434C131.878 25.92 132.212 25.8903 132.533 25.9093C132.985 25.938 133.279 26.1533 133.38 26.5967C133.464 26.9576 133.582 27.3212 133.542 27.6945C133.494 28.1593 133.547 28.6191 133.6 29.079C133.626 29.2868 133.664 29.5004 133.639 29.7011C133.531 30.5112 133.635 31.3232 133.565 32.1302C133.527 32.5669 133.478 33.0022 133.415 33.4375C133.378 33.6914 133.33 33.9394 133.353 34.1973C133.36 34.2887 133.349 34.3861 133.318 34.4703C132.955 35.4262 132.855 36.4605 132.419 37.3917C132.392 37.4552 132.364 37.5188 132.348 37.5882C132.108 38.6747 131.821 39.7527 131.638 40.8493C131.499 41.6699 131.377 42.4948 131.202 43.3127C131.055 43.9932 130.859 44.6608 130.759 45.3499C130.711 45.6716 130.549 45.9585 130.486 46.2803C130.258 47.4612 129.994 48.6349 129.747 49.8173C129.551 50.7459 129.347 51.6774 129.173 52.6132C129.075 53.149 128.78 53.4808 128.281 53.6603C127.667 53.8787 127.059 54.1147 126.418 54.2093C126.015 54.2674 125.594 54.2282 125.182 54.2155C125.017 54.2075 124.888 54.0297 124.937 53.8554C125.151 53.0979 125.122 52.2899 125.409 51.5423C125.516 51.2645 125.56 50.959 125.617 50.6638C125.842 49.5036 126.05 48.339 126.296 47.1817C126.429 46.5454 126.642 45.9309 126.781 45.2976C126.93 44.6214 127.136 43.9553 127.162 43.2518C127.167 43.0925 127.173 42.9229 127.219 42.7693C127.47 41.9451 127.594 41.0951 127.755 40.2523C127.923 39.3873 128.166 38.5411 128.448 37.7065C128.93 36.2766 129.312 34.8266 129.318 33.2973C129.319 32.9964 129.364 32.6954 129.39 32.3959C129.46 31.6331 129.464 30.8781 129.394 30.1087C129.34 29.5161 129.259 28.9134 129.338 28.3098C129.375 28.0265 129.237 27.9107 128.973 27.971C128.795 28.0117 128.614 28.0731 128.443 28.1315C127.742 28.3695 127.037 28.6089 126.337 28.8469C125.857 29.01 125.367 29.1467 124.862 29.2347C124.365 29.3198 123.888 29.5213 123.402 29.6815C123.027 29.8087 122.654 29.9256 122.248 29.8863C122.136 29.8751 122.011 29.8831 121.907 29.9234C121.377 30.1429 120.84 30.355 120.326 30.6082C120.058 30.7438 119.801 30.8999 119.515 30.9972C117.563 31.6602 115.604 32.3159 113.657 32.9922C113.073 33.1957 112.468 33.1648 111.872 33.2341C111.763 33.2465 111.648 33.1969 111.536 33.1562C111.318 33.0776 111.278 32.9038 111.427 32.7202C111.578 32.541 111.74 32.3824 111.935 32.2473C112.238 32.0408 112.567 31.8651 112.833 31.5924C112.996 31.4235 113.24 31.3751 113.456 31.3018C114.267 31.0264 115.077 30.751 115.892 30.4741L115.894 30.4932Z" fill="#FFB7B9"/>
<path d="M99.2183 35.5406C99.2229 35.679 99.2863 35.7686 99.4281 35.7919C99.4324 35.7913 99.4388 35.7905 99.4436 35.7943C99.5893 35.9169 99.7939 35.9387 99.9308 36.0776C99.9434 36.0912 99.9741 36.1112 99.9725 36.1157C99.9103 36.2408 100.045 36.3258 100.038 36.4439C100.034 36.516 100.014 36.5794 100.003 36.6459C99.9946 36.6991 100.084 36.7398 100.081 36.8141C100.078 36.8448 100.094 36.884 100.079 36.9033C100.003 37.0041 100.059 37.1186 100.037 37.2213C100.009 37.3573 100.004 37.4946 99.9823 37.6277C99.9507 37.8054 99.9193 37.9852 99.8785 38.1597C99.8441 38.3161 99.8511 38.4737 99.8082 38.6311C99.7701 38.7749 99.7894 38.944 99.7491 39.088C99.6993 39.2594 99.7512 39.446 99.661 39.6072C99.6522 39.6236 99.6531 39.6473 99.6555 39.6666C99.6608 39.7419 99.6745 39.8161 99.6111 39.8806C99.5861 39.9055 99.5979 39.9474 99.6025 39.9837C99.6096 40.0393 99.6097 40.0914 99.5681 40.1401C99.5226 40.1915 99.5502 40.2553 99.5536 40.3156C99.5575 40.415 99.5943 40.5167 99.5211 40.6063C99.5462 40.7703 99.4817 40.9283 99.4761 41.0897C99.4716 41.2075 99.5257 41.3265 99.4424 41.4391C99.4241 41.4654 99.4394 41.5177 99.4421 41.5564C99.4455 41.6168 99.4619 41.6777 99.4321 41.7335C99.4164 41.7638 99.4175 41.7897 99.4363 41.8177C99.447 41.8337 99.4614 41.8623 99.4561 41.8716C99.36 42.0032 99.4295 42.1572 99.4017 42.2975C99.3796 42.4132 99.3313 42.5453 99.3841 42.671C99.32 42.7812 99.4033 42.9248 99.3082 43.0302C99.3042 43.0329 99.3029 43.0396 99.3034 43.0438C99.3548 43.2262 99.2329 43.3936 99.2645 43.5742C99.2777 43.6441 99.2739 43.7163 99.2409 43.7813C99.2167 43.8299 99.2141 43.878 99.2207 43.9293C99.2277 43.9848 99.2281 44.0391 99.1884 44.0854C99.1469 44.134 99.167 44.1901 99.1719 44.2459C99.1807 44.349 99.2159 44.4553 99.1368 44.55C99.1328 44.5527 99.1315 44.5594 99.1341 44.5634C99.1847 44.7393 99.1063 44.9078 99.0866 45.0774C99.0659 45.2559 99.0831 45.4426 99.0095 45.6148C98.9994 45.6378 98.9963 45.6642 98.9971 45.688C99.0074 45.7692 99.0022 45.848 98.9618 45.9226C98.953 45.9389 98.9475 45.9635 98.9521 45.9825C98.9951 46.1507 98.9557 46.3185 98.9122 46.4717C98.8698 46.616 98.9137 46.7733 98.8242 46.9062C98.7987 46.9442 98.8349 47.0243 98.812 47.0662C98.7522 47.1759 98.762 47.2875 98.7745 47.4032C98.777 47.4224 98.7781 47.4483 98.7669 47.4628C98.6924 47.5591 98.723 47.6637 98.7342 47.7687C98.7423 47.8328 98.7529 47.8988 98.706 47.9568C98.6591 48.0149 98.6873 48.0829 98.6912 48.1476C98.6973 48.2467 98.7271 48.3449 98.6587 48.4383C98.6254 48.4838 98.653 48.5476 98.6577 48.6012C98.6654 48.6958 98.6946 48.7898 98.6233 48.877C98.5969 48.9086 98.6136 48.9542 98.6166 48.9951C98.6285 49.0891 98.6407 49.1852 98.6484 49.2798C98.6574 49.3503 98.666 49.4187 98.6179 49.4834C98.5827 49.5313 98.6077 49.5911 98.6081 49.6453C98.6091 49.7733 98.6799 49.9032 98.5912 50.0252C98.5782 50.0421 98.5918 50.0642 98.6068 50.0797C98.6245 50.0991 98.6443 50.1183 98.6304 50.1461C98.56 50.2745 98.6262 50.4029 98.6294 50.5306C98.6298 50.6021 98.6206 50.6663 98.6055 50.7355C98.5709 50.9071 98.5566 51.0847 98.6901 51.2306C98.7128 51.2559 98.7139 51.2819 98.7007 51.3139C98.6616 51.4166 98.6202 51.5174 98.5836 51.6219C98.5663 51.674 98.5271 51.6899 98.4801 51.6958C98.3499 51.7124 98.2197 51.7289 98.0916 51.7452C98.051 51.7503 98.0115 51.7467 97.9757 51.7208C97.9564 51.7059 97.9302 51.6875 97.9089 51.6902C97.706 51.716 97.5464 51.5691 97.3552 51.5499C97.3112 51.5447 97.2705 51.4977 97.2301 51.4703C97.1638 51.4266 97.1103 51.3639 97.0225 51.3556C96.9544 51.349 96.9273 51.2895 96.9269 51.2353C96.9308 51.0263 96.8481 50.8197 96.9123 50.6075C96.9428 50.5059 96.8988 50.3986 96.8897 50.2934C96.881 50.1903 96.8506 50.0878 96.9225 49.9875C96.9539 49.9444 96.9281 49.8782 96.9213 49.8248C96.9045 49.6749 96.8705 49.5273 96.9386 49.3797C96.9644 49.3265 96.9386 49.2603 96.931 49.2005C96.9201 49.115 96.9008 49.0306 96.903 48.9457C96.9106 48.7493 96.9289 48.5516 96.9714 48.3573C96.9868 48.2902 96.9832 48.2277 96.9793 48.1631C96.9749 48.0942 96.9507 48.0234 97.0101 47.9616C97.0197 47.9517 97.028 47.9311 97.0223 47.921C96.9593 47.8009 97.0365 47.6738 96.9973 47.5529C96.99 47.5299 96.9878 47.4955 96.9987 47.4789C97.077 47.3778 97.0188 47.2614 97.0408 47.1609C97.0733 47.0244 97.0618 46.8825 97.0933 46.7548C97.1219 46.6383 97.1 46.4999 97.189 46.3974C97.193 46.3948 97.1943 46.3881 97.1937 46.3838C97.1373 46.2129 97.2601 46.0519 97.2213 45.8831C97.2188 45.8639 97.2092 45.8391 97.2179 45.8228C97.282 45.6952 97.2302 45.5433 97.3076 45.4184C97.3276 45.3877 97.3251 45.3511 97.3205 45.3147C97.3139 45.2287 97.3116 45.1422 97.3581 45.0646C97.3597 45.0601 97.3634 45.0553 97.3629 45.051C97.3163 44.855 97.4096 44.6673 97.3935 44.4718C97.3872 44.4053 97.3769 44.3415 97.4216 44.2837C97.431 44.2716 97.4419 44.2551 97.4403 44.2422C97.4261 44.0964 97.4498 43.9588 97.484 43.8177C97.5038 43.7348 97.4831 43.6398 97.5288 43.5558C97.541 43.5325 97.5385 43.4959 97.5372 43.4679C97.5297 43.3581 97.4943 43.2497 97.5747 43.1483C97.5896 43.1291 97.5802 43.089 97.5785 43.0588C97.5692 42.9688 97.5493 42.8802 97.6172 42.7999C97.634 42.7782 97.6216 42.732 97.6215 42.6973C97.6215 42.6626 97.6115 42.6183 97.6259 42.5947C97.6913 42.4952 97.6716 42.3913 97.6605 42.2864C97.6529 42.2266 97.6495 42.1662 97.6793 42.1103C97.6934 42.0846 97.7 42.0512 97.6965 42.0234C97.6729 41.8376 97.7235 41.6553 97.7175 41.4715C97.7158 41.4413 97.7112 41.405 97.7256 41.3815C97.794 41.2707 97.7622 41.1575 97.75 41.044C97.7397 40.9628 97.7339 40.8832 97.7765 40.8084C97.7834 40.7945 97.7946 40.78 97.7929 40.7672C97.7517 40.5618 97.8674 40.3626 97.824 40.1575C97.8086 40.0878 97.8021 40.0192 97.8572 39.9579C97.882 39.9309 97.8768 39.8903 97.8725 39.8561C97.8649 39.7963 97.8615 39.7359 97.9071 39.6845C97.9316 39.6554 97.9315 39.6206 97.929 39.584C97.9206 39.5178 97.9194 39.4572 97.9663 39.3991C98.0073 39.3461 97.9797 39.2824 97.9742 39.2223C97.9665 39.1277 97.9372 39.0337 98.0089 38.9486C98.0315 38.9219 98.0175 38.8802 98.0153 38.8458C98.0123 38.8049 98.0002 38.7609 98.0287 38.729C98.078 38.6728 98.0765 38.6101 98.0681 38.5438C98.0657 38.5246 98.06 38.4971 98.0693 38.485C98.1524 38.3877 98.0913 38.2651 98.125 38.1719C98.173 38.0377 98.1685 37.8993 98.201 37.7627C98.2336 37.6262 98.2805 37.4834 98.2551 37.3347C98.2454 37.2751 98.2442 37.2145 98.2876 37.1634C98.3158 37.1294 98.3061 37.0872 98.3077 37.0479C98.3153 36.8689 98.2618 36.6868 98.3194 36.508C98.3241 36.4944 98.322 36.4773 98.3179 36.4626C98.2353 36.2734 98.3067 36.0667 98.25 35.8764C98.2199 35.776 98.3247 35.7301 98.3446 35.6473L99.2135 35.5369L99.2183 35.5406Z" fill="#F25808"/>
<path d="M181.518 47.6242C181.513 47.558 181.47 47.5341 181.412 47.5156C181.277 47.4652 181.259 47.3883 181.365 47.2876C181.516 47.1418 181.608 46.9695 181.635 46.7601C181.635 46.7469 181.635 46.731 181.645 46.7257C181.788 46.5826 181.836 46.3864 181.915 46.2088C181.966 46.0975 182.037 45.9915 182.061 45.8748C182.111 45.6416 182.247 45.4481 182.334 45.236C182.395 45.0876 182.506 44.9551 182.496 44.7748C182.488 44.6608 182.57 44.5654 182.617 44.47C182.705 44.2924 182.774 44.1016 182.885 43.9346C182.898 43.9134 182.917 43.8922 182.919 43.871C182.933 43.6854 183.057 43.5449 183.113 43.3806C183.171 43.2136 183.205 43.0387 183.33 42.9035C183.34 42.8929 183.343 42.8664 183.34 42.8505C183.317 42.6861 183.393 42.5536 183.476 42.4211C183.56 42.2806 183.619 42.1269 183.687 41.9758C183.762 41.8114 183.846 41.6471 183.939 41.4934C183.979 41.4271 184.003 41.3635 184.013 41.2893C184.029 41.1594 184.116 41.056 184.169 40.9394C184.199 40.8784 184.23 40.8228 184.233 40.7512C184.233 40.7008 184.238 40.6531 184.275 40.6133C184.302 40.5868 184.334 40.5577 184.291 40.5206C184.262 40.4914 184.207 40.4861 184.188 40.5073C184.077 40.6452 183.873 40.563 183.756 40.6902C183.738 40.7088 183.698 40.7114 183.669 40.7141C183.544 40.7167 183.42 40.7061 183.325 40.8095C183.118 40.7989 182.935 40.9261 182.742 40.9288C181.96 40.9447 181.179 40.9341 180.4 40.9341C180.332 40.9341 180.263 40.9341 180.212 40.8731C180.175 40.8334 180.125 40.8307 180.077 40.8254C179.857 40.7989 179.754 40.6425 179.826 40.4358C179.857 40.3483 179.892 40.2635 179.895 40.168C179.895 40.1495 179.9 40.1256 179.913 40.1177C180.046 40.0117 180.091 39.8394 180.199 39.7201C180.305 39.6035 180.366 39.463 180.43 39.3278C180.469 39.2403 180.514 39.1608 180.583 39.1025C180.726 38.9832 180.811 38.8295 180.872 38.6598C180.896 38.5936 180.93 38.53 180.978 38.4876C181.145 38.3418 181.237 38.1536 181.309 37.9521C181.317 37.9309 181.333 37.9071 181.351 37.8938C181.5 37.7798 181.558 37.6102 181.635 37.4512C181.643 37.4353 181.643 37.4114 181.656 37.4008C181.86 37.21 181.947 36.9343 182.162 36.7487C182.294 36.6348 182.384 36.4837 182.382 36.2955C182.382 36.1948 182.456 36.1205 182.525 36.094C182.631 36.0569 182.715 35.988 182.819 35.9456C182.935 35.8979 183.052 35.8422 183.158 35.7733C183.258 35.7097 183.362 35.6991 183.452 35.7627C183.523 35.8104 183.592 35.8343 183.674 35.8369C183.693 35.8369 183.717 35.8369 183.727 35.8475C183.87 35.988 184.05 35.935 184.22 35.943C184.262 35.943 184.307 35.943 184.35 35.9483C184.466 35.9668 184.524 36.0649 184.487 36.1762C184.469 36.2292 184.458 36.2849 184.456 36.3405C184.453 36.3909 184.445 36.4413 184.408 36.4784C184.262 36.6268 184.177 36.8256 184.018 36.9661C183.807 37.1543 183.706 37.414 183.579 37.6579C183.481 37.8488 183.378 38.0396 183.232 38.1986C183.197 38.2357 183.16 38.2676 183.155 38.3206C183.15 38.3815 183.11 38.4186 183.073 38.461C183.009 38.5326 182.922 38.5936 182.919 38.7049C182.919 38.7288 182.888 38.7579 182.866 38.7765C182.684 38.9382 182.562 39.137 182.472 39.3623C182.421 39.4842 182.321 39.5796 182.26 39.7042C182.194 39.842 182.143 40.0064 182 40.0885C182.029 40.1601 182.08 40.1495 182.119 40.1495C182.315 40.1442 182.517 40.184 182.697 40.0647C182.721 40.0488 182.758 40.0435 182.787 40.0461C182.959 40.0673 183.102 39.9454 183.272 39.9454C183.343 39.9454 183.396 39.8738 183.46 39.8394C183.687 39.7254 183.952 39.7095 184.156 39.5398C184.169 39.5292 184.191 39.5239 184.207 39.5213C184.392 39.5027 184.54 39.3808 184.712 39.3331C184.898 39.2801 185.089 39.2456 185.274 39.1873C185.314 39.1741 185.361 39.1873 185.398 39.2165C185.597 39.3623 185.82 39.4206 186.069 39.4073C186.259 39.3967 186.416 39.5054 186.553 39.6273C186.582 39.6538 186.604 39.683 186.606 39.7227C186.627 39.9586 186.625 40.1866 186.468 40.3933C186.325 40.5842 186.241 40.8068 186.164 41.0348C186.106 41.2124 186.034 41.3926 185.941 41.5543C185.867 41.6842 185.838 41.83 185.769 41.9625C185.7 42.0951 185.629 42.2329 185.573 42.3707C185.52 42.4979 185.417 42.604 185.414 42.7577C185.414 42.8611 185.316 42.9353 185.285 43.0387C185.258 43.1155 185.224 43.2057 185.176 43.2666C185.102 43.3594 185.086 43.4548 185.091 43.5608C185.096 43.696 185.004 43.7914 184.951 43.9001C184.903 43.9982 184.866 44.1042 184.816 44.2023C184.739 44.3534 184.686 44.5177 184.588 44.6609C184.577 44.6768 184.572 44.6953 184.572 44.7139C184.559 45.0213 184.376 45.2599 184.26 45.525C184.207 45.6495 184.109 45.7582 184.109 45.9146C184.109 46.0074 184.034 46.0975 183.987 46.177C183.883 46.3493 183.828 46.5481 183.709 46.7124C183.695 46.731 183.685 46.7601 183.685 46.7814C183.698 46.951 183.597 47.0623 183.486 47.163C183.383 47.2558 183.33 47.3883 183.184 47.452C183.084 47.4944 182.993 47.5209 182.888 47.5262C182.779 47.5315 182.66 47.5103 182.594 47.6349H181.516L181.518 47.6242Z" fill="#F8C543"/>
<path d="M112.871 45.9163C112.871 46.012 112.813 46.0735 112.763 46.1407C112.75 46.1575 112.728 46.1712 112.726 46.1867C112.712 46.3903 112.507 46.4967 112.478 46.6936C112.471 46.7292 112.439 46.7637 112.415 46.795C112.345 46.8798 112.292 46.9713 112.251 47.0785C112.2 47.2087 112.098 47.3106 112.013 47.4214C111.96 47.4888 111.894 47.5472 111.902 47.6439C111.904 47.6567 111.895 47.6751 111.885 47.685C111.754 47.8255 111.713 48.0217 111.596 48.1712C111.586 48.1833 111.57 48.194 111.57 48.2071C111.567 48.3572 111.441 48.4384 111.382 48.5566C111.317 48.6887 111.232 48.8122 111.19 48.9544C111.187 48.9635 111.188 48.9763 111.183 48.9836C111.021 49.1952 110.936 49.4534 110.758 49.6562C110.722 49.6977 110.681 49.7181 110.631 49.7267C110.58 49.7353 110.539 49.7557 110.5 49.7932C110.422 49.8639 110.326 49.8761 110.235 49.8247C110.181 49.7946 110.131 49.7923 110.078 49.7969C109.994 49.8075 109.906 49.8317 109.834 49.7605C109.824 49.7509 109.807 49.7488 109.792 49.7486C109.575 49.7543 109.391 49.6518 109.204 49.567C109.147 49.5396 109.078 49.5592 109.021 49.5077C108.97 49.4622 108.928 49.4219 108.919 49.3492C108.909 49.2702 108.905 49.1882 108.832 49.1301C108.806 49.1096 108.815 49.078 108.828 49.0481C108.891 48.8946 108.871 48.7496 108.775 48.6141C108.76 48.5922 108.739 48.5709 108.758 48.5468C108.832 48.4593 108.789 48.3648 108.782 48.2724C108.778 48.2078 108.765 48.1421 108.757 48.078C108.748 48.0075 108.74 47.9391 108.788 47.8765C108.82 47.8377 108.809 47.7891 108.804 47.7442C108.794 47.6652 108.783 47.584 108.775 47.5047C108.771 47.4705 108.759 47.4286 108.782 47.4018C108.854 47.3167 108.826 47.2225 108.817 47.1282C108.806 47.0427 108.786 46.9583 108.851 46.8829C108.862 46.8706 108.867 46.8439 108.865 46.8246C108.824 46.5693 108.911 46.3194 108.876 46.0611C108.858 45.9201 108.871 45.7644 108.94 45.6253C108.952 45.5999 108.955 45.567 108.953 45.5369C108.945 45.4271 108.921 45.3173 108.97 45.2091C108.982 45.1837 108.97 45.1591 108.955 45.1394C108.936 45.1135 108.923 45.0825 108.939 45.0544C108.975 44.9935 108.967 44.9272 108.963 44.8626C108.961 44.8324 108.963 44.7995 108.984 44.7752C109.029 44.7174 109.021 44.6533 109.015 44.5868C109.008 44.5377 108.988 44.4795 109.02 44.4385C109.085 44.3564 109.061 44.2662 109.052 44.1783C109.043 44.0926 109.026 44.0079 109.085 43.9309C109.104 43.9068 109.102 43.8745 109.1 43.8421C109.097 43.8165 109.086 43.7831 109.097 43.7687C109.211 43.6218 109.085 43.4316 109.191 43.2791C109.228 43.2288 109.188 43.1514 109.184 43.0868C109.178 43.0029 109.154 42.9191 109.218 42.8415C109.256 42.7955 109.23 42.7335 109.226 42.6799C109.218 42.5853 109.193 42.4886 109.26 42.402C109.271 42.3875 109.272 42.3613 109.27 42.3442C109.226 42.1392 109.285 41.9342 109.301 41.7324C109.314 41.5679 109.283 41.3916 109.365 41.2314C109.379 41.2036 109.372 41.1633 109.374 41.1283C109.374 41.0979 109.365 41.0599 109.377 41.0388C109.457 40.9158 109.417 40.7863 109.403 40.6578C109.393 40.583 109.386 40.5059 109.438 40.4406C109.444 40.4334 109.451 40.4216 109.448 40.4133C109.401 40.2368 109.504 40.0718 109.486 39.8982C109.481 39.8533 109.47 39.8005 109.498 39.7665C109.558 39.6937 109.537 39.616 109.529 39.5367C109.519 39.4381 109.487 39.338 109.564 39.2478C109.587 39.2211 109.573 39.1794 109.569 39.1452C109.562 39.0571 109.537 38.9669 109.603 38.8847C109.635 38.8438 109.61 38.7861 109.606 38.7367C109.598 38.6379 109.575 38.5431 109.638 38.446C109.676 38.3869 109.642 38.3087 109.638 38.2377C109.633 38.1623 109.616 38.0862 109.671 38.0207C109.681 38.0108 109.687 37.9926 109.685 37.9776C109.671 37.8708 109.726 37.7684 109.717 37.6674C109.7 37.4329 109.747 37.1991 109.728 36.9648C109.724 36.9349 109.719 36.8986 109.734 36.8751C109.802 36.747 109.799 36.5998 109.816 36.4651C109.839 36.3059 109.928 36.1492 109.874 35.9823C109.931 35.8513 109.918 35.714 109.924 35.5743C109.927 35.4957 109.996 35.4176 110.091 35.4033C110.356 35.3675 110.621 35.3339 110.886 35.3024C110.95 35.2943 111.007 35.3153 111.046 35.3668C111.111 35.454 111.199 35.495 111.292 35.5461C111.444 35.631 111.625 35.6579 111.754 35.7891C111.832 35.8683 111.837 35.8742 111.746 35.9248C111.64 35.9838 111.581 36.0651 111.602 36.1949C111.611 36.2459 111.608 36.2961 111.582 36.3429C111.55 36.3991 111.562 36.4605 111.55 36.5185C111.521 36.6698 111.51 36.821 111.488 36.9714C111.477 37.0532 111.45 37.1347 111.459 37.2183C111.466 37.2781 111.465 37.3369 111.426 37.3917C111.385 37.4557 111.411 37.5283 111.416 37.5993C111.423 37.6896 111.448 37.7799 111.38 37.8601C111.37 37.87 111.366 37.8901 111.37 37.9026C111.412 38.0818 111.329 38.2617 111.362 38.442C111.376 38.5119 111.38 38.583 111.332 38.6435C111.326 38.6507 111.319 38.6625 111.32 38.671C111.362 38.848 111.257 39.0112 111.279 39.1864C111.289 39.2676 111.293 39.3474 111.255 39.4239C111.231 39.4726 111.233 39.5223 111.239 39.5714C111.248 39.6419 111.244 39.7119 111.209 39.7772C111.172 39.8448 111.196 39.9156 111.2 39.9845C111.206 40.0836 111.241 40.1813 111.168 40.2752C111.14 40.3113 111.162 40.3628 111.165 40.4079C111.171 40.5201 111.214 40.6363 111.132 40.7422C111.119 40.7591 111.127 40.7906 111.128 40.8165C111.134 40.9113 111.161 41.0055 111.089 41.0928C111.075 41.112 111.084 41.1499 111.083 41.1804C111.083 41.2109 111.096 41.2482 111.082 41.2696C111.005 41.3857 111.049 41.5125 111.048 41.6343C111.048 41.6691 111.058 41.7155 111.041 41.7372C110.966 41.8292 110.998 41.9293 111.007 42.0282C111.013 42.0947 111.019 42.159 110.99 42.2213C110.968 42.2697 110.976 42.3207 110.981 42.3702C110.986 42.465 110.99 42.5622 110.954 42.6536C110.935 42.6972 110.939 42.7424 110.942 42.7875C110.946 42.8174 110.953 42.8513 110.945 42.8783C110.902 43.0162 110.918 43.1575 110.916 43.2967C110.916 43.3467 110.916 43.3988 110.894 43.445C110.866 43.5028 110.874 43.5626 110.864 43.6203C110.843 43.7619 110.793 43.8985 110.822 44.0446C110.732 44.158 110.779 44.2824 110.788 44.4072C110.789 44.4114 110.789 44.4179 110.79 44.4221C110.742 44.5606 110.758 44.715 110.699 44.8484C110.673 44.9037 110.682 44.9569 110.687 45.0106C110.695 45.1094 110.716 45.2066 110.657 45.3031C110.619 45.3644 110.655 45.4423 110.661 45.511C110.668 45.5948 110.696 45.6824 110.625 45.7544C110.621 45.7571 110.62 45.7637 110.62 45.768C110.662 45.9776 110.533 46.1785 110.588 46.3886C110.593 46.4076 110.596 46.429 110.606 46.445C110.621 46.4714 110.645 46.4791 110.666 46.4526C110.689 46.4258 110.711 46.3948 110.722 46.363C110.762 46.2363 110.849 46.1362 110.922 46.0292C110.946 45.9937 110.964 45.961 110.972 45.921C110.977 45.879 110.994 45.8421 111.021 45.8127C111.152 45.6505 111.217 45.4447 111.35 45.2823C111.414 45.2047 111.479 45.1314 111.493 45.0232C111.499 44.9834 111.535 44.944 111.563 44.9101C111.632 44.8341 111.682 44.7496 111.701 44.6472C111.701 44.6429 111.702 44.6363 111.706 44.6336C111.855 44.4583 111.917 44.2269 112.064 44.0497C112.079 44.0305 112.113 44.0131 112.113 43.9957C112.114 43.8458 112.222 43.7388 112.282 43.6182C112.358 43.4631 112.422 43.3008 112.517 43.1564C112.548 43.1112 112.595 43.0769 112.624 43.0298C112.718 42.8833 112.796 42.7301 112.844 42.5611C112.861 42.5047 112.896 42.4568 112.931 42.4242C113.119 42.2483 113.22 42.0141 113.326 41.7901C113.387 41.6607 113.465 41.551 113.543 41.4346C113.735 41.1498 113.907 40.8521 114.118 40.5801C114.179 40.5006 114.167 40.3892 114.247 40.314C114.317 40.2487 114.372 40.1701 114.43 40.0954C114.484 40.0256 114.551 39.9606 114.552 39.8606C114.55 39.8521 114.556 39.8406 114.563 39.8331C114.712 39.6883 114.758 39.4849 114.85 39.3103C114.922 39.1753 115.008 39.0472 115.068 38.9049C115.135 38.7467 115.208 38.5918 115.256 38.4229C115.279 38.3419 115.345 38.2705 115.453 38.2612C115.669 38.2402 115.882 38.2067 116.097 38.1793C116.185 38.1682 116.241 38.198 116.3 38.273C116.378 38.3717 116.479 38.4479 116.612 38.4896C116.711 38.5204 116.824 38.5343 116.909 38.6103C116.988 38.6807 117.003 38.7178 116.953 38.8023C116.928 38.8445 116.916 38.883 116.922 38.93C116.931 39.0005 116.908 39.0599 116.867 39.1129C116.753 39.2597 116.695 39.4321 116.616 39.5963C116.545 39.742 116.487 39.8992 116.391 40.033C116.341 40.1001 116.285 40.1659 116.286 40.2613C116.287 40.3024 116.244 40.3274 116.218 40.3589C116.124 40.475 116.016 40.5821 115.984 40.736C115.98 40.7539 115.963 40.7777 115.949 40.7818C115.851 40.8028 115.841 40.8888 115.802 40.9568C115.653 41.2057 115.533 41.4707 115.34 41.6928C115.293 41.7487 115.255 41.8142 115.227 41.8851C115.157 42.0634 115.018 42.2004 114.917 42.3609C114.873 42.4272 114.811 42.4829 114.811 42.5719C114.812 42.6151 114.775 42.6417 114.75 42.673C114.709 42.7238 114.681 42.773 114.663 42.8425C114.638 42.9499 114.543 43.0228 114.481 43.1132C114.436 43.184 114.367 43.2384 114.359 43.3327C114.355 43.3723 114.298 43.4012 114.323 43.4415C114.347 43.4775 114.389 43.5026 114.423 43.5308C114.43 43.5364 114.442 43.5393 114.451 43.5425C114.608 43.6224 114.627 43.7177 114.476 43.7954C114.352 43.859 114.36 43.9362 114.373 44.0409C114.498 45.0258 114.623 46.0108 114.748 46.9958C114.759 47.0791 114.783 47.1651 114.755 47.2511C114.75 47.2648 114.75 47.2821 114.754 47.2947C114.883 47.7278 114.881 48.1795 114.957 48.6193C114.973 48.7171 114.959 48.8253 115.053 48.8959C115.06 48.9015 115.068 48.9178 115.067 48.9202C114.987 49.0323 115.129 49.1012 115.122 49.204C115.117 49.3024 115.145 49.403 115.16 49.5032C115.173 49.6079 115.187 49.7125 115.2 49.8172C115.209 49.892 115.217 49.9649 115.282 50.0217C115.331 50.0633 115.329 50.1309 115.336 50.1907C115.349 50.289 115.367 50.3779 115.434 50.467C115.559 50.6249 115.488 50.94 115.321 51.0589C115.301 51.0723 115.276 51.082 115.253 51.0871C115.144 51.1009 115.033 51.115 114.924 51.1289C114.9 51.1318 114.868 51.1316 114.851 51.1186C114.774 51.0589 114.689 51.074 114.606 51.0824C114.486 51.0976 114.391 51.0163 114.281 50.989C114.246 50.9805 114.21 50.9526 114.169 50.9598C114.074 50.9763 114.002 50.9615 113.971 50.8526C113.959 50.8064 113.906 50.8196 113.865 50.8162C113.718 50.8066 113.697 50.7614 113.741 50.6278C113.786 50.4896 113.764 50.347 113.683 50.2269C113.643 50.1648 113.618 50.105 113.607 50.0347C113.59 49.937 113.603 49.8312 113.511 49.7582C113.499 49.7488 113.491 49.7152 113.496 49.7037C113.544 49.6085 113.475 49.5392 113.451 49.4575C113.414 49.3341 113.41 49.2 113.391 49.07C113.381 48.9909 113.343 48.9111 113.336 48.8382C113.322 48.6988 113.235 48.5926 113.22 48.4556C113.167 47.9738 113.098 47.4963 113.037 47.0156C112.997 46.7015 112.957 46.3853 112.917 46.0712C112.911 46.022 112.911 45.9699 112.868 45.9211L112.871 45.9163Z" fill="#F25808"/>
<path d="M154.693 47.4385C154.401 47.4385 154.11 47.4385 153.819 47.4385C153.737 47.4385 153.657 47.4385 153.594 47.3749C153.562 47.3431 153.517 47.3351 153.474 47.3325C153.352 47.3245 153.223 47.3537 153.13 47.237C153.114 47.2185 153.069 47.2291 153.04 47.2185C152.852 47.1602 152.667 47.1045 152.484 47.0276C152.309 46.9534 152.177 46.8262 152.023 46.7281C151.782 46.5691 151.589 46.3491 151.39 46.137C151.326 46.0681 151.321 45.9806 151.281 45.9038C151.146 45.6493 151.019 45.3816 151.011 45.09C151.006 44.8435 151.022 44.5944 151.019 44.3479C151.019 44.051 150.987 43.7541 151.006 43.4573C151.022 43.1445 150.977 42.8291 151.053 42.5163C151.075 42.4315 151.038 42.3281 151.096 42.2406C151.106 42.2247 151.104 42.185 151.091 42.1691C151.006 42.0577 151.035 41.957 151.091 41.8404C151.128 41.7662 151.125 41.6707 151.13 41.5859C151.144 41.3739 151.162 41.1618 151.21 40.9524C151.236 40.8411 151.22 40.7192 151.22 40.5999C151.22 40.5124 151.22 40.4276 151.289 40.356C151.345 40.2951 151.326 40.2155 151.332 40.1413C151.34 39.9717 151.3 39.7967 151.422 39.6404C151.464 39.5847 151.44 39.4946 151.44 39.4204C151.44 39.3223 151.44 39.2216 151.443 39.1235C151.443 39.0811 151.435 39.0281 151.467 38.9989C151.57 38.8982 151.551 38.7736 151.554 38.6517C151.554 38.5642 151.551 38.4794 151.623 38.4105C151.668 38.3681 151.66 38.3071 151.66 38.2514C151.66 38.1454 151.66 38.0394 151.663 37.936C151.663 37.8936 151.655 37.8406 151.684 37.8114C151.79 37.7107 151.769 37.5861 151.769 37.4642C151.769 37.3714 151.769 37.2813 151.843 37.2044C151.893 37.1514 151.877 37.0746 151.88 37.0083C151.885 36.8811 151.867 36.7512 151.97 36.6425C152.015 36.5948 151.991 36.51 151.994 36.4437C151.999 36.2926 151.967 36.1336 152.084 36.0011C152.1 35.9825 152.097 35.9427 152.097 35.9109C152.097 35.7864 152.097 35.6671 152.166 35.5531C152.206 35.4842 152.182 35.3941 152.184 35.3145C152.187 35.1767 152.184 35.0415 152.264 34.9196C152.272 34.909 152.277 34.8984 152.277 34.8851C152.29 34.681 152.325 34.4875 152.396 34.2941C152.436 34.188 152.473 34.0688 152.486 33.9601C152.516 33.7401 152.574 33.528 152.621 33.316C152.64 33.2391 152.621 33.1543 152.698 33.096C152.712 33.0854 152.722 33.0642 152.725 33.0483C152.751 32.8309 152.852 32.6427 152.939 32.4492C152.947 32.4333 152.955 32.4121 152.953 32.3962C152.939 32.2054 153.072 32.0675 153.13 31.9032C153.143 31.8634 153.172 31.8263 153.172 31.7813C153.175 31.662 153.22 31.5613 153.257 31.4499C153.305 31.3148 153.339 31.169 153.392 31.0338C153.472 30.827 153.482 30.6044 153.567 30.395C153.62 30.2678 153.607 30.1167 153.623 29.9735C153.628 29.9232 153.62 29.8702 153.639 29.8278C153.739 29.6051 153.734 29.3851 153.646 29.1651C153.633 29.1306 153.623 29.0882 153.646 29.0564C153.734 28.9318 153.813 28.7914 153.999 28.7914C154.041 28.7914 154.091 28.7967 154.123 28.7649C154.219 28.6694 154.338 28.688 154.454 28.6827C154.581 28.6774 154.714 28.7092 154.825 28.6085C154.865 28.574 154.905 28.6032 154.936 28.6376C155.056 28.7781 155.23 28.8258 155.381 28.9133C155.485 28.9716 155.585 29.0114 155.704 29.0299C155.869 29.0538 155.932 29.2287 155.837 29.3639C155.797 29.4196 155.792 29.4779 155.792 29.5388C155.792 29.7191 155.792 29.8993 155.792 30.0796C155.792 30.1697 155.813 30.2678 155.728 30.3393C155.72 30.3473 155.71 30.3658 155.715 30.3711C155.84 30.5169 155.641 30.6362 155.678 30.7767C155.689 30.8164 155.657 30.8588 155.63 30.8933C155.604 30.9278 155.58 30.9702 155.583 31.0126C155.604 31.2114 155.479 31.3598 155.416 31.5295C155.403 31.5639 155.381 31.5984 155.381 31.6328C155.381 31.821 155.318 32.0066 155.252 32.1683C155.154 32.3962 155.148 32.6507 155.032 32.8654C154.918 33.0721 154.907 33.3239 154.738 33.5068C154.695 33.5545 154.719 33.6393 154.717 33.7056C154.717 33.8169 154.724 33.9309 154.64 34.021C154.629 34.0343 154.616 34.0555 154.619 34.0714C154.645 34.2755 154.534 34.4478 154.491 34.636C154.486 34.6598 154.491 34.6916 154.476 34.7075C154.362 34.8242 154.391 34.9726 154.388 35.1131C154.385 35.2854 154.356 35.4524 154.317 35.622C154.264 35.8553 154.195 36.0859 154.168 36.3244C154.155 36.4411 154.142 36.5524 154.102 36.6664C154.06 36.7883 154.038 36.9367 154.152 37.0507C154.174 37.0719 154.197 37.1064 154.221 37.109C154.34 37.1117 154.423 37.2044 154.528 37.2283C154.608 37.2468 154.679 37.276 154.754 37.3025C154.915 37.3582 155.085 37.3926 155.207 37.5305C155.376 37.5119 155.503 37.6338 155.659 37.663C155.81 37.6895 155.94 37.7876 156.057 37.8803C156.168 37.9678 156.3 38.0182 156.42 38.0818C156.502 38.1269 156.573 38.1772 156.639 38.2408C156.764 38.3575 156.87 38.4873 157.042 38.5563C157.161 38.604 157.241 38.7391 157.381 38.771C157.392 38.771 157.402 38.7869 157.405 38.7975C157.434 38.9565 157.572 39.036 157.662 39.1526C157.696 39.1977 157.736 39.2375 157.741 39.2958C157.76 39.4601 157.842 39.5979 157.913 39.7384C157.943 39.7967 157.953 39.8551 157.953 39.916C157.953 40.0459 157.953 40.1758 157.953 40.3057C157.953 40.4064 157.958 40.5018 158.019 40.5893C158.07 40.6608 158.078 40.7404 158.017 40.8119C157.982 40.8517 157.974 40.8835 158.011 40.9259C158.07 40.9895 158.038 41.0611 158.038 41.1353C158.038 41.3182 157.924 41.4772 157.948 41.6654C157.961 41.7715 157.977 41.8669 158.027 41.9597C157.945 42.0445 157.953 42.1505 157.953 42.2565C157.953 42.5719 157.951 42.89 157.948 43.2054C157.948 43.2876 157.948 43.3645 157.882 43.4307C157.834 43.4785 157.837 43.5474 157.847 43.6083C157.887 43.831 157.829 44.0536 157.834 44.2763C157.834 44.377 157.747 44.4512 157.747 44.5573C157.747 44.8647 157.625 45.1457 157.514 45.424C157.466 45.5433 157.416 45.6758 157.304 45.7633C157.188 45.8534 157.188 46.0125 157.092 46.1185C157.074 46.1397 157.074 46.1953 157.055 46.2006C156.904 46.2298 156.891 46.3782 156.809 46.4684C156.579 46.7149 156.343 46.9587 156.096 47.192C155.93 47.3484 155.734 47.4544 155.49 47.4464C155.225 47.4385 154.958 47.4464 154.69 47.4464L154.693 47.4385ZM154.192 38.0473C154.208 38.2488 154.142 38.3336 153.956 38.3442C153.827 38.3522 153.75 38.4688 153.744 38.6066C153.737 38.7524 153.763 38.9035 153.654 39.0334C153.631 39.0599 153.636 39.1155 153.636 39.1606C153.633 39.2587 153.636 39.3594 153.636 39.4575C153.636 39.5078 153.641 39.5661 153.604 39.5979C153.514 39.6748 153.527 39.7729 153.525 39.871C153.522 39.9823 153.556 40.1095 153.498 40.1996C153.403 40.3428 153.419 40.4939 153.413 40.6449C153.411 40.7298 153.437 40.8305 153.376 40.8968C153.305 40.9763 153.307 41.0637 153.307 41.1565C153.307 41.2731 153.297 41.3924 153.302 41.509C153.307 41.623 153.202 41.7264 153.278 41.8457C153.284 41.8536 153.268 41.8801 153.255 41.8934C153.194 41.9517 153.188 42.0286 153.196 42.1001C153.225 42.3678 153.133 42.6356 153.188 42.9033C153.199 42.951 153.196 43.0066 153.167 43.0491C153.061 43.1922 153.077 43.3565 153.09 43.5156C153.106 43.6773 153.106 43.8363 153.109 43.998C153.109 44.0961 153.093 44.1968 153.154 44.2869C153.178 44.3214 153.17 44.3585 153.146 44.3903C153.101 44.4565 153.117 44.5334 153.104 44.605C153.072 44.7826 153.172 44.9443 153.159 45.1245C153.154 45.212 153.183 45.3153 153.188 45.4134C153.196 45.6016 153.209 45.7872 153.36 45.925C153.39 45.9515 153.405 45.9886 153.403 46.0257C153.392 46.1397 153.466 46.2086 153.533 46.2775C153.625 46.3756 153.726 46.4657 153.824 46.5585C153.911 46.6407 154.242 46.6937 154.325 46.6221C154.444 46.5161 154.587 46.4074 154.645 46.2696C154.743 46.0337 154.955 45.8985 155.077 45.6811C155.204 45.4505 155.426 45.2756 155.456 44.9867C155.456 44.9681 155.469 44.9522 155.477 44.9363C155.588 44.7508 155.609 44.5334 155.652 44.332C155.686 44.1623 155.723 43.9741 155.683 43.7886C155.678 43.7674 155.694 43.7409 155.707 43.7197C155.75 43.6587 155.75 43.5924 155.752 43.5235C155.76 43.3804 155.776 43.2399 155.771 43.0968C155.765 42.9536 155.853 42.8132 155.787 42.6647C155.779 42.6462 155.787 42.6117 155.802 42.5932C155.874 42.4871 155.861 42.3678 155.861 42.2512C155.861 42.0153 155.866 41.7794 155.861 41.5435C155.858 41.4136 155.9 41.2864 155.879 41.1539C155.845 40.9445 155.879 40.7351 155.877 40.5257C155.874 40.2235 155.885 39.9293 155.787 39.6324C155.718 39.423 155.622 39.2242 155.53 39.0281C155.479 38.922 155.379 38.8107 155.252 38.771C155.169 38.7444 155.103 38.6994 155.053 38.6437C154.82 38.384 154.531 38.209 154.192 38.0394V38.0473Z" fill="#F25808"/>
<path d="M136.529 37.808C136.581 37.58 136.631 37.5345 136.836 37.5064C136.915 37.4963 136.987 37.4655 137.064 37.4362C137.229 37.3739 137.403 37.3106 137.573 37.4497C137.643 37.5081 137.719 37.5766 137.825 37.5718C137.857 37.5699 137.876 37.6022 137.9 37.6187C137.967 37.6624 138.028 37.7045 138.113 37.722C138.204 37.7408 138.278 37.8095 138.29 37.9209C138.318 38.1757 138.353 38.4318 138.383 38.6864C138.387 38.7205 138.398 38.767 138.381 38.7887C138.297 38.9013 138.341 39.0217 138.351 39.1376C138.357 39.1977 138.366 39.2573 138.37 39.3176C138.374 39.3475 138.383 39.3855 138.37 39.4066C138.283 39.5414 138.342 39.6794 138.347 39.8177C138.35 39.9454 138.422 40.073 138.339 40.1987C138.328 40.2153 138.347 40.2345 138.362 40.2499C138.426 40.3091 138.421 40.3727 138.378 40.4391C138.35 40.4794 138.354 40.5246 138.355 40.57C138.356 40.6632 138.459 40.7239 138.403 40.844C138.369 40.9178 138.414 41.0294 138.426 41.1255C138.439 41.2259 138.451 41.3263 138.464 41.4246C138.476 41.5186 138.486 41.6151 138.5 41.7088C138.509 41.7836 138.51 41.8594 138.554 41.9277C138.564 41.9437 138.57 41.967 138.568 41.9846C138.536 42.2796 138.626 42.5634 138.648 42.8537C138.651 42.8946 138.66 42.9325 138.696 42.9605C138.71 42.9717 138.735 42.9989 138.732 43.0037C138.661 43.1168 138.794 43.1868 138.789 43.2873C138.787 43.3875 138.815 43.486 138.827 43.5864C138.832 43.627 138.828 43.6754 138.859 43.6996C138.955 43.7742 138.95 43.8857 138.967 43.9877C138.978 44.0689 138.992 44.1452 139.052 44.2092C139.113 44.2775 139.107 44.3694 139.12 44.4525C139.131 44.5422 139.135 44.6285 139.214 44.6989C139.265 44.7423 139.253 44.8219 139.264 44.8858C139.281 45.0051 139.281 45.1267 139.364 45.2291C139.379 45.2467 139.383 45.2766 139.386 45.3001C139.411 45.4967 139.531 45.6616 139.552 45.8587C139.557 45.895 139.576 45.9251 139.603 45.9499C139.62 45.9673 139.647 45.9899 139.635 46.0132C139.598 46.083 139.666 46.1243 139.673 46.1798C139.699 46.3849 139.815 46.5634 139.845 46.7658C139.848 46.7915 139.852 46.8214 139.867 46.8369C139.97 46.9323 139.967 47.0608 139.987 47.1842C139.993 47.2291 140.004 47.2688 140.039 47.3056C140.14 47.4102 140.124 47.5467 140.123 47.6749C140.122 47.7337 140.074 47.7616 140.02 47.7684C139.8 47.7963 139.58 47.8242 139.36 47.8521C139.324 47.8567 139.29 47.8459 139.263 47.8211C139.231 47.7904 139.192 47.7867 139.151 47.7919C139.085 47.8003 139.022 47.8039 138.966 47.7524C138.939 47.7276 138.898 47.7328 138.864 47.7371C138.792 47.7464 138.722 47.7486 138.692 47.6592C138.685 47.6384 138.665 47.6387 138.642 47.6416C138.499 47.662 138.432 47.614 138.406 47.4783C138.397 47.4231 138.392 47.3694 138.381 47.3144C138.377 47.2844 138.374 47.2457 138.355 47.2287C138.25 47.1399 138.254 47.0157 138.239 46.896C138.228 46.8106 138.22 46.727 138.149 46.6643C138.11 46.6302 138.102 46.5725 138.105 46.5223C138.106 46.3484 138.002 46.2097 137.95 46.0535C137.929 45.991 137.86 45.9455 137.906 45.8658C137.917 45.8492 137.895 45.8303 137.882 45.8145C137.832 45.7601 137.819 45.6902 137.808 45.6199C137.8 45.5601 137.782 45.5038 137.747 45.4517C137.688 45.3637 137.693 45.259 137.678 45.1609C137.666 45.0822 137.665 45.0042 137.59 44.9442C137.539 44.905 137.548 44.8345 137.54 44.7747C137.528 44.6806 137.523 44.588 137.442 44.5136C137.398 44.4736 137.408 44.4006 137.396 44.3414C137.371 44.2164 137.389 44.0796 137.274 43.9812C137.236 43.9492 137.259 43.8768 137.208 43.8355C137.232 43.9757 137.124 44.0828 137.131 44.223C137.135 44.3159 137.082 44.4138 137.05 44.5068C137.001 44.6477 136.915 44.7716 136.826 44.8914C136.77 44.9679 136.771 45.0721 136.706 45.1454C136.661 45.1989 136.625 45.2556 136.568 45.3019C136.452 45.397 136.338 45.4896 136.214 45.5705C136.17 45.6 136.123 45.6124 136.072 45.6189C135.713 45.6644 135.353 45.7103 134.994 45.7558C134.96 45.7602 134.913 45.7704 134.89 45.7539C134.789 45.6755 134.677 45.7222 134.572 45.7117C134.471 45.7007 134.374 45.6565 134.278 45.6209C134.256 45.613 134.237 45.5892 134.211 45.5903C133.989 45.6012 133.813 45.4607 133.611 45.4192C133.461 45.3882 133.357 45.2842 133.216 45.2479C133.11 45.22 133.022 45.1443 132.966 45.0408C132.957 45.0223 132.95 44.9994 132.935 44.9882C132.805 44.8875 132.728 44.7388 132.609 44.6258C132.528 44.5493 132.467 44.4463 132.42 44.3328C132.364 44.1967 132.293 44.0667 132.274 43.9171C132.158 43.8364 132.176 43.706 132.155 43.5893C132.128 43.4473 132.148 43.295 132.062 43.1669C132.057 43.1589 132.057 43.1479 132.058 43.137C132.099 42.7605 131.982 42.3998 131.959 42.0293C131.95 41.8958 131.901 41.7653 131.984 41.6331C132.015 41.5858 131.982 41.514 131.977 41.4539C131.968 41.3313 131.913 41.2058 132.007 41.0919C132.014 41.0822 132.014 41.0627 132.012 41.0478C131.997 40.9281 132.026 40.8159 132.046 40.6983C132.066 40.585 132.097 40.4746 132.134 40.3722C132.166 40.2813 132.202 40.1856 132.234 40.0948C132.278 39.9632 132.356 39.849 132.4 39.7132C132.471 39.4892 132.61 39.287 132.768 39.1064C132.83 39.0355 132.9 38.9681 132.91 38.8647C132.914 38.8382 132.936 38.8245 132.958 38.8087C132.974 38.798 132.999 38.7905 133.005 38.7744C133.105 38.5881 133.291 38.4755 133.403 38.3006C133.414 38.284 133.422 38.2613 133.438 38.2527C133.558 38.1876 133.645 38.0854 133.742 37.997C133.857 37.8934 134.021 37.8747 134.136 37.769C134.14 37.7663 134.144 37.7636 134.15 37.7628C134.404 37.7479 134.615 37.5779 134.872 37.567C135.083 37.5596 135.291 37.5181 135.502 37.4912C135.587 37.4804 135.671 37.4762 135.753 37.518C135.774 37.5284 135.801 37.538 135.824 37.535C136.009 37.5202 136.166 37.5936 136.305 37.6997C136.375 37.7517 136.468 37.7181 136.534 37.8075L136.529 37.808ZM133.833 43.3762C133.843 43.4553 133.853 43.5365 133.863 43.6155C133.873 43.6946 133.883 43.7758 133.893 43.8548C133.9 43.9039 133.902 43.9579 133.948 43.9912C134.005 44.0317 134.015 44.0913 134.018 44.1516C134.023 44.3138 134.177 44.4137 134.186 44.5731C134.188 44.5838 134.213 44.5915 134.219 44.6038C134.281 44.737 134.418 44.8086 134.491 44.9404C134.556 45.0559 134.772 45.098 134.863 45.0148C134.968 44.9168 135.066 44.8023 135.113 44.6638C135.16 44.532 135.197 44.3992 135.287 44.2879C135.306 44.2638 135.327 44.2437 135.329 44.2109C135.332 44.0976 135.431 44.0026 135.392 43.8816C135.388 43.8691 135.397 43.8528 135.404 43.8389C135.461 43.7079 135.525 43.5803 135.514 43.4297C135.512 43.4105 135.522 43.3875 135.533 43.3752C135.58 43.3171 135.574 43.2527 135.566 43.1886C135.557 43.1139 135.54 43.0377 135.604 42.9754C135.616 42.9631 135.619 42.9366 135.618 42.9171C135.607 42.7448 135.691 42.5865 135.696 42.4188C135.701 42.2662 135.714 42.1147 135.751 41.9645C135.763 41.9175 135.769 41.8689 135.783 41.8194C135.813 41.72 135.876 41.6296 135.875 41.5232C135.873 41.3867 135.969 41.2704 135.938 41.131C135.937 41.1224 135.945 41.1128 135.952 41.1053C136.004 41.051 135.991 40.9853 135.987 40.9185C135.982 40.8779 135.977 40.8352 135.987 40.7991C136.034 40.639 136.088 40.4802 136.139 40.3196C136.173 40.211 136.202 40.0988 136.219 39.9903C136.234 39.8864 136.26 39.7853 136.273 39.6817C136.279 39.6266 136.326 39.5881 136.331 39.5287C136.352 39.2634 136.264 39.012 136.229 38.7537C136.227 38.743 136.224 38.7347 136.218 38.7246C136.098 38.5293 135.934 38.3808 135.741 38.2599C135.682 38.2239 135.614 38.2174 135.568 38.2514C135.423 38.3566 135.209 38.3774 135.156 38.5946C135.152 38.6104 135.128 38.6286 135.111 38.6308C135.032 38.6451 134.998 38.7125 134.957 38.7654C134.91 38.8256 134.859 38.8821 134.799 38.9244C134.709 38.9858 134.656 39.0772 134.588 39.1575C134.55 39.2035 134.571 39.2681 134.534 39.312C134.385 39.4763 134.289 39.6731 134.176 39.859C134.055 40.0545 133.989 40.267 133.907 40.475C133.851 40.6188 133.824 40.7764 133.763 40.9144C133.711 41.0339 133.776 41.1668 133.687 41.2693C133.715 41.4111 133.675 41.5573 133.711 41.6983C133.719 41.7319 133.724 41.7725 133.702 41.8014C133.634 41.8838 133.661 41.9717 133.672 42.0614C133.686 42.1704 133.696 42.282 133.714 42.3904C133.731 42.4924 133.73 42.5881 133.677 42.6795C133.737 42.763 133.777 42.8514 133.786 42.9545C133.797 43.0942 133.821 43.2344 133.839 43.3733L133.833 43.3762Z" fill="#F25808"/>
<path d="M119.541 45.4948C119.537 45.6842 119.567 45.8388 119.591 45.9921C119.61 46.1222 119.585 46.2665 119.698 46.3737C119.727 46.4003 119.696 46.4391 119.682 46.4712C119.654 46.553 119.648 46.6297 119.725 46.6894C119.769 46.7251 119.775 46.7764 119.781 46.8255C119.798 46.9559 119.817 47.0859 119.833 47.2141C119.841 47.2739 119.848 47.3338 119.907 47.3718C119.924 47.3828 119.939 47.4025 119.942 47.4196C119.965 47.5513 120.013 47.6711 120.069 47.7942C120.126 47.9151 120.207 48.022 120.259 48.1435C120.272 48.1744 120.305 48.2006 120.312 48.2323C120.374 48.4828 120.534 48.6839 120.645 48.9108C120.689 49.0007 120.723 49.0942 120.777 49.1785C120.836 49.2729 120.894 49.3676 120.964 49.4565C121.016 49.5216 121.037 49.6035 121.113 49.6547C121.229 49.7333 121.26 49.7402 121.343 49.6254C121.426 49.5106 121.527 49.4522 121.669 49.4429C121.82 49.4324 121.971 49.4132 122.117 49.3838C122.234 49.3603 122.333 49.389 122.404 49.4711C122.509 49.5968 122.657 49.6213 122.799 49.6619C122.903 49.6901 122.971 49.7639 123.055 49.8161C123.086 49.834 123.082 49.8692 123.061 49.8957C122.989 49.9918 122.929 50.1057 122.836 50.174C122.735 50.2476 122.628 50.3306 122.491 50.3458C122.141 50.3903 121.791 50.4348 121.443 50.479C121.424 50.4814 121.399 50.4889 121.383 50.4823C121.257 50.4179 121.108 50.4542 120.982 50.3877C120.95 50.3701 120.915 50.368 120.881 50.3724C120.825 50.3773 120.771 50.3798 120.724 50.3358C120.712 50.3222 120.689 50.3185 120.669 50.3145C120.267 50.2376 120.124 50.1905 119.851 49.9691C119.696 49.8433 119.531 49.7252 119.423 49.5566C119.369 49.4744 119.302 49.4027 119.262 49.3101C119.23 49.2337 119.172 49.1673 119.125 49.1017C119.051 48.996 118.983 48.8874 118.935 48.7676C118.896 48.6704 118.812 48.6009 118.767 48.5045C118.749 48.4677 118.727 48.4335 118.723 48.3951C118.714 48.3288 118.698 48.268 118.636 48.2259C118.607 48.2056 118.598 48.1656 118.598 48.1308C118.597 47.9724 118.487 47.8714 118.407 47.7556C118.383 47.7217 118.362 47.6897 118.355 47.6494C118.346 47.5831 118.33 47.5244 118.272 47.4796C118.226 47.4442 118.235 47.3779 118.224 47.3251C118.203 47.2236 118.207 47.1231 118.128 47.0311C118.077 46.9703 118.083 46.861 118.067 46.7718C118.048 46.6527 118.031 46.5334 118.015 46.4137C118.004 46.324 117.995 46.234 117.925 46.1625C117.885 46.122 117.894 46.0557 117.873 46.0085C117.836 45.9262 117.939 45.8502 117.875 45.7715C117.814 45.6968 117.829 45.5993 117.814 45.5101C117.799 45.4252 117.786 45.34 117.782 45.2558C117.775 45.1567 117.738 45.0855 117.648 45.0384C117.573 44.9979 117.504 44.9459 117.481 44.8533C117.448 44.712 117.507 44.5981 117.648 44.5434C117.767 44.4956 117.77 44.4953 117.756 44.369C117.743 44.2533 117.726 44.1382 117.712 44.025C117.702 43.9502 117.689 43.876 117.745 43.808C117.773 43.774 117.764 43.7318 117.759 43.6913C117.749 43.6165 117.74 43.5417 117.732 43.4666C117.725 43.4111 117.72 43.3553 117.76 43.3068C117.792 43.268 117.79 43.2226 117.784 43.1778C117.777 43.1158 117.778 43.0592 117.824 43.0078C117.839 42.9907 117.846 42.9594 117.841 42.9383C117.794 42.7554 117.908 42.5997 117.928 42.4322C117.952 42.2251 118.061 42.044 118.065 41.8351C118.065 41.7983 118.083 41.7678 118.098 41.7354C118.171 41.5916 118.196 41.4342 118.247 41.2824C118.275 41.1984 118.303 41.1081 118.345 41.0353C118.449 40.8572 118.516 40.6533 118.67 40.5013C118.72 40.4515 118.764 40.3873 118.771 40.3039C118.776 40.2425 118.83 40.19 118.877 40.1645C118.946 40.1254 118.985 40.0618 119.042 40.0154C119.162 39.9156 119.293 39.8381 119.444 39.7972C119.478 39.7886 119.522 39.7939 119.542 39.7653C119.61 39.6676 119.715 39.6717 119.813 39.6592C120.093 39.6237 120.374 39.5989 120.651 39.5484C120.802 39.5206 120.921 39.6011 121.057 39.6163C121.173 39.7406 121.354 39.7501 121.484 39.8551C121.552 39.9116 121.655 39.9333 121.744 39.9545C121.796 39.9675 121.838 39.9883 121.88 40.0155C121.937 40.0538 121.99 40.0991 122.065 40.1091C122.123 40.117 122.162 40.1685 122.191 40.2126C122.243 40.2907 122.311 40.3472 122.381 40.4035C122.451 40.4618 122.486 40.5486 122.534 40.6206C122.626 40.761 122.673 40.9329 122.775 41.0634C122.902 41.2295 122.9 41.4165 122.925 41.6022C122.967 41.8922 122.99 42.1823 123.036 42.4717C123.063 42.6355 123 42.7737 122.954 42.9186C122.946 42.9413 122.925 42.9656 122.926 42.9873C122.942 43.1697 122.851 43.3224 122.8 43.4873C122.794 43.5055 122.791 43.5298 122.777 43.5424C122.668 43.6561 122.664 43.8151 122.601 43.949C122.592 43.9675 122.593 43.9913 122.582 44.0057C122.365 44.3155 122.206 44.6657 121.93 44.9331C121.845 45.0155 121.763 45.1105 121.675 45.1804C121.576 45.2581 121.472 45.3624 121.324 45.3552C121.28 45.3521 121.229 45.3608 121.194 45.3891C121.092 45.4759 120.966 45.4897 120.841 45.5033C120.637 45.5294 120.432 45.5554 120.227 45.5814C120.16 45.5898 120.096 45.5958 120.036 45.5535C119.97 45.5098 119.9 45.5382 119.831 45.5448C119.737 45.5524 119.643 45.5839 119.535 45.4978L119.541 45.4948ZM121.231 41.7239C121.218 41.615 121.208 41.5033 121.19 41.3949C121.159 41.2208 121.165 41.0442 121.047 40.8833C120.949 40.7502 120.894 40.5858 120.798 40.446C120.742 40.3641 120.706 40.3556 120.643 40.4374C120.505 40.6199 120.335 40.7805 120.268 41.0082C120.264 41.0261 120.247 41.0414 120.233 41.0561C120.156 41.1441 120.117 41.2532 120.063 41.3556C119.997 41.4813 119.981 41.6309 119.885 41.7452C119.87 41.7623 119.856 41.7922 119.861 41.8155C119.879 41.9218 119.825 42.0132 119.794 42.1041C119.76 42.1974 119.713 42.2859 119.734 42.3895C119.736 42.3981 119.733 42.4093 119.729 42.4184C119.673 42.5515 119.661 42.7006 119.617 42.8321C119.573 42.9636 119.618 43.1164 119.52 43.2309C119.534 43.3703 119.54 43.5084 119.474 43.6383C119.538 43.7606 119.407 43.8944 119.496 44.0176C119.507 44.0336 119.49 44.0553 119.475 44.0703C119.448 44.0997 119.446 44.1326 119.448 44.1692C119.46 44.2632 119.456 44.3637 119.485 44.4534C119.514 44.5452 119.402 44.6397 119.5 44.7271C119.517 44.7423 119.488 44.7721 119.476 44.7932C119.465 44.8119 119.461 44.8319 119.482 44.8466C119.535 44.8812 119.574 44.9391 119.655 44.9224C119.722 44.9073 119.795 44.896 119.864 44.8958C120.003 44.8998 120.079 44.7795 120.193 44.7389C120.302 44.5515 120.459 44.4013 120.588 44.2285C120.701 44.0752 120.754 43.8905 120.878 43.7444C120.975 43.6323 121.012 43.4821 121.066 43.345C121.097 43.265 121.161 43.1875 121.156 43.0926C121.15 42.9935 121.192 42.9034 121.221 42.8174C121.292 42.5955 121.338 42.3769 121.293 42.1438C121.267 42.006 121.258 41.8639 121.24 41.725L121.231 41.7239Z" fill="#F25808"/>
<path d="M164.832 45.6971C164.644 45.6971 164.496 45.6971 164.345 45.6971C164.241 45.6971 164.135 45.7077 164.051 45.6175C164.011 45.5751 163.945 45.591 163.889 45.5884C163.712 45.5804 163.529 45.6228 163.367 45.5115C163.349 45.4983 163.32 45.5009 163.296 45.5036C162.97 45.5407 162.71 45.3498 162.424 45.2544C162.348 45.2279 162.295 45.1457 162.228 45.0874C162.12 44.992 162.046 44.8489 161.884 44.8224C161.852 44.817 161.831 44.7852 161.826 44.7561C161.813 44.6474 161.736 44.5811 161.664 44.5149C161.487 44.3505 161.368 44.1491 161.267 43.9291C161.214 43.8098 161.142 43.7197 161.24 43.5978C161.254 43.5819 161.248 43.5607 161.233 43.5474C161.15 43.4732 161.177 43.3751 161.177 43.285C161.177 42.8688 161.177 42.4553 161.177 42.0392C161.177 41.9411 161.172 41.8431 161.251 41.7609C161.296 41.7132 161.286 41.6443 161.286 41.5833C161.286 41.2917 161.288 41.0002 161.291 40.7086C161.291 40.6211 161.291 40.5389 161.36 40.4674C161.426 40.3985 161.397 40.303 161.402 40.2182C161.407 40.1148 161.386 40.0062 161.479 39.924C161.513 39.8922 161.508 39.8445 161.511 39.7994C161.516 39.6828 161.5 39.5609 161.603 39.4734C161.611 39.4654 161.617 39.4495 161.614 39.4389C161.577 39.2375 161.707 39.0758 161.738 38.8929C161.744 38.8638 161.749 38.8266 161.768 38.8054C161.908 38.6464 161.977 38.4503 162.062 38.2594C162.062 38.2541 162.067 38.2488 162.072 38.2435C162.393 37.8327 162.673 37.39 163.055 37.0295C163.153 36.9367 163.259 36.8572 163.378 36.7883C163.481 36.7273 163.569 36.6346 163.656 36.5498C163.709 36.4994 163.765 36.4702 163.836 36.4649C163.892 36.4649 163.947 36.4517 163.99 36.4093C163.998 36.4013 164.008 36.3881 164.019 36.3881C164.218 36.3775 164.384 36.2449 164.586 36.2449C164.816 36.2449 165.044 36.2423 165.272 36.2714C165.285 36.2714 165.298 36.2714 165.309 36.2741C165.497 36.3775 165.711 36.3218 165.902 36.3828C166.08 36.4384 166.281 36.4278 166.434 36.5551C166.623 36.5471 166.755 36.6505 166.882 36.7724C166.906 36.7963 166.964 36.791 167.007 36.7936C167.062 36.7989 167.118 36.8016 167.158 36.8493C167.192 36.889 167.24 36.9049 167.293 36.9023C167.444 36.8943 167.547 37.0057 167.674 37.0587C167.769 37.0984 167.83 37.2098 167.91 37.2866C168.037 37.4059 168.074 37.5755 168.122 37.7266C168.156 37.8406 168.148 37.9705 168.214 38.0792C168.241 38.1242 168.233 38.1746 168.191 38.2143C168.122 38.2833 168.119 38.3575 168.185 38.4264C168.228 38.4715 168.228 38.5086 168.183 38.5536C168.124 38.6119 168.13 38.6782 168.183 38.7339C168.257 38.8134 168.236 38.8929 168.183 38.9698C168.132 39.0466 168.119 39.1156 168.188 39.1871C168.222 39.2242 168.228 39.2666 168.193 39.3038C168.127 39.3753 168.138 39.4628 168.135 39.5503C168.122 39.9267 168.153 40.3057 168.116 40.6847C168.111 40.7351 168.122 40.7855 168.074 40.8199C168.053 40.8358 168.037 40.857 168.042 40.8835C168.071 41.077 168.024 41.252 167.931 41.4216C167.891 41.4905 167.915 41.5806 167.915 41.6602C167.915 41.7529 167.92 41.8457 167.838 41.9173C167.799 41.9517 167.804 42.0074 167.804 42.0577C167.804 42.1267 167.799 42.1929 167.738 42.2433C167.724 42.2539 167.708 42.2725 167.708 42.2884C167.701 42.4182 167.624 42.5296 167.597 42.6462C167.557 42.8105 167.459 42.9484 167.422 43.1047C167.369 43.3221 167.258 43.5129 167.176 43.717C167.128 43.8337 167.057 43.9317 166.996 44.0378C166.898 44.2074 166.789 44.3691 166.699 44.544C166.617 44.7031 166.472 44.8197 166.336 44.9363C166.201 45.053 166.085 45.1908 165.966 45.3233C165.87 45.4267 165.772 45.5168 165.645 45.591C165.37 45.7527 165.081 45.6679 164.837 45.6971H164.832ZM166.045 38.9804H166.048C166.048 38.8691 166.048 38.7577 166.048 38.6464C166.048 38.3681 166.048 38.0898 166.045 37.8088C166.045 37.671 165.931 37.4695 165.852 37.4828C165.714 37.5066 165.603 37.3343 165.462 37.451C165.441 37.4669 165.409 37.4298 165.383 37.4139C165.245 37.329 165.176 37.337 165.057 37.4483C164.829 37.663 164.625 37.8989 164.451 38.1587C164.361 38.2939 164.236 38.4078 164.162 38.5563C164.117 38.6491 164.093 38.7524 164.011 38.8266C163.881 38.9433 163.828 39.1076 163.807 39.2666C163.783 39.4389 163.68 39.59 163.693 39.7676C163.693 39.7835 163.685 39.8074 163.672 39.818C163.585 39.8922 163.592 39.9929 163.59 40.091C163.59 40.152 163.59 40.2209 163.563 40.2739C163.508 40.3879 163.452 40.5045 163.484 40.6291C163.516 40.7536 163.32 40.8491 163.455 40.9763C163.46 40.9816 163.449 41.0134 163.436 41.024C163.357 41.0903 163.373 41.1804 163.373 41.2652C163.373 41.6867 163.373 42.1081 163.367 42.5296C163.367 42.6144 163.381 42.7045 163.312 42.7761C163.293 42.7946 163.288 42.8185 163.304 42.8423C163.399 42.9961 163.396 43.1551 163.309 43.3115C163.296 43.3354 163.288 43.3592 163.309 43.3778C163.391 43.4599 163.365 43.5633 163.367 43.6587C163.373 43.8151 163.336 43.9821 163.468 44.112C163.532 44.3797 163.73 44.552 163.905 44.7402C163.966 44.8064 164.035 44.8038 164.098 44.7402C164.173 44.666 164.228 44.5758 164.345 44.5546C164.384 44.5467 164.4 44.5069 164.411 44.4698C164.424 44.4274 164.451 44.3956 164.485 44.3664C164.668 44.2074 164.761 43.9901 164.874 43.7833C164.962 43.6269 165.065 43.4838 165.126 43.3088C165.171 43.179 165.248 43.057 165.309 42.9298C165.367 42.8132 165.354 42.6859 165.409 42.5773C165.502 42.3917 165.624 42.2194 165.608 41.9968C165.608 41.9729 165.619 41.9491 165.629 41.9279C165.759 41.6946 165.841 41.4481 165.823 41.1751C165.817 41.1035 165.799 41.0134 165.852 40.9577C165.947 40.8597 165.929 40.743 165.934 40.6264C165.937 40.5283 165.913 40.425 165.979 40.3375C166.04 40.2553 166.045 40.1679 166.045 40.0724C166.045 39.7066 166.045 39.3409 166.045 38.9751V38.9804Z" fill="#F25808"/>
<path d="M175.866 40.6426C175.803 40.587 175.739 40.6002 175.678 40.6002C175.535 40.6002 175.392 40.6002 175.252 40.6002C175.17 40.6002 175.095 40.6055 175.027 40.6638C174.942 40.7327 174.836 40.7168 174.743 40.6824C174.68 40.6585 174.627 40.6559 174.568 40.685C174.513 40.7142 174.447 40.7062 174.386 40.7062C173.941 40.7062 173.493 40.7062 173.048 40.7062C172.998 40.7062 172.939 40.7168 172.905 40.6824C172.804 40.579 172.677 40.6002 172.555 40.5976C172.362 40.5976 172.171 40.5976 171.978 40.5976C171.856 40.5976 171.742 40.5923 171.626 40.5154C171.528 40.4518 171.393 40.4571 171.276 40.412C171.032 40.3139 170.948 40.078 171.075 39.8421C171.26 39.5002 171.541 39.2378 171.814 38.978C172.034 38.7686 172.243 38.5539 172.42 38.3074C172.489 38.212 172.566 38.1272 172.683 38.0821C172.757 38.053 172.818 37.9893 172.844 37.9125C172.881 37.8091 172.955 37.7349 173.03 37.6607C173.241 37.446 173.459 37.2366 173.678 37.0298C173.731 36.9795 173.774 36.9158 173.856 36.8999C173.912 36.8893 173.927 36.839 173.954 36.7966C174.01 36.6985 174.073 36.611 174.19 36.5739C174.266 36.5474 174.319 36.4758 174.359 36.4096C174.433 36.277 174.492 36.1366 174.576 36.0093C174.59 35.9908 174.598 35.9616 174.598 35.9404C174.592 35.7098 174.749 35.5879 174.913 35.4739C175.058 35.3705 175.217 35.2725 175.384 35.2247C175.562 35.1744 175.75 35.1532 175.935 35.2698C176.062 35.3493 176.213 35.4103 176.372 35.4076C176.542 35.405 176.685 35.4633 176.825 35.5508C176.772 35.7416 176.727 35.9351 176.64 36.1153C176.534 36.3407 176.388 36.5395 176.203 36.7011C175.758 37.0934 175.363 37.5361 174.939 37.9496C174.653 38.2305 174.357 38.5009 174.094 38.8031C173.97 38.9436 173.829 39.0708 173.731 39.2351C173.71 39.2696 173.678 39.2855 173.641 39.2908C173.53 39.3094 173.464 39.3968 173.435 39.4843C173.4 39.585 173.329 39.6486 173.268 39.7228C173.249 39.7467 173.218 39.7626 173.204 39.7865C173.183 39.8262 173.122 39.8633 173.175 39.9137C173.218 39.9561 173.265 39.9402 173.305 39.9004C173.342 39.8607 173.379 39.8607 173.416 39.9004C173.469 39.9561 173.541 39.9508 173.607 39.9508C174.089 39.9508 174.574 39.9508 175.056 39.9508C175.13 39.9508 175.204 39.9508 175.268 39.8978C175.334 39.8395 175.403 39.8395 175.469 39.8978C175.525 39.9482 175.591 39.9535 175.66 39.9402C175.715 39.9296 175.771 39.9322 175.826 39.9402C175.895 39.9535 175.962 39.9455 176.017 39.8925C176.068 39.8448 176.131 39.8527 176.192 39.8448C176.282 39.8315 176.338 39.9561 176.409 39.919C176.491 39.8766 176.544 39.8925 176.61 39.9349C176.629 39.9482 176.661 39.9508 176.682 39.9482C176.875 39.9137 177.048 40.0065 177.22 40.0568C177.368 40.0992 177.511 40.131 177.659 40.1575C177.937 40.2053 178.035 40.473 177.895 40.7248C177.8 40.8944 177.723 41.0747 177.643 41.2523C177.614 41.3159 177.58 41.3715 177.535 41.4245C177.437 41.5359 177.373 41.6684 177.318 41.8009C177.31 41.8168 177.31 41.8407 177.296 41.8513C177.191 41.9626 177.122 42.1005 177.034 42.2224C176.846 42.4821 176.695 42.7605 176.52 43.0255C176.407 43.1978 176.306 43.3834 176.179 43.5477C176.028 43.7438 175.877 43.9506 175.792 44.1918C175.787 44.2104 175.781 44.2316 175.768 44.2422C175.615 44.3508 175.559 44.5284 175.469 44.6769C175.326 44.9181 175.156 45.1407 175.032 45.3952C174.926 45.6152 174.854 45.8643 174.656 46.034C174.637 46.0499 174.619 46.0764 174.621 46.0976C174.629 46.2434 174.542 46.3388 174.452 46.4316C174.415 46.4687 174.404 46.5164 174.386 46.5615C174.333 46.6807 174.248 46.7656 174.108 46.7656C174.01 46.7656 173.909 46.7656 173.832 46.8451C173.8 46.8769 173.753 46.8742 173.708 46.8742C173.554 46.8742 173.398 46.8689 173.244 46.8742C173.154 46.8795 173.101 46.7894 173.027 46.7947C172.961 46.8 172.91 46.8769 172.826 46.8716C172.717 46.8636 172.598 46.8981 172.537 46.7603C172.524 46.7311 172.492 46.7178 172.457 46.7284C172.33 46.7735 172.293 46.6622 172.248 46.5933C172.201 46.5217 172.251 46.4528 172.312 46.4024C172.545 46.2036 172.643 45.9227 172.765 45.6523C172.823 45.5224 172.868 45.3766 172.985 45.2759C173.048 45.2229 173.09 45.1566 173.085 45.0665C173.08 44.9658 173.159 44.9075 173.218 44.8545C173.369 44.7193 173.44 44.5364 173.527 44.3614C173.541 44.3349 173.551 44.3005 173.573 44.2819C173.673 44.1865 173.739 44.0778 173.787 43.9453C173.832 43.8207 173.922 43.7147 173.999 43.606C174.1 43.4655 174.221 43.3277 174.28 43.1581C174.29 43.1289 174.306 43.1024 174.327 43.0812C174.47 42.9487 174.542 42.7737 174.613 42.5988C174.621 42.5776 174.635 42.5511 174.651 42.5378C174.741 42.4609 174.791 42.3576 174.857 42.2648C174.982 42.0872 175.069 41.8937 175.178 41.7082C175.209 41.6552 175.252 41.6074 175.297 41.5677C175.429 41.4431 175.506 41.2841 175.578 41.1224C175.588 41.0985 175.591 41.072 175.609 41.0561C175.736 40.9448 175.805 40.7964 175.874 40.6373L175.866 40.6426Z" fill="#F8C543"/>
<path d="M103.68 49.1788C103.581 49.187 103.471 49.2291 103.368 49.1511C103.349 49.1361 103.31 49.141 103.28 49.1427C103.188 49.1479 103.09 49.182 103.008 49.1013C102.858 49.1312 102.742 49.0395 102.614 48.9885C102.578 48.9736 102.533 48.9814 102.495 48.9732C102.41 48.9536 102.332 48.9201 102.303 48.8261C102.292 48.7906 102.271 48.765 102.242 48.7426C102.209 48.7186 102.196 48.6834 102.224 48.6515C102.273 48.5932 102.271 48.5283 102.255 48.4653C102.21 48.3037 102.286 48.1618 102.323 48.0137C102.329 47.9891 102.354 47.9663 102.351 47.945C102.33 47.7783 102.399 47.6198 102.38 47.4529C102.369 47.3631 102.364 47.2726 102.409 47.1886C102.439 47.1327 102.42 47.07 102.413 47.0102C102.401 46.9204 102.392 46.8304 102.44 46.744C102.463 46.702 102.459 46.6569 102.455 46.6118C102.444 46.522 102.427 46.4352 102.49 46.3512C102.523 46.3058 102.498 46.2438 102.493 46.188C102.483 46.0937 102.458 46.0014 102.525 45.9125C102.558 45.8671 102.533 45.8051 102.526 45.7496C102.516 45.651 102.49 45.5522 102.559 45.4589C102.592 45.4134 102.564 45.3517 102.56 45.2959C102.552 45.2014 102.525 45.1093 102.594 45.0202C102.629 44.9744 102.6 44.913 102.595 44.8572C102.587 44.7627 102.558 44.6687 102.625 44.5799C102.639 44.5585 102.639 44.5216 102.637 44.4914C102.633 44.3921 102.603 44.2917 102.677 44.202C102.692 44.1849 102.682 44.1427 102.678 44.1128C102.666 44.0124 102.673 43.9181 102.701 43.8168C102.725 43.7313 102.756 43.6796 102.844 43.6749C102.915 43.6703 102.96 43.6146 103.02 43.5939C103.222 43.527 103.431 43.5005 103.643 43.4931C103.699 43.4903 103.75 43.5164 103.797 43.5473C103.819 43.562 103.842 43.5721 103.861 43.5891C104.015 43.7195 104.189 43.8103 104.387 43.8502C104.429 43.8579 104.453 43.8939 104.485 43.9182C104.525 43.9499 104.526 43.9846 104.491 44.0215C104.4 44.1221 104.397 44.2397 104.39 44.3709C104.381 44.5066 104.391 44.6508 104.323 44.7789C104.307 44.807 104.306 44.8374 104.308 44.8676C104.316 44.9665 104.333 45.0642 104.267 45.1573C104.239 45.1955 104.264 45.2553 104.27 45.3045C104.283 45.4244 104.307 45.543 104.244 45.6595C104.214 45.7133 104.244 45.779 104.247 45.8393C104.253 45.9384 104.283 46.0345 104.214 46.13C104.179 46.1779 104.212 46.2476 104.217 46.3077C104.225 46.4022 104.247 46.4927 104.185 46.5831C104.149 46.6377 104.18 46.7119 104.186 46.7763C104.192 46.8559 104.215 46.9354 104.152 47.0064C104.122 47.0427 104.137 47.0929 104.143 47.1378C104.156 47.2382 104.164 47.3392 104.115 47.4344C104.108 47.4483 104.102 47.4643 104.106 47.4769C104.152 47.6881 104.05 47.8942 104.083 48.105C104.102 48.2155 104.038 48.3105 104.011 48.4094C103.994 48.4746 103.979 48.5328 103.988 48.5991C104.001 48.6995 104.011 48.798 103.958 48.8938C103.935 48.9358 103.948 48.9841 103.951 49.0271C103.957 49.1088 103.921 49.1503 103.842 49.1582C103.793 49.1644 103.742 49.1709 103.684 49.1783L103.68 49.1788Z" fill="#F25808"/>
<path d="M104.933 39.5408C104.869 39.5489 104.803 39.5573 104.739 39.5655C104.673 39.5739 104.611 39.5817 104.554 39.5281C104.534 39.5089 104.495 39.4943 104.47 39.4997C104.357 39.5293 104.28 39.4718 104.206 39.4008C104.186 39.3816 104.163 39.3694 104.137 39.3748C104.04 39.3937 103.956 39.3457 103.864 39.3248C103.753 39.2999 103.679 39.229 103.591 39.1749C103.549 39.1499 103.542 39.1096 103.576 39.0726C103.62 39.0237 103.609 38.9708 103.602 38.9152C103.586 38.7913 103.57 38.6653 103.556 38.5411C103.543 38.4385 103.513 38.3339 103.589 38.2373C103.606 38.2156 103.598 38.1689 103.596 38.1344C103.589 38.0463 103.562 37.9563 103.633 37.8758C103.647 37.8565 103.643 37.818 103.641 37.7879C103.636 37.6973 103.614 37.6089 103.68 37.5289C103.708 37.4949 103.686 37.4413 103.682 37.3962C103.676 37.3318 103.701 37.2874 103.767 37.279C103.838 37.27 103.902 37.251 103.951 37.1884C103.975 37.157 104.023 37.1554 104.063 37.1502C104.202 37.1326 104.343 37.1147 104.482 37.0971C104.544 37.0892 104.6 37.0928 104.648 37.1432C104.668 37.1646 104.7 37.1736 104.722 37.1947C104.861 37.3312 105.029 37.4075 105.222 37.4416C105.388 37.4704 105.438 37.5748 105.375 37.7218C105.351 37.7769 105.358 37.8303 105.363 37.884C105.375 37.9801 105.387 38.0742 105.331 38.1638C105.317 38.1873 105.317 38.222 105.32 38.2519C105.325 38.323 105.331 38.3895 105.281 38.4524C105.251 38.4887 105.268 38.5387 105.271 38.5838C105.281 38.7259 105.324 38.8637 105.252 39.0097C105.214 39.0861 105.245 39.1993 105.291 39.2847C105.308 39.3173 105.356 39.3372 105.323 39.3849C105.29 39.4325 105.275 39.4974 105.2 39.5048C105.11 39.5161 105.02 39.5275 104.931 39.5389L104.933 39.5408Z" fill="#F25808"/>
</svg>
