<svg width="252" height="147" viewBox="0 0 252 147" fill="none" xmlns="http://www.w3.org/2000/svg">
<path d="M100.576 131.989C100.47 131.535 100.142 131.408 99.7283 131.472C98.6261 131.662 97.6193 131.176 96.6442 130.88C95.966 130.679 95.0651 130.795 94.5458 130.077C94.514 130.024 94.3763 130.014 94.2915 130.035C93.4118 130.246 92.7018 129.559 91.8433 129.559C91.483 129.559 91.1651 129.137 90.7411 128.999C89.9887 128.756 89.268 128.397 88.5474 128.08C87.4346 127.594 86.2476 127.097 85.3891 126.157C85.0182 125.745 84.4565 125.713 84.075 125.291C83.5133 124.657 82.8668 124.107 82.0932 123.664C81.3725 123.241 80.8002 122.533 80.1961 121.931C78.7972 120.525 77.43 119.099 76.0311 117.694C74.7699 116.426 73.4346 115.232 72.2158 113.922C71.7813 113.457 71.156 113.076 71.0606 112.326C71.0182 112.02 70.6791 111.851 70.4777 111.661C69.5345 110.805 69.3014 109.579 68.6549 108.586C68.1144 107.741 68.3581 106.927 68.1886 106.114C68.0296 105.385 67.7117 104.687 67.8176 103.905C67.86 103.609 67.86 103.335 68.0614 103.049C68.4111 102.574 68.1992 102.204 67.6057 102.194C66.0266 102.172 64.4475 102.194 62.8684 102.194C62.5398 102.194 62.2113 102.204 61.9993 101.866C61.8616 101.655 61.6178 101.676 61.3952 101.676C60.9183 101.676 60.4308 101.676 59.9539 101.676C59.689 101.676 59.424 101.676 59.2545 101.401C59.2121 101.327 59.1273 101.232 59.0637 101.232C58.2582 101.327 57.6224 100.672 56.8169 100.746C56.4672 100.778 56.1068 100.778 55.8949 100.397C55.8313 100.271 55.6829 100.249 55.5451 100.249C54.6973 100.239 53.9766 99.922 53.3196 99.4042C53.2242 99.3303 53.0652 99.3197 52.938 99.3303C52.5353 99.3514 52.281 99.1612 51.963 98.9182C51.2 98.3476 50.3733 97.8722 49.5573 97.3861C48.8896 96.9846 48.4869 96.319 47.8934 95.8541C47.3847 95.4631 47.0349 94.9032 46.505 94.5016C45.9751 94.1001 45.8904 93.3605 45.4982 92.8322C45.3287 92.5998 45.2439 92.2722 45.0001 92.0398C44.6504 91.7122 44.449 91.3213 44.5126 90.8247C44.5232 90.7085 44.5126 90.5077 44.4278 90.4549C43.8661 90.0957 44.0251 89.5462 44.0039 89.0391C43.9721 88.4368 44.1205 87.824 43.6754 87.2851C43.5588 87.1478 43.6012 86.8625 43.6012 86.6512C43.6012 82.8052 43.6012 78.9592 43.6012 75.1132C43.6012 74.7857 43.5906 74.4687 43.8555 74.2046C43.9509 74.1095 44.0145 73.8982 43.9721 73.7819C43.6224 72.6514 44.2053 71.5314 44.0039 70.4114C43.9403 70.0733 43.9615 69.7141 44.3431 69.4922C44.5338 69.376 44.502 69.1435 44.5126 68.9533C44.5126 68.5835 44.4914 68.2031 44.5232 67.8439C44.661 66.5971 44.8306 65.3504 45.9434 64.5473C46.4097 64.2092 46.2507 63.5859 46.7594 63.2689C47.3953 62.8779 47.7344 62.1489 48.5293 61.8425C49.0804 61.6312 49.5043 61.0078 49.907 60.5112C50.2885 60.0357 50.8608 59.8772 51.3377 59.687C51.8888 59.4757 52.2068 59.0953 52.6095 58.7572C52.9168 58.5037 53.1818 58.1761 53.6481 58.1339C53.9978 58.1022 54.0826 57.6795 54.3688 57.521C54.4536 57.4682 54.3688 57.2886 54.2416 57.2886C53.5527 57.3097 53.0122 56.8448 52.4187 56.6335C51.6239 56.3482 50.6383 56.5807 49.9918 55.8727C49.9494 55.8305 49.8646 55.8094 49.801 55.8305C49.0274 56.0524 48.5293 55.3973 47.9146 55.1648C46.2719 54.5414 45.2969 53.0622 44.1417 51.8577C43.792 51.4879 43.5058 50.8117 43.5482 50.1249C43.5906 49.5438 43.7178 48.931 43.1561 48.4238C42.8487 48.1491 43.0395 46.6593 43.3468 46.3423C43.4952 46.1944 43.5376 46.0887 43.4104 45.8985C42.8911 45.1801 42.9017 43.6903 43.4104 42.9612C43.474 42.8767 43.5482 42.7605 43.527 42.6654C43.4104 41.8624 43.792 41.1545 43.9827 40.4148C44.0463 40.1718 44.1311 39.9711 44.3007 39.7809C44.8306 39.1681 45.1379 38.4285 45.4135 37.6888C45.477 37.5092 45.5724 37.4036 45.7208 37.2873C46.1235 36.9915 46.4203 36.6428 46.3461 36.0828C46.3037 35.8081 46.4521 35.6179 46.664 35.4172C47.1939 34.8889 47.4907 34.1915 47.7768 33.5153C47.904 33.1983 48.2007 33.0927 48.3279 32.8074C49.0274 31.1697 50.5747 30.2505 51.6769 28.9614C51.9312 28.6656 52.3763 28.6127 52.7049 28.486C53.5421 28.1584 54.1038 27.4188 54.9305 27.123C55.047 27.0807 55.1636 26.9962 55.2802 26.9645C55.8949 26.7848 55.9691 26.6264 55.4074 26.2671C54.6867 25.7917 54.6019 24.9147 54.0402 24.3653C53.9554 24.2807 53.9872 24.0694 53.9872 23.9215C53.9872 21.671 53.9343 19.4204 53.9978 17.1699C54.019 16.3986 54.6125 15.7858 55.0788 15.1941C55.3862 14.8031 55.8207 14.5284 55.9585 14.0107C55.9797 13.9367 56.0433 13.8205 56.1068 13.8099C56.9441 13.6303 57.2302 12.6899 57.8979 12.4469C58.6292 12.1722 59.1273 11.6228 59.7844 11.2847C60.558 10.8832 61.4588 10.693 62.1053 10.059C62.1689 10.0062 62.2643 9.94281 62.3385 9.95338C62.9002 9.97451 63.3983 9.57301 63.8646 9.55188C65.0304 9.47791 66.1114 8.96019 67.2877 8.99188C69.0364 9.04471 70.7957 9.00245 72.5444 9.01301C72.8623 9.01301 73.212 8.93905 73.4664 9.2349C73.4982 9.2666 73.5618 9.30886 73.5724 9.29829C74.0705 8.83339 74.4626 9.42508 74.9183 9.41452C75.2892 9.41452 75.6602 9.38282 75.8933 9.78433C75.9993 9.96395 76.2431 9.92168 76.4444 9.92168C76.9743 9.92168 77.4936 9.92168 78.0235 9.92168C78.2885 9.92168 78.5534 9.92168 78.7124 10.207C78.7654 10.2915 78.8926 10.4077 78.9668 10.3866C79.698 10.2387 80.2491 10.8937 80.9592 10.8409C80.9804 10.8409 81.0122 10.8409 81.0228 10.8409C82.0932 11.5488 83.5663 11.4537 84.4141 12.5949C84.6473 12.9118 85.103 12.8484 85.4421 13.102C86.3642 13.7888 87.3392 14.3911 88.0916 15.268C88.24 15.4476 88.4202 15.5533 88.6533 15.5639C88.8335 15.5744 89.0137 15.6273 89.0561 15.828C89.268 16.7156 90.0417 17.1593 90.6034 17.7616C90.8365 18.0152 91.2181 18.0257 91.4194 17.7299C92.0553 16.7684 93.2847 16.5571 93.9523 15.659C94.8108 15.659 95.1181 14.6552 95.9554 14.5707C96.1355 14.5495 96.2733 14.2009 96.4747 14.1269C97.3543 13.7994 97.9266 13.0281 98.8168 12.6688C99.3361 12.4575 100.036 12.2462 100.364 11.6334C100.438 11.496 100.555 11.3798 100.724 11.3798C101.371 11.4009 101.731 10.7881 102.325 10.6507C102.569 10.5979 102.823 10.4394 103.109 10.4288C103.395 10.4288 103.639 10.4077 103.861 10.1436C104.158 9.79489 105.282 9.80546 105.621 10.133C105.769 10.2809 105.917 10.4922 106.087 10.2598C106.394 9.83715 106.818 9.93225 107.221 9.92168C107.751 9.91112 108.27 9.92168 108.8 9.92168C109.065 9.92168 109.33 9.92168 109.489 10.1964C109.542 10.2915 109.68 10.4183 109.743 10.3654C110.379 9.76319 110.909 10.6296 111.556 10.4711C112.192 10.3126 112.955 10.2809 113.569 10.4817C114.459 10.7775 115.466 10.5768 116.208 10.936C117.014 11.3269 117.83 11.1368 118.55 11.4115C119.557 11.7918 120.744 11.6651 121.581 12.3413C122.27 12.9013 123.182 12.9647 123.849 13.5775C124.167 13.8733 124.74 13.8839 125.142 13.4507C125.63 12.933 126.054 12.225 126.658 11.9926C127.421 11.7073 127.898 11.0522 128.65 10.767C129.127 10.5768 129.699 10.4817 130.081 9.97451C130.505 9.40395 131.363 9.36169 131.851 8.93905C132.656 8.2417 133.652 8.59038 134.522 8.17831C135.221 7.85077 136.196 8.07265 137.054 8.08322C137.584 8.08322 138.157 7.94586 138.602 8.40019C138.665 8.46359 138.835 8.48472 138.909 8.45302C139.969 7.99869 141.018 8.72774 142.067 8.48472C142.184 8.45302 142.385 8.48472 142.438 8.55868C142.894 9.15037 143.54 8.96019 144.134 8.98132C144.526 8.99188 144.897 8.98132 145.236 9.27716C145.512 9.52018 145.914 9.38282 146.254 9.39339C146.879 9.42508 147.536 9.27716 148.045 9.82659C148.108 9.88998 148.246 9.88998 148.352 9.90055C148.956 9.94281 149.539 9.86885 150.122 10.3338C150.44 10.5873 151.097 10.5556 151.553 10.8303C152.39 11.3269 153.513 11.2424 154.16 12.13C154.202 12.1933 154.308 12.2356 154.382 12.2462C155.76 12.4047 156.756 13.3239 157.911 13.9262C158.886 14.4333 159.565 15.1835 160.296 15.9125C160.402 16.0182 160.508 16.071 160.646 16.071C160.995 16.0922 161.154 16.2823 161.165 16.6205C161.165 16.7789 161.25 16.9057 161.398 16.9903C161.758 17.2333 161.907 17.8461 162.331 17.825C162.67 17.8038 162.967 17.3495 163.327 17.1699C164.101 16.7895 164.768 16.2084 165.648 16.0182C165.934 15.9548 166.082 15.6378 166.443 15.5322C167.524 15.2152 168.562 15.7646 169.633 15.585C170.163 15.4899 170.724 15.5744 171.275 15.5744C171.604 15.5744 171.922 15.5744 172.134 15.9125C172.261 16.1239 172.526 16.0816 172.738 16.0816C173.353 16.0816 173.967 16.0816 174.582 16.0816C175.101 16.0816 175.631 15.9759 176.066 16.4091C176.161 16.5042 176.405 16.4725 176.574 16.4831C177.221 16.5148 177.889 16.3669 178.429 16.9269C178.535 17.0325 178.8 16.9903 179.001 17.0008C179.288 17.0114 179.574 17.0008 179.743 17.3072C179.817 17.4552 179.976 17.4974 180.135 17.4974C180.941 17.508 181.566 17.9306 182.244 18.311C182.859 18.6597 183.516 18.9027 184.11 19.3148C184.915 19.8853 185.731 20.4347 186.621 20.8785C187.596 21.3751 188.381 22.1253 189.144 22.9072C190.352 24.1328 191.698 25.2528 192.726 26.6158C193.171 27.1969 193.658 27.7992 194.008 28.4965C194.305 29.0988 194.75 29.7116 195.153 30.3033C195.46 30.7471 195.672 31.2859 195.81 31.8142C195.958 32.3425 195.778 32.9448 196.223 33.4097C196.297 33.4836 196.266 33.7583 196.191 33.8429C195.757 34.2761 195.873 34.8149 195.873 35.3221C195.873 36.9809 195.873 38.6398 195.873 40.3092C195.873 40.7847 195.905 41.2813 195.534 41.6722C195.502 41.7039 195.46 41.7673 195.471 41.7778C195.979 42.3695 195.227 42.8556 195.344 43.4367C195.428 43.8276 195.407 44.2714 194.973 44.5461C194.898 44.5884 194.856 44.7363 194.856 44.842C194.835 45.6344 194.506 46.3106 194.072 46.9551C193.87 47.251 194.178 47.2721 194.358 47.2721C195.057 47.2827 195.757 47.2827 196.467 47.2827C196.774 47.2827 197.082 47.2827 197.272 47.5997C197.389 47.7898 197.601 47.811 197.802 47.8004C198.385 47.7476 198.724 48.1808 199.169 48.4344C199.858 48.8042 200.409 49.3959 201.151 49.6706C201.671 49.8608 201.925 50.3468 202.296 50.6849C203.674 51.9528 204.956 53.3158 206.27 54.6471C206.387 54.7633 206.471 54.8796 206.641 54.8901C207.012 54.9007 207.128 55.112 207.224 55.4607C207.383 55.989 207.892 56.3271 208.284 56.6441C209.216 57.4048 209.683 58.4825 210.371 59.3912C210.636 59.7399 210.456 60.247 210.477 60.6802C210.499 61.0078 210.456 61.3353 210.817 61.5361C211.039 61.6629 210.997 61.9164 210.997 62.1278C210.997 64.5262 210.997 66.9352 210.997 69.3337C210.997 69.5767 210.997 69.8197 210.785 69.9993C210.742 70.0416 210.668 70.1261 210.679 70.1578C211.039 70.9608 210.223 71.6265 210.456 72.4295C210.721 73.317 210.191 74.1412 209.948 74.9125C209.767 75.4936 209.566 76.0536 209.524 76.6664C209.492 77.0468 209.206 77.3321 209.026 77.6385C208.464 78.6211 208.209 79.7834 207.309 80.5864C207.065 80.8083 206.97 81.2837 206.864 81.6218C206.736 82.0233 206.482 82.2663 206.259 82.5833C205.655 83.4497 205.157 84.4007 204.458 85.1825C203.642 86.0806 202.868 87.0104 201.755 87.6444C201.119 88.0036 200.494 88.4685 199.89 88.9229C199.085 89.5357 198.099 89.8527 197.219 90.3598C196.541 90.7508 195.736 90.624 195.185 90.9304C194.591 91.2685 193.87 91.1734 193.383 91.6489C193.234 91.7968 193.012 91.7545 192.811 91.7545C192.471 91.7545 192.154 91.7545 191.942 92.0926C191.889 92.1666 191.751 92.2511 191.666 92.23C190.447 92.0187 189.366 92.8111 188.158 92.6843C187.766 92.6421 187.384 92.6526 187.098 93.0435C186.95 93.2549 186.653 93.1915 186.42 93.1915C185.35 93.1915 184.269 93.202 183.198 93.1915C182.753 93.1915 182.425 93.4134 182.615 93.8043C182.933 94.4594 182.488 95.0299 182.562 95.6533C182.637 96.2979 182.689 96.9952 182.509 97.608C182.287 98.3899 182.213 99.2457 181.661 99.9114C181.587 100.006 181.555 100.154 181.555 100.281C181.524 101.052 180.973 101.655 180.803 102.331C180.591 103.155 179.68 103.451 179.616 104.349C179.595 104.655 179.076 104.93 178.789 105.226C177.91 106.114 177.009 106.98 176.161 107.878C175.345 108.744 174.105 109.093 173.427 110.118C172.579 110.15 172.24 111.016 171.456 111.259C171.032 111.386 170.523 111.682 170.088 112.009C169.304 112.601 168.435 113.087 167.609 113.615C166.877 114.08 166.051 114.313 165.33 114.799C164.874 115.116 164.217 115.359 163.624 115.559C162.935 115.792 162.045 115.612 161.515 116.31C161.493 116.341 161.43 116.362 161.398 116.362C160.465 116.215 159.639 116.785 158.738 116.806C157.403 116.838 156.067 116.806 154.732 116.817C154.297 116.817 153.799 116.658 153.471 117.155C153.397 117.261 153.248 117.25 153.195 117.134C152.973 116.701 152.559 116.817 152.21 116.806C151.68 116.796 151.16 116.806 150.631 116.806C150.111 116.806 149.634 116.806 149.136 116.5C148.67 116.215 148.023 116.426 147.451 116.405C147.08 116.384 146.699 116.447 146.465 116.035C146.434 115.972 146.317 115.908 146.243 115.919C145.141 116.067 144.123 115.602 143.064 115.486C142.544 115.433 142.014 115.486 141.59 115.073C141.495 114.978 141.304 114.978 141.156 114.968C140.626 114.936 140.043 115.105 139.672 114.524C139.651 114.492 139.587 114.471 139.556 114.482C138.634 114.683 137.87 113.996 136.97 114.038C136.26 114.07 135.74 113.563 135.136 113.309C134.786 113.161 134.363 113.066 134.066 112.717C133.886 112.516 133.716 112.738 133.684 112.96C133.652 113.203 133.43 113.425 133.419 113.594C133.377 114.387 132.73 114.989 132.762 115.76C132.783 116.331 132.296 116.584 132.148 117.07C131.893 117.895 131.353 118.634 130.908 119.395C129.816 121.244 128.216 122.67 126.626 124.033C125.831 124.71 124.92 125.343 123.977 125.903C122.927 126.516 121.815 127.013 120.744 127.594C119.79 128.112 118.805 128.577 117.83 129.063C117.66 129.147 117.448 129.126 117.247 129.126C116.982 129.137 116.717 129.126 116.568 129.411C116.526 129.496 116.399 129.612 116.325 129.602C115.583 129.506 115.011 130.098 114.258 130.098C113.771 130.098 113.294 130.51 112.859 130.774C112.562 130.954 112.319 131.081 111.99 131.081C111.556 131.081 111.153 131.081 110.761 131.387C110.443 131.641 109.955 131.472 109.542 131.482C109.171 131.482 108.949 131.609 108.959 132H100.544L100.576 131.989ZM183.304 89.3666H185.604C186.346 89.3666 187.119 89.261 187.83 89.3983C188.571 89.5462 189.228 88.8278 189.96 89.2821C189.981 89.2927 190.066 89.2187 190.119 89.187C190.755 88.7855 191.412 88.384 192.185 88.4791C193.086 88.5847 193.733 88.0564 194.443 87.7183C194.75 87.581 195.153 87.6655 195.375 87.3168C195.672 86.8308 196.128 86.4821 196.541 86.1018C196.679 85.975 196.827 85.8693 196.817 85.6897C196.806 85.2037 197.135 84.9501 197.453 84.6859C197.548 84.6014 197.707 84.5591 197.717 84.4218C197.813 83.5343 198.671 83.101 198.936 82.2875C199.233 81.3894 199.72 80.5441 200.208 79.7411C200.579 79.1177 200.282 78.2619 200.992 77.8181C200.844 76.8883 201.501 76.1276 201.575 75.2506C201.596 74.9865 201.501 74.68 201.671 74.4899C202.031 74.0989 201.999 73.6446 201.978 73.2008C201.935 72.0491 201.967 70.8869 202.02 69.7352C202.094 68.1186 202.073 66.5126 202.084 64.896C202.084 64.1775 202.137 63.4062 201.893 62.7617C201.437 61.5889 200.409 60.7331 199.837 59.6025C199.424 58.7784 198.279 58.6516 197.94 57.7535C197.739 57.2146 197.156 57.3097 196.806 56.9822C194.973 55.2811 193.425 53.2524 191.21 51.9528C190.553 51.5724 189.886 51.3188 189.186 51.0547C188.179 50.6638 187.395 50.6109 186.388 51.0547C185.731 51.3505 184.83 51.1075 184.046 51.1075C183.77 51.1075 183.59 50.9913 183.569 50.6849C183.548 50.3468 184.205 49.3959 184.502 49.1845C185.095 48.783 185.625 48.3604 185.985 47.6525C186.388 46.86 186.144 45.9831 186.515 45.2857C186.939 44.5038 186.78 43.722 186.844 42.9401C186.844 42.8767 186.844 42.8133 186.844 42.7393C186.886 42.1265 186.696 41.482 187.183 40.9326C187.321 40.7741 187.268 40.4994 187.119 40.3198C186.791 39.9394 186.77 39.5907 187.119 39.2209C187.183 39.1469 187.225 39.0202 187.225 38.9251C187.225 38.5447 187.289 38.1749 187.013 37.8051C186.59 37.2451 187.374 36.6428 187.077 36.0194C187.045 35.956 187.247 35.6919 187.066 35.5228C186.844 35.3221 186.865 35.0579 186.854 34.7938C186.844 34.2549 186.865 33.7478 186.473 33.2512C186.261 32.9976 186.102 32.6278 185.943 32.3002C185.572 31.5712 185.286 30.7999 184.671 30.2082C184.364 29.9124 184.035 29.6271 183.728 29.3207C183.484 29.0671 183.612 28.7078 183.347 28.4437C182.096 27.2286 180.898 25.9501 179.627 24.7562C179.288 24.4287 179.054 23.9532 178.609 23.7736C177.655 23.4038 176.945 22.6536 176.066 22.1781C175.886 22.083 175.843 21.8294 175.589 21.7555C174.847 21.5336 174.137 21.2378 173.596 20.6672C173.427 20.4876 173.247 20.4136 173.014 20.4242C172.24 20.4664 171.699 19.6846 170.894 19.8114C170.852 19.8114 170.788 19.748 170.746 19.6951C170.364 19.188 169.813 19.4627 169.336 19.3993C168.753 19.3148 168.308 19.431 168.202 20.1389C168.17 20.3502 167.937 20.5298 167.789 20.7095C167.121 21.523 166.305 22.157 165.722 23.1079C164.938 24.3864 163.73 25.3902 162.076 25.5592C161.992 25.5592 161.875 25.5909 161.833 25.6437C161.493 26.1615 160.953 26.0135 160.465 26.0664C159.872 26.1192 159.225 25.8445 158.717 26.3516C158.028 25.8762 157.371 26.3939 156.693 26.3939C156.459 26.3939 156.311 26.0558 156.014 26.0558C155.643 26.0558 155.559 25.8022 155.548 25.4747C155.527 24.9041 155.686 24.2913 155.092 23.8581C155.018 23.8053 155.06 23.6045 155.018 23.4777C154.806 22.6958 154.679 21.9034 154.223 21.1744C153.969 20.7623 153.821 20.3713 153.322 20.2023C153.238 20.1706 153.195 19.9804 153.174 19.8642C153.132 19.6951 153.11 19.5366 152.962 19.4099C152.538 19.0083 152.157 18.5751 151.701 18.2159C150.917 17.582 150.376 16.6205 149.359 16.3246C148.511 16.0816 147.928 15.4371 147.186 15.0356C146.391 14.6129 145.522 14.3382 144.759 13.8416C144.303 13.5458 143.784 13.1443 143.085 13.1443C142.724 13.1443 142.152 12.9647 141.866 12.6794C141.506 12.3201 141.156 12.3201 140.743 12.3096C140.52 12.3096 140.234 12.3518 140.107 12.2356C139.64 11.813 139.089 11.9186 138.549 11.9081C137.892 11.8975 137.235 11.9398 136.578 11.8869C135.592 11.813 134.649 11.7496 134.066 12.7745C134.034 12.8273 133.949 12.8379 133.896 12.8696C132.826 13.7043 132.179 14.8771 131.438 15.9548C130.908 16.7156 130.823 17.7299 130.431 18.5963C130.039 19.4838 129.403 19.991 128.608 20.403C127.855 20.794 127.05 20.8891 126.223 20.8257C126.075 20.8151 125.874 20.8257 125.799 20.9525C125.545 21.4279 125.11 21.3328 124.697 21.3328C123.934 21.3328 123.16 21.2695 122.397 21.3328C121.571 21.4068 120.956 21.1532 120.384 20.5615C119.154 19.2831 117.904 18.0257 116.611 16.8212C116.176 16.4091 115.911 15.7752 115.318 15.6061C114.852 15.4793 114.428 15.2469 114.036 15.0461C113.315 14.6763 112.637 14.2643 111.789 14.222C111.672 14.222 111.513 14.1375 111.45 14.0529C111.248 13.7465 110.952 13.7465 110.634 13.7465C109.584 13.7465 108.525 13.7465 107.475 13.7465C107.168 13.7465 106.882 13.736 106.659 13.4401C106.458 13.176 106.045 13.1337 105.907 13.345C105.43 14.0424 104.635 14.2643 104.01 14.7397C103.84 14.8665 103.798 15.1518 103.544 15.1624C102.706 15.2152 102.155 15.8914 101.625 16.3246C100.735 17.0431 99.6435 17.5291 98.9228 18.4484C98.3187 19.2091 97.3861 19.6529 97.0258 20.6672C96.8986 21.0159 96.835 21.4702 96.4641 21.7977C95.8388 22.3366 95.3937 23.0023 94.5352 23.3509C93.6874 23.6996 92.8501 24.0483 91.9705 24.1011C90.2218 24.1856 88.4626 24.1011 86.7139 24.1434C86.1416 24.1539 85.7389 23.9215 85.3891 23.5728C83.8842 22.0513 82.4005 20.5087 81.1181 18.797C80.8214 18.4061 80.3763 18.1419 80.0689 17.7616C79.0833 16.5676 77.8646 15.6061 76.5716 14.8454C75.8827 14.4333 75.2574 13.7994 74.2824 13.6514C73.477 13.5352 72.7351 12.8379 71.7919 12.8167C71.7071 12.8167 71.5905 12.7111 71.5481 12.6266C71.3892 12.3413 71.1242 12.3413 70.8593 12.3413C69.5875 12.3413 68.3158 12.3413 67.044 12.3413C66.832 12.3413 66.6201 12.3307 66.4399 12.5103C65.6662 13.2922 64.8608 14.0424 64.0977 14.8454C63.4407 15.5427 63.0379 16.3563 63.0697 17.3812C63.1121 18.9344 63.1863 20.4876 63.0167 22.0196C62.9214 22.9177 63.3559 23.4989 63.748 24.1011C64.1507 24.7139 64.8078 25.1577 65.3377 25.686C66.0266 26.3622 65.91 27.2286 65.8676 28.0633C65.8676 28.2429 65.7404 28.3803 65.5391 28.4331C64.882 28.6127 64.2779 29.0037 63.5466 28.8769C63.3559 28.8452 63.1439 28.898 63.0167 29.0882C62.8154 29.3946 62.4868 29.4475 62.2007 29.3735C60.9713 29.0459 60.2295 30.0286 59.371 30.5146C58.3006 31.1169 57.8131 32.3953 57.0077 33.3251C56.9547 33.3885 56.9547 33.4942 56.9123 33.5682C56.5626 34.2127 56.3294 34.9312 55.7995 35.4594C55.5981 35.6602 55.524 35.8609 55.4286 36.104C55.153 36.8436 54.6761 37.4881 54.3582 38.2171C53.9766 39.1364 52.9804 39.7598 53.0546 40.9009C53.0546 41.0277 52.9486 41.1862 52.8639 41.3024C52.6413 41.5771 52.5777 41.8835 52.5777 42.2216C52.5777 44.7363 52.5247 47.2404 52.6201 49.7551C52.6201 49.977 52.7261 50.0932 52.8745 50.2411C53.2666 50.6426 53.7011 51.0336 53.966 51.4985C54.4747 52.3966 55.1848 52.9883 56.0433 53.5588C56.6791 53.9815 57.3998 53.9392 58.0569 54.2667C58.714 54.5943 59.6148 54.6788 60.399 54.9218C60.6004 54.9852 60.823 54.9324 61.0349 55.0486C61.7132 55.4078 62.4762 55.5452 63.1969 55.841C63.7692 56.0841 64.1931 56.7603 63.8752 57.2041C63.0909 58.2818 61.8722 58.8312 60.8336 59.5602C60.2507 59.9723 59.5512 60.3844 58.9259 60.7542C57.9933 61.3142 57.0819 62.0327 56.2446 62.804C55.365 63.6175 54.5383 64.4945 54.1462 65.5511C53.9025 66.2168 53.5315 66.9564 53.6057 67.7699C53.6587 68.3722 53.5633 68.9956 53.5421 69.5978C53.5209 70.2635 53.2454 70.8446 53.1182 71.4574C52.885 72.6091 53.4255 73.8665 52.6413 74.9548C52.5777 75.0393 52.6731 75.1661 52.7791 75.2189C53.0546 75.3668 53.0652 75.5253 52.8109 75.6944C52.5989 75.8317 52.5883 76.0536 52.5883 76.2755C52.5883 79.2656 52.6095 82.2558 52.6307 85.2459C52.6307 85.3516 52.6625 85.4995 52.7367 85.5418C53.1818 85.8165 53.0758 86.2602 53.097 86.6618C53.1288 87.2217 52.9274 87.8557 53.2136 88.3417C53.7541 89.2398 53.7647 90.3387 54.4853 91.1734C54.9305 91.6911 54.7821 92.6632 55.7465 92.8217C55.8101 92.8217 55.8419 92.9802 55.9055 93.0224C56.3506 93.2337 56.2658 93.9311 56.6155 94.0262C57.2726 94.2164 57.58 94.8081 58.1417 95.0722C58.3642 95.1779 58.396 95.4631 58.661 95.5477C59.4452 95.8013 60.1659 96.1816 60.7276 96.805C60.8548 96.9529 61.0137 96.9952 61.1939 96.9952C61.5542 96.9952 61.8404 97.1643 62.1689 97.2805C62.7518 97.4918 63.3347 97.7982 63.9282 97.8722C64.7442 97.9884 65.4543 98.5061 66.3127 98.3899C66.4399 98.3688 66.6201 98.485 66.7155 98.5906C66.938 98.8337 67.203 98.8442 67.4997 98.8442C68.5913 98.8442 69.6935 98.8442 70.7851 98.8442C70.9759 98.8442 71.209 98.8442 71.3574 98.7597C72.2264 98.242 73.0637 97.682 73.9327 97.1854C74.5156 96.8578 75.1939 96.879 75.7556 97.1537C76.1159 97.3333 76.4338 97.4178 76.8048 97.4178C77.7268 97.4178 78.6488 97.4178 79.5708 97.4178C79.963 97.4178 80.6094 97.9673 80.4823 98.168C80.1855 98.6329 79.857 99.1189 79.3165 99.3408C78.7442 99.5733 78.2461 99.922 77.7056 100.197C77.3453 100.387 77.3135 100.662 77.3029 101.01C77.2499 102.31 77.1863 103.609 77.2817 104.92C77.3453 105.786 77.7268 106.526 77.9493 107.329C78.1189 107.952 78.4792 108.755 78.9562 109.051C79.6662 109.505 80.016 110.129 80.5035 110.71C81.2029 111.555 81.9766 112.337 82.7608 113.119C84.0962 114.461 85.4633 115.781 86.8199 117.113C87.5299 117.81 88.24 118.486 88.9501 119.184C89.8085 120.029 90.6564 120.874 91.7056 121.54C92.4898 122.026 93.0727 122.808 93.8888 123.325C94.4504 123.674 95.0333 124.118 95.595 124.297C96.4429 124.572 96.9622 125.291 97.9054 125.47C98.7108 125.629 99.5163 126.115 100.396 126.326C101.095 126.495 101.763 126.823 102.516 126.78C102.579 126.78 102.643 126.812 102.696 126.854C103.512 127.488 104.423 127.763 105.451 127.679C105.642 127.668 105.928 127.657 106.013 127.774C106.617 128.577 107.719 127.826 108.344 128.524C108.355 128.545 108.44 128.524 108.461 128.503C108.97 127.985 109.616 128.26 110.21 128.186C110.422 128.165 110.687 128.249 110.846 128.069C111.619 127.203 112.87 127.414 113.771 126.802C114.099 126.58 114.608 126.516 115.032 126.337C116.134 125.872 117.204 125.343 118.264 124.794C118.625 124.604 119.091 124.509 119.356 124.276C120.267 123.484 121.2 122.67 121.868 121.698C122.408 120.916 123.023 120.166 123.478 119.289C123.955 118.37 124.432 117.409 124.591 116.447C124.803 115.073 125.269 113.721 125.195 112.305C125.185 112.052 125.121 111.766 125.397 111.587C125.662 111.428 125.672 111.301 125.397 111.111C125.11 110.91 125.079 110.541 125.301 110.372C125.778 110.023 125.587 109.547 125.704 109.135C125.916 108.427 125.132 107.783 125.609 107.075C125.63 107.054 125.45 106.895 125.365 106.8C125.121 106.568 125.089 106.272 125.291 106.029C126.244 104.92 127.527 104.191 128.608 103.24C128.799 103.071 129.053 103.145 129.286 103.261C130.367 103.81 131.533 103.62 132.603 103.419C133.26 103.292 133.811 103.462 134.14 103.757C134.914 104.423 135.656 105.12 136.461 105.765C137.309 106.452 138.21 107.117 139.11 107.667C139.799 108.079 140.425 108.628 141.209 108.966C141.961 109.294 142.767 109.632 143.466 110.15C144.314 110.773 145.448 110.741 146.423 111.027C147.356 111.291 148.394 111.523 149.433 111.629C150.408 111.735 151.362 112.157 152.39 112.115C152.464 112.115 152.559 112.178 152.602 112.252C152.814 112.59 153.142 112.633 153.471 112.569C154.859 112.337 156.12 113.224 157.509 113.013C157.657 112.992 157.784 113.108 157.89 113.224C158.325 113.679 158.855 113.594 159.31 113.32C159.607 113.14 159.893 113.003 160.222 113.013C161.324 113.055 162.087 112.252 163.041 111.904C163.74 111.65 164.334 111.101 164.98 110.71C165.637 110.308 166.464 110.15 166.909 109.41C166.973 109.315 167.121 109.22 167.227 109.22C167.757 109.22 168.011 108.84 168.319 108.491C168.573 108.206 168.88 107.973 169.272 107.846C169.76 107.698 170.131 107.371 170.258 106.853C170.3 106.674 170.353 106.526 170.491 106.399C171.615 105.3 172.409 104.022 172.685 102.458C172.685 102.394 172.749 102.342 172.78 102.289C173.257 101.507 173.745 100.714 173.543 99.7635C173.416 99.1612 174.19 98.654 173.671 98.0412C173.671 98.0412 173.713 97.9673 173.734 97.9356C174.084 97.5763 173.734 97.2065 173.755 96.9212C173.83 96.2873 173.713 95.6639 173.777 95.0722C173.83 94.6179 173.872 94.0368 173.798 93.7409C173.607 93.0647 173.946 92.6632 174.232 92.2828C174.741 91.6277 175.334 91.0149 175.981 90.4866C176.702 89.9055 177.443 89.3349 178.482 89.3666C180.082 89.4089 181.683 89.3772 183.283 89.3666H183.304Z" fill="#C4D893"/>
<g clip-path="url(#clip0_1025_1660)">
<path d="M139.672 55.4666C139.612 55.8797 139.3 56.0472 139.185 56.3562C138.999 56.8438 138.579 57.1937 138.315 57.6255C138.114 57.9568 137.854 58.2025 137.601 58.4705C137.471 58.6082 137.4 58.7943 137.274 58.9134C136.821 59.3452 136.334 59.7323 135.772 60.0413C135.445 60.2162 135.062 60.0822 134.783 60.3465C134.746 60.38 134.635 60.38 134.583 60.3502C134.062 60.0599 133.497 60.246 132.954 60.1939C132.523 60.153 132.11 60.0413 131.709 59.8738C131.69 59.8663 131.672 59.8515 131.653 59.8515C131.263 59.8663 130.965 59.6281 130.623 59.5053C129.991 59.2782 129.608 58.8055 129.218 58.3141C128.98 58.0089 128.865 57.6478 128.698 57.3091C128.653 57.2198 128.672 57.0969 128.657 56.989C128.627 56.7694 128.731 56.5274 128.545 56.3339C128.527 56.3153 128.523 56.2483 128.542 56.2259C128.731 55.984 128.571 55.7048 128.616 55.4703C128.72 54.9343 128.493 54.3648 128.798 53.8585C128.817 53.825 128.835 53.7804 128.828 53.7469C128.757 53.3783 128.984 53.0657 129.047 52.7269C129.088 52.4924 129.155 52.2095 129.3 51.9676C129.415 51.7815 129.43 51.5284 129.534 51.3162C129.761 50.8546 129.768 50.3037 130.051 49.8719C130.445 49.2615 130.642 48.5505 131.162 47.9921C131.475 47.6609 131.757 47.2775 132.066 46.9276C132.293 46.667 132.601 46.4921 132.884 46.3618C133.144 46.2427 133.471 46.1757 133.754 46.0826C134.267 45.9076 134.776 45.9523 135.289 45.9225C135.352 45.9225 135.4 45.8928 135.445 45.8481C135.568 45.7327 135.69 45.7401 135.813 45.8555C135.847 45.8853 135.925 45.9263 135.939 45.9151C136.166 45.7104 136.382 45.9151 136.601 45.9263C136.966 45.9449 136.992 45.9225 136.992 45.554C136.992 44.0055 136.992 42.4533 136.992 40.9049C136.992 40.6555 136.925 40.38 137.01 40.1641C137.207 39.6653 137.058 39.1293 137.203 38.6566C137.315 38.2955 137.248 37.9196 137.371 37.6032C137.557 37.1267 137.646 36.6316 137.798 36.1515C137.977 35.5931 138.282 35.1018 138.49 34.5732C138.616 34.2568 138.839 34.0409 138.973 33.7692C139.27 33.1699 139.865 32.9093 140.304 32.4812C140.453 32.3361 140.731 32.284 140.954 32.2021C141.824 31.882 142.717 32.1239 143.59 32.0457C143.769 32.0308 143.899 32.1165 144.044 32.2132C144.404 32.4552 144.735 32.7418 145.14 32.9168C145.75 33.1773 146.196 33.6277 146.49 34.2047C146.594 34.4057 146.639 34.6588 146.642 34.9231C146.646 35.1948 146.702 35.4852 146.706 35.7681C146.706 36.1738 146.761 36.5944 146.691 36.989C146.542 37.8079 146.572 38.6529 146.263 39.4494C146.144 39.7547 146.174 40.112 146.048 40.4284C145.839 40.957 145.817 41.5339 145.575 42.0699C145.401 42.4608 145.174 42.8665 145.152 43.3244C145.144 43.4956 145.014 43.6147 144.958 43.7748C144.706 44.5341 144.412 45.2786 144.118 46.023C143.891 46.6037 143.65 47.1844 143.408 47.7576C143.211 48.2267 142.962 48.6771 142.81 49.1572C142.605 49.8124 142.319 50.4303 142.021 51.0407C141.854 51.3906 141.731 51.7554 141.553 52.0979C141.404 52.3845 141.676 52.5929 141.757 52.8349C141.858 53.1252 141.966 53.4118 142.055 53.7096C142.129 53.9479 142.192 54.201 142.289 54.4243C142.505 54.9157 142.717 55.407 142.91 55.9095C143.059 56.3078 143.367 56.6354 143.486 57.0299C143.631 57.5064 144.007 57.8451 144.148 58.3067C144.211 58.5151 144.423 58.597 144.505 58.8055C144.627 59.1182 144.813 59.3973 145.059 59.6542C145.371 59.9817 145.765 60.1269 146.152 60.2981C146.341 60.3837 146.542 60.4842 146.505 60.7076C146.468 60.9421 146.256 61.024 146.025 61.0798C145.46 61.2213 144.873 61.1431 144.341 61.0463C143.587 60.9086 142.75 60.7485 142.285 60.0078C141.969 59.5053 141.612 59.0251 141.274 58.5449C140.925 58.0499 140.668 57.5064 140.36 57.0002C140.111 56.5907 139.917 56.1217 139.75 55.6564C139.739 55.6192 139.717 55.5857 139.661 55.474L139.672 55.4666ZM132.003 56.252C131.846 57.1342 132.159 57.9084 132.56 58.6603C132.661 58.8502 132.869 59.0363 133.062 58.8985C133.322 58.7161 133.646 58.5933 133.817 58.3141C133.954 58.0908 134.125 57.9047 134.311 57.7297C134.943 57.1304 135.408 56.4046 135.85 55.6676C136.166 55.1427 136.534 54.6477 136.809 54.1005C136.98 53.7617 137.181 53.4453 137.382 53.1327C137.508 52.9391 137.453 52.6934 137.62 52.5408C137.977 52.2244 137.932 51.7256 138.166 51.3571C138.189 51.3236 138.177 51.2455 138.155 51.2157C137.891 50.8993 138.014 50.4824 137.865 50.1213C137.743 49.8235 137.65 49.4811 137.62 49.1312C137.571 48.5654 137.319 48.0294 137.341 47.445C137.345 47.3296 137.326 47.2365 137.181 47.1993C136.378 47.0057 135.144 47.5455 134.768 48.316C134.583 48.7031 134.278 48.9935 134.058 49.3508C133.794 49.7826 133.579 50.233 133.363 50.6834C133.2 51.0296 133.125 51.413 132.969 51.7517C132.802 52.109 132.683 52.485 132.568 52.8498C132.423 53.3039 132.278 53.7804 132.214 54.2456C132.14 54.7928 131.891 55.3214 131.999 55.8946C132.021 56.01 131.999 56.1329 131.999 56.252H132.003ZM140.393 46.2464C140.501 45.9672 140.56 45.6955 140.676 45.4833C140.969 44.9436 141.122 44.3592 141.334 43.7971C141.575 43.1531 141.869 42.5278 142.044 41.854C142.14 41.4855 142.352 41.1431 142.363 40.7448C142.363 40.689 142.412 40.6406 142.427 40.5847C142.516 40.2609 142.713 39.9706 142.705 39.6207C142.698 39.2075 142.973 38.839 142.906 38.4183C142.906 38.4035 142.921 38.3811 142.929 38.3662C143.096 37.9866 143.185 37.5808 143.23 37.1714C143.274 36.7694 143.263 36.3599 143.259 35.9505C143.259 35.6638 143.434 35.3772 143.259 35.0869C143.233 35.0422 143.23 34.9566 143.252 34.9119C143.404 34.6216 143.218 34.3387 143.241 34.0521C143.252 33.892 143.189 33.8548 143.021 33.9255C142.542 34.134 142.319 34.5881 142.096 34.9864C141.865 35.3995 141.557 35.7792 141.412 36.2482C141.3 36.6019 141.073 36.9294 141.025 37.2868C140.977 37.6329 140.876 37.9605 140.802 38.2955C140.731 38.6119 140.731 38.9506 140.62 39.2484C140.393 39.8514 140.401 40.4991 140.367 41.1059C140.278 42.6692 140.334 44.2438 140.334 45.8109C140.334 45.9449 140.304 46.0863 140.397 46.2464H140.393Z" fill="#00AD4B"/>
<path d="M81.31 54.6923C81.5516 54.2754 81.6445 53.8213 81.7449 53.3709C81.7784 53.2145 81.8936 53.1066 81.9457 52.954C82.0572 52.6041 82.1464 52.2505 82.3658 51.9303C82.507 51.7256 82.4401 51.4092 82.5777 51.1673C82.6074 51.1152 82.6037 51.037 82.6409 51.0035C82.9866 50.7355 82.9383 50.2925 83.1056 49.9464C83.3398 49.4625 83.4736 48.9339 83.7636 48.4723C83.7673 48.4649 83.7822 48.4574 83.7784 48.45C83.771 47.9363 84.1576 47.5864 84.3138 47.1472C84.4773 46.6819 84.7413 46.2985 85.0759 45.9598C85.3361 45.6992 85.7079 45.6285 86.0573 45.5838C86.4179 45.5391 86.7897 45.5838 87.1577 45.5689C87.4105 45.554 87.6001 45.7104 87.7637 45.8257C88.0462 46.023 88.3585 46.1459 88.6336 46.3283C88.9719 46.5516 89.2879 46.8345 89.3994 47.2961C89.4589 47.5455 89.5407 47.806 89.6596 48.0517C89.7674 48.275 89.7897 48.5319 89.8976 48.7627C90.0277 49.0418 90.0648 49.3545 90.2098 49.6262C90.2247 49.6523 90.247 49.6821 90.2396 49.7081C90.1652 50.0878 90.3697 50.4265 90.4701 50.7541C90.6411 51.3236 90.6782 51.9229 90.9013 52.485C91.0128 52.7641 91.0909 53.0843 91.0983 53.4044C91.1095 53.8436 91.2656 54.2494 91.418 54.6551C91.4366 54.6998 91.4589 54.7556 91.4478 54.7965C91.3734 55.1315 91.6746 55.3809 91.6485 55.7011C91.6448 55.7643 91.7006 55.8053 91.7675 55.809C91.8641 55.8127 91.9348 55.7569 91.9348 55.675C91.9273 55.2358 92.1541 54.8635 92.2991 54.4727C92.5222 53.8585 92.5445 53.1773 92.9422 52.6227C92.9608 52.6004 92.9757 52.5669 92.9757 52.5408C92.9534 52.2765 93.0463 52.0457 93.1653 51.8187C93.4627 51.2566 93.5185 50.6126 93.7824 50.032C93.8902 49.7937 93.9274 49.4699 94.0389 49.2354C94.1802 48.9302 94.1653 48.5952 94.3103 48.2899C94.4144 48.0703 94.5111 47.8135 94.5482 47.5492C94.5817 47.311 94.7007 47.0913 94.775 46.8606C94.946 46.3208 95.2174 45.8183 95.3698 45.2711C95.4665 44.9175 95.6561 44.7649 96.0167 44.7351C96.3587 44.7053 96.7119 44.75 97.0353 44.5899C97.0836 44.5676 97.1357 44.5825 97.1691 44.6234C97.5669 45.085 98.1803 45.2078 98.6376 45.5726C98.8681 45.755 99.013 46.4734 98.8718 46.7191C98.8495 46.7563 98.7974 46.8084 98.764 46.8047C98.4666 46.7824 98.448 46.9983 98.3587 47.2067C98.1654 47.6608 98.0167 48.1261 97.8494 48.5914C97.7082 48.986 97.6189 49.388 97.5186 49.79C97.4851 49.9203 97.381 49.9947 97.3401 50.125C97.0799 50.9142 96.7453 51.6847 96.5409 52.4887C96.4293 52.9354 96.2769 53.3746 96.1171 53.7915C95.9312 54.268 95.8382 54.7705 95.6635 55.2469C95.5743 55.4963 95.4851 55.7755 95.4181 56.0435C95.288 56.5609 95.0204 57.0448 94.8642 57.5585C94.7118 58.061 94.459 58.5114 94.2434 58.9804C94.1281 59.2373 93.7936 59.4755 93.5073 59.4792C93.169 59.4792 92.8307 59.4532 92.4961 59.4867C92.1021 59.5239 91.7898 59.2968 91.4329 59.2261C91.1504 59.1703 90.879 59.066 90.6002 58.9804C90.3214 58.8985 90.0909 58.6975 89.9124 58.5077C89.5667 58.1317 89.4366 57.6032 89.154 57.1863C88.7897 56.6502 88.7302 56.0137 88.4514 55.4554C88.1466 54.8486 88.0871 54.1712 87.9124 53.5347C87.786 53.0768 87.6298 52.6004 87.5964 52.0941C87.5778 51.7703 87.522 51.3869 87.3361 51.0705C87.3101 51.0295 87.2804 50.9774 87.2878 50.9328C87.3436 50.5754 87.0202 50.2963 87.0945 49.9352C87.1094 49.8533 87.0648 49.7751 86.9644 49.7714C86.8863 49.7677 86.8268 49.8049 86.8045 49.8794C86.7042 50.2255 86.4885 50.5159 86.4253 50.8881C86.3733 51.2157 86.1763 51.5172 86.0276 51.8261C85.9086 52.0792 85.7153 52.2989 85.7376 52.6041C85.745 52.7344 85.6521 52.82 85.6 52.9242C85.3881 53.3411 85.2729 53.799 85.1168 54.2345C84.9792 54.6253 84.8751 55.0459 84.719 55.4331C84.5405 55.8909 84.3844 56.3599 84.2394 56.8215C84.1056 57.2495 83.7487 57.6143 83.8305 58.1131C83.8491 58.236 83.6966 58.2843 83.6781 58.3923C83.6372 58.6119 83.429 58.7757 83.4624 59.0214C83.4624 59.04 83.4513 59.0586 83.4401 59.0772C83.2877 59.3489 82.5293 59.5499 82.2654 59.3787C82.1947 59.3303 82.1241 59.3117 82.0423 59.3117C81.3992 59.334 80.8378 59.0474 80.243 58.8613C79.875 58.7459 79.5999 58.5524 79.388 58.2732C79.2058 58.0312 79.0906 57.7372 78.9567 57.458C78.7634 57.0634 78.5999 56.6502 78.388 56.2668C78.2801 56.0733 78.2727 55.876 78.2281 55.675C78.15 55.3065 78.1203 54.9343 77.979 54.5695C77.9047 54.3722 77.782 54.1414 77.8601 53.866C77.9084 53.7096 77.7485 53.4937 77.7485 53.2778C77.756 51.5581 77.7485 49.8421 77.7485 48.1224C77.7485 46.6707 77.7485 45.2227 77.7485 43.771C77.7485 43.41 77.9418 43.1866 78.3136 43.1457C78.6296 43.1085 78.9642 43.1978 79.2542 42.9782C79.3434 42.9112 79.4549 43.0005 79.5293 43.0936C79.849 43.4881 80.3248 43.6333 80.7523 43.8529C81.1315 44.0502 81.3286 44.3778 81.3843 44.7835C81.4103 44.9696 81.3918 45.1595 81.3918 45.3493C81.3918 45.4386 81.3806 45.5429 81.2765 45.5689C81.0386 45.6285 81.0572 45.7997 81.0609 45.9895C81.0758 46.8606 81.0274 47.7316 81.0572 48.6026C81.0943 49.6448 81.046 50.6834 81.0795 51.7256C81.1018 52.3882 81.1055 53.0545 81.0758 53.7208C81.0609 54.0744 81.217 54.3685 81.3062 54.6923H81.31Z" fill="#00AD4B"/>
<path d="M119.85 60.0077C119.218 59.9705 118.616 59.844 118.055 59.5238C117.865 59.4159 117.609 59.4382 117.426 59.2558C117.218 59.0437 117.174 58.8575 117.319 58.597C117.341 58.556 117.393 58.5077 117.385 58.4704C117.3 57.9791 117.564 57.5398 117.59 57.0597C117.616 56.5497 117.783 56.0658 117.898 55.5707C117.977 55.2357 118.207 54.9268 118.118 54.5545C118.04 54.2233 118.345 53.9813 118.319 53.65C118.289 53.2852 118.371 52.8907 118.471 52.5706C118.627 52.0755 118.553 51.5618 118.728 51.0705C118.85 50.728 118.947 50.3595 118.962 49.9761C118.98 49.3731 119.233 48.7924 119.148 48.1782C119.389 47.8804 119.222 47.4896 119.341 47.1918C119.486 46.8233 119.374 46.4138 119.527 46.1049C119.687 45.7773 119.549 45.3865 119.82 45.111C119.839 45.0924 119.839 45.0515 119.835 45.0254C119.731 44.4559 120.04 43.9348 120.032 43.3764C120.029 43.1456 120.196 42.9521 120.241 42.7139C120.285 42.4719 120.348 42.2337 120.334 41.988C120.319 41.7237 120.456 41.5004 120.549 41.2882C120.694 40.9606 120.716 40.6033 120.809 40.272C120.899 39.9445 120.962 39.5834 121.07 39.267C121.203 38.8687 121.122 38.422 121.363 38.061C121.378 38.0386 121.393 38.0014 121.386 37.9753C121.3 37.5957 121.523 37.2644 121.612 36.9294C121.75 36.4269 121.787 35.8871 122.07 35.4181C122.181 35.232 122.185 34.9603 122.185 34.763C122.185 34.3573 122.497 34.0409 122.438 33.6277C122.408 33.4378 122.571 33.2629 122.646 33.0879C122.802 32.7194 122.705 32.2616 123.103 31.9712C123.493 31.6884 124.378 31.6511 124.78 31.7851C125.233 31.9377 125.546 32.3063 126.003 32.4254C126.159 32.4663 126.285 32.6599 126.408 32.8013C126.486 32.8907 126.367 32.939 126.319 32.9874C126.163 33.1326 126.096 33.2964 126.111 33.516C126.133 33.7877 125.947 34.0074 125.873 34.2568C125.824 34.4131 125.791 34.5657 125.75 34.7258C125.664 35.0608 125.56 35.3958 125.516 35.7382C125.441 36.2854 125.215 36.7916 125.062 37.3202C124.958 37.6813 124.992 38.0758 124.772 38.4146C124.653 38.597 124.676 38.865 124.624 39.0883C124.549 39.4159 124.471 39.7546 124.367 40.0673C124.226 40.4916 124.256 40.9383 124.085 41.3627C123.98 41.6158 123.992 41.9396 123.85 42.189C123.601 42.632 123.72 43.1382 123.568 43.6035C123.467 43.905 123.415 44.2698 123.326 44.5787C123.166 45.1259 123.229 45.688 123.062 46.2314C122.936 46.6483 122.891 47.1397 122.791 47.5678C122.679 48.0442 122.783 48.5579 122.519 49.0157C122.419 49.1907 122.538 49.481 122.467 49.6858C122.296 50.1808 122.408 50.7317 122.155 51.2082C122.151 51.2156 122.144 51.2268 122.148 51.238C122.218 51.6698 121.951 52.0494 121.951 52.4701C121.951 52.712 121.999 52.9577 121.809 53.1773C121.742 53.2555 121.783 53.4267 121.776 53.5532C121.75 54.0558 121.72 54.5471 121.505 55.0236C121.378 55.3027 121.363 55.6452 121.334 55.9467C121.293 56.3524 121.233 56.7656 121.084 57.1118C120.895 57.5585 121.04 58.0312 120.835 58.4518C120.824 58.4779 120.802 58.5188 120.813 58.5337C121.133 58.9394 120.776 59.3005 120.735 59.6802C120.716 59.8626 120.553 60.004 120.334 60.0077C120.174 60.0077 120.018 60.0077 119.858 60.0077H119.85Z" fill="#00AD4B"/>
<path d="M104.865 58.2805C104.686 58.2805 104.5 58.247 104.329 58.2879C104.036 58.3549 103.812 58.1614 103.582 58.0721C103.255 57.9492 102.85 57.9492 102.619 57.5882C102.496 57.3983 102.474 57.2234 102.582 57.0708C102.679 56.933 102.697 56.8027 102.693 56.6576C102.66 55.8498 102.909 55.0681 102.909 54.2567C102.909 53.6164 103.143 52.9762 103.259 52.336C103.359 51.7776 103.437 51.2118 103.575 50.6684C103.656 50.3445 103.619 49.9611 103.865 49.6782C103.872 49.6708 103.876 49.6596 103.876 49.6522C103.82 49.2576 104.099 48.93 104.076 48.5392C104.05 48.0627 104.314 47.6198 104.273 47.1247C104.255 46.9051 104.593 46.8232 104.742 46.812C105.125 46.7823 105.485 46.5999 105.876 46.6483C106.006 46.6631 106.125 46.6818 106.233 46.7711C106.526 47.0168 106.887 47.1433 107.229 47.3034C107.378 47.3741 107.497 47.4932 107.671 47.5304C107.779 47.5528 107.764 47.6942 107.764 47.791C107.764 48.1 107.764 48.4052 107.764 48.7141C107.764 48.9003 107.761 49.0752 107.523 49.1236C107.485 49.131 107.426 49.1943 107.43 49.2241C107.485 49.5814 107.192 49.8643 107.229 50.218C107.274 50.6498 107.084 51.0294 106.928 51.4165C106.92 51.4352 106.902 51.4538 106.906 51.4687C106.946 51.8856 106.645 52.2355 106.694 52.6672C106.746 53.1176 106.508 53.5308 106.433 53.9701C106.396 54.186 106.37 54.4018 106.381 54.6177C106.389 54.7778 106.4 54.949 106.34 55.0868C106.177 55.4664 106.27 55.8722 106.203 56.2556C106.11 56.7879 106.214 57.335 106.032 57.8599C105.924 58.1726 105.831 58.2842 105.493 58.2917C105.474 58.2917 105.452 58.2917 105.433 58.2917C105.244 58.2917 105.058 58.2917 104.868 58.2917V58.2842L104.865 58.2805Z" fill="#00AD4B"/>
<path d="M107.705 38.742C107.705 38.5149 107.686 38.2841 107.709 38.0571C107.753 37.603 107.895 37.1675 107.921 36.7022C107.932 36.5012 108.058 36.2704 108.066 36.0359C108.069 35.8795 108.203 35.7939 108.303 35.7083C108.571 35.4775 108.869 35.3137 109.251 35.3212C109.504 35.3286 109.764 35.3845 110.006 35.243C110.103 35.1835 110.192 35.2691 110.237 35.3323C110.538 35.7604 111.01 35.8833 111.46 36.0582C111.698 36.1513 111.779 36.423 111.597 36.6165C111.333 36.8957 111.278 37.2828 111.251 37.5881C111.188 38.407 110.958 39.211 111.032 40.0522C111.084 40.659 110.646 40.8935 110.084 40.6218C109.891 40.5287 109.675 40.5845 109.467 40.5808C109.292 40.5808 109.14 40.5548 109.01 40.4208C108.935 40.3463 108.846 40.1825 108.716 40.3686C108.538 40.1751 108.244 40.2905 108.054 40.123C107.854 39.9443 107.66 39.7694 107.697 39.453C107.724 39.2184 107.701 38.9765 107.701 38.7383L107.705 38.742Z" fill="#00AD4B"/>
</g>
<mask id="path-7-outside-1_1025_1660" maskUnits="userSpaceOnUse" x="43" y="53" width="158" height="50" fill="black">
<rect fill="white" x="43" y="53" width="158" height="50"/>
<path d="M72.4889 85.834L73.2289 93.382C68.8629 95.01 58.9469 94.936 55.3949 94.936C52.5829 94.936 50.6589 95.084 48.3649 95.084C47.9949 89.682 47.6249 86.5 47.6249 82.06L47.5509 67.408C47.5509 65.114 49.5489 63.634 51.2509 63.264C55.9129 62.82 64.1269 62.154 70.5649 61.266L71.7489 69.11C59.6869 70.442 57.6149 70.738 55.8389 70.96L55.9129 74.216C67.0869 74.068 70.7129 73.846 72.0449 73.846L72.4889 81.912C68.4929 82.578 59.6129 82.356 55.9129 82.652V86.426C58.0589 86.944 69.7509 86.278 72.4889 85.834ZM110.205 63.264L118.419 63.708C117.901 68.222 118.123 75.77 117.975 80.802C117.827 84.206 118.271 88.35 117.679 91.162C117.161 93.678 115.311 94.788 113.313 93.382C105.691 88.202 101.399 83.91 93.7026 79.174C93.8506 82.06 93.9246 89.016 93.9246 91.68H85.9326C85.9326 87.092 85.4886 77.768 84.8966 69.258C84.9706 67.852 85.4146 66.076 87.0426 66.076C87.6346 66.076 88.3746 66.298 89.2626 66.816L93.1106 69.184C98.0686 72.44 105.099 76.288 109.761 81.912C109.761 81.098 109.835 80.728 109.835 78.952C109.835 75.03 109.835 67.778 110.205 63.264ZM139.954 95.602C140.546 88.646 140.546 79.248 140.25 72.366C135.514 72.366 130.63 73.106 128.41 73.106L128.04 65.262C131.37 64.004 138.77 64.078 143.654 64.078C151.424 64.078 158.676 64.078 161.414 64.744L160.748 72.81C157.492 72.588 151.868 72.366 148.464 72.366C148.908 79.248 148.464 89.534 148.094 95.898L139.954 95.602ZM172.092 58.75C176.754 57.788 181.49 57.492 186.004 58.602C193.33 60.674 196.438 66.742 196.438 72.588C196.438 80.062 187.632 85.464 179.64 85.612C179.566 89.756 179.418 97.822 179.27 98.784L171.056 98.488C171.056 94.418 171.352 87.758 171.352 83.688C171.352 75.844 170.908 67.778 170.242 61.562C170.094 59.786 170.982 59.046 172.092 58.75ZM188.52 71.478C188.52 67.408 184.228 65.484 178.974 66.224C179.122 67.778 179.27 74.512 179.64 77.25C184.376 77.546 188.52 74.29 188.52 71.478Z"/>
</mask>
<path d="M72.4889 85.834L73.2289 93.382C68.8629 95.01 58.9469 94.936 55.3949 94.936C52.5829 94.936 50.6589 95.084 48.3649 95.084C47.9949 89.682 47.6249 86.5 47.6249 82.06L47.5509 67.408C47.5509 65.114 49.5489 63.634 51.2509 63.264C55.9129 62.82 64.1269 62.154 70.5649 61.266L71.7489 69.11C59.6869 70.442 57.6149 70.738 55.8389 70.96L55.9129 74.216C67.0869 74.068 70.7129 73.846 72.0449 73.846L72.4889 81.912C68.4929 82.578 59.6129 82.356 55.9129 82.652V86.426C58.0589 86.944 69.7509 86.278 72.4889 85.834ZM110.205 63.264L118.419 63.708C117.901 68.222 118.123 75.77 117.975 80.802C117.827 84.206 118.271 88.35 117.679 91.162C117.161 93.678 115.311 94.788 113.313 93.382C105.691 88.202 101.399 83.91 93.7026 79.174C93.8506 82.06 93.9246 89.016 93.9246 91.68H85.9326C85.9326 87.092 85.4886 77.768 84.8966 69.258C84.9706 67.852 85.4146 66.076 87.0426 66.076C87.6346 66.076 88.3746 66.298 89.2626 66.816L93.1106 69.184C98.0686 72.44 105.099 76.288 109.761 81.912C109.761 81.098 109.835 80.728 109.835 78.952C109.835 75.03 109.835 67.778 110.205 63.264ZM139.954 95.602C140.546 88.646 140.546 79.248 140.25 72.366C135.514 72.366 130.63 73.106 128.41 73.106L128.04 65.262C131.37 64.004 138.77 64.078 143.654 64.078C151.424 64.078 158.676 64.078 161.414 64.744L160.748 72.81C157.492 72.588 151.868 72.366 148.464 72.366C148.908 79.248 148.464 89.534 148.094 95.898L139.954 95.602ZM172.092 58.75C176.754 57.788 181.49 57.492 186.004 58.602C193.33 60.674 196.438 66.742 196.438 72.588C196.438 80.062 187.632 85.464 179.64 85.612C179.566 89.756 179.418 97.822 179.27 98.784L171.056 98.488C171.056 94.418 171.352 87.758 171.352 83.688C171.352 75.844 170.908 67.778 170.242 61.562C170.094 59.786 170.982 59.046 172.092 58.75ZM188.52 71.478C188.52 67.408 184.228 65.484 178.974 66.224C179.122 67.778 179.27 74.512 179.64 77.25C184.376 77.546 188.52 74.29 188.52 71.478Z" fill="#EDF798"/>
<path d="M72.4889 85.834L76.4698 85.4437L76.0541 81.2036L71.8486 81.8856L72.4889 85.834ZM73.2289 93.382L74.6264 97.1299L77.5101 96.0546L77.2098 92.9917L73.2289 93.382ZM48.3649 95.084L44.3742 95.3573L44.6295 99.084H48.3649V95.084ZM47.6249 82.06H51.6249V82.0499L51.6248 82.0398L47.6249 82.06ZM47.5509 67.408H43.5509V67.4181L43.5509 67.4282L47.5509 67.408ZM51.2509 63.264L50.8716 59.282L50.6342 59.3046L50.4012 59.3553L51.2509 63.264ZM70.5649 61.266L74.5201 60.669L73.9306 56.7639L70.0183 57.3035L70.5649 61.266ZM71.7489 69.11L72.1879 73.0858L76.3253 72.6289L75.7041 68.513L71.7489 69.11ZM55.8389 70.96L55.3427 66.9909L51.7578 67.439L51.8399 71.0509L55.8389 70.96ZM55.9129 74.216L51.9139 74.3069L52.0039 78.2681L55.9659 78.2156L55.9129 74.216ZM72.0449 73.846L76.0388 73.6261L75.8307 69.846H72.0449V73.846ZM72.4889 81.912L73.1465 85.8576L76.6797 85.2687L76.4828 81.6922L72.4889 81.912ZM55.9129 82.652L55.5939 78.6647L51.9129 78.9592V82.652H55.9129ZM55.9129 86.426H51.9129V89.5754L54.9743 90.3143L55.9129 86.426ZM68.508 86.2243L69.248 93.7723L77.2098 92.9917L76.4698 85.4437L68.508 86.2243ZM71.8313 89.6341C70.2931 90.2076 67.2982 90.5883 63.7936 90.7752C60.4515 90.9534 57.1965 90.936 55.3949 90.936V98.936C57.1453 98.936 60.6243 98.9556 64.2197 98.7638C67.6526 98.5807 71.7986 98.1844 74.6264 97.1299L71.8313 89.6341ZM55.3949 90.936C53.9181 90.936 52.6778 90.975 51.5535 91.0122C50.4185 91.0497 49.4333 91.084 48.3649 91.084V99.084C49.5905 99.084 50.7142 99.0443 51.8178 99.0078C52.9319 98.971 54.0597 98.936 55.3949 98.936V90.936ZM52.3555 94.8107C51.9731 89.2267 51.6249 86.3176 51.6249 82.06H43.6249C43.6249 86.6824 44.0167 90.1373 44.3742 95.3573L52.3555 94.8107ZM51.6248 82.0398L51.5508 67.3878L43.5509 67.4282L43.6249 82.0802L51.6248 82.0398ZM51.5509 67.408C51.5509 67.431 51.5427 67.4748 51.5265 67.5101C51.5149 67.5355 51.5183 67.5149 51.5725 67.4614C51.6287 67.4059 51.7165 67.3385 51.8311 67.2776C51.9474 67.2158 52.0471 67.1843 52.1006 67.1727L50.4012 59.3553C47.6724 59.9485 43.5509 62.5108 43.5509 67.408H51.5509ZM51.6301 67.246C56.1962 66.8111 64.5624 66.1318 71.1114 65.2285L70.0183 57.3035C63.6913 58.1762 55.6296 58.8289 50.8716 59.282L51.6301 67.246ZM66.6097 61.863L67.7937 69.707L75.7041 68.513L74.5201 60.669L66.6097 61.863ZM71.3098 65.1342C59.2212 66.4691 57.1283 66.7677 55.3427 66.9909L56.335 74.9291C58.1015 74.7083 60.1525 74.4149 72.1879 73.0858L71.3098 65.1342ZM51.8399 71.0509L51.9139 74.3069L59.9118 74.1251L59.8378 70.8691L51.8399 71.0509ZM55.9659 78.2156C61.5748 78.1414 65.2971 78.0484 67.7894 77.9737C70.3724 77.8963 71.4572 77.846 72.0449 77.846V69.846C71.3006 69.846 69.9063 69.9067 67.5498 69.9773C65.1027 70.0506 61.4249 70.1426 55.8599 70.2164L55.9659 78.2156ZM68.0509 74.0658L68.4949 82.1319L76.4828 81.6922L76.0388 73.6261L68.0509 74.0658ZM71.8313 77.9664C70.1753 78.2424 67.2656 78.3553 64.0085 78.4216C60.9672 78.4835 57.6018 78.5041 55.5939 78.6647L56.2319 86.6393C57.924 86.5039 60.8486 86.4875 64.1713 86.4199C67.2781 86.3567 70.8065 86.2476 73.1465 85.8576L71.8313 77.9664ZM51.9129 82.652V86.426H59.9129V82.652H51.9129ZM54.9743 90.3143C56.0538 90.5749 57.6819 90.6112 59.0136 90.6145C60.5391 90.6181 62.3548 90.567 64.1567 90.4868C67.678 90.3301 71.5016 90.0464 73.1292 89.7824L71.8486 81.8856C70.7382 82.0656 67.3468 82.3369 63.801 82.4947C62.0694 82.5718 60.3886 82.6177 59.0328 82.6145C57.4831 82.6107 56.845 82.5361 56.8514 82.5377L54.9743 90.3143ZM110.205 63.264L110.42 59.2698L106.536 59.0598L106.218 62.9372L110.205 63.264ZM118.419 63.708L122.393 64.164L122.877 59.9431L118.634 59.7138L118.419 63.708ZM117.975 80.802L121.971 80.9757L121.972 80.9477L121.973 80.9196L117.975 80.802ZM117.679 91.162L113.764 90.338L113.763 90.3467L113.761 90.3554L117.679 91.162ZM113.313 93.382L115.615 90.1108L115.588 90.092L115.561 90.0737L113.313 93.382ZM93.7026 79.174L95.799 75.7674L89.3181 71.7791L89.7078 79.3789L93.7026 79.174ZM93.9246 91.68V95.68H97.9246V91.68H93.9246ZM85.9326 91.68H81.9326V95.68H85.9326V91.68ZM84.8966 69.258L80.9021 69.0478L80.8893 69.2918L80.9062 69.5356L84.8966 69.258ZM89.2626 66.816L91.359 63.4094L91.3188 63.3846L91.2781 63.3609L89.2626 66.816ZM93.1106 69.184L95.3063 65.8405L95.2571 65.8082L95.207 65.7774L93.1106 69.184ZM109.761 81.912L106.681 84.4648L113.761 93.0051V81.912H109.761ZM109.989 67.2582L118.203 67.7022L118.634 59.7138L110.42 59.2698L109.989 67.2582ZM114.445 63.252C114.159 65.745 114.086 68.9569 114.058 72.0247C114.029 75.2007 114.049 78.2195 113.976 80.6844L121.973 80.9196C122.048 78.3525 122.031 75.0813 122.058 72.0968C122.086 69.0041 122.161 66.185 122.393 64.164L114.445 63.252ZM113.978 80.6283C113.898 82.4726 113.977 84.602 113.993 86.2448C114.012 88.0675 113.96 89.4075 113.764 90.338L121.593 91.986C121.989 90.1045 122.011 87.9665 121.993 86.1632C121.973 84.18 121.903 82.5354 121.971 80.9757L113.978 80.6283ZM113.761 90.3554C113.646 90.9118 113.538 90.5507 114.162 90.2168C114.498 90.0366 114.886 89.9688 115.232 90.0094C115.55 90.0468 115.679 90.156 115.615 90.1108L111.011 96.6532C112.945 98.0144 115.533 98.5577 117.939 97.2687C120.117 96.1023 121.193 93.9282 121.596 91.9686L113.761 90.3554ZM115.561 90.0737C111.877 87.5698 109.013 85.2931 105.984 82.9483C102.964 80.6113 99.8325 78.2495 95.799 75.7674L91.6062 82.5806C95.2687 84.8345 98.1309 86.9867 101.087 89.2747C104.033 91.5549 107.127 94.0142 111.064 96.6903L115.561 90.0737ZM89.7078 79.3789C89.8501 82.1524 89.9246 89.0175 89.9246 91.68H97.9246C97.9246 89.0145 97.8511 81.9676 97.6973 78.9691L89.7078 79.3789ZM93.9246 87.68H85.9326V95.68H93.9246V87.68ZM89.9326 91.68C89.9326 86.9469 89.4802 77.5089 88.887 68.9804L80.9062 69.5356C81.497 78.0271 81.9326 87.2371 81.9326 91.68H89.9326ZM88.8911 69.4682C88.9013 69.273 88.9226 69.1132 88.9467 68.9998C88.9729 68.8763 88.9851 68.8906 88.9322 68.9918C88.8768 69.098 88.6996 69.3924 88.3106 69.6622C87.8812 69.96 87.4111 70.076 87.0426 70.076V62.076C84.374 62.076 82.6677 63.706 81.8414 65.2877C81.126 66.6572 80.9507 68.1256 80.9021 69.0478L88.8911 69.4682ZM87.0426 70.076C86.8427 70.076 86.7551 70.0396 86.8052 70.0559C86.8544 70.0719 87.0003 70.1271 87.2471 70.2711L91.2781 63.3609C90.04 62.6387 88.5943 62.076 87.0426 62.076V70.076ZM87.1662 70.2226L91.0142 72.5906L95.207 65.7774L91.359 63.4094L87.1662 70.2226ZM90.9149 72.5275C96.2896 76.0571 102.519 79.4439 106.681 84.4648L112.84 79.3592C107.678 73.1321 99.8476 68.8228 95.3063 65.8405L90.9149 72.5275ZM113.761 81.912C113.761 81.6202 113.772 81.4526 113.794 80.9703C113.815 80.5011 113.835 79.9051 113.835 78.952H105.835C105.835 79.7749 105.818 80.2519 105.802 80.6152C105.786 80.9654 105.761 81.3898 105.761 81.912H113.761ZM113.835 78.952C113.835 74.9669 113.838 67.9042 114.191 63.5908L106.218 62.9372C105.832 67.6518 105.835 75.0931 105.835 78.952H113.835ZM139.954 95.602L135.969 95.2628L135.613 99.4468L139.809 99.5994L139.954 95.602ZM140.25 72.366L144.247 72.1941L144.082 68.366H140.25V72.366ZM128.41 73.106L124.415 73.2945L124.595 77.106H128.41V73.106ZM128.04 65.262L126.627 61.5201L123.908 62.5473L124.045 65.4505L128.04 65.262ZM161.414 64.744L165.401 65.0732L165.682 61.6655L162.36 60.8573L161.414 64.744ZM160.748 72.81L160.476 76.8007L164.41 77.069L164.735 73.1392L160.748 72.81ZM148.464 72.366V68.366H144.198L144.473 72.6235L148.464 72.366ZM148.094 95.898L147.949 99.8954L151.86 100.038L152.088 96.1302L148.094 95.898ZM143.94 95.9412C144.551 88.7578 144.547 79.1772 144.247 72.1941L136.254 72.5379C136.546 79.3188 136.541 88.5342 135.969 95.2628L143.94 95.9412ZM140.25 68.366C137.696 68.366 135.144 68.5649 133.034 68.7516C130.773 68.9517 129.287 69.106 128.41 69.106V77.106C129.753 77.106 131.819 76.8903 133.739 76.7204C135.811 76.5371 138.069 76.366 140.25 76.366V68.366ZM132.406 72.9175L132.036 65.0735L124.045 65.4505L124.415 73.2945L132.406 72.9175ZM129.454 69.0039C130.458 68.6247 132.551 68.3338 135.457 68.1936C138.214 68.0606 141.17 68.078 143.654 68.078V60.078C141.255 60.078 138.068 60.0584 135.072 60.2029C132.225 60.3402 128.953 60.6413 126.627 61.5201L129.454 69.0039ZM143.654 68.078C147.556 68.078 151.253 68.0783 154.315 68.1598C157.52 68.2452 159.584 68.4155 160.469 68.6307L162.36 60.8573C160.506 60.4065 157.576 60.2438 154.528 60.1627C151.337 60.0777 147.523 60.078 143.654 60.078V68.078ZM157.428 64.4148L156.762 72.4808L164.735 73.1392L165.401 65.0732L157.428 64.4148ZM161.02 68.8193C157.691 68.5923 151.975 68.366 148.464 68.366V76.366C151.762 76.366 157.293 76.5837 160.476 76.8007L161.02 68.8193ZM144.473 72.6235C144.899 79.2295 144.472 89.2874 144.101 95.6658L152.088 96.1302C152.457 89.7806 152.918 79.2665 152.456 72.1085L144.473 72.6235ZM148.24 91.9006L140.1 91.6046L139.809 99.5994L147.949 99.8954L148.24 91.9006ZM172.092 58.75L171.284 54.8325L171.172 54.8556L171.062 54.8851L172.092 58.75ZM186.004 58.602L187.093 54.753L187.026 54.7342L186.959 54.7177L186.004 58.602ZM179.64 85.612L179.566 81.6127L175.71 81.6841L175.641 85.5406L179.64 85.612ZM179.27 98.784L179.126 102.781L182.683 102.91L183.224 99.3922L179.27 98.784ZM171.056 98.488H167.056V102.346L170.912 102.485L171.056 98.488ZM170.242 61.562L166.256 61.8942L166.26 61.9412L166.265 61.9881L170.242 61.562ZM178.974 66.224L178.416 62.2631L174.63 62.7964L174.992 66.6032L178.974 66.224ZM179.64 77.25L175.676 77.7857L176.116 81.0375L179.391 81.2422L179.64 77.25ZM172.901 62.6675C177.229 61.7742 181.318 61.5688 185.049 62.4863L186.959 54.7177C181.663 53.4152 176.279 53.8018 171.284 54.8325L172.901 62.6675ZM184.916 62.451C190.187 63.9418 192.438 68.1606 192.438 72.588H200.438C200.438 65.3234 196.474 57.4062 187.093 54.753L184.916 62.451ZM192.438 72.588C192.438 74.6284 191.24 76.7724 188.7 78.6006C186.169 80.422 182.761 81.5535 179.566 81.6127L179.714 89.6113C184.512 89.5225 189.503 87.879 193.373 85.0939C197.233 82.3156 200.438 78.0216 200.438 72.588H192.438ZM175.641 85.5406C175.604 87.6136 175.549 90.6538 175.484 93.2937C175.452 94.6153 175.418 95.8228 175.383 96.7529C175.343 97.8243 175.31 98.2214 175.317 98.1758L183.224 99.3922C183.305 98.8656 183.346 97.8937 183.377 97.0526C183.414 96.0703 183.449 94.822 183.482 93.4888C183.547 90.8192 183.603 87.7544 183.64 85.6834L175.641 85.5406ZM179.414 94.7866L171.2 94.4906L170.912 102.485L179.126 102.781L179.414 94.7866ZM175.056 98.488C175.056 96.5206 175.128 93.901 175.203 91.1983C175.276 88.536 175.352 85.7906 175.352 83.688H167.352C167.352 85.6554 167.28 88.275 167.206 90.9777C167.132 93.64 167.056 96.3854 167.056 98.488H175.056ZM175.352 83.688C175.352 75.7122 174.902 67.5035 174.22 61.1359L166.265 61.9881C166.915 68.0525 167.352 75.9758 167.352 83.688H175.352ZM174.228 61.2298C174.215 61.0639 174.279 61.5041 173.864 62.043C173.488 62.5308 173.077 62.6273 173.123 62.6149L171.062 54.8851C169.998 55.1687 168.588 55.7831 167.528 57.159C166.428 58.5859 166.122 60.2841 166.256 61.8942L174.228 61.2298ZM192.52 71.478C192.52 67.7501 190.428 64.9847 187.559 63.4965C184.874 62.1036 181.585 61.8168 178.416 62.2631L179.532 70.1849C181.618 69.8912 183.101 70.1964 183.876 70.598C184.233 70.7833 184.37 70.9496 184.419 71.0245C184.456 71.0801 184.52 71.1951 184.52 71.478H192.52ZM174.992 66.6032C175.054 67.2498 175.12 69.1199 175.228 71.4761C175.328 73.6465 175.463 76.2057 175.676 77.7857L183.604 76.7143C183.448 75.5563 183.324 73.3795 183.22 71.1099C183.124 69.0261 183.043 66.7522 182.956 65.8448L174.992 66.6032ZM179.391 81.2422C182.723 81.4505 185.824 80.419 188.135 78.8169C190.276 77.3331 192.52 74.7592 192.52 71.478H184.52C184.52 71.2 184.615 71.172 184.467 71.3941C184.327 71.6049 184.044 71.9186 183.578 72.2421C182.633 72.897 181.294 73.3455 179.89 73.2578L179.391 81.2422Z" fill="#FF7989" mask="url(#path-7-outside-1_1025_1660)"/>
<defs>
<clipPath id="clip0_1025_1660">
<rect width="68.9832" height="29.4361" fill="white" transform="translate(77.7485 31.7144)"/>
</clipPath>
</defs>
</svg>
