<svg width="252" height="147" viewBox="0 0 252 147" fill="none" xmlns="http://www.w3.org/2000/svg">
<g clip-path="url(#clip0_1025_1637)">
<path d="M93.0321 31.7916C93.2554 31.765 93.4875 31.762 93.702 31.7028C94.3278 31.5253 94.9506 31.6259 95.4824 31.904C95.8525 32.0993 96.2433 31.904 96.5782 32.1408C96.7457 32.2591 97.0365 32.6349 97.0277 32.8805C97.0189 33.1112 96.7604 33.4278 96.5136 33.4663C96.0494 33.5373 95.5823 33.6024 95.1122 33.6379C94.9242 33.6527 94.7214 33.487 94.5569 33.706C94.1926 33.4486 93.5786 33.8687 93.3465 33.2533C93.3054 33.1468 93.2084 33.1408 93.1115 33.1527C92.5826 33.2178 92.0538 33.2829 91.5279 33.348C91.3839 33.3657 91.3193 33.416 91.3369 33.5876C91.4192 34.3688 91.2106 35.1617 91.4074 35.9429C91.2106 36.3808 91.4603 36.8542 91.3604 37.2655C91.1871 37.9637 91.5279 38.6206 91.4163 39.2686C91.3252 39.7923 91.5338 40.3219 91.3076 40.8249C91.2723 40.9019 91.2958 41.0084 91.3076 41.1001C91.3575 41.5291 91.4133 41.9582 91.4603 42.3902C91.4868 42.6121 91.5455 42.831 91.3986 43.047C91.3252 43.1565 91.3957 43.3074 91.4074 43.4405C91.4251 43.6418 91.4926 43.8489 91.3428 44.0353C91.3222 44.0619 91.3105 44.1359 91.3281 44.1507C91.5397 44.3548 91.3781 44.5915 91.3928 44.8135C91.4192 45.1892 91.24 45.4555 90.8698 45.5177C90.4144 45.5916 89.9561 45.636 89.4978 45.6922C89.4155 45.7011 89.3333 45.6922 89.2657 45.639C89.2187 45.6005 89.157 45.5502 89.1012 45.5946C88.7075 45.8934 88.3579 45.6094 88.0024 45.5029C87.8232 45.4496 87.7115 45.3076 87.8085 45.0945C87.8114 45.0857 87.8173 45.0738 87.8144 45.065C87.6528 44.4495 87.926 43.8311 87.7967 43.2127C87.7438 42.9583 87.6821 42.692 87.8467 42.4345C87.8966 42.3576 87.8525 42.2126 87.8408 42.1032C87.7732 41.4818 87.6469 40.8634 87.7938 40.2332C87.8232 40.1059 87.8055 39.9669 87.7997 39.8337C87.7644 39.026 87.6704 38.2152 87.7086 37.4134C87.7321 36.9341 87.7585 36.437 87.7673 35.9636C87.7762 35.5286 87.8349 35.0582 87.7145 34.6114C87.6675 34.4398 87.5646 34.4102 87.4148 34.4279C87.1915 34.4575 86.9153 34.5759 86.7538 34.4871C86.4453 34.3185 86.172 34.7238 85.9018 34.4694C85.7167 34.638 85.608 34.5729 85.5345 34.3569C85.5228 34.3244 85.4552 34.3273 85.4287 34.3658C85.2554 34.5966 85.1585 34.3599 85.0703 34.2859C84.9646 34.2001 84.9969 34.0699 85.0909 33.9575C85.4082 33.5728 85.7725 33.2533 86.2102 33.0136C86.6069 32.7947 86.9917 32.5727 87.4442 32.4751C87.6293 32.4366 87.7438 32.2591 87.782 32.0165C87.8702 31.4365 87.6675 30.8566 87.7703 30.3033C87.8702 29.75 87.6616 29.2085 87.7732 28.7026C87.8878 28.1789 87.688 27.7025 87.7527 27.2172C87.8173 26.729 87.7115 26.226 87.8878 25.7526C87.8996 25.723 87.9084 25.6875 87.8996 25.6609C87.735 25.1342 87.9142 24.6076 87.9319 24.0868C87.9436 23.711 87.9701 23.3145 88.0582 22.9269C88.1199 22.6577 88.1904 22.3825 88.2345 22.1044C88.3344 21.4771 88.3491 20.8232 88.6517 20.2373C88.7604 20.0273 88.6928 19.7906 88.7986 19.5627C88.9543 19.2254 89.1335 18.9029 89.2863 18.5656C89.4273 18.2549 89.583 17.9502 89.7446 17.6484C89.9385 17.2844 90.1353 16.9205 90.435 16.6276C90.5437 16.5211 90.5202 16.3613 90.6171 16.2429C91.002 15.7606 91.3751 15.2458 91.9333 14.9765C92.2124 14.8404 92.5121 14.7073 92.8059 14.5919C93.1967 14.438 93.5845 14.3256 93.987 14.2635C94.3601 14.2072 94.7391 14.1155 95.0946 14.3581C95.4383 14.5889 95.8496 14.654 96.2404 14.7339C96.6605 14.8197 96.9131 15.1008 97.1482 15.4026C97.2334 15.5121 97.3215 15.6245 97.4185 15.7222C97.4831 15.7873 97.5889 15.8257 97.5918 15.9263C97.6006 16.1837 97.771 16.3198 97.9414 16.4737C98.1353 16.6453 98.1735 16.9205 98.2763 17.1394C98.5231 17.6632 98.8581 18.1218 99.1607 18.6041C99.3604 18.9236 99.4045 19.329 99.2899 19.6988C99.2018 19.9858 99.0314 20.2462 98.9051 20.5244C98.8727 20.5954 98.8257 20.6398 98.7552 20.6634C98.1441 20.8646 97.5007 20.8646 96.872 20.8735C96.6399 20.8765 96.3872 20.7699 96.1316 20.8025C96.0435 20.8143 95.9789 20.7551 95.9319 20.6812C95.876 20.5924 95.8173 20.5451 95.7086 20.6161C95.5441 20.7256 95.4706 20.551 95.3795 20.48C95.2855 20.403 95.3355 20.3024 95.3942 20.2048C95.5176 20.0066 95.641 19.8024 95.735 19.5894C95.8496 19.3231 95.7497 19.039 95.644 18.8201C95.4383 18.397 95.1416 18.0182 94.8918 17.6158C94.7508 17.388 94.5393 17.1986 94.504 16.9087C94.4805 16.7311 94.2719 16.6542 94.2426 16.4678C94.2337 16.4175 94.1574 16.4116 94.1192 16.4619C94.0046 16.6157 93.8283 16.7459 93.7989 16.9382C93.7725 17.1039 93.6902 17.2282 93.5933 17.3436C93.2525 17.749 93.0409 18.2224 92.8382 18.7076C92.7471 18.9266 92.6326 19.1515 92.5121 19.3497C92.2124 19.8438 92.2213 20.4149 92.0185 20.9268C91.7306 21.6487 91.8099 22.4387 91.6102 23.1814C91.5103 23.5542 91.4956 23.9862 91.5044 24.4004C91.5191 25.1875 91.3986 25.9716 91.3663 26.7586C91.3487 27.232 91.3281 27.7114 91.3751 28.1937C91.4368 28.8476 91.4016 29.5133 91.3898 30.1642C91.381 30.5962 91.4104 31.0282 91.4163 31.4602C91.4163 31.5431 91.4545 31.6378 91.4221 31.7028C91.2429 32.0816 91.4985 31.9987 91.6954 31.9751C92.1419 31.9218 92.5885 31.8626 93.0351 31.8094L93.0321 31.7916Z" fill="#C4D893"/>
<path d="M180.321 30.1078C180.359 30.4244 180.374 30.7469 180.445 31.0576C180.568 31.5961 180.542 32.1494 180.641 32.6879C180.685 32.9276 180.671 33.1732 180.874 33.3714C180.97 33.4661 180.994 33.6673 180.923 33.7827C180.774 34.0342 180.844 34.2798 180.871 34.5313C180.894 34.7562 180.915 34.984 180.953 35.2059C181.062 35.8361 180.968 36.4486 180.838 37.0611C180.821 37.1499 180.827 37.2475 180.844 37.3363C180.944 37.8185 180.829 38.2742 180.677 38.7269C180.671 38.7476 180.659 38.7683 180.662 38.7861C180.715 39.2595 180.542 39.6974 180.471 40.1531C180.43 40.4105 180.45 40.6916 180.348 40.9342C180.118 41.4757 180.104 42.0763 179.869 42.6119C179.798 42.7746 179.866 42.9492 179.786 43.1237C179.537 43.677 179.316 44.2422 179.09 44.8044C179.026 44.9612 178.914 45.0736 178.808 45.1979C178.588 45.4524 178.388 45.7275 178.197 46.0027C177.847 46.4998 177.395 46.9288 176.881 47.1803C176.487 47.3726 176.096 47.6892 175.591 47.6537C175.356 47.6389 175.098 47.6626 174.886 47.8224C174.815 47.8756 174.73 47.8549 174.651 47.8283C174.595 47.8105 174.513 47.775 174.475 47.7987C174.052 48.062 173.576 47.8165 173.135 47.9407C172.918 48.0029 172.671 48.0591 172.477 47.8372C172.456 47.8135 172.395 47.8017 172.362 47.8135C172.022 47.9437 171.716 47.6744 171.381 47.7218C171.346 47.7277 171.293 47.7129 171.266 47.6892C170.905 47.349 170.385 47.272 170.035 46.917C169.965 46.846 169.886 46.8253 169.795 46.8016C169.601 46.7483 169.404 46.6803 169.33 46.4554C169.319 46.4169 169.298 46.3725 169.266 46.3518C168.763 46.0589 168.499 45.5056 168.014 45.1949C167.706 44.9967 167.482 44.7274 167.283 44.4286C167.159 44.2451 167.291 44.0055 167.544 43.9078C167.926 43.7599 168.305 43.6031 168.678 43.4374C168.781 43.393 168.872 43.3752 168.969 43.4315C169.354 43.6504 169.768 43.7776 170.203 43.8427C170.72 43.9226 171.123 44.1889 171.381 44.6505C171.496 44.8517 171.666 44.9937 171.831 45.1446C172.292 45.5677 172.688 46.0619 173.223 46.4021C173.52 46.5915 174.031 46.5323 174.272 46.2719C174.642 45.8755 174.992 45.4583 175.291 45.0085C175.588 44.5647 175.779 44.0617 175.994 43.5735C176.202 43.1001 176.17 42.5586 176.481 42.1177C176.596 41.955 176.549 41.7065 176.59 41.5023C176.646 41.236 176.719 40.9549 176.755 40.6768C176.79 40.4075 176.81 40.1176 176.925 39.8601C177.028 39.6353 177.06 39.3571 177.054 39.1589C177.045 38.7861 177.154 38.4369 177.183 38.0789C177.21 37.7298 177.21 37.3688 177.28 37.0226C177.322 36.8185 177.239 36.8392 177.119 36.8481C176.975 36.8599 176.834 36.8836 176.693 36.8983C176.331 36.9339 175.973 37.0345 175.603 36.8806C175.468 36.8244 175.283 36.8924 175.118 36.9102C174.924 36.9309 174.733 36.9546 174.56 36.8155C174.519 36.78 174.442 36.7622 174.389 36.7711C173.881 36.854 173.461 36.564 173 36.4545C172.577 36.3539 172.309 35.9959 171.895 35.8923C171.766 35.8598 171.734 35.5965 171.569 35.5107C171.084 35.2621 170.943 34.7562 170.67 34.3449C170.379 33.907 170.414 33.4276 170.338 32.9601C170.244 32.392 170.209 31.8121 170.115 31.244C170.035 30.7588 170.215 30.312 170.259 29.8474C170.3 29.3947 170.588 29.016 170.547 28.5574C170.535 28.4124 170.644 28.3088 170.699 28.1935C170.887 27.7999 170.999 27.365 171.29 27.0306C171.481 26.8117 171.534 26.5247 171.698 26.285C172.004 25.8382 172.406 25.5039 172.791 25.1488C172.968 24.9861 173.223 24.8884 173.42 24.7582C173.74 24.5452 174.134 24.5748 174.437 24.3292C174.633 24.1694 174.933 24.2464 175.18 24.1842C175.756 24.0363 176.273 24.2197 176.778 24.4594C176.993 24.56 177.233 24.5689 177.451 24.6133C177.712 24.6636 177.889 24.7967 178.088 24.9358C178.561 25.2672 178.929 25.6489 179.128 26.2288C179.29 26.6963 179.443 27.1934 179.681 27.6076C179.907 28.0011 179.88 28.439 180.113 28.8296C180.315 29.1699 180.251 29.6699 180.304 30.0989C180.309 30.0989 180.312 30.0989 180.318 30.0989L180.321 30.1078ZM176.857 31.1168C176.804 30.6966 176.755 30.2794 176.702 29.8593C176.69 29.7794 176.699 29.6699 176.649 29.6226C176.37 29.3563 176.431 28.9953 176.373 28.6698C176.337 28.4657 176.29 28.2763 176.199 28.0869C176.041 27.7526 175.979 27.3798 175.814 27.0365C175.72 26.8442 175.691 26.6253 175.55 26.4389C175.441 26.2968 175.403 26.3146 175.312 26.4329C174.921 26.9448 174.56 27.4567 174.404 28.1136C174.257 28.726 173.99 29.3001 173.878 29.9332C173.778 30.4954 173.664 31.0428 173.755 31.6168C173.814 31.9837 173.89 32.3536 173.884 32.7205C173.872 33.2649 174.149 33.7206 174.307 34.2028C174.381 34.4307 174.437 34.7532 174.701 34.9307C174.962 35.1053 175.2 35.3183 175.447 35.5136C175.609 35.6438 175.767 35.7562 175.941 35.5284C175.976 35.4811 176.032 35.4781 176.076 35.5136C176.299 35.6911 176.425 35.5373 176.549 35.3745C176.672 35.2118 176.813 35.0609 176.925 34.8893C177.125 34.5786 177.275 34.2531 177.198 33.8626C177.16 33.6614 177.178 33.4424 177.11 33.2531C177.001 32.9453 176.995 32.6376 176.993 32.3151C176.99 31.9157 176.904 31.5192 176.857 31.1197V31.1168Z" fill="#C4D893"/>
<path d="M153.977 37.3363C153.942 37.0493 153.903 36.7623 153.871 36.4783C153.848 36.2771 153.809 36.0818 153.936 35.8835C154.024 35.7445 153.93 35.561 153.924 35.3983C153.912 35.1586 153.801 34.9101 153.986 34.6852C154.012 34.6527 154.015 34.5639 153.989 34.5402C153.853 34.4041 153.953 34.2473 153.936 34.1053C153.827 33.3449 154.053 32.5815 153.868 31.8211C153.768 31.4039 153.751 30.963 153.701 30.534C153.683 30.3831 153.642 30.2262 153.759 30.0901C153.783 30.0635 153.798 29.9895 153.786 29.9777C153.557 29.7913 153.589 29.5842 153.718 29.3563C153.736 29.3238 153.715 29.2469 153.686 29.2114C153.322 28.7557 153.439 28.1906 153.366 27.6757C153.327 27.4213 153.677 27.4124 153.824 27.2526C154.038 27.0189 154.376 26.9922 154.635 26.8147C154.82 26.6875 155.093 26.6283 155.322 26.8177C155.628 27.0692 156.019 27.0218 156.374 27.1106C156.459 27.1313 156.556 27.0899 156.644 27.1402C156.827 27.2437 157.12 27.2674 156.938 27.6106C156.909 27.6698 156.935 27.7852 156.976 27.8473C157.217 28.2024 157.226 28.6196 157.282 29.0161C157.411 29.954 157.511 30.8949 157.626 31.8358C157.637 31.9217 157.626 31.9986 157.57 32.0696C157.491 32.1702 157.461 32.3004 157.564 32.3744C157.696 32.4661 157.746 32.2885 157.778 32.2264C158.052 31.6642 158.419 31.1671 158.81 30.6878C159.112 30.3209 159.444 29.9688 159.744 29.6078C160.255 28.9924 160.931 28.6403 161.56 28.2172C161.795 28.0574 162.144 27.9746 162.397 27.8266C162.794 27.5958 163.252 27.6787 163.607 27.4923C164.063 27.2556 164.392 27.5219 164.744 27.6343C165.012 27.7201 165.294 27.7526 165.558 27.8089C166.131 27.9331 166.692 28.3474 166.801 28.9125C166.883 29.3415 167.007 29.7617 167.098 30.1848C167.171 30.534 167.168 30.9097 167.233 31.2559C167.294 31.5784 167.265 31.9128 167.377 32.2235C167.418 32.3388 167.391 32.4394 167.371 32.5548C167.333 32.7738 167.303 32.9868 167.471 33.194C167.615 33.3744 167.603 33.6319 167.588 33.8508C167.55 34.4751 167.668 35.0965 167.623 35.709C167.591 36.1883 167.656 36.6676 167.55 37.1499C167.48 37.4783 167.582 37.8393 167.465 38.1826C167.421 38.3127 167.535 38.3837 167.673 38.4311C168.07 38.5672 168.085 38.727 167.888 39.088C167.618 39.585 167.368 40.1028 167.18 40.6354C167.062 40.9698 166.816 41.1 166.551 41.1562C166.269 41.2183 165.958 41.3544 165.661 41.1503C165.617 41.1177 165.57 41.168 165.532 41.2065C165.361 41.3692 165.185 41.3248 164.971 41.2805C164.715 41.2242 164.456 41.0704 164.166 41.2302C163.983 41.3278 163.534 40.7745 163.549 40.4993C163.557 40.31 163.795 40.1295 163.566 39.9342C163.716 39.7922 163.622 39.5762 163.725 39.4164C163.763 39.3602 163.804 39.2744 163.787 39.2181C163.657 38.795 163.789 38.363 163.875 37.9843C163.978 37.5316 163.784 37.07 164.007 36.6321C164.077 36.4931 163.98 36.2711 163.978 36.0847C163.96 35.4072 164.025 34.7325 163.919 34.0491C163.719 32.7353 163.584 31.4098 163.419 30.0931C163.405 29.9659 163.437 29.7913 163.299 29.7321C163.134 29.6611 163.029 29.8357 162.952 29.9274C162.667 30.2588 162.379 30.5843 162.168 30.9778C162.059 31.179 161.886 31.3536 161.759 31.5577C161.413 32.1199 160.975 32.6318 160.699 33.2235C160.426 33.8064 160.099 34.3627 159.817 34.9397C159.6 35.3776 159.424 35.8421 159.203 36.28C158.921 36.8452 158.572 37.3777 158.325 37.9666C158.184 38.3039 157.899 38.5642 157.502 38.7359C157.135 38.8956 156.774 38.9696 156.395 39.0229C156.186 39.0524 155.972 39.1087 155.775 38.9548C155.734 38.9223 155.648 38.9193 155.599 38.94C155.22 39.082 154.864 38.8631 154.494 38.8601C154.303 38.8601 154.141 38.7122 154.115 38.4784C154.071 38.0997 154.024 37.721 153.977 37.3422V37.3363Z" fill="#C4D893"/>
<path d="M115.819 38.6827C115.781 38.3661 115.775 38.0376 115.693 37.7329C115.602 37.3985 115.563 37.0731 115.575 36.7298C115.581 36.5671 115.531 36.4044 115.522 36.2387C115.502 35.9369 115.375 35.6321 115.569 35.3392C115.599 35.2978 115.587 35.2149 115.569 35.1587C115.399 34.6113 115.56 34.061 115.59 33.5224C115.605 33.2769 115.607 32.978 115.754 32.7354C115.84 32.5993 115.687 32.4957 115.731 32.3241C115.898 31.6643 116.045 30.9897 116.318 30.3713C116.489 29.9866 116.78 29.6523 117.132 29.3653C117.455 29.1019 117.808 28.9274 118.166 28.7498C119.045 28.3149 119.962 28.1314 120.952 28.2409C121.392 28.2912 121.809 28.3652 122.218 28.5279C122.791 28.7617 123.414 28.8356 123.989 29.0753C124.442 29.2647 124.777 29.5576 125.032 29.963C125.056 30.0014 125.074 30.0695 125.056 30.1079C124.906 30.4305 125 30.7589 125.029 31.0814C125.076 31.5874 124.941 32.0489 124.765 32.5105C124.524 33.1378 124.304 33.771 124.075 34.4012C123.995 34.6172 123.837 34.7829 123.722 34.9752C123.384 35.5493 122.914 36.0197 122.488 36.5168C122.241 36.8068 121.848 36.9695 121.498 37.1648C120.866 37.5169 120.176 37.4429 119.515 37.5761C119.315 37.6145 119.23 37.6914 119.259 37.9045C119.318 38.3217 119.324 38.7537 119.43 39.159C119.521 39.5082 119.712 39.8307 119.87 40.1591C120.067 40.5645 120.435 40.8515 120.637 41.2568C120.705 41.393 120.84 41.4551 120.949 41.5498C121.093 41.677 121.245 41.7776 121.334 41.9699C121.407 42.1297 121.569 42.2481 121.786 42.2185C121.956 42.1948 122.13 42.1534 122.288 42.2747C122.362 42.3309 122.421 42.2747 122.468 42.2126C122.532 42.1297 122.641 42.0824 122.711 42.1356C123.09 42.4197 123.311 42.0676 123.508 41.893C123.781 41.6504 124.072 41.4728 124.389 41.2953C124.65 41.1474 124.956 41.1207 125.197 40.9136C125.397 40.742 125.599 41.0053 125.808 41.0468C126.087 41.103 126.334 41.2746 126.648 41.2509C126.816 41.2391 127.007 41.3219 127.162 41.4048C127.289 41.4728 127.262 41.603 127.192 41.7273C127.021 42.0202 126.736 42.1859 126.475 42.3664C126.137 42.6002 125.77 42.7895 125.453 43.0529C125.42 43.0795 125.385 43.1091 125.347 43.112C124.551 43.2008 123.819 43.6949 122.993 43.544C122.565 43.4671 122.162 43.544 121.748 43.5855C121.477 43.6121 121.201 43.7038 120.955 43.4937C120.928 43.4701 120.875 43.4671 120.837 43.4701C119.588 43.5736 118.613 43.0144 117.708 42.2214C117.376 41.9315 117.138 41.5734 116.844 41.2687C116.486 40.8988 116.38 40.4017 116.057 40.0319C115.978 39.9402 115.969 39.8248 115.954 39.7153C115.91 39.3662 115.869 39.02 115.825 38.6708L115.819 38.6827ZM121.398 30.6908C121.389 30.3476 121.336 29.9985 120.934 29.7766C120.526 29.5546 120.411 29.5606 120.126 29.9245C120.02 30.0606 120.076 30.2293 119.967 30.3476C119.618 30.7323 119.594 31.2382 119.489 31.7057C119.374 32.2206 119.303 32.7472 119.236 33.2739C119.139 34.0107 119.177 34.7415 119.151 35.4753C119.145 35.6587 119.204 35.8392 119.074 36.0079C119.018 36.0818 119.021 36.2061 119.112 36.2564C119.215 36.3185 119.242 36.1913 119.289 36.1351C119.909 35.3895 120.502 34.6291 120.796 33.6822C120.943 33.2059 121.345 32.8094 121.242 32.2531C121.24 32.2354 121.251 32.2146 121.257 32.1939C121.389 31.7176 121.51 31.2382 121.398 30.6908Z" fill="#C4D893"/>
<path d="M137.084 14.7338C137.137 14.8847 136.969 15.0563 137.022 15.2398C137.21 15.9085 137.146 16.6038 137.169 17.2755C137.184 17.7134 137.231 18.2016 137.075 18.6513C137.06 18.6898 137.04 18.7342 137.052 18.7697C137.166 19.2076 137.013 19.6455 136.961 20.0627C136.902 20.5302 137.066 21.0066 136.943 21.4149C136.811 21.8498 136.993 22.2729 136.811 22.702C136.705 22.9505 136.846 23.3056 136.878 23.6133C136.896 23.7849 136.94 23.9565 136.811 24.1133C136.743 24.1962 136.764 24.3205 136.796 24.4122C136.902 24.7258 136.711 25.069 136.899 25.3708C136.658 25.8413 136.955 26.3266 136.867 26.7852C136.764 27.3207 136.796 27.8622 136.705 28.3948C136.684 28.522 136.737 28.6374 136.758 28.7587C136.787 28.9096 136.825 29.0635 136.717 29.2025C136.64 29.3031 136.655 29.4215 136.681 29.531C136.875 30.3358 136.746 31.1554 136.755 31.9631C136.761 32.7887 136.878 33.5964 136.887 34.4131C136.893 34.9368 136.828 35.4605 136.914 35.9842C136.975 36.36 137.008 36.7417 137.057 37.1204C137.069 37.221 137.063 37.3719 137.169 37.3896C137.489 37.4488 137.425 37.65 137.325 37.8246C137.11 38.2063 137.046 38.6767 136.664 38.9637C136.596 39.014 136.532 39.0584 136.449 39.0732C136.173 39.1265 135.879 39.0969 135.656 39.3366C135.603 39.3928 135.421 39.4164 135.368 39.3721C135.142 39.1827 134.836 39.3632 134.619 39.1797C134.601 39.1649 134.546 39.162 134.537 39.1768C134.263 39.5259 133.964 39.2833 133.676 39.2152C133.423 39.1561 133.226 38.8809 133.317 38.659C133.438 38.3631 133.338 38.0761 133.364 37.7861C133.388 37.508 133.212 37.221 133.411 36.9488C133.42 36.934 133.423 36.8985 133.414 36.8896C133.05 36.5197 133.456 36.0907 133.312 35.6794C133.176 35.2889 133.085 34.8243 133.168 34.4308C133.329 33.6645 133.009 32.9425 133.085 32.2146C133.129 31.7826 133.009 31.3359 133.118 30.9512C133.297 30.318 132.977 29.7203 133.103 29.1315C133.194 28.7025 133.006 28.2616 133.226 27.8563C133.241 27.8296 133.247 27.7941 133.238 27.7645C133.056 27.1106 133.323 26.4479 133.2 25.791C133.15 25.5247 133.129 25.2643 133.238 24.9773C133.335 24.7169 133.203 24.4092 133.176 24.1222C133.156 23.9092 133.085 23.6932 133.244 23.5009C133.262 23.4802 133.268 23.4387 133.259 23.4121C133.1 22.8854 133.253 22.3558 133.291 21.841C133.326 21.3468 133.291 20.8468 133.376 20.3586C133.403 20.2018 133.417 20.0538 133.397 19.9029C133.341 19.465 133.432 19.0419 133.541 18.6277C133.608 18.3673 133.57 18.1128 133.558 17.8613C133.538 17.311 133.691 16.7636 133.585 16.2103C133.564 16.1067 133.582 15.9943 133.535 15.8878C133.394 15.5682 133.617 15.225 133.479 14.8936C133.458 14.8403 133.558 14.6954 133.638 14.648C133.999 14.435 134.387 14.2752 134.754 14.0799C135.083 13.9054 135.315 14.0237 135.6 14.1391C135.821 14.2279 136.082 14.2811 136.317 14.2634C136.564 14.2427 136.737 14.4024 136.958 14.4261C137.075 14.4379 137.063 14.5859 137.093 14.725L137.084 14.7338Z" fill="#C4D893"/>
<path d="M108.976 43.6356C108.63 43.68 108.286 43.7303 107.939 43.7628C107.663 43.7895 107.381 43.9049 107.111 43.7096C107.058 43.6711 106.949 43.6948 106.87 43.7155C106.435 43.8161 106.05 43.6918 105.639 43.5498C105.23 43.4078 104.796 43.3249 104.443 43.0793C104.164 42.8841 103.861 42.7124 103.582 42.5231C102.924 42.0763 102.563 41.4342 102.131 40.8217C101.952 40.5643 101.911 40.3039 101.875 40.0229C101.772 39.2151 101.67 38.4073 101.579 37.5996C101.555 37.3925 101.502 37.1912 101.605 36.9664C101.655 36.8599 101.605 36.6409 101.587 36.4989C101.546 36.1379 101.702 35.8213 101.711 35.4781C101.72 35.1556 101.875 34.8449 102.005 34.5549C102.11 34.3123 102.075 34.0608 102.178 33.8182C102.342 33.4246 102.513 33.043 102.73 32.6731C102.936 32.321 103.062 31.9186 103.256 31.5458C103.609 30.8682 104.008 30.2469 104.675 29.8385C105.245 29.4894 105.824 29.1846 106.514 29.1669C106.755 29.161 106.976 29.1432 107.225 29.2379C107.66 29.4006 108.133 29.448 108.6 29.5012C109.182 29.5693 109.705 29.8592 110.116 30.2735C110.345 30.5043 110.513 30.8327 110.56 31.1818C110.645 31.7943 110.704 32.4098 110.792 33.0222C110.833 33.3122 110.674 33.5519 110.63 33.8211C110.536 34.4277 110.234 34.9662 109.949 35.5018C109.614 36.132 109.114 36.6439 108.647 37.1528C108.389 37.4368 107.951 37.6173 107.551 37.7919C106.867 38.0907 106.153 38.0878 105.451 38.2209C105.316 38.2476 105.257 38.3245 105.272 38.4606C105.324 38.8896 105.298 39.3542 105.454 39.7388C105.601 40.0939 105.715 40.4726 105.985 40.8099C106.25 41.1383 106.579 41.4017 106.837 41.736C107.172 42.171 107.651 42.4491 108.277 42.4225C108.894 42.3958 109.314 42.0201 109.805 41.7538C110.043 41.6236 110.281 41.4964 110.528 41.3869C110.839 41.2478 111.13 41.4106 111.406 41.5141C111.759 41.6473 112.096 41.7982 112.484 41.6946C112.666 41.6443 112.802 41.7479 112.922 41.8603C113.016 41.9461 113.051 42.094 112.94 42.1503C112.784 42.2301 112.675 42.4077 112.511 42.4254C111.985 42.4787 111.662 42.8988 111.227 43.1C110.942 43.2302 110.683 43.4403 110.342 43.4669C109.884 43.5024 109.429 43.5764 108.97 43.6326L108.976 43.6356ZM105.192 36.3214C105.204 36.419 105.204 36.4723 105.219 36.5226C105.254 36.6498 105.145 36.8362 105.348 36.8924C105.539 36.9457 105.609 36.7711 105.709 36.6616C106.2 36.1142 106.573 35.4929 106.817 34.8035C106.94 34.4573 107.099 34.1081 107.105 33.7324C107.114 33.3418 106.976 32.9512 107.131 32.5607C107.172 32.4571 107.143 32.3032 107.049 32.2115C106.876 32.0399 107.026 31.8121 106.94 31.6168C106.92 31.5665 106.999 31.457 106.867 31.4245C106.761 31.4008 106.676 31.4334 106.667 31.5547C106.649 31.8979 106.414 32.1523 106.268 32.4246C105.991 32.9364 105.88 33.5016 105.654 34.0253C105.495 34.3951 105.401 34.7828 105.345 35.1852C105.292 35.5816 105.086 35.9545 105.186 36.3243L105.192 36.3214Z" fill="#C4D893"/>
<path d="M142.689 31.0341C142.66 30.1819 142.721 29.3268 142.554 28.4806C142.522 28.3179 142.642 28.1758 142.748 28.1196C143.083 27.9391 143.368 27.6669 143.741 27.5663C143.902 27.5219 143.97 27.3444 144.158 27.3296C144.425 27.3089 144.631 27.4805 144.881 27.5131C145.204 27.5545 145.504 27.7291 145.844 27.6847C145.906 27.6758 145.968 27.6669 146.027 27.6758C146.359 27.7291 146.432 27.8859 146.232 28.1403C146.121 28.2824 146.121 28.4185 146.147 28.5753C146.268 29.2854 146.326 30.0074 146.294 30.7175C146.268 31.3152 146.376 31.9247 146.223 32.5046C146.118 32.9129 146.238 33.3035 146.2 33.6911C146.147 34.2267 146.153 34.7652 146.097 35.3007C146.053 35.7268 145.98 36.1647 146.012 36.6085C146.044 37.0553 145.944 37.4991 145.824 37.9282C145.786 38.0643 145.797 38.1915 145.806 38.3217C145.818 38.5229 145.868 38.7123 145.759 38.9194C145.715 39.0022 145.792 39.1827 145.789 39.3336C145.783 39.6354 145.642 39.8988 145.636 40.2006C145.63 40.4609 145.551 40.7746 145.225 40.89C145.195 40.8988 145.166 40.9432 145.148 40.9373C144.813 40.7923 144.575 41.1267 144.252 41.1089C143.929 41.0912 143.603 41.1681 143.277 41.2184C143.092 41.248 142.904 41.0971 142.716 41.2391C142.68 41.2657 142.639 41.1888 142.616 41.1415C142.583 41.0734 142.551 41.0113 142.454 41.0497C142.134 41.177 142.04 40.9403 141.966 40.7183C141.831 40.313 142.016 39.9313 142.099 39.5466C142.175 39.1945 142.31 38.8602 142.29 38.4903C142.26 37.9637 142.307 37.4459 142.439 36.934C142.439 36.9251 142.448 36.9133 142.445 36.9044C142.319 36.4576 142.586 36.0315 142.498 35.5759C142.395 35.064 142.545 34.558 142.636 34.055C142.68 33.8154 142.61 33.5846 142.583 33.3508C142.519 32.8123 142.636 32.2945 142.73 31.7708C142.771 31.5341 142.707 31.2797 142.689 31.0341Z" fill="#C4D893"/>
<path d="M146.958 20.5538C146.579 20.5863 146.142 20.7076 145.692 20.5331C145.563 20.4828 145.387 20.2135 145.24 20.5301C145.087 20.4295 144.89 20.3348 144.902 20.1307C144.931 19.5596 144.802 18.9738 145.04 18.4204C145.063 18.3672 145.069 18.2932 145.052 18.24C144.911 17.808 145.102 17.3878 145.119 16.9647C145.131 16.725 145.219 16.4795 145.193 16.222C145.172 16.006 145.401 16.0267 145.504 15.9291C145.795 15.6539 146.168 15.5119 146.518 15.3344C146.838 15.1716 147.155 15.3403 147.452 15.4498C147.602 15.506 147.737 15.5504 147.89 15.5178C148.181 15.4527 148.43 15.6391 148.715 15.6539C148.894 15.6628 148.909 15.9439 148.847 16.1451C148.733 16.5179 148.677 16.8996 148.627 17.2902C148.56 17.8316 148.665 18.3701 148.545 18.9116C148.492 19.1454 148.366 19.4265 148.545 19.7105C148.651 19.8792 148.483 20.0656 148.339 20.175C148.078 20.3733 147.784 20.5005 147.443 20.4976C147.302 20.4976 147.158 20.5301 146.955 20.5567L146.958 20.5538Z" fill="#C4D893"/>
</g>
<mask id="path-9-outside-1_1025_1637" maskUnits="userSpaceOnUse" x="62" y="50" width="142" height="48" fill="black">
<rect fill="white" x="62" y="50" width="142" height="48"/>
<path d="M91.4684 80.834L92.2084 88.382C87.8424 90.01 77.9264 89.936 74.3744 89.936C71.5624 89.936 69.6384 90.084 67.3444 90.084C66.9744 84.682 66.6044 81.5 66.6044 77.06L66.5304 62.408C66.5304 60.114 68.5284 58.634 70.2304 58.264C74.8924 57.82 83.1064 57.154 89.5444 56.266L90.7284 64.11C78.6664 65.442 76.5944 65.738 74.8184 65.96L74.8924 69.216C86.0664 69.068 89.6924 68.846 91.0244 68.846L91.4684 76.912C87.4724 77.578 78.5924 77.356 74.8924 77.652V81.426C77.0384 81.944 88.7304 81.278 91.4684 80.834ZM117.27 72.324C121.858 73.582 126.594 75.95 126.594 81.944C126.594 88.382 120.082 92.6 112.904 92.6C110.758 92.6 105.948 92.082 103.654 89.64L107.428 83.646C108.686 83.942 109.944 84.756 112.312 84.756C114.902 84.756 118.158 83.868 118.01 82.018C117.936 79.65 110.61 78.688 107.428 76.838C102.1 73.804 101.212 69.66 102.47 64.48C103.58 59.448 107.872 56.414 114.828 56.414C119.49 56.414 123.856 58.042 126.15 59.818L122.672 66.552C120.822 65.368 117.936 64.554 114.606 64.554C112.016 64.554 110.388 65.738 110.388 67.884C110.388 69.808 113.644 71.288 117.27 72.324ZM161.709 63.074H151.941C149.277 63.074 146.465 63.148 145.059 63.222C144.911 65.664 145.059 67.884 145.059 71.214C150.165 70.622 161.561 70.696 162.079 70.696V78.836C161.487 78.836 149.795 79.058 145.133 79.576C145.133 83.498 145.355 89.196 145.577 92.6L137.437 93.044C136.919 90.528 136.993 84.756 136.919 77.06C136.919 74.396 136.845 71.954 136.845 68.846C136.845 65.22 136.993 60.706 136.993 56.932C144.467 54.342 160.747 54.86 161.709 54.86V63.074ZM181.458 85.57C184.936 85.57 186.12 82.388 186.12 79.576C186.12 75.654 184.714 69.364 183.752 64.776C180.348 64.702 176.426 64.48 174.946 64.11L175.316 56.34C175.908 56.34 180.274 56.636 183.456 56.636C189.746 56.636 195.666 55.896 198.774 55.896L199.514 63.592C198.034 64.11 194.186 64.332 192.188 64.48C193.298 69.29 194.334 74.544 194.334 79.576C194.334 87.05 189.894 93.784 181.384 93.784C176.056 93.784 170.95 90.084 169.322 85.94H169.396L175.908 81.722C177.388 83.942 179.164 85.57 181.458 85.57Z"/>
</mask>
<path d="M91.4684 80.834L92.2084 88.382C87.8424 90.01 77.9264 89.936 74.3744 89.936C71.5624 89.936 69.6384 90.084 67.3444 90.084C66.9744 84.682 66.6044 81.5 66.6044 77.06L66.5304 62.408C66.5304 60.114 68.5284 58.634 70.2304 58.264C74.8924 57.82 83.1064 57.154 89.5444 56.266L90.7284 64.11C78.6664 65.442 76.5944 65.738 74.8184 65.96L74.8924 69.216C86.0664 69.068 89.6924 68.846 91.0244 68.846L91.4684 76.912C87.4724 77.578 78.5924 77.356 74.8924 77.652V81.426C77.0384 81.944 88.7304 81.278 91.4684 80.834ZM117.27 72.324C121.858 73.582 126.594 75.95 126.594 81.944C126.594 88.382 120.082 92.6 112.904 92.6C110.758 92.6 105.948 92.082 103.654 89.64L107.428 83.646C108.686 83.942 109.944 84.756 112.312 84.756C114.902 84.756 118.158 83.868 118.01 82.018C117.936 79.65 110.61 78.688 107.428 76.838C102.1 73.804 101.212 69.66 102.47 64.48C103.58 59.448 107.872 56.414 114.828 56.414C119.49 56.414 123.856 58.042 126.15 59.818L122.672 66.552C120.822 65.368 117.936 64.554 114.606 64.554C112.016 64.554 110.388 65.738 110.388 67.884C110.388 69.808 113.644 71.288 117.27 72.324ZM161.709 63.074H151.941C149.277 63.074 146.465 63.148 145.059 63.222C144.911 65.664 145.059 67.884 145.059 71.214C150.165 70.622 161.561 70.696 162.079 70.696V78.836C161.487 78.836 149.795 79.058 145.133 79.576C145.133 83.498 145.355 89.196 145.577 92.6L137.437 93.044C136.919 90.528 136.993 84.756 136.919 77.06C136.919 74.396 136.845 71.954 136.845 68.846C136.845 65.22 136.993 60.706 136.993 56.932C144.467 54.342 160.747 54.86 161.709 54.86V63.074ZM181.458 85.57C184.936 85.57 186.12 82.388 186.12 79.576C186.12 75.654 184.714 69.364 183.752 64.776C180.348 64.702 176.426 64.48 174.946 64.11L175.316 56.34C175.908 56.34 180.274 56.636 183.456 56.636C189.746 56.636 195.666 55.896 198.774 55.896L199.514 63.592C198.034 64.11 194.186 64.332 192.188 64.48C193.298 69.29 194.334 74.544 194.334 79.576C194.334 87.05 189.894 93.784 181.384 93.784C176.056 93.784 170.95 90.084 169.322 85.94H169.396L175.908 81.722C177.388 83.942 179.164 85.57 181.458 85.57Z" fill="#EDF798"/>
<path d="M91.4684 80.834L95.4493 80.4437L95.0336 76.2036L90.8281 76.8856L91.4684 80.834ZM92.2084 88.382L93.6059 92.1299L96.4896 91.0546L96.1893 87.9917L92.2084 88.382ZM67.3444 90.084L63.3537 90.3573L63.609 94.084H67.3444V90.084ZM66.6044 77.06H70.6044V77.0499L70.6043 77.0398L66.6044 77.06ZM66.5304 62.408H62.5304V62.4181L62.5304 62.4282L66.5304 62.408ZM70.2304 58.264L69.8511 54.282L69.6137 54.3046L69.3806 54.3553L70.2304 58.264ZM89.5444 56.266L93.4996 55.669L92.9101 51.7639L88.9978 52.3035L89.5444 56.266ZM90.7284 64.11L91.1674 68.0858L95.3048 67.6289L94.6836 63.513L90.7284 64.11ZM74.8184 65.96L74.3222 61.9909L70.7373 62.439L70.8194 66.0509L74.8184 65.96ZM74.8924 69.216L70.8934 69.3069L70.9834 73.2681L74.9453 73.2156L74.8924 69.216ZM91.0244 68.846L95.0183 68.6261L94.8102 64.846H91.0244V68.846ZM91.4684 76.912L92.126 80.8576L95.6592 80.2687L95.4623 76.6922L91.4684 76.912ZM74.8924 77.652L74.5734 73.6647L70.8924 73.9592V77.652H74.8924ZM74.8924 81.426H70.8924V84.5754L73.9538 85.3143L74.8924 81.426ZM87.4875 81.2243L88.2275 88.7723L96.1893 87.9917L95.4493 80.4437L87.4875 81.2243ZM90.8108 84.6341C89.2726 85.2076 86.2777 85.5883 82.7731 85.7752C79.431 85.9534 76.176 85.936 74.3744 85.936V93.936C76.1248 93.936 79.6037 93.9556 83.1991 93.7638C86.6321 93.5807 90.7781 93.1844 93.6059 92.1299L90.8108 84.6341ZM74.3744 85.936C72.8976 85.936 71.6573 85.975 70.533 86.0122C69.398 86.0497 68.4128 86.084 67.3444 86.084V94.084C68.57 94.084 69.6937 94.0443 70.7973 94.0078C71.9114 93.971 73.0392 93.936 74.3744 93.936V85.936ZM71.335 89.8107C70.9526 84.2267 70.6044 81.3176 70.6044 77.06H62.6044C62.6044 81.6824 62.9962 85.1373 63.3537 90.3573L71.335 89.8107ZM70.6043 77.0398L70.5303 62.3878L62.5304 62.4282L62.6044 77.0802L70.6043 77.0398ZM70.5304 62.408C70.5304 62.431 70.5222 62.4748 70.506 62.5101C70.4943 62.5355 70.4978 62.5149 70.552 62.4614C70.6082 62.4059 70.696 62.3385 70.8106 62.2776C70.9269 62.2158 71.0266 62.1843 71.0801 62.1727L69.3806 54.3553C66.6519 54.9485 62.5304 57.5108 62.5304 62.408H70.5304ZM70.6096 62.246C75.1757 61.8111 83.5419 61.1318 90.0909 60.2285L88.9978 52.3035C82.6708 53.1762 74.6091 53.8289 69.8511 54.282L70.6096 62.246ZM85.5892 56.863L86.7732 64.707L94.6836 63.513L93.4996 55.669L85.5892 56.863ZM90.2893 60.1342C78.2007 61.4691 76.1078 61.7677 74.3222 61.9909L75.3145 69.9291C77.081 69.7083 79.132 69.4149 91.1674 68.0858L90.2893 60.1342ZM70.8194 66.0509L70.8934 69.3069L78.8913 69.1251L78.8173 65.8691L70.8194 66.0509ZM74.9453 73.2156C80.5543 73.1414 84.2766 73.0484 86.7689 72.9737C89.3519 72.8963 90.4367 72.846 91.0244 72.846V64.846C90.2801 64.846 88.8858 64.9067 86.5293 64.9773C84.0821 65.0506 80.4044 65.1426 74.8394 65.2164L74.9453 73.2156ZM87.0304 69.0658L87.4744 77.1319L95.4623 76.6922L95.0183 68.6261L87.0304 69.0658ZM90.8108 72.9664C89.1548 73.2424 86.2451 73.3553 82.988 73.4216C79.9467 73.4835 76.5813 73.5041 74.5734 73.6647L75.2113 81.6393C76.9034 81.5039 79.8281 81.4875 83.1507 81.4199C86.2576 81.3567 89.786 81.2476 92.126 80.8576L90.8108 72.9664ZM70.8924 77.652V81.426H78.8924V77.652H70.8924ZM73.9538 85.3143C75.0333 85.5749 76.6614 85.6112 77.993 85.6145C79.5186 85.6181 81.3343 85.567 83.1362 85.4868C86.6574 85.3301 90.481 85.0464 92.1087 84.7824L90.8281 76.8856C89.7177 77.0656 86.3263 77.3369 82.7805 77.4947C81.0489 77.5718 79.3681 77.6177 78.0123 77.6145C76.4626 77.6107 75.8245 77.5361 75.8309 77.5377L73.9538 85.3143ZM117.27 72.324L116.171 76.1701L116.192 76.176L116.212 76.1816L117.27 72.324ZM103.654 89.64L100.269 87.5087L98.6218 90.1252L100.739 92.3787L103.654 89.64ZM107.428 83.646L108.344 79.7523L105.565 79.0983L104.043 81.5147L107.428 83.646ZM118.01 82.018L114.012 82.1429L114.015 82.2401L114.023 82.337L118.01 82.018ZM107.428 76.838L109.439 73.38L109.423 73.3709L109.407 73.3621L107.428 76.838ZM102.47 64.48L106.357 65.424L106.367 65.3829L106.376 65.3416L102.47 64.48ZM126.15 59.818L129.704 61.6536L131.233 58.6941L128.599 56.6551L126.15 59.818ZM122.672 66.552L120.516 69.9211L124.212 72.2867L126.226 68.3876L122.672 66.552ZM116.212 76.1816C118.313 76.7576 119.969 77.4734 121.057 78.4018C121.975 79.1845 122.594 80.1848 122.594 81.944H130.594C130.594 77.7092 128.845 74.5285 126.248 72.3142C123.822 70.2455 120.815 69.1484 118.328 68.4664L116.212 76.1816ZM122.594 81.944C122.594 83.6673 121.766 85.2162 120.069 86.4651C118.32 87.7533 115.756 88.6 112.904 88.6V96.6C117.23 96.6 121.512 95.3377 124.812 92.9074C128.167 90.4378 130.594 86.6587 130.594 81.944H122.594ZM112.904 88.6C112.089 88.6 110.68 88.4954 109.295 88.1528C107.813 87.7863 106.933 87.2881 106.569 86.9013L100.739 92.3787C102.669 94.4339 105.341 95.4157 107.374 95.9187C109.504 96.4456 111.573 96.6 112.904 96.6V88.6ZM107.039 91.7713L110.813 85.7773L104.043 81.5147L100.269 87.5087L107.039 91.7713ZM106.512 87.5397C106.595 87.5592 106.731 87.6001 107.049 87.7134C107.318 87.809 107.779 87.9791 108.258 88.1291C109.312 88.4591 110.629 88.756 112.312 88.756V80.756C111.628 80.756 111.132 80.6459 110.65 80.4949C110.361 80.4044 110.123 80.3155 109.728 80.1753C109.384 80.0527 108.89 79.8808 108.344 79.7523L106.512 87.5397ZM112.312 88.756C113.972 88.756 115.972 88.4839 117.689 87.7883C118.542 87.443 119.588 86.8884 120.452 85.9754C121.393 84.9811 122.142 83.508 121.997 81.699L114.023 82.337C113.992 81.9515 114.052 81.554 114.196 81.1909C114.334 80.8431 114.516 80.609 114.641 80.4772C114.855 80.251 114.953 80.2653 114.686 80.3732C114.458 80.4656 114.106 80.5674 113.653 80.6437C113.208 80.7185 112.741 80.756 112.312 80.756V88.756ZM122.008 81.8931C121.921 79.0999 119.764 77.6049 118.844 77.0478C117.701 76.3556 116.323 75.8414 115.182 75.4501C114.58 75.2435 113.959 75.0439 113.379 74.8575C112.786 74.6667 112.233 74.4891 111.705 74.3091C110.597 73.931 109.866 73.6287 109.439 73.38L105.418 80.296C106.581 80.9723 107.959 81.484 109.122 81.8806C109.73 82.0879 110.353 82.2879 110.931 82.4737C111.523 82.6639 112.07 82.8401 112.587 83.0174C113.684 83.3938 114.351 83.6797 114.702 83.8918C115.275 84.2389 114.062 83.7521 114.012 82.1429L122.008 81.8931ZM109.407 73.3621C107.37 72.2019 106.588 71.0829 106.25 70.128C105.879 69.0808 105.825 67.6161 106.357 65.424L98.5831 63.536C97.8575 66.5239 97.6185 69.7212 98.7089 72.7994C99.8322 75.9701 102.158 78.4401 105.449 80.3139L109.407 73.3621ZM106.376 65.3416C106.718 63.79 107.492 62.6773 108.676 61.8882C109.927 61.0539 111.903 60.414 114.828 60.414V52.414C110.797 52.414 107.149 53.2911 104.238 55.2318C101.259 57.2176 99.3317 60.138 98.564 63.6184L106.376 65.3416ZM114.828 60.414C118.714 60.414 122.191 61.8113 123.701 62.9809L128.599 56.6551C125.521 54.2727 120.266 52.414 114.828 52.414V60.414ZM122.596 57.9824L119.118 64.7164L126.226 68.3876L129.704 61.6536L122.596 57.9824ZM124.828 63.1829C122.188 61.4928 118.505 60.554 114.606 60.554V68.554C117.368 68.554 119.457 69.2432 120.516 69.9211L124.828 63.1829ZM114.606 60.554C112.768 60.554 110.742 60.9661 109.081 62.2482C107.282 63.6379 106.388 65.6873 106.388 67.884H114.388C114.388 67.8589 114.391 67.972 114.306 68.1532C114.218 68.3417 114.088 68.4894 113.97 68.5803C113.865 68.6617 113.827 68.654 113.932 68.6247C114.039 68.5948 114.256 68.554 114.606 68.554V60.554ZM106.388 67.884C106.388 71.211 109.083 73.0914 110.452 73.8912C112.149 74.8817 114.244 75.6196 116.171 76.1701L118.369 68.4779C116.67 67.9924 115.325 67.4723 114.486 66.9828C114.068 66.7383 113.963 66.6081 114 66.6522C114.063 66.7253 114.388 67.157 114.388 67.884H106.388ZM161.709 63.074V67.074H165.709V63.074H161.709ZM145.059 63.222L144.849 59.2275L141.282 59.4152L141.066 62.98L145.059 63.222ZM145.059 71.214H141.059V75.7046L145.52 75.1874L145.059 71.214ZM162.079 70.696H166.079V66.696H162.079V70.696ZM162.079 78.836V82.836H166.079V78.836H162.079ZM145.133 79.576L144.691 75.6005L141.133 75.9958V79.576H145.133ZM145.577 92.6L145.795 96.5941L149.831 96.3739L149.568 92.3397L145.577 92.6ZM137.437 93.044L133.519 93.8506L134.214 97.2257L137.655 97.0381L137.437 93.044ZM136.919 77.06H132.919V77.0792L132.919 77.0985L136.919 77.06ZM136.993 56.932L135.683 53.1525L132.993 54.0848V56.932H136.993ZM161.709 54.86H165.709V50.86H161.709V54.86ZM161.709 59.074H151.941V67.074H161.709V59.074ZM151.941 59.074C149.226 59.074 146.342 59.149 144.849 59.2275L145.269 67.2165C146.588 67.147 149.328 67.074 151.941 67.074V59.074ZM141.066 62.98C140.91 65.5647 141.059 68.2185 141.059 71.214H149.059C149.059 67.5495 148.912 65.7633 149.051 63.464L141.066 62.98ZM145.52 75.1874C150.331 74.6296 161.408 74.696 162.079 74.696V66.696C161.714 66.696 149.999 66.6144 144.598 67.2406L145.52 75.1874ZM158.079 70.696V78.836H166.079V70.696H158.079ZM162.079 74.836C161.478 74.836 149.593 75.0559 144.691 75.6005L145.575 83.5515C147.727 83.3123 151.663 83.1305 155.266 83.0095C157.039 82.9499 158.688 82.9064 159.929 82.8777C160.55 82.8634 161.067 82.8528 161.445 82.8459C161.635 82.8424 161.788 82.8398 161.901 82.8382C161.958 82.8374 162.002 82.8368 162.035 82.8364C162.073 82.836 162.084 82.836 162.079 82.836V74.836ZM141.133 79.576C141.133 83.6001 141.359 89.3863 141.585 92.8603L149.568 92.3397C149.351 89.0057 149.133 83.3959 149.133 79.576H141.133ZM145.359 88.6059L137.219 89.0499L137.655 97.0381L145.795 96.5941L145.359 88.6059ZM141.355 92.2374C141.182 91.3981 141.067 89.6949 141.01 86.9129C140.956 84.2187 140.956 80.9302 140.919 77.0215L132.919 77.0985C132.955 80.8858 132.956 84.3313 133.012 87.0761C133.066 89.7331 133.174 92.1739 133.519 93.8506L141.355 92.2374ZM140.919 77.06C140.919 75.695 140.9 74.3895 140.881 73.0639C140.863 71.7321 140.845 70.3694 140.845 68.846H132.845C132.845 70.4306 132.864 71.8429 132.882 73.175C132.901 74.5135 132.919 75.761 132.919 77.06H140.919ZM140.845 68.846C140.845 67.0762 140.881 65.0799 140.918 63.0166C140.955 60.9708 140.993 58.8616 140.993 56.932H132.993C132.993 58.7764 132.957 60.8112 132.919 62.8724C132.883 64.9161 132.845 66.9898 132.845 68.846H140.845ZM138.303 60.7115C141.409 59.635 146.791 59.1172 151.944 58.9219C156.971 58.7313 161.075 58.86 161.709 58.86V50.86C161.712 50.86 161.694 50.8599 161.635 50.8591C161.583 50.8583 161.514 50.8571 161.428 50.8555C161.256 50.8524 161.023 50.848 160.743 50.8433C160.18 50.8341 159.42 50.8237 158.51 50.8196C156.694 50.8113 154.276 50.8277 151.641 50.9276C146.545 51.1208 140.051 51.639 135.683 53.1525L138.303 60.7115ZM157.709 54.86V63.074H165.709V54.86H157.709ZM183.752 64.776L187.667 63.9551L187.015 60.846L183.839 60.7769L183.752 64.776ZM174.946 64.11L170.951 63.9197L170.795 67.1952L173.976 67.9906L174.946 64.11ZM175.316 56.34V52.34H171.502L171.321 56.1497L175.316 56.34ZM198.774 55.896L202.756 55.5131L202.408 51.896H198.774V55.896ZM199.514 63.592L200.836 67.3674L203.796 66.3313L203.496 63.2091L199.514 63.592ZM192.188 64.48L191.893 60.4909L187.242 60.8354L188.291 65.3794L192.188 64.48ZM169.322 85.94V81.94H163.453L165.599 87.4026L169.322 85.94ZM169.396 85.94V89.94H170.578L171.571 89.2973L169.396 85.94ZM175.908 81.722L179.236 79.5032L177.047 76.2187L173.734 78.3647L175.908 81.722ZM181.458 89.57C184.663 89.57 187.057 87.9904 188.467 85.7768C189.742 83.7748 190.12 81.4442 190.12 79.576H182.12C182.12 80.0079 182.074 80.4192 181.99 80.7715C181.905 81.1283 181.798 81.3557 181.72 81.4782C181.65 81.5872 181.627 81.58 181.672 81.5543C181.728 81.5225 181.695 81.57 181.458 81.57V89.57ZM190.12 79.576C190.12 75.1237 188.576 68.289 187.667 63.9551L179.837 65.5969C180.853 70.439 182.12 76.1843 182.12 79.576H190.12ZM183.839 60.7769C182.183 60.7409 180.418 60.6692 178.906 60.5637C177.285 60.4506 176.268 60.3174 175.916 60.2294L173.976 67.9906C175.104 68.2726 176.789 68.4354 178.349 68.5443C180.02 68.6608 181.917 68.7371 183.665 68.7751L183.839 60.7769ZM178.942 64.3003L179.312 56.5303L171.321 56.1497L170.951 63.9197L178.942 64.3003ZM175.316 60.34C175.287 60.34 175.332 60.3401 175.528 60.3488C175.695 60.3562 175.915 60.3671 176.186 60.381C176.721 60.4084 177.434 60.446 178.226 60.4835C179.799 60.558 181.765 60.636 183.456 60.636V52.636C181.965 52.636 180.157 52.566 178.604 52.4925C177.209 52.4264 175.737 52.34 175.316 52.34V60.34ZM183.456 60.636C186.746 60.636 189.913 60.4426 192.586 60.2563C195.365 60.0627 197.403 59.896 198.774 59.896V51.896C197.037 51.896 194.561 52.0993 192.03 52.2757C189.395 52.4593 186.456 52.636 183.456 52.636V60.636ZM194.793 56.2788L195.533 63.9748L203.496 63.2091L202.756 55.5131L194.793 56.2788ZM198.193 59.8166C198.205 59.8124 198.145 59.8332 197.986 59.8687C197.835 59.9024 197.638 59.9396 197.394 59.9787C196.903 60.0572 196.308 60.129 195.65 60.1943C194.32 60.3265 192.951 60.4125 191.893 60.4909L192.484 68.4691C193.423 68.3995 194.978 68.3005 196.441 68.1552C197.758 68.0243 199.57 67.8102 200.836 67.3674L198.193 59.8166ZM188.291 65.3794C189.392 70.1525 190.334 75.0295 190.334 79.576H198.334C198.334 74.0584 197.204 68.4275 196.086 63.5806L188.291 65.3794ZM190.334 79.576C190.334 82.5626 189.443 85.1569 187.973 86.9274C186.577 88.6091 184.477 89.784 181.384 89.784V97.784C186.801 97.784 191.177 95.5919 194.128 92.0381C197.005 88.5731 198.334 84.0634 198.334 79.576H190.334ZM181.384 89.784C177.66 89.784 174.057 87.0532 173.045 84.4774L165.599 87.4026C167.843 93.1148 174.452 97.784 181.384 97.784V89.784ZM169.322 89.94H169.396V81.94H169.322V89.94ZM171.571 89.2973L178.083 85.0793L173.734 78.3647L167.222 82.5827L171.571 89.2973ZM172.58 83.9408C174.228 86.4127 177.048 89.57 181.458 89.57V81.57C181.334 81.57 181.136 81.5464 180.773 81.2746C180.358 80.9649 179.84 80.408 179.236 79.5032L172.58 83.9408Z" fill="#FF7989" mask="url(#path-9-outside-1_1025_1637)"/>
<path d="M160.582 124.317C160.437 124.456 160.353 124.548 160.261 124.628C160.136 124.732 160.04 124.883 159.851 124.891C159.823 124.891 159.787 124.911 159.767 124.931C159.453 125.254 159.02 125.378 158.634 125.573C158.08 125.853 157.486 125.964 156.855 125.948C156.052 125.928 155.244 125.944 154.441 125.944C154.273 125.944 154.108 125.948 153.955 125.853C153.899 125.817 153.815 125.809 153.742 125.809C153.196 125.797 152.722 125.549 152.24 125.346C152.056 125.266 151.935 125.059 151.714 125.027C151.69 125.027 151.658 124.987 151.654 124.963C151.582 124.656 151.313 124.504 151.12 124.293C150.987 124.145 150.835 124.014 150.867 123.786C150.875 123.738 150.859 123.667 150.827 123.643C150.67 123.507 150.662 123.328 150.69 123.152C150.718 122.953 150.525 122.833 150.525 122.669C150.525 122.502 150.698 122.386 150.69 122.187C150.666 121.72 150.686 121.253 150.686 120.787C150.686 120.619 150.686 120.455 150.686 120.288C150.686 120.16 150.694 120.041 150.79 119.941C150.907 119.821 150.863 119.666 150.871 119.526C150.883 119.331 150.839 119.131 151.011 118.972C151.068 118.92 151.06 118.836 151.06 118.764C151.06 118.649 151.076 118.537 151.172 118.449C151.196 118.429 151.216 118.401 151.22 118.373C151.268 118.03 151.485 117.751 151.578 117.436C151.654 117.185 151.823 116.957 151.815 116.678C151.815 116.562 151.887 116.49 151.963 116.419C152.1 116.287 152.188 116.143 152.2 115.936C152.212 115.737 152.365 115.565 152.437 115.378C152.606 114.951 152.919 114.612 153.2 114.257C153.256 114.185 153.337 114.117 153.373 114.037C153.501 113.71 153.823 113.666 154.088 113.523C154.325 113.395 154.614 113.399 154.827 113.224C154.903 113.16 155.008 113.176 155.1 113.176C156.22 113.176 157.337 113.176 158.457 113.176C158.55 113.176 158.654 113.164 158.731 113.228C158.976 113.447 159.269 113.335 159.542 113.351C159.634 113.355 159.698 113.291 159.707 113.196C159.715 113.104 159.719 113.008 159.719 112.916C159.719 111.752 159.719 110.591 159.719 109.426C159.719 109.251 159.719 109.075 159.847 108.927C159.911 108.856 159.903 108.752 159.903 108.656C159.903 108.481 159.903 108.301 159.903 108.126C159.903 108.042 159.887 107.946 159.939 107.882C160.112 107.667 160.092 107.416 160.096 107.168C160.096 107.021 160.1 106.877 160.213 106.761C160.233 106.742 160.253 106.71 160.257 106.678C160.297 106.231 160.546 105.844 160.618 105.405C160.634 105.301 160.674 105.206 160.731 105.118C160.895 104.855 160.988 104.56 161.124 104.28C161.209 104.105 161.261 103.901 161.345 103.718C161.389 103.622 161.429 103.534 161.506 103.459C161.638 103.327 161.715 103.179 161.747 102.976C161.779 102.769 161.907 102.557 162.036 102.382C162.345 101.963 162.666 101.548 162.871 101.061C162.911 100.969 162.972 100.89 163.052 100.85C163.401 100.686 163.695 100.403 164.108 100.375C164.209 100.367 164.277 100.255 164.353 100.251C164.719 100.244 165.012 99.9922 165.394 100C165.735 100.004 166.012 100.128 166.301 100.267C166.558 100.391 166.787 100.583 167.092 100.583C167.157 100.583 167.213 100.618 167.257 100.666C167.309 100.722 167.374 100.746 167.45 100.758C167.9 100.822 168.265 101.029 168.55 101.376C168.735 101.6 168.988 101.755 169.141 102.015C169.213 102.138 169.265 102.246 169.265 102.386C169.265 103.622 169.265 104.859 169.265 106.095C169.265 106.167 169.265 106.259 169.229 106.307C169.056 106.502 169.088 106.734 169.084 106.957C169.084 107.073 169.092 107.188 169.028 107.292C168.952 107.416 168.956 107.547 168.952 107.683C168.948 107.826 168.968 107.978 168.839 108.086C168.819 108.102 168.799 108.146 168.807 108.166C168.912 108.461 168.675 108.72 168.731 109.011C168.731 109.019 168.731 109.035 168.731 109.043C168.51 109.314 168.602 109.637 168.57 109.941C168.57 109.961 168.57 109.985 168.562 110C168.345 110.499 168.345 111.046 168.197 111.56C168.185 111.6 168.177 111.648 168.149 111.672C168.024 111.795 168.004 111.951 168.024 112.107C168.072 112.442 167.868 112.693 167.755 112.972C167.735 113.024 167.663 113.064 167.663 113.128C167.671 113.383 167.53 113.606 167.482 113.842C167.382 114.348 167.161 114.799 166.944 115.258C166.843 115.473 166.667 115.665 166.683 115.94C166.691 116.092 166.554 116.215 166.486 116.351C166.309 116.71 166.181 117.101 165.908 117.404C165.851 117.468 165.831 117.548 165.811 117.631C165.791 117.711 165.775 117.803 165.723 117.863C165.522 118.086 165.426 118.373 165.245 118.609C165.008 118.92 164.847 119.275 164.687 119.626C164.618 119.773 164.55 119.929 164.442 120.053C164.237 120.288 164.064 120.543 163.887 120.799C163.803 120.918 163.759 121.03 163.763 121.166C163.771 121.437 163.783 121.704 163.795 121.975C163.795 121.995 163.791 122.023 163.803 122.035C164.044 122.338 163.916 122.693 163.952 123.028C163.968 123.172 163.952 123.316 164.068 123.435C164.14 123.507 164.128 123.607 164.132 123.702C164.132 123.93 164.132 124.161 164.14 124.389C164.14 124.492 164.132 124.596 164.209 124.684C164.229 124.708 164.261 124.752 164.253 124.76C164.068 124.995 164.365 125.17 164.333 125.394C164.301 125.605 164.325 125.829 164.333 126.048C164.333 126.108 164.325 126.192 164.361 126.228C164.538 126.403 164.502 126.626 164.526 126.838C164.554 127.065 164.703 127.245 164.803 127.444C164.835 127.508 164.887 127.568 164.883 127.64C164.851 127.995 165.036 128.266 165.209 128.549C165.293 128.689 165.357 128.84 165.426 128.988C165.486 129.119 165.558 129.239 165.647 129.351C165.783 129.53 165.731 129.706 165.522 129.794C165.044 129.993 165.044 129.973 164.474 129.997C163.875 130.021 163.285 129.889 162.691 129.949C162.65 129.953 162.594 129.953 162.57 129.933C162.353 129.742 162.1 129.57 161.972 129.311C161.807 128.984 161.622 128.665 161.474 128.33C161.357 128.066 161.148 127.819 161.197 127.496C161.205 127.44 161.197 127.356 161.156 127.32C160.98 127.153 161.016 126.942 161.012 126.738C161.012 126.559 161.012 126.383 160.895 126.231C160.871 126.2 160.851 126.156 160.855 126.116C160.875 125.717 160.711 125.35 160.686 124.955C160.678 124.772 160.642 124.588 160.61 124.325L160.582 124.317ZM154.204 122.183C154.204 122.482 154.204 122.785 154.204 123.084C154.204 123.28 154.18 123.479 154.349 123.639C154.401 123.691 154.393 123.774 154.393 123.846C154.393 123.978 154.437 124.081 154.538 124.177C154.618 124.253 154.69 124.353 154.734 124.456C154.803 124.612 154.927 124.668 155.08 124.68C155.759 124.732 156.393 124.644 156.887 124.117C156.935 124.065 156.988 123.994 157.052 123.978C157.373 123.882 157.558 123.635 157.767 123.403C157.851 123.312 157.931 123.224 158.068 123.192C158.241 123.152 158.361 123.028 158.405 122.861C158.437 122.741 158.506 122.661 158.594 122.586C159.024 122.207 159.433 121.808 159.795 121.369C159.976 121.15 160.14 120.89 160.108 120.559C160.08 120.272 160.104 119.977 160.1 119.69C160.1 119.494 160.124 119.299 159.96 119.135C159.891 119.067 159.915 118.956 159.915 118.864C159.915 118.541 159.911 118.222 159.907 117.899C159.907 117.807 159.927 117.695 159.867 117.627C159.698 117.432 159.711 117.201 159.727 116.977C159.763 116.57 159.69 116.219 159.325 115.972C159.233 115.908 159.144 115.82 159.16 115.689C159.192 115.417 159.112 115.178 158.959 114.963C158.799 114.735 158.642 114.484 158.325 114.472C157.895 114.456 157.469 114.472 157.04 114.468C156.919 114.468 156.831 114.524 156.734 114.596C156.594 114.695 156.602 114.879 156.477 114.979C156.265 115.146 156.18 115.398 156.056 115.621C155.831 116.02 155.686 116.459 155.485 116.873C155.261 117.34 155.02 117.807 154.931 118.329C154.931 118.349 154.919 118.369 154.907 118.385C154.718 118.692 154.534 118.996 154.558 119.378C154.558 119.426 154.538 119.486 154.505 119.522C154.381 119.658 154.385 119.825 154.385 119.993C154.385 120.168 154.385 120.344 154.385 120.523C154.385 120.627 154.385 120.735 154.305 120.815C154.204 120.91 154.204 121.038 154.204 121.162C154.204 121.505 154.204 121.848 154.204 122.191V122.183ZM165.691 102.629C165.422 102.769 165.41 103.068 165.237 103.259C165.088 103.427 165.084 103.662 164.984 103.85C164.867 104.065 164.763 104.288 164.691 104.524C164.659 104.627 164.622 104.711 164.546 104.791C164.385 104.95 164.277 105.13 164.297 105.369C164.301 105.429 164.277 105.493 164.253 105.549C164.12 105.888 163.887 106.195 163.916 106.586C163.916 106.622 163.891 106.666 163.875 106.702C163.707 107.037 163.626 107.396 163.61 107.767C163.602 107.898 163.646 108.054 163.554 108.162C163.409 108.333 163.422 108.525 163.422 108.72C163.422 108.896 163.401 109.071 163.385 109.247C163.361 109.598 163.169 109.921 163.237 110.284C163.289 110.555 163.297 110.822 163.237 111.097C163.213 111.213 163.249 111.345 163.253 111.468C163.265 111.855 163.193 112.242 163.273 112.625C163.273 112.633 163.265 112.645 163.261 112.653C163.217 112.888 163.189 113.124 163.289 113.355C163.317 113.415 163.317 113.471 163.289 113.535C163.169 113.846 163.237 114.169 163.229 114.488C163.229 114.564 163.265 114.628 163.317 114.683C163.414 114.779 163.506 114.767 163.554 114.636C163.654 114.356 163.791 114.081 163.871 113.806C163.96 113.511 163.992 113.196 164.104 112.9C164.128 112.837 164.104 112.733 164.144 112.693C164.293 112.541 164.289 112.358 164.297 112.17C164.297 112.111 164.297 112.027 164.337 111.995C164.506 111.835 164.494 111.636 164.478 111.44C164.458 111.225 164.707 111.113 164.667 110.898C164.663 110.87 164.667 110.834 164.671 110.806C164.683 110.758 164.687 110.695 164.723 110.663C164.871 110.535 164.847 110.367 164.855 110.2C164.863 110.044 164.811 109.873 164.912 109.745C165.036 109.59 165.04 109.426 165.04 109.247C165.04 109.059 165.024 108.876 165.177 108.724C165.237 108.664 165.225 108.568 165.225 108.485C165.225 108.317 165.229 108.154 165.233 107.986C165.233 107.894 165.225 107.791 165.297 107.723C165.418 107.607 165.41 107.464 165.418 107.32C165.422 107.184 165.389 107.025 165.45 106.921C165.618 106.634 165.582 106.323 165.602 106.02C165.622 105.672 165.554 105.313 165.719 104.978C165.743 104.927 165.731 104.855 165.731 104.795C165.731 104.173 165.731 103.55 165.731 102.928C165.731 102.84 165.759 102.741 165.671 102.641L165.691 102.629Z" fill="#64B4F7"/>
<path d="M95.4352 129.805C94.8087 129.805 94.1822 129.805 93.5516 129.805C93.395 129.805 93.2343 129.817 93.1138 129.686C93.0616 129.63 92.9813 129.622 92.909 129.622C92.7725 129.622 92.6399 129.61 92.5355 129.498C92.4672 129.426 92.3628 129.426 92.2704 129.434C91.9411 129.466 91.7082 129.279 91.4672 129.103C91.2624 128.952 91.1379 128.696 90.8527 128.648C90.8366 128.648 90.8085 128.624 90.8045 128.608C90.7483 128.373 90.5234 128.249 90.4189 128.054C90.3507 127.926 90.2824 127.799 90.186 127.695C90.0736 127.579 89.9972 127.452 90.0053 127.28C90.0093 127.208 89.9932 127.133 89.933 127.081C89.8366 126.997 89.8165 126.889 89.8205 126.77C89.8205 126.75 89.8205 126.726 89.8205 126.706C89.692 126.387 89.6077 126.06 89.6277 125.713C89.6277 125.685 89.6157 125.645 89.5956 125.629C89.3587 125.429 89.3024 125.138 89.194 124.871C89.1378 124.731 89.1177 124.592 89.1016 124.448C89.0856 124.292 89.1458 124.189 89.3145 124.117C89.5434 124.017 89.7643 123.91 90.0254 123.929C90.0655 123.929 90.1177 123.917 90.1418 123.894C90.2824 123.75 90.4591 123.77 90.6398 123.754C90.9049 123.734 91.1379 123.778 91.3065 124.001C91.3306 124.033 91.3668 124.081 91.3989 124.081C91.672 124.081 91.8728 124.28 92.1299 124.316C92.4271 124.356 92.7323 124.647 92.7805 124.935C92.7925 125.018 92.7885 125.106 92.8528 125.166C92.9572 125.262 92.9411 125.389 92.9773 125.505C93.0777 125.84 93.1219 126.183 93.2062 126.514C93.2986 126.885 93.4592 127.244 93.5436 127.623C93.5516 127.663 93.5637 127.707 93.5918 127.735C93.7404 127.906 93.8809 128.082 93.9814 128.289C94.0456 128.417 94.1781 128.493 94.3468 128.489C94.889 128.485 95.4352 128.489 95.9774 128.489C96.0618 128.489 96.1501 128.481 96.2144 128.425C96.3228 128.325 96.4513 128.309 96.5919 128.305C96.6521 128.305 96.7445 128.305 96.7726 128.273C97.0297 127.938 97.4755 127.843 97.7486 127.524C97.9695 127.264 98.2345 127.041 98.4755 126.798C98.5679 126.702 98.6844 126.622 98.6884 126.466C98.6884 126.431 98.7085 126.379 98.7366 126.355C99.0057 126.111 99.1302 125.792 99.2868 125.477C99.4715 125.11 99.6523 124.739 99.841 124.376C99.9655 124.133 99.9776 123.862 100.118 123.622C100.331 123.255 100.363 122.801 100.64 122.458C100.725 122.354 100.688 122.218 100.692 122.095C100.701 121.891 100.656 121.676 100.837 121.512C100.849 121.5 100.865 121.472 100.861 121.456C100.813 121.113 100.982 120.818 101.082 120.511C101.178 120.22 101.239 119.925 101.311 119.629C101.363 119.398 101.395 119.402 101.15 119.394C100.986 119.39 100.817 119.382 100.66 119.466C100.524 119.538 100.371 119.542 100.235 119.474C100.078 119.394 99.9133 119.394 99.7447 119.394C99.2025 119.394 98.6563 119.394 98.1141 119.394C97.9655 119.394 97.8209 119.398 97.7084 119.274C97.6482 119.211 97.5558 119.211 97.4715 119.211C97.2707 119.219 97.102 119.139 96.9132 119.063C96.4513 118.871 96.0859 118.568 95.7525 118.217C95.6601 118.122 95.5678 118.022 95.4794 117.922C95.4433 117.882 95.3911 117.842 95.387 117.802C95.367 117.583 95.2665 117.396 95.1943 117.196C95.134 117.037 95.1099 116.865 95.0135 116.709C94.9734 116.646 94.9854 116.55 94.9814 116.466C94.9774 116.239 94.9693 116.007 94.9814 115.78C94.9894 115.589 94.885 115.405 94.9051 115.238C94.9292 115.058 94.9774 114.879 94.9774 114.691C94.9774 114.077 94.9774 113.466 94.9774 112.852C94.9774 112.705 94.9693 112.561 95.0938 112.449C95.142 112.405 95.1581 112.342 95.1621 112.278C95.1661 112.138 95.2063 112.014 95.2906 111.899C95.375 111.783 95.3067 111.616 95.375 111.512C95.5276 111.281 95.4794 111.005 95.5718 110.782C95.6722 110.539 95.6842 110.259 95.8409 110.04C95.869 110 95.9011 109.948 95.9011 109.9C95.9091 109.605 96.0818 109.382 96.2264 109.146C96.2987 109.027 96.2907 108.887 96.3509 108.763C96.4795 108.508 96.6481 108.285 96.7044 107.982C96.7365 107.806 96.8811 107.619 96.9855 107.439C97.1542 107.156 97.355 106.893 97.4273 106.562C97.4313 106.542 97.4353 106.514 97.4514 106.506C97.7365 106.31 97.8249 105.907 98.1341 105.772C98.4313 105.64 98.6281 105.385 98.9374 105.273C99.1101 105.213 99.2989 105.169 99.4475 105.09C99.6804 104.966 99.9495 104.974 100.162 104.822C100.275 104.743 100.399 104.747 100.524 104.747C100.825 104.739 101.126 104.787 101.407 104.611C101.52 104.543 101.652 104.583 101.765 104.655C101.837 104.699 101.909 104.747 101.994 104.687C102.299 104.483 102.624 104.559 102.934 104.639C103.187 104.703 103.448 104.783 103.636 105.01C103.761 105.161 104.002 105.138 104.138 105.289C104.512 105.281 104.785 105.516 105.094 105.672C105.138 105.696 105.211 105.712 105.227 105.748C105.323 106.003 105.56 106.163 105.661 106.422C105.801 106.793 105.898 107.188 106.062 107.539C106.183 107.798 106.167 108.101 106.359 108.337C106.452 108.448 106.392 108.64 106.396 108.795C106.396 108.943 106.396 109.083 106.516 109.198C106.612 109.294 106.576 109.434 106.584 109.557C106.6 109.844 106.749 110.02 107.042 110.04C107.203 110.052 107.311 110.128 107.424 110.227C107.536 110.327 107.556 110.455 107.464 110.559C107.335 110.698 107.339 110.862 107.339 111.025C107.339 111.596 107.339 112.166 107.339 112.74C107.339 112.908 107.351 113.076 107.207 113.203C107.187 113.223 107.167 113.259 107.171 113.287C107.211 113.582 107.01 113.817 106.966 114.089C106.938 114.256 106.825 114.388 106.753 114.528C106.536 114.946 106.432 115.421 106.171 115.804C105.982 116.087 105.789 116.335 105.829 116.69C105.673 116.869 105.677 117.108 105.6 117.32C105.56 117.427 105.528 117.535 105.524 117.647C105.524 117.687 105.528 117.747 105.508 117.767C105.283 117.986 105.359 118.269 105.327 118.532C105.315 118.624 105.295 118.72 105.243 118.796C105.102 118.991 105.203 119.23 105.122 119.426C105.046 119.613 104.942 119.781 104.893 119.992C104.821 120.296 104.845 120.631 104.632 120.898C104.596 120.942 104.596 121.018 104.592 121.077C104.588 121.205 104.564 121.321 104.472 121.42C104.371 121.532 104.403 121.676 104.399 121.807C104.391 121.995 104.412 122.182 104.267 122.338C104.231 122.378 104.215 122.454 104.219 122.513C104.247 122.864 104.062 123.14 103.893 123.419C103.873 123.455 103.849 123.495 103.849 123.535C103.849 123.862 103.656 124.109 103.508 124.372C103.492 124.4 103.476 124.432 103.476 124.46C103.488 124.783 103.243 124.999 103.142 125.27C102.978 125.705 102.677 126.08 102.564 126.534C102.556 126.562 102.552 126.602 102.532 126.618C102.17 126.973 101.978 127.468 101.564 127.779C101.331 127.954 101.142 128.182 100.925 128.373C100.781 128.501 100.66 128.668 100.443 128.696C100.415 128.696 100.379 128.72 100.363 128.74C100.114 129.051 99.7246 129.091 99.3952 129.255C99.1663 129.37 98.9414 129.45 98.6844 129.434C98.6362 129.434 98.5719 129.454 98.5438 129.486C98.4313 129.614 98.2908 129.614 98.1422 129.614C97.9855 129.614 97.8329 129.614 97.7084 129.741C97.6241 129.825 97.4915 129.801 97.3791 129.801C96.7405 129.801 96.1019 129.801 95.4674 129.801L95.4352 129.805ZM102.114 106.083C101.861 106.238 101.58 106.294 101.427 106.53C101.231 106.825 100.986 107.076 100.825 107.411C100.592 107.902 100.323 108.377 100.086 108.867C100.018 109.003 99.9736 109.154 99.8732 109.278C99.7165 109.478 99.6282 109.705 99.6081 109.96C99.6041 110.032 99.6081 110.108 99.5639 110.172C99.3872 110.439 99.3591 110.762 99.2266 111.049C99.1181 111.285 99.0137 111.52 99.0177 111.783C99.0177 111.819 98.9856 111.859 98.9575 111.891C98.8812 111.975 98.8651 112.074 98.8611 112.178C98.8611 112.25 98.8611 112.334 98.8008 112.381C98.588 112.557 98.7567 112.884 98.5317 113.052C98.5237 113.06 98.5277 113.099 98.5358 113.107C98.6964 113.235 98.5679 113.331 98.5157 113.447C98.4755 113.538 98.4876 113.65 98.4876 113.754C98.4876 114.575 98.4876 115.393 98.4876 116.215C98.4876 116.39 98.4755 116.566 98.6201 116.709C98.6803 116.769 98.6683 116.865 98.6683 116.949C98.6723 117.276 98.6482 117.603 98.853 117.902C98.9253 118.006 98.9735 118.082 99.1021 118.082C99.3109 118.082 99.5197 118.07 99.7286 118.086C100.034 118.106 100.303 117.974 100.484 117.786C100.954 117.3 101.56 116.953 101.885 116.315C102.014 116.063 102.263 115.872 102.375 115.577C102.516 115.202 102.709 114.851 102.693 114.436C102.693 114.324 102.656 114.184 102.753 114.109C102.901 113.989 102.873 113.833 102.881 113.682C102.893 113.351 102.909 113.024 103.034 112.705C103.094 112.549 103.086 112.377 102.998 112.222C102.942 112.122 102.942 112.026 102.99 111.927C103.102 111.687 103.09 111.44 103.014 111.201C102.982 111.105 102.97 111.025 103.022 110.937C103.066 110.866 103.062 110.778 103.062 110.694C103.062 110.319 103.062 109.948 103.062 109.573C103.062 109.501 103.058 109.422 103.026 109.362C102.893 109.103 102.881 108.823 102.881 108.544C102.881 108.349 102.909 108.149 102.741 107.99C102.705 107.954 102.689 107.87 102.701 107.814C102.765 107.463 102.54 107.184 102.448 106.877C102.375 106.625 102.239 106.37 102.118 106.083H102.114Z" fill="#64B4F7"/>
<path d="M125.151 115.381C125.151 115.86 125.151 116.339 125.151 116.813C125.151 116.969 125.159 117.128 125.023 117.244C125.003 117.264 124.982 117.3 124.982 117.328C124.982 117.599 124.85 117.842 124.802 118.094C124.75 118.349 124.621 118.548 124.529 118.772C124.412 119.051 124.203 119.29 124.199 119.617C124.199 119.693 124.147 119.749 124.111 119.813C123.946 120.096 123.85 120.419 123.681 120.698C123.468 121.053 123.364 121.472 123.051 121.779C122.91 121.915 122.85 122.13 122.766 122.314C122.733 122.382 122.717 122.45 122.657 122.497C122.3 122.785 122.035 123.168 121.669 123.447C121.42 123.634 121.171 123.806 120.83 123.77C120.657 123.75 120.476 123.742 120.332 123.894C120.255 123.973 120.135 123.949 120.03 123.949C119.653 123.949 119.279 123.949 118.902 123.949C118.685 123.949 118.468 123.965 118.275 123.81C118.171 123.726 118.01 123.77 117.878 123.766C117.633 123.758 117.376 123.81 117.163 123.614C117.119 123.574 117.022 123.582 116.95 123.582C116.842 123.578 116.741 123.566 116.669 123.475C116.601 123.395 116.504 123.395 116.408 123.391C116.291 123.391 116.199 123.331 116.091 123.287C115.737 123.136 115.464 122.84 115.127 122.701C114.701 122.525 114.468 122.174 114.151 121.903C113.95 121.732 113.878 121.472 113.749 121.253C113.693 121.157 113.649 121.057 113.584 120.966C113.44 120.758 113.368 120.515 113.363 120.26C113.363 119.929 113.339 119.593 113.384 119.262C113.416 119.027 113.359 118.792 113.392 118.548C113.5 117.802 113.592 117.053 113.544 116.295C113.532 116.139 113.536 115.98 113.673 115.864C113.689 115.852 113.701 115.828 113.701 115.808C113.685 115.481 113.837 115.194 113.914 114.891C113.938 114.791 113.942 114.687 114.018 114.603C114.038 114.579 114.07 114.551 114.066 114.528C114.054 114.248 114.271 114.037 114.291 113.766C114.299 113.682 114.319 113.606 114.38 113.538C114.416 113.502 114.452 113.455 114.46 113.407C114.548 112.824 114.906 112.366 115.163 111.859C115.307 111.576 115.444 111.285 115.572 110.993C115.633 110.858 115.713 110.742 115.805 110.626C115.954 110.443 116.099 110.267 116.054 109.996C116.034 109.88 116.115 109.745 116.243 109.697C116.581 109.573 116.805 109.314 117.042 109.075C117.167 108.947 117.291 108.827 117.428 108.712C117.46 108.684 117.496 108.636 117.524 108.64C117.809 108.668 118.014 108.428 118.287 108.412C118.34 108.412 118.404 108.404 118.436 108.373C118.605 108.197 118.818 108.229 119.022 108.229C119.231 108.229 119.44 108.241 119.649 108.229C119.934 108.209 120.187 108.261 120.372 108.5C120.392 108.524 120.416 108.556 120.44 108.56C120.681 108.588 120.886 108.736 121.111 108.775C121.408 108.827 121.653 108.947 121.886 109.13C122.119 109.314 122.4 109.418 122.697 109.486C122.946 109.541 123.179 109.645 123.372 109.821C123.517 109.956 123.657 110.096 123.802 110.231C123.902 110.327 123.962 110.443 124.023 110.567C124.211 110.957 124.268 111.408 124.541 111.763C124.585 111.823 124.589 111.899 124.593 111.971C124.597 112.066 124.609 112.158 124.685 112.23C124.762 112.302 124.758 112.393 124.778 112.485C124.85 112.8 125.019 113.092 124.991 113.431C125.219 113.674 125.147 113.973 125.151 114.26C125.159 114.635 125.151 115.01 125.151 115.381ZM121.633 115.473C121.633 115.265 121.641 115.058 121.633 114.851C121.625 114.639 121.693 114.412 121.52 114.224C121.48 114.184 121.52 114.133 121.549 114.085C121.677 113.901 121.673 113.714 121.537 113.542C121.476 113.462 121.444 113.379 121.448 113.283C121.448 113.143 121.396 113.028 121.344 112.9C121.239 112.633 121.151 112.358 121.087 112.078C121.051 111.927 121.018 111.791 120.946 111.648C120.854 111.456 120.729 111.269 120.705 111.045C120.689 110.882 120.609 110.75 120.504 110.634C120.448 110.57 120.408 110.507 120.376 110.427C120.316 110.255 120.083 110.18 119.918 110.267C119.802 110.327 119.806 110.427 119.93 110.638C119.942 110.654 119.958 110.67 119.966 110.69C120.051 110.866 120.002 111.073 119.846 111.221C119.685 111.376 119.685 111.376 119.424 111.241C119.356 111.205 119.32 111.217 119.259 111.261C119.115 111.364 119.079 111.532 118.982 111.663C118.665 112.11 118.432 112.601 118.207 113.095C118.139 113.243 118.014 113.367 117.998 113.534C117.97 113.806 117.765 114.025 117.785 114.308C117.789 114.372 117.729 114.416 117.697 114.468C117.536 114.743 117.38 115.018 117.424 115.361C117.44 115.469 117.448 115.601 117.356 115.688C117.235 115.804 117.243 115.948 117.239 116.095C117.239 116.251 117.239 116.406 117.235 116.562C117.235 116.658 117.235 116.753 117.159 116.821C117.054 116.917 117.058 117.041 117.054 117.168C117.054 117.364 117.054 117.563 117.05 117.759C117.05 117.954 117.054 118.153 117.046 118.349C117.038 118.552 117.131 118.804 116.99 118.955C116.773 119.187 117.135 119.302 117.046 119.486C117.042 119.494 117.046 119.506 117.046 119.518C117.083 119.669 116.886 119.761 116.918 119.877C116.958 120.008 117.066 120.12 117.05 120.276C117.014 120.623 117.066 120.95 117.251 121.253C117.34 121.4 117.388 121.592 117.492 121.708C117.761 122.007 118.022 122.318 118.356 122.553C118.492 122.649 118.593 122.633 118.717 122.529C119.01 122.29 119.171 121.947 119.396 121.656C119.5 121.52 119.577 121.341 119.705 121.209C119.749 121.165 119.781 121.117 119.802 121.053C119.914 120.734 120.095 120.447 120.235 120.144C120.36 119.877 120.553 119.649 120.581 119.334C120.597 119.175 120.653 118.995 120.753 118.875C121.051 118.528 121.103 118.09 121.251 117.687C121.356 117.404 121.504 117.116 121.46 116.793C121.46 116.765 121.472 116.725 121.492 116.709C121.649 116.562 121.629 116.37 121.629 116.187C121.629 115.948 121.629 115.708 121.629 115.469L121.633 115.473Z" fill="#64B4F7"/>
<path d="M137.73 124.688C137.533 124.688 137.332 124.688 137.136 124.688C137.011 124.688 136.875 124.696 136.766 124.64C136.441 124.473 136.095 124.508 135.754 124.504C135.557 124.504 135.36 124.52 135.192 124.373C135.095 124.289 134.951 124.321 134.826 124.321C134.629 124.317 134.429 124.341 134.268 124.181C134.216 124.13 134.131 124.138 134.059 124.134C133.963 124.13 133.874 124.114 133.802 124.038C133.766 124.002 133.71 123.958 133.674 123.962C133.413 123.998 133.236 123.794 133.003 123.743C132.955 123.731 132.915 123.691 132.874 123.663C132.67 123.503 132.501 123.3 132.264 123.184C132.119 123.112 132.119 122.941 132.035 122.821C131.858 122.57 131.71 122.307 131.742 121.968C131.77 121.648 131.77 121.321 131.742 121.002C131.71 120.699 131.738 120.4 131.742 120.097C131.742 119.782 131.726 119.47 131.778 119.151C131.81 118.952 131.742 118.74 131.802 118.533C131.878 118.266 131.975 118.003 131.955 117.715C131.951 117.64 131.999 117.58 132.051 117.524C132.079 117.492 132.111 117.452 132.091 117.412C131.947 117.177 132.143 117.017 132.224 116.842C132.268 116.746 132.316 116.662 132.32 116.555C132.32 116.515 132.312 116.463 132.332 116.431C132.525 116.116 132.537 115.729 132.75 115.422C132.906 115.198 132.943 114.895 133.2 114.736C133.216 114.728 133.232 114.7 133.232 114.684C133.22 114.257 133.621 114.045 133.75 113.694C133.762 113.667 133.798 113.643 133.798 113.615C133.794 113.1 134.236 112.789 134.388 112.35C134.409 112.29 134.461 112.25 134.509 112.211C134.557 112.171 134.625 112.131 134.637 112.079C134.754 111.624 135.224 111.528 135.493 111.229C135.545 111.169 135.621 111.161 135.694 111.161C135.822 111.157 135.943 111.138 136.039 111.038C136.095 110.982 136.172 110.974 136.244 110.974C136.425 110.974 136.597 110.958 136.746 110.834C136.77 110.814 136.802 110.802 136.834 110.802C137.24 110.775 137.65 110.779 138.055 110.794C138.067 110.794 138.079 110.794 138.087 110.798C138.405 111.058 138.782 110.942 139.14 110.966C139.172 110.966 139.204 110.97 139.232 110.966C139.626 110.914 139.963 111.058 140.276 111.273C140.389 111.353 140.533 111.397 140.65 111.417C140.939 111.461 141.188 111.616 141.469 111.672C141.69 111.716 141.851 111.883 142.059 111.951C142.164 111.983 142.256 112.063 142.365 112.099C142.489 112.143 142.586 112.231 142.606 112.362C142.626 112.498 142.698 112.593 142.798 112.669C143.007 112.829 143.08 113.084 143.156 113.3C143.232 113.507 143.292 113.75 143.397 113.93C143.586 114.257 143.521 114.588 143.566 114.919C143.594 115.13 143.529 115.366 143.682 115.561C143.722 115.613 143.694 115.657 143.658 115.701C143.517 115.888 143.509 116.08 143.65 116.271C143.694 116.331 143.714 116.383 143.662 116.435C143.537 116.551 143.562 116.702 143.558 116.842C143.558 117.141 143.558 117.444 143.558 117.747C143.558 117.875 143.554 117.995 143.449 118.094C143.349 118.194 143.377 118.326 143.373 118.449C143.369 118.593 143.385 118.744 143.256 118.852C143.236 118.872 143.208 118.908 143.212 118.932C143.252 119.271 143.06 119.562 142.999 119.877C142.951 120.133 142.831 120.364 142.73 120.595C142.638 120.803 142.549 121.006 142.489 121.222C142.453 121.353 142.413 121.477 142.345 121.597C142.24 121.784 142.116 121.968 142.055 122.179C142.007 122.338 141.867 122.45 141.738 122.558C141.642 122.638 141.561 122.717 141.529 122.853C141.497 123.009 141.353 123.104 141.248 123.216C141.076 123.396 140.899 123.567 140.714 123.735C140.618 123.822 140.529 123.934 140.377 123.942C140.324 123.942 140.276 123.974 140.248 124.022C140.092 124.265 139.802 124.305 139.585 124.457C139.481 124.528 139.341 124.497 139.216 124.497C139.039 124.497 138.863 124.489 138.714 124.624C138.642 124.688 138.537 124.68 138.445 124.68C138.216 124.68 137.983 124.68 137.754 124.68L137.73 124.688ZM140.027 115.837C140.027 115.422 140.027 115.007 140.027 114.592C140.027 114.385 140.055 114.177 139.887 114.006C139.851 113.97 139.847 113.89 139.847 113.826C139.834 113.555 139.638 113.363 139.549 113.124C139.533 113.08 139.485 113.02 139.445 113.016C139.272 112.988 139.156 112.845 138.999 112.809C138.838 112.769 138.758 112.693 138.766 112.534C138.774 112.35 138.642 112.254 138.521 112.159C138.409 112.067 138.272 112.107 138.224 112.246C138.18 112.374 138.087 112.454 138.011 112.55C137.959 112.613 137.883 112.657 137.854 112.741C137.75 113.06 137.549 113.335 137.417 113.647C137.264 114.002 136.955 114.281 136.923 114.692C136.923 114.7 136.919 114.712 136.911 114.72C136.722 114.907 136.67 115.178 136.501 115.378C136.453 115.434 136.397 115.493 136.401 115.565C136.417 115.821 136.24 116.008 136.144 116.215C136.015 116.495 135.814 116.734 135.814 117.061C135.814 117.101 135.798 117.149 135.77 117.173C135.65 117.284 135.638 117.424 135.634 117.572C135.634 117.647 135.613 117.715 135.565 117.775C135.457 117.919 135.449 118.082 135.449 118.25C135.449 118.425 135.461 118.605 135.441 118.78C135.417 118.984 135.473 119.203 135.364 119.391C135.276 119.542 135.26 119.702 135.26 119.869C135.26 120.587 135.26 121.301 135.26 122.019C135.26 122.219 135.276 122.398 135.405 122.578C135.485 122.69 135.589 122.817 135.613 122.949C135.662 123.192 135.81 123.208 136.003 123.204C136.232 123.204 136.441 123.232 136.662 123.34C136.871 123.443 137.144 123.447 137.348 123.22C137.585 122.961 137.826 122.709 138.047 122.43C138.276 122.139 138.417 121.788 138.706 121.541C138.726 121.521 138.75 121.485 138.75 121.461C138.734 121.218 138.891 121.038 138.959 120.827C139.003 120.683 139.108 120.583 139.16 120.448C139.292 120.109 139.401 119.762 139.465 119.407C139.493 119.259 139.63 119.191 139.65 119.056C139.686 118.8 139.786 118.553 139.826 118.306C139.939 117.647 140.104 116.989 140.035 116.307C140.019 116.152 140.035 115.996 140.035 115.84L140.027 115.837Z" fill="#64B4F7"/>
<g clip-path="url(#clip1_1025_1637)">
<path d="M193 110.842C192.915 110.852 192.87 110.9 192.875 110.985C192.888 111.225 192.732 111.392 192.631 111.581C192.617 111.605 192.588 111.629 192.588 111.653C192.58 111.831 192.463 111.932 192.338 112.031C192.317 112.047 192.293 112.076 192.291 112.1C192.285 112.225 192.198 112.305 192.129 112.395C192.067 112.475 192.044 112.592 191.988 112.651C191.874 112.768 191.826 112.914 191.773 113.053C191.706 113.218 191.573 113.34 191.528 113.513C191.52 113.545 191.491 113.571 191.47 113.601C191.318 113.806 191.201 114.026 191.09 114.255C190.992 114.46 190.917 114.684 190.723 114.838C190.649 114.899 190.593 115.037 190.577 115.133C190.548 115.312 190.41 115.391 190.322 115.514C190.24 115.628 190.11 115.705 190.104 115.868C189.934 116.019 189.918 116.277 189.714 116.41C189.621 116.472 189.631 116.613 189.546 116.703C189.485 116.767 189.429 116.847 189.366 116.911C189.291 116.982 189.22 117.046 189.217 117.158C189.217 117.195 189.185 117.219 189.164 117.248C189.081 117.36 188.999 117.472 188.935 117.602C188.864 117.746 188.717 117.858 188.595 117.975C188.553 118.015 188.497 118.041 188.5 118.105C188.505 118.233 188.415 118.299 188.34 118.371C187.899 118.792 187.477 119.231 187.06 119.678C187.028 119.712 186.996 119.744 186.953 119.742C186.826 119.731 186.759 119.827 186.688 119.899C186.512 120.074 186.329 120.228 186.101 120.343C185.976 120.404 185.843 120.495 185.715 120.556C185.529 120.646 185.357 120.75 185.192 120.87C185.126 120.918 185.041 120.904 184.964 120.907C184.871 120.91 184.778 120.899 184.703 120.976C184.677 121.003 184.637 121.013 184.608 120.984C184.517 120.886 184.398 120.91 184.286 120.907C184.185 120.904 184.087 120.904 183.986 120.904C183.877 120.904 183.779 120.896 183.688 120.814C183.606 120.739 183.489 120.734 183.383 120.739C183.221 120.75 183.104 120.675 183.016 120.558C182.958 120.484 182.907 120.433 182.806 120.455C182.65 120.487 182.559 120.364 182.453 120.284C182.411 120.252 182.427 120.21 182.461 120.175C182.591 120.045 182.721 119.915 182.852 119.784C182.862 119.773 182.875 119.76 182.886 119.76C183.099 119.784 183.247 119.632 183.425 119.571C183.492 119.547 183.545 119.529 183.548 119.449C183.553 119.374 183.513 119.332 183.449 119.3C183.293 119.223 183.149 119.127 182.955 119.13C182.825 119.13 182.727 119.021 182.697 118.882C182.682 118.81 182.674 118.744 182.599 118.704C182.575 118.693 182.551 118.664 182.546 118.64C182.496 118.44 182.397 118.265 182.288 118.092C182.264 118.052 182.267 117.996 182.262 117.946C182.254 117.874 182.241 117.799 182.193 117.746C182.132 117.68 182.118 117.597 182.092 117.515C182.049 117.382 181.991 117.249 181.911 117.137C181.853 117.052 181.834 116.972 181.831 116.879C181.831 116.823 181.845 116.748 181.8 116.714C181.675 116.618 181.656 116.493 181.661 116.352C181.661 116.299 181.637 116.256 181.6 116.219C181.558 116.176 181.539 116.123 181.537 116.064C181.537 115.942 181.537 115.822 181.404 115.748C181.367 115.727 181.369 115.671 181.367 115.628C181.367 115.532 181.356 115.442 181.276 115.373C181.266 115.365 181.252 115.349 181.252 115.338C181.274 115.104 181.111 114.912 181.098 114.686C181.093 114.606 181.098 114.527 181.032 114.465C180.939 114.378 180.926 114.269 180.928 114.149C180.928 114.048 180.936 113.947 180.846 113.872C180.835 113.864 180.822 113.848 180.822 113.838C180.822 113.537 180.593 113.287 180.628 112.975C180.639 112.882 180.628 112.789 180.551 112.717C180.5 112.669 180.5 112.6 180.5 112.536C180.5 112.414 180.5 112.292 180.498 112.172C180.498 112.05 180.508 111.93 180.402 111.834C180.357 111.794 180.368 111.728 180.368 111.669C180.368 111.03 180.373 110.395 180.362 109.756C180.362 109.618 180.479 109.546 180.492 109.426C180.506 109.306 180.535 109.2 180.58 109.086C180.673 108.851 180.864 108.716 181.013 108.543C181.077 108.471 181.141 108.386 181.255 108.38C181.3 108.38 181.332 108.346 181.356 108.306C181.374 108.274 181.396 108.234 181.433 108.237C181.6 108.247 181.696 108.066 181.863 108.077C181.882 108.077 181.911 108.064 181.919 108.048C181.993 107.902 182.129 107.92 182.256 107.92C182.379 107.92 182.498 107.925 182.597 107.827C182.65 107.774 182.732 107.787 182.804 107.787C183.213 107.787 183.619 107.787 184.028 107.787C184.148 107.787 184.257 107.803 184.331 107.907C184.435 108.051 184.602 108.133 184.748 108.173C184.926 108.221 185.041 108.351 185.211 108.407C185.511 108.503 185.753 108.694 185.917 108.995C186.042 109.219 186.162 109.421 186.207 109.684C186.239 109.868 186.313 110.051 186.329 110.243C186.34 110.349 186.332 110.458 186.337 110.565C186.337 110.607 186.337 110.658 186.388 110.674C186.443 110.693 186.451 110.631 186.478 110.605C186.728 110.363 186.959 110.099 187.235 109.892C187.421 109.751 187.596 109.588 187.79 109.469C187.934 109.381 188.088 109.293 188.253 109.227C188.391 109.171 188.571 109.149 188.672 109.003C188.683 108.987 188.707 108.966 188.723 108.968C188.978 109 189.177 108.774 189.437 108.814C189.586 108.835 189.754 108.854 189.86 108.686C189.886 108.647 189.953 108.655 190.001 108.655C190.402 108.655 190.803 108.655 191.201 108.655C191.292 108.655 191.363 108.676 191.417 108.764C191.494 108.891 191.621 109 191.738 109.064C191.876 109.139 192.022 109.256 192.2 109.248C192.328 109.243 192.421 109.293 192.495 109.386C192.562 109.469 192.631 109.548 192.718 109.612C192.822 109.69 192.872 109.791 192.862 109.926C192.851 110.033 192.862 110.142 192.862 110.248C192.862 110.336 192.886 110.405 192.989 110.413V110.844L193 110.842ZM185.614 117.35C185.628 117.392 185.591 117.477 185.662 117.507C185.75 117.544 185.769 117.432 185.827 117.4C185.843 117.392 185.859 117.368 185.864 117.35C185.923 117.123 186.098 116.982 186.241 116.817C186.316 116.732 186.435 116.671 186.459 116.562C186.491 116.416 186.595 116.333 186.682 116.235C186.712 116.203 186.749 116.182 186.762 116.139C186.842 115.892 187.044 115.719 187.163 115.495C187.224 115.378 187.357 115.304 187.349 115.144C187.349 115.117 187.381 115.083 187.405 115.059C187.511 114.95 187.604 114.849 187.671 114.692C187.742 114.519 187.878 114.356 188.005 114.207C188.141 114.05 188.175 113.832 188.343 113.699C188.364 113.683 188.367 113.63 188.361 113.598C188.34 113.425 188.438 113.316 188.555 113.218C188.593 113.186 188.643 113.162 188.651 113.106C188.686 112.864 188.893 112.717 188.978 112.494C189.047 112.313 189.19 112.156 189.235 111.954C189.246 111.909 189.291 111.887 189.31 111.853C189.36 111.754 189.491 111.722 189.512 111.611C189.53 111.52 189.576 111.454 189.637 111.392C189.756 111.275 189.854 111.15 189.825 110.967C189.815 110.905 189.865 110.863 189.905 110.823C189.926 110.799 189.932 110.77 189.905 110.748C189.892 110.738 189.854 110.727 189.849 110.735C189.761 110.834 189.615 110.828 189.525 110.929C189.398 111.073 189.344 111.289 189.127 111.352C189.108 111.358 189.092 111.398 189.084 111.424C189.052 111.512 189.002 111.573 188.903 111.587C188.85 111.595 188.805 111.626 188.802 111.682C188.794 111.845 188.683 111.93 188.574 112.026C188.494 112.095 188.391 112.172 188.38 112.27C188.359 112.433 188.263 112.526 188.152 112.611C188.109 112.643 188.072 112.677 188.072 112.731C188.072 112.837 188 112.896 187.944 112.967C187.897 113.029 187.825 113.069 187.793 113.146C187.684 113.412 187.495 113.625 187.323 113.848C187.267 113.923 187.222 113.992 187.19 114.082C187.139 114.226 187.076 114.388 186.967 114.484C186.797 114.63 186.802 114.875 186.624 115.006C186.56 115.245 186.459 115.469 186.318 115.668C186.202 115.83 186.18 116.041 186.04 116.187C185.933 116.296 185.899 116.434 185.888 116.578C185.872 116.783 185.753 116.943 185.676 117.121C185.644 117.195 185.614 117.262 185.614 117.358V117.35ZM183.553 110.855C183.553 110.52 183.553 110.184 183.553 109.846C183.553 109.761 183.532 109.687 183.423 109.687C183.332 109.687 183.301 109.748 183.295 109.828C183.287 109.913 183.29 110.009 183.226 110.07C183.128 110.16 183.128 110.267 183.128 110.384C183.128 110.52 183.128 110.655 183.128 110.791C183.128 110.868 183.123 110.951 183.189 111.012C183.247 111.065 183.213 111.102 183.181 111.158C183.085 111.315 183.107 111.493 183.162 111.653C183.197 111.746 183.282 111.81 183.17 111.906C183.128 111.94 183.168 111.986 183.205 112.01C183.287 112.06 183.295 112.135 183.277 112.214C183.245 112.358 183.295 112.499 183.303 112.64C183.303 112.667 183.322 112.699 183.356 112.699C183.388 112.699 183.409 112.675 183.412 112.646C183.42 112.574 183.423 112.505 183.425 112.433C183.433 112.265 183.394 112.089 183.532 111.948C183.574 111.906 183.553 111.823 183.556 111.76C183.556 111.459 183.556 111.158 183.556 110.86L183.553 110.855Z" fill="#FCE52F"/>
</g>
<path d="M71.0928 24C71.1513 24.0319 71.2177 24.0452 71.2788 24.0346C71.4568 24.0106 71.5976 24.0851 71.7224 24.1996C71.9243 24.3885 72.1528 24.5641 72.2883 24.8009C72.4105 25.0164 72.5194 25.2505 72.5115 25.5246C72.4982 26.0407 72.5062 26.5569 72.5115 27.0704C72.5115 27.1902 72.4849 27.3152 72.5912 27.4137C72.631 27.4482 72.6044 27.4882 72.5752 27.5254C72.4743 27.6611 72.4822 27.8074 72.5646 27.9431C72.5991 27.999 72.6177 28.0336 72.5699 28.0895C72.4822 28.1932 72.4902 28.297 72.5832 28.3954C72.631 28.446 72.631 28.4992 72.5805 28.5444C72.5062 28.611 72.5088 28.6961 72.5088 28.7812C72.5088 29.0899 72.5141 29.3959 72.4876 29.7045C72.4849 29.7471 72.4955 29.8003 72.4557 29.8216C72.3255 29.8907 72.3468 30.0105 72.3468 30.1222C72.3468 30.3377 72.3468 30.5533 72.3441 30.7661C72.3441 30.9151 72.3654 31.0641 72.2405 31.1892C72.19 31.2397 72.2139 31.3275 72.2139 31.3967C72.2139 31.7559 72.2139 32.1124 72.2139 32.4716C72.2139 32.5807 72.2139 32.6845 72.1316 32.7749C72.0731 32.8388 72.0864 32.9213 72.0837 33.0011C72.0784 33.1793 72.0944 33.3576 72.0572 33.5359C72.0386 33.6263 72.0333 33.7195 71.9615 33.7913C71.9137 33.8392 71.9164 33.911 71.9164 33.9749C71.9164 34.1186 71.9164 34.2622 71.9164 34.4059C71.9164 34.507 71.9164 34.6055 71.8314 34.6826C71.7782 34.7279 71.7862 34.7997 71.7835 34.8636C71.7835 34.9859 71.7835 35.1083 71.7835 35.2281C71.7835 35.3478 71.8021 35.4755 71.664 35.5474C71.6241 35.5686 71.6241 35.6219 71.6162 35.6618C71.5843 35.8187 71.486 35.9119 71.3372 35.9465C71.2602 35.9624 71.215 35.997 71.1672 36.0582C71.0902 36.1593 70.9706 36.2045 70.8617 36.2684C70.6864 36.3722 70.511 36.3695 70.3304 36.3855C70.2958 36.3881 70.2454 36.3961 70.2321 36.4201C70.155 36.5664 69.9691 36.5212 69.8708 36.6302C69.8495 36.6542 69.8123 36.6569 69.7937 36.6302C69.7007 36.5212 69.637 36.5983 69.5413 36.6462C69.3979 36.7181 69.2332 36.6835 69.0791 36.6595C69.01 36.6489 69.01 36.5877 69.0658 36.5504C69.1428 36.4972 69.1641 36.4334 69.1322 36.3482C69.0977 36.2551 69.018 36.2498 68.9383 36.2498C68.6248 36.2498 68.3087 36.2498 67.9952 36.2498C67.8809 36.2498 67.7826 36.2072 67.6764 36.17C67.509 36.1114 67.3629 36.0156 67.2141 35.9358C66.983 35.8134 66.7014 35.7762 66.5181 35.5633C66.5021 35.5447 66.4703 35.5261 66.4437 35.5261C66.2896 35.5207 66.2126 35.4037 66.1143 35.3132C65.9602 35.1722 65.83 35.0046 65.6228 34.9168C65.4634 34.8503 65.3465 34.6986 65.2243 34.5709C65.0808 34.4219 64.9533 34.2622 64.7381 34.2117C64.7009 34.2037 64.6797 34.1744 64.6558 34.1478C64.4725 33.9536 64.2838 33.7647 64.0899 33.5784C63.7844 33.2858 63.4683 32.9984 63.1946 32.6738C63.1707 32.6445 63.1521 32.61 63.1149 32.6073C62.8652 32.5834 62.7642 32.3811 62.6474 32.2082C62.5889 32.1231 62.5544 32.0353 62.4375 32.0246C62.3498 32.0166 62.3232 31.9235 62.2648 31.873C61.9593 31.6175 61.6883 31.3275 61.4253 31.0322C61.2925 30.8832 61.1862 30.7023 61.1782 30.4867C61.1756 30.4229 61.1649 30.351 61.1145 30.3085C61.0055 30.234 61.0002 30.1329 61.0002 30.0238C61.0002 29.9094 61.0002 29.795 61.0002 29.6806C60.9976 29.5262 61.0162 29.3879 61.1198 29.2575C61.1968 29.1617 61.1942 29.0207 61.2872 28.9196C61.3642 28.8371 61.4333 28.7493 61.5263 28.6801C61.5927 28.6296 61.6617 28.5737 61.7122 28.5045C61.845 28.3183 62.0124 28.164 62.1984 28.0389C62.3817 27.9139 62.5756 27.7968 62.8227 27.8207C63.0644 27.842 63.3062 27.7835 63.548 27.8207C63.617 27.8314 63.6994 27.8287 63.7392 27.7569C63.795 27.6558 63.888 27.6584 63.981 27.6584C64.3396 27.6584 64.6956 27.6584 65.0543 27.6584C65.1659 27.6584 65.2695 27.6744 65.3492 27.7595C65.3837 27.7968 65.4315 27.8181 65.482 27.8207C65.5643 27.8261 65.6281 27.8686 65.6866 27.9245C65.8778 28.1001 66.1408 28.1826 66.3135 28.3875C66.4331 28.5258 66.5606 28.6589 66.7147 28.7626C66.7492 28.7866 66.7811 28.8158 66.8236 28.8265C66.8794 28.8398 66.9352 28.8265 66.9431 28.7706C66.9617 28.6402 67.0016 28.5072 66.8927 28.3848C66.7705 28.2491 66.7784 28.2252 66.898 28.0841C66.975 27.9937 66.975 27.9272 66.9033 27.8394C66.7837 27.6957 66.7811 27.6771 66.89 27.5334C66.9963 27.3977 66.9803 27.2567 66.9139 27.113C66.898 27.0757 66.8369 27.0438 66.8661 27.0039C66.9378 26.9134 66.9671 26.8363 66.8688 26.7485C66.8634 26.7432 66.8634 26.7166 66.8688 26.7086C67.0175 26.5409 66.9405 26.3387 66.9564 26.1525C66.9644 26.0673 66.9617 25.9822 67.0361 25.9184C67.1025 25.8598 67.0627 25.7587 67.1079 25.7002C67.2673 25.49 67.3629 25.2319 67.5754 25.0616C67.8198 24.8647 68.0271 24.6332 68.2422 24.4071C68.2954 24.3512 68.3432 24.3113 68.4202 24.3033C68.4335 24.3033 68.4521 24.3033 68.4627 24.2953C68.6806 24.1171 68.9383 24.1862 69.1827 24.1729C69.281 24.1676 69.3846 24.1862 69.4616 24.0984C69.4962 24.0612 69.536 24.0745 69.5732 24.1064C69.6848 24.2022 69.7911 24.1889 69.8973 24.0905C69.9877 24.0053 70.1231 24.0612 70.2214 24H71.0795H71.0928ZM65.5112 31.1812C65.5112 31.1147 65.5032 31.0561 65.4395 31.0162C65.296 30.9231 65.1818 30.7954 65.0782 30.657C65.0277 30.5878 64.9639 30.5799 64.8922 30.5852C64.863 30.5852 64.8364 30.5958 64.8231 30.6251C64.8099 30.657 64.8231 30.6783 64.8471 30.6996C64.94 30.7954 65.033 30.8938 65.126 30.9896C65.2323 31.1014 65.3545 31.1785 65.5165 31.1785C65.5272 31.2716 65.482 31.4047 65.6201 31.426C65.8141 31.4579 65.8885 31.5936 65.9469 31.7479C65.9735 31.8144 66.0027 31.8596 66.0718 31.8783C66.1116 31.8889 66.1594 31.8996 66.1887 31.9262C66.4596 32.1656 66.7386 32.3944 66.9644 32.6765C67.0707 32.8069 67.2062 32.8947 67.3204 33.0091C67.3602 33.0463 67.4213 33.0676 67.4798 33.0357C67.5409 33.0037 67.5329 32.9399 67.5329 32.884C67.5329 32.8494 67.5276 32.8122 67.5143 32.7802C67.4001 32.4743 67.1397 32.288 66.9245 32.0672C66.9113 32.0539 66.8847 32.0459 66.8661 32.0459C66.7147 32.0512 66.6403 31.9395 66.5579 31.8437C66.5207 31.7985 66.4915 31.7426 66.4278 31.7452C66.2949 31.7479 66.2073 31.6601 66.1462 31.5723C65.9868 31.3488 65.7397 31.2849 65.5139 31.1812H65.5112ZM69.5892 28.6083C69.5892 28.6589 69.5892 28.7094 69.5892 28.7573C69.6024 28.9648 69.5413 29.1857 69.6981 29.3719C69.7273 29.4065 69.7167 29.481 69.7193 29.5395C69.722 29.7551 69.7193 29.9679 69.7246 30.1834C69.7246 30.2393 69.7326 30.2978 69.7406 30.3537C69.7459 30.383 69.7672 30.4043 69.799 30.4096C69.8415 30.4149 69.8708 30.3856 69.8734 30.3484C69.884 30.2632 69.8894 30.1781 69.8894 30.093C69.892 29.8641 69.908 29.6327 69.8894 29.4065C69.8681 29.175 69.9983 28.9489 69.9 28.7147C69.8761 28.6562 69.9159 28.5923 69.9664 28.5444C70.0089 28.5072 70.0089 28.462 69.9797 28.4087C69.8601 28.1826 69.8548 27.8686 69.9717 27.6425C69.9956 27.5972 69.9877 27.568 69.9637 27.5254C69.8495 27.3259 69.8548 27.121 69.9611 26.9214C69.9823 26.8789 70.0036 26.8416 69.9664 26.807C69.8681 26.7139 69.9 26.5942 69.8894 26.4851C69.8814 26.4159 69.908 26.3281 69.8548 26.2775C69.7725 26.2004 69.7193 26.1179 69.7034 26.0062C69.6981 25.9662 69.6609 25.9476 69.621 25.9556C69.5838 25.9636 69.5599 25.9955 69.5599 26.0354C69.5599 26.078 69.5626 26.1206 69.5706 26.1631C69.5812 26.2376 69.5812 26.3015 69.5254 26.3627C69.4324 26.4638 69.4484 26.5596 69.5254 26.6713C69.621 26.8123 69.629 26.9613 69.5148 27.105C69.443 27.1955 69.4324 27.2966 69.5148 27.3764C69.6051 27.4642 69.5148 27.5094 69.4962 27.576C69.4723 27.6531 69.6184 27.685 69.5626 27.7808C69.5599 27.7861 69.5546 27.7941 69.5493 27.7995C69.4802 27.8553 69.4696 27.9085 69.5413 27.9751C69.5998 28.0283 69.5892 28.1081 69.5892 28.1773C69.5892 28.3209 69.5892 28.4646 69.5892 28.6056V28.6083Z" fill="#FCE52F"/>
<defs>
<clipPath id="clip0_1025_1637">
<rect width="96" height="34" fill="white" transform="translate(85 14)"/>
</clipPath>
<clipPath id="clip1_1025_1637">
<rect width="147" height="32" fill="white" transform="translate(46 89)"/>
</clipPath>
</defs>
</svg>
