<svg width="252" height="147" viewBox="0 0 252 147" fill="none" xmlns="http://www.w3.org/2000/svg">
<g clip-path="url(#clip0_1025_1449)">
<path d="M56.0537 116.683C56.0537 115.866 56.0419 115.049 56.0537 114.232C56.0655 113.711 56.0655 113.22 56.2715 112.687C56.501 112.107 56.3833 111.403 56.3126 110.758C56.2773 110.432 55.9772 110.444 55.7712 110.586C55.1767 111 54.4528 111.225 53.982 111.811C53.8054 112.024 53.5288 112.095 53.3346 112.137C52.6401 112.279 52.181 112.995 51.4041 112.906C51.3453 112.9 51.257 112.906 51.2158 112.954C50.127 113.966 48.7498 113.717 47.4726 113.782C45.7952 113.865 44.1061 113.688 42.4287 113.741C41.3222 113.776 40.2452 113.64 39.1976 113.445C38.4678 113.309 37.7144 113.042 36.9964 112.729C35.8958 112.243 34.9365 111.48 33.8006 111.077C33.7417 111.054 33.6828 111.024 33.6299 110.977C32.1703 109.686 30.6106 108.491 29.3747 106.981C28.5036 105.916 27.6679 104.803 27.1911 103.471C27.0146 102.98 26.7733 102.506 26.5084 102.057C26.3907 101.855 26.326 101.672 26.326 101.453C26.3318 100.731 25.861 100.074 26.0611 99.328C26.2141 98.7597 26.3318 98.1856 26.3318 97.5937C26.3318 96.4454 26.3142 95.303 26.3495 94.1547C26.3613 93.6398 26.1612 93.0834 26.5496 92.6158C26.2612 92.1955 26.6967 91.8463 26.6497 91.4319C26.6085 91.0531 26.6673 90.6684 26.7968 90.2718C26.8851 89.9995 26.9498 89.6207 26.9322 89.2774C26.9145 88.9992 26.7497 88.9341 26.5143 88.8808C25.861 88.7329 25.1901 88.8335 24.5427 88.8335C23.3008 88.8335 22.0707 88.6559 20.8524 88.5316C19.9402 88.4369 18.9573 88.3422 18.0686 87.9634C17.3682 87.6615 16.5737 87.6378 15.8968 87.3478C15.3495 87.117 14.7609 87.1702 14.2195 86.8743C13.8428 86.6671 13.319 86.7204 12.8717 86.5191C12.0183 86.1285 11.0648 86.0693 10.1938 85.6905C9.59345 85.43 8.93427 85.288 8.32806 85.0098C7.49821 84.631 6.74486 84.1574 6.00329 83.5833C5.00864 82.8138 4.21998 81.8786 3.32538 81.0263C2.54261 80.2805 2.07765 79.3156 1.60092 78.3627C1.29488 77.753 1.06534 77.1019 0.800495 76.4804C0.612158 76.0247 0.429708 75.5215 0.364967 74.9829C0.270799 74.1957 0.0765769 73.4203 0.0589203 72.6212C0.0471493 72.0944 -0.0411334 71.5676 0.0589203 71.0349C0.11189 70.7449 0.0942334 70.4371 0.0883479 70.1411C0.0883479 69.0283 0.0765769 67.9215 0.311997 66.8264C0.353196 66.6252 0.276684 66.4299 0.311997 66.2049C0.435593 65.3822 0.747525 64.6009 0.712212 63.7367C0.676899 62.8548 0.965289 62.0024 1.19482 61.1442C1.33608 60.6233 1.62447 60.1083 1.5715 59.5342C1.54207 59.2145 1.74218 59.0074 1.86577 58.7647C2.15416 58.1905 2.25422 57.5513 2.48375 56.9594C2.61912 56.6161 2.88985 56.3675 3.06642 56.0419C3.50195 55.2133 4.03164 54.4497 4.58488 53.6861C5.30291 52.6917 6.22105 51.9282 7.06268 51.0699C7.71597 50.407 8.45166 49.8092 9.19324 49.2765C10.0937 48.6254 11.0707 48.0394 12.1066 47.5836C12.8246 47.264 13.5838 47.1397 14.3313 46.9503C15.1023 46.7549 15.8439 46.7431 16.609 46.7194C16.8738 46.7135 17.1387 46.6898 17.3506 46.9148C17.4212 46.9917 17.5507 47.0213 17.6272 46.9621C17.9509 46.6957 18.2216 46.82 18.6042 46.897C19.1044 47.0035 19.6577 47.116 20.1991 47.0154C20.4758 46.9621 20.8642 47.1811 21.0055 46.8378C21.1526 46.4827 20.7877 46.2932 20.5758 46.0683C20.1815 45.6481 19.8813 45.145 19.5282 44.7069C19.0691 44.1387 18.663 43.5586 18.3393 42.9076C18.1333 42.4873 17.8096 42.1085 17.8803 41.5876C17.9038 41.4219 17.8685 41.2502 17.739 41.1259C17.6272 41.0135 17.533 40.83 17.6036 40.7234C17.9038 40.2617 17.5742 39.8296 17.586 39.3857C17.5977 39.0424 17.533 38.6813 17.8096 38.3972C17.8567 38.344 17.8803 38.2374 17.8685 38.1605C17.7331 37.4561 18.1157 36.8464 18.2275 36.1894C18.3511 35.4791 18.7101 34.8103 19.1456 34.2125C19.4281 33.8218 19.5341 33.3542 19.746 32.9339C20.3404 31.7738 21.235 30.809 21.7117 29.5778C21.8412 29.2523 22.1178 28.9741 22.3415 28.6959C23.3008 27.4647 24.2484 26.2217 25.4667 25.2214C26.2553 24.5762 27.0558 23.9251 27.9268 23.4398C28.6095 23.055 29.2334 22.5638 29.922 22.2323C31.0403 21.6937 32.0879 21.013 33.2061 20.5217C34.2067 20.0837 35.2661 19.7049 36.3608 19.4563C37.067 19.2965 37.8145 19.326 38.509 18.9768C38.8562 18.7992 39.3565 18.9295 39.7861 18.9295C40.0804 18.9295 40.3806 18.9591 40.6278 18.7164C40.6925 18.6572 40.8161 18.6217 40.9044 18.6394C41.8755 18.8052 42.8172 18.5092 43.7177 18.2902C45.8659 17.7634 48.02 18.1541 50.1623 18.0475C50.998 18.0061 51.7985 18.3553 52.6107 18.5506C53.0521 18.6572 53.4641 18.8466 53.9055 18.965C54.3292 19.0774 54.7765 19.1899 55.1826 19.3971C55.2827 19.4503 55.3886 19.5036 55.5005 19.5155C56.9189 19.7404 58.1666 20.3382 59.2613 21.2675C59.738 21.6759 60.3325 21.9068 60.7503 22.398C61.3271 23.0846 61.2918 23.8719 61.1505 24.665C61.0858 25.032 60.562 25.1386 60.1912 24.9136C60.0617 24.8367 59.9558 24.7065 59.7969 24.7301C58.9199 24.8544 58.5433 24.2093 58.1195 23.641C57.7311 23.1202 57.3014 22.6407 56.7482 22.2974C56.3421 22.0429 55.8536 22.0547 55.4239 21.8416C54.8648 21.5634 54.1997 21.5871 53.6347 21.2853C53.4994 21.2142 53.311 21.2261 53.1462 21.2261C52.234 21.2261 51.3217 21.2083 50.4154 21.2261C49.868 21.2379 49.3265 21.3326 48.7851 21.4273C48.0553 21.5516 47.349 21.8712 46.5898 21.8239C46.166 21.8002 45.7246 21.7351 45.3597 22.0666C45.3067 22.1139 45.2008 22.1198 45.1184 22.108C44.006 21.9896 42.9113 22.2205 41.8225 22.3566C41.1633 22.4395 40.4865 22.5993 39.8332 22.8301C39.2447 23.0373 38.6855 23.3569 38.0852 23.4635C37.4437 23.5818 37.0199 24.0317 36.4726 24.2744C35.7722 24.5822 35.0659 24.9196 34.4362 25.3457C33.8418 25.7482 33.2179 26.0915 32.5999 26.4526C31.6759 26.9971 30.846 27.6719 29.9573 28.2638C29.6748 28.4532 29.4571 28.7433 29.1922 28.9682C28.6684 29.4062 28.28 29.9626 27.8327 30.4598C26.8027 31.6081 26.12 32.9339 25.3431 34.2361C24.8428 35.0766 24.4956 36.0237 23.8011 36.7517C23.5303 37.0299 23.5774 37.4502 23.4067 37.7935C23.083 38.4564 22.8476 39.1667 22.6711 39.9066C22.5239 40.5281 22.5769 41.1851 22.3179 41.7829C22.2002 42.0552 22.518 42.2861 22.4356 42.5524C22.3179 42.9135 22.4533 43.2686 22.4239 43.606C22.3474 44.4406 22.8241 45.0502 23.1242 45.7369C23.4126 46.4057 23.9011 46.9325 24.4603 47.3528C24.884 47.6665 25.296 48.0216 25.7904 48.2288C25.808 48.2347 25.8257 48.2288 25.8375 48.2406C26.373 48.8207 27.1205 49.1699 27.556 49.8447C27.8915 50.3656 27.8091 50.4958 27.1911 50.4958C26.4437 50.4958 25.6609 50.6497 24.9605 50.4662C22.8535 49.9157 20.723 50.2827 18.6101 50.2294C17.6036 50.2057 16.6031 50.5017 15.7791 51.2179C15.4436 51.5079 14.9787 51.6086 14.5785 51.8276C13.6486 52.3425 12.9423 53.112 12.0889 53.698C11.312 54.2307 10.7529 54.9528 10.0525 55.5447C9.71705 55.8288 9.42277 56.184 9.16969 56.551C9.0461 56.7345 8.9637 56.9179 8.73417 56.989C8.70474 57.0008 8.65765 57.0245 8.65765 57.0422C8.65765 57.7466 8.01613 58.0958 7.7454 58.6641C7.46289 59.2619 6.99205 59.8064 6.83903 60.4575C6.66835 61.1619 6.45059 61.8781 6.17397 62.5174C5.78552 63.4111 5.92089 64.3641 5.60307 65.2638C5.33234 66.0451 5.23229 66.9448 5.32057 67.8208C5.35 68.1346 5.36177 68.4542 5.10869 68.7146C5.00275 68.8271 5.04395 68.9987 5.02629 69.1467C4.97332 69.5966 4.94978 70.0523 4.89093 70.4963C4.83796 70.8869 4.67905 71.2894 4.71436 71.7274C4.7791 72.5206 4.80264 73.3315 4.71436 74.1246C4.60254 75.1841 4.92624 76.1845 5.08515 77.1966C5.17932 77.8004 5.43828 78.4455 5.70313 79.0493C5.95032 79.6175 6.14454 80.2153 6.46824 80.7421C6.95086 81.5294 7.38638 82.3876 8.21624 82.8493C8.85188 83.2045 9.54048 83.5182 10.2762 83.5892C10.9353 83.6543 11.5298 83.8674 12.1124 84.1456C12.1713 84.1752 12.236 84.187 12.3008 84.1929C13.0482 84.2462 13.731 84.554 14.449 84.7316C14.9316 84.85 15.4436 84.8973 15.8968 85.1104C16.4795 85.3827 17.1446 85.3176 17.7155 85.6076C17.7567 85.6313 17.8096 85.6668 17.8567 85.6609C18.7278 85.5425 19.5047 86.0338 20.3698 86.0101C21.9236 85.9687 23.4891 86.0515 25.0429 85.9746C25.9081 85.9331 26.7674 85.7023 27.6208 85.4833C28.1505 85.3472 28.6272 85.0453 29.2275 85.0749C29.8749 85.1045 30.4046 85.3353 30.8931 85.7023C31.2521 85.9746 31.7112 85.9805 32.0938 86.2528C32.3998 86.4718 32.7 86.7322 33.0943 86.8684C33.5122 87.0104 33.5887 87.8272 33.2591 88.1469C32.5234 88.8572 32.1879 89.745 32.0643 90.7453C32.0114 91.1656 31.8407 91.5562 31.4817 91.8167C31.3169 91.9351 31.3286 92.0238 31.4993 92.0949C31.823 92.231 31.8289 92.45 31.6347 92.6809C31.4817 92.8703 31.4464 93.0774 31.4817 93.2905C31.5758 93.8824 31.2227 94.4625 31.4522 95.0485C30.8872 96.4276 31.364 97.8837 31.1462 99.2747C31.0461 99.908 31.0756 100.559 31.0697 101.157C31.0638 101.944 31.1168 102.773 31.1992 103.572C31.2168 103.755 31.3698 103.927 31.4581 104.099C31.8171 104.791 32.0055 105.555 32.3645 106.253C32.5352 106.585 32.7941 106.845 33.0178 107.112C33.7064 107.928 34.1655 108.917 35.1542 109.526C35.9135 109.994 36.6786 110.444 37.479 110.846C37.5202 110.87 37.5732 110.888 37.6203 110.882C38.7444 110.799 39.792 111.338 40.9338 111.213C41.799 111.119 42.6877 111.166 43.5646 111.202C44.4063 111.231 45.1478 110.912 45.9247 110.675C46.5839 110.474 47.1666 110.083 47.8552 109.97C48.1024 109.929 48.3554 109.787 48.5614 109.633C49.8033 108.745 51.1864 108.082 52.4635 107.242C53.0109 106.881 53.4935 106.425 53.9996 105.999C54.5705 105.513 55.1944 105.105 55.7947 104.655C55.9007 104.578 56.0243 104.507 56.0949 104.401C56.4951 103.785 57.1896 103.442 57.6016 102.891C58.1489 102.163 58.8728 101.554 59.2024 100.654C59.4261 100.044 59.6733 99.4464 59.8381 98.813C59.9617 98.3395 60.8327 98.0672 61.3801 98.375C61.7862 98.6058 62.2335 98.6946 62.6513 98.8604C63.3988 99.1504 63.9991 99.6239 64.6112 100.092C65.0055 100.393 65.1056 101.559 64.8761 102.039C64.6583 102.489 64.4229 102.939 64.3699 103.454C64.3581 103.572 64.3228 103.673 64.2169 103.749C63.7872 104.063 63.6225 104.489 63.6931 105.016C63.7284 105.312 63.5224 105.543 63.4165 105.78C63.1752 106.318 63.0869 106.946 62.5984 107.348C62.5631 107.378 62.5042 107.443 62.516 107.467C62.8868 108.408 62.1275 109.142 62.0157 110.012C61.9215 110.769 61.7921 111.628 61.3271 112.326C61.1858 112.533 61.6273 112.8 61.3036 113.019C61.5331 113.516 61.0917 113.954 61.1859 114.463C61.2741 114.948 61.2094 115.457 61.2035 115.961C61.2035 116.369 61.2682 116.783 60.974 117.15C60.8798 117.269 60.8798 117.523 60.9269 117.683C61.1093 118.269 60.6915 118.92 61.1211 119.476C60.7386 119.909 61.2565 120.412 61.0093 120.856C60.9857 120.903 60.9916 121.004 61.0269 121.033C61.2682 121.264 61.2388 121.566 61.1976 121.832C61.0799 122.661 61.4978 123.324 61.9333 123.922C62.3159 124.448 62.6043 125.04 63.0928 125.496C63.4518 125.833 63.7873 126.118 64.3287 126.1C65.241 126.064 66.1532 126.124 67.0596 126.082C67.9365 126.041 68.7075 126.313 69.508 126.603C70.0435 126.798 70.5556 127.023 71.0735 127.254C71.5208 127.455 71.8504 127.799 72.2624 128.035C72.4213 128.13 72.592 128.302 72.4978 128.533C72.4154 128.74 72.2565 128.923 72.0329 128.941C71.6444 128.977 71.2383 129.071 70.8852 128.799C70.7027 128.657 70.4791 128.681 70.2613 128.681C68.8841 128.681 67.5128 128.663 66.1356 128.681C65.4529 128.686 64.8408 128.391 64.1934 128.248C63.2634 128.047 62.4571 127.497 61.6508 127C61.3918 126.84 61.1741 126.638 60.9622 126.431C60.0794 125.573 58.9435 124.993 58.2137 123.981C57.5604 123.081 56.8365 122.199 56.4009 121.169C56.1361 120.542 55.9595 119.849 56.0301 119.109C56.1008 118.299 56.0478 117.476 56.0478 116.659L56.0537 116.683Z" fill="#D6E8EA"/>
<path d="M212.855 109.39C212.555 109.39 212.261 109.39 211.961 109.39C211.166 109.408 210.46 109.077 209.712 108.875C209.289 108.763 208.9 108.568 208.465 108.479C207.906 108.36 207.423 108.023 206.911 107.78C206.458 107.561 206.052 107.242 205.628 106.963C205.392 106.81 205.31 106.537 205.21 106.301C204.916 105.626 204.598 104.975 204.139 104.377C203.792 103.927 203.844 103.288 204.056 102.85C204.362 102.228 204.51 101.553 204.839 100.944C205.139 100.387 205.569 100.032 206.116 99.7777C206.222 99.7304 206.363 99.7245 206.434 99.6475C206.993 99.0615 207.735 98.7833 208.412 98.3927C208.6 98.2861 208.794 98.3157 208.994 98.298C209.395 98.2625 209.824 98.4045 210.189 98.0967C210.295 98.0079 210.407 98.1086 210.513 98.1382C210.772 98.2033 211.031 98.2565 211.29 98.2921C212.19 98.4164 212.985 98.7656 213.767 99.2332C215.351 100.18 216.387 101.69 217.67 102.944C217.752 103.021 217.834 103.116 217.87 103.223C217.976 103.53 218.182 103.524 218.429 103.43C218.735 103.311 219.023 103.158 219.312 102.992C220.141 102.518 220.942 101.944 221.837 101.642C222.766 101.329 223.302 100.447 224.261 100.216C224.573 100.139 224.862 99.8606 225.103 99.6179C225.78 98.9431 226.604 98.446 227.339 97.854C227.957 97.3509 228.422 96.6702 229.117 96.2855C229.811 95.9008 230.265 95.2674 230.8 94.7465C231.63 93.9297 232.513 93.1602 233.325 92.3138C234.02 91.5917 234.543 90.6683 235.467 90.1593C235.726 90.0172 235.938 89.7627 236.015 89.4194C236.068 89.1886 236.262 89.0169 236.486 88.9399C236.98 88.7565 237.31 88.425 237.504 87.9337C237.627 87.62 238.051 87.7147 238.204 87.4365C238.54 86.8328 239.305 86.6256 239.546 85.939C239.64 85.6726 239.952 85.6845 240.123 85.4951C241.082 84.4474 242.106 83.4589 243.113 82.4586C244.007 81.5766 244.684 80.5171 245.602 79.6648C246.044 79.2564 246.385 78.7473 246.797 78.2975C247.297 77.7589 247.839 77.3031 248.657 77.5103C249.157 77.6346 249.522 77.9897 249.899 78.2857C250.546 78.7947 251.152 79.3688 251.417 80.1975C251.464 80.3455 251.605 80.3632 251.723 80.4165C252.047 80.5704 252.1 81.0854 251.782 81.2097C251.099 81.4879 250.711 82.0798 250.222 82.5592C249.31 83.4471 248.639 84.5303 247.839 85.5128C247.556 85.8561 247.127 85.9923 246.832 86.306C246.756 86.3888 246.609 86.4303 246.567 86.525C246.185 87.3181 245.402 87.7443 244.867 88.4013C244.555 88.7861 244.213 89.2892 243.695 89.5319C243.566 89.591 243.448 89.7153 243.372 89.8337C243.083 90.2954 242.53 90.4967 242.265 90.9288C241.983 91.3845 241.488 91.5976 241.217 92.0534C241.023 92.3848 240.858 92.8702 240.293 92.4973C240.182 92.4263 240.093 92.521 240.082 92.6275C240.023 93.4207 239.358 93.7699 238.904 94.273C238.587 94.6282 238.281 94.9951 237.969 95.3503C237.598 95.7765 237.127 96.1198 236.68 96.4808C236.533 96.5992 236.385 96.7235 236.338 96.8952C236.25 97.2029 236.05 97.4338 235.815 97.5995C234.902 98.2506 234.149 99.0911 233.266 99.7837C232.766 100.18 232.113 100.547 231.86 101.24C231.777 101.465 231.506 101.471 231.342 101.601C230.576 102.193 229.805 102.785 229.017 103.347C228.116 103.98 227.222 104.637 226.268 105.182C225.515 105.608 224.732 106.01 224.008 106.46C223.049 107.058 221.919 107.194 220.989 107.816C220.889 107.881 220.736 107.881 220.606 107.899C220.318 107.934 220.271 108.112 220.312 108.366C220.453 109.225 220.265 110.053 220.065 110.882C219.871 111.681 219.441 112.356 219.029 113.036C218.9 113.255 218.623 113.386 218.476 113.599C217.799 114.605 216.822 115.274 215.863 115.937C214.98 116.546 214.044 117.109 213.055 117.511C212.167 117.872 211.207 118.115 210.213 118.097C209.194 118.079 208.176 118.15 207.164 117.878C206.534 117.707 205.987 117.393 205.422 117.109C205.116 116.955 204.692 116.973 204.592 116.511C204.51 116.12 204.209 115.818 204.103 115.451C203.945 114.913 203.427 114.617 203.274 114.066C203.221 113.883 203.244 113.812 203.344 113.699C203.468 113.563 203.627 113.451 203.774 113.575C204.627 114.285 205.634 114.09 206.611 114.108C206.828 114.108 207.04 114.096 207.258 114.108C208.141 114.167 208.918 113.83 209.659 113.421C210.666 112.859 211.684 112.297 212.632 111.645C213.385 111.13 214.085 110.533 214.621 109.763C214.827 109.461 214.697 109.414 214.45 109.408C213.92 109.396 213.391 109.408 212.861 109.408L212.855 109.39ZM210.989 105.306C211.301 105.306 211.619 105.277 211.931 105.312C212.714 105.407 213.461 105.217 214.179 104.969C214.768 104.762 215.333 104.483 215.963 104.389C216.098 104.365 216.151 104.294 216.086 104.14C215.751 103.359 215.109 102.838 214.521 102.276C214.438 102.199 214.321 102.134 214.215 102.122C213.467 102.045 212.749 102.098 212.055 102.435C211.46 102.725 210.931 103.122 210.33 103.377C209.595 103.684 209.112 104.187 208.747 104.892C208.518 105.336 208.741 105.294 209.006 105.3C209.665 105.306 210.33 105.3 210.989 105.3V105.306Z" fill="#D6E8EA"/>
<path d="M240.176 68.9097C239.375 68.7203 238.61 68.6197 237.904 68.3001C237.51 68.1225 237.463 67.6845 237.304 67.3885C237.027 66.8676 236.615 66.5125 236.233 66.11C235.979 65.8436 235.974 65.6779 236.233 65.4116C236.633 65.0031 237.192 64.9203 237.663 64.6598C238.092 64.4231 238.481 64.1212 238.899 63.8726C239.37 63.5944 239.829 63.2925 240.305 63.0084C241.112 62.529 241.824 61.9016 242.465 61.2031C242.777 60.8657 243.154 60.5639 243.401 60.185C243.907 59.4096 244.578 58.7881 245.173 58.0956C245.414 57.8115 245.596 57.4741 245.873 57.2078C246.103 56.9887 246.356 56.9532 246.603 57.0657C247.627 57.5333 248.651 58.0246 249.398 58.8888C249.74 59.2853 250.164 59.6701 250.287 60.2324C250.322 60.3863 250.364 60.5461 250.246 60.6526C249.887 60.9663 249.828 61.5405 249.24 61.6944C248.986 61.7595 248.81 62.162 248.616 62.4106C248.186 62.9552 247.662 63.4109 247.244 63.9377C246.726 64.5888 245.938 64.9262 245.49 65.5359C244.867 66.3823 243.784 66.5303 243.213 67.3708C243.189 67.4122 243.136 67.4536 243.095 67.4596C242.159 67.5957 241.53 68.3178 240.729 68.7085C240.535 68.8032 240.329 68.8564 240.176 68.9156V68.9097Z" fill="#D6E8EA"/>
<path d="M160.79 42.539C160.755 41.7914 160.726 41.0398 160.683 40.2926C160.646 39.6729 160.876 39.0807 160.82 38.4511C160.803 38.2508 161.024 37.9369 161.014 37.718C160.994 37.1488 161.398 36.7127 161.401 36.1716C161.403 36.0655 161.417 35.9734 161.493 35.8894C161.579 35.7939 161.593 35.6214 161.479 35.6013C161.23 35.5548 161.184 35.3486 161.071 35.1932C160.904 34.9709 160.96 34.8476 161.245 34.8157C161.336 34.804 161.43 34.7959 161.521 34.8025C161.754 34.8096 161.814 34.708 161.887 34.4742C162.067 33.9064 162.11 33.2975 162.408 32.7642C162.522 32.5577 162.568 32.3033 162.611 32.0636C162.692 31.6285 162.806 31.2026 162.998 30.8096C163.12 30.5589 163.129 30.288 163.233 30.0344C163.292 29.8927 163.298 29.717 163.412 29.5982C163.63 29.3721 163.634 29.0576 163.715 28.7868C163.822 28.4345 163.926 28.1042 164.151 27.8046C164.292 27.6188 164.33 27.3501 164.373 27.1214C164.48 26.5461 164.713 26.0196 164.912 25.48C165.005 25.2233 165.091 24.9597 165.229 24.7228C165.477 24.2906 166.2 24.1353 166.725 24.3149C167.249 24.4908 167.774 24.674 168.262 24.9247C168.583 25.0921 168.95 25.2427 169.11 25.6225C169.151 25.7155 169.125 25.7826 169.044 25.7754C168.541 25.7447 168.486 26.1751 168.329 26.4786C168.063 26.9958 167.902 27.5628 167.706 28.1058C167.578 28.4629 167.484 28.8548 167.374 29.2292C167.284 29.537 167.19 29.8594 167.025 30.1269C166.785 30.5112 166.771 30.9724 166.564 31.3588C166.374 31.7152 166.229 32.095 166.134 32.4723C165.988 33.0642 165.584 33.5734 165.614 34.2116C165.616 34.2407 165.617 34.2736 165.604 34.3034C165.538 34.5113 165.277 34.7577 165.561 34.9159C165.732 35.01 165.958 35.0906 166.175 35.1387C166.498 35.2146 166.798 35.394 167.116 35.514C167.556 35.6793 167.941 35.9606 168.333 36.1976C168.805 36.4821 169.27 36.8546 169.589 37.3693C169.782 37.6817 170.017 37.9665 170.197 38.2942C170.459 38.7677 170.61 39.2613 170.773 39.7725C170.974 40.4026 170.909 41.0197 170.993 41.6407C171.02 41.8332 171.03 42.0301 170.893 42.2012C170.835 42.277 170.847 42.3788 170.855 42.4698C170.9 42.9647 170.78 43.4237 170.647 43.9016C170.501 44.4167 170.231 44.8536 170.017 45.3244C169.798 45.8175 169.435 46.2113 169.222 46.7004C169.117 46.9393 168.887 47.1477 168.673 47.3078C168.463 47.4641 168.257 47.6494 168.091 47.8292C167.732 48.2156 167.271 48.318 166.831 48.5219C166.127 48.8554 165.388 48.7519 164.672 48.7606C164.24 48.7667 163.753 48.6986 163.356 48.4435C163.172 48.3281 163.081 48.1021 162.921 47.9453C162.655 47.6876 162.3 47.5803 162.034 47.3262C161.657 46.9678 161.32 46.6184 161.308 46.0561C161.303 45.8736 161.15 45.7237 161.06 45.5819C160.938 45.3903 160.911 45.2088 160.901 45.0083C160.862 44.1877 160.823 43.3672 160.784 42.5466L160.79 42.539ZM164.103 43.634C164.145 44.5056 164.187 45.3772 164.229 46.2525C164.233 46.3436 164.217 46.4577 164.263 46.5213C164.341 46.6272 164.43 46.8934 164.602 46.6842C164.915 46.311 165.332 46.0644 165.667 45.712C166.034 45.3252 166.171 44.7777 166.618 44.4675C166.632 44.4595 166.631 44.4304 166.633 44.4083C166.695 44.1714 166.849 43.974 166.918 43.7513C167.041 43.3507 167.359 43.0138 167.3 42.5524C167.294 42.4979 167.312 42.4129 167.35 42.3818C167.609 42.1575 167.556 41.8237 167.58 41.5594C167.628 41.0417 167.65 40.518 167.658 39.9985C167.669 39.3181 167.514 38.6713 167.294 38.0129C167.129 37.5237 166.772 37.2118 166.552 36.7874C166.404 36.5021 166.053 36.475 165.758 36.3686C165.203 36.1649 164.938 36.258 164.863 36.8172C164.855 36.8687 164.854 36.9273 164.823 36.9617C164.642 37.2079 164.682 37.5203 164.579 37.7957C164.512 37.9817 164.353 38.1648 164.39 38.3933C164.447 38.7561 164.278 39.0895 164.207 39.4256C164.082 40.0054 164.03 40.5927 163.996 41.1719C163.952 41.9891 164.053 42.814 164.092 43.6345L164.103 43.634Z" fill="#F8C543"/>
<path d="M140.216 48.1631C139.507 48.3725 138.974 48.0947 138.523 47.5571C138.422 47.4376 138.277 47.3605 138.121 47.2912C137.635 47.0769 137.442 46.6292 137.271 46.155C137.124 45.7417 136.969 45.3141 136.883 44.8979C136.793 44.4562 136.599 44.0379 136.573 43.5749C136.551 43.1264 136.385 42.6993 136.199 42.2879C136.19 42.2701 136.171 42.249 136.174 42.2306C136.224 41.7604 135.989 41.3366 135.871 40.9147C135.714 40.3629 135.799 39.7814 135.604 39.279C135.442 38.8554 135.458 38.4452 135.398 38.0278C135.383 37.9262 135.399 37.8157 135.316 37.7393C135.236 37.6627 135.203 37.5948 135.297 37.5063C135.318 37.487 135.338 37.4458 135.329 37.4243C134.952 36.3787 135.172 35.2753 135.03 34.2074C135.028 34.1673 135.026 34.1236 135.017 34.0838C135.003 34.0333 134.997 33.9714 134.963 33.9438C134.811 33.8085 134.808 33.6698 134.928 33.5142C135.003 33.4155 134.994 33.3027 134.934 33.1959C134.636 32.6619 134.768 32.0744 134.741 31.5091C134.732 31.3341 134.915 31.201 135.125 31.1764C135.887 31.085 136.605 31.2041 137.292 31.5733C137.616 31.7478 137.99 31.8176 138.252 32.1158C138.413 32.2945 138.459 32.4312 138.184 32.5175C138.058 32.5564 138.026 32.642 138.039 32.7547C138.065 32.991 137.993 33.2503 138.203 33.4486C138.287 33.5287 138.257 33.6617 138.262 33.7748C138.324 35.0585 138.306 36.3533 138.486 37.6203C138.585 38.321 138.591 39.0445 138.779 39.7153C138.898 40.1482 138.854 40.5963 139 40.9877C139.162 41.4112 139.109 41.889 139.364 42.2788C139.45 42.4136 139.415 42.5798 139.433 42.7324C139.451 42.8887 139.517 43.0464 139.666 43.0539C139.786 43.0591 139.866 42.9054 139.922 42.7821C140.063 42.4573 140.204 42.1362 140.441 41.8617C140.676 41.5946 140.783 41.2459 140.916 40.9251C140.975 40.7798 141.012 40.6391 141.142 40.5488C141.325 40.4194 141.328 40.1963 141.414 40.0203C141.567 39.7133 141.794 39.4539 141.921 39.1335C142.151 38.5595 142.527 38.059 142.765 37.4847C142.863 37.2461 142.979 37.0139 143.124 36.7913C143.372 36.4176 143.559 36.0065 143.754 35.5987C143.807 35.4902 143.867 35.374 143.928 35.2834C144.355 34.6379 144.499 33.8524 144.971 33.2267C145.234 32.8778 145.376 32.436 145.676 32.1036C145.707 32.0692 145.712 32.0105 145.72 31.959C145.776 31.6127 146.056 31.4604 146.387 31.609C146.442 31.6319 146.515 31.7089 146.54 31.6931C146.932 31.4477 147.24 31.7399 147.579 31.8443C147.937 31.9514 148.282 32.0884 148.543 32.3793C148.596 32.4389 148.661 32.4979 148.735 32.5273C149.177 32.7254 149.195 32.7282 149.015 33.1425C148.934 33.3329 148.868 33.548 148.704 33.6984C148.568 33.8219 148.548 33.9983 148.468 34.1484C148.091 34.8573 147.752 35.5936 147.352 36.2817C147.04 36.8193 146.891 37.4368 146.471 37.9175C146.282 38.1386 146.169 38.4437 146.081 38.7258C146.024 38.9039 145.928 39.0328 145.815 39.1625C145.673 39.3192 145.587 39.4878 145.546 39.7017C145.495 39.993 145.261 40.2052 145.17 40.491C145.027 40.9219 144.656 41.2248 144.486 41.6313C144.281 42.1236 143.982 42.562 143.75 43.0336C143.558 43.423 143.336 43.7955 143.155 44.188C142.964 44.6028 142.762 45 142.492 45.3748C142.383 45.5262 142.362 45.7539 142.306 45.9503C142.158 46.4435 141.885 46.8806 141.689 47.3505C141.641 47.4698 141.64 47.6051 141.547 47.7155C141.337 47.9705 141.126 48.178 140.757 48.1372C140.578 48.1165 140.39 48.1511 140.205 48.16L140.216 48.1631Z" fill="#F8C543"/>
<path d="M179.412 46.837C179.041 46.8183 178.587 46.9753 178.161 46.7288C178.101 46.6915 178.001 46.7255 177.917 46.7222C177.44 46.7158 177.017 46.5972 176.597 46.3395C176.343 46.1836 176.111 45.9681 175.801 45.8769C175.528 45.795 175.387 45.4947 175.164 45.319C174.881 45.0986 174.692 44.7384 174.284 44.6996C174.258 44.7008 174.228 44.6693 174.215 44.6443C174.021 44.2369 173.642 43.981 173.395 43.609C173.168 43.269 172.948 42.9213 172.725 42.5811C172.493 42.2267 172.33 41.8544 172.278 41.4438C172.255 41.2731 172.068 41.1724 172.094 41.0359C172.195 40.5486 171.873 40.0596 172.13 39.5721C172.213 39.4146 172.21 39.2101 172.076 39.0484C172.033 38.9992 171.983 38.9468 172.028 38.8898C172.199 38.6769 172.148 38.4272 172.104 38.2063C171.985 37.6053 172.193 37.0324 172.264 36.4588C172.311 36.08 172.462 35.6671 172.6 35.2767C172.728 34.9123 172.818 34.5205 172.972 34.1586C173.161 33.7073 173.361 33.2554 173.55 32.8041C173.827 32.1438 174.224 31.5546 174.77 31.1044C175.091 30.8405 175.379 30.4612 175.904 30.5091C176.288 30.5456 176.681 30.4938 177.065 30.4608C177.626 30.412 178.14 30.5957 178.672 30.7054C179.087 30.7916 179.462 30.9564 179.823 31.1255C180.447 31.4172 181.046 31.7796 181.533 32.3009C181.755 32.5352 181.882 32.763 181.97 33.0914C182.121 33.6471 181.942 34.1747 181.986 34.7172C182.014 35.0559 181.821 35.4306 181.677 35.7665C181.428 36.3377 181.15 36.8993 180.755 37.3861C180.35 37.8843 179.84 38.2414 179.269 38.5428C178.926 38.7275 178.565 38.8654 178.229 39.0606C178.194 39.0805 178.159 39.1005 178.119 39.1097C177.485 39.2242 176.867 39.4511 176.203 39.4025C176.054 39.3914 175.902 39.417 175.752 39.468C175.405 39.5833 175.433 39.8744 175.341 40.1493C175.24 40.4576 175.416 40.716 175.368 41.0179C175.328 41.305 175.295 41.6977 175.506 42.0055C175.557 42.0799 175.552 42.2044 175.557 42.3028C175.586 42.9046 175.871 43.4026 176.214 43.8724C176.319 44.0172 176.435 44.1652 176.512 44.326C176.773 44.858 177.159 45.0991 177.725 45.0683C177.917 45.0591 178.112 45.0388 178.305 45.0405C178.93 45.0435 179.501 45.2062 180.007 45.5877C180.226 45.7526 180.521 45.7019 180.767 45.8327C180.984 45.9466 181.096 46.0911 181.139 46.3156C181.164 46.446 181.111 46.5655 180.977 46.561C180.692 46.5454 180.52 46.8205 180.232 46.805C179.977 46.7917 179.721 46.8222 179.398 46.8377L179.412 46.837ZM178.68 32.9128C178.667 32.643 178.66 32.4276 178.646 32.2126C178.643 32.1397 178.621 31.9982 178.513 32.0874C178.377 32.1963 178.207 32.2191 178.075 32.3533C177.854 32.5869 177.659 32.8448 177.441 33.0672C176.935 33.5849 176.764 34.2657 176.429 34.8666C176.309 35.0843 176.346 35.3274 176.235 35.5228C175.971 35.9924 175.906 36.5292 175.704 37.0213C175.665 37.1182 175.668 37.2606 175.777 37.3285C175.885 37.3964 176.027 37.3897 176.125 37.3155C176.672 36.9055 177.243 36.5236 177.606 35.9031C177.904 35.388 178.278 34.9278 178.427 34.3212C178.55 33.8365 178.76 33.3732 178.68 32.9092L178.68 32.9128Z" fill="#F8C543"/>
<path d="M190.049 39.6055C189.796 39.6177 189.53 39.6816 189.287 39.631C188.77 39.5243 188.241 39.5715 187.736 39.4897C186.941 39.3633 186.315 38.8816 185.76 38.3014C185.454 37.9798 185.059 37.7136 184.926 37.285C184.832 36.9934 184.51 36.7201 184.765 36.3387C184.88 36.1651 184.649 35.9751 184.7 35.746C184.774 35.3916 184.685 34.9901 184.804 34.6555C184.877 34.4436 184.889 34.2237 184.947 34.0126C185.078 33.5494 185.391 33.1762 185.521 32.7167C185.556 32.5981 185.682 32.5116 185.75 32.3987C186.022 31.947 186.492 31.6541 186.723 31.1642C186.795 31.0108 186.912 30.87 187.107 30.8424C187.15 30.8366 187.199 30.7941 187.227 30.7562C187.628 30.1923 188.194 29.7778 188.615 29.2313C188.762 29.0415 188.952 28.9812 189.19 28.9479C189.844 28.8654 190.398 29.0618 190.979 29.3519C191.366 29.5454 191.761 29.7421 192.131 29.962C192.48 30.1719 192.788 30.4605 193.153 30.6587C193.209 30.6889 193.246 30.7675 193.281 30.828C193.468 31.1553 193.395 31.3014 193.025 31.3081C192.676 31.3175 192.341 31.3702 191.977 31.2231C191.688 31.1053 191.331 31.1481 191.066 31.4605C190.453 32.1807 189.784 32.8561 189.194 33.5934C188.848 34.0267 188.551 34.5088 188.344 35.0451C188.198 35.4139 188.056 35.7826 187.999 36.1728C187.924 36.6698 187.876 37.1729 187.943 37.6778C187.966 37.8339 188.048 37.8884 188.193 37.8815C188.378 37.8726 188.559 37.8639 188.744 37.855C189.078 37.8463 189.416 37.7717 189.731 37.9576C189.787 37.9915 189.874 37.991 189.942 37.9804C190.588 37.88 191.2 38.0481 191.814 38.1978C192.987 38.4815 194.034 39.0162 194.9 39.8738C195.117 40.09 195.279 40.3601 195.277 40.7001C195.276 40.967 195.285 41.2334 195.316 41.4988C195.37 42.0298 195.088 42.4454 194.851 42.8698C194.764 43.0312 194.625 43.1585 194.66 43.3651C194.674 43.4375 194.649 43.5082 194.589 43.5586C194.337 43.7644 194.304 44.1242 194.052 44.3263C194.045 44.334 194.034 44.3418 194.035 44.3527C194.053 44.816 193.679 45.1154 193.549 45.5164C193.432 45.8802 193.255 46.2104 192.977 46.4759C192.821 46.6223 192.791 46.8357 192.716 47.0111C192.526 47.4442 192.306 47.6375 191.845 47.6596C191.519 47.6752 191.192 47.6836 190.866 47.7065C190.627 47.7253 190.487 47.5968 190.383 47.4044C190.188 47.0482 189.931 46.7681 189.529 46.6411C189.241 46.5489 189.133 46.2617 189.28 46.0024C189.575 45.4839 189.885 44.9719 190.161 44.4396C190.474 43.8398 190.735 43.2133 191.051 42.6169C191.294 42.152 191.508 41.6739 191.743 41.2057C191.876 40.9435 191.854 40.6375 192.006 40.3817C192.09 40.2388 192.214 40.1012 192.161 39.9027C192.134 39.7944 192.107 39.6897 191.98 39.6994C191.332 39.7597 190.711 39.3801 190.06 39.5977L190.049 39.6055Z" fill="#F8C543"/>
<path d="M153.55 43.5146C153.47 43.5184 153.383 43.508 153.307 43.5262C152.689 43.6765 152.323 43.3212 152 42.8761C151.969 42.8337 151.948 42.7799 151.887 42.7865C151.499 42.8124 151.343 42.5128 151.149 42.2626C151.13 42.2379 151.103 42.2027 151.113 42.1803C151.238 41.8307 150.891 41.4891 151.04 41.1859C151.272 40.7179 150.999 40.1863 151.294 39.7445C151.314 39.7143 151.312 39.6632 151.31 39.6231C151.277 39.091 151.497 38.6016 151.56 38.0942C151.61 37.6934 151.8 37.3225 151.747 36.901C151.71 36.5994 151.893 36.3237 151.956 36.0284C151.983 35.9064 152.05 35.7899 152.043 35.655C152.003 35.0538 152.183 34.4823 152.353 33.9258C152.434 33.6551 152.44 33.4026 152.421 33.144C152.402 32.8964 152.442 32.6715 152.662 32.5586C152.871 32.4535 153.11 32.4238 153.331 32.5777C153.38 32.6119 153.444 32.6454 153.498 32.6392C153.761 32.6046 154.015 32.6546 154.222 32.8055C154.644 33.1216 155.191 33.1611 155.617 33.4734C155.847 33.6451 155.974 33.8657 155.903 34.1286C155.791 34.5323 155.866 34.9674 155.649 35.3506C155.555 35.5123 155.561 35.7204 155.515 35.9017C155.432 36.2273 155.258 36.5354 155.301 36.8988C155.343 37.2441 155.232 37.5784 155.102 37.8989C155.086 37.9363 155.059 37.9814 155.064 38.0141C155.168 38.4404 154.972 38.8372 154.89 39.2323C154.822 39.5645 154.858 39.9429 154.651 40.2489C154.624 40.2868 154.619 40.3455 154.622 40.3965C154.641 41.2473 154.416 42.0841 154.544 42.9443C154.619 43.4488 154.576 43.4581 154.076 43.4858C153.902 43.4941 153.728 43.5024 153.557 43.5106L153.55 43.5146Z" fill="#F8C543"/>
<path d="M156.51 29.6548C156.317 29.664 156.122 29.6734 155.929 29.6826C155.835 29.6871 155.737 29.6772 155.706 29.5654C155.662 29.4139 155.624 29.2988 155.45 29.4607C155.408 29.4992 155.359 29.4504 155.334 29.4004C155.196 29.0854 154.955 28.9069 154.629 28.7872C154.392 28.6999 154.267 28.4354 154.088 28.2576C154.046 28.2157 154.072 28.1633 154.11 28.1213C154.418 27.8031 154.368 27.3559 154.48 26.9741C154.631 26.477 154.744 25.9599 154.788 25.4205C154.822 24.9363 155.002 24.4343 155.28 24.0152C155.419 23.8039 155.702 23.878 155.93 23.9365C155.978 23.9489 156.032 24.0157 156.057 24.0036C156.49 23.7891 156.793 24.0414 157.092 24.2939C157.153 24.3422 157.215 24.3538 157.289 24.3686C157.854 24.484 158.292 24.8213 158.678 25.2268C158.778 25.3353 158.77 25.4855 158.595 25.5451C158.309 25.6392 158.216 25.8301 158.223 26.1295C158.228 26.4618 158.065 26.7657 157.997 27.087C157.973 27.1942 157.92 27.2991 157.932 27.4118C157.988 27.8916 157.838 28.3264 157.659 28.7554C157.59 28.9231 157.654 29.1065 157.546 29.2871C157.294 29.7122 156.89 29.6329 156.513 29.6546L156.51 29.6548Z" fill="#F8C543"/>
<mask id="path-10-outside-1_1025_1449" maskUnits="userSpaceOnUse" x="69" y="57" width="142" height="50" fill="black">
<rect fill="white" x="69" y="57" width="142" height="50"/>
<path d="M98.3297 89.834L99.0697 97.382C94.7037 99.01 84.7877 98.936 81.2357 98.936C78.4237 98.936 76.4997 99.084 74.2057 99.084C73.8357 93.682 73.4657 90.5 73.4657 86.06L73.3917 71.408C73.3917 69.114 75.3897 67.634 77.0917 67.264C81.7537 66.82 89.9677 66.154 96.4057 65.266L97.5897 73.11C85.5277 74.442 83.4557 74.738 81.6797 74.96L81.7537 78.216C92.9277 78.068 96.5537 77.846 97.8857 77.846L98.3297 85.912C94.3337 86.578 85.4537 86.356 81.7537 86.652V90.426C83.8997 90.944 95.5917 90.278 98.3297 89.834ZM124.131 81.324C128.719 82.582 133.455 84.95 133.455 90.944C133.455 97.382 126.943 101.6 119.765 101.6C117.619 101.6 112.809 101.082 110.515 98.64L114.289 92.646C115.547 92.942 116.805 93.756 119.173 93.756C121.763 93.756 125.019 92.868 124.871 91.018C124.797 88.65 117.471 87.688 114.289 85.838C108.961 82.804 108.073 78.66 109.331 73.48C110.441 68.448 114.733 65.414 121.689 65.414C126.351 65.414 130.717 67.042 133.011 68.818L129.533 75.552C127.683 74.368 124.797 73.554 121.467 73.554C118.877 73.554 117.249 74.738 117.249 76.884C117.249 78.808 120.505 80.288 124.131 81.324ZM168.57 72.074H158.802C156.138 72.074 153.326 72.148 151.92 72.222C151.772 74.664 151.92 76.884 151.92 80.214C157.026 79.622 168.422 79.696 168.94 79.696V87.836C168.348 87.836 156.656 88.058 151.994 88.576C151.994 92.498 152.216 98.196 152.438 101.6L144.298 102.044C143.78 99.528 143.854 93.756 143.78 86.06C143.78 83.396 143.706 80.954 143.706 77.846C143.706 74.22 143.854 69.706 143.854 65.932C151.328 63.342 167.608 63.86 168.57 63.86V72.074ZM182.251 62.75C186.913 61.788 191.649 61.492 196.163 62.602C203.489 64.674 206.597 70.742 206.597 76.588C206.597 84.062 197.791 89.464 189.799 89.612C189.725 93.756 189.577 101.822 189.429 102.784L181.215 102.488C181.215 98.418 181.511 91.758 181.511 87.688C181.511 79.844 181.067 71.778 180.401 65.562C180.253 63.786 181.141 63.046 182.251 62.75ZM198.679 75.478C198.679 71.408 194.387 69.484 189.133 70.224C189.281 71.778 189.429 78.512 189.799 81.25C194.535 81.546 198.679 78.29 198.679 75.478Z"/>
</mask>
<path d="M98.3297 89.834L99.0697 97.382C94.7037 99.01 84.7877 98.936 81.2357 98.936C78.4237 98.936 76.4997 99.084 74.2057 99.084C73.8357 93.682 73.4657 90.5 73.4657 86.06L73.3917 71.408C73.3917 69.114 75.3897 67.634 77.0917 67.264C81.7537 66.82 89.9677 66.154 96.4057 65.266L97.5897 73.11C85.5277 74.442 83.4557 74.738 81.6797 74.96L81.7537 78.216C92.9277 78.068 96.5537 77.846 97.8857 77.846L98.3297 85.912C94.3337 86.578 85.4537 86.356 81.7537 86.652V90.426C83.8997 90.944 95.5917 90.278 98.3297 89.834ZM124.131 81.324C128.719 82.582 133.455 84.95 133.455 90.944C133.455 97.382 126.943 101.6 119.765 101.6C117.619 101.6 112.809 101.082 110.515 98.64L114.289 92.646C115.547 92.942 116.805 93.756 119.173 93.756C121.763 93.756 125.019 92.868 124.871 91.018C124.797 88.65 117.471 87.688 114.289 85.838C108.961 82.804 108.073 78.66 109.331 73.48C110.441 68.448 114.733 65.414 121.689 65.414C126.351 65.414 130.717 67.042 133.011 68.818L129.533 75.552C127.683 74.368 124.797 73.554 121.467 73.554C118.877 73.554 117.249 74.738 117.249 76.884C117.249 78.808 120.505 80.288 124.131 81.324ZM168.57 72.074H158.802C156.138 72.074 153.326 72.148 151.92 72.222C151.772 74.664 151.92 76.884 151.92 80.214C157.026 79.622 168.422 79.696 168.94 79.696V87.836C168.348 87.836 156.656 88.058 151.994 88.576C151.994 92.498 152.216 98.196 152.438 101.6L144.298 102.044C143.78 99.528 143.854 93.756 143.78 86.06C143.78 83.396 143.706 80.954 143.706 77.846C143.706 74.22 143.854 69.706 143.854 65.932C151.328 63.342 167.608 63.86 168.57 63.86V72.074ZM182.251 62.75C186.913 61.788 191.649 61.492 196.163 62.602C203.489 64.674 206.597 70.742 206.597 76.588C206.597 84.062 197.791 89.464 189.799 89.612C189.725 93.756 189.577 101.822 189.429 102.784L181.215 102.488C181.215 98.418 181.511 91.758 181.511 87.688C181.511 79.844 181.067 71.778 180.401 65.562C180.253 63.786 181.141 63.046 182.251 62.75ZM198.679 75.478C198.679 71.408 194.387 69.484 189.133 70.224C189.281 71.778 189.429 78.512 189.799 81.25C194.535 81.546 198.679 78.29 198.679 75.478Z" fill="#EDF798"/>
<path d="M98.3297 89.834L102.311 89.4437L101.895 85.2036L97.6894 85.8856L98.3297 89.834ZM99.0697 97.382L100.467 101.13L103.351 100.055L103.051 96.9917L99.0697 97.382ZM74.2057 99.084L70.215 99.3573L70.4703 103.084H74.2057V99.084ZM73.4657 86.06H77.4657V86.0499L77.4656 86.0398L73.4657 86.06ZM73.3917 71.408H69.3917V71.4181L69.3917 71.4282L73.3917 71.408ZM77.0917 67.264L76.7125 63.282L76.475 63.3046L76.242 63.3553L77.0917 67.264ZM96.4057 65.266L100.361 64.669L99.7714 60.7639L95.8591 61.3035L96.4057 65.266ZM97.5897 73.11L98.0287 77.0858L102.166 76.6289L101.545 72.513L97.5897 73.11ZM81.6797 74.96L81.1836 70.9909L77.5986 71.439L77.6807 75.0509L81.6797 74.96ZM81.7537 78.216L77.7547 78.3069L77.8448 82.2681L81.8067 82.2156L81.7537 78.216ZM97.8857 77.846L101.88 77.6261L101.672 73.846H97.8857V77.846ZM98.3297 85.912L98.9873 89.8576L102.521 89.2687L102.324 85.6922L98.3297 85.912ZM81.7537 86.652L81.4347 82.6647L77.7537 82.9592V86.652H81.7537ZM81.7537 90.426H77.7537V93.5754L80.8151 94.3143L81.7537 90.426ZM94.3488 90.2243L95.0888 97.7723L103.051 96.9917L102.311 89.4437L94.3488 90.2243ZM97.6722 93.6341C96.134 94.2076 93.139 94.5883 89.6344 94.7752C86.2923 94.9534 83.0373 94.936 81.2357 94.936V102.936C82.9861 102.936 86.4651 102.956 90.0605 102.764C93.4934 102.581 97.6394 102.184 100.467 101.13L97.6722 93.6341ZM81.2357 94.936C79.7589 94.936 78.5186 94.975 77.3943 95.0122C76.2593 95.0497 75.2741 95.084 74.2057 95.084V103.084C75.4313 103.084 76.5551 103.044 77.6586 103.008C78.7728 102.971 79.9005 102.936 81.2357 102.936V94.936ZM78.1963 98.8107C77.8139 93.2267 77.4657 90.3176 77.4657 86.06H69.4657C69.4657 90.6824 69.8575 94.1373 70.215 99.3573L78.1963 98.8107ZM77.4656 86.0398L77.3916 71.3878L69.3917 71.4282L69.4657 86.0802L77.4656 86.0398ZM77.3917 71.408C77.3917 71.431 77.3835 71.4748 77.3673 71.5101C77.3557 71.5355 77.3591 71.5149 77.4133 71.4614C77.4695 71.4059 77.5573 71.3385 77.6719 71.2776C77.7882 71.2158 77.8879 71.1843 77.9414 71.1727L76.242 63.3553C73.5133 63.9485 69.3917 66.5108 69.3917 71.408H77.3917ZM77.4709 71.246C82.037 70.8111 90.4033 70.1318 96.9522 69.2285L95.8591 61.3035C89.5321 62.1762 81.4704 62.8289 76.7125 63.282L77.4709 71.246ZM92.4505 65.863L93.6345 73.707L101.545 72.513L100.361 64.669L92.4505 65.863ZM97.1506 69.1342C85.062 70.4691 82.9691 70.7677 81.1836 70.9909L82.1758 78.9291C83.9423 78.7083 85.9934 78.4149 98.0287 77.0858L97.1506 69.1342ZM77.6807 75.0509L77.7547 78.3069L85.7527 78.1251L85.6787 74.8691L77.6807 75.0509ZM81.8067 82.2156C87.4156 82.1414 91.1379 82.0484 93.6302 81.9737C96.2132 81.8963 97.298 81.846 97.8857 81.846V73.846C97.1414 73.846 95.7472 73.9067 93.3906 73.9773C90.9435 74.0506 87.2658 74.1426 81.7007 74.2164L81.8067 82.2156ZM93.8917 78.0658L94.3357 86.1319L102.324 85.6922L101.88 77.6261L93.8917 78.0658ZM97.6721 81.9664C96.0161 82.2424 93.1064 82.3553 89.8493 82.4216C86.808 82.4835 83.4426 82.5041 81.4347 82.6647L82.0727 90.6393C83.7648 90.5039 86.6894 90.4875 90.0121 90.4199C93.1189 90.3567 96.6473 90.2476 98.9873 89.8576L97.6721 81.9664ZM77.7537 86.652V90.426H85.7537V86.652H77.7537ZM80.8151 94.3143C81.8946 94.5749 83.5227 94.6112 84.8544 94.6145C86.38 94.6181 88.1956 94.567 89.9975 94.4868C93.5188 94.3301 97.3424 94.0464 98.97 93.7824L97.6894 85.8856C96.579 86.0656 93.1876 86.3369 89.6419 86.4947C87.9103 86.5718 86.2294 86.6177 84.8736 86.6145C83.3239 86.6107 82.6858 86.5361 82.6923 86.5377L80.8151 94.3143ZM124.131 81.324L123.033 85.1701L123.053 85.176L123.074 85.1816L124.131 81.324ZM110.515 98.64L107.13 96.5087L105.483 99.1252L107.6 101.379L110.515 98.64ZM114.289 92.646L115.206 88.7523L112.426 88.0983L110.904 90.5147L114.289 92.646ZM124.871 91.018L120.873 91.1429L120.876 91.2401L120.884 91.337L124.871 91.018ZM114.289 85.838L116.3 82.38L116.284 82.3709L116.269 82.3621L114.289 85.838ZM109.331 73.48L113.218 74.424L113.228 74.3829L113.238 74.3416L109.331 73.48ZM133.011 68.818L136.565 70.6536L138.094 67.6941L135.46 65.6551L133.011 68.818ZM129.533 75.552L127.377 78.9211L131.074 81.2867L133.087 77.3876L129.533 75.552ZM123.074 85.1816C125.174 85.7576 126.83 86.4734 127.919 87.4018C128.837 88.1845 129.455 89.1848 129.455 90.944H137.455C137.455 86.7092 135.706 83.5285 133.109 81.3142C130.683 79.2455 127.676 78.1484 125.189 77.4664L123.074 85.1816ZM129.455 90.944C129.455 92.6673 128.627 94.2162 126.931 95.4651C125.181 96.7533 122.618 97.6 119.765 97.6V105.6C124.091 105.6 128.373 104.338 131.674 101.907C135.028 99.4378 137.455 95.6587 137.455 90.944H129.455ZM119.765 97.6C118.95 97.6 117.541 97.4954 116.156 97.1528C114.675 96.7863 113.794 96.2881 113.431 95.9013L107.6 101.379C109.531 103.434 112.202 104.416 114.235 104.919C116.365 105.446 118.435 105.6 119.765 105.6V97.6ZM113.9 100.771L117.674 94.7773L110.904 90.5147L107.13 96.5087L113.9 100.771ZM113.373 96.5397C113.456 96.5592 113.592 96.6001 113.911 96.7134C114.18 96.809 114.641 96.9791 115.119 97.1291C116.173 97.4591 117.49 97.756 119.173 97.756V89.756C118.489 89.756 117.993 89.6459 117.511 89.4949C117.222 89.4044 116.984 89.3155 116.59 89.1753C116.245 89.0527 115.752 88.8808 115.206 88.7523L113.373 96.5397ZM119.173 97.756C120.833 97.756 122.833 97.4839 124.551 96.7883C125.403 96.443 126.45 95.8884 127.313 94.9754C128.254 93.9811 129.003 92.508 128.859 90.699L120.884 91.337C120.853 90.9515 120.913 90.554 121.058 90.1909C121.196 89.8431 121.377 89.609 121.502 89.4772C121.716 89.251 121.814 89.2653 121.548 89.3732C121.32 89.4656 120.968 89.5674 120.514 89.6437C120.069 89.7185 119.602 89.756 119.173 89.756V97.756ZM128.869 90.8931C128.782 88.0999 126.626 86.6049 125.705 86.0478C124.562 85.3556 123.185 84.8414 122.044 84.4501C121.441 84.2435 120.82 84.0439 120.24 83.8575C119.647 83.6667 119.094 83.4891 118.566 83.3091C117.458 82.931 116.728 82.6287 116.3 82.38L112.279 89.296C113.442 89.9723 114.821 90.484 115.983 90.8806C116.591 91.0879 117.214 91.2879 117.792 91.4737C118.384 91.6639 118.931 91.8401 119.448 92.0174C120.546 92.3938 121.213 92.6797 121.563 92.8918C122.137 93.2389 120.924 92.7521 120.873 91.1429L128.869 90.8931ZM116.269 82.3621C114.231 81.2019 113.449 80.0829 113.111 79.128C112.74 78.0808 112.686 76.6161 113.218 74.424L105.444 72.536C104.719 75.5239 104.48 78.7212 105.57 81.7994C106.693 84.9701 109.019 87.4401 112.31 89.3139L116.269 82.3621ZM113.238 74.3416C113.58 72.79 114.353 71.6773 115.537 70.8882C116.788 70.0539 118.764 69.414 121.689 69.414V61.414C117.659 61.414 114.01 62.2911 111.099 64.2318C108.121 66.2176 106.193 69.138 105.425 72.6184L113.238 74.3416ZM121.689 69.414C125.575 69.414 129.052 70.8113 130.563 71.9809L135.46 65.6551C132.383 63.2727 127.128 61.414 121.689 61.414V69.414ZM129.457 66.9824L125.979 73.7164L133.087 77.3876L136.565 70.6536L129.457 66.9824ZM131.69 72.1829C129.049 70.4928 125.366 69.554 121.467 69.554V77.554C124.229 77.554 126.318 78.2432 127.377 78.9211L131.69 72.1829ZM121.467 69.554C119.63 69.554 117.603 69.9661 115.943 71.2482C114.143 72.6379 113.249 74.6873 113.249 76.884H121.249C121.249 76.8589 121.252 76.972 121.167 77.1532C121.079 77.3417 120.949 77.4894 120.832 77.5803C120.726 77.6617 120.688 77.654 120.793 77.6247C120.9 77.5948 121.117 77.554 121.467 77.554V69.554ZM113.249 76.884C113.249 80.211 115.944 82.0914 117.314 82.8912C119.01 83.8817 121.106 84.6196 123.033 85.1701L125.23 77.4779C123.531 76.9924 122.186 76.4723 121.348 75.9828C120.929 75.7383 120.824 75.6081 120.862 75.6522C120.924 75.7253 121.249 76.157 121.249 76.884H113.249ZM168.57 72.074V76.074H172.57V72.074H168.57ZM151.92 72.222L151.71 68.2275L148.144 68.4152L147.927 71.98L151.92 72.222ZM151.92 80.214H147.92V84.7046L152.381 84.1874L151.92 80.214ZM168.94 79.696H172.94V75.696H168.94V79.696ZM168.94 87.836V91.836H172.94V87.836H168.94ZM151.994 88.576L151.552 84.6005L147.994 84.9958V88.576H151.994ZM152.438 101.6L152.656 105.594L156.693 105.374L156.43 101.34L152.438 101.6ZM144.298 102.044L140.38 102.851L141.075 106.226L144.516 106.038L144.298 102.044ZM143.78 86.06H139.78V86.0792L139.78 86.0985L143.78 86.06ZM143.854 65.932L142.544 62.1525L139.854 63.0848V65.932H143.854ZM168.57 63.86H172.57V59.86H168.57V63.86ZM168.57 68.074H158.802V76.074H168.57V68.074ZM158.802 68.074C156.087 68.074 153.203 68.149 151.71 68.2275L152.13 76.2165C153.449 76.147 156.189 76.074 158.802 76.074V68.074ZM147.927 71.98C147.771 74.5647 147.92 77.2185 147.92 80.214H155.92C155.92 76.5495 155.773 74.7633 155.913 72.464L147.927 71.98ZM152.381 84.1874C157.192 83.6296 168.269 83.696 168.94 83.696V75.696C168.575 75.696 156.86 75.6144 151.459 76.2406L152.381 84.1874ZM164.94 79.696V87.836H172.94V79.696H164.94ZM168.94 83.836C168.34 83.836 156.454 84.0559 151.552 84.6005L152.436 92.5515C154.589 92.3123 158.524 92.1305 162.128 92.0095C163.901 91.9499 165.549 91.9064 166.79 91.8777C167.411 91.8634 167.928 91.8528 168.307 91.8459C168.496 91.8424 168.649 91.8398 168.762 91.8382C168.819 91.8374 168.864 91.8368 168.897 91.8364C168.934 91.836 168.945 91.836 168.94 91.836V83.836ZM147.994 88.576C147.994 92.6001 148.22 98.3863 148.447 101.86L156.43 101.34C156.212 98.0057 155.994 92.3959 155.994 88.576H147.994ZM152.22 97.6059L144.08 98.0499L144.516 106.038L152.656 105.594L152.22 97.6059ZM148.216 101.237C148.043 100.398 147.929 98.6949 147.872 95.9129C147.817 93.2187 147.818 89.9302 147.78 86.0215L139.78 86.0985C139.817 89.8858 139.817 93.3313 139.873 96.0761C139.928 98.7331 140.035 101.174 140.38 102.851L148.216 101.237ZM147.78 86.06C147.78 84.695 147.761 83.3895 147.743 82.0639C147.724 80.7321 147.706 79.3694 147.706 77.846H139.706C139.706 79.4306 139.725 80.8429 139.744 82.175C139.762 83.5135 139.78 84.761 139.78 86.06H147.78ZM147.706 77.846C147.706 76.0762 147.742 74.0799 147.78 72.0166C147.816 69.9708 147.854 67.8616 147.854 65.932H139.854C139.854 67.7764 139.818 69.8112 139.781 71.8724C139.744 73.9161 139.706 75.9898 139.706 77.846H147.706ZM145.164 69.7115C148.27 68.635 153.653 68.1172 158.806 67.9219C163.832 67.7313 167.937 67.86 168.57 67.86V59.86C168.573 59.86 168.555 59.8599 168.497 59.8591C168.444 59.8583 168.376 59.8571 168.289 59.8555C168.118 59.8524 167.885 59.848 167.604 59.8433C167.042 59.8341 166.281 59.8237 165.372 59.8196C163.556 59.8113 161.138 59.8277 158.503 59.9276C153.406 60.1208 146.912 60.639 142.544 62.1525L145.164 69.7115ZM164.57 63.86V72.074H172.57V63.86H164.57ZM182.251 62.75L181.443 58.8325L181.331 58.8556L181.221 58.8851L182.251 62.75ZM196.163 62.602L197.252 58.753L197.186 58.7342L197.119 58.7177L196.163 62.602ZM189.799 89.612L189.725 85.6127L185.869 85.6841L185.8 89.5406L189.799 89.612ZM189.429 102.784L189.285 106.781L192.842 106.91L193.383 103.392L189.429 102.784ZM181.215 102.488H177.215V106.346L181.071 106.485L181.215 102.488ZM180.401 65.562L176.415 65.8942L176.419 65.9412L176.424 65.9881L180.401 65.562ZM189.133 70.224L188.576 66.2631L184.789 66.7964L185.151 70.6032L189.133 70.224ZM189.799 81.25L185.836 81.7857L186.275 85.0375L189.55 85.2422L189.799 81.25ZM183.06 66.6675C187.389 65.7742 191.477 65.5688 195.208 66.4863L197.119 58.7177C191.822 57.4152 186.438 57.8018 181.443 58.8325L183.06 66.6675ZM195.075 66.451C200.346 67.9418 202.597 72.1606 202.597 76.588H210.597C210.597 69.3234 206.633 61.4062 197.252 58.753L195.075 66.451ZM202.597 76.588C202.597 78.6284 201.399 80.7724 198.859 82.6006C196.328 84.422 192.92 85.5535 189.725 85.6127L189.874 93.6113C194.671 93.5225 199.662 91.879 203.532 89.0939C207.393 86.3156 210.597 82.0216 210.597 76.588H202.597ZM185.8 89.5406C185.763 91.6136 185.708 94.6538 185.643 97.2937C185.611 98.6153 185.577 99.8228 185.542 100.753C185.502 101.824 185.469 102.221 185.476 102.176L193.383 103.392C193.464 102.866 193.505 101.894 193.537 101.053C193.573 100.07 193.609 98.822 193.641 97.4888C193.706 94.8192 193.762 91.7544 193.799 89.6834L185.8 89.5406ZM189.574 98.7866L181.36 98.4906L181.071 106.485L189.285 106.781L189.574 98.7866ZM185.215 102.488C185.215 100.521 185.287 97.901 185.362 95.1983C185.435 92.536 185.511 89.7906 185.511 87.688H177.511C177.511 89.6554 177.44 92.275 177.365 94.9777C177.292 97.64 177.215 100.385 177.215 102.488H185.215ZM185.511 87.688C185.511 79.7122 185.061 71.5035 184.379 65.1359L176.424 65.9881C177.074 72.0525 177.511 79.9758 177.511 87.688H185.511ZM184.388 65.2298C184.374 65.0639 184.438 65.5041 184.023 66.043C183.647 66.5308 183.236 66.6273 183.282 66.6149L181.221 58.8851C180.157 59.1687 178.747 59.7831 177.687 61.159C176.587 62.5859 176.281 64.2841 176.415 65.8942L184.388 65.2298ZM202.679 75.478C202.679 71.7501 200.588 68.9847 197.719 67.4965C195.033 66.1036 191.744 65.8168 188.576 66.2631L189.691 74.1849C191.777 73.8912 193.261 74.1964 194.035 74.598C194.392 74.7833 194.53 74.9496 194.579 75.0245C194.615 75.0801 194.679 75.1951 194.679 75.478H202.679ZM185.151 70.6032C185.213 71.2498 185.279 73.1199 185.387 75.4761C185.487 77.6465 185.622 80.2057 185.836 81.7857L193.763 80.7143C193.607 79.5563 193.483 77.3795 193.379 75.1099C193.284 73.0261 193.202 70.7522 193.115 69.8448L185.151 70.6032ZM189.55 85.2422C192.882 85.4505 195.983 84.419 198.294 82.8169C200.435 81.3331 202.679 78.7592 202.679 75.478H194.679C194.679 75.2 194.774 75.172 194.626 75.3941C194.486 75.6049 194.203 75.9186 193.737 76.2421C192.792 76.897 191.453 77.3455 190.049 77.2578L189.55 85.2422Z" fill="#FF7989" mask="url(#path-10-outside-1_1025_1449)"/>
<g clip-path="url(#clip1_1025_1449)">
<path d="M93.1014 47.5679C93.0424 47.227 92.9841 46.8895 92.9251 46.5487C92.8903 46.3476 92.8579 46.1601 92.9488 45.9513C93.0177 45.7989 92.9767 45.6024 92.9466 45.4286C92.8782 45.0331 92.8167 44.6365 92.7523 44.244C92.7399 44.1724 92.7074 44.0867 92.75 44.0267C92.8822 43.8529 92.819 43.6707 92.7877 43.49C92.7464 43.2514 92.7052 43.0128 92.6639 42.7742C92.6556 42.7265 92.6309 42.6851 92.5737 42.681C92.5308 42.6779 92.5087 42.7133 92.4975 42.7503C92.4627 42.8757 92.3397 42.9602 92.3359 43.1013C92.3371 43.1291 92.3259 43.1662 92.3105 43.1794C92.0263 43.3514 92.0459 43.7096 91.8401 43.9278C91.7924 43.9782 91.7561 44.0336 91.7679 44.1018C91.8084 44.2949 91.681 44.4152 91.5759 44.5422C91.3198 44.8568 91.0884 45.1918 90.8604 45.5261C90.7118 45.7484 90.5587 45.9645 90.4061 46.184C90.3805 46.22 90.3477 46.2748 90.31 46.2813C90.1113 46.3157 90.0155 46.4762 89.9076 46.6072C89.7815 46.7554 89.631 46.8236 89.4529 46.8544C89.3124 46.8787 89.1788 46.9018 89.0846 47.0304C89.0278 47.1104 88.9233 47.118 88.8308 47.134C88.4162 47.2057 88.0017 47.2774 87.5871 47.3491C87.5152 47.3616 87.425 47.3912 87.3682 47.3484C87.1743 47.2064 86.9723 47.2834 86.773 47.3144C86.6531 47.3351 86.5332 47.3559 86.4133 47.3766C86.3482 47.3879 86.2706 47.4083 86.2212 47.3677C86.0702 47.2288 85.9028 47.2402 85.7223 47.2785C85.6949 47.2832 85.6607 47.2891 85.6383 47.2825C85.3644 47.1473 85.0198 47.1542 84.8047 46.8895C84.7512 46.8251 84.6863 46.7766 84.6676 46.6886C84.6547 46.6346 84.6407 46.5739 84.5896 46.5441C84.3902 46.4311 84.3662 46.2316 84.3366 46.0402C84.2549 45.5066 84.1253 44.9814 84.0847 44.4407C84.0792 44.368 84.0456 44.2965 84.0298 44.2255C83.9866 44.0575 83.9726 43.8949 84.0764 43.74C84.1354 43.6526 84.157 43.533 84.095 43.4805C83.9303 43.344 83.9736 43.2066 84.023 43.0436C84.0455 42.9695 84.0118 42.877 83.9977 42.7952C83.9405 42.4646 83.8867 42.1333 83.8329 41.8021C83.8123 41.6828 83.7917 41.5635 83.8711 41.4515C83.9398 41.3588 83.9072 41.2521 83.8901 41.1533C83.8376 40.8499 83.7851 40.5465 83.7327 40.2432C83.7132 40.1307 83.6943 40.0216 83.8031 39.9361C83.877 39.8741 83.8691 39.7877 83.8578 39.7019C83.8342 39.5656 83.8169 39.4246 83.7933 39.2883C83.7727 39.169 83.7635 39.0547 83.8389 38.9399C83.9121 38.8324 83.8583 38.7048 83.841 38.5849C83.8169 38.4452 83.8053 38.3173 83.8881 38.1836C83.9731 38.0425 83.9013 37.8724 83.9096 37.7165C83.9147 37.6032 83.9039 37.4998 83.9668 37.3941C84.041 37.2724 83.986 37.138 83.9676 37.0113C83.9491 36.8635 83.8998 36.7211 84.0099 36.5827C84.036 36.5501 84.0403 36.4932 84.0326 36.4489C84.002 36.2716 83.9787 36.0966 84.1392 35.9635C84.1455 35.9589 84.15 35.9441 84.1488 35.9373C84.0582 35.6581 84.2643 35.4012 84.2097 35.1263C84.1984 35.0616 84.1746 34.9849 84.2189 34.9351C84.357 34.7743 84.312 34.5961 84.262 34.4292C84.1893 34.1925 84.3396 33.9804 84.5824 33.8542C84.6508 33.8213 84.7216 33.802 84.7664 33.7346C84.8163 33.6557 84.8921 33.6251 84.9778 33.6102C85.1217 33.5854 85.2483 33.5424 85.3144 33.394C85.3478 33.3216 85.4334 33.3068 85.5059 33.2977C85.6813 33.2709 85.8584 33.2543 86.0337 33.2275C86.1091 33.2145 86.1499 33.2671 86.205 33.2997C86.3615 33.3885 86.4966 33.5371 86.7112 33.493C86.7695 33.4829 86.8182 33.5201 86.8636 33.5579C86.9411 33.6182 87.0401 33.6397 87.1286 33.6209C87.3523 33.5681 87.534 33.7614 87.7538 33.7269C87.7744 33.7233 87.818 33.7509 87.8209 33.7679C87.8701 33.9911 88.125 34.098 88.1292 34.3465C88.1343 34.6616 88.3691 34.8562 88.5508 35.0705C88.7015 35.2481 88.7228 35.269 88.5838 35.4651C88.4102 35.7057 88.4102 35.7057 88.1479 35.6177C88.0729 35.592 88.0221 35.6043 87.9801 35.6678C87.8287 35.8941 87.7192 36.1377 87.7492 36.4134C87.7703 36.6169 87.8159 36.8196 87.6826 37.0077C87.6599 37.0397 87.6528 37.1006 87.6599 37.1415C87.6819 37.3097 87.677 37.465 87.5916 37.6237C87.5412 37.7202 87.6013 37.8432 87.6168 37.9529C87.6369 38.0898 87.6668 38.2216 87.5772 38.3564C87.4955 38.4759 87.5614 38.612 87.5798 38.7387C87.6017 38.8858 87.6305 39.0318 87.5037 39.1556C87.428 39.2283 87.4635 39.331 87.4794 39.4231C87.5283 39.706 87.5778 39.9923 87.6233 40.2758C87.6393 40.3679 87.6781 40.47 87.6248 40.5494C87.5091 40.7169 87.5563 40.8878 87.5864 41.0616C87.6182 41.2457 87.6466 41.4303 87.5315 41.6012C87.4646 41.7041 87.4983 41.8176 87.5172 41.9267C87.5868 42.3289 87.657 42.7345 87.7197 43.1379C87.7385 43.247 87.7723 43.3605 87.6945 43.4618C87.6224 43.555 87.6354 43.63 87.7415 43.6924C87.816 43.7356 87.8083 43.7931 87.7595 43.8578C87.659 43.991 87.7255 44.1304 87.7548 44.2588C87.791 44.407 87.9741 44.4455 88.0506 44.3165C88.127 44.1874 88.219 44.0662 88.269 43.9065C88.3382 43.6945 88.355 43.4247 88.6047 43.2973C88.6338 43.2817 88.6724 43.2399 88.6717 43.2155C88.6412 42.9575 88.8428 42.8173 88.9636 42.6384C89.0055 42.575 89.0829 42.5124 89.0798 42.4533C89.0593 42.1514 89.3127 41.9847 89.4167 41.7491C89.4319 41.7148 89.4546 41.6828 89.463 41.6498C89.5354 41.395 89.6731 41.1711 89.7987 40.9387C89.8769 40.7988 89.8546 40.5885 89.9802 40.458C90.0672 40.3692 90.1456 40.2714 90.1758 40.1608C90.2318 39.9335 90.4188 39.7502 90.4072 39.4994C90.4041 39.4403 90.4387 39.3957 90.4727 39.3476C90.5748 39.2036 90.6397 39.0484 90.6949 38.8774C90.764 38.6653 90.9225 38.4799 91.0484 38.2897C91.079 38.2422 91.1285 38.2021 91.1151 38.1447C91.0735 37.9658 91.1866 37.8445 91.2774 37.7164C91.3341 37.6364 91.3743 37.5627 91.3818 37.4631C91.3865 37.3886 91.4176 37.3235 91.459 37.2567C91.5559 37.103 91.6844 36.9685 91.6547 36.7559C91.6398 36.6497 91.7566 36.5698 91.7897 36.4552C91.8755 36.156 91.9952 35.8685 92.0181 35.5521C92.0201 35.5026 92.0571 35.4716 92.0855 35.4316C92.1955 35.2722 92.3182 35.1245 92.3016 34.9062C92.2906 34.7818 92.401 34.6854 92.4823 34.6047C92.5909 34.4981 92.6701 34.344 92.846 34.3206C92.8905 34.3129 92.9177 34.266 92.9461 34.226C92.971 34.1866 92.9965 34.1295 93.0301 34.1202C93.4279 34.0128 93.7491 33.6869 94.1917 33.7157C94.2488 33.7198 94.3168 33.7046 94.3563 33.7293C94.5548 33.8565 94.8069 33.8656 94.9899 34.0059C95.1162 34.1034 95.2535 34.1218 95.3858 34.0708C95.6476 33.9729 95.8703 34.1591 96.1172 34.1585C96.2127 34.1595 96.2225 34.2772 96.24 34.3584C96.2878 34.6345 96.3356 34.9106 96.3827 35.1833C96.4222 35.4117 96.4623 35.6435 96.5018 35.8719C96.5242 36.0014 96.5529 36.1263 96.4529 36.2419C96.4001 36.3037 96.4211 36.3844 96.4307 36.4599C96.4531 36.5895 96.4749 36.7156 96.4973 36.8451C96.5102 36.9201 96.5455 37.0018 96.5213 37.0656C96.4097 37.3588 96.4747 37.653 96.4763 37.9476C96.4775 37.9755 96.48 38.0101 96.4658 38.0301C96.3001 38.2554 96.3906 38.4925 96.4278 38.7283C96.4532 38.8749 96.4888 39.0197 96.3895 39.1597C96.3385 39.2318 96.3612 39.3226 96.3754 39.4044C96.4037 39.568 96.4326 39.7351 96.4609 39.8987C96.4845 40.035 96.5223 40.1724 96.3829 40.2843C96.3083 40.3428 96.3357 40.4399 96.3499 40.5217C96.3782 40.6854 96.4071 40.8524 96.4319 41.0166C96.4602 41.1802 96.4994 41.3455 96.3922 41.5009C96.3446 41.5723 96.3748 41.6654 96.3889 41.7472C96.4237 41.9483 96.4585 42.1495 96.4905 42.3546C96.5158 42.5011 96.5514 42.6459 96.4447 42.7838C96.3931 42.8524 96.4233 42.9455 96.434 43.0279C96.4771 43.2767 96.5195 43.5221 96.5591 43.7715C96.5768 43.8738 96.5991 43.9823 96.5178 44.0631C96.4064 44.1736 96.4356 44.302 96.4574 44.4281C96.5541 44.9871 96.6508 45.5461 96.7447 46.1092C96.77 46.2557 96.8023 46.4011 96.7024 46.5378C96.6422 46.6184 96.6811 46.7205 96.6964 46.8091C96.7565 47.1568 96.8241 47.5067 96.874 47.8562C96.8996 48.0448 96.9791 48.1785 97.1357 48.2884C97.4209 48.4883 97.3747 48.8333 97.0508 48.9806C96.9818 49.0101 96.9111 49.0294 96.8669 49.1002C96.8119 49.1905 96.7246 49.2161 96.6286 49.2327C96.2312 49.3014 95.8338 49.3702 95.4398 49.4383C95.3644 49.4514 95.2913 49.457 95.223 49.4091C95.0429 49.2858 94.8487 49.3054 94.6587 49.3698C94.4989 49.4255 94.3493 49.4374 94.2069 49.3286C94.1255 49.2654 94.0279 49.2929 93.9376 49.3015C93.6423 49.328 93.4565 49.2126 93.3721 48.9288C93.3203 48.7517 93.2953 48.5665 93.2635 48.3824C93.2157 48.1063 93.1679 47.8302 93.1208 47.5575L93.1014 47.5679Z" fill="#FF8CAE"/>
<path d="M122.08 45.4133C121.693 45.4802 121.306 45.5472 120.919 45.6142C120.789 45.6367 120.663 45.6654 120.544 45.5701C120.474 45.512 120.383 45.5383 120.301 45.5491C120.163 45.5728 120.023 45.5971 119.885 45.6174C119.803 45.6316 119.708 45.655 119.644 45.5889C119.528 45.4686 119.393 45.4849 119.253 45.5092C119.15 45.5269 119.049 45.5373 118.959 45.4617C118.93 45.4386 118.884 45.415 118.857 45.4232C118.613 45.5039 118.409 45.3216 118.178 45.3335C118.01 45.3415 117.952 45.1479 117.793 45.1263C117.746 45.1203 117.704 45.0433 117.646 45.0533C117.462 45.0888 117.352 44.9672 117.224 44.8805C117.069 44.7775 116.92 44.6699 116.768 44.5663C116.644 44.4824 116.493 44.4067 116.452 44.2312C116.424 44.1097 116.283 44.0919 116.198 44.0259C116.014 43.8787 115.917 43.6673 115.764 43.4971C115.686 43.4123 115.619 43.3115 115.531 43.2286C115.29 42.9999 115.081 42.7482 114.998 42.4149C114.991 42.3706 114.97 42.311 114.935 42.2959C114.797 42.2286 114.766 42.09 114.684 41.9848C114.561 41.8235 114.47 41.6672 114.433 41.4701C114.21 41.347 114.21 41.0803 114.079 40.9134C113.942 40.7369 113.894 40.5592 113.859 40.3581C113.749 39.724 113.636 39.0906 113.531 38.4594C113.5 38.2822 113.471 38.1117 113.322 37.9899C113.407 37.8244 113.399 37.6572 113.362 37.4811C113.307 37.2062 113.266 36.9289 113.219 36.6562C113.203 36.5642 113.183 36.4693 113.25 36.3875C113.329 36.2931 113.309 36.2193 113.21 36.1557C113.166 36.1282 113.136 36.0772 113.169 36.04C113.286 35.9038 113.225 35.7563 113.214 35.6108C113.212 35.5551 113.204 35.4897 113.251 35.4535C113.384 35.3463 113.368 35.2121 113.344 35.0724C113.329 34.9872 113.325 34.9036 113.383 34.8338C113.436 34.772 113.445 34.7002 113.439 34.6241C113.43 34.5342 113.45 34.4607 113.524 34.4022C113.58 34.3575 113.576 34.2915 113.589 34.226C113.637 33.9964 113.714 33.7689 113.756 33.5406C113.796 33.3196 113.975 33.1517 113.952 32.9203C113.948 32.8965 113.959 32.8594 113.978 32.8422C114.189 32.6161 114.221 32.3087 114.356 32.0501C114.446 31.8766 114.593 31.7459 114.691 31.578C114.769 31.4415 114.76 31.2851 114.831 31.164C114.961 30.9413 115.082 30.6817 115.283 30.5381C115.493 30.3859 115.62 30.1779 115.801 30.0237C115.97 29.8786 116.148 29.7636 116.276 29.5659C116.351 29.4476 116.535 29.4088 116.659 29.3101C116.777 29.216 116.925 29.1553 117.035 29.0379C117.091 28.9755 117.184 28.9595 117.266 28.9453C117.441 28.9151 117.617 28.8951 117.733 28.7276C117.776 28.6676 117.867 28.6658 117.939 28.6534C118.114 28.6231 118.289 28.5929 118.463 28.5627C118.583 28.5419 118.699 28.515 118.779 28.4063C118.844 28.3177 118.955 28.3056 119.055 28.2884C119.349 28.2374 119.644 28.1865 119.938 28.1355C120.014 28.1225 120.101 28.0934 120.157 28.1362C120.332 28.2676 120.516 28.2077 120.698 28.1797C120.801 28.1619 120.893 28.1846 120.996 28.2089C121.257 28.2725 121.499 28.3641 121.713 28.5236C121.762 28.5574 121.822 28.5399 121.879 28.544C121.926 28.5466 121.981 28.5405 122.013 28.563C122.225 28.7265 122.495 28.7184 122.725 28.8049C122.959 28.8909 123.241 28.8668 123.426 29.0805C123.479 29.1415 123.556 29.1774 123.633 29.2167C123.78 29.293 123.935 29.3716 123.965 29.5631C123.968 29.5801 123.972 29.604 123.987 29.6118C124.231 29.7768 124.211 30.0471 124.255 30.2851C124.344 30.7788 124.427 31.2771 124.512 31.7713C124.528 31.8633 124.567 31.9621 124.525 32.0465C124.465 32.1726 124.411 32.2839 124.565 32.3801C124.576 32.3852 124.583 32.4227 124.574 32.4313C124.4 32.6543 124.557 32.9257 124.449 33.1795C124.345 33.4328 124.252 33.7122 124.196 33.9816C124.15 34.2038 124.056 34.3745 123.933 34.5431C123.916 34.5671 123.889 34.5929 123.892 34.6134C123.947 34.8883 123.693 35.0129 123.605 35.2143C123.514 35.4231 123.362 35.5863 123.238 35.7692C123.069 36.0127 122.816 36.1617 122.567 36.3136C122.545 36.328 122.508 36.3379 122.497 36.3608C122.4 36.5952 122.181 36.591 121.979 36.626C121.842 36.6497 121.701 36.674 121.564 36.6977C121.499 36.709 121.422 36.7118 121.386 36.7672C121.275 36.9409 121.092 36.9479 120.918 36.9815C120.613 37.0342 120.308 37.087 120.003 37.1397C119.794 37.1759 119.583 37.2405 119.377 37.1111C119.314 37.0728 119.231 37.1013 119.156 37.1143C118.96 37.1481 118.768 37.1813 118.573 37.2151C118.416 37.2423 118.256 37.2594 118.117 37.15C118.024 37.0784 117.92 37.1138 117.821 37.1276C117.631 37.1534 117.447 37.2132 117.253 37.0889C117.126 37.009 116.997 37.1225 117.019 37.2873C117.048 37.5175 117.099 37.7475 117.131 37.9771C117.182 38.3089 117.222 38.6425 117.282 38.9691C117.372 39.452 117.46 39.9388 117.557 40.4205C117.565 40.4648 117.579 40.5256 117.611 40.5447C117.793 40.6606 117.801 40.8522 117.833 41.0363C117.853 41.1488 117.934 41.2296 117.982 41.3231C118.104 41.5583 118.353 41.7153 118.398 41.9954C118.411 42.0704 118.453 42.1332 118.521 42.1743C118.588 42.2187 118.625 42.2862 118.631 42.3623C118.653 42.6113 118.825 42.75 119.012 42.8756C119.06 42.906 119.107 42.9329 119.131 42.9885C119.244 43.2568 119.417 43.4797 119.659 43.6344C119.845 43.7531 119.883 43.9923 120.085 44.1013C120.163 44.144 120.227 44.1856 120.314 44.1776C120.452 44.1607 120.591 44.1262 120.715 44.2311C120.764 44.2717 120.827 44.2503 120.86 44.1954C120.997 43.9681 121.207 43.7914 121.413 43.6575C121.635 43.5137 121.832 43.2865 122.14 43.2895C122.26 43.2898 122.363 43.2334 122.452 43.1338C122.587 42.9804 123.036 42.9415 123.21 43.0483C123.36 43.1417 123.517 43.1918 123.691 43.2389C123.876 43.2911 124.098 43.2879 124.26 43.4318C124.339 43.4989 124.44 43.4709 124.532 43.4515C124.659 43.4296 124.764 43.4465 124.87 43.5299C125.086 43.6962 125.097 43.8207 124.881 43.9775C124.787 44.0464 124.733 44.1435 124.652 44.2242C124.552 44.3222 124.483 44.4325 124.332 44.4762C124.214 44.5105 124.144 44.6384 124.095 44.7383C124.033 44.8684 123.942 44.9157 123.815 44.9376C123.702 44.9572 123.598 44.9858 123.531 45.0921C123.47 45.1869 123.354 45.1894 123.255 45.21C122.858 45.2788 122.46 45.3475 122.066 45.4156L122.08 45.4133ZM120.734 30.9996C120.69 30.7439 120.645 30.4848 120.601 30.2292C120.588 30.1576 120.587 30.0666 120.523 30.025C120.4 29.9445 120.312 29.8473 120.267 29.7076C120.251 29.6577 120.196 29.6461 120.154 29.6851C119.889 29.9099 119.562 30.0612 119.351 30.3505C119.254 30.4831 119.093 30.532 118.99 30.6482C118.76 30.9126 118.631 31.2474 118.382 31.5011C118.346 31.5389 118.333 31.5833 118.341 31.6311C118.371 31.8015 118.271 31.9205 118.177 32.0281C118.109 32.1065 118.048 32.1803 118.009 32.2784C117.908 32.5345 117.787 32.7731 117.617 32.9955C117.509 33.1408 117.444 33.3204 117.511 33.5196C117.532 33.5826 117.515 33.6487 117.468 33.7025C117.216 33.9778 117.207 34.3373 117.138 34.6723C117.086 34.9201 116.972 35.1609 117.026 35.429C117.03 35.4563 116.995 35.4941 116.975 35.5255C116.917 35.6163 116.944 35.6713 117.026 35.7344C117.155 35.828 117.278 35.8698 117.442 35.8345C117.629 35.7951 117.825 35.726 117.991 35.908C118.039 35.9629 118.135 35.9287 118.207 35.9162C118.584 35.851 118.964 35.7818 119.341 35.72C119.589 35.6808 119.659 35.3948 119.894 35.3471C119.908 35.3447 119.921 35.2968 119.917 35.273C119.892 35.049 120.032 34.9195 120.165 34.7701C120.307 34.6121 120.434 34.4287 120.476 34.2213C120.516 34.0038 120.625 33.8165 120.68 33.6033C120.764 33.2729 120.844 32.964 120.796 32.6424C120.765 32.4475 120.719 32.2414 120.802 32.0656C120.874 31.9126 120.869 31.7836 120.844 31.637C120.808 31.4256 120.771 31.2143 120.734 31.003L120.734 30.9996Z" fill="#FF8CAE"/>
<path d="M106.311 34.4211C106.497 34.4943 106.642 34.4552 106.789 34.4297C107.731 34.2667 108.671 34.1112 109.612 33.9414C109.849 33.9005 110.053 33.9002 110.24 34.061C110.273 34.0904 110.321 34.1418 110.355 34.1359C110.615 34.0874 110.848 34.2087 111.081 34.2736C111.329 34.3395 111.611 34.3188 111.808 34.5376C111.861 34.5986 111.87 34.6321 111.833 34.7018C111.728 34.8919 111.57 34.9755 111.361 35.0116C110.798 35.1054 110.237 35.206 109.671 35.3038C108.685 35.4745 107.698 35.6452 106.711 35.8158C106.585 35.8378 106.463 35.8517 106.359 35.9645C106.232 36.1024 106.18 36.2308 106.225 36.4125C106.264 36.5743 106.282 36.7431 106.307 36.9073C106.32 36.9789 106.349 37.0652 106.303 37.1258C106.18 37.291 106.234 37.4641 106.26 37.6351C106.284 37.7715 106.318 37.9095 106.213 38.0331C106.168 38.0829 106.181 38.1579 106.189 38.2232C106.212 38.3982 106.232 38.5739 106.259 38.7483C106.268 38.8028 106.287 38.8698 106.244 38.9088C106.09 39.0373 106.146 39.1962 106.169 39.3502C106.188 39.4592 106.207 39.5717 106.226 39.6808C106.237 39.7456 106.257 39.8194 106.217 39.872C106.088 40.0242 106.141 40.1871 106.169 40.3507C106.203 40.545 106.236 40.7359 106.266 40.9307C106.285 41.0432 106.297 41.1501 106.222 41.2507C106.154 41.3433 106.182 41.4472 106.2 41.5495C106.238 41.7711 106.276 41.9892 106.311 42.2114C106.33 42.3204 106.351 42.4466 106.279 42.5364C106.172 42.6742 106.196 42.814 106.222 42.9605C106.261 43.1889 106.301 43.4207 106.337 43.6497C106.353 43.7417 106.383 43.8348 106.317 43.92C106.25 44.0018 106.251 44.0683 106.346 44.1257C106.405 44.1645 106.404 44.2209 106.363 44.2701C106.282 44.3719 106.312 44.4826 106.331 44.5917C106.399 44.9871 106.461 45.3837 106.535 45.7745C106.568 45.962 106.567 46.1201 106.434 46.2905C106.296 46.4689 106.196 46.6687 105.933 46.6757C105.716 46.6851 105.513 46.7975 105.279 46.6728C105.112 46.5824 104.894 46.6306 104.703 46.6882C104.573 46.7284 104.451 46.7599 104.342 46.6418C104.286 46.5813 104.207 46.5705 104.133 46.5938C103.906 46.6681 103.73 46.5687 103.575 46.427C103.474 46.3321 103.405 46.323 103.345 46.4633C103.312 46.5392 103.255 46.5561 103.189 46.5008C103.098 46.4218 102.982 46.3856 102.889 46.2998C102.797 46.214 102.71 46.1623 102.827 46.0403C102.854 46.0111 102.857 45.9508 102.83 45.9379C102.636 45.8346 102.75 45.699 102.776 45.5612C102.79 45.4814 102.765 45.3946 102.75 45.3128C102.682 44.9174 102.614 44.5219 102.546 44.1299C102.523 44.0004 102.513 43.8793 102.598 43.7559C102.684 43.625 102.646 43.4666 102.624 43.3194C102.579 43.0149 102.526 42.7115 102.477 42.4075C102.458 42.295 102.439 42.186 102.517 42.0847C102.575 42.0115 102.56 41.9263 102.545 41.8411C102.52 41.6945 102.494 41.5479 102.473 41.4008C102.46 41.3258 102.435 41.2424 102.484 41.1811C102.6 41.0347 102.549 40.8821 102.529 40.7275C102.5 40.4797 102.474 40.2279 102.452 39.9789C102.448 39.934 102.445 39.8749 102.468 39.8429C102.589 39.6885 102.543 39.5244 102.515 39.3608C102.49 39.2142 102.455 39.0728 102.557 38.9322C102.609 38.8636 102.579 38.7705 102.568 38.6881C102.544 38.5517 102.52 38.412 102.497 38.2756C102.482 38.1938 102.467 38.1018 102.54 38.0398C102.655 37.9463 102.638 37.8298 102.617 37.7071C102.595 37.5776 102.573 37.4515 102.55 37.3219C102.536 37.2401 102.514 37.1527 102.557 37.075C102.652 36.9077 102.622 36.7339 102.591 36.5566C102.556 36.3555 102.521 36.1544 102.489 35.9493C102.462 35.7925 102.438 35.6527 102.564 35.5045C102.661 35.3895 102.592 35.1977 102.681 35.0595C102.457 34.9228 102.653 34.7554 102.641 34.603C102.628 34.4228 102.616 34.2562 102.712 34.0923C102.741 34.0381 102.711 33.9484 102.702 33.8728C102.675 33.6984 102.642 33.5251 102.615 33.3507C102.603 33.2791 102.574 33.1929 102.616 33.1328C102.741 32.9568 102.685 32.7769 102.654 32.5962C102.632 32.4667 102.602 32.3383 102.726 32.2362C102.8 32.1743 102.78 32.0828 102.77 32.0004C102.743 31.8436 102.715 31.6868 102.692 31.5328C102.666 31.3794 102.621 31.2222 102.737 31.0758C102.781 31.0226 102.761 30.9522 102.753 30.8868C102.732 30.701 102.714 30.5179 102.689 30.3327C102.679 30.2747 102.669 30.2168 102.719 30.1766C102.837 30.0859 102.817 29.9666 102.796 29.8473C102.769 29.6905 102.742 29.5337 102.715 29.3803C102.691 29.2406 102.668 29.1076 102.751 28.974C102.82 28.8637 102.777 28.7377 102.756 28.6184C102.729 28.4616 102.692 28.3066 102.805 28.1642C102.845 28.1116 102.822 28.0384 102.821 27.9718C102.825 27.771 102.782 27.5643 102.894 27.3729C102.945 27.2833 102.898 27.1721 102.884 27.0727C102.858 26.9193 102.813 26.762 102.925 26.6162C102.975 26.555 102.95 26.4716 102.937 26.4C102.912 26.2534 102.886 26.1068 102.865 25.9597C102.85 25.8779 102.831 25.7864 102.901 25.7217C103.035 25.5967 102.996 25.4525 102.974 25.3054C102.947 25.152 102.899 24.9987 103.015 24.8523C103.061 24.7917 103.04 24.7077 103.027 24.6361C103 24.4793 102.973 24.3225 102.95 24.1685C102.923 24.0117 102.889 23.8595 102.998 23.7143C103.044 23.6536 103.019 23.5702 103.006 23.4952C102.978 23.3316 102.949 23.1646 102.921 23.0009C102.896 22.8544 102.86 22.7096 102.994 22.5846C103.06 22.5205 103.033 22.4268 103.023 22.3444C102.997 22.1978 102.975 22.0507 102.95 21.9041C102.925 21.7609 102.98 21.6707 103.127 21.6418C103.274 21.6163 103.423 21.5976 103.483 21.4186C103.51 21.3473 103.604 21.3381 103.679 21.3251C103.864 21.2931 104.049 21.2611 104.234 21.2291C104.299 21.2178 104.384 21.2207 104.42 21.1795C104.656 20.9173 104.896 21.1005 105.084 21.2084C105.327 21.3455 105.616 21.3657 105.839 21.5342C106.051 21.4906 106.215 21.6835 106.429 21.6569C106.556 21.6384 106.635 21.7687 106.746 21.8163C106.806 21.8409 106.806 21.9216 106.756 21.9584C106.612 22.0641 106.654 22.2043 106.678 22.3406C106.708 22.5145 106.762 22.6842 106.639 22.8494C106.587 22.918 106.625 23.0133 106.639 23.0951C106.68 23.3337 106.721 23.5723 106.756 23.8121C106.77 23.8939 106.797 23.991 106.727 24.0524C106.595 24.1665 106.625 24.3016 106.649 24.438C106.669 24.5573 106.69 24.6766 106.711 24.7959C106.722 24.8607 106.742 24.9379 106.701 24.9871C106.574 25.1495 106.629 25.326 106.655 25.497C106.677 25.6198 106.664 25.7273 106.606 25.8461C106.52 26.019 106.582 26.212 106.592 26.3962C106.602 26.5525 106.642 26.7036 106.548 26.8567C106.488 26.9549 106.54 27.0757 106.556 27.1854C106.578 27.3325 106.617 27.4767 106.513 27.614C106.459 27.6866 106.482 27.7774 106.496 27.8592C106.52 27.9956 106.544 28.1353 106.567 28.2717C106.58 28.3433 106.609 28.4295 106.563 28.4901C106.459 28.624 106.48 28.7677 106.506 28.9177C106.516 28.9722 106.527 29.0404 106.485 29.0794C106.352 29.1901 106.347 29.2823 106.489 29.3877C106.533 29.4186 106.511 29.4751 106.482 29.5117C106.409 29.6015 106.427 29.7038 106.445 29.806C106.472 29.9873 106.532 30.17 106.403 30.3433C106.361 30.4033 106.393 30.489 106.402 30.5611C106.426 30.6975 106.45 30.8372 106.47 30.9742C106.484 31.056 106.504 31.1508 106.434 31.2122C106.309 31.3251 106.336 31.4609 106.356 31.6012C106.383 31.758 106.407 31.9154 106.43 32.0694C106.45 32.1819 106.469 32.291 106.387 32.3894C106.343 32.4426 106.341 32.5097 106.348 32.5751C106.372 32.7501 106.418 32.9176 106.295 33.0828C106.243 33.1514 106.295 33.2477 106.349 33.3156C106.413 33.396 106.434 33.4766 106.394 33.5747C106.355 33.6762 106.383 33.7767 106.398 33.8795C106.429 34.0636 106.43 34.2496 106.307 34.4393L106.311 34.4211Z" fill="#FF8CAE"/>
<path d="M68.1821 46.2823C68.106 45.8426 68.0294 45.3994 67.9533 44.9597C67.9315 44.8336 67.8914 44.7036 67.965 44.5785C68.0058 44.5083 67.9695 44.4619 67.9212 44.4071C67.808 44.2827 67.7804 44.1435 67.9054 44.0096C67.9799 43.93 67.9754 43.843 67.9589 43.7476C67.9306 43.5839 67.9017 43.4169 67.8734 43.2533C67.848 43.1067 67.8158 42.9613 67.9225 42.8235C67.9685 42.7629 67.9504 42.6783 67.938 42.6067C67.9144 42.4703 67.8902 42.3306 67.8701 42.1936C67.8589 42.1289 67.8379 42.0483 67.865 42.0014C67.9545 41.8455 67.9663 41.689 67.9334 41.5192C67.9239 41.4646 67.9339 41.3997 67.9765 41.3607C68.0966 41.2592 68.0816 41.1319 68.0586 40.999C68.0286 40.8251 68.0117 40.6666 68.1005 40.4862C68.1633 40.3595 68.1286 40.1794 68.26 40.0619C68.2725 40.0527 68.2746 40.0243 68.2723 40.0106C68.2369 39.8061 68.2993 39.6163 68.3354 39.4169C68.3727 39.2244 68.4485 39.0709 68.5488 38.9166C68.5908 38.8532 68.6476 38.7942 68.6238 38.7176C68.5591 38.4865 68.6908 38.3093 68.7812 38.1181C68.8892 37.8853 68.9392 37.6239 69.1205 37.4275C69.1702 37.0011 69.4711 36.7209 69.6997 36.39C69.8211 36.2145 69.927 36.0312 70.0771 35.8788C70.2243 35.7305 70.383 35.5872 70.5699 35.4846C70.6377 35.4483 70.7045 35.4263 70.7447 35.3526C70.7849 35.2789 70.8545 35.2529 70.9304 35.2432C71.0812 35.2172 71.2124 35.1804 71.3163 35.0466C71.385 34.954 71.5217 34.9689 71.6307 34.9466C71.7877 34.9159 71.9489 34.9091 72.0193 34.7249C72.0436 34.661 72.1184 34.6446 72.1835 34.6333C72.598 34.5616 73.0126 34.4899 73.4306 34.4176C73.4854 34.4081 73.5648 34.3979 73.5912 34.4284C73.747 34.5946 73.9325 34.5449 74.1153 34.5203C74.2706 34.5005 74.3807 34.6675 74.5387 34.6226C74.7127 34.7716 74.9808 34.669 75.1486 34.8436C75.1659 34.8617 75.2036 34.8762 75.227 34.8687C75.4775 34.7867 75.6951 34.9632 75.9334 34.9536C76.0699 34.9476 76.1704 35.039 76.2474 35.117C76.464 35.3288 76.7489 35.3848 77.0034 35.5093C77.0498 35.5329 77.1167 35.5318 77.1669 35.5161C77.3512 35.4597 77.4962 35.5434 77.6384 35.6312C77.7606 35.7048 77.8059 35.8444 77.7317 35.9661C77.6376 36.1158 77.5314 36.257 77.4253 36.3982C77.3765 36.4629 77.2959 36.4663 77.2211 36.4827C77.0339 36.5221 76.8609 36.5626 76.6942 36.7002C76.524 36.8385 76.2534 36.8853 76.0288 36.7908C75.8959 36.7365 75.7787 36.7322 75.652 36.7541C75.5149 36.7778 75.3745 36.8021 75.2374 36.8258C75.0832 36.8525 74.9314 36.8928 74.7906 36.7522C74.705 36.6652 74.5773 36.7224 74.4671 36.7379C74.302 36.7629 74.136 36.8233 73.989 36.6872C73.9764 36.6753 73.954 36.6687 73.9369 36.6716C73.7222 36.7158 73.5838 36.5888 73.4482 36.4578C73.3718 36.3832 73.3186 36.3608 73.2621 36.4829C73.2005 36.6165 73.1113 36.7337 73.0027 36.8402C72.93 36.909 72.8482 37.0074 72.8458 37.0956C72.8387 37.3812 72.6368 37.56 72.5122 37.7782C72.4527 37.8833 72.3692 37.9714 72.3928 38.1078C72.4046 38.176 72.3689 38.2348 72.3205 38.2818C72.2415 38.3551 72.2334 38.4513 72.2596 38.5416C72.3126 38.7255 72.2397 38.875 72.1318 39.006C72.0471 39.1084 72.0319 39.2445 71.9781 39.3416C71.8303 39.6093 71.9891 39.9154 71.8179 40.1697C71.7702 40.2411 71.8361 40.3772 71.8063 40.4701C71.7337 40.6828 71.6639 40.8914 71.7206 41.1169C71.5418 41.3479 71.6557 41.5985 71.6764 41.8407C71.6811 41.868 71.6876 41.9055 71.6728 41.9221C71.5247 42.1267 71.6134 42.3536 71.6157 42.5709C71.6178 42.7461 71.6512 42.9193 71.5384 43.0828C71.4902 43.1508 71.5312 43.2455 71.5454 43.3273C71.6167 43.7398 71.6846 44.1528 71.7532 44.5693C71.7756 44.6988 71.7928 44.8187 71.7089 44.9455C71.6363 45.0564 71.6627 45.1887 71.7723 45.2716C71.9227 45.386 71.925 45.5015 71.8389 45.6568C71.7653 45.7819 71.7951 45.9136 71.9134 46.0055C72.0477 46.1087 72.0729 46.2342 71.9982 46.3735C71.8861 46.5825 71.9391 46.7664 72.0749 46.9395C72.1026 46.9768 72.1656 47.0151 72.1367 47.0517C71.997 47.2233 72.1414 47.3036 72.2221 47.4231C72.3119 47.555 72.3026 47.7251 72.3331 47.8813C72.3573 48.0211 72.4041 48.1288 72.5304 48.2264C72.6659 48.3363 72.7697 48.508 72.8431 48.6673C72.9096 48.8067 73.002 48.8926 73.111 48.972C73.4128 49.1866 73.7203 49.3932 74.0243 49.6004C74.0403 49.6117 74.0576 49.6298 74.0713 49.6274C74.3311 49.579 74.577 49.7155 74.8318 49.6995C75.1112 49.6827 75.2606 49.5059 75.2751 49.2226C75.2874 48.9466 75.3586 48.6851 75.4589 48.429C75.4883 48.3537 75.4833 48.2843 75.4703 48.2093C75.4468 48.073 75.4226 47.9332 75.4024 47.7963C75.39 47.7247 75.3576 47.639 75.4036 47.5784C75.5318 47.4018 75.4725 47.2224 75.4413 47.0418C75.4065 46.8407 75.362 46.6447 75.4902 46.447C75.5627 46.3362 75.5094 46.191 75.4978 46.0631C75.472 45.8323 75.4862 45.8123 75.7128 45.7555C75.831 45.7246 75.9515 45.7072 76.0016 45.5687C76.0405 45.4672 76.1451 45.4596 76.237 45.4402C76.35 45.4206 76.4591 45.3983 76.5254 45.292C76.5702 45.2246 76.6438 45.2013 76.7192 45.1883C76.911 45.1551 77.1075 45.1281 77.3005 45.1018C77.4313 45.0826 77.5056 45.1857 77.5939 45.2476C77.6943 45.318 77.7923 45.3537 77.9113 45.3893C78.1306 45.4532 78.337 45.4631 78.5615 45.4559C78.705 45.4486 78.8507 45.5568 79.0069 45.5825C79.0721 45.5923 79.1045 45.6779 79.1111 45.7365C79.1379 45.9319 79.2258 46.1344 79.0863 46.3271C79.0324 46.4031 79.0607 46.4649 79.133 46.5156C79.2655 46.6085 79.2787 46.7256 79.1913 46.853C79.1267 46.9485 79.1478 47.0501 79.1615 47.1496C79.1911 47.3411 79.2149 47.5195 79.1296 47.7203C79.0692 47.8607 79.1125 48.0498 79.1237 48.2163C79.1336 48.3551 79.1343 48.4813 79.0704 48.6223C79.0072 48.7666 78.9875 48.9385 78.9478 49.0964C78.8611 49.4519 78.6562 49.7366 78.4548 50.0207C78.3329 50.1927 78.2012 50.37 77.9503 50.3677C77.9148 50.3669 77.8687 50.3854 77.8522 50.4128C77.731 50.6093 77.5223 50.6068 77.3345 50.6428C76.6698 50.7577 76.0051 50.8727 75.3405 50.9877C75.2034 51.0114 75.0641 51.0425 74.9379 50.945C74.865 50.8909 74.7743 50.9171 74.6914 50.9279C74.5441 50.9534 74.3968 50.9789 74.2495 51.0044C74.1741 51.0174 74.0959 51.0345 74.0339 50.982C73.8679 50.8387 73.6825 50.8883 73.5003 50.9163C73.3187 50.9477 73.135 51.0076 72.9599 50.8728C72.9071 50.8328 72.8335 50.8561 72.7684 50.8674C72.6383 50.8899 72.5081 50.9124 72.3978 50.8051C72.3851 50.7932 72.3622 50.7832 72.3451 50.7861C72.0729 50.8648 71.8478 50.665 71.5888 50.6571C71.4505 50.653 71.3579 50.5461 71.2478 50.4809C71.2082 50.4562 71.1771 50.3984 71.1416 50.3975C70.7626 50.3893 70.5229 50.1253 70.2492 49.9304C70.0398 49.7806 69.8213 49.6393 69.6091 49.4935C69.3246 49.297 69.1796 49.0096 68.9736 48.7573C68.8166 48.5633 68.7629 48.3549 68.6937 48.1387C68.6792 48.0956 68.6595 48.0428 68.6274 48.0203C68.4203 47.8841 68.4134 47.6606 68.3775 47.4527C68.3091 47.0573 68.2407 46.6618 68.1729 46.2698L68.1821 46.2823Z" fill="#FF8CAE"/>
</g>
</g>
<defs>
<clipPath id="clip0_1025_1449">
<rect width="252" height="111" fill="white" transform="translate(0 18)"/>
</clipPath>
<clipPath id="clip1_1025_1449">
<rect width="58" height="27" fill="white" transform="translate(65 27.8855) rotate(-9.81344)"/>
</clipPath>
</defs>
</svg>
