<svg width="252" height="147" viewBox="0 0 252 147" fill="none" xmlns="http://www.w3.org/2000/svg">
<mask id="path-1-outside-1_1025_1508" maskUnits="userSpaceOnUse" x="54" y="52" width="144" height="50" fill="black">
<rect fill="white" x="54" y="52" width="144" height="50"/>
<path d="M83.4264 84.834L84.1664 92.382C79.8004 94.01 69.8844 93.936 66.3324 93.936C63.5204 93.936 61.5964 94.084 59.3024 94.084C58.9324 88.682 58.5624 85.5 58.5624 81.06L58.4884 66.408C58.4884 64.114 60.4864 62.634 62.1884 62.264C66.8504 61.82 75.0644 61.154 81.5024 60.266L82.6864 68.11C70.6244 69.442 68.5524 69.738 66.7764 69.96L66.8504 73.216C78.0244 73.068 81.6504 72.846 82.9824 72.846L83.4264 80.912C79.4304 81.578 70.5504 81.356 66.8504 81.652V85.426C68.9964 85.944 80.6884 85.278 83.4264 84.834ZM109.228 76.324C113.816 77.582 118.552 79.95 118.552 85.944C118.552 92.382 112.04 96.6 104.862 96.6C102.716 96.6 97.9061 96.082 95.6121 93.64L99.3861 87.646C100.644 87.942 101.902 88.756 104.27 88.756C106.86 88.756 110.116 87.868 109.968 86.018C109.894 83.65 102.568 82.688 99.3861 80.838C94.0581 77.804 93.1701 73.66 94.4281 68.48C95.5381 63.448 99.8301 60.414 106.786 60.414C111.448 60.414 115.814 62.042 118.108 63.818L114.63 70.552C112.78 69.368 109.894 68.554 106.564 68.554C103.974 68.554 102.346 69.738 102.346 71.884C102.346 73.808 105.602 75.288 109.228 76.324ZM137.017 94.602C137.609 87.646 137.609 78.248 137.313 71.366C132.577 71.366 127.693 72.106 125.473 72.106L125.103 64.262C128.433 63.004 135.833 63.078 140.717 63.078C148.487 63.078 155.739 63.078 158.477 63.744L157.811 71.81C154.555 71.588 148.931 71.366 145.527 71.366C145.971 78.248 145.527 88.534 145.157 94.898L137.017 94.602ZM169.155 57.75C173.817 56.788 178.553 56.492 183.067 57.602C190.393 59.674 193.501 65.742 193.501 71.588C193.501 79.062 184.695 84.464 176.703 84.612C176.629 88.756 176.481 96.822 176.333 97.784L168.119 97.488C168.119 93.418 168.415 86.758 168.415 82.688C168.415 74.844 167.971 66.778 167.305 60.562C167.157 58.786 168.045 58.046 169.155 57.75ZM185.583 70.478C185.583 66.408 181.291 64.484 176.037 65.224C176.185 66.778 176.333 73.512 176.703 76.25C181.439 76.546 185.583 73.29 185.583 70.478Z"/>
</mask>
<path d="M83.4264 84.834L84.1664 92.382C79.8004 94.01 69.8844 93.936 66.3324 93.936C63.5204 93.936 61.5964 94.084 59.3024 94.084C58.9324 88.682 58.5624 85.5 58.5624 81.06L58.4884 66.408C58.4884 64.114 60.4864 62.634 62.1884 62.264C66.8504 61.82 75.0644 61.154 81.5024 60.266L82.6864 68.11C70.6244 69.442 68.5524 69.738 66.7764 69.96L66.8504 73.216C78.0244 73.068 81.6504 72.846 82.9824 72.846L83.4264 80.912C79.4304 81.578 70.5504 81.356 66.8504 81.652V85.426C68.9964 85.944 80.6884 85.278 83.4264 84.834ZM109.228 76.324C113.816 77.582 118.552 79.95 118.552 85.944C118.552 92.382 112.04 96.6 104.862 96.6C102.716 96.6 97.9061 96.082 95.6121 93.64L99.3861 87.646C100.644 87.942 101.902 88.756 104.27 88.756C106.86 88.756 110.116 87.868 109.968 86.018C109.894 83.65 102.568 82.688 99.3861 80.838C94.0581 77.804 93.1701 73.66 94.4281 68.48C95.5381 63.448 99.8301 60.414 106.786 60.414C111.448 60.414 115.814 62.042 118.108 63.818L114.63 70.552C112.78 69.368 109.894 68.554 106.564 68.554C103.974 68.554 102.346 69.738 102.346 71.884C102.346 73.808 105.602 75.288 109.228 76.324ZM137.017 94.602C137.609 87.646 137.609 78.248 137.313 71.366C132.577 71.366 127.693 72.106 125.473 72.106L125.103 64.262C128.433 63.004 135.833 63.078 140.717 63.078C148.487 63.078 155.739 63.078 158.477 63.744L157.811 71.81C154.555 71.588 148.931 71.366 145.527 71.366C145.971 78.248 145.527 88.534 145.157 94.898L137.017 94.602ZM169.155 57.75C173.817 56.788 178.553 56.492 183.067 57.602C190.393 59.674 193.501 65.742 193.501 71.588C193.501 79.062 184.695 84.464 176.703 84.612C176.629 88.756 176.481 96.822 176.333 97.784L168.119 97.488C168.119 93.418 168.415 86.758 168.415 82.688C168.415 74.844 167.971 66.778 167.305 60.562C167.157 58.786 168.045 58.046 169.155 57.75ZM185.583 70.478C185.583 66.408 181.291 64.484 176.037 65.224C176.185 66.778 176.333 73.512 176.703 76.25C181.439 76.546 185.583 73.29 185.583 70.478Z" fill="#EDF798"/>
<path d="M83.4264 84.834L87.4073 84.4437L86.9916 80.2036L82.7861 80.8856L83.4264 84.834ZM84.1664 92.382L85.5639 96.1299L88.4476 95.0546L88.1473 91.9917L84.1664 92.382ZM59.3024 94.084L55.3117 94.3573L55.567 98.084H59.3024V94.084ZM58.5624 81.06H62.5624V81.0499L62.5623 81.0398L58.5624 81.06ZM58.4884 66.408H54.4884V66.4181L54.4884 66.4282L58.4884 66.408ZM62.1884 62.264L61.8091 58.282L61.5717 58.3046L61.3387 58.3553L62.1884 62.264ZM81.5024 60.266L85.4576 59.669L84.8681 55.7639L80.9558 56.3035L81.5024 60.266ZM82.6864 68.11L83.1254 72.0858L87.2628 71.6289L86.6416 67.513L82.6864 68.11ZM66.7764 69.96L66.2802 65.9909L62.6953 66.439L62.7774 70.0509L66.7764 69.96ZM66.8504 73.216L62.8514 73.3069L62.9414 77.2681L66.9034 77.2156L66.8504 73.216ZM82.9824 72.846L86.9763 72.6261L86.7682 68.846H82.9824V72.846ZM83.4264 80.912L84.084 84.8576L87.6172 84.2687L87.4203 80.6922L83.4264 80.912ZM66.8504 81.652L66.5314 77.6647L62.8504 77.9592V81.652H66.8504ZM66.8504 85.426H62.8504V88.5754L65.9118 89.3143L66.8504 85.426ZM79.4455 85.2243L80.1855 92.7723L88.1473 91.9917L87.4073 84.4437L79.4455 85.2243ZM82.7688 88.6341C81.2306 89.2076 78.2357 89.5883 74.7311 89.7752C71.389 89.9534 68.134 89.936 66.3324 89.936V97.936C68.0828 97.936 71.5618 97.9556 75.1572 97.7638C78.5901 97.5807 82.7361 97.1844 85.5639 96.1299L82.7688 88.6341ZM66.3324 89.936C64.8556 89.936 63.6153 89.975 62.491 90.0122C61.356 90.0497 60.3708 90.084 59.3024 90.084V98.084C60.528 98.084 61.6517 98.0443 62.7553 98.0078C63.8694 97.971 64.9972 97.936 66.3324 97.936V89.936ZM63.293 93.8107C62.9106 88.2267 62.5624 85.3176 62.5624 81.06H54.5624C54.5624 85.6824 54.9542 89.1373 55.3117 94.3573L63.293 93.8107ZM62.5623 81.0398L62.4883 66.3878L54.4884 66.4282L54.5624 81.0802L62.5623 81.0398ZM62.4884 66.408C62.4884 66.431 62.4802 66.4748 62.464 66.5101C62.4524 66.5355 62.4558 66.5149 62.51 66.4614C62.5662 66.4059 62.654 66.3385 62.7686 66.2776C62.8849 66.2158 62.9846 66.1843 63.0381 66.1727L61.3387 58.3553C58.6099 58.9485 54.4884 61.5108 54.4884 66.408H62.4884ZM62.5676 66.246C67.1337 65.8111 75.4999 65.1318 82.0489 64.2285L80.9558 56.3035C74.6288 57.1762 66.5671 57.8289 61.8091 58.282L62.5676 66.246ZM77.5472 60.863L78.7312 68.707L86.6416 67.513L85.4576 59.669L77.5472 60.863ZM82.2473 64.1342C70.1587 65.4691 68.0658 65.7677 66.2802 65.9909L67.2725 73.9291C69.039 73.7083 71.09 73.4149 83.1254 72.0858L82.2473 64.1342ZM62.7774 70.0509L62.8514 73.3069L70.8493 73.1251L70.7753 69.8691L62.7774 70.0509ZM66.9034 77.2156C72.5123 77.1414 76.2346 77.0484 78.7269 76.9737C81.3099 76.8963 82.3947 76.846 82.9824 76.846V68.846C82.2381 68.846 80.8438 68.9067 78.4873 68.9773C76.0402 69.0506 72.3624 69.1426 66.7974 69.2164L66.9034 77.2156ZM78.9884 73.0658L79.4324 81.1319L87.4203 80.6922L86.9763 72.6261L78.9884 73.0658ZM82.7688 76.9664C81.1128 77.2424 78.2031 77.3553 74.946 77.4216C71.9047 77.4835 68.5393 77.5041 66.5314 77.6647L67.1694 85.6393C68.8615 85.5039 71.7861 85.4875 75.1088 85.4199C78.2156 85.3567 81.744 85.2476 84.084 84.8576L82.7688 76.9664ZM62.8504 81.652V85.426H70.8504V81.652H62.8504ZM65.9118 89.3143C66.9913 89.5749 68.6194 89.6112 69.9511 89.6145C71.4766 89.6181 73.2923 89.567 75.0942 89.4868C78.6155 89.3301 82.4391 89.0464 84.0667 88.7824L82.7861 80.8856C81.6757 81.0656 78.2843 81.3369 74.7385 81.4947C73.0069 81.5718 71.3261 81.6177 69.9703 81.6145C68.4206 81.6107 67.7825 81.5361 67.7889 81.5377L65.9118 89.3143ZM109.228 76.324L108.129 80.1701L108.15 80.176L108.17 80.1816L109.228 76.324ZM95.6121 93.64L92.2272 91.5087L90.5798 94.1252L92.6967 96.3787L95.6121 93.64ZM99.3861 87.646L100.302 83.7523L97.5226 83.0983L96.0012 85.5147L99.3861 87.646ZM109.968 86.018L105.97 86.1429L105.973 86.2401L105.981 86.337L109.968 86.018ZM99.3861 80.838L101.397 77.38L101.381 77.3709L101.365 77.3621L99.3861 80.838ZM94.4281 68.48L98.3151 69.424L98.3251 69.3829L98.3342 69.3416L94.4281 68.48ZM118.108 63.818L121.662 65.6536L123.191 62.6941L120.557 60.6551L118.108 63.818ZM114.63 70.552L112.474 73.9211L116.17 76.2867L118.184 72.3876L114.63 70.552ZM108.17 80.1816C110.271 80.7576 111.927 81.4734 113.015 82.4018C113.933 83.1845 114.552 84.1848 114.552 85.944H122.552C122.552 81.7092 120.803 78.5285 118.206 76.3142C115.78 74.2455 112.773 73.1484 110.286 72.4664L108.17 80.1816ZM114.552 85.944C114.552 87.6673 113.724 89.2162 112.027 90.4651C110.278 91.7533 107.714 92.6 104.862 92.6V100.6C109.188 100.6 113.47 99.3377 116.77 96.9074C120.125 94.4378 122.552 90.6587 122.552 85.944H114.552ZM104.862 92.6C104.047 92.6 102.638 92.4954 101.253 92.1528C99.7714 91.7863 98.8908 91.2881 98.5275 90.9013L92.6967 96.3787C94.6274 98.4339 97.2988 99.4157 99.3321 99.9187C101.462 100.446 103.531 100.6 104.862 100.6V92.6ZM98.997 95.7713L102.771 89.7773L96.0012 85.5147L92.2272 91.5087L98.997 95.7713ZM98.4699 91.5397C98.5528 91.5592 98.6886 91.6001 99.0074 91.7134C99.2765 91.809 99.7373 91.9791 100.216 92.1291C101.27 92.4591 102.587 92.756 104.27 92.756V84.756C103.586 84.756 103.09 84.6459 102.608 84.4949C102.319 84.4044 102.081 84.3155 101.686 84.1753C101.342 84.0527 100.848 83.8808 100.302 83.7523L98.4699 91.5397ZM104.27 92.756C105.93 92.756 107.93 92.4839 109.647 91.7883C110.5 91.443 111.546 90.8884 112.41 89.9754C113.351 88.9811 114.1 87.508 113.955 85.699L105.981 86.337C105.95 85.9515 106.01 85.554 106.154 85.1909C106.292 84.8431 106.474 84.609 106.599 84.4772C106.813 84.251 106.911 84.2653 106.644 84.3732C106.416 84.4656 106.064 84.5674 105.611 84.6437C105.166 84.7185 104.699 84.756 104.27 84.756V92.756ZM113.966 85.8931C113.879 83.0999 111.723 81.6049 110.802 81.0478C109.659 80.3556 108.281 79.8414 107.14 79.4501C106.538 79.2435 105.917 79.0439 105.337 78.8575C104.744 78.6667 104.191 78.4891 103.663 78.3091C102.555 77.931 101.824 77.6287 101.397 77.38L97.3756 84.296C98.5389 84.9723 99.9174 85.484 101.08 85.8806C101.688 86.0879 102.311 86.2879 102.889 86.4737C103.481 86.6639 104.028 86.8401 104.545 87.0174C105.642 87.3938 106.309 87.6797 106.66 87.8918C107.233 88.2389 106.02 87.7521 105.97 86.1429L113.966 85.8931ZM101.365 77.3621C99.3281 76.2019 98.546 75.0829 98.2077 74.128C97.8367 73.0808 97.7827 71.6161 98.3151 69.424L90.5411 67.536C89.8155 70.5239 89.5765 73.7212 90.6669 76.7994C91.7902 79.9701 94.1161 82.4401 97.4067 84.3139L101.365 77.3621ZM98.3342 69.3416C98.6765 67.79 99.4499 66.6773 100.634 65.8882C101.885 65.0539 103.861 64.414 106.786 64.414V56.414C102.755 56.414 99.1071 57.2911 96.196 59.2318C93.2173 61.2176 91.2897 64.138 90.522 67.6184L98.3342 69.3416ZM106.786 64.414C110.672 64.414 114.149 65.8113 115.659 66.9809L120.557 60.6551C117.479 58.2727 112.224 56.414 106.786 56.414V64.414ZM114.554 61.9824L111.076 68.7164L118.184 72.3876L121.662 65.6536L114.554 61.9824ZM116.786 67.1829C114.146 65.4928 110.463 64.554 106.564 64.554V72.554C109.326 72.554 111.415 73.2432 112.474 73.9211L116.786 67.1829ZM106.564 64.554C104.726 64.554 102.7 64.9661 101.039 66.2482C99.2395 67.6379 98.3461 69.6873 98.3461 71.884H106.346C106.346 71.8589 106.349 71.972 106.264 72.1532C106.176 72.3417 106.046 72.4894 105.928 72.5803C105.823 72.6617 105.785 72.654 105.89 72.6247C105.997 72.5948 106.214 72.554 106.564 72.554V64.554ZM98.3461 71.884C98.3461 75.211 101.041 77.0914 102.41 77.8912C104.107 78.8817 106.202 79.6196 108.129 80.1701L110.327 72.4779C108.628 71.9924 107.283 71.4723 106.444 70.9828C106.026 70.7383 105.921 70.6081 105.958 70.6522C106.021 70.7253 106.346 71.157 106.346 71.884H98.3461ZM137.017 94.602L133.031 94.2628L132.675 98.4468L136.871 98.5994L137.017 94.602ZM137.313 71.366L141.309 71.1941L141.144 67.366H137.313V71.366ZM125.473 72.106L121.477 72.2945L121.657 76.106H125.473V72.106ZM125.103 64.262L123.689 60.5201L120.97 61.5473L121.107 64.4505L125.103 64.262ZM158.477 63.744L162.463 64.0732L162.745 60.6655L159.422 59.8573L158.477 63.744ZM157.811 71.81L157.539 75.8007L161.473 76.069L161.797 72.1392L157.811 71.81ZM145.527 71.366V67.366H141.26L141.535 71.6235L145.527 71.366ZM145.157 94.898L145.011 98.8954L148.923 99.0376L149.15 95.1302L145.157 94.898ZM141.002 94.9412C141.614 87.7578 141.609 78.1772 141.309 71.1941L133.317 71.5379C133.608 78.3188 133.604 87.5342 133.031 94.2628L141.002 94.9412ZM137.313 67.366C134.758 67.366 132.206 67.5649 130.097 67.7516C127.836 67.9517 126.35 68.106 125.473 68.106V76.106C126.816 76.106 128.882 75.8903 130.802 75.7204C132.873 75.5371 135.131 75.366 137.313 75.366V67.366ZM129.468 71.9175L129.098 64.0735L121.107 64.4505L121.477 72.2945L129.468 71.9175ZM126.516 68.0039C127.52 67.6247 129.613 67.3338 132.52 67.1936C135.277 67.0606 138.232 67.078 140.717 67.078V59.078C138.317 59.078 135.131 59.0584 132.134 59.2029C129.288 59.3402 126.016 59.6413 123.689 60.5201L126.516 68.0039ZM140.717 67.078C144.618 67.078 148.315 67.0783 151.377 67.1598C154.583 67.2452 156.647 67.4155 157.531 67.6307L159.422 59.8573C157.569 59.4065 154.638 59.2438 151.59 59.1627C148.399 59.0777 144.585 59.078 140.717 59.078V67.078ZM154.49 63.4148L153.824 71.4808L161.797 72.1392L162.463 64.0732L154.49 63.4148ZM158.083 67.8193C154.754 67.5923 149.038 67.366 145.527 67.366V75.366C148.824 75.366 154.356 75.5837 157.539 75.8007L158.083 67.8193ZM141.535 71.6235C141.961 78.2295 141.534 88.2874 141.164 94.6658L149.15 95.1302C149.519 88.7806 149.98 78.2665 149.519 71.1085L141.535 71.6235ZM145.302 90.9006L137.162 90.6046L136.871 98.5994L145.011 98.8954L145.302 90.9006ZM169.155 57.75L168.346 53.8325L168.235 53.8556L168.124 53.8851L169.155 57.75ZM183.067 57.602L184.155 53.753L184.089 53.7342L184.022 53.7177L183.067 57.602ZM176.703 84.612L176.629 80.6127L172.772 80.6841L172.703 84.5406L176.703 84.612ZM176.333 97.784L176.189 101.781L179.745 101.91L180.286 98.3922L176.333 97.784ZM168.119 97.488H164.119V101.346L167.975 101.485L168.119 97.488ZM167.305 60.562L163.319 60.8942L163.323 60.9412L163.328 60.9881L167.305 60.562ZM176.037 65.224L175.479 61.2631L171.692 61.7964L172.055 65.6032L176.037 65.224ZM176.703 76.25L172.739 76.7857L173.178 80.0375L176.453 80.2422L176.703 76.25ZM169.963 61.6675C174.292 60.7742 178.381 60.5688 182.112 61.4863L184.022 53.7177C178.725 52.4152 173.342 52.8018 168.346 53.8325L169.963 61.6675ZM181.978 61.451C187.249 62.9418 189.501 67.1606 189.501 71.588H197.501C197.501 64.3234 193.537 56.4062 184.155 53.753L181.978 61.451ZM189.501 71.588C189.501 73.6284 188.303 75.7724 185.762 77.6006C183.231 79.422 179.823 80.5535 176.629 80.6127L176.777 88.6113C181.574 88.5225 186.565 86.879 190.435 84.0939C194.296 81.3156 197.501 77.0216 197.501 71.588H189.501ZM172.703 84.5406C172.666 86.6136 172.611 89.6538 172.547 92.2937C172.515 93.6153 172.48 94.8228 172.445 95.7529C172.405 96.8243 172.372 97.2214 172.379 97.1758L180.286 98.3922C180.367 97.8656 180.408 96.8937 180.44 96.0526C180.477 95.0703 180.512 93.822 180.544 92.4888C180.609 89.8192 180.665 86.7544 180.702 84.6834L172.703 84.5406ZM176.477 93.7866L168.263 93.4906L167.975 101.485L176.189 101.781L176.477 93.7866ZM172.119 97.488C172.119 95.5206 172.191 92.901 172.265 90.1983C172.339 87.536 172.415 84.7906 172.415 82.688H164.415C164.415 84.6554 164.343 87.275 164.268 89.9777C164.195 92.64 164.119 95.3854 164.119 97.488H172.119ZM172.415 82.688C172.415 74.7122 171.964 66.5035 171.282 60.1359L163.328 60.9881C163.977 67.0525 164.415 74.9758 164.415 82.688H172.415ZM171.291 60.2298C171.277 60.0639 171.342 60.5041 170.926 61.043C170.55 61.5308 170.139 61.6273 170.185 61.6149L168.124 53.8851C167.061 54.1687 165.651 54.7831 164.59 56.159C163.49 57.5859 163.184 59.2841 163.319 60.8942L171.291 60.2298ZM189.583 70.478C189.583 66.7501 187.491 63.9847 184.622 62.4965C181.937 61.1036 178.647 60.8168 175.479 61.2631L176.595 69.1849C178.68 68.8912 180.164 69.1964 180.938 69.598C181.295 69.7833 181.433 69.9496 181.482 70.0245C181.518 70.0801 181.583 70.1951 181.583 70.478H189.583ZM172.055 65.6032C172.116 66.2498 172.183 68.1199 172.291 70.4761C172.39 72.6465 172.525 75.2057 172.739 76.7857L180.667 75.7143C180.51 74.5563 180.386 72.3795 180.282 70.1099C180.187 68.0261 180.105 65.7522 180.019 64.8448L172.055 65.6032ZM176.453 80.2422C179.785 80.4505 182.886 79.419 185.198 77.8169C187.338 76.3331 189.583 73.7592 189.583 70.478H181.583C181.583 70.2 181.677 70.172 181.53 70.3941C181.39 70.6049 181.107 70.9186 180.64 71.2421C179.695 71.897 178.356 72.3455 176.952 72.2578L176.453 80.2422Z" fill="#FF7989" mask="url(#path-1-outside-1_1025_1508)"/>
<g clip-path="url(#clip0_1025_1508)">
<path d="M158.631 25.3303C158.631 25.1728 158.634 25.0123 158.631 24.8548C158.619 24.4357 158.79 24.0641 158.894 23.6718C159.044 23.0951 159.39 22.6284 159.705 22.1529C159.924 21.8259 160.201 21.5138 160.588 21.3503C160.624 21.3355 160.653 21.3028 160.683 21.276C161.049 20.9342 161.483 20.6964 161.905 20.4319C162.236 20.2268 162.569 20.0365 162.921 19.8731C163.296 19.7007 163.685 19.552 164.113 19.5996C164.169 19.6055 164.229 19.5996 164.288 19.5996C164.725 19.5996 164.89 19.4391 164.908 18.9932C164.913 18.8416 164.908 18.693 164.91 18.5414C164.919 18.3126 164.881 18.0867 165.029 17.8667C165.099 17.7597 165.061 17.5754 165.058 17.4238C165.049 16.8531 165.259 16.3122 165.241 15.7325C165.232 15.4799 165.268 15.1589 165.38 14.936C165.539 14.6209 165.398 14.2553 165.625 13.9729C165.663 13.9253 165.654 13.8273 165.652 13.753C165.64 13.4111 165.752 13.105 165.876 12.7929C165.944 12.6264 165.941 12.4302 166.003 12.2608C166.15 11.8387 166.322 11.4107 166.546 11.0392C166.747 10.7033 166.859 10.3109 167.163 10.0167C167.429 9.75808 167.695 9.49354 167.987 9.26764C168.191 9.11011 168.421 8.98527 168.704 9.00607C168.97 9.02391 169.236 9.02391 169.501 9.00607C169.935 8.97932 170.319 9.12794 170.721 9.27359C171.016 9.38357 171.335 9.4341 171.624 9.58271C171.928 9.74025 172.223 9.91859 172.513 10.0969C172.841 10.2991 173.009 10.632 173 11.0392C172.991 11.4077 172.991 11.7763 173 12.1449C173.015 12.6383 172.861 13.1139 172.811 13.6014C172.767 14.0413 172.634 14.4901 172.536 14.933C172.513 15.034 172.43 15.0965 172.395 15.1946C172.268 15.5453 172.099 15.8782 172.079 16.2646C172.076 16.3478 172.002 16.4251 171.958 16.5054C171.775 16.8353 171.792 17.2336 171.642 17.5665C171.506 17.8637 171.382 18.1669 171.276 18.4731C171.137 18.8773 170.877 19.2221 170.777 19.6472C170.718 19.9028 170.541 20.1287 170.423 20.3724C170.204 20.8272 169.935 21.2552 169.746 21.7248C169.519 22.2866 169.18 22.7919 168.92 23.3329C168.737 23.7163 168.394 23.9957 168.279 24.4148C168.261 24.4802 168.191 24.5337 168.134 24.5813C167.783 24.8875 167.568 25.2947 167.331 25.684C167.222 25.8654 167.287 26.0764 167.269 26.2755C167.24 26.6382 167.258 26.9949 167.199 27.3634C167.157 27.6191 167.222 27.946 167.252 28.2403C167.293 28.6534 167.331 29.0785 167.447 29.4649C167.571 29.884 167.63 30.3269 167.822 30.7341C167.916 30.9333 167.946 31.1859 168.005 31.4148C168.07 31.6674 168.176 31.9022 168.194 32.1757C168.202 32.3332 168.403 32.4611 168.577 32.5354C168.639 32.5621 168.695 32.5829 168.746 32.6334C169.064 32.9515 169.008 32.9247 168.819 33.3468C168.636 33.757 168.353 33.7897 168.002 33.7719C167.984 33.7719 167.969 33.7719 167.951 33.7719C167.326 33.8729 166.809 33.6946 166.431 33.1685C166.328 33.0288 166.159 32.9872 166.029 32.8861C165.776 32.6899 165.687 32.4343 165.657 32.1341C165.613 31.7061 165.483 31.2959 165.392 30.8768C165.318 30.535 165.141 30.2318 165.091 29.9078C165.046 29.6135 164.961 29.3222 164.875 29.0577C164.781 28.7605 164.825 28.4305 164.645 28.1571C164.592 28.0738 164.589 28.0471 164.474 28.1036C164.01 28.3295 163.526 28.4305 163.003 28.487C162.593 28.5316 162.177 28.6594 161.772 28.591C161.391 28.5286 160.999 28.487 160.638 28.2284C160.317 27.9995 160.018 27.7171 159.629 27.5566C159.328 27.4318 159.1 27.1197 158.902 26.8106C158.604 26.3409 158.604 25.8446 158.628 25.3303H158.631ZM164.615 21.4573C164.075 21.5198 163.768 21.9329 163.375 22.1885C163.098 22.3699 162.862 22.6552 162.614 22.893C162.239 23.2526 162.038 23.7134 161.769 24.1236C161.521 24.504 161.433 24.9974 161.439 25.4819C161.441 25.9486 161.439 26.4182 161.444 26.8849C161.447 27.1197 161.563 27.1643 161.772 27.1138C162.224 27.0038 162.51 26.6382 162.87 26.3974C163.275 26.1299 163.673 25.8327 164.001 25.4552C164.199 25.2293 164.412 25.0063 164.459 24.7151C164.509 24.4059 164.503 24.079 164.468 23.7669C164.432 23.4607 164.695 23.1694 164.494 22.8603C164.465 22.8127 164.503 22.7473 164.544 22.6998C164.592 22.6493 164.621 22.5898 164.621 22.5185C164.621 22.1618 164.621 21.8021 164.621 21.4573H164.615ZM167.78 19.2429C167.807 19.1419 167.816 19.0319 167.866 18.9457C168.146 18.4463 168.365 17.9172 168.566 17.3822C168.669 17.1088 168.802 16.8531 168.899 16.5737C168.967 16.3776 169.014 16.1546 169.115 15.9555C169.188 15.8128 169.259 15.6315 169.301 15.4561C169.363 15.1975 169.466 14.9508 169.543 14.6982C169.605 14.4901 169.732 14.2939 169.738 14.074C169.746 13.7708 169.87 13.4944 169.921 13.2001C170.003 12.7305 170.163 12.2757 170.157 11.7912C170.157 11.6337 170.178 11.4761 170.183 11.3156C170.189 11.1818 170.195 11.0481 170.183 10.9143C170.178 10.843 170.145 10.7865 170.056 10.8608C169.808 11.0689 169.614 11.3453 169.49 11.6128C169.212 12.2252 168.887 12.8167 168.722 13.4825C168.63 13.857 168.424 14.2048 168.444 14.612C168.444 14.6566 168.409 14.7041 168.394 14.7487C168.315 15.0281 168.214 15.3016 168.164 15.5869C168.111 15.8901 168.105 16.1992 168.049 16.5054C167.975 16.9156 167.777 17.3228 167.854 17.7657C167.892 17.9856 167.839 18.2293 167.78 18.4225C167.692 18.7079 167.739 18.9635 167.771 19.2399L167.78 19.2429Z" fill="#00AD4B"/>
<path d="M82.1827 22.6104C82.2241 22.4648 82.3097 22.3578 82.4278 22.2805C82.4484 22.2656 82.4839 22.2507 82.4839 22.2329C82.4986 21.8108 82.844 21.5552 83.0035 21.2045C83.1599 20.8597 83.3696 20.5268 83.591 20.2087C83.7357 20.0036 83.8921 19.8045 83.9984 19.5667C84.087 19.3705 84.2464 19.21 84.3616 19.0198C84.6184 18.5918 84.893 18.1727 85.1941 17.7744C85.3919 17.5128 85.5927 17.2512 85.7551 16.9688C85.885 16.7429 86.0887 16.5735 86.1891 16.3268C86.3396 15.9493 86.9094 15.7888 87.3523 15.9761C87.5796 16.0712 87.8129 16.1544 88.0579 16.199C88.0756 16.202 88.0992 16.199 88.1051 16.2049C88.2203 16.3684 88.4004 16.4249 88.5746 16.4576C88.8108 16.5022 88.9229 16.6954 89.0853 16.8291C89.2388 16.954 89.2772 17.1204 89.2743 17.3166C89.2684 18.7404 89.2595 20.1612 89.2831 21.582C89.289 21.9 89.4042 22.2181 89.4927 22.5272C89.5311 22.6669 89.4455 22.8096 89.5547 22.9552C89.6167 23.0384 89.5636 23.2019 89.5931 23.3208C89.6226 23.4367 89.7732 23.5021 89.7526 23.6626C89.8116 23.1722 90.1777 22.8274 90.2899 22.3637C90.3607 22.0694 90.467 21.7573 90.6471 21.4868C90.7564 21.3234 90.7593 21.1064 90.8479 20.9162C91.0693 20.4346 91.1963 19.9204 91.3409 19.4121C91.4118 19.1654 91.5328 18.8979 91.6863 18.669C91.7631 18.5561 91.7336 18.4223 91.7808 18.3094C91.8664 18.1132 91.9816 17.9289 92.0465 17.7268C92.1705 17.3582 92.3713 17.0253 92.4687 16.6449C92.5278 16.413 92.6813 16.2049 92.7905 15.985C92.9913 15.5837 93.2452 15.2092 93.3308 14.7574C93.3515 14.6415 93.4194 14.582 93.5375 14.582C93.8032 14.582 94.0689 14.582 94.3346 14.582C94.4261 14.582 94.4793 14.6385 94.5472 14.692C94.6298 14.7604 94.7007 14.9506 94.8542 14.7663C94.8808 14.7366 94.9221 14.7871 94.9605 14.805C95.2203 14.9357 95.4831 15.0576 95.7429 15.1884C96.0174 15.3251 96.1326 15.5956 96.2654 15.8483C96.2743 15.8661 96.2507 15.9166 96.23 15.9315C95.9436 16.1098 95.8698 16.4576 95.6455 16.6865C95.5008 16.8351 95.5598 17.058 95.4329 17.2304C95.2557 17.4741 95.0934 17.7625 95.0196 18.0448C94.9369 18.3688 94.7332 18.6453 94.7066 18.9782C94.6948 19.109 94.6151 19.1862 94.5501 19.2813C94.4025 19.5072 94.3907 19.7867 94.2637 20.0185C94.0718 20.3692 93.9567 20.7646 93.8563 21.1391C93.7618 21.4898 93.5699 21.79 93.4814 22.1408C93.4076 22.4291 93.2865 22.7323 93.13 23.0146C92.9913 23.2643 92.8998 23.5675 92.8053 23.8499C92.634 24.3641 92.3772 24.8308 92.1381 25.3093C91.9609 25.663 91.8192 26.0316 91.4885 26.2783C91.4502 26.308 91.4147 26.3645 91.3763 26.3675C91.0457 26.4061 90.7504 26.6053 90.3962 26.5429C90.1777 26.5072 89.9474 26.5488 89.723 26.531C89.4544 26.5102 89.2005 26.4507 89.0794 26.1505C89.0469 26.0673 88.9554 25.987 88.8728 25.9484C88.3118 25.6809 87.869 25.2885 87.5531 24.7505C87.4615 24.593 87.4231 24.4057 87.373 24.2422C87.2519 23.8469 87.125 23.4486 87.0393 23.0384C86.9714 22.7144 86.9921 22.3518 86.8002 22.0516C86.7648 21.9951 86.7559 21.903 86.7677 21.8346C86.8209 21.4868 86.6851 21.1777 86.5492 20.8121C86.4341 21.1629 86.1802 21.3828 86.0651 21.6979C85.9913 21.897 85.8082 22.0248 85.7226 22.2329C85.4864 22.7858 85.1203 23.2673 84.8487 23.8053C84.6391 24.2244 84.4383 24.6524 84.1785 25.0537C83.9512 25.4015 83.7298 25.7671 83.5438 26.1505C83.4316 26.3794 83.2721 26.6172 83.0891 26.8193C82.8795 27.0482 82.6462 27.2473 82.478 27.5267C82.2742 27.8656 81.8727 27.9161 81.5155 27.9874C81.3472 28.0231 81.1671 27.9845 80.9929 27.9993C80.6327 28.035 80.3168 27.9101 80.0836 27.6634C79.7972 27.3603 79.3927 27.2146 79.13 26.8817C79.0473 26.7747 78.9912 26.6796 79.003 26.5458C79.0591 25.8622 78.9558 25.1666 79.0562 24.4949C79.1477 23.8856 79.1447 23.2732 79.2363 22.6639C79.2865 22.3251 79.2687 21.9743 79.3485 21.6444C79.4606 21.1747 79.3544 20.6813 79.4754 20.2385C79.5876 19.8253 79.5079 19.4032 79.6171 19.0198C79.7677 18.4996 79.6171 17.9497 79.7766 17.4741C79.9124 17.0669 79.7559 16.627 80.0127 16.2555C80.0777 16.1604 80.0364 15.9939 80.0423 15.8602C80.0541 15.5926 80.1633 15.4767 80.4261 15.4767C80.8955 15.4737 81.3767 15.4143 81.8225 15.6016C82.2949 15.8007 82.8027 15.9404 83.1865 16.3179C83.2662 16.3981 83.3076 16.4784 83.2721 16.5824C83.2397 16.6805 83.1452 16.6746 83.0625 16.6865C82.8942 16.7132 82.7643 16.9778 82.6905 17.1918C82.4986 17.7506 82.6226 18.3302 82.5252 18.8831C82.4632 19.2397 82.4957 19.5994 82.4219 19.9442C82.3333 20.3633 82.3156 20.7824 82.2654 21.2015C82.2329 21.4898 82.168 21.7841 82.1237 22.0754C82.0941 22.2537 82.1207 22.4231 82.1886 22.6015L82.1827 22.6104Z" fill="#00AD4B"/>
<path d="M124.558 25.2053C124.1 25.6185 123.734 26.0435 123.406 26.5072C123.194 26.8074 122.952 27.0898 122.707 27.3692C122.527 27.5773 122.285 27.6843 122.01 27.7021C121.862 27.711 121.709 27.6932 121.561 27.7081C121.121 27.7527 120.738 27.6962 120.46 27.2801C120.324 27.0779 120.035 27.0423 119.858 26.855C119.704 26.6915 119.616 26.534 119.627 26.3081C119.642 26.0822 119.586 25.8444 119.642 25.6334C119.751 25.2291 119.701 24.8011 119.813 24.4236C119.914 24.0818 119.911 23.7578 119.926 23.4279C119.937 23.1812 120.056 22.9671 120.129 22.7502C120.197 22.554 120.277 22.34 120.315 22.1438C120.428 21.5731 120.634 21.0351 120.794 20.4793C120.891 20.1374 121.092 19.8253 121.095 19.4508C121.095 19.32 121.21 19.222 121.257 19.0971C121.402 18.7196 121.567 18.3511 121.694 17.9646C121.809 17.6169 121.898 17.2661 122.004 16.9213C122.143 16.4725 122.293 16.0207 122.474 15.5838C122.568 15.3549 122.603 15.0963 122.674 14.8526C122.763 14.5553 122.834 14.2522 122.937 13.9549C122.993 13.7914 123.094 13.5982 123.026 13.3812C122.996 13.2861 123.094 13.1286 123.173 13.0335C123.271 12.9146 123.265 12.7927 123.277 12.659C123.3 12.3023 123.389 11.9605 123.536 11.6365C123.545 11.6127 123.566 11.5889 123.56 11.5681C123.504 11.2441 123.699 10.9647 123.746 10.6586C123.787 10.4059 123.843 10.1503 123.882 9.89169C123.911 9.68362 124.41 9.52311 124.602 9.64498C124.667 9.68659 124.726 9.72523 124.803 9.72821C125.231 9.74307 125.588 9.95411 125.963 10.1295C126.205 10.2424 126.43 10.394 126.684 10.4832C126.873 10.5486 127.014 10.7002 127.088 10.8637C127.147 10.9974 127.218 11.1133 127.318 11.2055C127.439 11.3184 127.428 11.4462 127.395 11.574C127.36 11.7197 127.227 11.684 127.123 11.687C126.949 11.6929 126.775 11.6959 126.601 11.687C126.444 11.6811 126.374 11.7405 126.374 11.904C126.374 12.3171 126.199 12.6917 126.114 13.081C126.058 13.3426 125.984 13.6012 125.916 13.8568C125.795 14.3175 125.757 14.7931 125.565 15.242C125.467 15.4679 125.358 15.7116 125.367 15.9791C125.376 16.208 125.219 16.3923 125.169 16.6092C125.125 16.7995 125.018 16.963 125.004 17.1859C124.986 17.4653 124.812 17.7358 124.7 18.0063C124.682 18.0479 124.635 18.0835 124.635 18.137C124.623 18.5918 124.384 18.9663 124.227 19.3765C124.148 19.5846 124.083 19.8224 124.015 20.0423C123.911 20.3782 123.832 20.72 123.708 21.05C123.578 21.3948 123.451 21.7425 123.339 22.0962C123.309 22.1824 123.291 22.3132 123.415 22.3578C123.542 22.4024 123.56 22.2894 123.581 22.1973C123.584 22.1824 123.59 22.1587 123.598 22.1527C123.894 22.0041 124.038 21.6861 124.316 21.5166C124.584 21.3502 124.794 21.1035 124.986 20.8627C125.104 20.7171 125.246 20.6071 125.379 20.4941C125.689 20.2326 125.892 19.8789 126.146 19.5727C126.444 19.213 126.725 18.8237 127.076 18.5324C127.38 18.2797 127.64 17.9587 127.977 17.7744C128.343 17.5693 128.73 17.385 129.128 17.2245C129.601 17.0373 130.058 17.1056 130.516 17.1205C130.823 17.1324 131.153 17.2691 131.422 17.4326C131.697 17.602 132.016 17.6971 132.252 17.9409C132.541 18.2381 132.523 18.2886 132.166 18.4818C131.868 18.6423 131.57 18.8118 131.289 19.0198C130.997 19.2338 130.737 19.5103 130.389 19.647C130.353 19.6619 130.33 19.7005 130.3 19.7302C130.043 20.0126 129.725 20.2296 129.423 20.4436C128.921 20.8033 128.52 21.2551 128.074 21.6652C127.953 21.7782 127.888 21.903 127.847 22.0635C127.785 22.3073 127.566 22.4737 127.487 22.7145C127.475 22.7531 127.439 22.7888 127.436 22.8274C127.395 23.3 127.191 23.7548 127.268 24.2453C127.289 24.3731 127.295 24.5157 127.2 24.6287C127.15 24.6881 127.188 24.7357 127.221 24.7833C127.268 24.8487 127.286 24.9319 127.245 24.9973C127.185 25.0894 127.15 25.1667 127.245 25.2559C127.262 25.2737 127.271 25.3242 127.259 25.351C127.088 25.7552 127.363 26.0703 127.484 26.4091C127.735 27.1255 128.287 27.613 128.786 28.145C129.066 28.4423 129.308 28.7811 129.311 29.221C129.314 29.4915 129.146 29.652 128.877 29.652C128.588 29.652 128.296 29.6431 128.006 29.649C127.841 29.652 127.738 29.5212 127.614 29.4529C127.413 29.3429 127.224 29.1913 127.041 29.0486C126.92 28.9565 126.775 28.9267 126.666 28.8287C126.548 28.7217 126.459 28.6087 126.571 28.4393C126.645 28.3263 126.598 28.2401 126.533 28.1242C126.196 27.5208 125.706 27.0482 125.263 26.534C124.951 26.1684 124.706 25.7314 124.558 25.2113V25.2053Z" fill="#00AD4B"/>
<path d="M157.199 19.4599C157.199 19.6531 157.199 19.8433 157.199 20.0365C157.202 20.5329 157.061 21.0025 156.934 21.4752C156.881 21.6743 156.833 21.8913 156.824 22.0815C156.807 22.4352 156.706 22.7741 156.615 23.0981C156.526 23.4131 156.553 23.7579 156.387 24.0492C156.367 24.0849 156.343 24.1414 156.355 24.1652C156.467 24.3702 156.399 24.5902 156.331 24.7596C156.154 25.2025 156.296 25.6811 156.16 26.0972C156.045 26.4569 156.107 26.8046 156.03 27.1435C155.971 27.408 155.998 27.5507 156.24 27.6934C156.411 27.7914 156.379 27.9936 156.255 28.1511C156.125 28.3176 155.924 28.4275 155.871 28.6594C155.85 28.7545 155.738 28.7396 155.655 28.7456C155.398 28.7664 155.145 28.7218 154.888 28.8674C154.716 28.9655 154.477 28.9239 154.3 28.7367C154.061 28.481 153.772 28.2878 153.462 28.1154C153.249 27.9965 153.04 27.8212 153.087 27.5031C153.11 27.3307 153.093 27.1524 153.093 26.977C153.093 26.8433 153.11 26.7303 153.19 26.6055C153.308 26.4093 153.214 26.1626 153.249 25.9426C153.329 25.4314 153.323 24.9053 153.482 24.4029C153.515 24.3019 153.5 24.186 153.518 24.079C153.589 23.6212 153.707 23.1694 153.772 22.7176C153.831 22.3104 153.967 21.9091 153.955 21.49C153.949 21.2493 154.093 21.0412 154.164 20.8153C154.206 20.6786 154.241 20.5507 154.25 20.411C154.274 20.0246 154.383 19.659 154.492 19.2905C154.501 19.2578 154.527 19.231 154.492 19.2043C154.457 19.1745 154.412 19.1805 154.377 19.2043C154.274 19.2726 154.182 19.3529 154.096 19.448C153.786 19.7928 153.335 19.9711 153.051 20.3486C152.797 20.6875 152.476 20.958 152.207 21.2849C151.983 21.5554 151.714 21.814 151.495 22.0904C151.1 22.5928 150.616 23.0178 150.273 23.5647C150.235 23.6272 150.179 23.6807 150.126 23.7342C149.751 24.1235 149.467 24.5902 149.077 24.9736C148.948 25.1014 148.8 25.2679 148.705 25.4522C148.673 25.5146 148.605 25.5711 148.54 25.6008C148.071 25.8029 147.56 25.8951 147.079 25.7673C146.81 25.6959 146.497 25.5919 146.282 25.3244C146.158 25.1698 145.91 25.1312 145.753 24.9766C145.667 24.8934 145.617 24.8191 145.617 24.7002C145.62 24.3078 145.526 23.8798 145.647 23.5291C145.786 23.1248 145.653 22.6819 145.895 22.3134C145.904 22.2985 145.913 22.2807 145.91 22.2658C145.83 21.817 146.025 21.4008 146.096 20.9788C146.169 20.5537 146.122 20.093 146.341 19.6917C146.355 19.665 146.355 19.6263 146.361 19.5936C146.447 18.803 146.571 18.0183 146.515 17.2187C146.494 16.9363 146.509 16.651 146.515 16.3657C146.518 16.0238 146.763 15.8485 147.082 15.9703C147.17 16.003 147.226 15.9971 147.309 15.9703C147.451 15.9198 147.581 15.9376 147.731 16.0179C147.914 16.116 148.133 16.1546 148.339 16.1933C148.452 16.2141 148.543 16.2378 148.62 16.33C148.714 16.44 148.824 16.5143 148.983 16.5054C149.154 16.4994 149.258 16.6272 149.305 16.7699C149.352 16.9155 149.402 17.0552 149.414 17.2247C149.426 17.4179 149.508 17.6557 149.449 17.8251C149.284 18.2858 149.402 18.7852 149.201 19.2429C149.125 19.4183 149.184 19.6561 149.172 19.8641C149.16 20.09 149.231 20.3338 149.048 20.5329C149.007 20.5775 149.004 20.6726 149.066 20.7142C149.139 20.7648 149.157 20.6696 149.193 20.634C149.482 20.3457 149.807 20.0841 150.043 19.7601C150.182 19.5699 150.376 19.4421 150.506 19.237C150.598 19.0913 150.828 19.0348 150.952 18.8714C151.262 18.4671 151.696 18.1937 152.089 17.8905C152.355 17.6854 152.679 17.5308 152.989 17.3703C153.503 17.1058 154.031 17.0671 154.581 17.0909C154.835 17.1028 155.679 17.3079 155.933 17.4892C156.077 17.5932 156.278 17.5873 156.455 17.6705C156.901 17.8816 157.205 18.2709 157.202 18.7554C157.202 18.9903 157.202 19.2251 157.202 19.4569L157.199 19.4599Z" fill="#00AD4B"/>
<path d="M133.943 23.2942C133.943 23.1277 133.964 22.9553 133.94 22.7919C133.858 22.2449 134.067 21.7337 134.121 21.2046C134.15 20.9163 134.298 20.6309 134.428 20.3634C134.498 20.2178 134.428 20.0662 134.531 19.9205C134.738 19.6411 134.761 19.2577 135.027 18.9961C135.133 18.8921 135.18 18.7257 135.239 18.583C135.269 18.5116 135.296 18.4492 135.349 18.3898C135.774 17.9083 136.169 17.4 136.639 16.9571C136.854 16.752 137.037 16.5083 137.271 16.3299C137.548 16.1219 137.843 15.9138 138.213 15.8989C138.52 15.887 138.83 15.8662 139.134 15.9049C139.488 15.9465 139.83 16.0535 140.176 16.1456C140.394 16.2051 140.595 16.3061 140.819 16.3596C141.079 16.4191 141.315 16.5885 141.566 16.7015C142.039 16.9185 142.346 17.3227 142.662 17.7061C142.795 17.8666 142.919 18.0628 142.892 18.3125C142.871 18.5265 142.91 18.7494 142.883 18.9634C142.836 19.3558 142.824 19.76 142.614 20.1197C142.544 20.2416 142.603 20.3961 142.523 20.5269C142.275 20.9341 142.006 21.3265 141.67 21.6683C141.434 21.9091 141.224 22.1885 140.952 22.3728C140.619 22.5987 140.371 22.9553 139.937 23.0326C139.771 23.0623 139.698 23.2466 139.541 23.3209C139.054 23.5468 138.549 23.6033 138.024 23.5914C137.787 23.5855 137.536 23.5141 137.294 23.6628C137.247 23.6925 137.023 23.7133 136.908 23.6479C136.781 23.5766 136.787 23.6479 136.739 23.7252C136.512 24.0967 136.559 24.5218 136.639 24.8904C136.707 25.2054 136.716 25.5621 136.919 25.8415C136.996 25.9455 137.138 26.008 137.197 26.1179C137.46 26.6203 137.976 26.7808 138.41 27.0513C138.466 27.0869 138.555 27.078 138.629 27.078C138.954 27.078 139.278 27.0869 139.6 27.078C140.223 27.0602 140.793 27.2118 141.354 27.4941C141.584 27.6101 141.811 27.7438 142.048 27.8508C142.127 27.8865 142.195 27.9608 142.248 28.0321C142.304 28.1124 142.31 28.2521 142.207 28.261C141.971 28.2789 141.8 28.4602 141.552 28.4513C141.053 28.4334 140.554 28.4513 140.055 28.4483C139.836 28.4483 139.606 28.5018 139.417 28.3234C139.385 28.2907 139.305 28.2997 139.249 28.3026C138.844 28.3353 138.496 28.1629 138.127 28.0411C137.917 27.9727 137.714 27.8449 137.477 27.8449C137.312 27.8449 137.179 27.723 137.064 27.6428C136.63 27.3336 136.169 27.0632 135.765 26.7065C135.511 26.4806 135.237 26.2517 134.938 26.0734C134.867 26.0317 134.77 25.9782 134.755 25.9128C134.699 25.6602 134.431 25.577 134.342 25.3778C134.194 25.0419 133.908 24.7625 133.94 24.3464C133.967 23.9986 133.946 23.6449 133.946 23.2912L133.943 23.2942ZM140.01 17.2632C139.727 17.5635 139.479 17.8785 139.178 18.1282C138.871 18.3838 138.682 18.7346 138.378 18.9932C138.139 19.1953 138.009 19.5312 137.843 19.8106C137.737 19.9949 137.533 20.1346 137.507 20.3426C137.463 20.6963 137.226 20.9639 137.138 21.3027C137.094 21.4751 137.135 21.5316 137.212 21.6207C137.33 21.7545 137.492 21.9091 137.657 21.7813C137.838 21.6445 138.044 21.5435 138.207 21.3889C138.694 20.9222 139.207 20.4734 139.553 19.876C139.845 19.3736 140.111 18.8594 140.081 18.2471C140.075 18.1133 140.037 17.9528 140.096 17.8518C140.223 17.6378 140.12 17.4832 140.01 17.2573V17.2632Z" fill="#00AD4B"/>
<path d="M115.453 26.5459C115.045 26.5459 114.638 26.5519 114.231 26.5459C114.006 26.543 113.764 26.6083 113.569 26.4181C113.543 26.3914 113.475 26.4003 113.425 26.4003C112.864 26.4092 112.391 26.1447 111.922 25.889C111.618 25.7255 111.308 25.574 111.015 25.3778C110.844 25.2648 110.72 25.1162 110.573 24.9884C110.201 24.6704 109.761 24.4237 109.474 24.0194C109.215 23.6538 108.925 23.3209 108.789 22.8572C108.544 22.0309 108.739 21.2046 108.668 20.3812C108.878 20.0483 108.801 19.6738 108.819 19.3171C108.825 19.1893 108.934 19.1239 108.964 19.005C109.144 18.3125 109.48 17.6912 109.802 17.0581C109.932 16.8025 110.15 16.639 110.271 16.4072C110.431 16.107 110.732 15.9583 110.912 15.6849C110.974 15.5898 111.163 15.5749 111.213 15.4798C111.432 15.0607 111.945 15.025 112.205 14.6713C112.229 14.6416 112.273 14.6059 112.306 14.6059C112.66 14.6059 112.967 14.3651 113.339 14.4276C113.54 14.4632 113.752 14.4365 113.962 14.4335C114.296 14.4305 114.588 14.5613 114.886 14.6862C115.054 14.7575 115.237 14.7902 115.412 14.8586C115.789 15.0072 116.153 15.1558 116.477 15.4144C116.625 15.5303 116.832 15.5808 116.953 15.7443C117.171 16.0356 117.378 16.321 117.519 16.6747C117.661 17.0254 117.664 17.3791 117.611 17.6942C117.54 18.1282 117.481 18.58 117.263 18.9931C116.95 19.5935 116.445 20.0156 115.958 20.4347C115.645 20.7052 115.308 20.9876 114.892 21.157C114.614 21.27 114.334 21.4453 114.068 21.6148C114.027 21.6415 113.977 21.6653 113.932 21.6653C113.244 21.6802 112.574 21.9209 111.878 21.8258C111.78 21.8109 111.68 21.8258 111.579 21.8228C111.39 21.8199 111.352 21.8882 111.376 22.0874C111.399 22.2895 111.423 22.4976 111.438 22.7026C111.473 23.2466 111.314 23.8619 111.836 24.2899C111.948 24.382 111.934 24.5604 112.061 24.6614C112.412 24.9408 112.775 25.1727 113.244 25.1697C113.844 25.1667 114.443 25.1459 115.04 25.1786C115.379 25.1965 115.707 25.3362 116.04 25.4224C116.344 25.5026 116.61 25.6483 116.888 25.7731C117.118 25.8771 117.239 26.0912 117.404 26.2606C117.472 26.3319 117.269 26.5251 117.094 26.5311C116.796 26.54 116.495 26.537 116.197 26.537C115.949 26.537 115.698 26.537 115.45 26.537L115.453 26.5459ZM114.8 16.752C114.8 16.5082 114.8 16.3239 114.8 16.1397C114.8 16.0743 114.797 16 114.721 15.9702C114.65 15.9435 114.603 15.9821 114.549 16.0326C114.452 16.1278 114.34 16.205 114.21 16.2675C114.012 16.3626 113.808 16.4993 113.681 16.6717C113.569 16.8233 113.484 17.0016 113.336 17.1176C113.02 17.3732 112.757 17.6645 112.56 18.0212C112.323 18.4462 112.078 18.8653 111.904 19.3231C111.83 19.5192 111.762 19.7006 111.759 19.9116C111.759 19.9829 111.706 20.0305 111.668 20.084C111.6 20.1791 111.582 20.3129 111.65 20.3901C111.745 20.4971 111.789 20.3307 111.857 20.295C112.415 20.0127 112.961 19.7095 113.383 19.2279C113.398 19.2101 113.422 19.1953 113.445 19.1863C113.956 18.9426 114.234 18.4611 114.502 18.0152C114.732 17.6318 114.877 17.1711 114.803 16.752H114.8Z" fill="#00AD4B"/>
<path d="M97.9926 21.3295C97.9926 21.1125 98.0192 20.8896 97.9867 20.6786C97.9159 20.1941 98.155 19.7542 98.1786 19.2786C98.1875 19.1002 98.2524 18.8387 98.4059 18.6484C98.5181 18.5117 98.4502 18.3066 98.5211 18.1253C98.6185 17.8816 98.8399 17.733 98.9137 17.4773C99.02 17.0998 99.2267 16.7669 99.4747 16.4638C99.8024 16.0655 100.042 15.5869 100.478 15.2867C100.845 15.034 101.22 14.7963 101.621 14.606C101.677 14.5793 101.751 14.5882 101.819 14.5852C102.144 14.5852 102.471 14.6179 102.79 14.5733C103.239 14.5109 103.658 14.6536 104.063 14.7636C104.514 14.8854 104.978 15.0222 105.397 15.2926C105.695 15.4829 106.058 15.6166 106.339 15.8396C106.794 16.1992 106.994 16.6956 106.971 17.299C106.956 17.733 106.832 18.1431 106.797 18.5712C106.776 18.8149 106.605 19.0557 106.472 19.2816C106.295 19.5877 106.079 19.8701 105.807 20.1079C105.713 20.1911 105.619 20.2654 105.509 20.3278C105.465 20.3516 105.4 20.3635 105.379 20.3992C105.102 20.9193 104.535 21.1036 104.128 21.4722C103.859 21.7189 103.443 21.7902 103.118 21.9864C102.837 22.1588 102.551 22.1202 102.259 22.1291C102.088 22.135 101.931 22.138 101.763 22.2331C101.612 22.3193 101.394 22.3282 101.222 22.1915C101.187 22.1618 101.137 22.141 101.09 22.1321C100.741 22.0667 100.656 22.2004 100.679 22.5898C100.7 22.9168 100.797 23.2259 100.836 23.5469C100.853 23.7134 100.96 23.8293 101.116 23.8531C101.296 23.8798 101.503 23.9125 101.659 23.8471C101.946 23.7223 102.268 23.6777 102.527 23.4994C102.601 23.4488 102.672 23.425 102.758 23.4221C102.967 23.4102 103.192 23.4607 103.369 23.2883C103.387 23.2705 103.434 23.2675 103.466 23.2764C103.747 23.3448 104.027 23.4191 104.311 23.4845C104.745 23.5856 105.081 23.9006 105.5 24.0344C105.642 24.0819 105.79 24.183 105.763 24.3524C105.737 24.5129 105.607 24.5902 105.435 24.6407C105.152 24.7269 104.863 24.7953 104.579 24.8815C104.314 24.9647 104.027 25.0272 103.762 25.1015C103.053 25.3066 102.341 25.2263 101.636 25.2144C101.137 25.2055 100.623 25.1163 100.157 24.9053C99.9707 24.8221 99.829 24.6348 99.6755 24.4832C99.3418 24.1533 98.9374 23.9066 98.6156 23.5588C98.2554 23.1665 97.9867 22.7414 97.9956 22.1826C98.0015 21.8972 97.9956 21.6149 97.9956 21.3295H97.9926ZM104.266 16.3954C104.252 15.9674 104.054 15.8871 103.694 16.0447C103.475 16.1398 103.319 16.3032 103.127 16.4221C102.929 16.544 102.734 16.7134 102.616 16.9096C102.395 17.2693 102.158 17.6289 101.919 17.9707C101.556 18.485 101.376 19.0705 101.09 19.6085C100.954 19.8612 101.051 20.1554 100.895 20.3962C100.853 20.4586 100.927 20.521 100.972 20.5656C101.022 20.6162 101.054 20.5418 101.093 20.5329C101.323 20.4705 101.503 20.3159 101.671 20.1762C101.896 19.992 102.191 19.8998 102.368 19.6828C102.607 19.3886 102.991 19.2489 103.174 18.8981C103.186 18.8773 103.23 18.8654 103.263 18.8625C103.36 18.8535 103.392 18.7911 103.437 18.7109C103.658 18.3126 103.918 17.944 104.054 17.4863C104.163 17.1147 104.063 16.7164 104.26 16.4013L104.266 16.3954Z" fill="#00AD4B"/>
<path d="M123.43 47.62C123.43 47.0107 123.436 46.3984 123.43 45.789C123.424 45.2837 123.633 44.8111 123.613 44.2969C123.607 44.1334 123.799 43.8867 123.799 43.7084C123.805 43.2447 124.15 42.9058 124.174 42.4659C124.18 42.3797 124.194 42.3054 124.259 42.24C124.333 42.1657 124.351 42.026 124.259 42.0052C124.059 41.9576 124.029 41.7882 123.943 41.6574C123.816 41.4702 123.867 41.3721 124.1 41.3572C124.174 41.3513 124.25 41.3483 124.324 41.3572C124.513 41.3721 124.566 41.2918 124.634 41.1046C124.803 40.6498 124.862 40.1564 125.124 39.7343C125.225 39.5708 125.272 39.3657 125.316 39.1725C125.399 38.8218 125.508 38.48 125.679 38.1679C125.789 37.9687 125.806 37.7488 125.901 37.5466C125.954 37.4337 125.966 37.291 126.063 37.1989C126.249 37.0235 126.264 36.7679 126.341 36.5509C126.441 36.2685 126.539 36.004 126.733 35.7692C126.854 35.6235 126.896 35.4065 126.94 35.2222C127.049 34.7586 127.259 34.3394 127.442 33.9085C127.528 33.7034 127.607 33.4923 127.728 33.3051C127.947 32.9632 128.54 32.8652 128.959 33.0316C129.379 33.1951 129.798 33.3645 130.185 33.5874C130.439 33.7361 130.731 33.8728 130.846 34.1879C130.876 34.2651 130.852 34.3186 130.787 34.3097C130.38 34.2651 130.318 34.6129 130.179 34.8537C129.943 35.2639 129.789 35.7186 129.609 36.1526C129.491 36.4379 129.399 36.753 129.296 37.0532C129.21 37.2999 129.122 37.5585 128.977 37.7696C128.768 38.0727 128.738 38.4473 128.555 38.7534C128.387 39.0358 128.254 39.339 128.162 39.6422C128.021 40.1177 127.672 40.516 127.672 41.0362C127.672 41.06 127.672 41.0867 127.66 41.1105C127.598 41.277 127.377 41.4672 127.601 41.6069C127.737 41.6901 127.917 41.7644 128.091 41.812C128.351 41.8863 128.587 42.0438 128.841 42.1538C129.193 42.3054 129.494 42.5491 129.804 42.7572C130.176 43.0069 130.539 43.3279 130.778 43.7589C130.923 44.0205 131.103 44.2612 131.236 44.5347C131.431 44.93 131.534 45.3372 131.646 45.7593C131.785 46.2795 131.708 46.7788 131.752 47.2871C131.767 47.4446 131.767 47.6051 131.649 47.7389C131.599 47.7983 131.605 47.8816 131.608 47.9559C131.625 48.3601 131.51 48.7287 131.383 49.1121C131.245 49.5253 131.008 49.8701 130.817 50.2446C130.619 50.637 130.309 50.9431 130.117 51.3325C130.022 51.5227 129.827 51.6832 129.647 51.8051C129.47 51.924 129.296 52.0667 129.154 52.2064C128.847 52.5066 128.469 52.572 128.103 52.7206C127.519 52.9643 126.922 52.8514 126.341 52.8306C125.989 52.8187 125.597 52.7444 125.284 52.5214C125.139 52.4204 125.074 52.2331 124.95 52.0994C124.744 51.8794 124.46 51.7783 124.253 51.5614C123.961 51.2552 123.701 50.958 123.713 50.5002C123.716 50.3516 123.598 50.2238 123.53 50.1049C123.439 49.9444 123.424 49.7958 123.424 49.6323C123.424 48.9635 123.424 48.2947 123.424 47.6259L123.43 47.62ZM126.075 48.6425C126.075 49.3529 126.075 50.0633 126.075 50.7767C126.075 50.851 126.057 50.9431 126.093 50.9966C126.152 51.0858 126.214 51.3057 126.361 51.1423C126.63 50.851 126.978 50.6667 127.265 50.3932C127.578 50.093 127.711 49.6531 128.086 49.4183C128.097 49.4123 128.097 49.3886 128.1 49.3707C128.159 49.1805 128.292 49.0259 128.357 48.8476C128.472 48.5266 128.744 48.265 128.714 47.8875C128.711 47.8429 128.729 47.7746 128.762 47.7508C128.98 47.5784 128.951 47.3049 128.98 47.0909C129.039 46.6718 129.078 46.2468 129.104 45.8247C129.14 45.2718 129.039 44.7398 128.886 44.1958C128.771 43.7916 128.493 43.5241 128.331 43.1704C128.221 42.9326 127.938 42.8969 127.702 42.7988C127.259 42.6116 127.04 42.6769 126.958 43.1287C126.949 43.1704 126.946 43.2179 126.919 43.2447C126.763 43.4379 126.784 43.6935 126.689 43.9135C126.627 44.0621 126.491 44.2047 126.512 44.392C126.544 44.6892 126.394 44.9538 126.323 45.2243C126.199 45.6909 126.134 46.1665 126.084 46.6361C126.016 47.299 126.066 47.9737 126.066 48.6425H126.075Z" fill="#F8C543"/>
<path d="M106.495 51.395C105.911 51.5377 105.489 51.291 105.143 50.8362C105.066 50.7351 104.951 50.6668 104.827 50.6043C104.44 50.4111 104.302 50.0396 104.181 49.6472C104.077 49.3054 103.968 48.9517 103.915 48.6099C103.859 48.2473 103.717 47.8995 103.714 47.522C103.714 47.1564 103.596 46.8027 103.46 46.4609C103.454 46.446 103.44 46.4282 103.443 46.4133C103.502 46.0328 103.327 45.6791 103.248 45.3314C103.141 44.8766 103.233 44.407 103.094 43.9908C102.979 43.6401 103.009 43.3072 102.976 42.9653C102.967 42.8821 102.985 42.793 102.92 42.7276C102.858 42.6622 102.834 42.6057 102.914 42.5373C102.932 42.5225 102.949 42.4898 102.944 42.4719C102.678 41.607 102.899 40.7182 102.825 39.8444C102.825 39.8117 102.825 39.776 102.82 39.7433C102.811 39.7017 102.808 39.6512 102.781 39.6274C102.663 39.5115 102.666 39.3985 102.769 39.2766C102.834 39.1994 102.831 39.1072 102.787 39.018C102.566 38.5722 102.696 38.0996 102.696 37.6389C102.696 37.4962 102.849 37.3951 103.02 37.3832C103.643 37.3387 104.222 37.4635 104.765 37.7905C105.022 37.945 105.323 38.0164 105.524 38.269C105.648 38.4206 105.68 38.5335 105.453 38.593C105.35 38.6197 105.32 38.6881 105.326 38.7803C105.338 38.9735 105.27 39.1815 105.432 39.3509C105.497 39.4193 105.468 39.5263 105.468 39.6185C105.468 40.6647 105.403 41.717 105.5 42.7543C105.553 43.328 105.53 43.9165 105.657 44.4694C105.737 44.8261 105.683 45.1887 105.787 45.5127C105.902 45.8634 105.84 46.2498 106.032 46.5768C106.097 46.6897 106.061 46.8235 106.07 46.9483C106.079 47.0761 106.126 47.2069 106.247 47.2188C106.345 47.2277 106.416 47.1059 106.466 47.0078C106.593 46.7492 106.72 46.4936 106.923 46.2795C107.124 46.0715 107.224 45.7921 107.346 45.5365C107.399 45.4205 107.434 45.3076 107.543 45.2392C107.697 45.1411 107.709 44.9598 107.785 44.8201C107.921 44.5764 108.116 44.3743 108.231 44.1186C108.441 43.6609 108.766 43.2685 108.981 42.8108C109.07 42.6206 109.173 42.4363 109.3 42.2609C109.516 41.9666 109.684 41.6397 109.858 41.3157C109.905 41.2295 109.958 41.1373 110.012 41.066C110.384 40.5577 110.531 39.9246 110.939 39.4342C111.166 39.1607 111.299 38.807 111.556 38.5484C111.582 38.5217 111.588 38.4741 111.597 38.4325C111.656 38.1531 111.889 38.0401 112.152 38.1739C112.196 38.1947 112.252 38.2601 112.273 38.2482C112.601 38.0639 112.84 38.3136 113.111 38.4117C113.398 38.5127 113.672 38.6376 113.873 38.8843C113.915 38.9348 113.965 38.9853 114.024 39.0121C114.375 39.1904 114.39 39.1934 114.227 39.5233C114.154 39.6749 114.092 39.8473 113.953 39.9633C113.838 40.0584 113.814 40.201 113.743 40.3199C113.41 40.8817 113.106 41.4673 112.754 42.0112C112.48 42.4363 112.335 42.9327 111.975 43.3072C111.812 43.4796 111.709 43.7233 111.626 43.9492C111.573 44.0919 111.491 44.1929 111.393 44.294C111.272 44.4159 111.195 44.5496 111.154 44.722C111.101 44.9568 110.903 45.1203 110.818 45.3492C110.685 45.694 110.372 45.9258 110.218 46.2498C110.032 46.6422 109.772 46.987 109.566 47.3615C109.394 47.6706 109.2 47.9649 109.037 48.277C108.866 48.6069 108.686 48.922 108.453 49.2162C108.358 49.3351 108.332 49.5194 108.278 49.677C108.14 50.0723 107.901 50.4171 107.723 50.7916C107.679 50.8867 107.673 50.9967 107.594 51.0829C107.413 51.282 107.233 51.4426 106.935 51.395C106.79 51.3712 106.637 51.392 106.486 51.392L106.495 51.395Z" fill="#F8C543"/>
<path d="M138.389 51.841C138.088 51.8112 137.713 51.9212 137.377 51.7042C137.329 51.6715 137.247 51.6953 137.179 51.6894C136.792 51.6656 136.453 51.5526 136.122 51.3267C135.921 51.19 135.741 51.0057 135.493 50.9195C135.275 50.8423 135.171 50.5926 134.997 50.441C134.776 50.2508 134.637 49.9505 134.306 49.903C134.286 49.903 134.262 49.8762 134.253 49.8554C134.111 49.5166 133.813 49.2936 133.627 48.9815C133.456 48.6962 133.291 48.4049 133.122 48.1196C132.948 47.8223 132.83 47.5132 132.804 47.1773C132.792 47.0376 132.644 46.9484 132.671 46.8385C132.771 46.4461 132.529 46.0359 132.756 45.6495C132.83 45.5247 132.836 45.3582 132.733 45.2215C132.7 45.1799 132.662 45.1353 132.7 45.0907C132.848 44.9243 132.815 44.7192 132.789 44.5379C132.715 44.0444 132.907 43.5867 132.987 43.123C133.04 42.8169 133.178 42.4869 133.305 42.1748C133.424 41.8835 133.512 41.5685 133.651 41.2801C133.822 40.9205 134.002 40.5608 134.173 40.2012C134.424 39.6751 134.77 39.2114 135.23 38.8666C135.502 38.6645 135.75 38.3672 136.175 38.4267C136.485 38.4712 136.807 38.4445 137.12 38.4326C137.577 38.4148 137.988 38.5842 138.416 38.6942C138.75 38.7804 139.048 38.929 139.334 39.0806C139.83 39.3422 140.302 39.6602 140.677 40.1031C140.849 40.3022 140.943 40.4925 141.002 40.7629C141.103 41.2207 140.937 41.6428 140.952 42.0856C140.961 42.3621 140.79 42.6593 140.66 42.9268C140.435 43.3816 140.187 43.8275 139.848 44.2079C139.499 44.5973 139.071 44.8678 138.596 45.0907C138.31 45.2274 138.011 45.3255 137.731 45.4712C137.701 45.486 137.672 45.5009 137.639 45.5068C137.12 45.5752 136.609 45.7357 136.072 45.6703C135.951 45.6555 135.827 45.6703 135.703 45.706C135.416 45.7863 135.428 46.024 135.343 46.244C135.248 46.4907 135.381 46.7077 135.331 46.9514C135.286 47.1833 135.245 47.5013 135.405 47.7599C135.443 47.8223 135.434 47.9234 135.434 48.0036C135.434 48.4941 135.647 48.9102 135.906 49.3055C135.986 49.4274 136.075 49.5522 136.131 49.686C136.323 50.1289 136.627 50.3399 137.087 50.337C137.244 50.337 137.403 50.328 137.56 50.337C138.068 50.3637 138.525 50.5183 138.921 50.8482C139.092 50.9909 139.334 50.9611 139.529 51.0771C139.7 51.1781 139.786 51.3 139.812 51.4843C139.827 51.5913 139.78 51.6864 139.671 51.6775C139.44 51.6537 139.29 51.8707 139.057 51.8469C138.85 51.8261 138.64 51.841 138.378 51.841H138.389ZM138.336 40.4925C138.336 40.2725 138.339 40.0971 138.336 39.9218C138.336 39.8623 138.324 39.7464 138.233 39.8148C138.118 39.898 137.979 39.9099 137.867 40.0139C137.678 40.1952 137.51 40.3973 137.324 40.5697C136.893 40.971 136.727 41.5179 136.432 41.9935C136.326 42.1659 136.346 42.3651 136.249 42.5196C136.016 42.8912 135.942 43.3251 135.759 43.7175C135.723 43.7948 135.72 43.9107 135.806 43.9701C135.892 44.0296 136.007 44.0296 136.089 43.9731C136.55 43.661 137.028 43.3727 137.347 42.8822C137.61 42.475 137.932 42.1154 138.076 41.6279C138.195 41.2385 138.383 40.87 138.336 40.4895V40.4925Z" fill="#F8C543"/>
<path d="M147.309 46.3748C147.102 46.3748 146.883 46.4164 146.689 46.3659C146.272 46.2589 145.841 46.2767 145.434 46.1905C144.793 46.0567 144.303 45.6406 143.875 45.1472C143.639 44.8737 143.329 44.6419 143.237 44.2882C143.172 44.0474 142.921 43.8126 143.143 43.5124C143.243 43.3757 143.063 43.2122 143.113 43.0279C143.187 42.7425 143.131 42.4126 143.24 42.1451C143.308 41.9757 143.326 41.7973 143.382 41.6279C143.506 41.2564 143.775 40.9651 143.899 40.5965C143.931 40.5014 144.037 40.436 144.096 40.3468C144.336 39.9901 144.728 39.7702 144.935 39.3808C145 39.2589 145.1 39.1489 145.26 39.1341C145.295 39.1311 145.336 39.0984 145.36 39.0687C145.708 38.6258 146.184 38.3107 146.547 37.8827C146.674 37.7341 146.83 37.6925 147.025 37.6747C147.559 37.633 148.002 37.8144 148.463 38.0729C148.77 38.2453 149.083 38.4207 149.375 38.6139C149.65 38.7982 149.889 39.0449 150.178 39.2203C150.223 39.247 150.249 39.3124 150.276 39.363C150.414 39.6364 150.349 39.7523 150.048 39.7434C149.765 39.7375 149.49 39.7672 149.201 39.6334C148.971 39.5264 148.678 39.5472 148.451 39.791C147.926 40.3528 147.356 40.8759 146.848 41.4525C146.55 41.7914 146.29 42.1718 146.101 42.5999C145.968 42.8941 145.838 43.1884 145.776 43.5035C145.697 43.9047 145.638 44.312 145.673 44.7251C145.685 44.8529 145.75 44.9005 145.868 44.9005C146.018 44.9005 146.166 44.9005 146.317 44.9005C146.588 44.9064 146.866 44.8589 147.114 45.0224C147.158 45.0521 147.229 45.055 147.285 45.0491C147.813 44.9926 148.303 45.1531 148.797 45.2988C149.738 45.5752 150.568 46.0508 151.238 46.782C151.406 46.9663 151.527 47.1922 151.513 47.4686C151.501 47.6856 151.498 47.9026 151.513 48.1196C151.536 48.5535 151.291 48.8805 151.082 49.2164C151.005 49.3442 150.887 49.4423 150.907 49.6117C150.916 49.6711 150.893 49.7276 150.842 49.7663C150.63 49.9238 150.589 50.2151 150.376 50.3696C150.37 50.3756 150.361 50.3815 150.361 50.3905C150.358 50.7679 150.042 50.9968 149.921 51.3178C149.812 51.6091 149.656 51.8707 149.419 52.0758C149.287 52.1887 149.254 52.3611 149.186 52.5008C149.015 52.8456 148.829 52.9942 148.454 52.9942C148.188 52.9942 147.923 52.9883 147.657 52.9942C147.462 53.0002 147.353 52.8902 147.276 52.7297C147.131 52.4325 146.934 52.1947 146.612 52.0758C146.381 51.9896 146.305 51.7518 146.435 51.5467C146.694 51.1365 146.966 50.7323 147.211 50.3102C147.489 49.8346 147.725 49.3353 148.005 48.8627C148.221 48.4941 148.413 48.1136 148.622 47.7421C148.74 47.534 148.735 47.2843 148.867 47.0822C148.941 46.9693 149.047 46.8622 149.012 46.6988C148.994 46.6096 148.977 46.5234 148.873 46.5264C148.345 46.5501 147.855 46.2172 147.317 46.3688L147.309 46.3748Z" fill="#F8C543"/>
<path d="M117.51 48.1344C117.445 48.1344 117.375 48.1225 117.313 48.1344C116.805 48.2324 116.521 47.9293 116.276 47.5547C116.253 47.5191 116.238 47.4745 116.188 47.4775C115.872 47.4834 115.757 47.2337 115.609 47.0227C115.594 47.0019 115.574 46.9722 115.582 46.9543C115.698 46.6749 115.429 46.3836 115.562 46.1429C115.768 45.7713 115.568 45.3284 115.825 44.9807C115.842 44.9569 115.842 44.9153 115.842 44.8826C115.836 44.4486 116.034 44.0592 116.105 43.649C116.161 43.3251 116.329 43.0308 116.303 42.686C116.285 42.4393 116.445 42.2223 116.507 41.9845C116.533 41.8864 116.592 41.7943 116.592 41.6843C116.583 41.1939 116.752 40.7361 116.911 40.2903C116.988 40.0733 117.003 39.8682 116.997 39.6572C116.991 39.455 117.032 39.2737 117.215 39.1905C117.389 39.1132 117.584 39.0983 117.758 39.2321C117.797 39.2618 117.847 39.2916 117.891 39.2886C118.107 39.2707 118.31 39.3213 118.473 39.4521C118.803 39.7255 119.246 39.779 119.58 40.0495C119.76 40.1981 119.855 40.3824 119.787 40.5934C119.68 40.9174 119.725 41.2741 119.533 41.5773C119.45 41.7051 119.447 41.8745 119.403 42.0202C119.323 42.2818 119.17 42.5255 119.19 42.8227C119.211 43.1051 119.108 43.3726 118.989 43.6282C118.975 43.658 118.951 43.6936 118.954 43.7204C119.022 44.0711 118.848 44.3862 118.765 44.7042C118.697 44.9718 118.712 45.2809 118.532 45.5216C118.508 45.5514 118.502 45.5989 118.502 45.6405C118.485 46.3331 118.269 47.0048 118.34 47.7093C118.381 48.1225 118.346 48.1284 117.938 48.1314C117.797 48.1314 117.655 48.1314 117.516 48.1314L117.51 48.1344Z" fill="#F8C543"/>
<path d="M120.454 36.9761C120.298 36.9761 120.138 36.9761 119.982 36.9761C119.905 36.9761 119.825 36.9642 119.805 36.872C119.775 36.7472 119.748 36.6521 119.601 36.7769C119.565 36.8066 119.527 36.765 119.509 36.7234C119.409 36.4618 119.22 36.3073 118.96 36.1973C118.771 36.117 118.68 35.8971 118.541 35.7455C118.508 35.7098 118.532 35.6682 118.565 35.6355C118.827 35.3888 118.804 35.0232 118.91 34.717C119.052 34.3188 119.164 33.9026 119.22 33.4657C119.267 33.0733 119.433 32.6721 119.675 32.3421C119.796 32.1757 120.023 32.247 120.206 32.3035C120.244 32.3154 120.286 32.3718 120.306 32.3629C120.667 32.2054 120.903 32.4224 121.136 32.6394C121.183 32.681 121.233 32.6929 121.293 32.7077C121.747 32.8237 122.09 33.1149 122.388 33.4597C122.465 33.5519 122.453 33.6737 122.308 33.7154C122.072 33.7808 121.989 33.9323 121.983 34.1761C121.975 34.4466 121.83 34.6873 121.762 34.9459C121.738 35.0321 121.691 35.1153 121.697 35.2075C121.724 35.5998 121.585 35.9476 121.422 36.2894C121.36 36.4232 121.405 36.5748 121.31 36.7175C121.089 37.0533 120.764 36.9731 120.457 36.9761H120.454Z" fill="#F8C543"/>
</g>
<g clip-path="url(#clip1_1025_1508)">
<path d="M41.0002 114.523C41.0002 114.252 41.0002 113.981 41.0002 113.709C41.0002 113.509 41.0161 113.314 41.1535 113.151C41.3754 112.891 41.2697 112.522 41.4494 112.234C41.5604 112.055 41.5974 111.839 41.7665 111.687C41.8669 111.594 41.9727 111.47 41.9515 111.312C41.8881 110.922 42.1999 110.781 42.4113 110.591C42.5329 110.477 42.7443 110.477 42.7971 110.266C42.8077 110.233 42.887 110.195 42.924 110.201C43.5635 110.347 44.1977 110.038 44.8372 110.157C44.8689 110.163 44.9059 110.157 44.9429 110.157C45.3604 110.19 45.7515 109.995 46.132 110C46.5125 110.006 46.9089 110.157 47.3159 110.157C50.2227 110.152 53.1295 110.13 56.0363 110.174C56.8766 110.184 57.7116 110.141 58.552 110.157C59.3976 110.168 60.2432 110.179 61.0888 110.157C61.8393 110.136 62.5845 110.201 63.3244 110.293C63.4724 110.315 63.5939 110.293 63.7313 110.244C63.8476 110.206 63.9797 110.152 64.0907 110.174C64.5717 110.288 65.079 110.168 65.5441 110.407C65.8401 110.559 66.173 110.499 66.4584 110.331C66.7174 110.179 66.9341 110.13 67.1719 110.369C67.3199 110.521 67.5366 110.499 67.7269 110.477C68.2871 110.418 68.8473 110.477 69.4128 110.477C70.0999 110.488 70.7816 110.445 71.4687 110.477C71.8915 110.499 72.3143 110.466 72.7107 110.288C72.8745 110.212 73.0119 110.222 73.1599 110.32C73.3132 110.418 73.477 110.466 73.662 110.423C73.9368 110.358 74.2064 110.157 74.5076 110.401C74.5816 110.461 74.7032 110.363 74.793 110.298C74.9093 110.212 75.0467 110.141 75.1894 110.174C76.0403 110.374 76.8859 110.049 77.7368 110.157C78.0328 110.195 78.334 110.136 78.6194 110.277C78.6776 110.304 78.7674 110.325 78.8255 110.304C79.5443 110.033 80.2948 110.206 81.0241 110.168C81.4628 110.147 81.9067 110.168 82.3454 110.168C82.541 110.168 82.7312 110.217 82.9162 110.233C83.4024 110.282 83.9045 110.13 84.3854 110.342C84.692 110.13 84.9457 110.25 85.2522 110.396C85.4795 110.504 85.8071 110.401 86.0714 110.304C86.1877 110.26 86.2934 110.206 86.4255 110.26C86.9963 110.488 87.5988 110.472 88.196 110.483C89.1473 110.504 90.0986 110.488 91.0499 110.494C91.3459 110.494 91.6524 110.466 91.9273 110.635C92.0224 110.689 92.144 110.711 92.2338 110.656C92.5245 110.483 92.7887 110.526 93.0847 110.656C93.238 110.721 93.4335 110.7 93.6079 110.705C95.315 110.705 97.0274 110.705 98.7344 110.705C99.7228 110.705 100.706 110.678 101.689 110.721C102.26 110.748 102.825 110.748 103.401 110.721C104.347 110.678 105.304 110.705 106.25 110.705C106.599 110.705 106.969 110.597 107.291 110.629C107.746 110.673 108.2 110.662 108.655 110.721C108.998 110.765 109.32 110.748 109.632 110.591C109.696 110.559 109.775 110.51 109.828 110.526C110.198 110.656 110.573 110.57 110.938 110.613C111.281 110.651 111.63 110.694 111.979 110.705C112.381 110.721 112.787 110.662 113.184 110.803C113.342 110.857 113.49 110.727 113.649 110.727C114.246 110.727 114.849 110.721 115.446 110.727C115.546 110.727 115.647 110.776 115.747 110.814C115.811 110.841 115.9 110.927 115.927 110.911C116.397 110.591 116.836 110.993 117.296 110.993C117.856 110.993 118.421 111.03 118.982 111.036C119.156 111.036 119.336 111.036 119.5 111.106C119.6 111.15 119.695 111.166 119.806 111.134C120.398 110.976 120.985 110.976 121.577 111.134C121.64 111.15 121.719 111.161 121.783 111.144C122.581 110.906 123.395 111.112 124.198 111.047C124.441 111.025 124.637 111.177 124.832 111.285C124.985 111.367 125.123 111.426 125.244 111.242C125.371 111.047 125.562 111.025 125.757 111.036C126.317 111.068 126.883 110.938 127.432 111.144C127.506 111.171 127.602 111.128 127.686 111.112C127.792 111.09 127.903 111.025 127.993 111.052C128.812 111.247 129.62 110.927 130.434 111.036C130.693 111.068 130.963 111.02 131.211 111.161C131.328 111.226 131.444 111.209 131.565 111.161C132.268 110.922 132.998 111.079 133.711 111.052C133.817 111.052 133.928 111.096 133.981 111.193C134.113 111.426 134.229 111.426 134.43 111.247C134.858 110.879 135.365 111.052 135.846 111.09C135.878 111.09 135.91 111.123 135.947 111.128C136.956 111.199 137.934 111.508 138.949 111.529C139.382 111.535 139.826 111.546 140.254 111.676C140.64 111.795 141.052 111.806 141.454 111.795C142.669 111.763 143.88 111.974 145.09 111.931C146.179 111.893 147.278 112.028 148.346 111.719C148.562 111.66 148.742 111.849 148.906 111.763C149.26 111.567 149.593 111.735 149.92 111.79C150.317 111.86 150.687 111.822 151.057 111.681C151.136 111.649 151.231 111.584 151.305 111.605C151.691 111.708 152.082 111.708 152.473 111.681C153.018 111.643 153.562 111.952 154.101 111.649C154.212 111.584 154.339 111.605 154.46 111.649C155.031 111.866 155.613 111.882 156.22 111.855C157.235 111.817 158.281 111.763 159.27 111.947C160.131 112.11 160.982 112.072 161.833 112.126C161.902 112.126 161.981 112.115 162.044 112.137C162.927 112.43 163.847 112.386 164.756 112.451C164.793 112.451 164.835 112.446 164.861 112.462C165.221 112.733 165.57 112.831 165.94 112.478C165.971 112.446 166.077 112.478 166.14 112.495C166.209 112.511 166.288 112.592 166.331 112.571C166.843 112.337 167.382 112.82 167.895 112.5C168.075 112.386 168.328 112.397 168.519 112.457C169.037 112.63 169.576 112.533 170.099 112.641C170.305 112.684 170.522 112.663 170.733 112.668C170.976 112.674 171.225 112.647 171.457 112.771C171.515 112.804 171.61 112.831 171.658 112.804C172.044 112.581 172.403 112.82 172.773 112.842C173.629 112.885 174.48 113.107 175.352 112.929C175.817 112.831 176.298 112.956 176.769 112.966C178.83 113.021 180.891 112.966 182.952 112.994C183.354 112.999 183.75 113.037 184.152 113.086C184.591 113.14 185.04 113.259 185.494 113.216C185.806 113.189 186.129 113.183 186.393 113.438C186.472 113.514 186.588 113.52 186.694 113.509C187.291 113.444 187.883 113.487 188.459 113.671C188.57 113.709 188.66 113.639 188.761 113.612C189.178 113.493 189.59 113.493 190.008 113.639C190.124 113.677 190.256 113.753 190.362 113.726C191.197 113.514 192.016 113.878 192.851 113.764C193.004 113.742 193.168 113.775 193.322 113.818C193.639 113.91 193.755 114.057 193.766 114.404C193.781 114.837 193.766 115.271 193.766 115.705C193.766 115.955 193.665 116.166 193.528 116.356C193.195 116.822 192.841 117.272 192.254 117.408C192.101 117.44 192.053 117.511 192.048 117.657C192.048 117.766 192.016 117.869 191.99 117.977C191.921 118.254 191.757 118.427 191.467 118.411C190.875 118.379 190.288 118.449 189.691 118.265C189.141 118.097 188.539 118.162 187.963 118.254C187.862 118.27 187.735 118.362 187.661 118.276C187.402 117.972 187.101 118.129 186.795 118.129C186.155 118.129 185.494 118.189 184.871 117.929C184.67 117.842 184.453 117.88 184.242 117.874C184.015 117.869 183.777 117.901 183.565 117.804C183.338 117.695 183.132 117.701 182.905 117.793C182.688 117.88 182.477 117.885 182.255 117.728C181.985 117.538 181.647 117.56 181.34 117.56C180.125 117.56 178.909 117.457 177.699 117.636C177.308 117.69 176.933 117.533 176.541 117.538C175.379 117.554 174.216 117.543 173.053 117.543C172.192 117.543 171.325 117.543 170.464 117.543C170.025 117.543 169.592 117.571 169.163 117.381C168.968 117.294 168.709 117.316 168.487 117.337C168.212 117.365 168.032 117.11 167.805 117.121C167.578 117.131 167.372 117.354 167.108 117.316C167.092 117.316 167.071 117.316 167.055 117.316C166.257 117.066 165.464 117.381 164.666 117.316C164.402 117.294 164.137 117.332 163.889 117.213C163.773 117.153 163.651 117.175 163.53 117.213C163.445 117.234 163.339 117.272 163.276 117.24C162.562 116.866 161.791 117.088 161.051 116.996C160.892 116.974 160.723 116.996 160.586 116.931C160.263 116.779 159.952 116.741 159.613 116.866C159.402 116.942 159.212 116.763 158.995 116.773C158.609 116.79 158.218 116.768 157.832 116.773C157.51 116.773 157.198 116.763 156.918 116.567C156.812 116.497 156.691 116.459 156.564 116.475C155.808 116.578 155.058 116.405 154.302 116.453C154.022 116.47 153.736 116.432 153.461 116.535C153.398 116.557 153.324 116.562 153.255 116.551C151.976 116.356 150.692 116.47 149.408 116.486C149.112 116.486 148.811 116.459 148.515 116.453C147.775 116.437 147.04 116.513 146.3 116.453C145.962 116.426 145.629 116.497 145.307 116.584C145.1 116.638 144.884 116.594 144.699 116.622C144.165 116.698 143.642 116.681 143.108 116.692C142.696 116.698 142.284 116.822 141.871 116.665C141.808 116.643 141.723 116.627 141.665 116.654C141.411 116.779 141.195 116.752 140.983 116.557C140.925 116.502 140.82 116.491 140.735 116.486C140.048 116.47 139.366 116.459 138.679 116.448C138.256 116.443 137.855 116.388 137.437 116.296C136.861 116.166 136.253 116.117 135.656 116.128C135.355 116.128 135.059 116.134 134.779 115.982C134.604 115.884 134.398 115.911 134.208 115.911C130.403 115.911 126.597 115.911 122.787 115.911C122.491 115.911 122.184 115.971 121.925 115.754C121.83 115.673 121.725 115.705 121.635 115.77C121.466 115.889 121.265 115.868 121.08 115.922C120.572 116.063 120.076 115.906 119.574 115.911C118.268 115.922 116.968 115.911 115.663 115.911C115.414 115.911 115.171 115.911 114.939 115.786C114.833 115.732 114.69 115.683 114.584 115.711C114.008 115.862 113.438 115.629 112.867 115.694C112.618 115.721 112.386 115.689 112.185 115.483C111.974 115.266 111.641 115.374 111.387 115.233C111.355 115.217 111.265 115.25 111.25 115.282C111.086 115.64 110.811 115.483 110.536 115.504C110.023 115.542 109.542 115.45 109.051 115.391C108.982 115.38 108.898 115.374 108.845 115.407C108.332 115.683 107.777 115.58 107.233 115.586C105.964 115.597 104.696 115.586 103.433 115.591C102.519 115.591 101.61 115.591 100.695 115.694C100.537 115.711 100.373 115.694 100.23 115.781C100.093 115.857 99.9712 115.857 99.8285 115.781C99.5484 115.645 99.2524 115.64 98.9511 115.673C98.5812 115.711 98.2112 115.716 97.8466 115.64C97.7778 115.624 97.7039 115.602 97.6404 115.607C96.6838 115.694 95.722 115.477 94.7601 115.635C94.4377 115.689 94.0941 115.64 93.7612 115.618C92.9314 115.564 92.107 115.607 91.2772 115.586C90.8755 115.575 90.4686 115.629 90.0881 115.418C90.0141 115.38 89.9084 115.358 89.8291 115.385C89.3059 115.537 88.7774 115.277 88.27 115.385C87.6569 115.515 87.065 115.412 86.4625 115.363C86.3251 115.353 86.1612 115.374 86.045 115.315C85.786 115.174 85.5535 115.266 85.2892 115.298C84.7078 115.369 84.1001 115.423 83.5398 115.304C82.9268 115.174 82.356 115.179 81.764 115.32C81.6372 115.347 81.5209 115.347 81.4047 115.293C81.2778 115.228 81.1457 115.19 81.003 115.163C80.6753 115.109 80.3688 115.336 80.0781 115.277C79.7663 115.217 79.4756 115.168 79.1479 115.206C78.7515 115.255 78.3499 115.13 77.9482 115.152C77.5148 115.179 77.0656 115.092 76.6534 115.32C76.5107 115.396 76.3415 115.353 76.1936 115.277C76.035 115.19 75.85 115.109 75.6862 115.168C75.2211 115.336 74.7296 115.217 74.2645 115.331C74.2328 115.342 74.1905 115.353 74.1588 115.347C73.5352 115.163 72.9221 115.434 72.2985 115.385C71.6854 115.331 71.067 115.374 70.4487 115.374C69.8145 115.374 69.175 115.429 68.5461 115.358C68.0387 115.298 67.5472 115.347 67.0451 115.363C66.1096 115.396 65.1795 115.374 64.244 115.369C64.0854 115.369 63.9163 115.391 63.7789 115.298C63.5305 115.141 63.2557 115.168 63.0073 115.212C62.3097 115.342 61.612 115.081 60.9197 115.266C59.5033 115.033 58.0763 115.195 56.6493 115.163C56.0574 115.152 55.4549 115.081 54.863 115.244C54.6938 115.293 54.4877 115.152 54.2975 115.163C53.1612 115.244 52.0249 115.092 50.8886 115.152C50.5715 115.168 50.2544 115.119 49.9531 115.277C49.8527 115.331 49.7523 115.309 49.6466 115.277C48.9437 115.016 48.2249 115.119 47.5114 115.217C47.411 115.228 47.3053 115.309 47.2049 115.25C46.6605 114.946 46.0686 115.071 45.4925 115.054C45.1067 115.043 44.7156 115.054 44.3298 115.065C44.2611 115.065 44.1818 115.092 44.1184 115.065C43.3151 114.729 42.5963 115.157 41.8511 115.342C41.6714 115.385 41.5234 115.461 41.4653 115.667C41.423 115.824 41.3173 115.922 41.1482 115.868C40.9791 115.819 40.9632 115.667 40.9579 115.515C40.9526 115.19 40.9579 114.865 40.9579 114.539L41.0002 114.523Z" fill="#FFD6D7"/>
<path d="M208.241 113.416C208.548 113.389 208.807 113.443 208.986 113.725C209.229 114.111 209.705 114.051 210.038 114.273C210.212 114.393 210.429 114.436 210.614 114.539C211.063 114.794 211.127 115.168 210.783 115.558C210.64 115.716 210.477 115.857 210.318 115.998C209.594 116.632 209.034 117.413 208.437 118.167C208.384 118.237 208.326 118.302 208.262 118.373C207.913 118.758 207.596 119.159 207.533 119.712C207.501 119.984 207.316 120.065 207.073 119.957C206.994 119.924 206.92 119.864 206.851 119.81C206.603 119.615 206.381 119.474 206.058 119.734C205.852 119.897 205.551 119.837 205.292 119.734C205.16 119.68 205.028 119.604 204.89 119.675C204.61 119.81 204.43 119.761 204.33 119.436C204.282 119.284 204.129 119.317 204.013 119.376C203.78 119.496 203.606 119.458 203.521 119.181C203.484 119.073 203.41 118.997 203.299 118.97C203.12 118.921 202.877 118.959 202.829 118.704C202.771 118.4 202.75 118.096 202.945 117.82C203.125 117.57 203.273 117.305 203.463 117.071C204.06 116.339 204.61 115.569 205.297 114.913C205.44 114.778 205.561 114.626 205.741 114.539C205.905 114.463 206.048 114.344 206.132 114.181C206.386 113.688 206.83 113.557 207.316 113.525C207.633 113.503 207.94 113.384 208.246 113.416H208.241Z" fill="#FFD6D7"/>
</g>
<defs>
<clipPath id="clip0_1025_1508">
<rect width="94" height="44" fill="white" transform="translate(79 9)"/>
</clipPath>
<clipPath id="clip1_1025_1508">
<rect width="170" height="10" fill="white" transform="translate(41 110)"/>
</clipPath>
</defs>
</svg>
