<svg width="252" height="147" viewBox="0 0 252 147" fill="none" xmlns="http://www.w3.org/2000/svg">
<mask id="path-1-outside-1_1025_1467" maskUnits="userSpaceOnUse" x="56" y="55" width="141" height="48" fill="black">
<rect fill="white" x="56" y="55" width="141" height="48"/>
<path d="M60.999 64.744H69.213C69.213 65.336 69.509 75.03 69.509 79.544C69.509 85.464 69.287 91.754 68.843 94.048L60.999 94.196C60.999 93.826 61.295 82.948 61.295 79.1C61.295 75.4 60.999 65.706 60.999 64.744ZM107.544 63.264L115.758 63.708C115.24 68.222 115.462 75.77 115.314 80.802C115.166 84.206 115.61 88.35 115.018 91.162C114.5 93.678 112.65 94.788 110.652 93.382C103.03 88.202 98.7384 83.91 91.0424 79.174C91.1904 82.06 91.2644 89.016 91.2644 91.68H83.2724C83.2724 87.092 82.8284 77.768 82.2364 69.258C82.3104 67.852 82.7544 66.076 84.3824 66.076C84.9744 66.076 85.7144 66.298 86.6024 66.816L90.4504 69.184C95.4084 72.44 102.438 76.288 107.1 81.912C107.1 81.098 107.174 80.728 107.174 78.952C107.174 75.03 107.174 67.778 107.544 63.264ZM153.944 68.074H144.176C141.512 68.074 138.7 68.148 137.294 68.222C137.146 70.664 137.294 72.884 137.294 76.214C142.4 75.622 153.796 75.696 154.314 75.696V83.836C153.722 83.836 142.03 84.058 137.368 84.576C137.368 88.498 137.59 94.196 137.812 97.6L129.672 98.044C129.154 95.528 129.228 89.756 129.154 82.06C129.154 79.396 129.08 76.954 129.08 73.846C129.08 70.22 129.228 65.706 129.228 61.932C136.702 59.342 152.982 59.86 153.944 59.86V68.074ZM173.694 90.57C177.172 90.57 178.356 87.388 178.356 84.576C178.356 80.654 176.95 74.364 175.988 69.776C172.584 69.702 168.662 69.48 167.182 69.11L167.552 61.34C168.144 61.34 172.51 61.636 175.692 61.636C181.982 61.636 187.902 60.896 191.01 60.896L191.75 68.592C190.27 69.11 186.422 69.332 184.424 69.48C185.534 74.29 186.57 79.544 186.57 84.576C186.57 92.05 182.13 98.784 173.62 98.784C168.292 98.784 163.186 95.084 161.558 90.94H161.632L168.144 86.722C169.624 88.942 171.4 90.57 173.694 90.57Z"/>
</mask>
<path d="M60.999 64.744H69.213C69.213 65.336 69.509 75.03 69.509 79.544C69.509 85.464 69.287 91.754 68.843 94.048L60.999 94.196C60.999 93.826 61.295 82.948 61.295 79.1C61.295 75.4 60.999 65.706 60.999 64.744ZM107.544 63.264L115.758 63.708C115.24 68.222 115.462 75.77 115.314 80.802C115.166 84.206 115.61 88.35 115.018 91.162C114.5 93.678 112.65 94.788 110.652 93.382C103.03 88.202 98.7384 83.91 91.0424 79.174C91.1904 82.06 91.2644 89.016 91.2644 91.68H83.2724C83.2724 87.092 82.8284 77.768 82.2364 69.258C82.3104 67.852 82.7544 66.076 84.3824 66.076C84.9744 66.076 85.7144 66.298 86.6024 66.816L90.4504 69.184C95.4084 72.44 102.438 76.288 107.1 81.912C107.1 81.098 107.174 80.728 107.174 78.952C107.174 75.03 107.174 67.778 107.544 63.264ZM153.944 68.074H144.176C141.512 68.074 138.7 68.148 137.294 68.222C137.146 70.664 137.294 72.884 137.294 76.214C142.4 75.622 153.796 75.696 154.314 75.696V83.836C153.722 83.836 142.03 84.058 137.368 84.576C137.368 88.498 137.59 94.196 137.812 97.6L129.672 98.044C129.154 95.528 129.228 89.756 129.154 82.06C129.154 79.396 129.08 76.954 129.08 73.846C129.08 70.22 129.228 65.706 129.228 61.932C136.702 59.342 152.982 59.86 153.944 59.86V68.074ZM173.694 90.57C177.172 90.57 178.356 87.388 178.356 84.576C178.356 80.654 176.95 74.364 175.988 69.776C172.584 69.702 168.662 69.48 167.182 69.11L167.552 61.34C168.144 61.34 172.51 61.636 175.692 61.636C181.982 61.636 187.902 60.896 191.01 60.896L191.75 68.592C190.27 69.11 186.422 69.332 184.424 69.48C185.534 74.29 186.57 79.544 186.57 84.576C186.57 92.05 182.13 98.784 173.62 98.784C168.292 98.784 163.186 95.084 161.558 90.94H161.632L168.144 86.722C169.624 88.942 171.4 90.57 173.694 90.57Z" fill="#EDF798"/>
<path d="M60.999 64.744V60.744H56.999V64.744H60.999ZM69.213 64.744H73.213V60.744H69.213V64.744ZM68.843 94.048L68.9185 98.0473L72.155 97.9862L72.7701 94.8081L68.843 94.048ZM60.999 94.196H56.999V98.2722L61.0745 98.1953L60.999 94.196ZM60.999 68.744H69.213V60.744H60.999V68.744ZM65.213 64.744C65.213 65.1036 65.2903 67.7941 65.3622 70.7699C65.4363 73.8377 65.509 77.3427 65.509 79.544H73.509C73.509 77.2313 73.4337 73.6323 73.3598 70.5766C73.3227 69.0411 73.2856 67.6288 73.2579 66.567C73.244 66.0349 73.2325 65.5935 73.2245 65.2668C73.2205 65.1033 73.2175 64.9724 73.2155 64.8753C73.2132 64.7631 73.213 64.7324 73.213 64.744H65.213ZM65.509 79.544C65.509 85.5705 65.2724 91.4458 64.9159 93.2879L72.7701 94.8081C73.3016 92.0622 73.509 85.3575 73.509 79.544H65.509ZM68.7676 90.0487L60.9236 90.1967L61.0745 98.1953L68.9185 98.0473L68.7676 90.0487ZM64.999 94.196C64.999 94.212 65.0016 94.0744 65.0106 93.694C65.0187 93.3555 65.0302 92.8873 65.0441 92.3203C65.0718 91.1882 65.1089 89.6705 65.146 88.0434C65.2197 84.8093 65.295 81.0787 65.295 79.1H57.295C57.295 80.9693 57.2223 84.6017 57.1481 87.8611C57.0759 91.028 56.999 93.9509 56.999 94.196H64.999ZM65.295 79.1C65.295 77.1907 65.2195 73.7887 65.1458 70.7968C65.07 67.7188 64.999 65.1594 64.999 64.744H56.999C56.999 65.2906 57.076 68.0592 57.1482 70.9937C57.2226 74.0143 57.295 77.3093 57.295 79.1H65.295ZM107.544 63.264L107.76 59.2698L103.876 59.0598L103.558 62.9372L107.544 63.264ZM115.758 63.708L119.732 64.164L120.217 59.9431L115.974 59.7138L115.758 63.708ZM115.314 80.802L119.311 80.9757L119.312 80.9477L119.313 80.9196L115.314 80.802ZM115.018 91.162L111.104 90.338L111.102 90.3467L111.101 90.3554L115.018 91.162ZM110.652 93.382L112.954 90.1108L112.928 90.092L112.901 90.0737L110.652 93.382ZM91.0424 79.174L93.1388 75.7674L86.658 71.7791L87.0477 79.3789L91.0424 79.174ZM91.2644 91.68V95.68H95.2644V91.68H91.2644ZM83.2724 91.68H79.2724V95.68H83.2724V91.68ZM82.2364 69.258L78.242 69.0478L78.2291 69.2918L78.2461 69.5356L82.2364 69.258ZM86.6024 66.816L88.6988 63.4094L88.6587 63.3846L88.6179 63.3609L86.6024 66.816ZM90.4504 69.184L92.6462 65.8405L92.597 65.8082L92.5468 65.7774L90.4504 69.184ZM107.1 81.912L104.021 84.4648L111.1 93.0051V81.912H107.1ZM107.329 67.2582L115.543 67.7022L115.974 59.7138L107.76 59.2698L107.329 67.2582ZM111.785 63.252C111.498 65.745 111.425 68.9569 111.398 72.0247C111.369 75.2007 111.389 78.2195 111.316 80.6844L119.313 80.9196C119.388 78.3525 119.371 75.0813 119.398 72.0968C119.425 69.0041 119.5 66.185 119.732 64.164L111.785 63.252ZM111.318 80.6283C111.238 82.4726 111.316 84.602 111.333 86.2448C111.352 88.0675 111.3 89.4075 111.104 90.338L118.933 91.986C119.329 90.1045 119.351 87.9665 119.333 86.1632C119.312 84.18 119.243 82.5354 119.311 80.9757L111.318 80.6283ZM111.101 90.3554C110.986 90.9118 110.878 90.5507 111.502 90.2168C111.838 90.0366 112.226 89.9688 112.571 90.0094C112.89 90.0468 113.019 90.156 112.954 90.1108L108.35 96.6532C110.285 98.0144 112.873 98.5577 115.279 97.2687C117.457 96.1023 118.533 93.9282 118.936 91.9686L111.101 90.3554ZM112.901 90.0737C109.216 87.5698 106.353 85.2931 103.323 82.9483C100.304 80.6113 97.1723 78.2495 93.1388 75.7674L88.946 82.5806C92.6085 84.8345 95.4708 86.9867 98.4269 89.2747C101.373 91.5549 104.466 94.0142 108.404 96.6903L112.901 90.0737ZM87.0477 79.3789C87.1899 82.1524 87.2644 89.0175 87.2644 91.68H95.2644C95.2644 89.0145 95.191 81.9676 95.0372 78.9691L87.0477 79.3789ZM91.2644 87.68H83.2724V95.68H91.2644V87.68ZM87.2724 91.68C87.2724 86.9469 86.8201 77.5089 86.2268 68.9804L78.2461 69.5356C78.8368 78.0271 79.2724 87.2371 79.2724 91.68H87.2724ZM86.2309 69.4682C86.2412 69.273 86.2624 69.1132 86.2865 68.9998C86.3128 68.8763 86.325 68.8906 86.2721 68.9918C86.2166 69.098 86.0394 69.3924 85.6505 69.6622C85.2211 69.96 84.751 70.076 84.3824 70.076V62.076C81.7138 62.076 80.0075 63.706 79.1813 65.2877C78.4659 66.6572 78.2905 68.1256 78.242 69.0478L86.2309 69.4682ZM84.3824 70.076C84.1825 70.076 84.0949 70.0396 84.1451 70.0559C84.1942 70.0719 84.3401 70.1271 84.587 70.2711L88.6179 63.3609C87.3799 62.6387 85.9341 62.076 84.3824 62.076V70.076ZM84.506 70.2226L88.354 72.5906L92.5468 65.7774L88.6988 63.4094L84.506 70.2226ZM88.2547 72.5275C93.6294 76.0571 99.8589 79.4439 104.021 84.4648L110.18 79.3592C105.018 73.1321 97.1874 68.8228 92.6462 65.8405L88.2547 72.5275ZM111.1 81.912C111.1 81.6202 111.112 81.4526 111.133 80.9703C111.154 80.5011 111.174 79.9051 111.174 78.952H103.174C103.174 79.7749 103.158 80.2519 103.141 80.6152C103.126 80.9654 103.1 81.3898 103.1 81.912H111.1ZM111.174 78.952C111.174 74.9669 111.178 67.9042 111.531 63.5908L103.558 62.9372C103.171 67.6518 103.174 75.0931 103.174 78.952H111.174ZM153.944 68.074V72.074H157.944V68.074H153.944ZM137.294 68.222L137.084 64.2275L133.518 64.4152L133.301 67.98L137.294 68.222ZM137.294 76.214H133.294V80.7046L137.755 80.1874L137.294 76.214ZM154.314 75.696H158.314V71.696H154.314V75.696ZM154.314 83.836V87.836H158.314V83.836H154.314ZM137.368 84.576L136.926 80.6005L133.368 80.9958V84.576H137.368ZM137.812 97.6L138.03 101.594L142.067 101.374L141.804 97.3397L137.812 97.6ZM129.672 98.044L125.754 98.8506L126.449 102.226L129.89 102.038L129.672 98.044ZM129.154 82.06H125.154V82.0792L125.154 82.0985L129.154 82.06ZM129.228 61.932L127.918 58.1525L125.228 59.0848V61.932H129.228ZM153.944 59.86H157.944V55.86H153.944V59.86ZM153.944 64.074H144.176V72.074H153.944V64.074ZM144.176 64.074C141.461 64.074 138.577 64.149 137.084 64.2275L137.504 72.2165C138.823 72.147 141.563 72.074 144.176 72.074V64.074ZM133.301 67.98C133.145 70.5647 133.294 73.2185 133.294 76.214H141.294C141.294 72.5495 141.147 70.7633 141.287 68.464L133.301 67.98ZM137.755 80.1874C142.566 79.6296 153.643 79.696 154.314 79.696V71.696C153.949 71.696 142.234 71.6144 136.833 72.2406L137.755 80.1874ZM150.314 75.696V83.836H158.314V75.696H150.314ZM154.314 79.836C153.714 79.836 141.828 80.0559 136.926 80.6005L137.81 88.5515C139.963 88.3123 143.899 88.1305 147.502 88.0095C149.275 87.9499 150.923 87.9064 152.165 87.8777C152.785 87.8634 153.302 87.8528 153.681 87.8459C153.87 87.8424 154.023 87.8398 154.136 87.8382C154.193 87.8374 154.238 87.8368 154.271 87.8364C154.308 87.836 154.319 87.836 154.314 87.836V79.836ZM133.368 84.576C133.368 88.6001 133.594 94.3863 133.821 97.8603L141.804 97.3397C141.586 94.0057 141.368 88.3959 141.368 84.576H133.368ZM137.594 93.6059L129.454 94.0499L129.89 102.038L138.03 101.594L137.594 93.6059ZM133.59 97.2374C133.417 96.3981 133.303 94.6949 133.246 91.9129C133.191 89.2187 133.192 85.9302 133.154 82.0215L125.154 82.0985C125.191 85.8858 125.191 89.3313 125.248 92.0761C125.302 94.7331 125.409 97.1739 125.754 98.8506L133.59 97.2374ZM133.154 82.06C133.154 80.695 133.135 79.3895 133.117 78.0639C133.098 76.7321 133.08 75.3694 133.08 73.846H125.08C125.08 75.4306 125.099 76.8429 125.118 78.175C125.136 79.5135 125.154 80.761 125.154 82.06H133.154ZM133.08 73.846C133.08 72.0762 133.116 70.0799 133.154 68.0166C133.19 65.9708 133.228 63.8616 133.228 61.932H125.228C125.228 63.7764 125.192 65.8112 125.155 67.8724C125.118 69.9161 125.08 71.9898 125.08 73.846H133.08ZM130.538 65.7115C133.644 64.635 139.027 64.1172 144.18 63.9219C149.206 63.7313 153.311 63.86 153.944 63.86V55.86C153.947 55.86 153.929 55.8599 153.871 55.8591C153.818 55.8583 153.75 55.8571 153.663 55.8555C153.492 55.8524 153.259 55.848 152.979 55.8433C152.416 55.8341 151.655 55.8237 150.746 55.8196C148.93 55.8113 146.512 55.8277 143.877 55.9276C138.781 56.1208 132.286 56.639 127.918 58.1525L130.538 65.7115ZM149.944 59.86V68.074H157.944V59.86H149.944ZM175.988 69.776L179.902 68.9551L179.25 65.846L176.074 65.7769L175.988 69.776ZM167.182 69.11L163.186 68.9197L163.03 72.1952L166.211 72.9906L167.182 69.11ZM167.551 61.34V57.34H163.737L163.556 61.1497L167.551 61.34ZM191.01 60.896L194.991 60.5131L194.643 56.896H191.01V60.896ZM191.749 68.592L193.071 72.3674L196.031 71.3313L195.731 68.2091L191.749 68.592ZM184.424 69.48L184.128 65.4909L179.477 65.8354L180.526 70.3794L184.424 69.48ZM161.558 90.94V86.94H155.688L157.834 92.4026L161.558 90.94ZM161.632 90.94V94.94H162.814L163.806 94.2973L161.632 90.94ZM168.144 86.722L171.472 84.5032L169.282 81.2187L165.969 83.3647L168.144 86.722ZM173.694 94.57C176.898 94.57 179.292 92.9904 180.702 90.7768C181.978 88.7748 182.355 86.4442 182.355 84.576H174.355C174.355 85.0079 174.309 85.4192 174.225 85.7715C174.14 86.1283 174.033 86.3557 173.955 86.4782C173.886 86.5872 173.862 86.58 173.908 86.5543C173.963 86.5225 173.931 86.57 173.694 86.57V94.57ZM182.355 84.576C182.355 80.1237 180.811 73.289 179.902 68.9551L172.073 70.5969C173.088 75.439 174.355 81.1843 174.355 84.576H182.355ZM176.074 65.7769C174.418 65.7409 172.653 65.6692 171.141 65.5637C169.52 65.4506 168.504 65.3174 168.152 65.2294L166.211 72.9906C167.339 73.2726 169.024 73.4354 170.585 73.5443C172.255 73.6608 174.153 73.7371 175.901 73.7751L176.074 65.7769ZM171.177 69.3003L171.547 61.5303L163.556 61.1497L163.186 68.9197L171.177 69.3003ZM167.551 65.34C167.522 65.34 167.567 65.3401 167.763 65.3488C167.931 65.3562 168.15 65.3671 168.421 65.381C168.956 65.4084 169.669 65.446 170.461 65.4835C172.035 65.558 174.001 65.636 175.691 65.636V57.636C174.2 57.636 172.392 57.566 170.839 57.4925C169.445 57.4264 167.972 57.34 167.551 57.34V65.34ZM175.691 65.636C178.982 65.636 182.148 65.4426 184.822 65.2563C187.6 65.0627 189.638 64.896 191.01 64.896V56.896C189.273 56.896 186.797 57.0993 184.266 57.2757C181.63 57.4593 178.691 57.636 175.691 57.636V65.636ZM187.028 61.2788L187.768 68.9748L195.731 68.2091L194.991 60.5131L187.028 61.2788ZM190.428 64.8166C190.44 64.8124 190.38 64.8332 190.221 64.8687C190.07 64.9024 189.874 64.9396 189.63 64.9787C189.139 65.0572 188.543 65.129 187.885 65.1943C186.555 65.3265 185.186 65.4125 184.128 65.4909L184.719 73.4691C185.659 73.3995 187.213 73.3005 188.676 73.1552C189.993 73.0243 191.806 72.8102 193.071 72.3674L190.428 64.8166ZM180.526 70.3794C181.627 75.1525 182.57 80.0295 182.57 84.576H190.57C190.57 79.0584 189.44 73.4275 188.321 68.5806L180.526 70.3794ZM182.57 84.576C182.57 87.5626 181.679 90.1569 180.208 91.9274C178.812 93.6091 176.712 94.784 173.619 94.784V102.784C179.037 102.784 183.412 100.592 186.363 97.0381C189.24 93.5731 190.57 89.0634 190.57 84.576H182.57ZM173.619 94.784C169.896 94.784 166.292 92.0532 165.281 89.4774L157.834 92.4026C160.079 98.1148 166.687 102.784 173.619 102.784V94.784ZM161.558 94.94H161.632V86.94H161.558V94.94ZM163.806 94.2973L170.318 90.0793L165.969 83.3647L159.457 87.5827L163.806 94.2973ZM164.815 88.9408C166.463 91.4127 169.283 94.57 173.694 94.57V86.57C173.569 86.57 173.372 86.5464 173.008 86.2746C172.594 85.9649 172.075 85.408 171.472 84.5032L164.815 88.9408Z" fill="#FF7989" mask="url(#path-1-outside-1_1025_1467)"/>
<g clip-path="url(#clip0_1025_1467)">
<path d="M185 32.4238C184.928 32.5239 184.773 32.6618 184.797 32.717C185.093 33.3517 184.694 33.9346 184.684 34.5451C184.674 35.159 184.354 35.6971 184.158 36.2593C183.674 37.6425 182.771 38.7669 181.95 39.9534C181.414 40.726 180.761 41.3572 180.095 41.9746C179.449 42.5748 178.594 42.8887 177.814 43.3026C177.275 43.5889 176.736 43.8889 176.2 44.1614C175.527 44.5063 174.819 44.8582 174.064 45.0272C172.58 45.3617 171.079 45.6515 169.561 45.4721C168.891 45.3928 168.197 45.6687 167.545 45.2997C167.311 45.1686 167.201 45.11 167.345 44.8375C167.514 44.5236 167.287 44.4374 167.036 44.3994C166.552 44.3304 166.191 43.7027 166.425 43.2922C166.549 43.0715 166.583 42.8438 166.531 42.6231C166.188 41.0813 166.367 39.5188 166.315 37.9632C166.226 35.3798 166.198 32.7963 166.281 30.2198C166.322 28.9091 166.538 27.5984 166.617 26.2808C166.652 25.6945 166.703 25.0874 166.782 24.4941C166.968 23.1179 166.988 21.7382 167.009 20.3551C167.016 19.817 167.098 19.2341 167.775 19.0582C168.118 18.9685 168.218 18.6133 168.469 18.4477C169.248 17.9338 170.042 17.5647 171.045 17.8993C171.659 18.1028 172.35 18.0545 172.992 17.8993C173.782 17.7027 174.552 17.7027 175.341 17.9062C176.293 18.1511 177.193 18.5443 178.113 18.8582C179.147 19.21 180.075 19.7101 180.981 20.2758C181.102 20.3482 181.211 20.4482 181.301 20.5552C182.005 21.414 182.822 22.2073 183.362 23.1628C183.897 24.1078 184.179 25.1978 184.385 26.2981C184.56 27.25 184.646 28.2089 184.78 29.1643C184.866 29.7886 184.856 30.413 184.835 31.0304C184.821 31.4201 184.914 31.7512 185 32.1065V32.4273V32.4238ZM180.092 31.1407C180.092 30.2129 180.092 29.2885 180.092 28.3607C180.092 28.1123 180.033 27.8778 179.968 27.6329C179.738 26.7465 179.518 25.8531 179.367 24.9494C179.257 24.2837 179.03 23.6594 178.663 23.1352C178.014 22.2108 177.303 21.3105 176.458 20.5586C176.028 20.1758 175.551 19.7205 174.936 19.6894C174.012 19.6446 173.081 19.7032 172.158 19.7239C172.044 19.7239 171.938 19.7998 171.931 19.9136C171.907 20.2723 171.69 20.5724 171.67 20.9415C171.587 22.5281 171.697 24.1044 171.436 25.7083C171.148 27.4673 171.01 29.2816 171.137 31.0924C171.234 32.4618 171.089 33.8311 171.131 35.2039C171.199 37.4286 171.165 39.6602 171.137 41.8884C171.134 42.2989 171.337 42.6369 171.354 43.0301C171.361 43.1922 171.113 43.3785 171.347 43.5026C171.543 43.6061 171.745 43.5026 171.948 43.3957C172.449 43.137 172.872 42.7369 173.415 42.5644C175.025 42.054 176.224 40.9468 177.227 39.674C178.041 38.6427 178.807 37.5459 179.329 36.3214C179.786 35.2522 180.239 34.1795 180.109 32.955C180.047 32.3548 180.099 31.7443 180.099 31.1373L180.092 31.1407Z" fill="#C4D893"/>
<path d="M90.5214 24.4907C90.0268 25.6772 89.4567 26.7844 89.0204 27.9606C88.7731 28.6263 88.464 29.2989 88.1068 29.9266C87.7736 30.5164 87.6534 31.1821 87.3546 31.7754C86.8051 32.8688 86.6642 34.0967 86.1799 35.2177C85.9429 35.7661 85.8193 36.4008 85.6991 36.9975C85.4999 37.9943 84.7477 38.3185 83.834 38.4082C83.0784 38.4841 82.3056 38.4392 81.5431 38.4116C80.7909 38.3841 80.1726 38.0081 79.7158 37.4493C78.8881 36.4422 78.4725 35.1936 77.8576 34.0588C77.394 33.1999 77.0299 32.2928 76.6795 31.396C76.2158 30.2129 75.4843 29.154 75.158 27.9054C75.0137 27.3535 74.6599 26.8534 74.3611 26.3498C74.1997 26.0773 74.0005 25.829 73.8871 25.5048C73.6707 25.7048 73.7222 25.9325 73.736 26.1291C73.8322 27.6019 73.5505 29.0574 73.4475 30.5164C73.3822 31.4477 73.4749 32.4204 73.2517 33.3137C72.9529 34.5141 73.2517 35.7592 72.8258 36.9388C72.6918 37.3045 72.7777 37.7494 72.7743 38.1599C72.7743 40.5329 72.7743 42.9059 72.7743 45.279C72.7743 46.2344 72.369 46.6794 71.3935 46.7483C70.9539 46.7794 70.5211 46.7725 70.0883 46.9346C69.8032 47.0381 69.4666 46.9898 69.1506 46.8794C68.8759 46.7828 68.6526 46.5517 68.2851 46.6311C68.1271 46.6656 67.8935 46.3344 68.055 46.0447C68.1752 45.8274 68.1752 45.6032 68.1752 45.3721C68.1752 43.7855 68.1752 42.1954 68.1752 40.6088C68.1752 39.405 68.0859 38.1943 68.2027 37.0009C68.3263 35.7144 68.2954 34.4175 68.5702 33.1378C68.7247 32.4169 68.5393 31.6236 68.6938 30.9062C68.9549 29.6955 68.7866 28.4676 68.972 27.2742C69.082 26.5637 69.0373 25.8566 69.1575 25.1668C69.4151 23.6905 69.3739 22.1625 69.896 20.7345C69.92 20.669 69.9372 20.5931 69.9818 20.5448C70.6894 19.7274 72.393 19.448 73.4269 19.9205C73.7669 20.0757 74.1447 20.1792 74.5431 20.231C75.2163 20.3206 75.8071 20.6104 76.2055 21.2347C76.6417 21.9176 77.26 22.504 77.5829 23.2318C78.0053 24.1872 78.6064 25.0426 78.9877 26.0256C79.3895 27.0604 79.9837 28.0192 80.4543 29.0298C81.0038 30.206 81.5156 31.3994 82.0445 32.5894C82.072 32.6549 82.0926 32.7481 82.1751 32.7274C82.3537 32.6894 82.443 32.5446 82.4498 32.3756C82.4773 31.6581 83.0234 31.1476 83.1574 30.4302C83.3085 29.6128 83.913 28.8884 84.2187 28.0848C84.5759 27.15 84.9812 26.2222 85.4243 25.3496C86.0494 24.1147 86.5062 22.7765 87.3855 21.6658C87.9729 20.9208 88.44 20.0792 89.0101 19.3204C89.3261 18.903 89.6971 18.5064 90.2982 18.465C90.4802 18.4512 90.6794 18.3443 90.8237 18.2235C91.1946 17.9131 91.5106 17.9683 91.8713 18.2477C92.1563 18.4684 92.5101 18.5133 92.8776 18.5236C93.41 18.534 93.7741 18.7754 94.1416 19.2307C94.832 20.093 94.7839 21.1312 95.0965 22.0797C95.4227 23.0627 95.3575 24.0734 95.512 25.0598C95.6838 26.167 95.4571 27.3328 95.6082 28.4469C95.8796 30.4992 95.7525 32.5515 95.8074 34.6003C95.828 35.3798 95.8693 36.1593 95.9002 36.9388C95.9277 37.6494 96.1406 38.3634 96.0925 39.0842C96.0273 40.0466 96.0513 41.0158 96.1543 41.9609C96.2471 42.8094 96.2952 43.6889 96.6318 44.4995C96.7245 44.7237 96.752 44.941 96.7554 45.1721C96.7589 45.3652 96.7589 45.5584 96.8688 45.7412C96.9615 45.8998 97.2706 45.9826 97.1435 46.1999C97.0061 46.4379 96.7829 46.7069 96.5047 46.7242C96.041 46.7587 95.6048 46.8863 95.1548 46.9725C94.5778 47.0864 94.0386 46.8553 93.4924 46.7173C93.3276 46.6759 93.228 46.5966 93.0288 46.6932C92.7368 46.8346 92.2216 46.3275 92.1632 45.8826C92.0327 44.8685 91.6617 43.9062 91.4728 42.9059C91.4419 42.7335 91.4247 42.5541 91.4144 42.3782C91.3835 41.7953 91.3904 41.2262 91.2667 40.6364C91.174 40.2087 91.2049 39.7016 91.2049 39.2326C91.1981 37.3251 91.1877 35.4143 91.1981 33.5069C91.2015 32.8481 91.0504 32.21 91.0091 31.565C90.937 30.4578 90.9817 29.3437 90.9748 28.2331C90.9714 27.4984 90.9439 26.7706 90.7928 26.0463C90.6897 25.5531 90.9954 25.0012 90.5214 24.4942V24.4907Z" fill="#C4D893"/>
<path d="M154.94 31.3131C154.94 32.0271 154.94 32.7411 154.94 33.4516C154.94 34.1345 154.754 34.7623 154.503 35.3935C154.345 35.7971 154.253 36.242 154.208 36.6766C154.177 36.9905 154.074 37.2664 153.943 37.5354C153.449 38.5426 153.023 39.5946 152.418 40.5328C151.8 41.4951 150.986 42.3264 150.165 43.1369C149.427 43.8682 148.565 44.1855 147.551 44.351C146.703 44.489 145.868 44.5442 145.024 44.5304C143.753 44.5063 142.523 44.32 141.362 43.7302C140.84 43.4646 140.394 43.1162 139.916 42.8162C139.229 42.3885 138.721 41.778 138.085 41.3123C137.306 40.7397 136.818 39.8568 136.306 39.0255C135.722 38.0804 135.698 37.0457 135.733 35.973C135.781 34.5484 135.784 33.1205 135.743 31.6925C135.702 30.2439 135.87 28.8228 136.282 27.4466C136.732 25.9358 137.357 24.4906 138.247 23.1696C138.827 22.3107 139.408 21.4588 140.153 20.731C140.424 20.4654 140.758 20.3516 141.084 20.2481C141.335 20.1688 141.599 20.1205 141.829 19.9894C142.743 19.4686 143.732 19.7411 144.69 19.6824C145.398 19.641 146.095 19.6514 146.72 20.0791C147.112 20.3447 147.61 20.2378 148.053 20.3516C148.747 20.5309 149.372 20.8517 149.894 21.2484C150.567 21.7588 151.292 22.1934 151.955 22.7246C152.752 23.3662 153.167 24.2354 153.665 25.0632C154.819 26.9878 155.125 29.0987 154.936 31.3062L154.94 31.3131ZM144.718 21.7451C144.213 21.5105 143.89 21.8313 143.646 22.1831C143.086 22.9902 142.475 23.787 142.066 24.67C141.544 25.7979 141.105 26.9706 140.833 28.2088C140.593 29.2953 140.517 30.4025 140.397 31.489C140.218 33.1101 140.349 34.7657 140.352 36.4041C140.352 36.8249 140.37 37.2147 140.572 37.632C140.73 37.9563 140.96 38.277 141.036 38.6185C141.187 39.3083 141.633 39.7705 142.073 40.2534C142.76 41.0088 143.591 41.602 144.354 42.2712C145.089 42.9162 145.618 42.9748 146.099 42.523C146.404 42.2332 146.676 41.8918 146.933 41.5572C147.538 40.7777 148.067 39.9395 148.524 39.06C149.368 37.4354 150.055 35.7626 150.038 33.8828C150.038 33.6344 150 33.3792 150.11 33.1446C150.347 32.6445 150.306 32.0167 150.172 31.6201C149.949 30.9509 150.158 30.3611 150.182 29.7575C150.21 29.0228 150.083 28.302 149.939 27.6259C149.698 26.5153 149.094 25.5288 148.451 24.5665C147.871 23.6938 147.218 22.9316 146.277 22.4901C145.752 22.2417 145.47 21.4933 144.711 21.7416L144.718 21.7451Z" fill="#C4D893"/>
<path d="M107.925 37.2113C107.925 36.4974 107.867 35.7799 107.943 35.0728C108.025 34.2899 108.097 33.5 108.307 32.7308C108.427 32.2893 108.406 31.8272 108.54 31.3719C108.963 29.9336 109.327 28.4849 110.024 27.1432C110.656 25.929 111.284 24.7218 112.39 23.8699C113.088 23.3318 113.871 22.9627 114.685 22.6006C115.643 22.1729 116.584 22.1349 117.57 22.1384C118.13 22.1384 118.628 22.335 119.126 22.5695C119.665 22.8213 120.228 23.0214 120.833 22.7351C120.981 22.6627 121.183 22.6316 121.297 22.7282C121.843 23.2007 122.568 23.1007 123.182 23.349C123.357 23.4215 123.498 23.5284 123.581 23.6836C123.67 23.8457 123.495 23.9113 123.402 23.9561C122.801 24.2458 123.23 24.4804 123.433 24.7287C123.976 25.391 124.567 26.0222 124.996 26.7706C125.793 28.1607 126.03 29.6887 126.05 31.2615C126.064 32.279 126.098 33.2965 126.05 34.3106C126.002 35.2763 125.851 36.2318 125.686 37.1906C125.556 37.9426 125.435 38.6807 125.147 39.3947C124.683 40.5364 124.213 41.678 123.608 42.7507C122.987 43.8545 122.269 44.903 121.427 45.855C121.245 46.0585 120.984 46.2655 120.73 46.3207C120.153 46.4483 119.638 46.7897 119.016 46.776C118.003 46.7553 116.993 46.7863 115.98 46.7691C113.909 46.7346 112.143 46.0171 110.642 44.5305C109.952 43.8476 109.33 43.1371 108.877 42.3023C108.313 41.2607 107.87 40.1604 107.925 38.9256C107.949 38.3565 107.929 37.7839 107.929 37.2148L107.925 37.2113ZM121.231 32.0134C121.355 30.7545 121.211 29.4576 120.747 28.1814C120.386 27.1949 119.775 26.3878 119.136 25.5979C118.813 25.1978 118.539 24.6873 117.938 24.608C117.639 24.5666 117.381 24.4838 117.316 24.132C117.281 23.9492 117.161 23.9216 117.062 24.0561C116.663 24.577 116.055 24.8943 115.739 25.5013C115.19 26.5464 114.537 27.5364 114.132 28.6573C113.764 29.668 113.345 30.6544 113.253 31.7478C113.211 32.2376 113.088 32.7274 112.937 33.1965C112.72 33.8725 112.593 34.5624 112.545 35.2626C112.5 35.9386 112.514 36.6181 112.531 37.2941C112.555 38.1426 112.469 38.9842 112.703 39.8362C112.83 40.2984 113.146 40.6571 113.229 41.0986C113.421 42.1471 114.194 42.8266 114.729 43.6579C115.111 44.2511 115.743 44.5167 116.248 44.9479C116.807 45.4239 117.292 45.3307 117.704 44.7685C118.065 44.2718 118.415 43.7545 118.717 43.2302C119.325 42.1747 119.785 41.0365 120.297 39.9259C120.575 39.3291 120.644 38.6704 120.816 38.0426C121.118 36.9251 121.358 35.7834 121.324 34.6451C121.297 33.7966 121.324 32.9412 121.235 32.01L121.231 32.0134Z" fill="#C4D893"/>
<path d="M137.384 16.4642C136.601 16.6159 136.392 15.9226 136.124 15.4294C135.643 14.5361 135.382 13.5151 134.705 12.7321C134.059 11.9837 134.537 11.387 134.932 10.8247C135.571 9.9176 136.615 9.75204 137.604 9.52784C138.006 9.43816 138.27 9.72445 138.418 10.0763C138.751 10.8558 139.064 11.6422 139.387 12.4252C139.6 12.9391 139.94 13.322 140.489 13.4875C140.644 13.5358 140.802 13.66 140.692 13.7807C140.342 14.1705 140.396 14.9569 139.596 14.9155C139.39 14.9051 139.308 15.0707 139.256 15.2604C139.157 15.6226 138.992 15.9295 138.542 15.9261C138.394 15.9261 138.25 16.0123 138.188 16.133C138.02 16.4676 137.738 16.4952 137.388 16.4642H137.384Z" fill="#FFB7B9"/>
<path d="M111.04 12.8943C111.126 13.5221 110.851 13.9325 110.408 14.343C109.931 14.7845 109.371 15.1087 108.887 15.5364C108.694 15.7054 108.433 15.7917 108.165 15.8537C107.849 15.9227 107.753 15.8848 107.705 15.5295C107.636 15.0466 107.396 14.6086 107.173 14.1602C106.877 13.5635 106.585 12.9702 106.242 12.3977C106.118 12.1942 105.995 12.0114 105.789 11.8872C105.387 11.6423 105.4 11.3077 105.661 10.9904C105.923 10.6696 106.156 10.3454 106.259 9.93494C106.324 9.6866 106.506 9.55898 106.764 9.53138C107.348 9.47275 107.897 9.33133 108.385 8.97951C108.811 8.66908 109.295 8.90708 109.464 9.19681C110.133 10.3626 110.927 11.494 111.04 12.8943Z" fill="#FFB7B9"/>
<path d="M113.939 15.4778C113.451 15.6709 113.475 15.326 113.486 15.0052C113.534 13.7256 113.369 12.4701 113.084 11.2249C113.046 11.0559 113.008 10.8214 113.091 10.7041C113.427 10.2315 113.475 9.64174 113.757 9.15885C113.956 8.81393 114.327 8.68976 114.684 8.58283C115.152 8.44142 115.639 8.37933 116.062 8.09305C116.288 7.93784 116.481 7.95853 116.577 8.34139C116.938 9.76246 116.766 11.2008 116.773 12.6322C116.773 13.3634 115.832 14.5223 115.155 14.7741C114.911 14.8673 114.657 15.057 114.513 15.2743C114.351 15.5192 114.21 15.5916 113.936 15.4812L113.939 15.4778Z" fill="#FFB7B9"/>
<path d="M143.543 12.808C143.543 12.4355 143.584 12.0561 143.536 11.687C143.382 10.5522 144.11 9.85549 144.755 9.12081C144.996 8.84488 145.394 8.99664 145.71 8.87592C146.098 8.73105 146.497 8.56204 146.93 8.55859C147.204 8.55859 147.445 8.68966 147.342 8.96215C147.143 9.48643 147.383 9.96931 147.38 10.4729C147.376 11.1696 147.187 11.8629 147.359 12.5666C147.428 12.8563 147.304 13.1081 147.081 13.3323C146.215 14.2015 145.216 14.812 144.038 15.1707C143.588 15.3087 143.54 15.1259 143.54 14.7878C143.54 14.129 143.54 13.4702 143.54 12.8114H143.543V12.808Z" fill="#FFB7B9"/>
<path d="M123.601 9.99689C123.642 11.0937 123.436 12.2251 123.158 13.3426C123 13.9876 122.55 14.4843 122.038 14.8568C121.54 15.219 121.001 15.5363 120.507 15.9123C120.338 16.0399 120.146 16.0813 119.954 15.9916C119.727 15.8881 119.754 15.6605 119.796 15.4742C120.115 14.0531 120.101 12.6148 120.094 11.1696C120.094 10.6488 120.482 10.2659 120.654 9.80718C121.005 8.87935 121.959 8.97938 122.615 8.57927C122.718 8.51719 122.846 8.48959 122.962 8.44475C123.429 8.26195 123.577 8.35507 123.594 8.8621C123.605 9.21737 123.594 9.57609 123.594 9.99344L123.601 9.99689Z" fill="#FFB7B9"/>
<path d="M150.055 15.8192C149.554 15.8295 149.396 15.5812 149.595 15.1259C149.76 14.7465 150 14.4188 150.22 14.0739C150.955 12.9391 151.371 11.6422 152.051 10.4798C152.312 10.0349 152.59 9.61062 152.865 9.17947C152.902 9.12429 152.964 9.05185 153.023 9.04495C153.782 8.95183 154.4 8.49308 155.101 8.25509C155.228 8.21025 155.389 8.14127 155.499 8.27579C155.616 8.4172 155.568 8.58276 155.482 8.72418C154.723 9.94519 154.208 11.28 153.679 12.608C153.222 13.7531 152.343 14.4912 151.347 15.1259C151.075 15.2983 150.797 15.4536 150.539 15.6433C150.388 15.7536 150.244 15.8364 150.055 15.8261V15.8192Z" fill="#FFB7B9"/>
</g>
<defs>
<clipPath id="clip0_1025_1467">
<rect width="117" height="39" fill="white" transform="translate(68 8)"/>
</clipPath>
</defs>
</svg>
