<svg width="252" height="147" viewBox="0 0 252 147" fill="none" xmlns="http://www.w3.org/2000/svg">
<g clip-path="url(#clip0_1025_1483)">
<path d="M180.854 46.875C180.854 46.3605 180.755 45.8201 180.875 45.3368C181.22 43.9234 181.142 42.4996 181.105 41.0757C181.068 39.3817 181.163 37.6928 181.121 35.9988C181.116 35.7442 181.152 35.4791 180.927 35.2817C180.885 35.2453 180.859 35.1725 180.865 35.1154C180.927 34.3775 180.723 33.7123 180.394 33.0524C180.232 32.725 180.08 32.3716 179.913 32.0495C179.516 31.3064 178.993 30.636 178.569 29.9033C178.334 29.5032 177.947 29.207 177.701 28.7705C177.215 27.9079 176.441 27.2635 175.746 26.5672C175.542 26.3593 175.322 26.2606 175.019 26.2658C174.366 26.2866 173.702 26.2086 173.059 26.2918C172.358 26.3801 171.663 26.588 171.093 27.0349C170.716 27.3311 170.267 27.5077 169.927 27.8715C169.561 28.2664 169.158 28.6198 168.876 29.0875C168.776 29.2538 168.625 29.3889 168.484 29.5188C168.081 29.8877 167.861 30.3554 167.788 30.8854C167.757 31.1141 167.59 31.2492 167.511 31.4519C167.145 32.434 166.774 33.4109 166.366 34.3775C166.178 34.8244 165.922 35.2505 165.676 35.6714C165.519 35.9364 165.54 36.2378 165.43 36.5184C165.268 36.9341 165.012 37.3499 165.038 37.8227C165.075 38.5606 164.683 39.2258 164.704 39.9793C164.714 40.2911 164.353 40.5041 163.961 40.6496C163.396 40.8575 162.853 40.8627 162.283 40.8991C161.828 40.925 161.493 40.712 161.195 40.4418C160.934 40.2027 160.667 40.0728 160.306 40.0676C159.381 40.0572 158.947 39.2102 159.365 38.3788C159.574 37.963 159.742 37.4694 159.721 37.0173C159.684 36.1962 160.05 35.5363 160.406 34.8763C160.594 34.5282 160.573 34.1488 160.798 33.8007C161.159 33.2395 161.446 32.5951 161.608 31.9455C161.901 30.7348 162.717 29.7734 163.13 28.625C163.166 28.5262 163.229 28.4327 163.302 28.36C164.034 27.6688 164.573 26.827 165.42 26.1982C166.303 25.5487 167.318 25.2005 168.201 24.5977C168.248 24.5665 168.322 24.5509 168.379 24.5613C169.153 24.7172 169.901 24.4366 170.58 24.2236C171.642 23.891 172.682 24.0053 173.723 24.0365C174.486 24.0573 175.281 24.1924 176.013 24.4938C176.081 24.5198 176.159 24.5302 176.232 24.5406C177.236 24.7016 178.156 25.0446 179.045 25.5798C180.101 26.219 181.037 26.9933 181.821 27.8923C182.606 28.7965 183.468 29.6539 184.023 30.7607C184.3 31.3168 184.65 31.878 185.032 32.3872C185.439 32.9329 185.622 33.5772 185.858 34.1956C185.947 34.4191 186.103 34.6009 186.166 34.84C186.292 35.3388 186.428 35.8325 186.428 36.3521C186.428 37.9734 186.428 39.5895 186.428 41.2108C186.428 41.3563 186.37 41.5642 186.537 41.6162C186.726 41.6785 186.877 41.4551 186.898 41.3459C186.966 40.977 187.275 40.8107 187.484 40.5665C187.886 40.0988 188.195 39.548 188.681 39.153C189.633 38.3736 190.453 37.433 191.52 36.7886C192.435 36.2378 193.277 35.5571 194.275 35.1569C194.966 34.8763 195.614 34.5126 196.283 34.206C196.832 33.9514 197.397 33.7019 197.961 33.5253C198.406 33.3901 198.829 33.1615 199.331 33.1407C199.807 33.1199 200.299 32.9536 200.738 32.7562C201.01 32.6315 201.282 32.6107 201.543 32.5275C202.202 32.3145 202.908 32.3509 203.551 32.0962C203.592 32.0806 203.634 32.0495 203.681 32.0495C204.45 32.0754 205.156 31.7169 205.919 31.7221C208.021 31.7325 210.123 31.6753 212.219 31.7481C213.202 31.7844 214.185 31.9715 215.152 32.2054C215.639 32.3249 216.141 32.4132 216.632 32.5379C216.779 32.5743 216.935 32.5639 217.024 32.7198C217.071 32.8029 217.145 32.8861 217.239 32.8705C217.746 32.777 218.154 33.1147 218.629 33.1875C218.901 33.2291 219.199 33.3486 219.398 33.5253C220.14 34.18 221.108 34.5022 221.819 35.2141C222.044 35.4428 222.284 35.661 222.493 35.9156C222.749 36.2274 223.183 36.3002 223.46 36.6224C224.119 37.381 224.642 38.2021 225.123 39.0855C225.458 39.6987 225.651 40.3846 226.064 40.951C226.09 40.9874 226.127 41.0342 226.122 41.0705C226.022 41.6733 226.357 42.2034 226.472 42.7646C226.676 43.7519 226.603 44.7756 226.932 45.737C227.031 46.028 226.875 46.3294 226.885 46.6412C226.906 47.0829 226.901 47.5505 226.906 47.987C226.911 48.5171 227.058 49.0887 226.943 49.5979C226.78 50.3255 227.178 51.0582 226.828 51.7545C227.157 52.3781 226.937 53.0536 226.854 53.6512C226.739 54.4826 226.911 55.3401 226.655 56.1195C226.383 56.9354 226.331 57.798 225.975 58.6034C225.771 59.0659 225.609 59.6219 225.567 60.1884C225.536 60.6197 225.264 61.0562 225.013 61.4355C224.752 61.8304 224.762 62.3085 224.517 62.7086C224.203 63.2231 224.172 63.8882 223.889 64.3923C223.555 64.9951 223.319 65.6239 223.068 66.2474C222.823 66.845 222.509 67.4115 222.253 68.0039C221.923 68.7573 221.683 69.5524 221.301 70.2903C221.05 70.7736 220.836 71.3036 220.668 71.8285C220.501 72.3689 220.177 72.8002 219.879 73.2575C219.691 73.5433 219.717 73.9018 219.529 74.2136C219.053 74.9983 218.818 75.9181 218.201 76.6352C218.248 77.4095 217.511 77.7472 217.212 78.3396C216.962 78.8385 216.491 79.2438 216.146 79.7219C215.471 80.6677 214.729 81.5666 213.976 82.4552C213.636 82.8554 213.302 83.2555 213.019 83.6972C212.564 84.4091 211.974 85.0275 211.524 85.7342C210.301 87.6777 208.993 89.5692 207.692 91.4607C207.315 92.0064 206.865 92.4896 206.431 92.9885C205.794 93.7264 205.239 94.5474 204.476 95.1606C202.704 96.5793 201.229 98.3097 199.525 99.7959C199.012 100.243 198.411 100.596 198.014 101.147C197.559 101.776 196.884 102.155 196.382 102.737C195.091 104.249 193.47 105.439 192.116 106.905C191.321 107.767 190.459 108.568 189.68 109.446C189.214 109.971 188.77 110.547 188.477 111.171C188.226 111.706 187.777 111.898 187.343 112.127C186.783 112.429 186.203 112.714 185.586 112.891C185.115 113.021 184.66 113.068 184.185 112.829C183.777 112.626 183.374 112.345 182.872 112.439C182.449 112.522 182.135 112.205 181.774 112.08C181.346 111.935 180.974 111.659 180.499 111.576C180.148 111.514 179.934 111.14 179.568 110.984C179.123 110.792 178.658 110.641 178.229 110.324C177.513 109.794 176.692 109.404 176.096 108.718C175.882 108.469 175.594 108.334 175.338 108.157C174.794 107.783 174.418 107.242 173.937 106.806C173.916 106.785 173.906 106.749 173.879 106.738C173.247 106.484 173.001 105.839 172.546 105.408C172.212 105.091 172.013 104.66 171.757 104.286C171.244 103.543 170.617 102.961 169.916 102.399C169.08 101.734 168.306 100.97 167.6 100.17C167.354 99.8894 167.072 99.6296 166.858 99.3594C166.533 98.9489 166.11 98.5903 165.869 98.107C165.603 97.577 165.388 97.0262 165.08 96.5117C164.756 95.9817 164.489 95.4049 164.254 94.8281C164.139 94.5422 163.977 94.3396 163.736 94.1733C163.6 94.0746 163.443 93.955 163.506 93.7732C163.569 93.6017 163.721 93.4822 163.925 93.4666C164.86 93.3886 165.775 93.3522 166.727 93.5185C167.213 93.6017 167.652 93.8823 168.207 93.8355C168.567 93.8043 168.881 94.3136 169.174 94.6462C169.817 95.3685 169.953 96.335 170.502 97.1145C170.988 97.8056 171.422 98.5487 171.887 99.271C172.698 100.534 173.89 101.422 174.915 102.467C175.532 103.096 176.3 103.584 176.865 104.249C177.168 104.608 177.45 104.992 177.769 105.341C177.963 105.554 178.282 105.512 178.454 105.761C178.982 106.52 179.767 107.029 180.415 107.674C181.006 108.266 181.717 108.734 182.339 109.305C182.663 109.607 183.139 109.758 183.562 109.939C183.772 110.028 183.996 109.96 184.127 109.758C184.524 109.155 185.115 108.708 185.46 108.069C185.581 107.85 185.879 107.798 186.004 107.648C186.553 107.003 187.327 106.577 187.771 105.865C187.944 105.59 188.205 105.512 188.409 105.325C190.401 103.496 192.205 101.485 194.155 99.614C194.73 99.0632 195.258 98.4448 195.901 97.9823C197.716 96.6728 199.059 94.9008 200.665 93.3834C201.308 92.7754 201.862 92.0687 202.327 91.3048C202.343 91.2789 202.359 91.2477 202.379 91.2321C203.043 90.7696 203.415 90.0317 203.775 89.3925C204.1 88.8157 204.518 88.2961 204.837 87.7193C205.14 87.1684 205.501 86.628 205.851 86.0928C206.547 85.0275 207.42 84.0921 208.131 83.0321C208.539 82.4241 209.04 81.8732 209.511 81.3068C210.018 80.6936 210.646 80.148 211.038 79.4933C211.623 78.5163 212.35 77.6329 212.925 76.6404C213.411 75.7882 213.725 74.8684 214.232 74.0474C214.76 73.1899 215.074 72.2338 215.513 71.34C215.775 70.7996 215.937 70.176 216.188 69.6044C216.439 69.038 216.653 68.4508 216.899 67.8791C217.118 67.3699 217.296 66.8346 217.558 66.341C217.85 65.7798 218.028 65.1666 218.279 64.5846C218.499 64.0753 218.687 63.5453 218.927 63.036C219.21 62.454 219.382 61.8252 219.644 61.2328C219.916 60.6093 220.146 59.9441 220.381 59.2894C220.585 58.723 220.695 58.1409 220.82 57.5641C220.956 56.9406 221.16 56.3222 221.202 55.6778C221.212 55.4907 221.244 55.3193 221.343 55.1582C221.432 55.0127 221.468 54.8516 221.468 54.6801C221.468 51.4479 221.5 48.2105 221.468 44.9783C221.458 44.0273 221.176 43.092 221.019 42.1462C220.93 41.6162 220.7 41.1225 220.663 40.5873C220.642 40.3015 220.485 40.0728 220.376 39.8286C220.119 39.2674 220.052 38.623 219.659 38.1293C219.147 37.485 218.697 36.7886 218.065 36.2378C217.61 35.8429 217.186 35.4064 216.768 34.9751C216.334 34.5282 215.754 34.4294 215.21 34.2008C214.483 33.8994 213.694 34.2008 213.03 33.7851C212.92 33.7123 212.831 33.8059 212.742 33.8526C212.491 33.9877 212.188 33.8422 211.995 33.8838C211.597 33.9618 211.242 33.4993 210.881 33.8526C210.87 33.863 210.85 33.8838 210.844 33.8786C210.41 33.624 209.966 33.7851 209.516 33.8111C209.391 33.8163 209.244 33.7539 209.103 33.8267C209.051 33.8526 208.978 33.8942 208.931 33.8734C208.392 33.6812 207.89 33.9929 207.362 33.9877C206.892 33.9877 206.384 33.8474 205.971 34.2268C205.945 34.2528 205.883 34.258 205.841 34.2476C205.171 34.0865 204.596 34.5074 203.953 34.5801C203.592 34.6217 203.159 34.7568 202.793 34.9699C202.463 35.1621 202.061 35.1777 201.695 35.3076C201.13 35.5051 200.597 35.7493 200.074 36.0248C199.551 36.3002 199.039 36.6224 198.526 36.8978C196.137 38.1813 194.856 39.2102 193.13 40.9874C192.759 41.3719 192.487 41.8656 192.221 42.3437C192.027 42.6866 191.781 43.0192 191.546 43.3258C191.013 44.0221 190.699 44.8172 190.333 45.5915C190.192 45.8981 189.962 46.1267 189.732 46.3138C189.345 46.6308 189.188 47.1088 188.838 47.4414C188.545 47.722 188.378 48.1014 188.106 48.382C187.546 48.9588 186.856 49.3797 186.114 49.6915C185.403 49.9929 184.666 50.2111 183.881 50.2371C183.677 50.2423 183.51 50.1903 183.343 50.0448C182.851 49.6135 182.25 49.3693 181.649 49.1459C180.995 48.9068 180.844 48.7405 180.844 48.039C180.844 47.6441 180.844 47.2543 180.844 46.8594H180.854V46.875Z" fill="#FFB7B9"/>
</g>
<mask id="path-2-outside-1_1025_1483" maskUnits="userSpaceOnUse" x="27" y="45" width="141" height="47" fill="black">
<rect fill="white" x="27" y="45" width="141" height="47"/>
<path d="M31.0957 53.744H39.3097C39.3097 54.336 39.6057 64.03 39.6057 68.544C39.6057 74.464 39.3837 80.754 38.9397 83.048L31.0957 83.196C31.0957 82.826 31.3917 71.948 31.3917 68.1C31.3917 64.4 31.0957 54.706 31.0957 53.744ZM77.6411 52.264L85.8551 52.708C85.3371 57.222 85.5591 64.77 85.4111 69.802C85.2631 73.206 85.7071 77.35 85.1151 80.162C84.5971 82.678 82.7471 83.788 80.7491 82.382C73.1271 77.202 68.8351 72.91 61.1391 68.174C61.2871 71.06 61.3611 78.016 61.3611 80.68H53.3691C53.3691 76.092 52.9251 66.768 52.3331 58.258C52.4071 56.852 52.8511 55.076 54.4791 55.076C55.0711 55.076 55.8111 55.298 56.6991 55.816L60.5471 58.184C65.5051 61.44 72.5351 65.288 77.1971 70.912C77.1971 70.098 77.2711 69.728 77.2711 67.952C77.2711 64.03 77.2711 56.778 77.6411 52.264ZM107.391 84.602C107.983 77.646 107.983 68.248 107.687 61.366C102.951 61.366 98.0669 62.106 95.8469 62.106L95.4769 54.262C98.8069 53.004 106.207 53.078 111.091 53.078C118.861 53.078 126.113 53.078 128.851 53.744L128.185 61.81C124.929 61.588 119.305 61.366 115.901 61.366C116.345 68.248 115.901 78.534 115.531 84.898L107.391 84.602ZM145.597 79.57C149.075 79.57 150.259 76.388 150.259 73.576C150.259 69.654 148.853 63.364 147.891 58.776C144.487 58.702 140.565 58.48 139.085 58.11L139.455 50.34C140.047 50.34 144.413 50.636 147.595 50.636C153.885 50.636 159.805 49.896 162.913 49.896L163.653 57.592C162.173 58.11 158.325 58.332 156.327 58.48C157.437 63.29 158.473 68.544 158.473 73.576C158.473 81.05 154.033 87.784 145.523 87.784C140.195 87.784 135.089 84.084 133.461 79.94H133.535L140.047 75.722C141.527 77.942 143.303 79.57 145.597 79.57Z"/>
</mask>
<path d="M31.0957 53.744H39.3097C39.3097 54.336 39.6057 64.03 39.6057 68.544C39.6057 74.464 39.3837 80.754 38.9397 83.048L31.0957 83.196C31.0957 82.826 31.3917 71.948 31.3917 68.1C31.3917 64.4 31.0957 54.706 31.0957 53.744ZM77.6411 52.264L85.8551 52.708C85.3371 57.222 85.5591 64.77 85.4111 69.802C85.2631 73.206 85.7071 77.35 85.1151 80.162C84.5971 82.678 82.7471 83.788 80.7491 82.382C73.1271 77.202 68.8351 72.91 61.1391 68.174C61.2871 71.06 61.3611 78.016 61.3611 80.68H53.3691C53.3691 76.092 52.9251 66.768 52.3331 58.258C52.4071 56.852 52.8511 55.076 54.4791 55.076C55.0711 55.076 55.8111 55.298 56.6991 55.816L60.5471 58.184C65.5051 61.44 72.5351 65.288 77.1971 70.912C77.1971 70.098 77.2711 69.728 77.2711 67.952C77.2711 64.03 77.2711 56.778 77.6411 52.264ZM107.391 84.602C107.983 77.646 107.983 68.248 107.687 61.366C102.951 61.366 98.0669 62.106 95.8469 62.106L95.4769 54.262C98.8069 53.004 106.207 53.078 111.091 53.078C118.861 53.078 126.113 53.078 128.851 53.744L128.185 61.81C124.929 61.588 119.305 61.366 115.901 61.366C116.345 68.248 115.901 78.534 115.531 84.898L107.391 84.602ZM145.597 79.57C149.075 79.57 150.259 76.388 150.259 73.576C150.259 69.654 148.853 63.364 147.891 58.776C144.487 58.702 140.565 58.48 139.085 58.11L139.455 50.34C140.047 50.34 144.413 50.636 147.595 50.636C153.885 50.636 159.805 49.896 162.913 49.896L163.653 57.592C162.173 58.11 158.325 58.332 156.327 58.48C157.437 63.29 158.473 68.544 158.473 73.576C158.473 81.05 154.033 87.784 145.523 87.784C140.195 87.784 135.089 84.084 133.461 79.94H133.535L140.047 75.722C141.527 77.942 143.303 79.57 145.597 79.57Z" fill="#EDF798"/>
<path d="M31.0957 53.744V49.744H27.0957V53.744H31.0957ZM39.3097 53.744H43.3097V49.744H39.3097V53.744ZM38.9397 83.048L39.0152 87.0473L42.2517 86.9862L42.8668 83.8081L38.9397 83.048ZM31.0957 83.196H27.0957V87.2722L31.1712 87.1953L31.0957 83.196ZM31.0957 57.744H39.3097V49.744H31.0957V57.744ZM35.3097 53.744C35.3097 54.1036 35.3869 56.7941 35.4589 59.7699C35.533 62.8377 35.6057 66.3427 35.6057 68.544H43.6057C43.6057 66.2313 43.5304 62.6323 43.4565 59.5766C43.4194 58.0411 43.3823 56.6288 43.3546 55.567C43.3407 55.0349 43.3292 54.5935 43.3212 54.2668C43.3172 54.1033 43.3142 53.9724 43.3122 53.8753C43.3098 53.7631 43.3097 53.7324 43.3097 53.744H35.3097ZM35.6057 68.544C35.6057 74.5705 35.3691 80.4458 35.0126 82.2879L42.8668 83.8081C43.3983 81.0622 43.6057 74.3575 43.6057 68.544H35.6057ZM38.8642 79.0487L31.0202 79.1967L31.1712 87.1953L39.0152 87.0473L38.8642 79.0487ZM35.0957 83.196C35.0957 83.212 35.0982 83.0744 35.1073 82.694C35.1153 82.3555 35.1268 81.8873 35.1407 81.3203C35.1685 80.1882 35.2056 78.6705 35.2427 77.0434C35.3164 73.8093 35.3917 70.0787 35.3917 68.1H27.3917C27.3917 69.9693 27.319 73.6017 27.2447 76.8611C27.1726 80.028 27.0957 82.9509 27.0957 83.196H35.0957ZM35.3917 68.1C35.3917 66.1907 35.3161 62.7887 35.2425 59.7968C35.1667 56.7188 35.0957 54.1594 35.0957 53.744H27.0957C27.0957 54.2906 27.1727 57.0592 27.2449 59.9937C27.3193 63.0143 27.3917 66.3093 27.3917 68.1H35.3917ZM77.6411 52.264L77.857 48.2698L73.9723 48.0598L73.6545 51.9372L77.6411 52.264ZM85.8551 52.708L89.829 53.164L90.3134 48.9431L86.071 48.7138L85.8551 52.708ZM85.4111 69.802L89.4073 69.9757L89.4086 69.9477L89.4094 69.9196L85.4111 69.802ZM85.1151 80.162L81.2009 79.338L81.1991 79.3467L81.1973 79.3554L85.1151 80.162ZM80.7491 82.382L83.0511 79.1108L83.0244 79.092L82.9975 79.0737L80.7491 82.382ZM61.1391 68.174L63.2355 64.7674L56.7546 60.7791L57.1444 68.3789L61.1391 68.174ZM61.3611 80.68V84.68H65.3611V80.68H61.3611ZM53.3691 80.68H49.3691V84.68H53.3691V80.68ZM52.3331 58.258L48.3386 58.0478L48.3258 58.2918L48.3428 58.5356L52.3331 58.258ZM56.6991 55.816L58.7955 52.4094L58.7553 52.3846L58.7146 52.3609L56.6991 55.816ZM60.5471 58.184L62.7428 54.8405L62.6936 54.8082L62.6435 54.7774L60.5471 58.184ZM77.1971 70.912L74.1176 73.4648L81.1971 82.0051V70.912H77.1971ZM77.4252 56.2582L85.6392 56.7022L86.071 48.7138L77.857 48.2698L77.4252 56.2582ZM81.8812 52.252C81.5951 54.745 81.5222 57.9569 81.4945 61.0247C81.4659 64.2007 81.4853 67.2195 81.4128 69.6844L89.4094 69.9196C89.4849 67.3525 89.4673 64.0813 89.4942 61.0968C89.5221 58.0041 89.5971 55.185 89.829 53.164L81.8812 52.252ZM81.4149 69.6283C81.3347 71.4726 81.4131 73.602 81.4298 75.2448C81.4484 77.0675 81.3968 78.4075 81.2009 79.338L89.0293 80.986C89.4254 79.1045 89.4478 76.9665 89.4294 75.1632C89.4092 73.18 89.3395 71.5354 89.4073 69.9757L81.4149 69.6283ZM81.1973 79.3554C81.0827 79.9118 80.975 79.5507 81.5982 79.2168C81.9346 79.0366 82.3225 78.9688 82.6682 79.0094C82.9866 79.0468 83.1153 79.156 83.0511 79.1108L78.4471 85.6532C80.3814 87.0144 82.9698 87.5577 85.376 86.2687C87.5532 85.1023 88.6295 82.9282 89.0329 80.9686L81.1973 79.3554ZM82.9975 79.0737C79.3132 76.5698 76.4496 74.2931 73.4202 71.9483C70.4008 69.6113 67.269 67.2495 63.2355 64.7674L59.0427 71.5806C62.7052 73.8345 65.5675 75.9867 68.5236 78.2747C71.4696 80.5549 74.5631 83.0142 78.5008 85.6903L82.9975 79.0737ZM57.1444 68.3789C57.2866 71.1524 57.3611 78.0175 57.3611 80.68H65.3611C65.3611 78.0145 65.2876 70.9676 65.1339 67.9691L57.1444 68.3789ZM61.3611 76.68H53.3691V84.68H61.3611V76.68ZM57.3691 80.68C57.3691 75.9469 56.9168 66.5089 56.3235 57.9804L48.3428 58.5356C48.9335 67.0271 49.3691 76.2371 49.3691 80.68H57.3691ZM56.3276 58.4682C56.3379 58.273 56.3591 58.1132 56.3832 57.9998C56.4095 57.8763 56.4216 57.8906 56.3688 57.9918C56.3133 58.098 56.1361 58.3924 55.7471 58.6622C55.3178 58.96 54.8477 59.076 54.4791 59.076V51.076C51.8105 51.076 50.1042 52.706 49.278 54.2877C48.5626 55.6572 48.3872 57.1256 48.3386 58.0478L56.3276 58.4682ZM54.4791 59.076C54.2792 59.076 54.1916 59.0396 54.2418 59.0559C54.2909 59.0719 54.4368 59.1271 54.6836 59.2711L58.7146 52.3609C57.4765 51.6387 56.0308 51.076 54.4791 51.076V59.076ZM54.6027 59.2226L58.4507 61.5906L62.6435 54.7774L58.7955 52.4094L54.6027 59.2226ZM58.3514 61.5275C63.7261 65.0571 69.9556 68.4439 74.1176 73.4648L80.2766 68.3592C75.1147 62.1321 67.2841 57.8228 62.7428 54.8405L58.3514 61.5275ZM81.1971 70.912C81.1971 70.6202 81.2087 70.4526 81.2302 69.9703C81.251 69.5011 81.2711 68.9051 81.2711 67.952H73.2711C73.2711 68.7749 73.2542 69.2519 73.2381 69.6152C73.2225 69.9654 73.1971 70.3898 73.1971 70.912H81.1971ZM81.2711 67.952C81.2711 63.9669 81.2742 56.9042 81.6277 52.5908L73.6545 51.9372C73.268 56.6518 73.2711 64.0931 73.2711 67.952H81.2711ZM107.391 84.602L103.405 84.2628L103.049 88.4468L107.245 88.5994L107.391 84.602ZM107.687 61.366L111.683 61.1941L111.519 57.366H107.687V61.366ZM95.8469 62.106L91.8513 62.2945L92.0311 66.106H95.8469V62.106ZM95.4769 54.262L94.0632 50.5201L91.3444 51.5473L91.4813 54.4505L95.4769 54.262ZM128.851 53.744L132.837 54.0732L133.119 50.6655L129.796 49.8573L128.851 53.744ZM128.185 61.81L127.913 65.8007L131.847 66.069L132.171 62.1392L128.185 61.81ZM115.901 61.366V57.366H111.634L111.909 61.6235L115.901 61.366ZM115.531 84.898L115.385 88.8954L119.297 89.0376L119.524 85.1302L115.531 84.898ZM111.376 84.9412C111.988 77.7578 111.984 68.1772 111.683 61.1941L103.691 61.5379C103.982 68.3188 103.978 77.5342 103.405 84.2628L111.376 84.9412ZM107.687 57.366C105.132 57.366 102.58 57.5649 100.471 57.7516C98.2098 57.9517 96.7237 58.106 95.8469 58.106V66.106C97.19 66.106 99.2559 65.8903 101.176 65.7204C103.247 65.5371 105.505 65.366 107.687 65.366V57.366ZM99.8424 61.9175L99.4724 54.0735L91.4813 54.4505L91.8513 62.2945L99.8424 61.9175ZM96.8905 58.0039C97.8942 57.6247 99.9871 57.3338 102.894 57.1936C105.651 57.0606 108.606 57.078 111.091 57.078V49.078C108.691 49.078 105.505 49.0584 102.508 49.2029C99.6617 49.3402 96.3895 49.6413 94.0632 50.5201L96.8905 58.0039ZM111.091 57.078C114.992 57.078 118.689 57.0783 121.751 57.1598C124.957 57.2452 127.021 57.4155 127.905 57.6307L129.796 49.8573C127.943 49.4065 125.012 49.2438 121.964 49.1627C118.773 49.0777 114.959 49.078 111.091 49.078V57.078ZM124.864 53.4148L124.198 61.4808L132.171 62.1392L132.837 54.0732L124.864 53.4148ZM128.457 57.8193C125.128 57.5923 119.412 57.366 115.901 57.366V65.366C119.198 65.366 124.73 65.5837 127.913 65.8007L128.457 57.8193ZM111.909 61.6235C112.335 68.2295 111.908 78.2874 111.538 84.6658L119.524 85.1302C119.893 78.7806 120.354 68.2665 119.893 61.1085L111.909 61.6235ZM115.676 80.9006L107.536 80.6046L107.245 88.5994L115.385 88.8954L115.676 80.9006ZM147.891 58.776L151.806 57.9551L151.154 54.846L147.978 54.7769L147.891 58.776ZM139.085 58.11L135.089 57.9197L134.933 61.1952L138.115 61.9906L139.085 58.11ZM139.455 50.34V46.34H135.641L135.459 50.1497L139.455 50.34ZM162.913 49.896L166.894 49.5131L166.547 45.896H162.913V49.896ZM163.653 57.592L164.974 61.3674L167.935 60.3313L167.634 57.2091L163.653 57.592ZM156.327 58.48L156.031 54.4909L151.381 54.8354L152.429 59.3794L156.327 58.48ZM133.461 79.94V75.94H127.592L129.738 81.4026L133.461 79.94ZM133.535 79.94V83.94H134.717L135.709 83.2973L133.535 79.94ZM140.047 75.722L143.375 73.5032L141.185 70.2187L137.872 72.3647L140.047 75.722ZM145.597 83.57C148.802 83.57 151.195 81.9904 152.606 79.7768C153.881 77.7748 154.259 75.4442 154.259 73.576H146.259C146.259 74.0079 146.212 74.4192 146.128 74.7715C146.043 75.1283 145.937 75.3557 145.859 75.4782C145.789 75.5872 145.766 75.58 145.811 75.5543C145.867 75.5225 145.834 75.57 145.597 75.57V83.57ZM154.259 73.576C154.259 69.1237 152.714 62.289 151.806 57.9551L143.976 59.5969C144.991 64.439 146.259 70.1843 146.259 73.576H154.259ZM147.978 54.7769C146.322 54.7409 144.556 54.6692 143.045 54.5637C141.423 54.4506 140.407 54.3174 140.055 54.2294L138.115 61.9906C139.243 62.2726 140.927 62.4354 142.488 62.5443C144.158 62.6608 146.056 62.7371 147.804 62.7751L147.978 54.7769ZM143.08 58.3003L143.45 50.5303L135.459 50.1497L135.089 57.9197L143.08 58.3003ZM139.455 54.34C139.425 54.34 139.47 54.3401 139.667 54.3488C139.834 54.3562 140.053 54.3671 140.325 54.381C140.859 54.4084 141.573 54.446 142.364 54.4835C143.938 54.558 145.904 54.636 147.595 54.636V46.636C146.104 46.636 144.296 46.566 142.743 46.4925C141.348 46.4264 139.875 46.34 139.455 46.34V54.34ZM147.595 54.636C150.885 54.636 154.051 54.4426 156.725 54.2563C159.504 54.0627 161.542 53.896 162.913 53.896V45.896C161.176 45.896 158.7 46.0993 156.169 46.2757C153.533 46.4593 150.595 46.636 147.595 46.636V54.636ZM158.931 50.2788L159.671 57.9748L167.634 57.2091L166.894 49.5131L158.931 50.2788ZM162.331 53.8166C162.343 53.8124 162.284 53.8332 162.124 53.8687C161.973 53.9024 161.777 53.9396 161.533 53.9787C161.042 54.0572 160.446 54.129 159.789 54.1943C158.458 54.3265 157.09 54.4125 156.031 54.4909L156.622 62.4691C157.562 62.3995 159.116 62.3005 160.579 62.1552C161.897 62.0243 163.709 61.8102 164.974 61.3674L162.331 53.8166ZM152.429 59.3794C153.531 64.1525 154.473 69.0295 154.473 73.576H162.473C162.473 68.0584 161.343 62.4275 160.224 57.5806L152.429 59.3794ZM154.473 73.576C154.473 76.5626 153.582 79.1569 152.112 80.9274C150.715 82.6091 148.616 83.784 145.523 83.784V91.784C150.94 91.784 155.315 89.5919 158.266 86.0381C161.144 82.5731 162.473 78.0634 162.473 73.576H154.473ZM145.523 83.784C141.799 83.784 138.196 81.0532 137.184 78.4774L129.738 81.4026C131.982 87.1148 138.591 91.784 145.523 91.784V83.784ZM133.461 83.94H133.535V75.94H133.461V83.94ZM135.709 83.2973L142.221 79.0793L137.872 72.3647L131.36 76.5827L135.709 83.2973ZM136.719 77.9408C138.367 80.4127 141.186 83.57 145.597 83.57V75.57C145.472 75.57 145.275 75.5464 144.911 75.2746C144.497 74.9649 143.978 74.408 143.375 73.5032L136.719 77.9408Z" fill="#FF7989" mask="url(#path-2-outside-1_1025_1483)"/>
<path d="M145.892 116.94C145.892 117.47 145.896 117.885 145.892 118.296C145.888 118.517 145.974 118.618 146.199 118.614C146.593 118.606 146.987 118.64 147.377 118.603C147.77 118.565 148.067 118.263 148.438 118.151C149.049 117.967 149.499 117.523 150.001 117.179C150.478 116.858 150.856 116.387 151.254 115.961C151.486 115.714 151.7 115.426 151.925 115.195C152.139 114.978 152.274 114.672 152.518 114.522C152.847 114.32 153.23 114.436 153.59 114.556C153.961 114.683 154.254 114.956 154.572 115.154C154.884 115.348 155.112 115.692 155.491 115.826C155.588 115.864 155.675 115.953 155.54 116.077C155.439 116.17 155.484 116.226 155.615 116.234C155.69 116.237 155.776 116.024 155.832 116.226C155.866 116.349 155.933 116.488 155.825 116.63C155.322 117.261 154.745 117.829 154.231 118.449C153.654 119.144 152.904 119.623 152.199 120.157C151.888 120.393 151.464 120.523 151.081 120.68C150.721 120.83 150.339 120.856 149.979 120.964C149.499 121.11 148.929 121.162 148.427 120.905C148.288 120.834 148.153 120.834 148.014 120.841C147.373 120.875 146.784 120.658 146.181 120.486C145.566 120.31 145.056 119.989 144.688 119.507C144.463 119.212 144.216 118.92 144.025 118.588C143.867 118.311 143.601 118.102 143.387 117.855C143.035 117.444 142.851 116.958 142.648 116.461C142.386 115.815 142.442 115.169 142.517 114.548C142.588 113.962 142.607 113.345 142.832 112.77C142.941 112.493 142.948 112.175 143.057 111.88C143.267 111.32 143.413 110.74 143.571 110.165C143.698 109.709 143.968 109.317 144.1 108.857C144.231 108.394 144.538 107.983 144.771 107.549C144.936 107.239 145.149 106.948 145.262 106.623C145.374 106.294 145.614 106.055 145.791 105.797C146.278 105.09 146.811 104.407 147.459 103.835C148.04 103.327 148.622 102.822 149.357 102.534C149.589 102.445 149.735 102.213 149.998 102.116C150.436 101.955 150.853 101.746 151.336 101.768C151.479 101.776 151.621 101.78 151.76 101.768C152.334 101.724 152.836 101.94 153.365 102.116C153.71 102.232 154.036 102.359 154.359 102.527C154.914 102.818 155.412 103.173 155.84 103.629C155.971 103.771 156.091 103.925 156.308 103.958C156.38 103.969 156.466 104.048 156.503 104.119C156.665 104.433 156.957 104.691 156.89 105.105C156.856 105.307 156.867 105.52 156.89 105.726C156.935 106.197 156.65 106.555 156.511 106.966C156.357 107.43 156.072 107.822 155.806 108.211C155.558 108.577 155.285 108.936 155.022 109.298C154.711 109.728 154.392 110.146 153.999 110.498C153.86 110.621 153.916 110.819 153.77 110.916C153.249 111.264 152.896 111.779 152.461 112.213C152.33 112.344 152.109 112.302 151.978 112.463C151.61 112.919 151.048 113.121 150.583 113.438C150.046 113.808 149.439 114.219 148.685 114.122C148.449 114.092 148.205 114.107 147.965 114.122C147.429 114.148 146.946 113.939 146.447 113.805C146.274 113.76 146.271 113.857 146.278 113.947C146.316 114.414 146.143 114.877 146.023 115.284C145.839 115.897 145.959 116.484 145.881 116.958L145.892 116.94ZM153.444 104.463C153.376 104.276 153.222 104.347 153.129 104.399C152.761 104.601 152.398 104.818 152.045 105.042C151.929 105.117 151.858 105.274 151.738 105.322C151.28 105.509 150.958 105.883 150.575 106.167C149.93 106.649 149.57 107.418 148.982 107.971C148.959 107.994 148.944 108.024 148.929 108.054C148.625 108.618 148.322 109.178 148.007 109.735C147.778 110.139 147.575 110.561 147.324 110.953C147.272 111.039 147.283 111.133 147.347 111.196C147.437 111.286 147.478 111.163 147.523 111.122C147.86 110.838 148.28 110.692 148.618 110.374C149.015 110.001 149.484 109.679 149.919 109.332C150.219 109.093 150.406 108.771 150.624 108.465C150.901 108.072 151.288 107.788 151.558 107.366C151.775 107.022 152.038 106.664 152.341 106.361C152.506 106.197 152.679 106.021 152.649 105.744C152.641 105.67 152.682 105.591 152.765 105.561C153.279 105.374 153.144 104.791 153.447 104.459L153.444 104.463Z" fill="#FF8CAE"/>
<path d="M130.29 119.051C129.712 119.152 129.146 118.991 128.576 118.849C128.411 118.808 128.287 118.707 128.216 118.584C127.931 118.102 127.519 117.739 127.144 117.34C126.889 117.067 126.709 116.76 126.742 116.36C126.757 116.185 126.641 115.961 126.66 115.845C126.712 115.497 126.364 115.142 126.69 114.81C126.739 114.757 126.757 114.638 126.739 114.563C126.604 113.995 126.799 113.431 126.757 112.859C126.72 112.355 126.941 111.891 127.099 111.42C127.114 111.379 127.14 111.335 127.132 111.297C127.027 110.744 127.226 110.213 127.384 109.728C127.522 109.29 127.384 108.79 127.699 108.409C127.717 108.386 127.729 108.345 127.721 108.315C127.616 107.837 127.834 107.392 127.957 106.97C128.31 105.759 128.032 104.541 128.122 103.33C128.137 103.121 128.179 102.953 128.347 102.822C128.426 102.762 128.516 102.725 128.587 102.77C128.906 102.975 129.311 102.964 129.626 103.173C129.956 103.39 130.342 103.495 130.683 103.7C131.013 103.898 131.321 104.119 131.64 104.328C131.748 104.399 131.906 104.481 131.94 104.556C132.037 104.776 132.217 104.941 132.296 105.154C132.356 105.315 132.164 105.337 132.033 105.348C131.703 105.373 131.538 105.549 131.538 105.875C131.538 106.559 131.52 107.246 131.546 107.93C131.568 108.532 131.463 109.096 131.178 109.627C131.167 109.645 131.156 109.668 131.16 109.69C131.261 110.21 131.032 110.703 130.905 111.163C130.755 111.697 130.807 112.25 130.62 112.788C130.488 113.154 130.342 113.573 130.357 113.999C130.365 114.178 130.406 114.369 130.245 114.522C130.17 114.597 130.222 114.66 130.29 114.709C130.368 114.765 130.447 114.799 130.511 114.69C130.796 114.204 131.34 113.92 131.598 113.45C131.865 112.96 132.359 112.676 132.588 112.157C132.727 111.846 133.034 111.6 133.237 111.293C133.743 110.535 134.276 109.795 134.726 108.999C134.86 108.756 135.048 108.536 135.228 108.326C135.457 108.057 135.599 107.758 135.745 107.452C135.802 107.34 135.888 107.232 135.982 107.149C136.177 106.981 136.349 106.809 136.327 106.525C136.327 106.484 136.342 106.436 136.368 106.406C136.709 105.942 137.039 105.468 137.407 105.023C137.684 104.687 137.92 104.713 138.381 104.859C138.674 104.952 138.94 105.083 139.225 105.184C139.653 105.337 139.938 105.666 140.245 105.965C140.406 106.122 140.541 106.294 140.781 106.368C140.961 106.424 140.965 106.671 141.04 106.828C141.092 106.936 140.875 106.906 140.789 106.962C140.489 107.161 140.286 107.459 140.185 107.773C140.076 108.106 139.84 108.349 139.66 108.607C139.218 109.253 138.801 109.915 138.366 110.565C137.931 111.215 137.478 111.861 137.095 112.545C137.092 112.556 137.092 112.568 137.084 112.575C136.619 112.982 136.428 113.577 136.075 114.059C135.828 114.399 135.547 114.713 135.299 115.049C134.797 115.74 134.186 116.316 133.574 116.899C133.267 117.194 133.128 117.646 132.753 117.881C132.457 118.068 132.329 118.449 131.951 118.532C131.932 118.535 131.91 118.554 131.898 118.569C131.493 119.137 130.901 119.103 130.286 119.047L130.29 119.051Z" fill="#FF8CAE"/>
<path d="M102.534 120.441C101.961 120.542 101.47 120.251 101.046 119.791C100.776 119.496 100.502 119.201 100.232 118.909C100.041 118.704 99.9134 118.124 100.071 117.915C100.266 117.653 100.217 117.325 100.408 117.059C100.678 116.682 100.731 116.196 100.948 115.778C101.072 115.538 101.207 115.24 101.215 114.937C101.222 114.713 101.372 114.541 101.451 114.346C101.785 113.502 102.216 112.695 102.534 111.843C102.823 111.077 103.299 110.4 103.554 109.638C103.749 109.048 104.057 108.513 104.256 107.927C104.466 107.31 104.87 106.757 105.084 106.14C105.279 105.591 105.647 105.139 105.83 104.586C105.969 104.167 106.273 103.805 106.468 103.401C106.727 102.863 107 102.329 107.237 101.772C107.443 101.279 107.641 100.767 107.941 100.315C107.986 100.248 108.013 100.18 108.013 100.102C108.013 99.8514 108.058 99.6235 108.196 99.3955C108.444 98.9882 108.549 98.5136 108.744 98.0802C108.871 97.7962 109.04 97.4711 109.018 97.1049C108.999 96.8209 109.164 96.5481 109.265 96.2903C109.475 95.7596 109.678 95.2327 109.824 94.6797C109.963 94.1565 110.203 93.6558 110.405 93.1513C110.424 93.1065 110.472 93.043 110.51 93.043C110.885 93.028 111.264 92.9197 111.624 93.1177C112.126 93.398 112.632 93.6745 113.022 94.1117C113.127 94.2275 113.3 94.1977 113.423 94.3098C113.723 94.5863 113.9 94.9712 114.245 95.2028C114.406 95.3075 114.417 95.4868 114.346 95.6438C114.263 95.8194 114.08 95.7708 113.937 95.7484C113.547 95.6886 113.491 95.7634 113.386 96.1408C113.27 96.5668 113.142 96.9928 112.914 97.3814C112.887 97.4262 112.824 97.4748 112.831 97.5159C112.891 97.9307 112.569 98.2633 112.602 98.6706C112.617 98.8275 112.494 98.921 112.441 99.048C112.212 99.6085 112.025 100.188 111.785 100.741C111.657 101.04 111.631 101.369 111.444 101.649C111.222 101.981 111.252 102.419 111.027 102.751C110.682 103.263 110.607 103.895 110.326 104.418C110.049 104.93 109.771 105.445 109.486 105.957C109.243 106.395 109.036 106.85 108.811 107.295C108.635 107.643 108.41 107.99 108.301 108.353C108.178 108.771 107.889 109.096 107.799 109.53C107.735 109.844 107.57 110.157 107.39 110.43C107.139 110.804 107.049 111.234 106.854 111.626C106.682 111.97 106.479 112.31 106.37 112.676C106.224 113.166 105.954 113.592 105.77 114.062C105.557 114.615 105.365 115.183 105.088 115.714C104.968 115.942 104.78 116.163 104.81 116.454C104.825 116.622 104.668 116.708 104.612 116.854C104.368 117.474 104.207 118.117 103.997 118.745C103.851 119.189 103.644 119.604 103.611 120.082C103.596 120.28 103.419 120.445 103.176 120.449C102.992 120.452 102.804 120.449 102.534 120.449V120.441Z" fill="#FF8CAE"/>
<path d="M110.379 113.554C110.379 113.315 110.394 113.076 110.379 112.837C110.341 112.329 110.525 111.876 110.727 111.432C110.746 111.394 110.765 111.35 110.761 111.308C110.712 110.789 111.046 110.397 111.226 109.956C111.342 109.672 111.522 109.414 111.612 109.111C111.702 108.812 111.935 108.577 112.111 108.334C112.344 108.016 112.58 107.687 112.793 107.366C113.217 106.731 113.791 106.264 114.305 105.729C114.762 105.255 115.306 104.844 115.906 104.612C116.288 104.466 116.734 104.231 117.237 104.433C117.421 104.507 117.706 104.519 117.949 104.507C118.722 104.47 119.34 104.825 119.989 105.191C120.312 105.374 120.57 105.636 120.912 105.804C121.35 106.021 121.579 106.503 121.74 106.963C121.811 107.164 121.883 107.344 122.04 107.482C122.164 107.594 122.239 107.762 122.115 107.844C121.624 108.17 121.834 108.663 121.796 109.081C121.736 109.728 121.834 110.385 121.733 111.032C121.688 111.327 121.579 111.619 121.466 111.903C121.369 112.149 121.275 112.411 121.227 112.654C121.129 113.125 120.93 113.573 120.72 113.95C120.51 114.335 120.394 114.795 120.049 115.142C119.858 115.337 119.595 115.602 119.543 115.938C119.539 115.968 119.52 116.002 119.498 116.024C118.969 116.54 118.643 117.246 118.021 117.676C117.646 117.934 117.316 118.259 116.896 118.446C116.813 118.483 116.704 118.476 116.607 118.476C115.984 118.476 115.362 118.453 114.743 118.483C114.136 118.513 113.622 118.255 113.09 118.042C112.943 117.982 112.85 117.799 112.726 117.676C112.254 117.213 111.789 116.745 111.305 116.293C110.667 115.699 110.3 115 110.379 114.107C110.394 113.924 110.379 113.737 110.379 113.554ZM118.366 107.964C118.366 107.74 118.366 107.564 118.366 107.392C118.366 107.318 118.381 107.228 118.302 107.187C118.201 107.134 118.178 107.247 118.126 107.288C117.619 107.684 117.289 108.285 116.671 108.558C116.633 108.573 116.633 108.655 116.599 108.696C116.341 109.025 116.213 109.44 115.894 109.728C115.606 109.989 115.283 110.337 115.223 110.651C115.107 111.267 114.65 111.675 114.481 112.254C114.29 112.912 114.008 113.543 113.982 114.242C113.971 114.5 114.068 114.795 113.922 115.012C113.63 115.438 113.862 115.789 114.008 116.159C114.038 116.234 114.102 116.222 114.166 116.166C114.398 115.961 114.661 115.785 114.89 115.591C115.261 115.273 115.557 114.851 115.819 114.417C116.101 113.95 116.491 113.562 116.734 113.057C116.869 112.777 117.031 112.489 117.211 112.235C117.398 111.966 117.357 111.645 117.544 111.376C117.739 111.095 117.912 110.752 117.949 110.419C117.998 110.015 118.242 109.664 118.208 109.231C118.197 109.096 118.159 108.861 118.223 108.786C118.448 108.506 118.328 108.199 118.366 107.96V107.964Z" fill="#FF8CAE"/>
<g clip-path="url(#clip1_1025_1483)">
<path d="M82.2844 109.018C82.5516 109.456 82.4412 109.862 82.3059 110.322C82.1108 110.982 82.0203 111.675 81.903 112.356C81.7887 113.003 81.5095 113.601 81.1704 114.134C80.9039 114.549 80.6467 114.97 80.443 115.415C80.2338 115.879 79.862 115.937 79.5635 115.669C78.4442 114.651 76.9756 114.259 75.7386 113.442C74.8074 112.834 74.0827 111.904 72.9332 111.595C72.4316 111.458 72.2486 110.816 72.3335 110.405C72.5059 109.6 72.1641 108.842 72.2731 108.055C72.3196 107.716 72.3705 107.352 72.6357 107.195C73.5587 106.637 73.913 105.671 74.4006 104.817C74.6361 104.415 74.8099 104.256 75.2284 104.497C76.5144 105.257 77.8103 105.973 79.0263 106.868C79.795 107.444 80.5612 108.268 81.7223 108.228C82.1421 108.212 82.0935 108.749 82.2844 109.018Z" fill="#FFE196"/>
<path d="M61.3231 125.537C61.2308 124.574 61.06 123.532 61.5999 122.695C61.9594 122.134 62.5238 121.665 62.9492 121.101C63.3065 120.632 63.3659 119.952 64.0035 119.687C64.1359 119.633 64.225 119.462 64.3968 119.501C65.3328 119.769 66.2937 119.453 67.2494 119.636C67.8723 119.754 68.5257 119.643 69.0492 120.133C69.0972 120.175 69.2316 120.187 69.2924 120.153C69.9659 119.799 70.7302 120.028 71.4387 119.793C72.3753 119.481 72.8935 120.096 72.8807 121.075C72.8717 121.813 72.2649 122.488 72.674 123.252C72.7545 123.396 72.5906 123.513 72.51 123.633C72.1201 124.265 71.4924 124.753 71.3685 125.55C71.3366 125.77 71.1434 125.859 70.965 125.936C70.7245 126.04 70.5831 126.194 70.6204 126.487C70.7112 127.069 70.3071 127.132 69.9373 126.991C69.0908 126.659 68.2669 126.473 67.4002 126.915C67.2921 126.965 67.1223 126.991 67.0233 126.94C66.301 126.556 65.4655 126.72 64.7148 126.473C64.5406 126.417 64.3627 126.445 64.2099 126.527C63.8502 126.715 63.513 126.677 63.1637 126.508C62.9576 126.407 62.7473 126.333 62.4861 126.357C61.8991 126.415 61.4985 126.13 61.3231 125.537Z" fill="#FFE196"/>
<path d="M82.1309 100.025C82.112 99.6388 82.0043 99.0015 81.8427 98.4969C81.5991 97.7318 81.968 97.1774 82.0244 96.5311C82.0328 96.3724 82.0535 96.1871 82.2033 96.1388C82.9629 95.9127 83.1113 95.2188 83.3743 94.6231C83.9307 93.3605 84.3672 93.2924 85.3935 94.192C86.0559 94.7758 86.3253 95.6528 86.9907 96.2031C87.7322 96.816 87.945 97.7018 88.3106 98.5058C88.3368 98.568 88.3656 98.6463 88.4179 98.663C89.3099 99.0205 88.8999 99.7883 88.9354 100.387C88.9863 101.191 88.5282 101.916 88.5922 102.751C88.6204 103.144 88.3109 103.548 88.005 103.869C87.6761 104.202 87.4785 104.58 87.5406 105.084C87.5754 105.36 87.4606 105.792 87.2217 105.747C86.8365 105.666 86.2684 106.111 86.0467 105.433C85.4676 103.685 84.1178 102.464 83.0077 101.08C82.762 100.779 82.268 100.691 82.1471 100.022L82.1309 100.025Z" fill="#FFE196"/>
</g>
<defs>
<clipPath id="clip0_1025_1483">
<rect width="99" height="89" fill="white" transform="translate(128 24)"/>
</clipPath>
<clipPath id="clip1_1025_1483">
<rect width="30.9228" height="31.3646" fill="white" transform="translate(61.7686 128.39) rotate(-98.8706)"/>
</clipPath>
</defs>
</svg>
