<svg width="252" height="147" viewBox="0 0 252 147" fill="none" xmlns="http://www.w3.org/2000/svg">
<mask id="path-1-outside-1_1025_1448" maskUnits="userSpaceOnUse" x="86" y="61.0046" width="142" height="50" fill="black">
<rect fill="white" x="86" y="61.0046" width="142" height="50"/>
<path d="M90.457 72.7486H98.671C98.671 73.3406 98.967 83.0346 98.967 87.5486C98.967 93.4686 98.745 99.7586 98.301 102.053L90.457 102.201C90.457 101.831 90.753 90.9526 90.753 87.1046C90.753 83.4046 90.457 73.7106 90.457 72.7486ZM137.002 71.2686L145.216 71.7126C144.698 76.2266 144.92 83.7746 144.772 88.8066C144.624 92.2106 145.068 96.3546 144.476 99.1666C143.958 101.683 142.108 102.793 140.11 101.387C132.488 96.2066 128.196 91.9146 120.5 87.1786C120.648 90.0646 120.722 97.0206 120.722 99.6846H112.73C112.73 95.0966 112.286 85.7726 111.694 77.2626C111.768 75.8566 112.212 74.0806 113.84 74.0806C114.432 74.0806 115.172 74.3026 116.06 74.8206L119.908 77.1886C124.866 80.4446 131.896 84.2926 136.558 89.9166C136.558 89.1026 136.632 88.7326 136.632 86.9566C136.632 83.0346 136.632 75.7826 137.002 71.2686ZM166.752 103.607C167.344 96.6506 167.344 87.2526 167.048 80.3706C162.312 80.3706 157.428 81.1106 155.208 81.1106L154.838 73.2666C158.168 72.0086 165.568 72.0826 170.452 72.0826C178.222 72.0826 185.474 72.0826 188.212 72.7486L187.546 80.8146C184.29 80.5926 178.666 80.3706 175.262 80.3706C175.706 87.2526 175.262 97.5386 174.892 103.903L166.752 103.607ZM198.89 66.7546C203.552 65.7926 208.288 65.4966 212.802 66.6066C220.128 68.6786 223.236 74.7466 223.236 80.5926C223.236 88.0666 214.43 93.4686 206.438 93.6166C206.364 97.7606 206.216 105.827 206.068 106.789L197.854 106.493C197.854 102.423 198.15 95.7626 198.15 91.6926C198.15 83.8486 197.706 75.7826 197.04 69.5666C196.892 67.7906 197.78 67.0506 198.89 66.7546ZM215.318 79.4826C215.318 75.4126 211.026 73.4886 205.772 74.2286C205.92 75.7826 206.068 82.5166 206.438 85.2546C211.174 85.5506 215.318 82.2946 215.318 79.4826Z"/>
</mask>
<path d="M90.457 72.7486H98.671C98.671 73.3406 98.967 83.0346 98.967 87.5486C98.967 93.4686 98.745 99.7586 98.301 102.053L90.457 102.201C90.457 101.831 90.753 90.9526 90.753 87.1046C90.753 83.4046 90.457 73.7106 90.457 72.7486ZM137.002 71.2686L145.216 71.7126C144.698 76.2266 144.92 83.7746 144.772 88.8066C144.624 92.2106 145.068 96.3546 144.476 99.1666C143.958 101.683 142.108 102.793 140.11 101.387C132.488 96.2066 128.196 91.9146 120.5 87.1786C120.648 90.0646 120.722 97.0206 120.722 99.6846H112.73C112.73 95.0966 112.286 85.7726 111.694 77.2626C111.768 75.8566 112.212 74.0806 113.84 74.0806C114.432 74.0806 115.172 74.3026 116.06 74.8206L119.908 77.1886C124.866 80.4446 131.896 84.2926 136.558 89.9166C136.558 89.1026 136.632 88.7326 136.632 86.9566C136.632 83.0346 136.632 75.7826 137.002 71.2686ZM166.752 103.607C167.344 96.6506 167.344 87.2526 167.048 80.3706C162.312 80.3706 157.428 81.1106 155.208 81.1106L154.838 73.2666C158.168 72.0086 165.568 72.0826 170.452 72.0826C178.222 72.0826 185.474 72.0826 188.212 72.7486L187.546 80.8146C184.29 80.5926 178.666 80.3706 175.262 80.3706C175.706 87.2526 175.262 97.5386 174.892 103.903L166.752 103.607ZM198.89 66.7546C203.552 65.7926 208.288 65.4966 212.802 66.6066C220.128 68.6786 223.236 74.7466 223.236 80.5926C223.236 88.0666 214.43 93.4686 206.438 93.6166C206.364 97.7606 206.216 105.827 206.068 106.789L197.854 106.493C197.854 102.423 198.15 95.7626 198.15 91.6926C198.15 83.8486 197.706 75.7826 197.04 69.5666C196.892 67.7906 197.78 67.0506 198.89 66.7546ZM215.318 79.4826C215.318 75.4126 211.026 73.4886 205.772 74.2286C205.92 75.7826 206.068 82.5166 206.438 85.2546C211.174 85.5506 215.318 82.2946 215.318 79.4826Z" fill="#EDF798"/>
<path d="M90.457 72.7486V68.7486H86.457V72.7486H90.457ZM98.671 72.7486H102.671V68.7486H98.671V72.7486ZM98.301 102.053L98.3765 106.052L101.613 105.991L102.228 102.813L98.301 102.053ZM90.457 102.201H86.457V106.277L90.5325 106.2L90.457 102.201ZM90.457 76.7486H98.671V68.7486H90.457V76.7486ZM94.671 72.7486C94.671 73.1082 94.7483 75.7988 94.8202 78.7745C94.8943 81.8423 94.967 85.3473 94.967 87.5486H102.967C102.967 85.2359 102.892 81.637 102.818 78.5812C102.781 77.0458 102.744 75.6335 102.716 74.5717C102.702 74.0395 102.691 73.5981 102.683 73.2715C102.679 73.1079 102.676 72.9771 102.673 72.8799C102.671 72.7677 102.671 72.7371 102.671 72.7486H94.671ZM94.967 87.5486C94.967 93.5751 94.7304 99.4504 94.3739 101.293L102.228 102.813C102.76 100.067 102.967 93.3622 102.967 87.5486H94.967ZM98.2256 98.0533L90.3816 98.2014L90.5325 106.2L98.3765 106.052L98.2256 98.0533ZM94.457 102.201C94.457 102.217 94.4596 102.079 94.4686 101.699C94.4767 101.36 94.4882 100.892 94.5021 100.325C94.5298 99.1928 94.5669 97.6751 94.604 96.048C94.6777 92.8139 94.753 89.0834 94.753 87.1046H86.753C86.753 88.9739 86.6804 92.6064 86.6061 95.8657C86.5339 99.0327 86.457 101.956 86.457 102.201H94.457ZM94.753 87.1046C94.753 85.1953 94.6775 81.7933 94.6038 78.8015C94.528 75.7235 94.457 73.1641 94.457 72.7486H86.457C86.457 73.2952 86.534 76.0638 86.6062 78.9983C86.6806 82.0189 86.753 85.314 86.753 87.1046H94.753ZM137.002 71.2686L137.218 67.2745L133.334 67.0645L133.016 70.9419L137.002 71.2686ZM145.216 71.7126L149.19 72.1687L149.675 67.9478L145.432 67.7185L145.216 71.7126ZM144.772 88.8066L148.769 88.9804L148.77 88.9523L148.771 88.9242L144.772 88.8066ZM144.476 99.1666L140.562 98.3426L140.56 98.3513L140.559 98.36L144.476 99.1666ZM140.11 101.387L142.412 98.1154L142.386 98.0967L142.359 98.0783L140.11 101.387ZM120.5 87.1786L122.597 83.772L116.116 79.7838L116.506 87.3835L120.5 87.1786ZM120.722 99.6846V103.685H124.722V99.6846H120.722ZM112.73 99.6846H108.73V103.685H112.73V99.6846ZM111.694 77.2626L107.7 77.0524L107.687 77.2964L107.704 77.5402L111.694 77.2626ZM116.06 74.8206L118.157 71.414L118.117 71.3893L118.076 71.3655L116.06 74.8206ZM119.908 77.1886L122.104 73.8452L122.055 73.8129L122.005 73.782L119.908 77.1886ZM136.558 89.9166L133.479 92.4694L140.558 101.01V89.9166H136.558ZM136.787 75.2628L145.001 75.7068L145.432 67.7185L137.218 67.2745L136.787 75.2628ZM141.243 71.2566C140.956 73.7496 140.883 76.9615 140.856 80.0294C140.827 83.2053 140.847 86.2241 140.774 88.689L148.771 88.9242C148.846 86.3572 148.829 83.086 148.856 80.1014C148.883 77.0088 148.958 74.1896 149.19 72.1687L141.243 71.2566ZM140.776 88.6329C140.696 90.4773 140.774 92.6067 140.791 94.2495C140.81 96.0721 140.758 97.4121 140.562 98.3426L148.391 99.9907C148.787 98.1091 148.809 95.9712 148.791 94.1678C148.771 92.1846 148.701 90.54 148.769 88.9804L140.776 88.6329ZM140.559 98.36C140.444 98.9164 140.336 98.5553 140.96 98.2215C141.296 98.0413 141.684 97.9735 142.029 98.0141C142.348 98.0515 142.477 98.1606 142.412 98.1154L137.808 104.658C139.743 106.019 142.331 106.562 144.737 105.273C146.915 104.107 147.991 101.933 148.394 99.9732L140.559 98.36ZM142.359 98.0783C138.674 95.5744 135.811 93.2977 132.781 90.9529C129.762 88.616 126.63 86.2542 122.597 83.772L118.404 90.5853C122.067 92.8391 124.929 94.9913 127.885 97.2793C130.831 99.5596 133.924 102.019 137.862 104.695L142.359 98.0783ZM116.506 87.3835C116.648 90.1571 116.722 97.0221 116.722 99.6846H124.722C124.722 97.0191 124.649 89.9722 124.495 86.9738L116.506 87.3835ZM120.722 95.6846H112.73V103.685H120.722V95.6846ZM116.73 99.6846C116.73 94.9515 116.278 85.5135 115.685 76.985L107.704 77.5402C108.295 86.0317 108.73 95.2417 108.73 99.6846H116.73ZM115.689 77.4729C115.699 77.2776 115.72 77.1178 115.745 77.0045C115.771 76.8809 115.783 76.8952 115.73 76.9965C115.675 77.1027 115.497 77.3971 115.108 77.6669C114.679 77.9647 114.209 78.0806 113.84 78.0806V70.0806C111.172 70.0806 109.466 71.7107 108.639 73.2923C107.924 74.6618 107.749 76.1303 107.7 77.0524L115.689 77.4729ZM113.84 78.0806C113.641 78.0806 113.553 78.0442 113.603 78.0605C113.652 78.0765 113.798 78.1318 114.045 78.2758L118.076 71.3655C116.838 70.6433 115.392 70.0806 113.84 70.0806V78.0806ZM113.964 78.2273L117.812 80.5953L122.005 73.782L118.157 71.414L113.964 78.2273ZM117.713 80.5321C123.087 84.0618 129.317 87.4486 133.479 92.4694L139.638 87.3639C134.476 81.1367 126.645 76.8275 122.104 73.8452L117.713 80.5321ZM140.558 89.9166C140.558 89.6248 140.57 89.4572 140.592 88.975C140.612 88.5058 140.632 87.9098 140.632 86.9566H132.632C132.632 87.7795 132.616 88.2565 132.599 88.6198C132.584 88.9701 132.558 89.3945 132.558 89.9166H140.558ZM140.632 86.9566C140.632 82.9715 140.636 75.9088 140.989 71.5954L133.016 70.9419C132.629 75.6564 132.632 83.0978 132.632 86.9566H140.632ZM166.752 103.607L162.767 103.267L162.411 107.451L166.607 107.604L166.752 103.607ZM167.048 80.3706L171.044 80.1988L170.88 76.3706H167.048V80.3706ZM155.208 81.1106L151.213 81.2991L151.392 85.1106H155.208V81.1106ZM154.838 73.2666L153.425 69.5247L150.706 70.5519L150.843 73.4551L154.838 73.2666ZM188.212 72.7486L192.199 73.0778L192.48 69.6701L189.158 68.862L188.212 72.7486ZM187.546 80.8146L187.274 84.8054L191.208 85.0736L191.533 81.1438L187.546 80.8146ZM175.262 80.3706V76.3706H170.996L171.27 80.6282L175.262 80.3706ZM174.892 103.903L174.747 107.9L178.658 108.042L178.885 104.135L174.892 103.903ZM170.738 103.946C171.349 96.7625 171.345 87.1818 171.044 80.1988L163.052 80.5425C163.344 87.3235 163.339 96.5388 162.767 103.267L170.738 103.946ZM167.048 76.3706C164.494 76.3706 161.942 76.5695 159.832 76.7562C157.571 76.9563 156.085 77.1106 155.208 77.1106V85.1106C156.551 85.1106 158.617 84.895 160.537 84.7251C162.609 84.5418 164.867 84.3706 167.048 84.3706V76.3706ZM159.204 80.9222L158.834 73.0782L150.843 73.4551L151.213 81.2991L159.204 80.9222ZM156.252 77.0085C157.256 76.6293 159.348 76.3384 162.255 76.1982C165.012 76.0653 167.968 76.0826 170.452 76.0826V68.0826C168.053 68.0826 164.866 68.063 161.87 68.2075C159.023 68.3448 155.751 68.6459 153.425 69.5247L156.252 77.0085ZM170.452 76.0826C174.354 76.0826 178.051 76.0829 181.113 76.1645C184.318 76.2498 186.382 76.4201 187.267 76.6353L189.158 68.862C187.304 68.4112 184.373 68.2485 181.326 68.1673C178.135 68.0823 174.321 68.0826 170.452 68.0826V76.0826ZM184.226 72.4195L183.56 80.4855L191.533 81.1438L192.199 73.0778L184.226 72.4195ZM187.818 76.8239C184.489 76.5969 178.773 76.3706 175.262 76.3706V84.3706C178.559 84.3706 184.091 84.5884 187.274 84.8054L187.818 76.8239ZM171.27 80.6282C171.697 87.2341 171.27 97.292 170.899 103.67L178.885 104.135C179.255 97.7853 179.716 87.2711 179.254 80.1131L171.27 80.6282ZM175.038 99.9053L166.898 99.6093L166.607 107.604L174.747 107.9L175.038 99.9053ZM198.89 66.7546L198.082 62.8372L197.97 62.8603L197.86 62.8897L198.89 66.7546ZM212.802 66.6066L213.891 62.7576L213.824 62.7388L213.757 62.7223L212.802 66.6066ZM206.438 93.6166L206.364 89.6173L202.508 89.6887L202.439 93.5452L206.438 93.6166ZM206.068 106.789L205.924 110.786L209.481 110.914L210.022 107.397L206.068 106.789ZM197.854 106.493H193.854V110.351L197.71 110.49L197.854 106.493ZM197.04 69.5666L193.054 69.8988L193.058 69.9458L193.063 69.9928L197.04 69.5666ZM205.772 74.2286L205.214 70.2677L201.428 70.8011L201.79 74.6079L205.772 74.2286ZM206.438 85.2546L202.474 85.7903L202.914 89.0422L206.189 89.2468L206.438 85.2546ZM199.699 70.6721C204.027 69.7789 208.116 69.5734 211.847 70.4909L213.757 62.7223C208.46 61.4198 203.077 61.8064 198.082 62.8372L199.699 70.6721ZM211.714 70.4557C216.984 71.9464 219.236 76.1652 219.236 80.5926H227.236C227.236 73.328 223.272 65.4109 213.891 62.7576L211.714 70.4557ZM219.236 80.5926C219.236 82.633 218.038 84.7771 215.498 86.6052C212.967 88.4267 209.559 89.5582 206.364 89.6173L206.512 97.616C211.31 97.5271 216.301 95.8836 220.171 93.0986C224.031 90.3202 227.236 86.0262 227.236 80.5926H219.236ZM202.439 93.5452C202.402 95.6182 202.346 98.6584 202.282 101.298C202.25 102.62 202.216 103.827 202.181 104.758C202.141 105.829 202.108 106.226 202.115 106.18L210.022 107.397C210.103 106.87 210.144 105.898 210.175 105.057C210.212 104.075 210.247 102.827 210.28 101.493C210.345 98.8239 210.401 95.7591 210.438 93.6881L202.439 93.5452ZM206.212 102.791L197.998 102.495L197.71 110.49L205.924 110.786L206.212 102.791ZM201.854 106.493C201.854 104.525 201.926 101.906 202.001 99.2029C202.074 96.5406 202.15 93.7952 202.15 91.6926H194.15C194.15 93.6601 194.078 96.2797 194.004 98.9823C193.93 101.645 193.854 104.39 193.854 106.493H201.854ZM202.15 91.6926C202.15 83.7169 201.7 75.5082 201.017 69.1405L193.063 69.9928C193.713 76.0571 194.15 83.9804 194.15 91.6926H202.15ZM201.026 69.2345C201.013 69.0685 201.077 69.5087 200.661 70.0477C200.285 70.5355 199.874 70.632 199.921 70.6196L197.86 62.8897C196.796 63.1733 195.386 63.7878 194.325 65.1636C193.225 66.5906 192.92 68.2888 193.054 69.8988L201.026 69.2345ZM219.318 79.4826C219.318 75.7548 217.226 72.9894 214.357 71.5012C211.672 70.1083 208.383 69.8215 205.214 70.2677L206.33 78.1895C208.416 77.8958 209.899 78.201 210.674 78.6026C211.031 78.7879 211.168 78.9543 211.217 79.0292C211.254 79.0848 211.318 79.1998 211.318 79.4826H219.318ZM201.79 74.6079C201.852 75.2544 201.918 77.1245 202.026 79.4808C202.126 81.6511 202.261 84.2103 202.474 85.7903L210.402 84.719C210.246 83.5609 210.122 81.3842 210.018 79.1145C209.922 77.0308 209.841 74.7569 209.754 73.8494L201.79 74.6079ZM206.189 89.2468C209.521 89.4551 212.622 88.4236 214.933 86.8216C217.074 85.3378 219.318 82.7639 219.318 79.4826H211.318C211.318 79.2047 211.413 79.1766 211.265 79.3988C211.125 79.6095 210.842 79.9233 210.375 80.2467C209.431 80.9016 208.092 81.3502 206.688 81.2624L206.189 89.2468Z" fill="#FF7989" mask="url(#path-1-outside-1_1025_1448)"/>
<path d="M19 53.2799C19.2137 52.6375 19.061 51.965 19.1145 51.3151C19.1297 51.096 19.0763 50.8542 19.2747 50.6803C19.4273 50.5443 19.3587 50.4385 19.2442 50.3025C19 50.0078 19 49.5997 19.1831 49.3428C19.435 48.9952 19.3739 48.6325 19.4426 48.2698C19.6028 47.431 19.702 46.5695 20.0683 45.7685C20.1141 45.6702 20.1294 45.5493 20.137 45.436C20.1523 44.6123 20.572 43.9246 20.8162 43.169C20.9764 42.6702 21.2817 42.1942 21.2817 41.6425C21.2817 41.1891 21.6098 40.8642 21.7548 40.4637C22.0295 39.7307 22.4263 39.0355 22.8155 38.3478C22.9605 38.0984 23.2504 37.9322 23.4183 37.6904C24.0593 36.7609 24.9369 36.0128 25.5779 35.1211C26.1197 34.3579 26.7149 33.6853 27.4093 33.1185C28.3708 32.3251 29.2789 31.4561 30.3549 30.8062C31.118 30.3452 31.8887 29.9447 32.7663 29.7105C33.2089 29.5896 33.6515 29.378 34.1017 29.2268C34.7808 28.9926 35.5058 28.8792 36.1392 28.5845C36.8946 28.2369 37.8409 28.577 38.3674 28.1991C39.1458 27.6399 40.092 28.184 40.7712 27.5568C40.9009 27.4359 41.2137 27.4964 41.4427 27.4964C44.5714 27.4964 47.7077 27.519 50.8364 27.4737C51.424 27.4737 51.8895 27.6928 52.3168 27.9498C53.2936 28.5392 54.2245 29.1966 55.1326 29.8918C55.7889 30.3906 56.5367 30.8289 57.3227 31.184C57.9942 31.4863 58.6963 31.7961 59.3068 32.242C59.8867 32.6651 60.5277 32.9976 61.1382 33.3755C61.2298 33.4359 61.3366 33.4964 61.4053 33.5795C62.0387 34.3276 62.8933 34.7735 63.7175 35.2647C63.748 35.2873 63.8014 35.2949 63.809 35.3251C64.2059 36.2092 65.1368 36.5417 65.816 37.1236C66.5943 37.7962 67.304 38.5745 68.1358 39.1413C68.9371 39.6853 69.5475 40.4108 70.303 40.9549C71.1119 41.5367 71.8445 42.1942 72.6228 42.8138C72.7983 42.708 72.7831 42.5115 72.6915 42.4284C72.3099 42.0506 72.4015 41.5896 72.4015 41.1438C72.4015 38.0455 72.4015 34.9397 72.3863 31.8415C72.3863 30.9724 72.7602 30.2092 72.9586 29.3931C73.0883 28.849 73.2791 28.3276 73.5385 27.8515C73.9201 27.1336 74.0345 26.3251 74.4466 25.6147C74.6832 25.2067 74.6984 24.6853 74.996 24.2545C75.4844 23.5442 75.6294 22.6676 75.9575 21.8817C76.3238 20.99 76.8504 20.1588 77.1403 19.252C77.644 17.6726 78.4758 16.2898 79.3152 14.8842C79.8188 14.0379 80.3454 13.1991 80.8719 12.3678C81.2687 11.7331 81.841 11.2041 82.0623 10.4635C82.07 10.4257 82.0928 10.3955 82.1157 10.3653C83.3367 8.85395 84.4508 7.25192 85.8396 5.86149C86.3128 5.39297 86.8546 5.00002 87.3124 4.50884C87.7626 4.02521 88.3655 3.65493 89.0904 3.67004C89.4186 3.6776 89.5788 3.41311 89.823 3.29221C90.5632 2.93704 91.3797 2.78591 92.0894 2.34762C92.4939 2.09825 92.9975 2.09069 93.4477 1.89422C94.0887 1.61462 94.6916 1.24434 95.3478 0.98741C95.9812 0.738039 96.6069 0.307306 97.2861 0.397987C98.4307 0.556678 99.4457 -0.100756 100.567 0.0201512C101.094 0.0806049 101.674 -0.0856427 102.162 0.0654915C103.047 0.329976 103.986 0.201512 104.81 0.450884C105.566 0.677585 106.42 0.783379 107.077 1.41059C107.336 1.65996 107.954 1.5995 108.366 1.84888C108.9 2.17381 109.496 2.35518 109.992 2.80102C110.595 3.35266 111.381 3.70027 112.052 4.16879C112.983 4.82622 113.945 5.46854 114.692 6.37535C115.578 7.4484 116.371 8.58191 117.233 9.67007C117.951 10.5844 118.462 11.6424 119.034 12.6399C119.393 13.2671 119.79 13.9472 119.981 14.6953C120.133 15.2923 120.431 15.8741 120.759 16.3955C120.95 16.6978 121.003 16.9774 121.003 17.2948C121.003 17.5819 120.996 17.8615 121.247 18.0731C121.324 18.1411 121.377 18.2772 121.369 18.383C121.324 19.1462 121.682 19.849 121.873 20.5442C122.056 21.2016 121.911 21.98 122.423 22.5467C122.453 22.5845 122.468 22.6525 122.468 22.7054C122.461 23.7331 122.827 24.7155 123.002 25.713C123.17 26.6878 123.079 27.6853 123.338 28.5996C123.636 29.6349 123.567 30.7533 124.04 31.713C124.307 32.2495 124.33 32.7483 124.323 33.2848C124.315 33.6929 124.666 33.9271 124.704 34.3276C124.78 35.1966 124.681 36.0732 124.773 36.9347C124.864 37.7886 125.04 38.6349 125.368 39.4435C125.544 39.8743 125.437 40.3428 125.46 40.7886C125.475 41.106 125.429 41.4309 125.696 41.6879C125.826 41.8088 125.788 42.0052 125.818 42.1715C125.902 42.7307 125.597 43.3428 126.07 43.8491C126.139 43.9246 126.055 44.0229 125.979 44.0833C125.872 44.1665 125.849 44.2496 125.933 44.3705C126.375 45.0204 126.345 45.7383 126.284 46.4864C126.223 47.2723 126.062 48.1413 126.322 48.8516C126.688 49.8793 126.467 50.8844 126.604 51.8894C126.658 52.2899 126.581 52.6829 126.879 53.0683C127.07 53.3101 127.039 53.6955 126.757 53.9977C126.131 54.6552 125.383 55.101 124.567 55.4713C124.483 55.5091 124.399 55.562 124.346 55.6376C124.063 56.0078 123.613 55.9776 123.369 55.7887C122.835 55.3655 122.247 55.3957 121.682 55.4637C120.957 55.5469 120.408 55.0103 119.721 55.0406C119.553 55.0406 119.485 54.829 119.515 54.6854C119.675 53.7333 119.225 52.8567 119.141 51.9348C119.019 50.6728 119.088 49.4033 119.088 48.1413C119.088 47.6274 119.225 47.0834 118.836 46.63C118.813 46.5997 118.775 46.5468 118.79 46.5317C119.179 46.0103 118.561 45.5418 118.714 45.0204C118.95 44.1967 118.279 43.4788 118.37 42.6627C118.5 41.5141 117.821 40.4486 118.004 39.2924C117.447 38.5367 117.813 37.645 117.646 36.8365C117.439 35.8465 117.523 34.781 117.18 33.8742C116.905 33.1563 117.111 32.3327 116.577 31.6979C116.501 31.6072 116.547 31.4032 116.531 31.252C116.478 30.6928 116.394 30.1336 116.287 29.582C116.135 28.8037 115.7 28.0631 115.768 27.2621C115.868 26.1059 115.173 25.048 115.387 23.8918C114.86 23.3553 115.249 22.5467 114.807 21.9573C114.7 21.8213 114.807 21.4585 114.784 21.1789C114.715 20.5669 114.334 20.0757 114.303 19.4636C114.25 18.6323 113.853 17.8842 113.639 17.0908C113.38 16.1537 112.678 15.4283 112.518 14.4686C112.479 14.2343 112.319 14.0756 112.144 13.9169C111.877 13.6751 111.67 13.3955 111.716 12.9875C111.762 12.587 111.464 12.2016 111.274 12.0051C110.808 11.5215 110.465 10.9547 110.175 10.4031C109.854 9.79854 109.267 9.39803 109.03 8.73304C108.931 8.43833 108.588 8.22674 108.382 7.96226C107.977 7.4484 107.611 6.91187 107.183 6.41313C106.726 5.88416 106.016 5.68769 105.489 5.24184C104.887 4.72798 104.162 4.3577 103.498 3.92697C102.689 3.40556 101.949 2.53654 100.835 2.68011C100.277 2.75568 99.7509 3.03528 99.2015 3.17886C98.6673 3.32243 98.2858 3.82118 97.6829 3.77584C97.3472 3.75317 97.1487 4.03277 96.8893 4.16123C96.1338 4.53151 95.3097 4.81866 94.5389 5.06803C93.1501 5.51388 92.4481 6.62472 91.5552 7.53152C91.0592 8.03027 90.5022 8.58191 90.1969 9.21667C89.7162 10.2217 88.5715 10.7809 88.4189 11.9749C88.4189 11.99 88.4189 12.0202 88.396 12.0278C87.8313 12.4056 87.7169 13.131 87.2438 13.5542C86.5646 14.1588 86.267 14.9824 85.8778 15.7381C85.6107 16.252 85.1986 16.66 84.9697 17.2041C84.8705 17.4384 84.695 17.65 84.6874 17.9371C84.6874 18.3678 84.3745 18.6777 84.2295 19.0631C83.9319 19.8716 83.5275 20.65 83.1459 21.4132C82.6499 22.4107 82.3599 23.4837 81.8639 24.4812C81.551 25.1084 81.284 25.7885 81.0398 26.4611C80.9253 26.7785 80.7574 27.1034 80.5895 27.3377C80.2385 27.8289 80.4903 28.5241 79.9333 28.9095C79.8493 28.9624 79.8799 29.1966 79.8799 29.3478C79.8799 29.9069 79.6128 30.451 79.8417 31.0253C79.9104 31.1991 79.8951 31.441 79.6891 31.5921C79.5823 31.6752 79.5517 31.7886 79.6586 31.8792C79.9714 32.1513 79.8722 32.4007 79.6357 32.6576C79.5975 32.6954 79.5594 32.7785 79.5746 32.8087C79.9714 33.4057 79.3152 33.9725 79.5212 34.577C79.5975 34.7961 79.4983 35.0682 79.7272 35.2495C79.8036 35.31 79.8646 35.4233 79.8036 35.4989C79.2694 36.1941 79.6204 36.9951 79.5441 37.7433C79.5059 38.0984 79.5136 38.4611 79.5441 38.8239C79.5899 39.4435 79.5365 40.0405 79.7959 40.6828C80.0477 41.2874 79.8646 42.0581 79.8799 42.7609C79.8799 43.1161 79.8799 43.441 80.1469 43.766C80.4293 44.1211 80.2309 44.6123 80.2996 45.0355C80.3759 45.504 80.3301 45.965 80.5895 46.441C80.7956 46.8264 80.6582 47.4007 80.6735 47.8919C80.6811 48.2622 80.6735 48.6098 80.9253 48.9574C81.1313 49.2446 81.139 49.6753 80.8108 49.9927C80.3759 50.4159 79.9867 50.8768 79.5136 51.2471C79.2083 51.4889 78.7963 51.6249 78.4224 51.7761C78.2621 51.8365 78.1095 51.8819 77.9874 52.0103C77.8577 52.1464 77.6287 52.1917 77.5066 52.101C76.7512 51.5267 75.8736 51.7534 75.08 51.8139C73.9277 51.9045 73.4164 51.1791 72.8746 50.431C72.3023 49.6451 71.791 48.8214 70.8143 48.4587C70.7761 48.4436 70.7151 48.4285 70.7151 48.4058C70.6082 47.6652 69.807 47.6652 69.3873 47.2269C69.0363 46.8642 68.5097 46.5695 68.0061 46.3277C67.9221 46.2899 67.7924 46.305 67.739 46.2446C67.0751 45.4813 66.0297 45.1715 65.4344 44.3252C65.2131 44.0153 64.9384 43.7886 64.5492 43.6904C64.2211 43.6073 64.0456 43.305 63.8396 43.0632C63.2825 42.4133 62.4202 42.1564 61.8631 41.5292C61.4587 41.0758 60.8406 40.8793 60.5048 40.4259C59.8867 39.6022 59.0473 39.0506 58.2842 38.4309C57.544 37.8264 56.8954 37.0556 56.0789 36.6249C55.3234 36.2319 54.9266 35.4233 54.0414 35.1966C53.6293 35.0909 53.3546 34.5694 52.8739 34.373C51.7521 33.912 50.8211 33.1034 49.6841 32.6349C49.2339 32.446 48.8447 32.0304 48.3792 31.7961C47.6161 31.4183 46.9904 30.8742 46.4028 30.2697C46.2807 30.1412 46.0747 30.1865 45.9068 30.1865C44.3424 30.1865 42.7552 30.0505 41.2137 30.247C40.3896 30.3528 39.512 30.4888 38.6726 30.776C38.1003 30.9724 37.5127 31.2823 36.8412 31.2445C36.2918 31.2143 35.8644 31.5845 35.3913 31.8264C34.4985 32.2798 33.9185 33.0732 33.1631 33.6702C32.255 34.3881 31.7285 35.4611 30.7288 36.0657C30.6678 36.9271 29.8131 37.2747 29.4621 37.9926C29.0576 38.8239 28.6532 39.6778 28.1801 40.4788C28.1266 40.5695 28.0732 40.6904 28.0732 40.7962C28.0732 41.6199 27.6383 42.3 27.3559 43.033C27.3254 43.101 27.2949 43.1765 27.2949 43.2521C27.2949 44.1362 26.9896 44.9448 26.6233 45.7383C26.6004 45.7912 26.6004 45.8516 26.5928 45.9045C26.3639 47.5745 26.0968 49.237 26.2265 50.9297C26.2418 51.1715 26.2265 51.4209 26.2265 51.6703C26.2265 51.9952 26.2113 52.305 26.4631 52.5771C26.5547 52.6753 26.6004 52.8718 26.5699 53.0003C26.402 53.8693 26.7073 54.7005 27.0049 55.4411C27.2033 55.9474 27.0965 56.567 27.5314 56.9902C27.6611 57.1111 27.5848 57.3151 27.6077 57.4814C27.6611 57.965 27.684 58.4184 27.9359 58.9096C28.1572 59.3555 28.2564 59.9751 28.4624 60.4587C28.7371 61.1162 28.6532 61.8341 29.0195 62.4688C29.2408 62.8542 29.3018 63.3681 29.4544 63.8215C29.6452 64.3731 29.8741 64.887 30.1641 65.3857C30.2328 65.5066 30.2328 65.6729 30.2557 65.824C30.3396 66.4663 30.6143 67.0255 30.889 67.5998C31.0875 68.0154 31.1332 68.5066 31.3774 68.9374C31.6064 69.3303 31.8582 69.7459 31.9421 70.1842C32.1024 70.9626 32.5602 71.5898 32.9036 72.2774C33.3462 73.1616 33.7125 74.0759 34.2162 74.9374C34.6282 75.6477 35.0327 76.3807 35.4295 77.1062C35.4676 77.1742 35.4676 77.2724 35.5134 77.3102C35.9484 77.5974 36.101 78.0508 36.3376 78.4815C36.8717 79.4412 37.6272 80.2724 38.2148 81.2019C38.5963 81.8064 39.1076 82.2372 39.5349 82.7586C40.237 83.5974 40.8093 84.542 41.6716 85.2523C41.809 85.3657 41.9158 85.479 42.0989 85.4941C42.3431 85.5168 42.4729 85.6528 42.5034 85.8946C42.5186 86.0231 42.5339 86.1667 42.6636 86.2422C43.1978 86.5369 43.6022 86.9979 44.1059 87.338C44.1517 87.3682 44.228 87.3833 44.2432 87.4286C44.6172 88.3959 45.6016 88.8266 46.3112 89.4161C47.3262 90.2624 48.3182 91.139 49.272 92.0533C50.0962 92.8392 51.0501 93.4665 51.92 94.1843C52.561 94.7133 53.1257 95.3632 53.8277 95.7939C55.0563 96.5496 55.972 97.6982 57.2693 98.3556C57.3227 98.3783 57.399 98.3934 57.4219 98.4312C57.8187 99.2322 58.8565 99.3456 59.2839 100.162C59.4441 100.479 59.5662 100.766 59.5815 101.099C59.5968 101.393 59.6654 101.597 59.9783 101.696C60.3598 101.817 60.3598 102.126 60.1309 102.361C59.4136 103.101 58.6658 103.819 57.9179 104.537C57.7653 104.681 57.5593 104.658 57.3761 104.658C56.6665 104.658 55.9644 104.658 55.2547 104.658C54.8808 104.658 54.5374 104.643 54.1864 104.915C53.782 105.225 52.7823 104.628 52.8204 104.106C52.8662 103.487 52.6373 103.086 52.1413 102.731C51.6987 102.414 51.4469 101.877 50.9585 101.613C50.3556 101.288 49.9359 100.706 49.3865 100.388C48.7989 100.056 48.3945 99.4816 47.8603 99.2398C46.9293 98.8166 46.4791 97.8645 45.655 97.4715C44.7393 97.0332 44.3196 96.0508 43.3428 95.741C43.0681 95.6579 43.2131 95.2272 42.9078 95.0609C42.2363 94.6906 41.664 94.1692 41.1069 93.6403C41.0077 93.5496 40.9085 93.4665 40.8169 93.3682C40.4659 92.9904 40.153 92.6277 39.6036 92.4312C39.1305 92.2649 38.8024 91.7133 38.4056 91.3355C38.3674 91.2977 38.3598 91.207 38.314 91.1919C37.3372 90.8216 37.0625 89.7486 36.246 89.1894C35.8415 88.9098 35.4982 88.5244 35.0479 88.275C34.1398 87.7687 33.827 86.741 33.0944 86.0684C32.4458 85.4715 31.8429 84.8216 31.4156 84.0432C30.973 83.2422 30.1717 82.6452 29.9047 81.7687C29.7139 81.1566 28.9966 80.8845 29.0271 80.1893C29.0271 80.1742 29.0118 80.1515 28.9966 80.144C28.0885 79.615 27.768 78.6704 27.3864 77.8089C26.9973 76.9324 26.5165 76.1011 26.0815 75.2472C25.5855 74.2573 25.2574 73.1993 24.7309 72.2245C24.5096 71.8089 24.5706 71.2951 24.273 70.8719C23.7846 70.1767 23.693 69.2925 23.2276 68.5671C22.9834 68.1817 23.0368 67.6603 22.7926 67.2144C22.3347 66.3832 22.2279 65.4235 21.9379 64.5318C21.6251 63.5645 21.3885 62.5973 21.2359 61.5998C21.1901 61.2824 20.9841 60.9575 20.8467 60.6401C20.427 59.7106 20.1523 58.7585 20.1523 57.7459C20.1523 57.3303 20.0149 57.0053 19.7555 56.7257C19.4884 56.431 19.435 56.1136 19.4426 55.7433C19.4579 55.1917 19.4273 54.6476 19.4426 54.096C19.4426 53.7862 19.3587 53.5821 19 53.5821V53.2421L19 53.2799Z" fill="#D6E8EA"/>
<path d="M123.697 135C123.629 134.637 123.341 134.674 123.076 134.674C122.069 134.674 121.07 134.674 120.063 134.674C119.42 134.674 118.89 134.415 118.405 134.037C118.171 133.852 117.86 133.733 117.626 133.659C116.543 133.304 115.801 132.541 115.037 131.807C114.658 131.444 114.113 131.444 113.742 131.089C113.621 130.97 113.432 130.911 113.288 130.785C112.728 130.304 111.993 130.207 111.312 130.015C110.843 129.881 110.381 129.726 110.033 129.407C109.775 129.163 109.427 129.148 109.14 129.015C108.027 128.489 107.156 127.696 106.286 126.881C106.021 126.637 105.763 126.4 105.37 126.392C105.264 126.392 105.082 126.34 105.059 126.281C104.923 125.792 104.454 125.681 104.098 125.452C103.121 124.814 102.319 123.977 101.426 123.259C100.691 122.674 99.8662 121.992 98.7534 122.059C98.3371 122.081 98.004 121.785 97.7012 121.607C96.9669 121.185 96.2326 120.94 95.3848 120.992C95.2561 121 95.1047 121 95.029 120.866C94.9457 120.718 95.0593 120.629 95.1501 120.533C95.7633 119.925 96.3992 119.407 97.2319 119.044C97.8602 118.77 98.5339 118.94 99.0638 118.696C100.207 118.17 101.365 118.518 102.508 118.407C102.735 118.385 102.932 118.451 103.136 118.592C103.863 119.088 104.628 119.636 105.461 119.777C107.255 120.081 108.345 121.325 109.616 122.363C110.396 123 111.312 123.474 112.077 124.126C113.227 125.111 114.582 125.829 115.71 126.844C116.021 127.118 116.641 127.066 117.035 127.333C117.747 127.822 118.632 127.881 119.389 128.296C119.889 128.57 120.51 128.622 120.888 129.133C120.949 129.222 121.146 129.2 121.259 129.118C121.395 129.015 121.236 128.933 121.221 128.844C121.168 128.429 121.32 127.992 121.479 127.681C121.819 126.985 121.971 126.2 122.44 125.555C122.463 125.526 122.493 125.489 122.493 125.459C122.387 124.777 122.978 124.259 122.917 123.563C122.879 123.081 123.174 122.592 123.333 122.125C123.56 121.444 123.636 120.762 123.757 120.074C123.833 119.666 124.227 119.296 124.613 119.125C125.551 118.718 126.513 118.303 127.588 118.392C127.762 118.407 127.921 118.348 128.042 118.214C128.148 118.088 128.345 118.014 128.451 118.088C128.882 118.414 129.246 118.148 129.639 118.029C130.192 117.866 130.457 118.436 130.911 118.57C131.032 118.607 131.032 118.948 130.896 119.074C130.601 119.34 130.684 119.681 130.638 119.999C130.555 120.585 130.321 121.133 130.086 121.674C130.025 121.807 129.934 121.933 129.95 122.081C130.018 122.8 129.669 123.377 129.344 123.97C129.299 124.051 129.268 124.14 129.268 124.229C129.23 125.029 128.784 125.696 128.564 126.437C128.466 126.77 128.171 127.074 128.383 127.54C128.481 127.748 128.095 128.163 127.951 128.496C127.709 129.059 127.482 129.622 127.292 130.215C127.126 130.748 127.111 131.355 126.763 131.83C126.588 132.067 126.641 132.326 126.641 132.585C126.641 132.911 126.573 133.155 126.18 133.23C125.741 133.311 125.536 133.718 125.233 133.985C125.052 134.141 124.885 134.274 124.651 134.281C124.166 134.296 123.969 134.533 124.022 134.993H123.682L123.697 135Z" fill="#D6E8EA"/>
<path d="M139.757 21.7937C140.052 21.5651 140.148 21.2292 140.338 20.9589C140.663 20.4895 141.007 20.0384 141.37 19.5969C141.831 19.0343 142.379 18.5495 142.863 18.0049C143.254 17.5607 143.59 17.076 143.969 16.6273C144.1 16.4715 144.146 16.255 144.366 16.1539C144.439 16.1212 144.41 15.9978 144.452 15.9221C144.542 15.7646 144.715 15.6879 144.842 15.6444C145.064 15.566 145.252 15.3963 145.504 15.3867C145.629 15.3834 145.73 15.3193 145.845 15.2655C146.095 15.1472 146.378 15.1204 146.662 15.2052C146.965 15.2969 147.219 15.4907 147.514 15.5945C147.655 15.6442 147.822 15.5596 147.952 15.7049C148.047 15.8106 148.086 15.89 147.995 16.0047C147.798 16.2585 147.655 16.5559 147.331 16.7012C147.219 16.7519 147.151 16.8903 147.055 16.9825C146.463 17.5489 145.892 18.1333 145.418 18.8061C144.922 19.5037 144.371 20.158 143.85 20.838C143.638 21.1161 143.421 21.4033 143.248 21.7006C143.151 21.8675 143.088 22.1258 143.11 22.3616C143.143 22.7082 143.176 23.0576 143.209 23.4042C143.231 23.6372 143.399 23.8133 143.461 24.0368C143.567 24.4137 143.931 24.6715 143.988 25.0818C143.99 25.1103 144.011 25.1399 144.03 25.1638C144.249 25.4699 144.425 25.7943 144.523 26.1576C144.532 26.1912 144.564 26.2225 144.59 26.2488C144.845 26.5084 144.968 26.8292 145.042 27.1749C145.044 27.1976 145.041 27.2322 145.054 27.2425C145.315 27.4499 145.365 27.7662 145.483 28.0503C145.567 28.2603 145.692 28.449 145.771 28.6651C145.872 28.9393 145.955 29.2239 146.068 29.4941C146.173 29.745 146.362 29.9592 146.393 30.2601C146.419 30.5042 146.484 30.8162 146.617 30.9928C146.817 31.2605 146.901 31.5278 146.979 31.8357C147.045 32.096 147.303 32.2407 147.56 32.3195C147.689 32.3588 147.835 32.4253 147.822 32.5326C147.808 32.6629 147.68 32.7553 147.513 32.7655C147.229 32.7809 146.931 32.8894 146.669 32.8282C146.324 32.7463 145.958 32.8526 145.631 32.6858C145.588 32.6641 145.523 32.6761 145.468 32.6784C144.99 32.7008 144.513 32.402 144.282 31.9882C144.121 31.6996 144.105 31.3486 143.912 31.0945C143.736 30.8618 143.75 30.5796 143.619 30.334C143.509 30.1294 143.421 29.8797 143.346 29.6403C143.266 29.3728 143.193 29.0931 143.047 28.8432C142.949 28.6747 142.899 28.4788 142.82 28.297C142.678 27.9637 142.534 27.6362 142.314 27.3446C142.274 27.2939 142.237 27.243 142.234 27.1802C142.224 27.0063 142.169 26.8567 142.062 26.7121C141.845 26.4173 141.71 26.0689 141.566 25.7444C141.432 25.4417 141.162 25.2035 141.129 24.8484C141.12 24.7518 141.01 24.6361 140.894 24.6155C140.764 24.5935 140.717 24.7154 140.675 24.8198C140.494 25.244 140.24 25.6378 139.979 26.0066C139.735 26.3508 139.571 26.7447 139.288 27.0668C139.117 27.2608 139.032 27.5325 138.838 27.7258C138.779 27.7829 138.729 27.8336 138.645 27.8415C138.371 27.8675 138.096 27.9108 137.82 27.914C137.666 27.9143 137.507 27.8089 137.364 27.9572C136.926 27.8153 136.413 27.8927 136.054 27.5168C135.976 27.4353 135.945 27.3465 136.025 27.273C136.127 27.1802 136.117 27.0808 136.084 26.9778C136.009 26.7384 136.176 26.5363 136.192 26.3026C136.204 26.1237 136.157 25.9304 136.24 25.739C136.283 25.6375 136.327 25.4871 136.315 25.3908C136.274 25.0507 136.413 24.7394 136.471 24.4244C136.541 24.0565 136.511 23.6867 136.575 23.3166C136.626 23.0222 136.711 22.7275 136.705 22.4156C136.7 22.1151 136.743 21.8014 136.852 21.5073C136.866 21.4716 136.876 21.4305 136.873 21.3935C136.813 21.0036 136.977 20.647 137.02 20.2788C137.056 19.9745 137.184 19.6756 137.122 19.3519C137.071 19.0958 137.202 18.8483 137.275 18.6035C137.344 18.3791 137.359 18.1454 137.385 17.9223C137.415 17.6586 137.465 17.3873 137.514 17.1361C137.563 16.8878 137.569 16.612 137.688 16.3657C137.766 16.2006 137.771 15.9851 137.781 15.8093C137.795 15.5615 137.851 15.3211 137.911 15.0947C138.019 14.6946 137.931 14.2672 138.091 13.8937C138.189 13.6666 138.101 13.4428 138.163 13.2448C138.248 12.973 138.23 12.6938 138.304 12.4231C138.362 12.2112 138.461 11.9925 138.435 11.757C138.407 11.4902 138.533 11.2518 138.588 11.0001C138.604 10.9241 138.638 10.8549 138.625 10.7759C138.558 10.3781 138.648 10.0055 138.778 9.63193C138.806 9.55762 138.782 9.4624 138.777 9.37973C138.77 9.26866 138.76 9.16354 138.863 9.08213C138.941 9.02022 138.915 8.92526 138.91 8.83976C138.895 8.50572 139.115 8.33583 139.388 8.17524C139.683 8.00109 140.031 8.0799 140.302 7.87073C140.407 7.78904 140.534 7.93179 140.635 7.97959C140.916 8.11921 141.179 8.28348 141.514 8.29181C141.698 8.29731 141.932 8.58757 141.953 8.7748C141.964 8.89129 141.969 9.00832 141.986 9.12141C142.021 9.33596 141.935 9.48163 141.734 9.56382C141.681 9.58606 141.61 9.61278 141.624 9.66878C141.697 9.94567 141.549 10.1948 141.522 10.4582C141.492 10.7535 141.447 11.0529 141.394 11.3504C141.348 11.6013 141.222 11.8397 141.262 12.111C141.307 12.3963 141.175 12.6583 141.107 12.9284C141.101 12.9519 141.077 12.9743 141.081 12.9911C141.156 13.2878 141.022 13.5699 140.982 13.8518C140.94 14.1396 140.951 14.4424 140.818 14.7302C140.748 14.883 140.698 15.0941 140.756 15.3065C140.788 15.4211 140.692 15.5763 140.637 15.7048C140.613 15.7615 140.584 15.8159 140.587 15.8787C140.608 16.1949 140.514 16.4905 140.405 16.7817C140.398 16.8025 140.389 16.8291 140.397 16.8513C140.493 17.1632 140.308 17.4502 140.302 17.7575C140.299 17.9412 140.278 18.1811 140.15 18.3653C140.13 18.3959 140.114 18.4432 140.123 18.4739C140.213 18.7807 140.102 19.0808 140.035 19.3594C139.927 19.814 139.948 20.2821 139.805 20.74C139.709 21.0472 139.576 21.421 139.751 21.7943L139.757 21.7937Z" fill="#F8C543"/>
<path d="M169.33 41.1139C169.446 40.9223 169.548 40.7693 169.761 40.6803C169.87 40.6356 169.947 40.4993 170.027 40.3942C170.222 40.1464 170.455 39.9581 170.777 39.8931C170.914 39.8658 171.01 39.7392 171.134 39.6701C171.397 39.5248 171.718 39.566 171.953 39.3689C172.006 39.3236 172.099 39.3206 172.177 39.3132C172.633 39.27 173.088 39.2211 173.544 39.1836C173.836 39.1588 174.113 39.2328 174.328 39.4159C174.474 39.5397 174.643 39.6011 174.804 39.6403C175.405 39.784 175.919 40.0821 176.308 40.5297C176.556 40.8129 176.792 41.1202 176.944 41.4985C177.039 41.7331 177.077 42.0161 177.266 42.2219C177.308 42.2666 177.307 42.3527 177.319 42.4203C177.39 42.8236 177.345 43.2406 177.493 43.6365C177.532 43.7446 177.461 43.8889 177.468 44.0229C177.483 44.3311 177.703 44.5969 177.657 44.9109C177.599 45.3119 177.814 45.6757 177.802 46.0724C177.795 46.3024 177.601 46.553 177.837 46.7715C177.631 47.0891 177.901 47.4476 177.732 47.7875C177.639 47.9741 177.67 48.2349 177.819 48.4271C177.889 48.518 177.89 48.5896 177.84 48.6803C177.714 48.9101 177.559 49.091 177.261 49.0792C176.986 49.0679 176.704 49.2208 176.432 49.0545C176.392 49.0325 176.361 49.0671 176.335 49.0982C176.237 49.2049 176.138 49.1685 176.017 49.1254C175.794 49.0462 175.561 48.9795 175.326 48.9502C175.134 48.9282 175.008 48.8255 174.879 48.7174C174.796 48.6478 174.783 48.5373 174.843 48.4628C174.939 48.3419 174.941 48.2098 174.903 48.0873C174.784 47.6858 175.009 47.3033 174.945 46.9023C174.872 46.4419 174.857 45.9761 174.807 45.5107C174.784 45.2664 174.837 45.0235 174.814 44.7848C174.803 44.6684 174.711 44.5567 174.701 44.4229C174.652 43.8428 174.597 43.2632 174.536 42.6842C174.497 42.3268 174.324 42.0134 174.197 41.6844C174.128 41.5075 174.028 41.3421 173.973 41.1638C173.877 40.8491 173.645 40.6446 173.421 40.4365C173.306 40.3298 173.154 40.3528 173.044 40.4751C172.713 40.8505 172.289 41.1372 172.002 41.5514C171.795 41.8548 171.605 42.1739 171.498 42.5194C171.429 42.7438 171.269 42.9022 171.181 43.1084C171.052 43.4101 170.865 43.7059 170.774 44.0012C170.604 44.5678 170.297 45.0756 170.13 45.6447C169.991 46.1165 169.829 46.5848 169.69 47.0594C169.648 47.1981 169.588 47.3328 169.522 47.4623C169.4 47.709 169.226 47.8688 168.919 47.8577C168.738 47.852 168.558 47.8834 168.377 47.9035C167.775 47.972 167.21 47.8478 166.662 47.6188C166.641 47.6094 166.602 47.6016 166.601 47.5874C166.572 47.3436 166.283 47.1846 166.392 46.8905C166.443 46.7538 166.486 46.5893 166.331 46.4634C166.274 46.4144 166.263 46.3266 166.307 46.2708C166.424 46.1221 166.383 45.9598 166.368 45.8007C166.335 45.4598 166.288 45.1202 166.277 44.7802C166.261 44.3374 166.339 43.9 166.317 43.4521C166.3 43.1212 166.295 42.7605 166.357 42.4392C166.451 41.9545 166.292 41.4793 166.377 41.0241C166.438 40.6858 166.334 40.3545 166.416 40.0515C166.523 39.6458 166.368 39.2391 166.458 38.8693C166.553 38.4877 166.408 38.1231 166.486 37.7774C166.58 37.3643 166.448 36.9554 166.525 36.5697C166.586 36.2629 166.524 35.9708 166.572 35.6852C166.664 35.1147 166.502 34.5481 166.564 33.9976C166.673 33.0355 166.442 32.1057 166.429 31.1611C166.427 31.058 166.424 30.958 166.392 30.8636C166.325 30.6577 166.408 30.4893 166.582 30.4156C166.828 30.3119 167.039 30.117 167.334 30.1235C167.515 30.1264 167.696 30.1035 167.876 30.0721C168.088 30.0348 168.267 30.0781 168.402 30.2487C168.498 30.3686 168.658 30.3649 168.778 30.408C168.944 30.4697 169.103 30.5807 169.31 30.5525C169.442 30.5342 169.56 30.6435 169.602 30.7771C169.643 30.9107 169.505 30.921 169.432 30.9824C169.351 31.0531 169.136 31.1193 169.336 31.2924C169.368 31.321 169.337 31.3612 169.314 31.3949C169.223 31.5153 169.248 31.6247 169.354 31.7236C169.434 31.7992 169.445 31.887 169.381 31.9762C169.288 32.0997 169.3 32.1988 169.423 32.299C169.483 32.3478 169.5 32.435 169.453 32.4911C169.33 32.6403 169.38 32.8018 169.392 32.9583C169.413 33.2058 169.436 33.4529 169.463 33.6998C169.482 33.9015 169.385 34.1142 169.514 34.3084C169.532 34.3354 169.534 34.3925 169.519 34.4226C169.317 34.8058 169.517 35.1996 169.487 35.5837C169.46 35.9102 169.377 36.2334 169.446 36.5651C169.538 37.015 169.301 37.4617 169.425 37.9115C169.252 38.1716 169.398 38.4558 169.357 38.7206C169.276 39.25 169.32 39.7733 169.314 40.3013C169.313 40.5279 169.256 40.7597 169.296 40.991C169.302 41.0334 169.318 41.0749 169.331 41.1195L169.33 41.1139Z" fill="#F8C543"/>
<path d="M176.42 31.7446C176.216 31.764 176.011 31.7834 175.809 31.8025C175.685 31.8143 175.572 31.8221 175.531 31.6655C175.509 31.5816 175.463 31.5917 175.392 31.6357C175.224 31.7433 175.046 31.8233 174.944 31.552C174.925 31.4994 174.886 31.4944 174.83 31.5169C174.656 31.5822 174.491 31.5003 174.471 31.3188C174.419 30.8565 174.298 30.3835 174.395 29.93C174.46 29.6315 174.382 29.335 174.456 29.07C174.553 28.7167 174.406 28.3609 174.504 28.0477C174.614 27.6963 174.481 27.3447 174.626 27.0013C174.712 26.7983 174.616 26.558 174.604 26.3327C174.595 26.2103 174.56 26.0846 174.666 25.9799C174.685 25.961 174.701 25.9193 174.693 25.8943C174.591 25.4968 174.705 25.1019 174.75 24.7107C174.791 24.3542 174.756 23.9848 174.889 23.6369C174.952 23.4732 174.878 23.2997 174.873 23.1281C174.87 23.0052 174.839 22.8878 174.932 22.7728C175.005 22.6827 174.97 22.5858 174.873 22.5119C174.773 22.4382 174.678 22.3583 174.588 22.2722C174.399 22.0867 174.451 21.8724 174.704 21.8026C174.905 21.7463 174.963 21.6204 175.011 21.4209C175.083 21.1131 175.115 20.8062 175.144 20.4939C175.146 20.4564 175.18 20.4159 175.174 20.3849C175.103 20.0018 175.239 19.6277 175.232 19.2471C175.227 18.8836 175.332 18.5153 175.271 18.1456C175.503 17.9286 175.312 17.5999 175.485 17.3657C175.508 17.3348 175.499 17.2754 175.492 17.2302C175.443 16.8594 175.558 16.5131 175.653 16.1601C175.702 15.9748 175.683 15.776 175.758 15.5797C175.937 15.1098 176.006 14.6045 176.172 14.1243C176.328 13.6767 176.568 13.2899 176.849 12.9393C177.034 12.7125 177.364 12.6067 177.635 12.452C177.905 12.2974 178.206 12.3062 178.476 12.1544C178.723 12.0192 179.048 11.9855 179.348 12.1749C179.633 12.3543 179.952 12.4674 180.306 12.5141C180.704 12.5653 180.998 12.8126 181.249 13.1299C181.417 13.3432 181.549 13.5916 181.757 13.7639C181.937 13.9131 181.985 14.1408 182.03 14.3057C182.107 14.5993 182.314 14.8548 182.304 15.174C182.3 15.289 182.309 15.4086 182.41 15.4965C182.423 15.5067 182.436 15.5255 182.434 15.5343C182.289 15.8749 182.699 16.18 182.502 16.5226C182.643 16.8188 182.678 17.1509 182.636 17.453C182.587 17.8189 182.625 18.1908 182.517 18.5564C182.442 18.8101 182.391 19.0672 182.287 19.3179C182.121 19.7177 181.905 20.0793 181.621 20.4043C181.519 20.5229 181.414 20.639 181.333 20.7699C181.19 21.0099 180.937 21.1084 180.722 21.2578C180.571 21.361 180.411 21.4535 180.258 21.5512C180.239 21.5645 180.217 21.5866 180.197 21.5856C179.895 21.5627 179.629 21.7312 179.392 21.8426C179.058 22.0004 178.664 21.9288 178.373 22.1714C178.346 22.194 178.3 22.1984 178.26 22.2051C177.877 22.2815 177.764 22.4384 177.79 22.8315C177.818 23.2846 177.741 23.7277 177.658 24.1713C177.654 24.1946 177.642 24.2187 177.646 24.2383C177.732 24.6172 177.499 24.9861 177.596 25.3667C177.606 25.4031 177.607 25.4488 177.593 25.4817C177.463 25.7434 177.549 26.0362 177.489 26.2942C177.397 26.7014 177.524 27.1193 177.367 27.5155C177.32 27.6346 177.37 27.7617 177.37 27.885C177.37 28.0426 177.399 28.1947 177.333 28.3614C177.295 28.4539 177.318 28.6266 177.334 28.7426C177.395 29.1696 177.175 29.5747 177.276 30.0008C177.319 30.1801 177.365 30.3822 177.222 30.5592C177.182 30.6059 177.201 30.6844 177.247 30.7317C177.521 31.0124 177.362 31.3027 177.258 31.5877C177.228 31.6737 177.129 31.6659 177.051 31.6733C176.84 31.6933 176.627 31.7135 176.416 31.7335L176.42 31.7446ZM179.666 16.5651C179.533 16.0818 179.688 15.445 179.379 14.8637C179.294 14.7026 179.249 14.4977 179.159 14.3227C179.145 14.2982 179.124 14.2629 179.101 14.2594C179.05 14.2499 179.046 14.2961 179.032 14.3347C178.919 14.6751 178.815 15.0175 178.687 15.3536C178.615 15.5467 178.569 15.7346 178.6 15.9409C178.604 15.9892 178.597 16.0644 178.565 16.0933C178.441 16.1968 178.462 16.3266 178.471 16.4576C178.481 16.5599 178.463 16.6476 178.417 16.7465C178.309 16.9832 178.233 17.2283 178.282 17.5017C178.343 17.8399 178.136 18.172 178.213 18.5202C178.218 18.5483 178.176 18.5868 178.162 18.6225C178.067 18.8522 178.168 19.0949 178.087 19.3405C178.035 19.4945 178.109 19.7283 178.036 19.8757C177.904 20.1461 178.007 20.3945 178.019 20.6484C178.025 20.7768 178.149 20.7966 178.231 20.7344C178.394 20.61 178.57 20.5073 178.712 20.3448C179.045 19.9634 179.306 19.5489 179.518 19.0902C179.593 18.9311 179.544 18.7753 179.626 18.6271C179.754 18.3912 179.836 18.1456 179.788 17.8577C179.728 17.4679 179.708 17.0713 179.66 16.5628L179.666 16.5651Z" fill="#F8C543"/>
<path d="M227.956 35.7531C228.256 35.7246 228.484 35.703 228.712 35.6814C229.139 35.6438 229.505 35.8212 229.821 36.0578C230.032 36.2185 230.263 36.2997 230.493 36.3954C230.536 36.4115 230.591 36.4148 230.623 36.4405C231.033 36.7771 231.53 36.9851 231.917 37.3583C232.187 37.6194 232.329 37.9241 232.403 38.2754C232.409 38.3064 232.406 38.3411 232.42 38.3655C232.712 38.8051 232.65 39.3184 232.711 39.8C232.806 40.562 232.882 41.3317 232.928 42.0984C232.958 42.5685 232.929 43.0529 232.888 43.5182C232.859 43.8479 232.947 44.1949 232.838 44.4919C232.718 44.8243 232.843 45.1536 232.752 45.4518C232.674 45.7085 232.685 45.9398 232.719 46.1773C232.76 46.46 232.565 46.705 232.642 46.993C232.758 47.4234 232.584 47.8556 232.588 48.2938C232.591 48.5486 232.545 48.831 232.554 49.1054C232.559 49.2482 232.488 49.3954 232.431 49.4926C232.275 49.7482 232.415 50.033 232.274 50.2957C232.19 50.4528 232.201 50.6953 232.185 50.8918C232.156 51.23 231.969 51.4942 231.881 51.8007C231.744 52.2838 231.353 52.6104 231.012 52.9437C230.743 53.2043 230.432 53.4832 229.989 53.4449C229.839 53.4305 229.767 53.5864 229.632 53.6106C229.412 53.6515 229.186 53.6672 228.974 53.6099C228.798 53.5635 228.633 53.5677 228.463 53.5867C227.933 53.6456 227.444 53.5171 226.954 53.3256C226.692 53.2244 226.431 53.1143 226.156 53.0401C225.929 52.9813 225.766 52.7876 225.597 52.6316C225.017 52.1046 224.448 51.5624 223.999 50.9141C223.928 50.8118 223.818 50.7478 223.782 50.6165C223.68 50.2449 223.754 50.1032 224.177 49.9656C224.555 49.8409 224.955 49.8517 225.347 49.8202C225.463 49.8092 225.538 49.8967 225.608 49.9617C225.81 50.1519 226.049 50.2496 226.31 50.3366C226.532 50.4101 226.701 50.5891 226.854 50.7609C226.929 50.8456 226.886 50.9528 226.75 50.9858C226.687 51.0003 226.603 51.0369 226.683 51.1068C226.975 51.3629 227.148 51.7163 227.429 51.9763C227.588 52.1246 227.758 52.2604 227.936 52.384C228.079 52.4851 228.229 52.4709 228.356 52.3384C228.766 51.9068 229.05 51.404 229.23 50.8395C229.335 50.5085 229.444 50.1828 229.442 49.8218C229.441 49.6585 229.537 49.4774 229.558 49.2949C229.599 48.967 229.694 48.6456 229.756 48.3243C229.838 47.9267 229.701 47.5269 229.854 47.1483C229.864 47.1273 229.876 47.0947 229.866 47.0813C229.702 46.8646 229.84 46.6251 229.848 46.4093C229.866 46.0064 229.862 45.5968 229.897 45.1979C229.917 44.958 229.947 44.7201 229.939 44.4773C229.937 44.4316 229.947 44.3847 229.967 44.3428C230.118 44.0074 230.058 43.95 229.688 43.9507C229.33 43.9531 228.977 43.8805 228.625 43.8193C228.415 43.7819 228.215 43.6689 227.994 43.6957C227.83 43.7141 227.724 43.5808 227.605 43.5204C227.372 43.402 227.135 43.2898 226.903 43.1771C226.437 42.9575 226.083 42.6041 225.688 42.3004C225.424 42.0961 225.351 41.7562 225.139 41.5154C224.78 41.108 224.915 40.5964 224.825 40.132C224.763 39.8225 224.777 39.5059 224.692 39.1929C224.651 39.0419 224.653 38.8096 224.792 38.6244C224.909 38.47 224.855 38.2458 224.939 38.0572C225.076 37.7518 225.149 37.4153 225.371 37.1506C225.455 37.0537 225.403 36.9067 225.523 36.8208C225.94 36.5204 226.27 36.1394 226.803 35.957C227.217 35.8145 227.629 35.8271 227.961 35.7412L227.956 35.7531ZM229.91 39.7272C229.772 39.253 229.931 38.6245 229.623 38.0517C229.531 37.8798 229.526 37.6423 229.399 37.4652C229.256 37.2724 229.171 37.0282 228.912 36.9352C228.855 36.9148 228.826 36.8832 228.78 36.9478C228.635 37.1364 228.408 37.2324 228.279 37.4625C228.069 37.835 227.798 38.1617 227.73 38.6096C227.683 38.9122 227.532 39.1959 227.557 39.5147C227.563 39.58 227.545 39.6362 227.503 39.6889C227.469 39.7293 227.456 39.7793 227.503 39.8121C227.637 39.9055 227.61 40.0457 227.622 40.1735C227.666 40.5821 227.699 40.9917 227.744 41.4003C227.751 41.477 227.759 41.5594 227.797 41.6246C227.95 41.8881 228.101 42.1548 228.284 42.3983C228.454 42.6258 228.661 42.847 228.971 42.8634C229.381 42.8877 229.694 42.6917 229.934 42.368C230.014 42.2601 230.023 42.1732 229.924 42.0851C229.835 42.0047 229.831 41.9248 229.879 41.8171C229.994 41.5596 230.086 41.3015 230.04 41.002C229.98 40.6178 229.961 40.2298 229.914 39.7326L229.91 39.7272Z" fill="#F8C543"/>
<path d="M221.596 41.3469C221.561 41.5308 221.745 41.78 221.571 42.0315C221.52 42.1052 221.684 42.147 221.681 42.2418C221.681 42.5142 221.832 42.7894 221.654 43.0557C221.641 43.0741 221.637 43.1002 221.64 43.1229C221.742 43.7439 221.624 44.3657 221.606 44.9808C221.59 45.4524 221.738 45.9457 221.532 46.4125C221.53 46.4184 221.525 46.4275 221.529 46.4357C221.628 46.9337 221.407 47.4219 221.504 47.9258C221.556 48.1932 221.774 48.1898 221.931 48.2494C222.341 48.4054 222.426 48.6267 222.147 48.9628C221.938 49.2119 221.83 49.5146 221.67 49.7935C221.543 50.0205 221.383 50.242 221.077 50.2624C220.895 50.2768 220.717 50.2966 220.535 50.3139C220.425 50.3242 220.316 50.3403 220.231 50.2366C220.208 50.2101 220.158 50.1804 220.13 50.1888C219.863 50.2571 219.631 50.0785 219.371 50.1003C219.296 50.1074 219.238 50.0756 219.178 50.0297C219.09 49.9635 218.995 49.9095 218.883 49.8886C218.572 49.8349 218.48 49.6946 218.547 49.3901C218.546 49.3816 218.552 49.3753 218.551 49.3668C218.437 48.962 218.588 48.5578 218.617 48.1623C218.65 47.7148 218.564 47.2701 218.628 46.8397C218.713 46.2641 218.718 45.6933 218.759 45.1217C218.794 44.6541 218.691 44.1879 218.768 43.7449C218.833 43.3776 218.779 43.0272 218.801 42.6726C218.812 42.511 218.951 42.3545 218.877 42.1838C218.791 41.9884 218.802 41.801 218.815 41.5934C218.832 41.3166 218.774 41.0383 218.744 40.7602C218.736 40.675 218.719 40.5877 218.615 40.5603C218.514 40.5356 218.494 40.632 218.437 40.6747C218.074 40.9585 217.774 41.2965 217.487 41.6505C217.146 42.0727 216.756 42.4623 216.452 42.9097C216.168 43.3264 215.862 43.7195 215.557 44.1211C215.433 44.2848 215.364 44.4776 215.246 44.6493C214.983 45.0354 214.803 45.4738 214.494 45.8357C214.411 45.9325 214.408 46.0617 214.358 46.1726C214.208 46.4992 214.034 46.8081 213.838 47.1076C213.729 47.2756 213.599 47.3825 213.385 47.3885C213.164 47.3951 212.942 47.419 212.724 47.4511C212.452 47.4913 212.21 47.368 211.956 47.3233C211.642 47.2699 211.35 47.1084 211.042 47.0144C210.922 46.977 210.882 46.9235 210.857 46.8141C210.748 46.3686 210.7 45.8916 210.77 45.4693C210.831 45.0966 210.781 44.7201 210.867 44.3421C210.936 44.0289 211.01 43.6721 210.963 43.3269C210.944 43.1882 210.925 43.0524 211.027 42.9281C211.056 42.8938 211.057 42.822 211.044 42.7717C210.926 42.2325 211.145 41.6928 211.042 41.1523C211.039 41.1239 211.035 41.0784 211.051 41.0626C211.268 40.8413 211.145 40.5807 211.139 40.3347C211.134 40.0742 211.221 39.8252 211.246 39.5677C211.268 39.3076 211.302 39.0493 211.28 38.7848C211.248 38.3865 211.409 37.9986 211.327 37.5965C211.305 37.4811 211.427 37.3262 211.546 37.3292C211.958 37.3389 212.301 37.0942 212.696 37.0596C212.95 37.0355 213.177 37.123 213.368 37.2654C213.609 37.4489 213.869 37.5819 214.155 37.6838C214.221 37.7062 214.278 37.7524 214.337 37.7898C214.417 37.8395 214.513 37.8992 214.499 37.998C214.484 38.0883 214.372 38.0703 214.298 38.0831C214.18 38.0999 214.131 38.1648 214.144 38.2753C214.16 38.4373 214.184 38.6012 214.132 38.7609C214.024 39.0951 214.21 39.4559 214.023 39.7861C213.995 39.8345 214.005 39.911 214.023 39.9695C214.128 40.3408 213.931 40.692 213.949 41.063C213.959 41.2942 213.878 41.5398 213.904 41.7867C213.91 41.8464 213.896 41.9222 213.963 41.9531C214.048 41.9909 214.066 41.8947 214.099 41.8542C214.314 41.5988 214.519 41.3329 214.733 41.0803C214.935 40.8434 215.126 40.593 215.357 40.3905C215.76 40.037 216.212 39.7418 216.661 39.4441C216.938 39.2603 217.254 39.216 217.54 39.077C217.774 38.9631 218.08 39.0001 218.353 38.9656C218.566 38.9368 218.776 38.9427 218.975 38.8006C219.117 38.7011 219.35 38.6733 219.52 38.8435C219.822 39.1388 220.218 39.2388 220.601 39.3774C220.848 39.4657 221.066 39.6514 221.192 39.9061C221.411 40.344 221.585 40.7976 221.6 41.3551L221.596 41.3469Z" fill="#F8C543"/>
<path d="M199.747 40.4202C199.822 40.6309 199.704 40.8915 199.919 41.0689C199.792 41.2042 200.019 41.3575 199.893 41.5013C199.84 41.5608 199.872 41.6523 199.879 41.7291C199.907 42.0217 199.924 42.3182 199.963 42.6098C200.031 43.1107 199.888 43.5944 199.856 44.0848C199.834 44.4107 199.701 44.7215 199.756 45.0603C199.799 45.3285 199.64 45.5872 199.661 45.8719C199.691 46.2131 199.507 46.5773 199.795 46.8883C199.831 46.9279 199.859 46.9711 199.85 47.035C199.811 47.3541 199.472 47.6814 199.14 47.71C198.904 47.7325 198.671 47.7029 198.433 47.6768C198.077 47.6388 197.741 47.5961 197.399 47.4796C197.23 47.4239 197.04 47.4391 196.893 47.3011C196.701 47.1214 196.643 46.9034 196.768 46.6622C196.842 46.5233 196.8 46.3868 196.785 46.2507C196.731 45.8114 196.82 45.3931 196.925 44.9704C196.929 44.9556 196.939 44.9375 196.935 44.9264C196.837 44.5659 196.978 44.2086 197.015 43.8611C197.052 43.5136 196.994 43.1464 197.139 42.8087C197.155 42.767 197.162 42.7176 197.158 42.6722C197.117 42.1773 197.073 41.6855 197.026 41.1912C196.997 40.8815 196.933 40.5723 196.942 40.2647C196.95 39.9515 196.761 39.7143 196.699 39.4306C196.689 39.3828 196.65 39.3435 196.596 39.3859C196.372 39.5705 196.115 39.7125 195.88 39.8752C195.613 40.0639 195.398 40.3079 195.161 40.5138C194.906 40.7358 194.664 41.011 194.449 41.2922C194.123 41.7159 193.719 42.0896 193.432 42.5353C193.189 42.9138 192.862 43.2458 192.711 43.6786C192.7 43.714 192.665 43.7403 192.639 43.7686C192.403 44.0518 192.283 44.4043 192.084 44.7041C191.934 44.9305 191.914 45.2161 191.696 45.3973C191.602 45.4779 191.616 45.5998 191.591 45.6997C191.522 45.9585 191.296 46.1232 191.212 46.3691C191.169 46.4937 190.997 46.553 190.898 46.5824C190.643 46.6582 190.366 46.7446 190.1 46.6065C190.041 46.5747 189.978 46.5549 189.919 46.572C189.617 46.6694 189.34 46.5066 189.048 46.5026C189.019 46.5025 188.972 46.4927 188.964 46.4734C188.905 46.3414 188.862 46.2307 188.677 46.363C188.639 46.3895 188.454 46.2522 188.455 46.1088C188.458 45.776 188.278 45.4405 188.471 45.1098C188.323 44.926 188.467 44.7289 188.449 44.5385C188.239 42.3827 188.037 40.2261 187.835 38.0667C187.797 37.6661 188.018 37.4474 188.4 37.3337C188.714 37.2437 189.015 37.1321 189.345 37.1151C189.496 37.1066 189.612 37.1328 189.737 37.2242C189.981 37.4017 190.286 37.4588 190.561 37.5674C190.603 37.5835 190.655 37.5843 190.695 37.6034C190.991 37.7445 190.982 37.7397 190.814 38.0307C190.725 38.1912 190.663 38.3662 190.681 38.5622C190.771 39.4739 190.854 40.3861 190.941 41.2981C190.947 41.3634 190.927 41.4571 191.002 41.4872C191.081 41.517 191.112 41.4166 191.17 41.3853C191.399 41.2575 191.471 40.9641 191.729 40.865C191.749 40.8574 191.763 40.8302 191.77 40.8095C191.889 40.5001 192.189 40.3427 192.393 40.0998C192.604 39.8447 192.892 39.6597 193.148 39.4462C193.385 39.246 193.627 39.0655 193.895 38.9139C194.075 38.8138 194.273 38.729 194.432 38.6222C194.686 38.4519 195.027 38.5429 195.237 38.3051C195.242 38.2989 195.251 38.2981 195.259 38.2972C195.847 38.2071 196.408 37.9246 197.017 37.993C197.27 38.0206 197.549 38.106 197.749 38.2533C198.034 38.4642 198.367 38.5157 198.674 38.6528C198.978 38.7874 199.205 38.9751 199.372 39.2603C199.584 39.6215 199.761 39.9831 199.746 40.4173L199.747 40.4202Z" fill="#F8C543"/>
<path d="M157.426 24.7537C157.112 24.7836 156.798 24.819 156.483 24.8432C156.255 24.8591 156.016 24.9477 155.8 24.7875C155.784 24.7747 155.752 24.7749 155.732 24.7796C155.386 24.8985 155.053 24.7379 154.724 24.7004C154.25 24.6478 153.764 24.5793 153.319 24.3377C153 24.1616 152.645 24.0432 152.366 23.8031C152.113 23.5863 151.834 23.3433 151.695 23.0812C151.517 22.737 151.191 22.4239 151.239 21.9808C151.246 21.9055 151.219 21.8279 151.152 21.7711C151.13 21.7532 151.101 21.7215 151.101 21.6957C151.118 21.3214 150.968 20.9687 150.962 20.5966C150.955 20.2104 150.863 19.8235 150.867 19.4361C150.87 19.0116 150.861 18.5796 150.909 18.1651C150.953 17.7711 150.938 17.3598 151.067 16.9805C151.204 16.5834 151.308 16.1723 151.493 15.7907C151.595 15.5803 151.682 15.3571 151.751 15.1356C151.822 14.9081 151.976 14.7502 152.105 14.5745C152.213 14.4267 152.356 14.3042 152.454 14.143C152.565 13.9605 152.785 13.9253 152.943 13.8014C153.113 13.6677 153.349 13.6683 153.515 13.578C153.794 13.4254 154.104 13.4734 154.358 13.3576C154.537 13.2776 154.741 13.3471 154.894 13.2093C154.921 13.1839 154.999 13.1793 155.027 13.1996C155.23 13.3495 155.454 13.2824 155.666 13.2508C155.887 13.2184 156.059 13.3397 156.245 13.3995C156.44 13.4612 156.628 13.6096 156.804 13.6531C157.099 13.7227 157.359 13.8557 157.636 13.9527C157.909 14.0471 158.107 14.2319 158.274 14.4597C158.592 14.894 158.549 15.417 158.518 15.89C158.491 16.2881 158.365 16.7042 158.293 17.1067C158.203 17.6082 157.927 18.0071 157.77 18.4635C157.737 18.5554 157.651 18.6266 157.595 18.7065C157.471 18.8787 157.283 19.0112 157.265 19.2537C157.259 19.3375 157.175 19.4371 157.09 19.4595C156.897 19.5122 156.797 19.6564 156.688 19.7957C156.415 20.1398 156.043 20.2955 155.611 20.3393C155.123 20.3856 154.64 20.4372 154.152 20.4777C153.97 20.4949 153.904 20.5614 153.924 20.743C153.976 21.2052 154.026 21.6706 154.056 22.1351C154.064 22.2862 154.19 22.3545 154.236 22.4763C154.435 23.0021 154.755 23.439 155.233 23.7548C155.264 23.7748 155.303 23.8113 155.334 23.8055C155.77 23.7383 156.194 23.9475 156.638 23.8423C156.767 23.813 156.852 23.736 156.93 23.6656C157.131 23.4832 157.402 23.4603 157.619 23.3222C157.86 23.1646 158.336 23.2371 158.557 23.4253C158.681 23.5312 158.853 23.6008 158.995 23.5988C159.19 23.5947 159.337 23.7011 159.513 23.7217C159.652 23.7372 159.677 23.8782 159.593 23.952C159.242 24.2691 158.956 24.6861 158.388 24.6769C158.067 24.6729 157.744 24.7322 157.424 24.7625L157.426 24.7537ZM155.701 14.9731C155.717 14.7653 155.533 14.6422 155.448 14.4783C155.434 14.451 155.337 14.3169 155.218 14.4198C154.926 14.6797 154.745 15.0179 154.582 15.3516C154.453 15.6132 154.343 15.896 154.256 16.1766C154.161 16.4923 153.926 16.7754 154.006 17.1347C154.017 17.1882 153.987 17.2369 153.972 17.2899C153.897 17.5436 153.816 17.7977 153.815 18.0644C153.814 18.1735 153.823 18.2701 153.754 18.374C153.681 18.4871 153.706 18.5678 153.866 18.6301C154.035 18.6971 154.271 18.6719 154.35 18.9224C154.38 19.0171 154.447 18.9304 154.48 18.8814C154.652 18.6358 154.771 18.355 154.974 18.1294C155.042 18.0541 155.071 17.9568 155.099 17.8595C155.208 17.4995 155.41 17.1765 155.488 16.7993C155.566 16.425 155.692 16.0691 155.629 15.6795C155.608 15.5524 155.563 15.4134 155.647 15.2936C155.719 15.1922 155.707 15.0902 155.696 14.9765L155.701 14.9731Z" fill="#F8C543"/>
<path d="M169.058 24.9578C168.821 24.9802 168.588 25.0024 168.351 25.0248C168.167 25.0395 167.977 25.0947 167.807 24.9617C167.772 24.9335 167.701 24.946 167.646 24.9541C167.299 25.0042 166.979 24.9084 166.659 24.7925C166.617 24.7765 166.564 24.77 166.521 24.7798C166.302 24.8321 166.123 24.7488 165.951 24.6303C165.926 24.6126 165.894 24.5756 165.877 24.5801C165.573 24.6605 165.399 24.3903 165.151 24.3192C165.022 24.2827 164.927 24.1341 164.808 24.0507C164.406 23.7707 164.126 23.393 163.911 22.9634C163.857 22.8539 163.76 22.7598 163.683 22.684C163.475 22.4773 163.503 22.1908 163.423 21.9605C163.319 21.6665 163.249 21.3234 163.266 20.9864C163.286 20.6692 163.142 20.4133 162.953 20.1704C162.758 19.9195 162.85 19.4807 163.124 19.3315C163.185 19.2999 163.24 19.2689 163.233 19.195C163.203 18.8768 163.334 18.5692 163.295 18.2489C163.285 18.1467 163.285 18.0492 163.367 17.9669C163.418 17.9163 163.431 17.8405 163.424 17.7694C163.39 17.4143 163.599 17.1251 163.7 16.8088C163.809 16.463 163.943 16.1236 164.104 15.7987C164.265 15.4738 164.377 15.1164 164.677 14.8701C164.752 14.8085 164.803 14.732 164.851 14.6529C164.938 14.4984 165.074 14.4254 165.229 14.339C165.439 14.2217 165.702 14.2368 165.874 14.0543C165.885 14.0447 165.898 14.0348 165.912 14.0306C166.496 13.8348 167.098 13.6774 167.714 13.7279C167.91 13.7437 168.144 13.7846 168.354 13.8822C168.503 13.9512 168.695 13.9502 168.866 14.0056C168.965 14.0364 169.065 14.047 169.134 14.1264C169.304 14.3253 169.568 14.2544 169.782 14.3344C170.325 14.5381 170.795 14.8289 171.049 15.3323C171.185 15.6031 171.219 15.9583 171.104 16.2816C171.082 16.3497 171.047 16.4132 171.062 16.4834C171.145 16.8969 170.9 17.2269 170.774 17.5885C170.612 18.0568 170.269 18.4304 170.079 18.8813C170.055 18.938 170.002 18.9517 169.954 18.9763C169.783 19.0671 169.648 19.2174 169.597 19.3856C169.549 19.5451 169.449 19.6319 169.336 19.7258C169.123 19.9036 168.916 20.0895 168.691 20.2542C168.394 20.4687 168.137 20.7023 167.737 20.8119C167.286 20.9349 166.839 20.9801 166.389 21.0486C166.271 21.0655 166.228 21.1327 166.238 21.2435C166.268 21.5617 166.259 21.8894 166.348 22.1905C166.405 22.383 166.474 22.5971 166.609 22.762C166.665 22.8284 166.68 22.8986 166.688 22.9753C166.696 23.0662 166.742 23.122 166.81 23.1873C167.049 23.4083 167.2 23.7122 167.517 23.8656C167.685 23.9471 167.881 23.8712 168.027 23.9978C168.033 24.0029 168.062 23.9945 168.07 23.9852C168.2 23.7951 168.4 23.7302 168.605 23.6449C168.725 23.5934 168.835 23.5313 168.971 23.5156C169.031 23.5099 169.109 23.5053 169.15 23.47C169.397 23.2545 169.647 23.2795 169.898 23.4477C170.146 23.6105 170.437 23.6689 170.709 23.7722C170.83 23.8181 170.944 23.8847 171.072 23.9212C171.192 23.9557 171.212 24.1373 171.096 24.174C170.859 24.2567 170.752 24.4761 170.545 24.5904C170.271 24.7424 170.025 24.9063 169.694 24.9119C169.482 24.9148 169.27 24.9492 169.059 24.9692L169.058 24.9578ZM168.195 15.8551C168.126 15.6209 168.229 15.2986 167.994 15.0285C167.831 14.8433 167.804 14.8057 167.643 15.0074C167.414 15.2928 167.15 15.5471 166.991 15.8976C166.878 16.1491 166.742 16.4028 166.605 16.6451C166.518 16.7967 166.604 16.9635 166.52 17.0918C166.345 17.3635 166.308 17.6795 166.243 17.9752C166.171 18.2916 166.063 18.6257 166.159 18.9692C166.203 19.117 166.045 19.2695 166.198 19.4413C166.335 19.5975 166.368 19.6345 166.521 19.4681C166.898 19.054 167.24 18.6144 167.533 18.1395C167.613 18.0086 167.753 17.9151 167.797 17.7619C167.872 17.5111 168.033 17.3038 168.088 17.0291C168.145 16.7428 168.298 16.4789 168.23 16.1671C168.211 16.0858 168.214 15.9966 168.201 15.8546L168.195 15.8551Z" fill="#F8C543"/>
<path d="M160.573 36.2457C160.723 36.2315 160.873 36.2229 161.02 36.2033C161.459 36.1416 161.856 36.3018 162.253 36.4362C162.336 36.4626 162.409 36.4958 162.496 36.4905C162.586 36.482 162.676 36.482 162.738 36.5535C162.96 36.8049 163.29 36.8566 163.582 36.9579C163.799 37.0348 163.942 37.2191 164.178 37.2598C164.311 37.2815 164.272 37.6952 164.161 37.7859C163.866 38.0203 163.494 38.0556 163.18 37.9908C162.895 37.9318 162.583 38.0187 162.319 37.8459C162.276 37.8157 162.195 37.829 162.135 37.8376C161.978 37.864 161.841 37.8311 161.722 37.7191C161.661 37.6589 161.595 37.6078 161.496 37.6058C161.427 37.6067 161.363 37.5811 161.418 37.4899C161.444 37.4502 161.483 37.4092 161.43 37.3712C161.374 37.3307 161.299 37.3406 161.254 37.3851C161.062 37.5667 160.842 37.7309 160.699 37.9451C160.48 38.2754 160.233 38.5855 159.986 38.8927C159.783 39.1442 159.769 39.4551 159.667 39.7371C159.478 40.2595 159.652 40.7733 159.655 41.2919C159.656 41.6072 159.692 41.9333 159.785 42.2342C159.861 42.4821 160.041 42.7 160.182 42.9246C160.545 43.4979 161.062 43.9162 161.601 44.3209C161.936 44.5729 162.267 44.8396 162.559 45.1358C162.788 45.3664 162.969 45.6474 163.154 45.9136C163.198 45.9754 163.225 46.0445 163.285 46.099C163.418 46.2153 163.513 46.3526 163.507 46.5394C163.506 46.6169 163.522 46.6957 163.58 46.7561C163.596 46.7718 163.628 46.7974 163.623 46.8094C163.5 47.2252 163.906 47.5508 163.823 47.9629C163.771 48.2171 163.719 48.4686 163.589 48.6959C163.437 48.9597 163.322 49.2459 163.086 49.4574C162.764 49.7488 162.487 50.0846 162.068 50.262C161.886 50.3394 161.779 50.5273 161.596 50.6306C161.409 50.7401 161.197 50.7774 161.014 50.898C160.742 51.0756 160.385 51.0751 160.109 51.2647C160.095 51.2746 160.078 51.2791 160.064 51.2804C159.482 51.284 158.955 51.678 158.377 51.5722C157.939 51.4933 157.458 51.6077 157.059 51.3245C156.997 51.2817 156.92 51.3033 156.851 51.307C156.674 51.3152 156.556 51.2318 156.523 51.0687C156.486 50.8973 156.631 50.8634 156.761 50.8483C156.89 50.8331 156.968 50.7312 157.052 50.6659C157.272 50.4988 157.609 50.5242 157.75 50.2385C157.763 50.2144 157.802 50.1963 157.827 50.191C158.245 50.1457 158.61 49.8818 159.05 49.9232C159.256 49.941 159.435 49.8723 159.552 49.6864C159.635 49.5552 159.792 49.5232 159.909 49.4404C160.24 49.2113 160.465 48.9147 160.677 48.5793C160.875 48.2653 160.84 47.9647 160.862 47.6359C160.886 47.2236 160.697 46.8489 160.722 46.4451C160.728 46.3472 160.614 46.3149 160.583 46.2376C160.289 45.5288 159.719 45.064 159.137 44.6061C158.741 44.2939 158.355 43.9693 157.988 43.6286C157.624 43.2876 157.355 42.8716 157.099 42.443C156.964 42.2179 156.946 41.9988 156.915 41.7667C156.903 41.6647 156.896 41.565 156.797 41.4998C156.778 41.4873 156.758 41.4634 156.759 41.4432C156.765 41.199 156.763 40.9556 156.705 40.7117C156.69 40.6472 156.754 40.5551 156.676 40.4736C156.634 40.4288 156.62 40.3442 156.659 40.2974C156.795 40.1355 156.741 39.9601 156.724 39.7839C156.713 39.6617 156.776 39.564 156.801 39.4556C156.911 38.9607 157.093 38.5163 157.484 38.1639C157.61 38.0516 157.609 37.8253 157.756 37.7111C158.219 37.3489 158.577 36.8649 159.096 36.5663C159.116 36.5559 159.137 36.5395 159.16 36.5373C159.633 36.4609 160.063 36.1765 160.565 36.2494L160.573 36.2457Z" fill="#F8C543"/>
<path d="M182.854 41.0787C182.887 41.4338 182.921 41.7889 182.955 42.144C182.979 42.4026 183.006 42.658 182.924 42.9238C182.848 43.1661 182.972 43.4324 182.956 43.6862C182.929 44.0814 182.938 44.4847 182.809 44.8697C182.802 44.8904 182.793 44.917 182.798 44.9395C182.911 45.4275 182.698 45.9064 182.768 46.4014C182.806 46.6788 182.712 46.9829 182.643 47.2646C182.613 47.3793 182.677 47.4048 182.73 47.4484C182.922 47.6022 182.988 47.7709 182.834 47.989C182.821 48.0074 182.809 48.0343 182.814 48.0539C182.897 48.4129 182.671 48.7526 182.752 49.1204C182.818 49.4209 182.552 49.707 182.24 49.7366C182.03 49.7565 181.813 49.8057 181.605 49.791C181.215 49.7621 180.802 49.8156 180.462 49.5525C180.44 49.5346 180.389 49.5165 180.381 49.5258C180.289 49.6291 180.215 49.6161 180.114 49.5254C179.977 49.4036 179.804 49.3312 179.806 49.1017C179.808 48.8549 179.696 48.5875 179.759 48.3637C179.868 47.975 179.726 47.5871 179.811 47.2264C179.875 46.9509 179.857 46.6975 179.849 46.4316C179.847 46.3774 179.837 46.3009 179.866 46.2752C180.042 46.1324 179.998 45.9474 179.959 45.782C179.883 45.4653 180.089 45.182 180.03 44.8666C179.983 44.6244 179.921 44.3609 180.078 44.1195C180.086 44.1074 180.087 44.0872 180.083 44.0733C179.997 43.6055 180.221 43.14 180.101 42.6698C180.064 42.5299 180.05 42.3822 180.166 42.2508C180.218 42.1914 180.183 42.1001 180.176 42.0234C180.104 41.2591 180.025 40.4926 179.964 39.7273C179.948 39.5568 179.855 39.4625 179.741 39.37C179.647 39.293 179.65 39.2669 179.762 39.1932C179.957 39.063 180.232 39.0827 180.378 38.96C180.593 38.7762 180.818 38.7921 181.051 38.7557C181.183 38.7346 181.295 38.7526 181.387 38.8671C181.598 39.1281 181.937 39.1418 182.225 39.232C182.684 39.3777 182.69 39.3513 182.735 39.8258L182.854 41.0787Z" fill="#F8C543"/>
<path d="M205.213 47.5584C205.028 47.5759 204.881 47.6157 204.748 47.5022C204.719 47.4762 204.658 47.4763 204.612 47.4807C204.176 47.5191 203.766 47.4549 203.399 47.2087C203.393 47.2036 203.383 47.1987 203.378 47.1992C203.162 47.1996 202.981 47.1594 202.982 46.8899C202.981 46.7008 202.878 46.507 203.024 46.3269C203.037 46.3085 203.052 46.2813 203.047 46.2617C202.957 45.9577 203.181 45.6785 203.121 45.3804C203.088 45.2201 203.242 45.1195 203.235 44.9625C203.209 44.3171 203.428 43.6829 203.332 43.0356C203.331 43.0214 203.326 42.9989 203.333 42.9896C203.56 42.7129 203.369 42.387 203.438 42.1024C203.556 41.6212 203.438 41.1164 203.586 40.6551C203.717 40.25 203.56 39.7919 203.857 39.4227C203.888 39.3853 203.874 39.3006 203.863 39.2415C203.833 39.0866 203.926 38.9603 203.948 38.8235C203.983 38.6081 204.19 38.6716 204.26 38.5846C204.471 38.3239 204.805 38.404 205.057 38.2425C205.328 38.0677 205.677 38.155 205.935 38.3571C206.233 38.5896 206.597 38.6469 206.932 38.7756C206.995 38.8012 207.047 38.8221 207.057 38.8957C207.063 38.9639 207.048 39.0226 206.978 39.0465C206.729 39.1245 206.736 39.3475 206.704 39.5368C206.688 39.6444 206.704 39.7489 206.607 39.8327C206.578 39.8584 206.563 39.9171 206.564 39.96C206.597 40.3095 206.422 40.6357 206.412 40.9691C206.402 41.3141 206.267 41.6479 206.318 41.9957C206.334 42.1088 206.36 42.2296 206.259 42.3252C206.248 42.3348 206.239 42.3615 206.242 42.3669C206.503 42.5973 206.161 42.8562 206.279 43.0944C206.04 43.4496 206.323 43.8642 206.132 44.2378C206.068 44.3642 206.156 44.5565 206.142 44.7184C206.12 45.033 206.083 45.3461 205.989 45.6474C205.933 45.8275 205.988 46.0029 205.998 46.1768C206.018 46.4501 205.896 46.691 205.845 46.9481C205.839 46.9774 205.815 47.0026 205.809 47.0318C205.787 47.1342 205.867 47.2785 205.75 47.3355C205.567 47.4245 205.419 47.6163 205.213 47.5584Z" fill="#F8C543"/>
<path d="M207.557 33.5248C207.16 33.4765 206.762 33.4799 206.369 33.3336C206.2 33.2694 205.994 33.2746 205.832 33.1553C205.628 33.3667 205.554 33.1128 205.429 33.0473C205.34 33.0012 205.339 32.9555 205.391 32.8645C205.473 32.722 205.456 32.5632 205.342 32.4364C205.254 32.3415 205.228 32.255 205.314 32.1494C205.359 32.0965 205.359 32.0391 205.365 31.9755C205.386 31.5808 205.433 31.1922 205.501 30.7988C205.544 30.5454 205.588 30.2774 205.618 30.0137C205.644 29.7905 205.731 29.5759 205.712 29.3426C205.703 29.2489 205.813 29.1238 205.894 29.1218C206.211 29.1176 206.455 28.8995 206.761 28.8648C207.005 28.8359 207.219 28.9102 207.401 29.0219C207.703 29.2025 208.035 29.2915 208.353 29.4219C208.447 29.4617 208.505 29.4963 208.511 29.5903C208.522 29.8272 208.602 30.0576 208.476 30.296C208.394 30.447 208.41 30.6433 208.394 30.8054C208.364 31.0777 208.232 31.3396 208.281 31.613C208.318 31.8188 208.173 31.9759 208.177 32.1761C208.182 32.4107 208.224 32.6361 208.251 32.8657C208.3 33.2881 208.149 33.4688 207.725 33.5118C207.67 33.517 207.615 33.5222 207.56 33.5274L207.557 33.5248Z" fill="#F8C543"/>
<path d="M183.777 32.9187C183.459 33.0033 183.153 32.9348 182.859 32.8193C182.766 32.7823 182.731 32.7885 182.643 32.837C182.458 32.9405 181.799 32.5959 181.742 32.392C181.737 32.3696 181.726 32.342 181.733 32.3241C181.835 32.0536 181.775 31.7554 181.883 31.4843C181.9 31.4426 181.918 31.395 181.914 31.3524C181.89 30.9132 182.039 30.515 182.199 30.1186C182.222 30.0562 182.215 29.9823 182.214 29.9136C182.212 29.7332 182.133 29.5429 182.32 29.3962C182.339 29.3829 182.343 29.3367 182.334 29.3088C182.266 29.0172 182.535 28.9085 182.692 28.8449C183.034 28.7093 183.389 28.5581 183.778 28.57C183.874 28.5723 183.966 28.5636 184.04 28.6397C184.297 28.8962 184.651 28.943 184.971 29.0617C185.079 29.103 185.16 29.1871 185.289 29.1949C185.391 29.2024 185.337 29.2764 185.296 29.329C185.083 29.6015 185.012 29.9005 185.04 30.2505C185.057 30.4667 184.989 30.7025 184.91 30.9135C184.822 31.1483 184.787 31.3953 184.64 31.6185C184.561 31.7407 184.641 31.9653 184.657 32.1415C184.702 32.6102 184.503 32.8498 184.031 32.8974C183.944 32.9056 183.858 32.9139 183.771 32.9221L183.777 32.9187Z" fill="#F8C543"/>
</svg>
