<svg width="252" height="147" viewBox="0 0 252 147" fill="none" xmlns="http://www.w3.org/2000/svg">
<mask id="path-1-outside-1_1025_1662" maskUnits="userSpaceOnUse" x="72" y="43" width="126" height="50" fill="black">
<rect fill="white" x="72" y="43" width="126" height="50"/>
<path d="M76.2978 54.744H84.5118C84.5118 55.336 84.8078 65.03 84.8078 69.544C84.8078 75.464 84.5858 81.754 84.1418 84.048L76.2978 84.196C76.2978 83.826 76.5938 72.948 76.5938 69.1C76.5938 65.4 76.2978 55.706 76.2978 54.744ZM110.929 67.324C115.517 68.582 120.253 70.95 120.253 76.944C120.253 83.382 113.741 87.6 106.563 87.6C104.417 87.6 99.6073 87.082 97.3133 84.64L101.087 78.646C102.345 78.942 103.603 79.756 105.971 79.756C108.561 79.756 111.817 78.868 111.669 77.018C111.595 74.65 104.269 73.688 101.087 71.838C95.7593 68.804 94.8713 64.66 96.1293 59.48C97.2393 54.448 101.531 51.414 108.487 51.414C113.149 51.414 117.515 53.042 119.809 54.818L116.331 61.552C114.481 60.368 111.595 59.554 108.265 59.554C105.675 59.554 104.047 60.738 104.047 62.884C104.047 64.808 107.303 66.288 110.929 67.324ZM155.368 58.074H145.6C142.936 58.074 140.124 58.148 138.718 58.222C138.57 60.664 138.718 62.884 138.718 66.214C143.824 65.622 155.22 65.696 155.738 65.696V73.836C155.146 73.836 143.454 74.058 138.792 74.576C138.792 78.498 139.014 84.196 139.236 87.6L131.096 88.044C130.578 85.528 130.652 79.756 130.578 72.06C130.578 69.396 130.504 66.954 130.504 63.846C130.504 60.22 130.652 55.706 130.652 51.932C138.126 49.342 154.406 49.86 155.368 49.86V58.074ZM169.049 48.75C173.711 47.788 178.447 47.492 182.961 48.602C190.287 50.674 193.395 56.742 193.395 62.588C193.395 70.062 184.589 75.464 176.597 75.612C176.523 79.756 176.375 87.822 176.227 88.784L168.013 88.488C168.013 84.418 168.309 77.758 168.309 73.688C168.309 65.844 167.865 57.778 167.199 51.562C167.051 49.786 167.939 49.046 169.049 48.75ZM185.477 61.478C185.477 57.408 181.185 55.484 175.931 56.224C176.079 57.778 176.227 64.512 176.597 67.25C181.333 67.546 185.477 64.29 185.477 61.478Z"/>
</mask>
<path d="M76.2978 54.744H84.5118C84.5118 55.336 84.8078 65.03 84.8078 69.544C84.8078 75.464 84.5858 81.754 84.1418 84.048L76.2978 84.196C76.2978 83.826 76.5938 72.948 76.5938 69.1C76.5938 65.4 76.2978 55.706 76.2978 54.744ZM110.929 67.324C115.517 68.582 120.253 70.95 120.253 76.944C120.253 83.382 113.741 87.6 106.563 87.6C104.417 87.6 99.6073 87.082 97.3133 84.64L101.087 78.646C102.345 78.942 103.603 79.756 105.971 79.756C108.561 79.756 111.817 78.868 111.669 77.018C111.595 74.65 104.269 73.688 101.087 71.838C95.7593 68.804 94.8713 64.66 96.1293 59.48C97.2393 54.448 101.531 51.414 108.487 51.414C113.149 51.414 117.515 53.042 119.809 54.818L116.331 61.552C114.481 60.368 111.595 59.554 108.265 59.554C105.675 59.554 104.047 60.738 104.047 62.884C104.047 64.808 107.303 66.288 110.929 67.324ZM155.368 58.074H145.6C142.936 58.074 140.124 58.148 138.718 58.222C138.57 60.664 138.718 62.884 138.718 66.214C143.824 65.622 155.22 65.696 155.738 65.696V73.836C155.146 73.836 143.454 74.058 138.792 74.576C138.792 78.498 139.014 84.196 139.236 87.6L131.096 88.044C130.578 85.528 130.652 79.756 130.578 72.06C130.578 69.396 130.504 66.954 130.504 63.846C130.504 60.22 130.652 55.706 130.652 51.932C138.126 49.342 154.406 49.86 155.368 49.86V58.074ZM169.049 48.75C173.711 47.788 178.447 47.492 182.961 48.602C190.287 50.674 193.395 56.742 193.395 62.588C193.395 70.062 184.589 75.464 176.597 75.612C176.523 79.756 176.375 87.822 176.227 88.784L168.013 88.488C168.013 84.418 168.309 77.758 168.309 73.688C168.309 65.844 167.865 57.778 167.199 51.562C167.051 49.786 167.939 49.046 169.049 48.75ZM185.477 61.478C185.477 57.408 181.185 55.484 175.931 56.224C176.079 57.778 176.227 64.512 176.597 67.25C181.333 67.546 185.477 64.29 185.477 61.478Z" fill="#EDF798"/>
<path d="M76.2978 54.744V50.744H72.2978V54.744H76.2978ZM84.5118 54.744H88.5118V50.744H84.5118V54.744ZM84.1418 84.048L84.2173 88.0473L87.4538 87.9862L88.069 84.8081L84.1418 84.048ZM76.2978 84.196H72.2978V88.2722L76.3733 88.1953L76.2978 84.196ZM76.2978 58.744H84.5118V50.744H76.2978V58.744ZM80.5118 54.744C80.5118 55.1036 80.5891 57.7941 80.661 60.7699C80.7352 63.8377 80.8078 67.3427 80.8078 69.544H88.8078C88.8078 67.2313 88.7325 63.6323 88.6587 60.5766C88.6216 59.0411 88.5845 57.6288 88.5567 56.567C88.5428 56.0349 88.5314 55.5935 88.5234 55.2668C88.5194 55.1033 88.5163 54.9724 88.5143 54.8753C88.512 54.7631 88.5118 54.7324 88.5118 54.744H80.5118ZM80.8078 69.544C80.8078 75.5705 80.5713 81.4458 80.2147 83.2879L88.069 84.8081C88.6004 82.0622 88.8078 75.3575 88.8078 69.544H80.8078ZM84.0664 80.0487L76.2224 80.1967L76.3733 88.1953L84.2173 88.0473L84.0664 80.0487ZM80.2978 84.196C80.2978 84.212 80.3004 84.0744 80.3094 83.694C80.3175 83.3555 80.329 82.8873 80.3429 82.3203C80.3706 81.1882 80.4077 79.6705 80.4448 78.0434C80.5185 74.8093 80.5938 71.0787 80.5938 69.1H72.5938C72.5938 70.9693 72.5212 74.6017 72.4469 77.8611C72.3747 81.028 72.2978 83.9509 72.2978 84.196H80.2978ZM80.5938 69.1C80.5938 67.1907 80.5183 63.7887 80.4446 60.7968C80.3689 57.7188 80.2978 55.1594 80.2978 54.744H72.2978C72.2978 55.2906 72.3748 58.0592 72.4471 60.9937C72.5214 64.0143 72.5938 67.3093 72.5938 69.1H80.5938ZM110.929 67.324L109.83 71.1701L109.851 71.176L109.872 71.1816L110.929 67.324ZM97.3133 84.64L93.9283 82.5087L92.2809 85.1252L94.3979 87.3787L97.3133 84.64ZM101.087 78.646L102.003 74.7523L99.2238 74.0983L97.7023 76.5147L101.087 78.646ZM111.669 77.018L107.671 77.1429L107.674 77.2401L107.682 77.337L111.669 77.018ZM101.087 71.838L103.098 68.38L103.082 68.3709L103.067 68.3621L101.087 71.838ZM96.1293 59.48L100.016 60.424L100.026 60.3829L100.035 60.3416L96.1293 59.48ZM119.809 54.818L123.363 56.6536L124.892 53.6941L122.258 51.6551L119.809 54.818ZM116.331 61.552L114.175 64.9211L117.871 67.2867L119.885 63.3876L116.331 61.552ZM109.872 71.1816C111.972 71.7576 113.628 72.4734 114.717 73.4018C115.635 74.1845 116.253 75.1848 116.253 76.944H124.253C124.253 72.7092 122.504 69.5285 119.907 67.3142C117.481 65.2455 114.474 64.1484 111.987 63.4664L109.872 71.1816ZM116.253 76.944C116.253 78.6673 115.425 80.2162 113.728 81.4651C111.979 82.7533 109.416 83.6 106.563 83.6V91.6C110.889 91.6 115.171 90.3377 118.472 87.9074C121.826 85.4378 124.253 81.6587 124.253 76.944H116.253ZM106.563 83.6C105.748 83.6 104.339 83.4954 102.954 83.1528C101.473 82.7863 100.592 82.2881 100.229 81.9013L94.3979 87.3787C96.3286 89.4339 99 90.4157 101.033 90.9187C103.163 91.4456 105.233 91.6 106.563 91.6V83.6ZM100.698 86.7713L104.472 80.7773L97.7023 76.5147L93.9283 82.5087L100.698 86.7713ZM100.171 82.5397C100.254 82.5592 100.39 82.6001 100.709 82.7134C100.978 82.809 101.438 82.9791 101.917 83.1291C102.971 83.4591 104.288 83.756 105.971 83.756V75.756C105.287 75.756 104.791 75.6459 104.309 75.4949C104.02 75.4044 103.782 75.3155 103.388 75.1753C103.043 75.0527 102.55 74.8808 102.003 74.7523L100.171 82.5397ZM105.971 83.756C107.631 83.756 109.631 83.4839 111.348 82.7883C112.201 82.443 113.247 81.8884 114.111 80.9754C115.052 79.9811 115.801 78.508 115.657 76.699L107.682 77.337C107.651 76.9515 107.711 76.554 107.855 76.1909C107.993 75.8431 108.175 75.609 108.3 75.4772C108.514 75.251 108.612 75.2653 108.346 75.3732C108.117 75.4656 107.766 75.5674 107.312 75.6437C106.867 75.7185 106.4 75.756 105.971 75.756V83.756ZM115.667 76.8931C115.58 74.0999 113.424 72.6049 112.503 72.0478C111.36 71.3556 109.982 70.8414 108.841 70.4501C108.239 70.2435 107.618 70.0439 107.038 69.8575C106.445 69.6667 105.892 69.4891 105.364 69.3091C104.256 68.931 103.525 68.6287 103.098 68.38L99.0768 75.296C100.24 75.9723 101.619 76.484 102.781 76.8806C103.389 77.0879 104.012 77.2879 104.59 77.4737C105.182 77.6639 105.729 77.8401 106.246 78.0174C107.344 78.3938 108.011 78.6797 108.361 78.8918C108.934 79.2389 107.722 78.7521 107.671 77.1429L115.667 76.8931ZM103.067 68.3621C101.029 67.2019 100.247 66.0829 99.9089 65.128C99.5379 64.0808 99.4839 62.6161 100.016 60.424L92.2423 58.536C91.5166 61.5239 91.2776 64.7212 92.3681 67.7994C93.4913 70.9701 95.8172 73.4401 99.1079 75.3139L103.067 68.3621ZM100.035 60.3416C100.378 58.79 101.151 57.6773 102.335 56.8882C103.586 56.0539 105.562 55.414 108.487 55.414V47.414C104.456 47.414 100.808 48.2911 97.8972 50.2318C94.9184 52.2176 92.9909 55.138 92.2232 58.6184L100.035 60.3416ZM108.487 55.414C112.373 55.414 115.85 56.8113 117.361 57.9809L122.258 51.6551C119.181 49.2727 113.926 47.414 108.487 47.414V55.414ZM116.255 52.9824L112.777 59.7164L119.885 63.3876L123.363 56.6536L116.255 52.9824ZM118.487 58.1829C115.847 56.4928 112.164 55.554 108.265 55.554V63.554C111.027 63.554 113.116 64.2432 114.175 64.9211L118.487 58.1829ZM108.265 55.554C106.427 55.554 104.401 55.9661 102.74 57.2482C100.941 58.6379 100.047 60.6873 100.047 62.884H108.047C108.047 62.8589 108.05 62.972 107.965 63.1532C107.877 63.3417 107.747 63.4894 107.63 63.5803C107.524 63.6617 107.486 63.654 107.591 63.6247C107.698 63.5948 107.915 63.554 108.265 63.554V55.554ZM100.047 62.884C100.047 66.211 102.742 68.0914 104.111 68.8912C105.808 69.8817 107.903 70.6196 109.83 71.1701L112.028 63.4779C110.329 62.9924 108.984 62.4723 108.146 61.9828C107.727 61.7383 107.622 61.6081 107.66 61.6522C107.722 61.7253 108.047 62.157 108.047 62.884H100.047ZM155.368 58.074V62.074H159.368V58.074H155.368ZM138.718 58.222L138.508 54.2275L134.941 54.4152L134.725 57.98L138.718 58.222ZM138.718 66.214H134.718V70.7046L139.179 70.1874L138.718 66.214ZM155.738 65.696H159.738V61.696H155.738V65.696ZM155.738 73.836V77.836H159.738V73.836H155.738ZM138.792 74.576L138.35 70.6005L134.792 70.9958V74.576H138.792ZM139.236 87.6L139.454 91.5941L143.491 91.3739L143.228 87.3397L139.236 87.6ZM131.096 88.044L127.178 88.8506L127.873 92.2257L131.314 92.0381L131.096 88.044ZM130.578 72.06H126.578V72.0792L126.578 72.0985L130.578 72.06ZM130.652 51.932L129.342 48.1525L126.652 49.0848V51.932H130.652ZM155.368 49.86H159.368V45.86H155.368V49.86ZM155.368 54.074H145.6V62.074H155.368V54.074ZM145.6 54.074C142.885 54.074 140.001 54.149 138.508 54.2275L138.928 62.2165C140.247 62.147 142.987 62.074 145.6 62.074V54.074ZM134.725 57.98C134.569 60.5647 134.718 63.2185 134.718 66.214H142.718C142.718 62.5495 142.571 60.7633 142.711 58.464L134.725 57.98ZM139.179 70.1874C143.99 69.6296 155.067 69.696 155.738 69.696V61.696C155.373 61.696 143.658 61.6144 138.257 62.2406L139.179 70.1874ZM151.738 65.696V73.836H159.738V65.696H151.738ZM155.738 69.836C155.137 69.836 143.252 70.0559 138.35 70.6005L139.234 78.5515C141.387 78.3123 145.322 78.1305 148.926 78.0095C150.699 77.9499 152.347 77.9064 153.588 77.8777C154.209 77.8634 154.726 77.8528 155.105 77.8459C155.294 77.8424 155.447 77.8398 155.56 77.8382C155.617 77.8374 155.661 77.8368 155.695 77.8364C155.732 77.836 155.743 77.836 155.738 77.836V69.836ZM134.792 74.576C134.792 78.6001 135.018 84.3863 135.244 87.8603L143.228 87.3397C143.01 84.0057 142.792 78.3959 142.792 74.576H134.792ZM139.018 83.6059L130.878 84.0499L131.314 92.0381L139.454 91.5941L139.018 83.6059ZM135.014 87.2374C134.841 86.3981 134.726 84.6949 134.67 81.9129C134.615 79.2187 134.615 75.9302 134.578 72.0215L126.578 72.0985C126.615 75.8858 126.615 79.3313 126.671 82.0761C126.726 84.7331 126.833 87.1739 127.178 88.8506L135.014 87.2374ZM134.578 72.06C134.578 70.695 134.559 69.3895 134.541 68.0639C134.522 66.7321 134.504 65.3694 134.504 63.846H126.504C126.504 65.4306 126.523 66.8429 126.541 68.175C126.56 69.5135 126.578 70.761 126.578 72.06H134.578ZM134.504 63.846C134.504 62.0762 134.54 60.0799 134.577 58.0166C134.614 55.9708 134.652 53.8616 134.652 51.932H126.652C126.652 53.7764 126.616 55.8112 126.579 57.8724C126.542 59.9161 126.504 61.9898 126.504 63.846H134.504ZM131.962 55.7115C135.068 54.635 140.451 54.1172 145.604 53.9219C150.63 53.7313 154.734 53.86 155.368 53.86V45.86C155.371 45.86 155.353 45.8599 155.295 45.8591C155.242 45.8583 155.174 45.8571 155.087 45.8555C154.916 45.8524 154.683 45.848 154.402 45.8433C153.84 45.8341 153.079 45.8237 152.17 45.8196C150.353 45.8113 147.935 45.8277 145.3 45.9276C140.204 46.1208 133.71 46.639 129.342 48.1525L131.962 55.7115ZM151.368 49.86V58.074H159.368V49.86H151.368ZM169.049 48.75L168.241 44.8325L168.129 44.8556L168.019 44.8851L169.049 48.75ZM182.961 48.602L184.05 44.753L183.984 44.7342L183.916 44.7177L182.961 48.602ZM176.597 75.612L176.523 71.6127L172.667 71.6841L172.598 75.5406L176.597 75.612ZM176.227 88.784L176.083 92.7814L179.64 92.9096L180.181 89.3922L176.227 88.784ZM168.013 88.488H164.013V92.3465L167.869 92.4854L168.013 88.488ZM167.199 51.562L163.213 51.8942L163.217 51.9412L163.222 51.9881L167.199 51.562ZM175.931 56.224L175.373 52.2631L171.587 52.7964L171.949 56.6032L175.931 56.224ZM176.597 67.25L172.633 67.7857L173.073 71.0375L176.348 71.2422L176.597 67.25ZM169.858 52.6675C174.186 51.7742 178.275 51.5688 182.006 52.4863L183.916 44.7177C178.62 43.4152 173.236 43.8018 168.241 44.8325L169.858 52.6675ZM181.873 52.451C187.144 53.9418 189.395 58.1606 189.395 62.588H197.395C197.395 55.3234 193.431 47.4062 184.05 44.753L181.873 52.451ZM189.395 62.588C189.395 64.6284 188.197 66.7724 185.657 68.6006C183.126 70.422 179.718 71.5535 176.523 71.6127L176.671 79.6113C181.469 79.5225 186.46 77.879 190.33 75.0939C194.191 72.3156 197.395 68.0216 197.395 62.588H189.395ZM172.598 75.5406C172.561 77.6136 172.506 80.6538 172.441 83.2937C172.409 84.6153 172.375 85.8228 172.34 86.7529C172.3 87.8243 172.267 88.2214 172.274 88.1758L180.181 89.3922C180.262 88.8656 180.303 87.8937 180.334 87.0526C180.371 86.0703 180.406 84.822 180.439 83.4888C180.504 80.8192 180.56 77.7544 180.597 75.6834L172.598 75.5406ZM176.371 84.7866L168.157 84.4906L167.869 92.4854L176.083 92.7814L176.371 84.7866ZM172.013 88.488C172.013 86.5206 172.085 83.901 172.16 81.1983C172.233 78.536 172.309 75.7906 172.309 73.688H164.309C164.309 75.6554 164.237 78.275 164.163 80.9777C164.089 83.64 164.013 86.3854 164.013 88.488H172.013ZM172.309 73.688C172.309 65.7122 171.859 57.5035 171.177 51.1359L163.222 51.9881C163.872 58.0525 164.309 65.9758 164.309 73.688H172.309ZM171.186 51.2298C171.172 51.0639 171.236 51.5041 170.821 52.043C170.445 52.5308 170.034 52.6273 170.08 52.6149L168.019 44.8851C166.955 45.1687 165.545 45.7831 164.485 47.159C163.385 48.5859 163.079 50.2841 163.213 51.8942L171.186 51.2298ZM189.477 61.478C189.477 57.7501 187.385 54.9847 184.516 53.4965C181.831 52.1036 178.542 51.8168 175.373 52.2631L176.489 60.1849C178.575 59.8912 180.058 60.1964 180.833 60.598C181.19 60.7833 181.327 60.9496 181.376 61.0245C181.413 61.0801 181.477 61.1951 181.477 61.478H189.477ZM171.949 56.6032C172.011 57.2498 172.077 59.1199 172.185 61.4761C172.285 63.6465 172.42 66.2057 172.633 67.7857L180.561 66.7143C180.405 65.5563 180.281 63.3795 180.177 61.1099C180.081 59.0261 180 56.7522 179.913 55.8448L171.949 56.6032ZM176.348 71.2422C179.68 71.4505 182.781 70.419 185.092 68.8169C187.233 67.3331 189.477 64.7592 189.477 61.478H181.477C181.477 61.2 181.572 61.172 181.424 61.3941C181.284 61.6049 181.001 61.9186 180.535 62.2421C179.59 62.897 178.251 63.3455 176.847 63.2578L176.348 71.2422Z" fill="#FF7989" mask="url(#path-1-outside-1_1025_1662)"/>
<path d="M109.129 37.9115C108.815 37.9413 108.501 37.9768 108.186 38.0009C107.958 38.0168 107.719 38.1054 107.503 37.9453C107.487 37.9324 107.455 37.9326 107.435 37.9373C107.089 38.0562 106.756 37.8957 106.427 37.8581C105.953 37.8055 105.467 37.737 105.022 37.4954C104.703 37.3193 104.348 37.201 104.069 36.9608C103.816 36.744 103.537 36.501 103.398 36.239C103.22 35.8947 102.894 35.5816 102.942 35.1385C102.949 35.0632 102.922 34.9856 102.855 34.9288C102.833 34.9109 102.804 34.8792 102.804 34.8534C102.821 34.4791 102.672 34.1264 102.665 33.7544C102.658 33.3681 102.566 32.9812 102.57 32.5939C102.573 32.1693 102.564 31.7373 102.612 31.3228C102.656 30.9288 102.641 30.5175 102.771 30.1382C102.908 29.7411 103.011 29.33 103.196 28.9484C103.298 28.738 103.385 28.5148 103.454 28.2933C103.526 28.0658 103.679 27.9079 103.808 27.7323C103.916 27.5844 104.059 27.462 104.157 27.3007C104.268 27.1182 104.489 27.083 104.646 26.9591C104.816 26.8254 105.052 26.826 105.218 26.7357C105.497 26.5831 105.808 26.6311 106.061 26.5153C106.24 26.4353 106.444 26.5048 106.597 26.3671C106.624 26.3416 106.702 26.3371 106.73 26.3573C106.933 26.5072 107.157 26.4401 107.369 26.4085C107.59 26.3761 107.762 26.4974 107.948 26.5572C108.143 26.619 108.332 26.7673 108.507 26.8109C108.802 26.8804 109.062 27.0134 109.339 27.1104C109.613 27.2049 109.81 27.3896 109.978 27.6174C110.295 28.0517 110.252 28.5747 110.221 29.0477C110.195 29.4458 110.068 29.862 109.996 30.2644C109.907 30.7659 109.63 31.1648 109.473 31.6212C109.441 31.7131 109.354 31.7843 109.298 31.8642C109.174 32.0364 108.986 32.1689 108.969 32.4114C108.962 32.4952 108.878 32.5948 108.793 32.6172C108.6 32.6699 108.5 32.8141 108.391 32.9535C108.119 33.2975 107.746 33.4532 107.314 33.4971C106.827 33.5433 106.343 33.5949 105.855 33.6354C105.673 33.6526 105.607 33.7191 105.627 33.9007C105.679 34.363 105.729 34.8283 105.759 35.2928C105.767 35.4439 105.893 35.5123 105.94 35.634C106.138 36.1598 106.459 36.5967 106.937 36.9125C106.968 36.9325 107.006 36.969 107.037 36.9632C107.473 36.896 107.898 37.1052 108.342 37C108.47 36.9707 108.556 36.8938 108.633 36.8233C108.834 36.6409 109.105 36.618 109.322 36.4799C109.563 36.3223 110.039 36.3948 110.26 36.5831C110.384 36.6889 110.556 36.7585 110.699 36.7565C110.893 36.7524 111.04 36.8589 111.217 36.8794C111.355 36.8949 111.38 37.0359 111.297 37.1097C110.945 37.4268 110.659 37.8438 110.091 37.8346C109.77 37.8306 109.447 37.8899 109.127 37.9203L109.129 37.9115ZM107.405 28.1308C107.42 27.923 107.236 27.7999 107.151 27.636C107.137 27.6087 107.04 27.4746 106.921 27.5775C106.629 27.8375 106.449 28.1756 106.285 28.5093C106.156 28.771 106.046 29.0537 105.959 29.3343C105.864 29.65 105.629 29.9332 105.709 30.2924C105.72 30.3459 105.69 30.3946 105.675 30.4477C105.6 30.7013 105.519 30.9555 105.518 31.2221C105.517 31.3312 105.526 31.4278 105.457 31.5318C105.384 31.6448 105.409 31.7256 105.569 31.7878C105.738 31.8548 105.975 31.8296 106.054 32.0801C106.083 32.1748 106.15 32.0881 106.184 32.0391C106.355 31.7935 106.474 31.5128 106.677 31.2872C106.745 31.2119 106.774 31.1146 106.802 31.0172C106.911 30.6572 107.113 30.3342 107.191 29.9571C107.269 29.5827 107.395 29.2268 107.332 28.8372C107.311 28.7102 107.266 28.5711 107.351 28.4513C107.422 28.3499 107.41 28.2479 107.399 28.1342L107.405 28.1308Z" fill="#64B4F7"/>
<path d="M118.747 38.5821C118.511 38.6045 118.277 38.6266 118.041 38.6491C117.856 38.6637 117.666 38.719 117.497 38.586C117.462 38.5578 117.39 38.5703 117.336 38.5783C116.988 38.6285 116.668 38.5327 116.349 38.4168C116.306 38.4007 116.253 38.3943 116.211 38.4041C115.992 38.4564 115.812 38.3731 115.641 38.2546C115.616 38.2369 115.583 38.1998 115.566 38.2043C115.262 38.2847 115.088 38.0146 114.84 37.9435C114.712 37.907 114.616 37.7584 114.498 37.675C114.096 37.3949 113.815 37.0173 113.6 36.5877C113.546 36.4781 113.45 36.3841 113.373 36.3082C113.164 36.1016 113.192 35.8151 113.112 35.5848C113.009 35.2907 112.938 34.9477 112.956 34.6106C112.975 34.2935 112.832 34.0376 112.643 33.7947C112.447 33.5437 112.54 33.105 112.813 32.9558C112.874 32.9242 112.93 32.8932 112.923 32.8193C112.893 32.5011 113.023 32.1934 112.984 31.8732C112.975 31.7709 112.974 31.6735 113.057 31.5912C113.107 31.5405 113.12 31.4647 113.113 31.3937C113.08 31.0386 113.288 30.7494 113.389 30.4331C113.499 30.0873 113.632 29.7478 113.794 29.4229C113.955 29.0981 114.067 28.7406 114.366 28.4944C114.442 28.4327 114.493 28.3562 114.541 28.2772C114.628 28.1227 114.763 28.0496 114.918 27.9633C115.128 27.8459 115.391 27.8611 115.563 27.6785C115.574 27.6689 115.588 27.659 115.602 27.6548C116.185 27.459 116.787 27.3016 117.403 27.3522C117.6 27.3679 117.833 27.4088 118.043 27.5064C118.193 27.5754 118.385 27.5744 118.556 27.6299C118.655 27.6606 118.755 27.6712 118.823 27.7507C118.993 27.9496 119.257 27.8787 119.471 27.9587C120.014 28.1623 120.484 28.4532 120.739 28.9565C120.875 29.2274 120.909 29.5825 120.794 29.9059C120.771 29.9739 120.736 30.0374 120.752 30.1076C120.835 30.5212 120.589 30.8511 120.464 31.2128C120.302 31.6811 119.959 32.0547 119.769 32.5056C119.745 32.5623 119.691 32.576 119.644 32.6005C119.472 32.6914 119.338 32.8417 119.287 33.0099C119.238 33.1693 119.139 33.2562 119.025 33.35C118.812 33.5279 118.606 33.7137 118.38 33.8785C118.083 34.0929 117.826 34.3266 117.426 34.4362C116.975 34.5592 116.528 34.6044 116.078 34.6729C115.96 34.6898 115.917 34.757 115.928 34.8678C115.958 35.1859 115.948 35.5137 116.038 35.8147C116.094 36.0072 116.164 36.2213 116.299 36.3863C116.354 36.4526 116.37 36.5228 116.377 36.5996C116.386 36.6905 116.432 36.7463 116.499 36.8116C116.738 37.0326 116.889 37.3364 117.206 37.4898C117.374 37.5714 117.571 37.4954 117.717 37.6221C117.723 37.6272 117.751 37.6188 117.759 37.6094C117.889 37.4193 118.09 37.3545 118.294 37.2692C118.414 37.2176 118.525 37.1556 118.66 37.1399C118.721 37.1341 118.799 37.1296 118.839 37.0942C119.086 36.8787 119.336 36.9038 119.588 37.072C119.836 37.2348 120.127 37.2932 120.398 37.3964C120.519 37.4423 120.633 37.5089 120.762 37.5455C120.881 37.58 120.901 37.7615 120.786 37.7983C120.549 37.8809 120.442 38.1004 120.234 38.2146C119.961 38.3667 119.714 38.5305 119.383 38.5361C119.171 38.539 118.959 38.5735 118.748 38.5934L118.747 38.5821ZM117.884 29.4794C117.816 29.2451 117.919 28.9229 117.684 28.6528C117.521 28.4676 117.494 28.43 117.333 28.6316C117.104 28.9171 116.84 29.1714 116.681 29.5219C116.568 29.7734 116.432 30.027 116.295 30.2694C116.207 30.421 116.293 30.5877 116.209 30.7161C116.034 30.9878 115.997 31.3038 115.932 31.5994C115.86 31.9158 115.752 32.25 115.849 32.5934C115.892 32.7413 115.735 32.8938 115.888 33.0656C116.025 33.2217 116.057 33.2588 116.21 33.0923C116.587 32.6782 116.93 32.2387 117.222 31.7638C117.303 31.6329 117.442 31.5394 117.486 31.3862C117.561 31.1354 117.722 30.9281 117.777 30.6534C117.835 30.367 117.987 30.1032 117.92 29.7914C117.9 29.7101 117.904 29.6209 117.89 29.4789L117.884 29.4794Z" fill="#64B4F7"/>
<path d="M75.4119 23.3661C75.5618 23.3518 75.7123 23.3433 75.8588 23.3237C76.2982 23.262 76.6945 23.4222 77.0914 23.5565C77.1753 23.583 77.2483 23.6162 77.3351 23.6108C77.4245 23.6023 77.5147 23.6024 77.5768 23.6739C77.7985 23.9252 78.1293 23.977 78.4211 24.0783C78.6379 24.1552 78.7805 24.3395 79.0171 24.3801C79.1501 24.4019 79.1108 24.8156 79.0001 24.9063C78.7052 25.1407 78.3332 25.1759 78.0186 25.1112C77.7337 25.0522 77.4218 25.1391 77.1581 24.9663C77.1145 24.936 77.0343 24.9494 76.974 24.958C76.8165 24.9844 76.6795 24.9515 76.5612 24.8394C76.5002 24.7793 76.4343 24.7282 76.3352 24.7261C76.2654 24.727 76.2019 24.7015 76.2573 24.6103C76.2826 24.5706 76.3223 24.5296 76.2693 24.4916C76.2131 24.4511 76.1384 24.461 76.0931 24.5054C75.9008 24.6871 75.6807 24.8513 75.5381 25.0654C75.3192 25.3958 75.0721 25.7059 74.8248 26.0131C74.6217 26.2646 74.6075 26.5755 74.5063 26.8574C74.3172 27.3799 74.491 27.8937 74.4936 28.4123C74.4944 28.7275 74.5312 29.0537 74.6237 29.3545C74.6996 29.6025 74.8803 29.8204 75.0209 30.045C75.3837 30.6183 75.9005 31.0365 76.4394 31.4412C76.7746 31.6932 77.1054 31.96 77.3983 32.2561C77.6267 32.4867 77.8076 32.7677 77.9929 33.0339C78.0366 33.0957 78.0635 33.1648 78.1239 33.2193C78.2572 33.3357 78.3517 33.4729 78.3461 33.6598C78.3447 33.7373 78.3609 33.816 78.419 33.8764C78.4351 33.8921 78.4666 33.9178 78.4619 33.9297C78.3384 34.3456 78.7446 34.6712 78.6615 35.0832C78.6099 35.3375 78.5581 35.5889 78.4284 35.8162C78.2759 36.0801 78.1604 36.3662 77.9244 36.5778C77.6029 36.8691 77.3263 37.2049 76.9067 37.3823C76.7249 37.4598 76.6176 37.6477 76.4353 37.7509C76.2478 37.8604 76.0361 37.8977 75.8525 38.0183C75.5813 38.196 75.2234 38.1955 74.9475 38.3851C74.9339 38.395 74.9168 38.3994 74.9024 38.4008C74.3208 38.4044 73.7937 38.7983 73.2162 38.6925C72.7781 38.6137 72.2972 38.7281 71.8979 38.4449C71.8357 38.4021 71.7592 38.4236 71.6897 38.4274C71.513 38.4355 71.3945 38.3522 71.3616 38.189C71.3249 38.0176 71.4701 37.9838 71.5996 37.9687C71.7291 37.9535 71.8067 37.8515 71.8908 37.7862C72.1106 37.6192 72.4476 37.6446 72.5893 37.3588C72.6016 37.3347 72.6406 37.3167 72.6663 37.3114C73.0839 37.2661 73.4488 37.0021 73.8892 37.0435C74.0945 37.0613 74.2742 36.9927 74.3905 36.8068C74.474 36.6756 74.631 36.6435 74.7483 36.5607C75.0787 36.3316 75.3037 36.0351 75.5163 35.6996C75.7135 35.3857 75.6792 35.0851 75.7004 34.7563C75.7253 34.344 75.5355 33.9692 75.5613 33.5655C75.5665 33.4675 75.4529 33.4353 75.4223 33.3579C75.1281 32.6491 74.5574 32.1844 73.9757 31.7264C73.5795 31.4143 73.1937 31.0897 72.8268 30.7489C72.4627 30.4079 72.1934 29.992 71.9375 29.5634C71.8026 29.3382 71.7848 29.1192 71.754 28.887C71.7415 28.785 71.7349 28.6853 71.6356 28.6202C71.617 28.6076 71.5973 28.5837 71.5983 28.5636C71.6042 28.3193 71.6015 28.0759 71.5434 27.832C71.5286 27.7675 71.5926 27.6755 71.515 27.5939C71.473 27.5492 71.4591 27.4645 71.4983 27.4178C71.6343 27.2558 71.5798 27.0804 71.5631 26.9043C71.5516 26.7821 71.615 26.6844 71.6397 26.576C71.7499 26.0811 71.9318 25.6367 72.3232 25.2843C72.4493 25.172 72.4482 24.9456 72.5945 24.8314C73.0577 24.4693 73.4163 23.9853 73.935 23.6867C73.9544 23.6762 73.9761 23.6599 73.9992 23.6577C74.4721 23.5813 74.9019 23.2969 75.4035 23.3697L75.4119 23.3661Z" fill="#64B4F7"/>
<path d="M127.707 39.5091C127.579 39.5091 127.451 39.5091 127.323 39.5091C127.237 39.5091 127.154 39.5042 127.087 39.4351C127.041 39.3832 126.972 39.3783 126.908 39.3857C126.738 39.4054 126.606 39.3387 126.493 39.2202C126.468 39.1955 126.448 39.1535 126.409 39.1782C126.362 39.2054 126.32 39.2721 126.266 39.2054C126.178 39.0918 126.016 39.0276 126.006 38.8597C125.996 38.7189 126.001 38.5757 126.003 38.4325C126.003 38.3905 126.011 38.3362 126.035 38.314C126.139 38.2177 126.121 38.0967 126.124 37.9757C126.129 37.8226 126.092 37.6621 126.185 37.5189C126.126 37.2719 126.296 37.0497 126.254 36.8003C126.234 36.6842 126.234 36.5583 126.293 36.4447C126.311 36.4101 126.306 36.3756 126.289 36.3435C126.274 36.3114 126.252 36.2719 126.276 36.2422C126.394 36.1114 126.357 35.9484 126.37 35.7978C126.382 35.6422 126.377 35.4841 126.375 35.3286C126.375 35.2002 126.382 35.0792 126.436 34.9557C126.5 34.81 126.458 34.6471 126.465 34.4915C126.47 34.3507 126.446 34.2075 126.564 34.0915C126.606 34.0519 126.591 33.9828 126.593 33.926C126.593 33.7902 126.593 33.6569 126.596 33.521C126.596 33.4643 126.588 33.3951 126.615 33.3556C126.694 33.242 126.756 33.1408 126.638 33.0198C126.63 33.0124 126.63 32.9877 126.638 32.9803C126.775 32.8198 126.706 32.6272 126.719 32.4469C126.726 32.3407 126.711 32.2345 126.802 32.1506C126.842 32.116 126.851 32.0518 126.819 32.0123C126.758 31.9407 126.714 31.8839 126.802 31.7999C126.829 31.7728 126.795 31.7283 126.758 31.7234C126.665 31.711 126.591 31.6493 126.502 31.6197C126.343 31.5629 126.247 31.4567 126.23 31.2789C126.22 31.1703 126.22 31.0665 126.242 30.9604C126.264 30.8641 126.32 30.7702 126.404 30.7505C126.554 30.7134 126.665 30.5752 126.834 30.59C126.918 30.5974 126.964 30.5406 126.964 30.4566C126.964 30.3603 126.994 30.2764 127.048 30.1974C127.082 30.143 127.082 30.0764 127.082 30.0122C127.082 29.8121 127.09 29.6146 127.095 29.4146C127.095 29.3158 127.1 29.2195 127.151 29.1257C127.21 29.022 127.181 28.9034 127.188 28.7898C127.198 28.6096 127.154 28.4244 127.291 28.2614C127.353 28.1898 127.311 28.0688 127.316 27.97C127.323 27.8169 127.294 27.6564 127.412 27.5231C127.454 27.4762 127.436 27.3996 127.441 27.3354C127.446 27.2441 127.431 27.1478 127.517 27.0811C127.532 27.0712 127.547 27.0317 127.542 27.0268C127.404 26.8934 127.586 26.7872 127.572 26.6613C127.557 26.5354 127.572 26.4045 127.572 26.2786C127.572 26.2563 127.572 26.2316 127.581 26.2168C127.748 26.0045 127.677 25.7551 127.692 25.518C127.699 25.4192 127.709 25.3254 127.748 25.2291C127.81 25.0834 127.807 24.9229 127.812 24.7673C127.817 24.5402 127.812 24.313 127.815 24.0833C127.815 23.987 127.795 23.8808 127.881 23.8018C127.891 23.792 127.903 23.7697 127.901 23.7673C127.763 23.6438 127.933 23.5426 127.923 23.424C127.913 23.2981 127.935 23.1697 127.948 23.0413C127.962 22.8734 128.058 22.7203 128.053 22.545C128.053 22.5178 128.09 22.4882 128.115 22.4635C128.324 22.2585 128.55 22.1029 128.862 22.0857C129.046 22.0733 129.226 21.9869 129.422 22.0017C129.543 22.0091 129.646 22.0313 129.72 22.1326C129.803 22.2511 129.948 22.2684 130.061 22.3252C130.248 22.4165 130.432 22.5153 130.617 22.6092C130.73 22.6659 130.747 22.7499 130.668 22.8462C130.636 22.8857 130.604 22.94 130.565 22.9499C130.403 22.9894 130.388 23.1129 130.346 23.2462C130.258 23.5179 130.258 23.7944 130.246 24.0735C130.241 24.1648 130.248 24.2562 130.172 24.3303C130.11 24.3895 130.125 24.476 130.125 24.5525C130.123 24.8661 130.12 25.1797 130.12 25.4908C130.12 25.597 130.13 25.7032 130.039 25.7872C129.99 25.8341 129.997 25.9057 129.997 25.9699C129.997 26.1255 129.997 26.2835 129.992 26.4391C129.992 26.5601 130.002 26.6811 129.904 26.7774C129.862 26.8193 129.872 26.8835 129.87 26.9403C129.867 27.0761 129.865 27.2095 129.865 27.3453C129.865 27.4391 129.87 27.5305 129.793 27.6046C129.774 27.6243 129.754 27.654 129.757 27.6787C129.779 27.9379 129.616 28.1676 129.646 28.4293C129.658 28.5281 129.646 28.6293 129.646 28.7281C129.646 28.7849 129.653 28.854 129.624 28.896C129.496 29.0812 129.528 29.2911 129.523 29.4936C129.521 29.6072 129.53 29.7208 129.43 29.8097C129.39 29.8442 129.398 29.901 129.398 29.9504C129.398 29.9998 129.395 30.0541 129.444 30.0838C129.501 30.1183 129.555 30.1035 129.597 30.0566C129.634 30.0196 129.673 29.985 129.725 29.9924C129.872 30.0097 129.973 29.9257 130.081 29.8442C130.241 29.7232 130.442 29.6961 130.629 29.6418C130.703 29.6195 130.784 29.6269 130.84 29.5627C130.855 29.5479 130.877 29.5282 130.894 29.5306C131.172 29.5578 131.406 29.3405 131.688 29.3849C131.772 29.3973 131.858 29.3849 131.944 29.3849C132.03 29.3849 132.106 29.3701 132.182 29.3183C132.31 29.2319 132.426 29.2442 132.549 29.3528C132.767 29.5455 133.023 29.6689 133.288 29.7751C133.384 29.8146 133.456 29.8986 133.569 29.9159C133.64 29.9257 133.66 30.0294 133.605 30.0912C133.522 30.1875 133.436 30.2838 133.288 30.2788C133.21 30.2764 133.134 30.2813 133.055 30.2813C132.957 30.2813 132.856 30.2813 132.77 30.3406C132.716 30.3776 132.647 30.3825 132.585 30.3751C132.423 30.3554 132.295 30.4171 132.19 30.5307C132.133 30.5924 132.072 30.6295 131.988 30.6295C131.924 30.6295 131.863 30.6418 131.816 30.6937C131.794 30.7184 131.76 30.7381 131.725 30.7455C131.391 30.8171 131.101 30.9777 130.828 31.1752C130.816 31.1826 130.806 31.1999 130.794 31.1999C130.604 31.1925 130.469 31.3629 130.28 31.3579C130.246 31.3579 130.199 31.3579 130.177 31.3752C130.037 31.516 129.862 31.4715 129.695 31.4789C129.661 31.4789 129.624 31.4789 129.589 31.4789C129.297 31.4789 129.245 31.5258 129.181 31.8148C129.14 31.995 129.181 32.1851 129.098 32.358C129.086 32.3827 129.11 32.4247 129.12 32.4568C129.142 32.521 129.152 32.5901 129.103 32.637C129.014 32.7235 129.024 32.8296 129.022 32.9358C129.022 33.1136 129.017 33.2914 129.017 33.4692C129.017 33.5902 128.99 33.7038 128.958 33.8198C128.901 34.0297 128.886 34.2544 128.901 34.4742C128.909 34.5829 128.923 34.6816 128.842 34.773C128.776 34.8471 128.8 34.9483 128.796 35.0397C128.788 35.1656 128.82 35.299 128.702 35.3953C128.687 35.4076 128.675 35.4397 128.682 35.452C128.773 35.6323 128.66 35.8076 128.668 35.9879C128.68 36.2299 128.668 36.4719 128.668 36.7139C128.668 36.8003 128.668 36.8842 128.596 36.9509C128.545 36.9978 128.542 37.067 128.55 37.1312C128.577 37.309 128.545 37.4868 128.545 37.6621C128.545 37.8251 128.56 37.988 128.449 38.1313C128.41 38.1831 128.422 38.2547 128.419 38.3189C128.419 38.4967 128.417 38.6745 128.419 38.8523C128.419 39.0301 128.402 39.198 128.309 39.3634C128.255 39.4597 128.198 39.4993 128.097 39.4968C127.962 39.4968 127.83 39.4968 127.694 39.4968L127.707 39.5091Z" fill="#64B4F7"/>
<path d="M87.1813 34.0284C87.2226 33.8827 87.3082 33.7757 87.4263 33.6984C87.447 33.6836 87.4824 33.6687 87.4824 33.6509C87.4972 33.2288 87.8426 32.9732 88.002 32.6224C88.1585 32.2776 88.3681 31.9447 88.5895 31.6267C88.7342 31.4216 88.8907 31.2225 88.997 30.9847C89.0855 30.7885 89.2449 30.628 89.3601 30.4377C89.6169 30.0097 89.8915 29.5906 90.1927 29.1923C90.3905 28.9308 90.5912 28.6692 90.7536 28.3868C90.8835 28.1609 91.0872 27.9915 91.1876 27.7448C91.3382 27.3673 91.908 27.2068 92.3508 27.394C92.5782 27.4892 92.8114 27.5724 93.0564 27.617C93.0742 27.6199 93.0978 27.617 93.1037 27.6229C93.2188 27.7864 93.3989 27.8429 93.5731 27.8756C93.8093 27.9202 93.9215 28.1134 94.0839 28.2471C94.2374 28.372 94.2758 28.5384 94.2728 28.7346C94.2669 30.1583 94.258 31.5791 94.2817 32.9999C94.2876 33.318 94.4027 33.636 94.4913 33.9451C94.5297 34.0848 94.444 34.2275 94.5533 34.3732C94.6153 34.4564 94.5621 34.6199 94.5917 34.7388C94.6212 34.8547 94.7718 34.9201 94.7511 35.0806C94.8101 34.5902 95.1762 34.2454 95.2884 33.7817C95.3593 33.4874 95.4656 33.1753 95.6457 32.9048C95.7549 32.7413 95.7578 32.5244 95.8464 32.3341C96.0678 31.8526 96.1948 31.3384 96.3395 30.8301C96.4103 30.5834 96.5314 30.3159 96.6849 30.087C96.7616 29.9741 96.7321 29.8403 96.7794 29.7274C96.865 29.5312 96.9801 29.3469 97.0451 29.1448C97.1691 28.7762 97.3698 28.4433 97.4673 28.0628C97.5263 27.831 97.6798 27.6229 97.7891 27.403C97.9898 27.0017 98.2437 26.6272 98.3293 26.1754C98.35 26.0594 98.4179 26 98.536 26C98.8017 26 99.0674 26 99.3331 26C99.4247 26 99.4778 26.0565 99.5457 26.11C99.6284 26.1783 99.6992 26.3686 99.8528 26.1843C99.8793 26.1546 99.9207 26.2051 99.959 26.2229C100.219 26.3537 100.482 26.4756 100.741 26.6064C101.016 26.7431 101.131 27.0136 101.264 27.2662C101.273 27.2841 101.249 27.3346 101.229 27.3495C100.942 27.5278 100.868 27.8756 100.644 28.1044C100.499 28.2531 100.558 28.476 100.431 28.6484C100.254 28.8921 100.092 29.1804 100.018 29.4628C99.9354 29.7868 99.7317 30.0632 99.7051 30.3961C99.6933 30.5269 99.6136 30.6042 99.5487 30.6993C99.401 30.9252 99.3892 31.2046 99.2623 31.4365C99.0704 31.7872 98.9552 32.1825 98.8549 32.557C98.7604 32.9078 98.5685 33.208 98.4799 33.5587C98.4061 33.8471 98.2851 34.1502 98.1286 34.4326C97.9898 34.6823 97.8983 34.9855 97.8038 35.2679C97.6326 35.7821 97.3757 36.2487 97.1366 36.7273C96.9594 37.081 96.8177 37.4496 96.4871 37.6963C96.4487 37.726 96.4133 37.7825 96.3749 37.7854C96.0442 37.8241 95.749 38.0232 95.3947 37.9608C95.1762 37.9252 94.9459 37.9668 94.7216 37.9489C94.4529 37.9281 94.199 37.8687 94.078 37.5685C94.0455 37.4852 93.954 37.405 93.8713 37.3663C93.3103 37.0988 92.8675 36.7065 92.5516 36.1685C92.4601 36.0109 92.4217 35.8237 92.3715 35.6602C92.2504 35.2649 92.1235 34.8666 92.0379 34.4564C91.97 34.1324 91.9906 33.7698 91.7987 33.4696C91.7633 33.4131 91.7544 33.3209 91.7663 33.2526C91.8194 32.9048 91.6836 32.5957 91.5478 32.2301C91.4326 32.5808 91.1787 32.8008 91.0636 33.1159C90.9898 33.315 90.8067 33.4428 90.7211 33.6509C90.4849 34.2037 90.1188 34.6853 89.8472 35.2233C89.6376 35.6424 89.4369 36.0704 89.177 36.4717C88.9497 36.8194 88.7283 37.185 88.5423 37.5685C88.4301 37.7973 88.2707 38.0351 88.0876 38.2372C87.878 38.4661 87.6448 38.6653 87.4765 38.9447C87.2728 39.2835 86.8713 39.3341 86.514 39.4054C86.3457 39.4411 86.1656 39.4024 85.9915 39.4173C85.6313 39.4529 85.3154 39.3281 85.0821 39.0814C84.7958 38.7782 84.3913 38.6326 84.1285 38.2997C84.0459 38.1927 83.9898 38.0975 84.0016 37.9638C84.0577 37.2801 83.9543 36.5846 84.0547 35.9129C84.1462 35.3035 84.1433 34.6912 84.2348 34.0819C84.285 33.743 84.2673 33.3923 84.347 33.0624C84.4592 32.5927 84.3529 32.0993 84.4739 31.6564C84.5861 31.2433 84.5064 30.8212 84.6157 30.4377C84.7662 29.9176 84.6157 29.3677 84.7751 28.8921C84.9109 28.4849 84.7544 28.045 85.0113 27.6734C85.0762 27.5783 85.0349 27.4119 85.0408 27.2781C85.0526 27.0106 85.1618 26.8947 85.4246 26.8947C85.894 26.8917 86.3753 26.8323 86.8211 27.0195C87.2934 27.2187 87.8012 27.3584 88.1851 27.7359C88.2648 27.8161 88.3061 27.8964 88.2707 28.0004C88.2382 28.0985 88.1437 28.0925 88.0611 28.1044C87.8928 28.1312 87.7629 28.3957 87.6891 28.6097C87.4972 29.1685 87.6212 29.7482 87.5237 30.301C87.4617 30.6577 87.4942 31.0174 87.4204 31.3622C87.3318 31.7813 87.3141 32.2004 87.2639 32.6195C87.2314 32.9078 87.1665 33.2021 87.1222 33.4933C87.0927 33.6717 87.1193 33.8411 87.1872 34.0195L87.1813 34.0284Z" fill="#64B4F7"/>
<g clip-path="url(#clip0_1025_1662)">
<path d="M50.1965 46.4064C49.9791 47.3114 50.3529 48.0447 50.7094 48.7989C50.9485 49.3138 51.0789 49.8911 51.2441 50.4528C51.4136 51.0302 51.4527 51.6543 51.7092 52.1848C51.7874 52.346 51.7657 52.3876 51.6527 52.4657C51.5005 52.5697 51.3571 52.6945 51.2136 52.8193C51.0745 52.939 50.8963 52.9858 50.7789 52.8817C50.4573 52.6061 50.1008 52.6529 49.7574 52.6841C48.9793 52.7465 48.2969 52.4449 47.6361 51.9924C46.9754 51.5347 45.8148 51.7063 45.2106 52.2628C44.8411 52.6061 44.4586 52.9234 44.1282 53.3238C43.5848 53.9948 43.2892 54.7697 43.2979 55.7059C43.2979 55.888 43.3284 56.0804 43.2936 56.2572C43.098 57.2559 43.637 57.854 44.1977 58.3065C44.615 58.6393 44.9411 59.0554 45.3062 59.4351C45.4062 59.5391 45.5279 59.6535 45.467 59.82C45.4149 59.9656 45.2627 59.95 45.1497 59.9448C44.7498 59.9188 44.3673 59.9344 43.9587 59.7628C43.624 59.6223 43.2066 59.5391 42.8763 59.3779C42.5111 59.2011 42.1764 59.2167 41.82 59.1907C41.6592 59.1803 41.5331 59.2479 41.407 59.3831C41.1028 59.7056 40.7202 59.8876 40.3812 60.1529C39.8813 60.5481 39.4596 61.0578 39.1858 61.7184C38.8467 62.5453 38.9597 63.4347 38.9945 64.2929C39.0162 64.8286 39.3683 65.2291 39.6552 65.64C39.9986 66.1341 40.5116 66.3629 40.8767 66.8258C40.955 66.9247 41.0767 66.9091 41.181 66.8987C41.7026 66.831 42.1025 67.1067 42.4633 67.528C42.8198 67.9441 43.2892 68.1417 43.7239 68.407C43.8543 68.4902 43.9587 68.589 44.0543 68.7086C44.1673 68.8439 44.163 69.0207 44.1151 69.1871C44.0673 69.3536 43.9369 69.364 43.8196 69.3484C43.3501 69.2911 42.885 69.39 42.3981 69.2131C42.0417 69.0831 41.62 69.1091 41.2636 68.8959C40.6072 68.4954 39.89 68.2769 39.2292 67.8973C38.8685 67.6892 38.5468 67.3772 38.199 67.1275C37.8643 66.8883 37.5774 66.5606 37.2166 66.3681C37.1558 66.3369 37.1036 66.2745 37.0515 66.2173C36.6385 65.718 36.2168 65.2239 35.8169 64.709C35.317 64.0485 35.0345 63.3047 34.9997 62.3789C34.9736 61.6716 35.191 61.0422 35.2605 60.3713C35.2953 60.0696 35.5605 59.8616 35.7039 59.5911C35.93 59.1542 36.2603 58.7382 36.6298 58.4833C37.0601 58.1816 37.4818 57.854 37.9121 57.5523C37.973 57.5107 38.0295 57.4379 38.0947 57.4327C38.6598 57.3911 39.1901 57.0166 39.7813 57.1518C39.8943 57.1778 40.0725 57.2194 40.1247 57.0374C40.1682 56.8918 40.0291 56.793 39.9508 56.6941C39.3553 55.9452 39.2119 54.7853 39.5683 53.8231C39.6509 53.6047 39.7987 53.3446 39.6509 53.0638C39.6118 52.991 39.6161 52.8817 39.6683 52.8245C40.0508 52.3668 40.1856 51.6387 40.7463 51.3682C40.8289 51.3266 40.9202 51.2538 40.9723 51.1706C41.4418 50.4164 42.2112 50.224 42.8285 49.7455C42.8459 49.7299 42.8763 49.7195 42.8937 49.7247C43.637 49.8339 44.3368 49.2202 45.0628 49.4802C45.5366 49.6519 46.0408 49.6207 46.4972 49.8911C46.7233 50.0212 47.0015 50.0472 47.2449 50.1928C47.3536 50.2604 47.5362 50.2656 47.6318 50.094C47.7187 49.9379 47.6144 49.8183 47.5622 49.6779C47.4536 49.3554 47.2884 49.0694 47.2493 48.7053C47.1754 48.0655 46.8276 47.561 46.5885 47.0045C46.4147 46.5936 46.219 46.2088 46.2582 45.7147C46.2929 45.309 46.2625 44.8981 46.2625 44.4872C46.2625 43.4002 46.6581 42.4952 47.1058 41.585C47.6187 40.5448 48.5359 40.1079 49.2401 39.3589C49.2662 39.3329 49.3053 39.3173 49.3358 39.3173C50.3008 39.2965 51.2397 38.8804 52.2221 39.0417C52.4351 39.0781 52.5612 39.2705 52.7611 39.3381C52.9437 39.4006 53.0958 39.5774 53.3088 39.5774C53.3479 39.5774 53.4175 39.6242 53.4218 39.6606C53.5262 40.2795 54.0348 40.4044 54.3782 40.628C54.8302 40.9245 55.1258 41.377 55.4866 41.7618C55.6214 41.9075 55.7909 42.0739 55.6214 42.3288C55.4692 42.5576 55.291 42.7552 55.0215 42.6304C54.8781 42.5628 54.7346 42.5108 54.5781 42.5108C53.9696 42.5108 53.4349 42.2039 52.9176 41.8763C52.509 41.6162 52.0743 41.637 51.7309 42.0115C51.1919 42.5992 50.7615 43.2858 50.4225 44.0555C50.4051 44.0919 50.3834 44.1335 50.3834 44.1699C50.3486 44.9189 49.9835 45.6158 50.1878 46.4064H50.1965Z" fill="#E2BFDD"/>
<path d="M209.554 94.9948C209.45 94.9948 209.341 94.9948 209.237 94.9948C208.502 95.0208 207.811 94.7712 207.111 94.5319C206.324 94.2615 205.585 93.8558 204.846 93.4553C204.564 93.2993 204.325 92.9924 204.064 92.8468C203.399 92.4827 203.025 91.7702 202.503 91.2397C202.138 90.8652 202.021 90.3035 201.825 89.8094C201.669 89.4089 201.921 89.0864 202.29 89.0708C202.49 89.0604 202.699 89.0708 202.886 89.0084C203.468 88.7952 203.907 89.1644 204.32 89.5233C204.629 89.7938 204.968 90.007 205.272 90.2879C205.559 90.5531 205.737 90.8132 205.742 91.2293C205.742 91.6765 205.911 92.0406 206.142 92.3475C206.446 92.7532 207.298 92.8884 207.715 92.6856C208.358 92.3735 208.724 91.7546 209.15 91.1304C209.723 90.2879 209.515 89.3933 209.45 88.5611C209.393 87.8486 209.202 87.0788 208.837 86.4443C208.706 86.2206 208.467 86.1686 208.28 86.049C207.967 85.8461 207.754 85.5341 207.524 85.2376C207.389 85.0608 207.446 84.8579 207.654 84.8527C208.28 84.8319 208.902 84.8371 209.528 84.8527C209.697 84.8579 209.876 85.014 209.989 85.1232C210.415 85.5393 210.745 85.2532 211.062 84.9724C211.371 84.6967 211.714 84.421 211.919 84.0414C212.201 83.5161 212.575 83.0636 212.658 82.351C212.71 81.8829 212.579 81.4824 212.592 81.0455C212.605 80.7283 212.384 80.5254 212.092 80.5254C211.362 80.5254 210.775 80.0573 210.141 79.7297C209.793 79.5476 209.541 79.2148 209.206 79.0171C209.019 78.9079 208.945 78.575 208.884 78.315C208.854 78.1954 208.941 78.1225 209.041 78.0757C209.793 77.7481 210.536 77.3996 211.201 76.8587C211.366 76.7235 211.523 76.5726 211.666 76.4166C212.027 76.0265 212.392 75.6364 212.736 75.2255C212.862 75.0747 212.975 74.8615 213.014 74.6534C213.101 74.1801 213.383 73.7172 213.344 73.2907C213.301 72.7706 213.714 72.2193 213.283 71.7304C213.231 71.6732 213.257 71.512 213.244 71.4027C213.236 71.2987 213.214 71.1739 213.123 71.1687C212.857 71.1531 212.644 70.9659 212.401 70.893C211.975 70.763 211.475 70.711 211.197 70.3469C210.797 69.8216 210.193 69.6812 209.836 69.1247C209.693 68.901 209.667 68.7762 209.919 68.6566C210.475 68.3913 211.054 68.0429 211.632 68.1989C212.227 68.3601 212.818 68.3341 213.401 68.4433C213.914 68.537 214.405 68.8438 214.779 69.2599C214.996 69.5044 215.174 69.8424 215.4 70.1025C215.592 70.3209 215.887 70.4926 216.005 70.6902C216.257 71.1167 216.583 71.4704 216.778 71.9645C217.113 72.8226 216.917 73.7068 216.987 74.5702C217.035 75.1527 216.987 75.6988 216.644 76.1929C216.47 76.4426 216.609 76.9003 216.37 77.1655C215.97 77.6128 215.779 78.263 215.235 78.5958C214.874 78.8143 214.553 79.1524 214.183 79.3812C214.001 79.4956 214.035 79.6985 214.183 79.8701C214.648 80.4058 215.1 80.9623 215.566 81.4928C216.052 82.0494 216.452 82.6475 216.352 83.5265C216.352 83.5421 216.352 83.5577 216.352 83.5681C216.522 84.5563 216.17 85.3832 215.639 86.0386C215.248 86.5275 214.822 87.0008 214.275 87.318C213.775 87.6041 213.292 87.4845 212.801 87.5365C212.675 87.5521 212.527 87.4897 212.445 87.6457C212.353 87.8225 212.501 87.9162 212.562 88.0462C212.827 88.5715 213.053 89.1124 213.036 89.7521C213.031 89.9342 213.118 90.1058 213.14 90.2671C213.24 91.016 213.396 91.7858 213.057 92.5035C212.949 92.7324 212.818 92.9196 212.797 93.2109C212.775 93.5385 212.523 93.7674 212.31 93.8922C211.853 94.1575 211.48 94.5683 211.001 94.8076C210.684 94.9636 210.393 94.9532 210.084 94.9792C209.91 94.9948 209.732 94.9792 209.554 94.9792V94.9948Z" fill="#E2BFDD"/>
</g>
<defs>
<clipPath id="clip0_1025_1662">
<rect width="182" height="56" fill="white" transform="translate(35 39)"/>
</clipPath>
</defs>
</svg>
