<svg width="252" height="147" viewBox="0 0 252 147" fill="none" xmlns="http://www.w3.org/2000/svg">
<mask id="path-1-outside-1_1025_1591" maskUnits="userSpaceOnUse" x="71.9868" y="43" width="128" height="50" fill="black">
<rect fill="white" x="71.9868" y="43" width="128" height="50"/>
<path d="M76.3813 54.744H84.5953C84.5953 55.336 84.8913 65.03 84.8913 69.544C84.8913 75.464 84.6693 81.754 84.2253 84.048L76.3813 84.196C76.3813 83.826 76.6773 72.948 76.6773 69.1C76.6773 65.4 76.3813 55.706 76.3813 54.744ZM111.013 67.324C115.601 68.582 120.337 70.95 120.337 76.944C120.337 83.382 113.825 87.6 106.647 87.6C104.501 87.6 99.6908 87.082 97.3968 84.64L101.171 78.646C102.429 78.942 103.687 79.756 106.055 79.756C108.645 79.756 111.901 78.868 111.753 77.018C111.679 74.65 104.353 73.688 101.171 71.838C95.8428 68.804 94.9548 64.66 96.2128 59.48C97.3228 54.448 101.615 51.414 108.571 51.414C113.233 51.414 117.599 53.042 119.893 54.818L116.415 61.552C114.565 60.368 111.679 59.554 108.349 59.554C105.759 59.554 104.131 60.738 104.131 62.884C104.131 64.808 107.387 66.288 111.013 67.324ZM138.801 85.602C139.393 78.646 139.393 69.248 139.097 62.366C134.361 62.366 129.477 63.106 127.257 63.106L126.887 55.262C130.217 54.004 137.617 54.078 142.501 54.078C150.271 54.078 157.523 54.078 160.261 54.744L159.595 62.81C156.339 62.588 150.715 62.366 147.311 62.366C147.755 69.248 147.311 79.534 146.941 85.898L138.801 85.602ZM170.939 48.75C175.601 47.788 180.337 47.492 184.851 48.602C192.177 50.674 195.285 56.742 195.285 62.588C195.285 70.062 186.479 75.464 178.487 75.612C178.413 79.756 178.265 87.822 178.117 88.784L169.903 88.488C169.903 84.418 170.199 77.758 170.199 73.688C170.199 65.844 169.755 57.778 169.089 51.562C168.941 49.786 169.829 49.046 170.939 48.75ZM187.367 61.478C187.367 57.408 183.075 55.484 177.821 56.224C177.969 57.778 178.117 64.512 178.487 67.25C183.223 67.546 187.367 64.29 187.367 61.478Z"/>
</mask>
<path d="M76.3813 54.744H84.5953C84.5953 55.336 84.8913 65.03 84.8913 69.544C84.8913 75.464 84.6693 81.754 84.2253 84.048L76.3813 84.196C76.3813 83.826 76.6773 72.948 76.6773 69.1C76.6773 65.4 76.3813 55.706 76.3813 54.744ZM111.013 67.324C115.601 68.582 120.337 70.95 120.337 76.944C120.337 83.382 113.825 87.6 106.647 87.6C104.501 87.6 99.6908 87.082 97.3968 84.64L101.171 78.646C102.429 78.942 103.687 79.756 106.055 79.756C108.645 79.756 111.901 78.868 111.753 77.018C111.679 74.65 104.353 73.688 101.171 71.838C95.8428 68.804 94.9548 64.66 96.2128 59.48C97.3228 54.448 101.615 51.414 108.571 51.414C113.233 51.414 117.599 53.042 119.893 54.818L116.415 61.552C114.565 60.368 111.679 59.554 108.349 59.554C105.759 59.554 104.131 60.738 104.131 62.884C104.131 64.808 107.387 66.288 111.013 67.324ZM138.801 85.602C139.393 78.646 139.393 69.248 139.097 62.366C134.361 62.366 129.477 63.106 127.257 63.106L126.887 55.262C130.217 54.004 137.617 54.078 142.501 54.078C150.271 54.078 157.523 54.078 160.261 54.744L159.595 62.81C156.339 62.588 150.715 62.366 147.311 62.366C147.755 69.248 147.311 79.534 146.941 85.898L138.801 85.602ZM170.939 48.75C175.601 47.788 180.337 47.492 184.851 48.602C192.177 50.674 195.285 56.742 195.285 62.588C195.285 70.062 186.479 75.464 178.487 75.612C178.413 79.756 178.265 87.822 178.117 88.784L169.903 88.488C169.903 84.418 170.199 77.758 170.199 73.688C170.199 65.844 169.755 57.778 169.089 51.562C168.941 49.786 169.829 49.046 170.939 48.75ZM187.367 61.478C187.367 57.408 183.075 55.484 177.821 56.224C177.969 57.778 178.117 64.512 178.487 67.25C183.223 67.546 187.367 64.29 187.367 61.478Z" fill="#EDF798"/>
<path d="M76.3813 54.744V50.744H72.3813V54.744H76.3813ZM84.5953 54.744H88.5953V50.744H84.5953V54.744ZM84.2253 84.048L84.3008 88.0473L87.5373 87.9862L88.1525 84.8081L84.2253 84.048ZM76.3813 84.196H72.3813V88.2722L76.4568 88.1953L76.3813 84.196ZM76.3813 58.744H84.5953V50.744H76.3813V58.744ZM80.5953 54.744C80.5953 55.1036 80.6726 57.7941 80.7445 60.7699C80.8187 63.8377 80.8913 67.3427 80.8913 69.544H88.8913C88.8913 67.2313 88.816 63.6323 88.7422 60.5766C88.7051 59.0411 88.668 57.6288 88.6402 56.567C88.6263 56.0349 88.6149 55.5935 88.6069 55.2668C88.6029 55.1033 88.5998 54.9724 88.5978 54.8753C88.5955 54.7631 88.5953 54.7324 88.5953 54.744H80.5953ZM80.8913 69.544C80.8913 75.5705 80.6548 81.4458 80.2982 83.2879L88.1525 84.8081C88.6839 82.0622 88.8913 75.3575 88.8913 69.544H80.8913ZM84.1499 80.0487L76.3059 80.1967L76.4568 88.1953L84.3008 88.0473L84.1499 80.0487ZM80.3813 84.196C80.3813 84.212 80.3839 84.0744 80.3929 83.694C80.401 83.3555 80.4125 82.8873 80.4264 82.3203C80.4541 81.1882 80.4912 79.6705 80.5283 78.0434C80.602 74.8093 80.6773 71.0787 80.6773 69.1H72.6773C72.6773 70.9693 72.6047 74.6017 72.5304 77.8611C72.4582 81.028 72.3813 83.9509 72.3813 84.196H80.3813ZM80.6773 69.1C80.6773 67.1907 80.6018 63.7887 80.5281 60.7968C80.4524 57.7188 80.3813 55.1594 80.3813 54.744H72.3813C72.3813 55.2906 72.4583 58.0592 72.5306 60.9937C72.6049 64.0143 72.6773 67.3093 72.6773 69.1H80.6773ZM111.013 67.324L109.914 71.1701L109.934 71.176L109.955 71.1816L111.013 67.324ZM97.3968 84.64L94.0118 82.5087L92.3644 85.1252L94.4814 87.3787L97.3968 84.64ZM101.171 78.646L102.087 74.7523L99.3073 74.0983L97.7858 76.5147L101.171 78.646ZM111.753 77.018L107.755 77.1429L107.758 77.2401L107.766 77.337L111.753 77.018ZM101.171 71.838L103.181 68.38L103.166 68.3709L103.15 68.3621L101.171 71.838ZM96.2128 59.48L100.1 60.424L100.11 60.3829L100.119 60.3416L96.2128 59.48ZM119.893 54.818L123.447 56.6536L124.975 53.6941L122.341 51.6551L119.893 54.818ZM116.415 61.552L114.259 64.9211L117.955 67.2867L119.969 63.3876L116.415 61.552ZM109.955 71.1816C112.056 71.7576 113.711 72.4734 114.8 73.4018C115.718 74.1845 116.337 75.1848 116.337 76.944H124.337C124.337 72.7092 122.588 69.5285 119.991 67.3142C117.564 65.2455 114.558 64.1484 112.07 63.4664L109.955 71.1816ZM116.337 76.944C116.337 78.6673 115.508 80.2162 113.812 81.4651C112.062 82.7533 109.499 83.6 106.647 83.6V91.6C110.972 91.6 115.254 90.3377 118.555 87.9074C121.909 85.4378 124.337 81.6587 124.337 76.944H116.337ZM106.647 83.6C105.832 83.6 104.423 83.4954 103.038 83.1528C101.556 82.7863 100.675 82.2881 100.312 81.9013L94.4814 87.3787C96.4121 89.4339 99.0835 90.4157 101.117 90.9187C103.247 91.4456 105.316 91.6 106.647 91.6V83.6ZM100.782 86.7713L104.556 80.7773L97.7858 76.5147L94.0118 82.5087L100.782 86.7713ZM100.255 82.5397C100.337 82.5592 100.473 82.6001 100.792 82.7134C101.061 82.809 101.522 82.9791 102.001 83.1291C103.054 83.4591 104.371 83.756 106.055 83.756V75.756C105.37 75.756 104.874 75.6459 104.392 75.4949C104.103 75.4044 103.866 75.3155 103.471 75.1753C103.126 75.0527 102.633 74.8808 102.087 74.7523L100.255 82.5397ZM106.055 83.756C107.715 83.756 109.714 83.4839 111.432 82.7883C112.285 82.443 113.331 81.8884 114.195 80.9754C115.135 79.9811 115.885 78.508 115.74 76.699L107.766 77.337C107.735 76.9515 107.795 76.554 107.939 76.1909C108.077 75.8431 108.259 75.609 108.383 75.4772C108.598 75.251 108.696 75.2653 108.429 75.3732C108.201 75.4656 107.849 75.5674 107.395 75.6437C106.951 75.7185 106.483 75.756 106.055 75.756V83.756ZM115.751 76.8931C115.664 74.0999 113.507 72.6049 112.587 72.0478C111.443 71.3556 110.066 70.8414 108.925 70.4501C108.323 70.2435 107.702 70.0439 107.122 69.8575C106.528 69.6667 105.975 69.4891 105.448 69.3091C104.339 68.931 103.609 68.6287 103.181 68.38L99.1603 75.296C100.324 75.9723 101.702 76.484 102.865 76.8806C103.472 77.0879 104.096 77.2879 104.674 77.4737C105.266 77.6639 105.813 77.8401 106.33 78.0174C107.427 78.3938 108.094 78.6797 108.444 78.8918C109.018 79.2389 107.805 78.7521 107.755 77.1429L115.751 76.8931ZM103.15 68.3621C101.113 67.2019 100.331 66.0829 99.9924 65.128C99.6214 64.0808 99.5674 62.6161 100.1 60.424L92.3257 58.536C91.6001 61.5239 91.3611 64.7212 92.4516 67.7994C93.5748 70.9701 95.9007 73.4401 99.1914 75.3139L103.15 68.3621ZM100.119 60.3416C100.461 58.79 101.235 57.6773 102.418 56.8882C103.67 56.0539 105.646 55.414 108.571 55.414V47.414C104.54 47.414 100.892 48.2911 97.9807 50.2318C95.0019 52.2176 93.0744 55.138 92.3067 58.6184L100.119 60.3416ZM108.571 55.414C112.456 55.414 115.933 56.8113 117.444 57.9809L122.341 51.6551C119.264 49.2727 114.009 47.414 108.571 47.414V55.414ZM116.339 52.9824L112.861 59.7164L119.969 63.3876L123.447 56.6536L116.339 52.9824ZM118.571 58.1829C115.93 56.4928 112.247 55.554 108.349 55.554V63.554C111.11 63.554 113.199 64.2432 114.259 64.9211L118.571 58.1829ZM108.349 55.554C106.511 55.554 104.484 55.9661 102.824 57.2482C101.024 58.6379 100.131 60.6873 100.131 62.884H108.131C108.131 62.8589 108.134 62.972 108.049 63.1532C107.961 63.3417 107.831 63.4894 107.713 63.5803C107.608 63.6617 107.57 63.654 107.674 63.6247C107.781 63.5948 107.998 63.554 108.349 63.554V55.554ZM100.131 62.884C100.131 66.211 102.825 68.0914 104.195 68.8912C105.891 69.8817 107.987 70.6196 109.914 71.1701L112.112 63.4779C110.413 62.9924 109.067 62.4723 108.229 61.9828C107.81 61.7383 107.706 61.6081 107.743 61.6522C107.805 61.7253 108.131 62.157 108.131 62.884H100.131ZM138.801 85.602L134.816 85.2628L134.46 89.4468L138.656 89.5994L138.801 85.602ZM139.097 62.366L143.094 62.1941L142.929 58.366H139.097V62.366ZM127.257 63.106L123.262 63.2945L123.442 67.106H127.257V63.106ZM126.887 55.262L125.474 51.5201L122.755 52.5473L122.892 55.4505L126.887 55.262ZM160.261 54.744L164.248 55.0732L164.529 51.6655L161.207 50.8573L160.261 54.744ZM159.595 62.81L159.323 66.8007L163.257 67.069L163.582 63.1392L159.595 62.81ZM147.312 62.366V58.366H143.045L143.32 62.6235L147.312 62.366ZM146.941 85.898L146.796 89.8954L150.708 90.0376L150.935 86.1302L146.941 85.898ZM142.787 85.9412C143.398 78.7578 143.394 69.1772 143.094 62.1941L135.101 62.5379C135.393 69.3188 135.389 78.5342 134.816 85.2628L142.787 85.9412ZM139.097 58.366C136.543 58.366 133.991 58.5649 131.881 58.7516C129.62 58.9517 128.134 59.106 127.257 59.106V67.106C128.601 67.106 130.667 66.8903 132.587 66.7204C134.658 66.5371 136.916 66.366 139.097 66.366V58.366ZM131.253 62.9175L130.883 55.0735L122.892 55.4505L123.262 63.2945L131.253 62.9175ZM128.301 59.0039C129.305 58.6247 131.398 58.3338 134.304 58.1936C137.062 58.0606 140.017 58.078 142.501 58.078V50.078C140.102 50.078 136.915 50.0584 133.919 50.2029C131.072 50.3402 127.8 50.6413 125.474 51.5201L128.301 59.0039ZM142.501 58.078C146.403 58.078 150.1 58.0783 153.162 58.1598C156.367 58.2452 158.431 58.4155 159.316 58.6307L161.207 50.8573C159.354 50.4065 156.423 50.2438 153.375 50.1627C150.184 50.0777 146.37 50.078 142.501 50.078V58.078ZM156.275 54.4148L155.609 62.4808L163.582 63.1392L164.248 55.0732L156.275 54.4148ZM159.868 58.8193C156.538 58.5923 150.822 58.366 147.312 58.366V66.366C150.609 66.366 156.141 66.5837 159.323 66.8007L159.868 58.8193ZM143.32 62.6235C143.746 69.2295 143.319 79.2874 142.948 85.6658L150.935 86.1302C151.304 79.7806 151.765 69.2665 151.303 62.1085L143.32 62.6235ZM147.087 81.9006L138.947 81.6046L138.656 89.5994L146.796 89.8954L147.087 81.9006ZM170.939 48.75L170.131 44.8325L170.019 44.8556L169.909 44.8851L170.939 48.75ZM184.851 48.602L185.94 44.753L185.874 44.7342L185.807 44.7177L184.851 48.602ZM178.487 75.612L178.413 71.6127L174.557 71.6841L174.488 75.5406L178.487 75.612ZM178.117 88.784L177.973 92.7814L181.53 92.9096L182.071 89.3922L178.117 88.784ZM169.903 88.488H165.903V92.3465L169.759 92.4854L169.903 88.488ZM169.089 51.562L165.103 51.8942L165.107 51.9412L165.112 51.9881L169.089 51.562ZM177.821 56.224L177.264 52.2631L173.477 52.7964L173.839 56.6032L177.821 56.224ZM178.487 67.25L174.523 67.7857L174.963 71.0375L178.238 71.2422L178.487 67.25ZM171.748 52.6675C176.077 51.7742 180.165 51.5688 183.896 52.4863L185.807 44.7177C180.51 43.4152 175.126 43.8018 170.131 44.8325L171.748 52.6675ZM183.763 52.451C189.034 53.9418 191.285 58.1606 191.285 62.588H199.285C199.285 55.3234 195.321 47.4062 185.94 44.753L183.763 52.451ZM191.285 62.588C191.285 64.6284 190.087 66.7724 187.547 68.6006C185.016 70.422 181.608 71.5535 178.413 71.6127L178.562 79.6113C183.359 79.5225 188.35 77.879 192.22 75.0939C196.081 72.3156 199.285 68.0216 199.285 62.588H191.285ZM174.488 75.5406C174.451 77.6136 174.396 80.6538 174.331 83.2937C174.299 84.6153 174.265 85.8228 174.23 86.7529C174.19 87.8243 174.157 88.2214 174.164 88.1758L182.071 89.3922C182.152 88.8656 182.193 87.8937 182.225 87.0526C182.261 86.0703 182.297 84.822 182.329 83.4888C182.394 80.8192 182.45 77.7544 182.487 75.6834L174.488 75.5406ZM178.262 84.7866L170.048 84.4906L169.759 92.4854L177.973 92.7814L178.262 84.7866ZM173.903 88.488C173.903 86.5206 173.975 83.901 174.05 81.1983C174.123 78.536 174.199 75.7906 174.199 73.688H166.199C166.199 75.6554 166.128 78.275 166.053 80.9777C165.98 83.64 165.903 86.3854 165.903 88.488H173.903ZM174.199 73.688C174.199 65.7122 173.749 57.5035 173.067 51.1359L165.112 51.9881C165.762 58.0525 166.199 65.9758 166.199 73.688H174.199ZM173.076 51.2298C173.062 51.0639 173.126 51.5041 172.711 52.043C172.335 52.5308 171.924 52.6273 171.97 52.6149L169.909 44.8851C168.845 45.1687 167.435 45.7831 166.375 47.159C165.275 48.5859 164.969 50.2841 165.103 51.8942L173.076 51.2298ZM191.367 61.478C191.367 57.7501 189.276 54.9847 186.407 53.4965C183.721 52.1036 180.432 51.8168 177.264 52.2631L178.379 60.1849C180.465 59.8912 181.949 60.1964 182.723 60.598C183.08 60.7833 183.218 60.9496 183.267 61.0245C183.303 61.0801 183.367 61.1951 183.367 61.478H191.367ZM173.839 56.6032C173.901 57.2498 173.967 59.1199 174.075 61.4761C174.175 63.6465 174.31 66.2057 174.523 67.7857L182.451 66.7143C182.295 65.5563 182.171 63.3795 182.067 61.1099C181.972 59.0261 181.89 56.7522 181.803 55.8448L173.839 56.6032ZM178.238 71.2422C181.57 71.4505 184.671 70.419 186.982 68.8169C189.123 67.3331 191.367 64.7592 191.367 61.478H183.367C183.367 61.2 183.462 61.172 183.314 61.3941C183.174 61.6049 182.891 61.9186 182.425 62.2421C181.48 62.897 180.141 63.3455 178.737 63.2578L178.238 71.2422Z" fill="#FF7989" mask="url(#path-1-outside-1_1025_1591)"/>
<g clip-path="url(#clip0_1025_1591)">
<path d="M84.8087 34.9035C84.729 35.2294 84.5726 35.4578 84.5726 35.7379C84.5726 35.7836 84.5664 35.8323 84.548 35.8719C84.2076 36.6484 84.1309 37.5133 83.7567 38.2807C83.7291 38.3355 83.7107 38.3934 83.6985 38.4512C83.5206 39.2034 83.2292 39.9191 82.9655 40.6438C82.7968 41.1006 82.6127 41.5452 82.3827 41.9746C82.2263 42.2639 82.0055 42.5106 81.7295 42.6567C81.4565 42.7999 81.1437 42.9156 80.8155 42.9156C80.3585 42.9156 79.8985 42.9217 79.4415 42.9156C78.8158 42.9034 78.1073 42.3735 78.0429 41.7036C78 41.2559 77.8313 40.8205 77.8098 40.3667C77.8037 40.1992 77.7822 40.0348 77.7822 39.8673C77.7822 38.1985 77.7822 36.5327 77.7822 34.8639C77.7822 34.6203 77.7914 34.3797 77.8436 34.1422C77.8804 33.9808 77.8804 33.8103 77.8834 33.6458C77.8896 33.2073 77.8988 32.7657 77.8865 32.3272C77.8773 32.0166 78.0123 31.8004 78.2791 31.6664C78.5367 31.5385 78.8005 31.4167 79.0704 31.3162C79.2421 31.2522 79.4415 31.2431 79.6102 31.3223C79.9199 31.4685 80.2542 31.4959 80.5824 31.5568C80.9535 31.6238 81.159 31.8857 81.3185 32.1811C81.4166 32.3607 81.3154 32.6165 81.1345 32.7444C81.0731 32.7871 80.9995 32.8114 80.9259 32.8388C80.8124 32.8815 80.7572 32.9667 80.7511 33.0824C80.7449 33.2195 80.7419 33.3565 80.7419 33.4905C80.7357 34.264 80.7327 35.0375 80.7235 35.811C80.7112 36.688 80.7173 37.5651 80.7357 38.4512C80.8554 38.4452 80.8247 38.3477 80.8554 38.299C80.8952 38.235 80.9443 38.168 80.9535 38.0949C80.9995 37.76 81.1621 37.4615 81.2387 37.1387C81.343 36.6972 81.4902 36.2678 81.57 35.8201C81.5976 35.674 81.6712 35.5339 81.7387 35.3999C81.8705 35.141 81.9411 34.8639 82.0024 34.5807C82.1036 34.1239 82.1558 33.6428 82.3398 33.2225C82.5637 32.7109 82.6956 32.1597 82.9869 31.6725C83.082 31.5111 83.1863 31.368 83.3304 31.2522C83.9714 30.7406 84.6799 30.5579 85.4681 30.8685C85.6552 30.9416 85.8423 30.9812 86.0386 31.0086C86.3913 31.0574 86.6581 31.2248 86.7869 31.5842C86.9004 31.8978 87.0108 32.2085 87.0814 32.5373C87.1304 32.7718 87.2562 32.988 87.3359 33.2164C87.5138 33.7159 87.7193 34.2031 87.8021 34.733C87.842 34.9857 87.9217 35.2354 88.0107 35.473C88.1579 35.8719 88.2223 36.2922 88.391 36.6819C88.483 36.8921 88.5228 37.1174 88.5412 37.3458C88.5443 37.3915 88.5689 37.4433 88.6271 37.4311C88.667 37.4219 88.7007 37.3854 88.7283 37.3519C88.7467 37.3306 88.7621 37.2971 88.7621 37.2697C88.7621 36.9743 88.8848 36.7124 88.9706 36.4383C89.0197 36.28 89.0718 36.1186 89.0688 35.9511C89.0688 35.9054 89.0688 35.8567 89.081 35.814C89.2589 35.2964 89.3172 34.7543 89.3601 34.2122C89.535 33.8712 89.4951 33.4753 89.6362 33.119C89.7343 32.8693 89.7435 32.5861 89.7864 32.3181C89.811 32.1689 89.8325 32.0197 89.903 31.8826C89.9429 31.8034 89.9613 31.709 89.9674 31.6207C89.9919 31.2401 90.1208 30.8777 90.179 30.5062C90.2618 29.9672 90.5164 29.4738 90.5593 28.9226C90.5808 28.6272 90.8262 28.4506 91.0685 28.3166C91.3077 28.1857 91.5684 28.0943 91.8199 27.9847C91.9395 27.9329 92.056 27.9421 92.1726 27.9999C92.4731 28.1522 92.7798 28.2862 93.1264 28.2892C93.1571 28.2892 93.1847 28.3044 93.2154 28.3105C93.5711 28.408 93.6601 28.5389 93.5313 28.8648C93.4454 29.0779 93.4055 29.3002 93.3442 29.5165C93.1908 30.0555 93.0283 30.5884 92.9792 31.1487C92.8473 31.4136 92.8228 31.6999 92.8166 31.9892C92.5958 32.5099 92.5897 33.0794 92.4363 33.6184C92.2768 34.1787 92.1112 34.7543 92.102 35.3481C92.099 35.5461 92.0284 35.7318 91.9978 35.9237C91.9211 36.3591 91.7708 36.7703 91.6604 37.1935C91.5316 37.6899 91.4242 38.1924 91.231 38.6705C91.1022 38.9933 91.0132 39.3252 90.8599 39.645C90.6636 40.053 90.3109 40.1931 89.9245 40.2814C89.3724 40.4093 88.8081 40.4307 88.2407 40.4002C87.9187 40.3819 87.6058 40.3241 87.3083 40.1901C86.9617 40.0378 86.7072 39.7729 86.4894 39.4805C86.3177 39.2521 86.1766 39.0116 86.0846 38.7284C85.9895 38.4299 85.8515 38.1406 85.7472 37.8422C85.6859 37.6717 85.6368 37.495 85.5877 37.3215C85.4743 36.9286 85.3792 36.5327 85.2473 36.149C85.189 35.9754 85.1246 35.811 85.1185 35.6252C85.1093 35.3725 84.9713 35.1806 84.8087 34.9157V34.9035Z" fill="#FF3F99"/>
<path d="M45.9898 54.2713C45.9898 53.9089 45.9469 53.5435 46.1217 53.1994C46.1554 53.1354 46.1462 53.0501 46.1493 52.974C46.1616 52.7182 46.2106 52.4594 46.2168 52.2066C46.229 51.6706 46.4223 51.1712 46.4529 50.6413C46.4713 50.3125 46.4959 49.9714 46.5695 49.6516C46.6615 49.2405 46.6738 48.8111 46.8424 48.4153C46.867 48.3604 46.8762 48.2965 46.8762 48.2386C46.8762 47.9341 46.9375 47.6357 46.9713 47.3372C47.005 47.051 47.005 46.7647 47.1369 46.4998C47.1491 46.4754 47.1522 46.4389 47.1522 46.4115C47.1215 45.9395 47.2933 45.4827 47.2749 45.0107C47.2718 44.9224 47.2749 44.8219 47.3117 44.7427C47.4221 44.5173 47.4405 44.2768 47.4466 44.0331C47.4466 43.9722 47.4466 43.9052 47.4742 43.8535C47.5969 43.6159 47.5847 43.354 47.6276 43.1043C47.692 42.745 47.7288 42.3857 47.7288 42.0202C47.7288 41.9898 47.7288 41.9593 47.738 41.9289C47.9772 41.2041 47.9987 40.4428 48.1306 39.6967C48.1919 39.3404 48.2931 38.9902 48.333 38.6308C48.3637 38.3446 48.3759 38.0553 48.4557 37.7782C48.6489 37.1113 48.7624 36.423 49.0261 35.7744C49.0384 35.747 49.0537 35.7196 49.0568 35.6891C49.0905 35.2384 49.342 34.8608 49.4709 34.4436C49.523 34.27 49.5843 34.0965 49.6395 33.9259C49.6579 33.8681 49.6549 33.798 49.6886 33.7523C49.9554 33.3961 50.0904 32.9697 50.2744 32.5769C50.5228 32.044 50.9246 31.6572 51.354 31.304C51.7558 30.9751 52.2465 30.7832 52.7709 30.7193C52.9396 30.698 53.1022 30.6766 53.2586 30.6096C53.3537 30.5701 53.4672 30.5518 53.5714 30.5518C53.9241 30.5457 54.2738 30.5518 54.6265 30.5518C54.8013 30.5518 54.9485 30.6157 55.0957 30.7071C55.4024 30.902 55.7122 31.0877 56.071 31.1943C56.3532 31.2796 56.574 31.4654 56.6936 31.7547C56.804 32.0226 56.8991 32.2906 56.8961 32.586C56.8899 32.9941 56.9022 33.4052 56.9083 33.8133C56.9114 34.0691 56.8838 34.3279 57.0065 34.5715C57.031 34.6202 57.0371 34.6994 57.0126 34.7481C56.8132 35.1288 56.9513 35.5247 56.9635 35.9114C56.9666 36.018 56.9942 36.1155 56.9482 36.219C56.9298 36.2586 56.9145 36.3104 56.9206 36.35C56.985 36.7976 56.8531 37.227 56.7734 37.6533C56.7059 38.0188 56.6538 38.3964 56.4759 38.7405C56.4268 38.8349 56.3869 38.9384 56.3716 39.0389C56.3133 39.4348 56.1385 39.788 55.9821 40.1474C55.8441 40.4671 55.7367 40.796 55.614 41.1219C55.5926 41.1797 55.5895 41.2437 55.5619 41.2955C55.0099 42.3887 54.286 43.3205 53.1482 43.8717C53.1359 43.8778 53.1206 43.887 53.1083 43.89C52.6053 43.9996 52.1238 44.2098 51.5994 44.2037C51.308 44.2037 51.0197 44.1976 50.7283 44.2067C50.3848 44.2189 50.3143 44.295 50.2959 44.6483C50.2897 44.7701 50.2897 44.8919 50.2867 45.0107C50.2867 45.0868 50.2959 45.169 50.2713 45.236C50.0904 45.7415 50.1303 46.2866 49.98 46.7921C49.8788 47.1332 49.8757 47.4773 49.8205 47.8184C49.7561 48.2204 49.7684 48.6376 49.6058 49.0213C49.5935 49.0487 49.5813 49.0791 49.5813 49.1096C49.5629 49.5177 49.4678 49.9135 49.4065 50.3155C49.339 50.7449 49.2347 51.1804 49.2623 51.6219C49.0967 52.0696 49.1243 52.5477 49.0568 53.0106C49.0077 53.3516 48.9924 53.7049 48.8575 54.0338C48.8084 54.1525 48.8391 54.3018 48.836 54.4388C48.8299 54.6367 48.836 54.8347 48.8145 55.0296C48.79 55.258 48.6765 55.3554 48.4587 55.3676C47.9558 55.3889 47.4558 55.4194 46.9529 55.3737C46.6983 55.3493 46.4437 55.2915 46.1953 55.2214C46.0542 55.1818 45.9898 55.0417 45.9837 54.8956C45.9775 54.6824 45.9837 54.4723 45.9837 54.2591L45.9898 54.2713ZM54.0499 34.4132C54.0499 33.7767 54.0499 33.1402 54.0499 32.5038C54.0499 32.3972 54.0499 32.2906 54.0437 32.1871C54.0407 32.1292 54.0376 32.05 53.9609 32.047C53.9057 32.047 53.8321 32.0683 53.7984 32.1049C53.6052 32.3363 53.369 32.5525 53.2433 32.8175C52.9304 33.4722 52.5409 34.0934 52.3293 34.7938C52.2342 35.1105 52.1269 35.4242 52.0165 35.7379C51.9429 35.951 51.8478 36.1611 51.7834 36.3774C51.722 36.5783 51.6944 36.7915 51.6423 36.9955C51.5165 37.4919 51.3816 37.9853 51.262 38.4847C51.216 38.6735 51.2436 38.8897 51.1638 39.0633C51.035 39.3556 51.0381 39.651 51.0289 39.9525C51.0258 40.0865 50.9982 40.2235 50.9829 40.3575C50.9185 40.8965 50.7191 41.4173 50.7467 41.9715C50.7529 42.0933 50.7038 42.206 50.6517 42.3187C50.5596 42.5196 50.5627 42.7298 50.6026 42.9429C50.621 43.0404 50.7314 43.0891 50.8173 43.0404C51.3203 42.7419 51.7742 42.3765 52.0931 41.8893C52.3722 41.4599 52.6759 41.0336 52.8047 40.525C52.8231 40.4519 52.866 40.388 52.8998 40.3179C53.2003 39.6876 53.4426 39.0389 53.599 38.3568C53.6757 38.0188 53.7831 37.6868 53.8751 37.3518C53.9732 37.0016 54.056 36.6484 54.0529 36.2799C54.0468 35.6587 54.0529 35.0374 54.0529 34.4162L54.0499 34.4132Z" fill="#FF3F99"/>
<path d="M70.7405 36.7825C70.7405 37.2423 70.7405 37.5895 70.7405 37.9397C70.7405 38.1376 70.7344 38.3325 70.6792 38.5244C70.6577 38.5975 70.6362 38.6767 70.6454 38.7467C70.7068 39.1974 70.4675 39.6024 70.443 40.0409C70.2252 40.6195 70.0903 41.2316 69.7744 41.7737C69.6609 41.9686 69.5628 42.1757 69.4616 42.3797C69.2315 42.8456 68.8942 43.2354 68.5844 43.6465C68.5568 43.6831 68.5139 43.7074 68.4924 43.747C68.2562 44.1277 67.9158 44.3987 67.5692 44.6758C67.2288 44.9468 66.8853 45.1783 66.4406 45.224C66.4252 45.224 66.4099 45.224 66.3946 45.2301C65.9499 45.4493 65.4714 45.3762 65.0022 45.3854C64.8181 45.3884 64.6372 45.3854 64.4532 45.3854C64.3612 45.3854 64.2569 45.4067 64.1802 45.3671C63.8582 45.2026 63.4963 45.2392 63.1589 45.1478C62.4044 44.9408 61.8247 44.5175 61.4138 43.8505C61.1163 43.3694 60.9046 42.8517 60.7084 42.3279C60.6317 42.1208 60.6072 41.8833 60.601 41.658C60.5949 41.3565 60.5887 41.058 60.6317 40.7535C60.6746 40.4399 60.6562 40.1171 60.6532 39.8004C60.6532 39.5111 60.6654 39.2248 60.7605 38.9477C60.828 38.7558 60.828 38.5609 60.828 38.363C60.828 38.1803 60.8525 38.0067 60.9323 37.8331C60.9997 37.6839 61.0457 37.5195 61.0764 37.355C61.1899 36.7399 61.4414 36.1735 61.6745 35.6009C61.8524 35.1655 62.0364 34.7361 62.2633 34.3219C62.5639 33.7799 62.9503 33.3261 63.5392 33.0825C63.8214 32.9668 64.0974 32.8328 64.3888 32.7506C64.6648 32.6714 64.95 32.6135 65.2444 32.6166C65.8548 32.6257 66.4651 32.6257 67.0754 32.6166C67.3729 32.6135 67.652 32.6623 67.9158 32.7993C67.9833 32.8328 68.0569 32.8541 68.1244 32.8876C68.3728 33.0155 68.6733 32.848 68.9126 33.046C69.1303 33.2256 69.4432 33.1739 69.6763 33.3231C70.1516 33.2865 70.3019 33.6154 70.4093 33.9748C70.5074 34.3037 70.6792 34.6204 70.6332 34.9828C70.7896 35.6101 70.7037 36.2496 70.7282 36.7734L70.7405 36.7825ZM63.5791 40.6378C63.5791 40.7444 63.5852 40.851 63.5791 40.9545C63.5331 41.5971 63.6189 42.2152 63.8459 42.8243C64.0084 43.2598 64.2569 43.6343 64.5237 43.9998C64.7844 44.3591 65.0052 44.353 65.2905 43.9998C65.453 43.7988 65.6278 43.61 65.7842 43.4059C66.0541 43.0588 66.3332 42.7208 66.5449 42.331C66.6399 42.1574 66.7227 41.9808 66.8086 41.8011C67.1981 40.9819 67.5508 40.1536 67.6398 39.2309C67.695 38.6432 67.7839 38.0615 67.7441 37.4707C67.741 37.4098 67.7533 37.3489 67.7594 37.2911C67.8115 36.746 67.8207 36.2039 67.7533 35.6588C67.7379 35.54 67.7471 35.4182 67.7563 35.2964C67.7686 35.1594 67.7747 35.0254 67.698 34.9005C67.6183 34.7757 67.4864 34.8031 67.3699 34.7757C67.0785 34.7026 66.8608 34.5625 66.87 34.2214C66.87 34.191 66.8638 34.1605 66.8577 34.1331C66.7657 33.7707 66.6338 33.6702 66.2474 33.6642C66.1247 33.6642 66.002 33.6672 65.8824 33.6672C65.7168 33.6672 65.5849 33.7464 65.499 33.8773C65.1586 34.3981 64.8427 34.934 64.631 35.5218C64.4777 35.9481 64.3213 36.3744 64.1741 36.8038C64.1097 36.9896 64.0483 37.1784 63.9992 37.3672C63.8582 37.9367 63.6343 38.4909 63.6619 39.0939C63.6619 39.1091 63.6557 39.1243 63.6527 39.1395C63.5883 39.3466 63.5852 39.5567 63.5883 39.7699C63.5883 40.0592 63.5883 40.3455 63.5883 40.6348L63.5791 40.6378Z" fill="#FF3F99"/>
<path d="M106.668 30.2503C106.668 30.4026 106.655 30.5548 106.668 30.7041C106.714 31.1944 106.548 31.6268 106.312 32.0409C106.223 32.1993 106.119 32.3516 106.048 32.516C105.846 32.9941 105.49 33.3413 105.091 33.6549C104.996 33.7311 104.889 33.792 104.8 33.8742C104.542 34.1178 104.248 34.3005 103.92 34.4345C103.374 34.6599 102.84 34.9248 102.251 35.0283C102.193 35.0375 102.135 35.0649 102.079 35.0862C101.794 35.2019 101.506 35.2811 101.196 35.2994C100.886 35.3176 100.761 35.4425 100.724 35.7501C100.647 36.3865 100.705 37.0199 100.825 37.6442C100.877 37.9152 101.061 38.1345 101.19 38.372C101.233 38.4512 101.306 38.5243 101.322 38.6065C101.392 38.9506 101.619 39.1912 101.822 39.4592C102.174 39.919 102.561 40.3423 102.999 40.723C103.067 40.7839 103.134 40.8478 103.211 40.8965C103.702 41.2102 103.889 41.2376 104.502 41.0336C104.643 40.9879 104.751 40.9666 104.889 41.0427C105.198 41.2102 105.554 41.2498 105.882 41.3655C105.941 41.3868 106.002 41.3868 106.06 41.4051C106.146 41.4325 106.195 41.5513 106.146 41.6305C105.996 41.8893 105.79 42.0903 105.49 42.1573C105.165 42.2334 104.84 42.3187 104.496 42.3004C104.239 42.2882 103.978 42.3004 103.717 42.3004C103.487 42.3004 103.26 42.3004 103.036 42.2273C102.993 42.2151 102.947 42.203 102.901 42.203C102.349 42.2182 101.868 41.9868 101.383 41.7675C100.705 41.463 100.116 41.0244 99.6135 40.5037C98.9909 39.8581 98.4633 39.1212 98.1137 38.2929C97.896 37.7812 97.7426 37.2361 97.7671 36.6606C97.7763 36.417 97.7733 36.1764 97.7671 35.9328C97.761 35.6374 97.6813 35.5917 97.4666 35.5582C97.3439 35.5399 97.2304 35.5034 97.1476 35.3999C97.074 35.3085 97.0771 35.1897 97.1721 35.1227C97.2611 35.0618 97.35 34.9948 97.4482 34.9613C97.7058 34.873 97.7855 34.672 97.8162 34.4345C97.8407 34.2244 97.8745 34.0143 97.8684 33.8041C97.8561 33.3443 97.9788 32.9027 98.0064 32.449C98.0432 31.8704 98.2916 31.3375 98.3529 30.768C98.6504 30.0219 99.0767 29.3642 99.7177 28.8678C99.9692 28.6729 100.248 28.5084 100.537 28.3714C100.975 28.1643 101.423 27.9725 101.895 27.8507C101.926 27.8415 101.954 27.8263 101.984 27.8263C102.877 27.8111 103.782 27.6405 104.646 28.0212C104.824 28.1004 105.027 28.1339 105.22 28.1674C105.659 28.2405 106.002 28.4963 106.346 28.7429C106.56 28.8982 106.671 29.1388 106.668 29.419C106.668 29.693 106.668 29.9641 106.668 30.2381V30.2503ZM103.797 30.2808C103.797 30.159 103.782 30.0372 103.797 29.9184C103.855 29.5103 103.659 29.218 103.371 28.9713C103.208 28.8312 103.042 28.813 102.864 28.9195C102.214 29.3124 101.668 29.8027 101.38 30.5214C101.313 30.6888 101.218 30.8411 101.187 31.0269C101.11 31.4715 101.107 31.9313 100.926 32.3546C100.908 32.3942 100.908 32.4429 100.908 32.4886C100.917 32.8997 100.859 33.2986 100.782 33.7036C100.711 34.0752 100.782 34.133 101.162 34.0782C101.236 34.066 101.316 34.0569 101.383 34.0234C102.064 33.6884 102.628 33.2073 103.064 32.5952C103.349 32.1932 103.564 31.7516 103.686 31.2583C103.766 30.9294 103.782 30.6066 103.794 30.2777L103.797 30.2808Z" fill="#FF3F99"/>
<path d="M116.38 38.2747C116.38 38.6096 116.39 38.9416 116.38 39.2765C116.368 39.6389 116.27 39.7516 115.908 39.8399C115.745 39.8795 115.58 39.9221 115.414 39.9252C114.942 39.9374 114.467 39.9343 113.994 39.9343C113.948 39.9343 113.902 39.9343 113.856 39.9252C113.562 39.8795 113.353 39.6542 113.369 39.3618C113.393 38.8319 113.335 38.3051 113.39 37.7722C113.418 37.4951 113.378 37.1997 113.39 36.9134C113.399 36.6881 113.402 36.4627 113.421 36.2374C113.442 36.0059 113.454 35.7654 113.396 35.5217C113.326 35.2142 113.332 34.8914 113.411 34.5747C113.43 34.5016 113.464 34.4194 113.442 34.3554C113.316 33.9839 113.365 33.6032 113.362 33.2256C113.356 32.4369 113.362 31.6482 113.362 30.8625C113.362 30.6676 113.341 30.4666 113.427 30.2808C113.433 30.2656 113.445 30.2504 113.442 30.2382C113.332 29.7845 113.586 29.3581 113.54 28.9013C113.491 28.4202 113.684 27.9725 113.887 27.5493C114.043 27.2204 114.35 26.9859 114.657 26.7879C114.859 26.657 115.089 26.5656 115.316 26.4743C115.583 26.3677 115.862 26.3921 116.12 26.5047C116.291 26.5809 116.463 26.6235 116.647 26.6326C116.736 26.6387 116.834 26.6539 116.911 26.6935C117.196 26.8397 117.303 26.9737 117.024 27.2386C116.592 27.6467 116.485 28.1644 116.478 28.7247C116.478 28.8161 116.531 28.8557 116.629 28.8374C116.733 28.8191 116.85 28.8161 116.939 28.7643C117.178 28.6334 117.435 28.6334 117.696 28.6364C118.23 28.6364 118.763 28.6364 119.297 28.6425C119.401 28.6425 119.518 28.6455 119.613 28.6882C120.021 28.8709 120.466 28.9227 120.886 29.0567C121.177 29.148 121.45 29.285 121.741 29.3673C121.864 29.4008 121.953 29.483 122.045 29.5652C122.125 29.6383 122.198 29.7236 122.29 29.7692C122.723 29.9855 122.824 30.4179 122.962 30.8077C123.051 31.0543 122.922 31.2462 122.677 31.3528C122.536 31.4137 122.392 31.4563 122.235 31.4624C121.656 31.4776 121.076 31.4929 120.496 31.4472C120.248 31.4289 120.116 31.2675 120.024 31.0696C119.963 30.9325 119.926 30.7833 119.886 30.6371C119.837 30.4514 119.739 30.3083 119.573 30.2078C119.377 30.089 119.202 29.9428 118.99 29.8484C118.892 29.8058 118.797 29.7662 118.687 29.754C118.3 29.7053 118.024 29.8088 117.822 30.1834C117.537 30.7072 117.322 31.2462 117.19 31.8248C117.138 32.0441 117.11 32.2724 117.009 32.4826C116.966 32.5739 116.957 32.6866 116.948 32.7901C116.935 32.9576 116.917 33.1221 116.84 33.2743C116.807 33.3413 116.782 33.4205 116.785 33.4936C116.807 33.9808 116.672 34.4559 116.659 34.9401C116.656 35.1198 116.632 35.3025 116.589 35.4791C116.521 35.7623 116.485 36.0455 116.488 36.3348C116.488 36.548 116.475 36.7581 116.426 36.9652C116.393 37.1114 116.39 37.2667 116.386 37.4159C116.38 37.7052 116.386 37.9914 116.386 38.2807L116.38 38.2747Z" fill="#FF3F99"/>
</g>
<g clip-path="url(#clip1_1025_1591)">
<path d="M219.625 86.1492C219.605 86.0554 219.579 85.9356 219.478 85.9244C218.824 85.8386 218.343 85.3765 217.766 85.1293C217.151 84.868 216.747 84.3393 216.409 83.7812C216.318 83.6328 216.397 83.5187 216.547 83.4329C217.057 83.1517 217.545 82.8348 218.067 82.5794C218.408 82.4112 218.638 82.1218 218.907 81.8832C219.603 81.2778 220.454 80.818 220.952 80.0217C221.582 79.0142 222.321 78.0596 222.636 76.8718C222.74 76.4882 222.956 76.1206 223.129 75.7496C223.605 74.7123 223.958 73.6438 224.321 72.5696C224.507 72.0191 224.413 71.4657 224.537 70.9496C224.742 70.1089 224.624 69.2566 224.808 68.4221C224.921 67.9013 224.828 67.3741 224.784 66.8552C224.762 66.6142 224.62 66.6364 224.452 66.7704C223.554 67.4745 222.535 67.9578 221.488 68.4161C220.328 68.9217 219.124 68.8347 217.969 68.7718C216.56 68.6942 215.194 68.1989 214.029 67.3209C213.749 67.1127 213.432 66.9956 213.153 66.7717C212.461 66.2087 212.111 65.3723 212.189 64.6584C212.301 63.643 212.01 62.583 212.518 61.5705C212.751 61.1126 212.803 60.5262 213.023 60.0215C213.335 59.3127 213.954 58.8845 214.475 58.366C215.112 57.7266 215.925 57.8314 216.711 57.785C217.175 57.7637 217.64 57.7635 218.098 57.7215C219.308 57.6083 220.485 57.9227 221.678 57.9997C222.627 58.0616 223.313 58.6142 224.077 59.0265C224.407 59.2061 224.603 59.2129 224.758 58.7901C225.055 57.9926 225.409 57.1976 225.632 56.3929C225.89 55.4603 226.111 54.5031 226.17 53.4954C226.243 52.1977 226.4 50.8856 226.167 49.6176C225.998 48.6888 225.975 47.7164 225.611 46.8175C225.462 46.4507 225.219 46.3356 224.843 46.316C223.46 46.2372 222.379 46.8654 221.326 47.6607C220.631 48.1818 220.168 48.9029 219.544 49.4839C219.149 49.8545 218.97 50.4467 218.697 50.9433C218.643 51.0405 218.622 51.1624 218.552 51.2393C217.906 51.9056 218.032 52.7101 218.179 53.4926C218.235 53.79 218.159 53.8724 217.912 53.9047C217.25 53.9824 216.605 53.8645 215.997 53.6188C215.561 53.444 215.144 53.2211 214.722 53.0088C214.143 52.7196 213.751 52.3587 213.706 51.6083C213.647 50.6692 214.086 49.9651 214.408 49.1611C214.778 48.2391 215.5 47.622 216.014 46.8408C216.44 46.2005 217.132 45.7321 217.737 45.2151C218.53 44.5368 219.459 44.2734 220.46 44.0908C220.969 43.9991 221.449 43.7456 221.989 43.7735C222.302 43.7908 222.615 43.7186 222.901 43.9476C223.065 44.0769 223.305 44.0027 223.51 43.9881C224.674 43.8928 225.748 44.1488 226.728 44.7775C226.821 44.8364 226.929 44.8946 226.986 44.9814C227.39 45.6259 227.978 46.0989 228.539 46.5836C229.144 47.1031 229.454 47.7625 229.725 48.4815C230.417 50.3335 230.459 52.2732 230.414 54.1905C230.394 55.0123 230.507 55.8805 230.275 56.6857C230.101 57.2829 230.019 57.9076 229.765 58.4874C229.55 58.9814 229.426 59.5079 229.253 60.0104C229.071 60.5344 228.895 61.0739 228.589 61.5509C228.323 61.963 228.111 62.4095 227.877 62.8411C227.774 63.0247 227.917 63.1497 227.987 63.2781C228.367 63.971 228.47 64.724 228.637 65.4845C228.804 66.2451 228.923 66.9921 228.963 67.7585C229.037 69.1337 228.813 70.4962 228.818 71.8745C228.822 72.8741 228.556 73.886 228.327 74.8909C228.062 76.029 227.652 77.1107 227.149 78.1177C226.78 78.8448 226.578 79.6171 226.241 80.3376C225.831 81.2139 225.215 81.9577 224.544 82.6514C223.646 83.5817 222.625 84.3756 221.593 85.1489C221.557 85.1768 221.512 85.221 221.475 85.2227C220.905 85.2488 220.74 85.672 220.596 86.1153L219.636 86.1592L219.625 86.1492ZM220.424 59.946C219.793 60.1327 219.18 60.2502 218.632 60.4963C217.529 60.9993 217.065 62.0781 216.711 63.0993C216.449 63.8479 216.361 64.6991 216.452 65.5421C216.535 66.3065 216.548 66.3638 217.346 66.2536C217.493 66.2311 217.611 66.1415 217.741 66.0987C218.183 65.9522 218.511 65.6057 218.932 65.4549C219.359 65.2986 219.73 65.0922 220.082 64.8235C220.48 64.5212 220.867 64.1983 221.266 63.9012C221.869 63.4474 222.126 62.7095 222.772 62.2801C223.018 62.1162 223.183 61.6667 223.428 61.3766C223.544 61.245 223.636 61.0619 223.509 60.9467C223.227 60.6807 223.001 60.2333 222.594 60.2256C221.848 60.2124 221.117 60.1774 220.424 59.9408L220.424 59.946Z" fill="#FFE196"/>
<path d="M25.5727 64.2656C25.6116 65.1163 25.6413 65.7674 25.6711 66.4184C25.6822 66.66 25.7345 66.8786 25.8452 67.105C26.1713 67.7636 26.5128 68.411 26.9266 69.0235C27.0342 69.1816 27.1419 69.3398 27.275 69.4758C27.6463 69.8535 27.7971 69.7992 28.0236 69.3205C28.3472 68.6533 28.6581 67.9393 29.1955 67.4411C29.8039 66.8766 30.3837 66.266 31.1146 65.8379C31.8043 65.4328 32.4885 65.0227 33.1729 64.6178C33.5022 64.4238 33.8218 64.4776 34.1426 64.4419C35.0679 64.3364 35.9739 64.5002 36.8623 64.7437C37.114 64.8163 37.3626 64.8208 37.6216 64.8194C38.8471 64.8055 39.6816 65.4882 40.3836 66.3926C40.4958 66.5348 40.4728 66.7253 40.481 66.9038C40.519 67.7334 40.5725 68.5571 40.5946 69.3874C40.6163 70.2073 40.2577 70.9182 39.8934 71.6189C39.4998 72.3736 39.0525 73.1096 38.4118 73.6598C37.8626 74.1322 37.358 74.6552 36.6254 74.9307C35.555 75.3322 34.4698 75.5239 33.3402 75.5545C32.7016 75.5732 32.0639 75.6129 31.4257 75.6421C31.1831 75.6532 30.9412 75.6801 31.1527 76.0282C31.2726 76.2227 31.0902 76.3941 31.0933 76.5781C31.0984 77.1514 31.051 77.7324 31.1296 78.2971C31.2642 79.2748 31.3988 80.2526 31.7642 81.1936C31.9858 81.7622 32.2277 82.3142 32.4699 82.8713C32.5936 83.1498 32.843 83.2857 33.0069 83.5203C33.3412 84.0101 33.7274 84.4818 34.0823 84.9602C34.5047 85.5302 35.0777 85.9249 35.5599 86.4132C36.0693 86.9213 36.7403 87.1485 37.3229 87.5217C38.2646 88.1206 39.3401 88.2924 40.3988 88.5596C41.3237 88.7909 42.2586 88.8955 43.2022 88.9576C43.9339 89.0083 44.2922 88.5236 44.5595 88.0115C44.7443 87.6611 44.9418 87.3574 45.2374 87.1176C45.7623 86.6937 46.2815 86.2595 46.8406 85.8867C47.1126 85.7111 47.4207 85.6286 47.821 85.7155C48.3813 85.832 48.9945 85.7197 49.5859 85.7085C49.7072 85.7029 49.8686 85.6482 49.9429 85.7711C50.0285 85.9092 49.8468 85.9807 49.7936 86.0883C49.5759 86.5298 49.0174 86.6816 48.8482 87.1418C48.6413 87.7038 48.2039 88.0763 47.8489 88.5188C47.4188 89.0541 46.8358 89.3649 46.242 89.6709C45.6327 89.9829 44.9379 90.0463 44.3144 90.28C42.7872 90.8603 41.1802 90.7391 39.6395 90.678C38.4535 90.6323 37.1849 90.6272 36.0348 90.0957C35.5112 89.8566 34.9107 89.7841 34.3778 89.5717C32.8221 88.9536 31.4148 88.1129 30.228 86.8939C28.8581 85.4833 27.8794 83.8443 27.1521 82.0412C26.8836 81.3695 26.7763 80.643 26.6902 79.9155C26.5923 79.0466 26.4894 78.1831 26.4548 77.3112C26.439 76.9647 26.4816 76.626 26.5396 76.276C26.6187 75.8094 26.5431 75.313 26.5368 74.8292C26.5342 74.6557 26.4824 74.4476 26.5555 74.3127C26.839 73.8104 26.5214 73.5671 26.1819 73.309C25.0977 72.4852 23.9827 71.6785 23.0805 70.6727C21.9949 69.47 21.067 68.1339 21.0563 66.398C21.0556 66.035 21.0026 65.6849 20.8647 65.3281C20.727 64.9766 20.8989 64.5741 20.8706 64.1861C20.855 63.9605 20.9113 63.6896 20.9261 63.4364C20.9912 62.2021 21.0513 60.9734 21.4671 59.781C21.6867 59.1501 21.6909 58.4343 21.9483 57.8227C22.2297 57.1574 22.2548 56.4354 22.6213 55.7819C22.9681 55.161 23.1304 54.4327 23.4767 53.8012C23.8715 53.0728 24.2063 52.3051 24.8792 51.7639C25.0475 51.6299 25.0949 51.3962 25.251 51.226C26.212 50.1665 27.3571 49.3196 28.4804 48.4579C29.1899 47.9098 29.9714 47.4321 30.7831 47.0371C31.1554 46.857 31.597 46.6895 32.0628 46.705C33.0315 46.7396 34.0305 46.394 34.9527 46.799C35.5945 47.0801 36.2775 46.8753 36.9032 47.1518C37.5234 47.4234 38.1964 47.5767 38.7868 47.8917C39.3124 48.1729 39.7504 48.6211 40.1208 49.0935C40.5977 49.6979 41.0134 50.3524 41.3364 51.0584C41.4124 51.2181 41.4983 51.3615 41.5064 51.54C41.5172 51.7763 41.5724 51.9421 41.8313 52.0566C42.1281 52.1903 42.0931 52.5813 41.7935 52.7318C41.654 52.8013 41.4998 52.8978 41.3522 52.9046C40.5929 52.9446 39.8992 53.492 39.1527 53.3472C38.4968 53.2194 37.7419 53.3539 37.194 52.8159C37.1166 52.7405 37.0173 52.6504 36.9972 52.5566C36.7806 51.5194 36.2076 50.6616 35.5888 49.8428C35.122 49.2275 34.5207 48.792 33.7315 48.5229C32.953 48.2586 32.6023 48.6798 32.0898 49.0294C30.9164 49.8355 29.9152 50.8232 29.0189 51.9113C28.383 52.6823 27.9381 53.5866 27.5366 54.5152C27.0441 55.648 26.7553 56.8451 26.3107 57.9862C26.1923 58.2863 26.1979 58.6386 26.1439 58.962C26.0031 59.8103 25.8787 60.6737 25.6731 61.4934C25.4184 62.51 25.632 63.4842 25.5784 64.2759L25.5727 64.2656ZM33.6764 73.8922C33.9574 73.911 34.1642 73.812 34.3725 73.6289C35.4599 72.6741 35.862 71.414 36.0113 70.0549C36.1013 69.251 35.985 68.4407 35.9005 67.6343C35.8569 67.2574 35.0242 66.3852 34.6675 66.3279C34.5076 66.2984 34.3335 66.3063 34.2175 66.4274C33.8397 66.834 33.3917 67.2071 33.1175 67.6826C32.5835 68.6016 32.1039 69.5548 31.7755 70.5801C31.6039 71.1036 31.4858 71.6405 31.3513 72.1675C31.2571 72.5349 31.3406 72.8573 31.7196 73.0557C32.0121 73.2107 32.2715 73.4514 32.5782 73.5689C32.9387 73.7103 33.2593 74.0166 33.6817 73.892L33.6764 73.8922Z" fill="#FFE196"/>
</g>
<g clip-path="url(#clip2_1025_1591)">
<path d="M127.732 35.9457C128.111 35.343 128.463 34.7995 128.867 34.2807C129.455 33.5297 130.15 32.8825 130.794 32.1859C131.32 31.6127 131.856 31.0544 132.378 30.4764C132.608 30.2195 132.577 29.6859 132.347 29.424C132.27 29.3351 132.199 29.2264 132.097 29.1819C131.565 28.9497 131.233 28.4507 130.686 28.2432C130.129 28.0307 129.731 27.5663 129.189 27.3242C128.821 27.1612 128.448 27.0031 128.07 26.8647C127.513 26.6572 126.997 26.3855 126.501 26.0742C126.363 25.9853 126.24 25.8617 126.138 25.7333C125.918 25.4566 125.975 25.3627 126.291 25.17C126.659 24.9477 127.078 24.8637 127.477 24.7451C128.008 24.587 128.519 24.7155 128.974 25.0366C129.25 25.2343 129.562 25.3282 129.889 25.427C130.288 25.5455 130.727 25.6493 131.034 26.0001C131.284 26.2916 131.637 26.4793 132.005 26.6127C132.485 26.7857 132.73 26.6325 132.725 26.1434C132.715 25.422 132.781 24.7007 132.756 23.9744C132.746 23.7125 132.475 23.5396 132.582 23.2778C132.674 23.0604 132.741 22.8479 132.73 22.6108C132.725 22.4625 132.73 22.3143 132.669 22.171C132.562 21.9141 132.7 21.7363 132.919 21.6572C133.553 21.425 134.192 21.2274 134.831 21.01C134.989 20.9556 135.101 21.0396 135.183 21.1434C135.495 21.5534 135.94 21.6819 136.43 21.7264C136.619 21.7412 136.793 21.8153 136.962 21.8944C137.284 22.0475 137.462 22.2649 137.437 22.6305C137.406 23.1147 137.554 23.5989 137.437 24.088C137.345 24.4783 137.631 24.8094 137.667 25.1898C137.677 25.3034 137.795 25.3529 137.902 25.2985C138.188 25.1503 138.5 25.2046 138.801 25.1849C139.179 25.1602 139.471 25.2886 139.783 25.5011C140.099 25.7185 140.498 25.842 140.871 25.9655C141.05 26.0248 141.229 26.0693 141.377 26.1829C141.668 26.4052 141.658 26.6918 141.321 26.84C140.968 26.9932 140.713 27.255 140.411 27.4724C140.268 27.5762 140.13 27.7343 140.069 27.8973C139.823 28.5693 139.22 28.9448 138.766 29.4438C138.607 29.6167 138.428 29.7698 138.275 29.9428C138.091 30.1552 138.117 30.3281 138.377 30.4615C138.883 30.7234 139.394 30.9853 139.936 31.173C140.406 31.3361 140.876 31.5337 141.362 31.6226C141.842 31.7066 142.261 32.0129 142.777 31.9635C142.869 31.9536 142.976 32.008 143.063 32.0525C143.559 32.3044 144.05 32.5663 144.586 32.7392C144.719 32.7837 144.821 32.8726 144.903 32.9813C145.026 33.1444 145.056 33.2481 144.831 33.4161C144.55 33.6236 144.28 33.6977 143.947 33.678C143.707 33.6631 143.472 33.678 143.232 33.678C143.145 33.678 143.053 33.6977 142.976 33.6681C142.471 33.4655 141.934 33.4112 141.402 33.3173C141.157 33.2728 140.917 33.1888 140.661 33.1839C140.294 33.174 139.987 32.9615 139.655 32.8529C139.292 32.7343 138.898 32.6997 138.566 32.4675C138.372 32.3291 138.071 32.3884 137.835 32.2748C137.733 32.2254 137.646 32.3143 137.58 32.3934C137.478 32.5119 137.422 32.6552 137.422 32.8034C137.411 33.3766 137.345 33.9497 137.544 34.508C137.58 34.6019 137.636 34.7056 137.59 34.7946C137.478 35.0169 137.59 35.2442 137.57 35.4467C137.478 36.2175 137.687 36.9685 137.636 37.7343C137.585 38.4902 137.626 39.2511 137.626 40.007C137.626 40.6098 137.319 40.9556 136.696 40.9803C135.878 41.01 135.061 40.9902 134.243 40.9902C134.039 40.9902 133.875 40.926 133.778 40.7432C133.712 40.6197 133.609 40.5406 133.461 40.5159C133.298 40.4912 133.083 40.5406 132.996 40.3677C132.889 40.1503 132.756 39.928 132.771 39.671C132.812 39.0337 132.792 38.3963 132.735 37.759C132.71 37.4477 132.833 37.1414 132.751 36.8252C132.7 36.6127 132.654 36.5485 132.362 36.5337C131.795 36.504 131.253 36.593 130.702 36.6424C130.456 36.6671 130.226 36.6029 130.022 36.4695C129.654 36.2372 129.281 36.0791 128.826 36.2323C128.698 36.2768 128.54 36.2718 128.433 36.1829C128.233 36.01 128.008 35.9309 127.722 35.9359L127.732 35.9457Z" fill="#FFD6D7"/>
</g>
<defs>
<clipPath id="clip0_1025_1591">
<rect width="77" height="29" fill="white" transform="translate(45.9868 26.4072)"/>
</clipPath>
<clipPath id="clip1_1025_1591">
<rect width="210" height="48" fill="white" transform="translate(20 47.2305) rotate(-2.61912)"/>
</clipPath>
<clipPath id="clip2_1025_1591">
<rect width="19" height="20" fill="white" transform="translate(126 21)"/>
</clipPath>
</defs>
</svg>
