<svg width="21" height="21" viewBox="0 0 21 21" fill="none" xmlns="http://www.w3.org/2000/svg">
<path d="M14.3877 7.1904L11.5563 10.0159L14.3819 12.8473L12.9662 14.26L10.1407 11.4287L7.30936 14.2542L5.89659 12.8386L8.72791 10.013L5.90239 7.18171L7.31805 5.76895L10.1436 8.60027L12.9749 5.77474M3.07831 2.93618C2.14877 3.86381 1.41105 4.96545 0.907257 6.17819C0.403467 7.39093 0.143478 8.69102 0.142133 10.0042C0.139417 12.6564 1.19038 15.201 3.06382 17.0783C4.93726 18.9556 7.47972 20.0118 10.1319 20.0145C11.4451 20.0158 12.7457 19.7585 13.9595 19.2572C15.1733 18.7559 16.2764 18.0204 17.2059 17.0928C19.0832 15.2193 20.1394 12.6769 20.1421 10.0247C20.1448 7.37256 19.0939 4.82794 17.2204 2.95066C16.2928 2.02112 15.1912 1.2834 13.9784 0.779611C12.7657 0.275822 11.4656 0.0158343 10.1524 0.014489C8.83915 0.0131435 7.53853 0.27047 6.32476 0.771774C5.11099 1.27308 4.00784 2.00854 3.07831 2.93618Z" fill="#EDEDED"/>
</svg>
