<svg width="22" height="16" viewBox="0 0 22 16" fill="none" xmlns="http://www.w3.org/2000/svg">
<path d="M21.2143 12.8H0.785714C0.57733 12.8 0.37748 12.8843 0.23013 13.0343C0.0827804 13.1843 0 13.3878 0 13.6L0 15.2C0 15.4122 0.0827804 15.6157 0.23013 15.7657C0.37748 15.9157 0.57733 16 0.785714 16H21.2143C21.4227 16 21.6225 15.9157 21.7699 15.7657C21.9172 15.6157 22 15.4122 22 15.2V13.6C22 13.3878 21.9172 13.1843 21.7699 13.0343C21.6225 12.8843 21.4227 12.8 21.2143 12.8ZM21.2143 6.4H0.785714C0.57733 6.4 0.37748 6.48429 0.23013 6.63431C0.0827804 6.78434 0 6.98783 0 7.2L0 8.8C0 9.01217 0.0827804 9.21566 0.23013 9.36568C0.37748 9.51571 0.57733 9.6 0.785714 9.6H21.2143C21.4227 9.6 21.6225 9.51571 21.7699 9.36568C21.9172 9.21566 22 9.01217 22 8.8V7.2C22 6.98783 21.9172 6.78434 21.7699 6.63431C21.6225 6.48429 21.4227 6.4 21.2143 6.4ZM21.2143 0H0.785714C0.57733 0 0.37748 0.0842854 0.23013 0.234315C0.0827804 0.384344 0 0.587827 0 0.8L0 2.4C0 2.61217 0.0827804 2.81566 0.23013 2.96569C0.37748 3.11571 0.57733 3.2 0.785714 3.2H21.2143C21.4227 3.2 21.6225 3.11571 21.7699 2.96569C21.9172 2.81566 22 2.61217 22 2.4V0.8C22 0.587827 21.9172 0.384344 21.7699 0.234315C21.6225 0.0842854 21.4227 0 21.2143 0Z" fill="black"/>
</svg>
