<svg width="22" height="19" viewBox="0 0 22 19" fill="none" xmlns="http://www.w3.org/2000/svg">
<rect x="3.05353" y="4.07129" width="15.9464" height="14.9286" fill="#E2F070"/>
<path d="M6.10714 19V4.07143H6.78571C6.78571 2.94048 7.18155 1.97917 7.97321 1.1875C8.76488 0.395833 9.72619 0 10.8571 0C11.9881 0 12.9494 0.395833 13.7411 1.1875C14.5327 1.97917 14.9286 2.94048 14.9286 4.07143H15.6071V19H6.10714ZM8.82143 4.07143H12.8929C12.8929 3.48333 12.7006 2.99702 12.3161 2.6125C11.9315 2.22798 11.4452 2.03571 10.8571 2.03571C10.269 2.03571 9.78274 2.22798 9.39821 2.6125C9.01369 2.99702 8.82143 3.48333 8.82143 4.07143ZM17.6429 19V4.07143H19C19.7464 4.07143 20.3854 4.3372 20.917 4.86875C21.4485 5.4003 21.7143 6.03929 21.7143 6.78571V16.2857C21.7143 17.0321 21.4485 17.6711 20.917 18.2027C20.3854 18.7342 19.7464 19 19 19H17.6429ZM2.71429 19C1.96786 19 1.32887 18.7342 0.797321 18.2027C0.265774 17.6711 0 17.0321 0 16.2857V6.78571C0 6.03929 0.265774 5.4003 0.797321 4.86875C1.32887 4.3372 1.96786 4.07143 2.71429 4.07143H4.07143V19H2.71429Z" fill="#E2F070"/>
<path d="M9.88258 6.10742H12.1741C12.555 6.10742 12.8615 6.41947 12.8615 6.80734V11.7067H15.3735C15.8834 11.7067 16.1383 12.3337 15.7774 12.7012L11.4207 17.1398C11.2059 17.3585 10.8536 17.3585 10.6388 17.1398L6.27637 12.7012C5.91547 12.3337 6.17039 11.7067 6.68024 11.7067H9.19514V6.80734C9.19514 6.41947 9.50162 6.10742 9.88258 6.10742Z" fill="white"/>
</svg>
