<svg width="20" height="20" viewBox="0 0 20 20" fill="none" xmlns="http://www.w3.org/2000/svg">
<path d="M20 10C20 15.5228 15.5228 20 10 20C4.47715 20 0 15.5228 0 10C0 4.47715 4.47715 0 10 0C15.5228 0 20 4.47715 20 10Z" fill="#767676" fill-opacity="0.3"/>
<path d="M8.59051 14.3683L5.22676 11.0045C5.02467 10.8025 5.02467 10.4748 5.22676 10.2727L5.9586 9.54082C6.16069 9.33872 6.48837 9.33872 6.69046 9.54082L8.95644 11.8068L13.8099 6.95332C14.012 6.75124 14.3397 6.75124 14.5418 6.95332L15.2736 7.68518C15.4757 7.88727 15.4757 8.21493 15.2736 8.41704L9.32237 14.3683C9.12026 14.5704 8.7926 14.5704 8.59051 14.3683Z" fill="#F8F8F8"/>
</svg>
