<svg width="28" height="17" viewBox="0 0 28 17" fill="none" xmlns="http://www.w3.org/2000/svg">
<g clip-path="url(#clip0_72_1087)">
<path d="M14.0004 0.594727C6.51328 0.594727 0.97998 3.41672 0.97998 7.23384C0.97998 10.5538 5.21178 13.0435 11.0708 13.7072L10.5826 14.2052C10.0943 14.7031 10.0943 15.5333 10.5826 16.0313C11.0708 16.5292 11.8848 16.5292 12.3731 16.0313L14.9769 13.3758C15.1394 13.21 15.1394 13.0435 15.3026 12.8778C15.4651 12.5456 15.4651 12.2141 15.3026 11.8819C15.3026 11.7162 15.1401 11.5497 14.9769 11.384L12.3731 8.8942C11.8848 8.39625 11.0708 8.39625 10.5826 8.8942C10.0943 9.39215 10.0943 10.2223 10.5826 10.7203L10.7451 10.886C6.35078 10.2223 3.74701 8.39625 3.74701 7.06811C3.74701 5.40853 7.81555 3.08449 14.1629 3.08449C20.5102 3.08449 24.5787 5.40853 24.5787 7.06811C24.5787 8.22974 22.6257 9.7236 19.0454 10.5538C18.3947 10.7195 17.9064 11.384 18.0689 12.0476C18.2314 12.7113 18.8829 13.2093 19.5337 13.0435C24.2537 12.0476 27.02 9.7236 27.02 7.06811C27.02 3.41672 21.4867 0.594727 14.0004 0.594727Z" fill="#E2F070"/>
</g>
<defs>
<clipPath id="clip0_72_1087">
<rect width="26.04" height="15.81" fill="white" transform="translate(0.97998 0.594727)"/>
</clipPath>
</defs>
</svg>
