<svg width="129" height="31" viewBox="0 0 129 31" fill="none" xmlns="http://www.w3.org/2000/svg">
<g clip-path="url(#clip0_284_1371)">
<path d="M6.83695 0.956055C5.44105 0.956055 3.84775 0.998355 2.59285 1.06885C2.21215 1.11115 1.87375 1.33675 1.71865 1.94305C1.04185 4.81946 0.435547 9.75446 0.435547 17.6787C0.435547 25.6029 0.858547 28.4088 1.38025 29.5086C1.56355 29.8893 1.87375 30.0444 2.52235 30.0726C3.28375 30.1149 7.57015 30.1431 9.50185 30.1431C20.0768 30.1431 22.6994 25.8567 22.6994 18.0876C22.6853 4.45286 16.2839 0.956055 6.83695 0.956055ZM10.1786 24.1224C9.84025 24.1224 9.45955 24.0519 9.12115 23.6994C8.40205 22.9803 8.09185 20.5833 8.09185 15.888C8.09185 11.1927 8.31745 8.49956 9.00834 7.78046C9.23394 7.55486 9.61465 7.44206 9.88254 7.44206C12.6179 7.44206 15.1559 10.3185 15.1559 16.8045C15.1559 22.1484 13.0691 24.1224 10.1927 24.1224H10.1786Z" fill="#FF7989"/>
<path d="M43.5814 1.11152C42.82 1.04102 41.6074 1.04102 40.3948 1.04102C39.3655 1.04102 38.3926 1.08332 37.7863 1.15382C37.2928 1.19612 37.2223 1.49222 37.2505 1.98572C37.4056 3.53672 38.0824 9.75482 38.0824 16.1703C38.0824 21.4014 37.2082 23.1498 35.0509 23.1498C32.8936 23.1498 31.8643 21.2604 31.8643 16.0293C31.8643 10.3752 32.9218 3.55082 33.0346 1.92932C33.0769 1.47812 32.809 1.21022 32.4283 1.16792C31.7515 1.09742 30.6517 1.09742 29.5096 1.09742C28.1842 1.09742 26.9293 1.09742 26.2525 1.16792C25.9846 1.21022 25.6462 1.43582 25.5334 1.88702C25.1104 3.55082 23.9824 8.17562 23.9824 17.0868C23.9824 25.998 27.5074 30.5805 34.8676 30.5805C43.3276 30.5805 45.7105 25.1661 45.7105 16.4382C45.7105 7.71032 44.9209 3.17012 44.3851 1.76012C44.23 1.33712 43.9621 1.19612 43.5955 1.11152H43.5814Z" fill="#FF7989"/>
<path d="M64.2802 17.8339C64.0969 17.7211 64.0123 17.566 64.0123 17.3827C64.0123 17.2276 64.0828 17.002 64.2802 16.8469C66.8605 14.7178 68.5948 12.2644 68.5948 8.69714C68.5948 2.78924 63.7867 0.885742 57.1456 0.885742C55.5523 0.885742 50.8147 1.04084 49.447 1.26644C48.9112 1.33694 48.6151 1.53434 48.5023 2.05604C47.5576 7.59734 47.2192 13.0117 47.2192 17.8621C47.2192 22.1485 47.4871 26.0119 47.8255 29.128C47.896 29.8894 48.3895 30.0022 48.9253 30.0304C49.87 30.0727 50.857 30.1009 51.8863 30.1009C53.0989 30.1009 54.241 30.0586 55.0729 30.0304C55.5241 29.9881 55.792 29.8048 55.792 29.3818C55.792 28.8883 55.0729 25.4056 55.0729 23.3611C55.0729 21.5845 55.7215 20.668 57.0751 20.668C59.2042 20.668 60.8257 23.6572 61.4743 29.269C61.5448 29.8048 61.855 30.0304 62.6446 30.0586C63.3637 30.1009 64.4635 30.1291 65.521 30.1291C66.8041 30.1291 68.059 30.0868 68.7781 30.0586C69.3421 30.0163 69.6946 29.7202 69.6946 29.1421C69.6946 27.7462 68.1436 20.6116 64.2802 17.8057V17.8339ZM55.5241 16.0855C54.8755 16.0855 54.6499 15.6343 54.6499 13.618C54.6499 10.2481 55.1011 7.35764 55.8202 6.63854C56.1586 6.30014 56.8777 6.14504 57.6391 6.14504C59.3875 6.14504 60.6706 7.01924 60.6706 9.13424C60.6706 12.6592 57.6814 16.0714 55.51 16.0714L55.5241 16.0855Z" fill="#FF7989"/>
<path d="M79.8184 1.11085C78.7609 1.04035 77.5483 0.998047 76.3357 0.998047C75.1936 0.998047 74.0656 1.04035 72.994 1.11085C72.5005 1.18135 72.1198 1.40695 71.9647 2.09785C71.6686 3.25405 71.1328 6.38425 70.8508 11.2769C71.0764 11.2346 71.3161 11.2064 71.5699 11.2064C75.5179 11.2064 76.0255 16.508 73.135 17.918C75.7576 19.4972 75.1513 24.4886 71.3302 24.4886C71.1751 24.4886 71.0341 24.4604 70.8931 24.4463C71.0341 26.6036 71.2174 28.3238 71.4007 29.0852C71.584 29.7338 71.8237 29.9171 72.3454 30.0017C73.4875 30.1568 74.7283 30.1568 75.9832 30.1568C77.2381 30.1568 78.4084 30.1568 79.5787 30.0017C80.0299 29.9594 80.2555 29.8184 80.2555 29.3531C80.2555 28.5917 78.7045 23.2055 78.7045 15.6338C78.7045 8.06215 80.4529 2.81695 80.4529 1.80175C80.4952 1.35055 80.2696 1.15315 79.8043 1.12495L79.8184 1.11085Z" fill="#FF7989"/>
<path d="M102.872 1.06885C102.153 0.998355 101.166 0.956055 100.179 0.956055C99.0085 0.956055 97.8241 0.998355 97.0345 1.06885C96.6115 1.11115 96.3577 1.40725 96.3577 1.83025C96.3577 3.11336 98.3599 9.19046 98.3599 17.1852C98.3599 17.5236 98.1766 17.7492 97.9369 17.7492C97.7818 17.7492 97.669 17.6787 97.5562 17.4531C94.0312 9.10586 91.1125 3.91705 89.5615 1.71745C89.2654 1.29445 88.9552 1.11115 88.5745 1.06885C87.9259 1.02655 87.094 0.998355 86.2621 0.998355C85.4302 0.998355 84.5137 1.04065 83.7664 1.06885C83.2306 1.13935 82.8922 1.47775 82.7089 1.97125C82.0603 3.86066 81.5386 9.85316 81.5386 16.452C81.5386 20.7807 81.7642 25.4055 82.3282 29.2689C82.3987 29.8047 82.7512 30.0303 83.3152 30.0585C84.1048 30.129 85.2046 30.1713 86.3467 30.1713C87.4888 30.1713 88.7296 30.129 89.491 30.0585C89.9422 30.0162 90.2524 29.8752 90.2524 29.2971C90.2524 28.7613 88.7014 21.0768 88.8565 14.7036C88.8565 14.2524 89.0116 13.8294 89.35 13.8294C89.5333 13.8294 89.7307 13.9845 89.9563 14.3229C92.311 18.144 94.5811 23.1213 96.4 28.9869C96.5833 29.7765 96.823 29.9316 97.6549 30.0444C98.1907 30.1149 98.938 30.1149 99.784 30.1149C100.997 30.1149 102.322 30.1149 103.126 30.0444C103.887 30.0021 104.225 29.706 104.338 28.9446C104.719 26.0682 104.902 21.9651 104.902 17.7915C104.902 11.9118 104.564 5.73596 103.873 1.91485C103.76 1.30855 103.422 1.08295 102.886 1.04065L102.872 1.06885Z" fill="#FF7989"/>
<path d="M127.674 14.83C127.603 14.266 127.293 13.9981 126.912 13.9981C126.081 13.9981 122.062 15.7465 119.862 16.6489C118.988 16.8745 118.875 17.0719 118.875 17.5654C118.875 17.9038 119.031 18.1717 119.411 18.2845C120.694 18.6229 121.272 19.4266 121.272 20.8648C121.272 22.7965 120.285 23.8963 118.354 23.8963C115.858 23.8963 114.18 22.0069 114.18 15.9721C114.18 10.2898 115.773 7.25829 118.015 7.25829C119.679 7.25829 120.257 9.23229 120.257 10.741C120.257 11.1217 120.215 11.5306 120.215 11.8831C120.215 12.3061 120.441 12.5317 120.821 12.5317C121.963 12.5317 125.263 10.7833 126.659 9.34509C127.194 8.80929 127.575 8.20299 127.575 7.37109C127.575 3.80379 125.263 0.617188 119.538 0.617188C110.712 0.617188 106.453 8.38629 106.453 17.8333C106.453 25.9408 110.627 30.763 118.128 30.763C124.614 30.763 128.139 27.6187 128.139 22.6555C128.139 19.9201 127.871 17.3821 127.688 14.8441L127.674 14.83Z" fill="#FF7989"/>
<path d="M117.367 15.9022C117.099 15.9586 116.93 16.2265 117.014 16.4944L117.649 18.6517L118.748 18.4543C119.186 18.3697 119.623 18.3415 120.06 18.3697L120.892 18.412L124.572 17.8339L126.912 14.041L117.381 15.9022H117.367Z" fill="#FF7989"/>
</g>
<defs>
<clipPath id="clip0_284_1371">
<rect width="127.69" height="30.1458" fill="white" transform="translate(0.435303 0.617188)"/>
</clipPath>
</defs>
</svg>
