<svg width="13" height="17" viewBox="0 0 13 17" fill="none" xmlns="http://www.w3.org/2000/svg">
<path d="M11.375 2.04004H8.66667C8.66667 0.936914 7.69505 0.0400391 6.5 0.0400391C5.30495 0.0400391 4.33333 0.936914 4.33333 2.04004H1.625C0.727865 2.04004 0 2.71191 0 3.54004V14.54C0 15.3682 0.727865 16.04 1.625 16.04H11.375C12.2721 16.04 13 15.3682 13 14.54V3.54004C13 2.71191 12.2721 2.04004 11.375 2.04004ZM6.5 1.29004C6.95026 1.29004 7.3125 1.62441 7.3125 2.04004C7.3125 2.45566 6.95026 2.79004 6.5 2.79004C6.04974 2.79004 5.6875 2.45566 5.6875 2.04004C5.6875 1.62441 6.04974 1.29004 6.5 1.29004ZM10.6031 8.53379L5.76198 12.965C5.60286 13.1119 5.34557 13.1088 5.18646 12.9619L2.3901 10.3588C2.23099 10.2119 2.23437 9.97441 2.39349 9.82754L3.35495 8.94629C3.51406 8.79941 3.77135 8.80254 3.93047 8.94941L5.48776 10.3994L9.0763 7.11191C9.23542 6.96504 9.49271 6.96816 9.65182 7.11504L10.6065 8.00254C10.7656 8.15254 10.7622 8.38691 10.6031 8.53379Z" fill="#B1C500"/>
</svg>
