<svg width="85" height="23" viewBox="0 0 85 23" fill="none" xmlns="http://www.w3.org/2000/svg">
<rect x="0.25" y="0.25" width="84.5" height="22.5" rx="11.25" fill="#F8F8F8" stroke="#EDEDED" stroke-width="0.5"/>
<path d="M31.0939 8.30634V9.06674C31.0846 10.0868 31.1032 11.2552 30.723 13.0264L29.7122 12.9243C29.856 12.252 29.9441 11.6539 29.9997 11.1161L25.0571 11.3943L24.9088 10.5133L30.0553 10.3279C30.0739 9.89204 30.0785 9.50257 30.0832 9.14092H25.1684V8.30634H31.0939ZM31.9192 14.0649V14.9181H24.2782V14.0649H27.0972V11.997H28.1173V14.0649H31.9192ZM39.2913 11.4963V12.3216H33.4122V8.29707H39.2264V9.13165H34.4322V11.4963H39.2913ZM40.1445 14.0278V14.881H32.4849V14.0278H40.1445ZM45.597 9.74367C45.597 11.1532 46.0792 12.5349 47.2384 13.1562L46.6264 13.9722C45.8706 13.5503 45.3745 12.8177 45.0963 11.9229C44.7856 12.9104 44.2478 13.7357 43.4642 14.204L42.8058 13.4529C44.0392 12.7296 44.5956 11.2366 44.5956 9.80859V8.30634H45.597V9.74367ZM50.178 7.5645V15.9474H49.1857V11.7003H48.3233V15.5394H47.3497V7.71287H48.3233V10.8657H49.1857V7.5645H50.178ZM58.8112 14.1206V14.9737H51.1516V14.1206H54.4529V12.7574H52.0604V10.0126H56.8824V8.97401H52.0418V8.13943H57.9024V10.8286H53.0897V11.9136H58.0972V12.7574H55.4729V14.1206H58.8112ZM66.2019 8.33416V9.14092C66.1926 10.1795 66.1926 11.3479 65.868 13.1005L64.8295 12.9893C65.154 11.3572 65.154 10.1656 65.1633 9.15947H60.1558V8.33416H66.2019ZM66.9994 14.0186V14.8624H59.3583V14.0186H62.1773V11.1068H63.1974V14.0186H66.9994ZM72.5354 8.45471V9.27075H70.7457C70.7503 10.2027 71.4829 11.1161 72.8229 11.4685L72.3407 12.2752C71.3623 12.0063 70.6483 11.4314 70.2542 10.6895C69.874 11.5009 69.16 12.1361 68.1585 12.4329L67.6763 11.6447C68.9977 11.2459 69.7117 10.2676 69.7164 9.27075H67.9267V8.45471H69.7164V7.53668H70.755V8.45471H72.5354ZM74.5477 7.57377V12.4978H73.5091V7.57377H74.5477ZM74.5477 12.878V15.8454H68.9838V12.878H74.5477ZM70.0038 13.7033V15.0108H73.5369V13.7033H70.0038Z" fill="#767676"/>
<g clip-path="url(#clip0_177_1288)">
<path d="M8.91669 8.16699V10.667H11.4167" stroke="#767676" stroke-width="0.833333" stroke-linecap="round" stroke-linejoin="round"/>
<path d="M18.0833 14.833V12.333H15.5833" stroke="#767676" stroke-width="0.833333" stroke-linecap="round" stroke-linejoin="round"/>
<path d="M17.0375 10.25C16.8262 9.65282 16.467 9.11891 15.9936 8.69808C15.5201 8.27725 14.9477 7.98323 14.3299 7.84343C13.7121 7.70364 13.0689 7.72263 12.4604 7.89865C11.8518 8.07466 11.2978 8.40195 10.85 8.84999L8.91669 10.6667M18.0834 12.3333L16.15 14.15C15.7022 14.598 15.1482 14.9253 14.5397 15.1013C13.9312 15.2773 13.288 15.2963 12.6701 15.1565C12.0523 15.0168 11.4799 14.7227 11.0065 14.3019C10.533 13.8811 10.1738 13.3472 9.96252 12.75" stroke="#767676" stroke-width="0.833333" stroke-linecap="round" stroke-linejoin="round"/>
</g>
<defs>
<clipPath id="clip0_177_1288">
<rect width="10" height="10" fill="white" transform="translate(8.5 6.5)"/>
</clipPath>
</defs>
</svg>
