<svg width="12" height="12" viewBox="0 0 12 12" fill="none" xmlns="http://www.w3.org/2000/svg">
<g clip-path="url(#clip0_72_1697)">
<path d="M9.28835 5.06738H5.134C4.62414 5.06738 4.21082 5.48071 4.21082 5.99057V10.1449C4.21082 10.6548 4.62414 11.0681 5.134 11.0681H9.28835C9.79821 11.0681 10.2115 10.6548 10.2115 10.1449V5.99057C10.2115 5.48071 9.79821 5.06738 9.28835 5.06738Z" stroke="#767676" stroke-width="0.923188" stroke-linecap="round" stroke-linejoin="round"/>
<path d="M2.3644 7.83715H1.9028C1.65796 7.83715 1.42314 7.73989 1.25001 7.56675C1.07688 7.39362 0.979614 7.15881 0.979614 6.91396V2.75961C0.979614 2.51477 1.07688 2.27995 1.25001 2.10682C1.42314 1.93369 1.65796 1.83643 1.9028 1.83643H6.05715C6.30199 1.83643 6.53681 1.93369 6.70994 2.10682C6.88307 2.27995 6.98034 2.51477 6.98034 2.75961V3.22121" stroke="#767676" stroke-width="0.923188" stroke-linecap="round" stroke-linejoin="round"/>
</g>
<defs>
<clipPath id="clip0_72_1697">
<rect width="11.0783" height="11.0783" fill="white" transform="translate(0.0566406 0.913086)"/>
</clipPath>
</defs>
</svg>
