<svg width="17" height="17" viewBox="0 0 17 17" fill="none" xmlns="http://www.w3.org/2000/svg">
<path d="M11.6326 5.82741L9.35159 8.1084L11.6326 10.3894L10.4921 11.5299L8.2111 9.24889L5.93011 11.5299L4.78961 10.3894L7.0706 8.1084L4.78962 5.82741L5.93011 4.68691L8.2111 6.9679L10.4921 4.68691M2.50863 2.40592C1.75977 3.15478 1.16574 4.04381 0.760459 5.02224C0.355179 6.00067 0.146584 7.04935 0.146584 8.1084C0.146584 10.2472 0.996235 12.2985 2.50863 13.8109C4.02102 15.3233 6.07226 16.1729 8.2111 16.1729C9.27015 16.1729 10.3188 15.9643 11.2973 15.559C12.2757 15.1538 13.1647 14.5597 13.9136 13.8109C15.426 12.2985 16.2756 10.2472 16.2756 8.1084C16.2756 5.96955 15.426 3.91831 13.9136 2.40592C13.1647 1.65706 12.2757 1.06304 11.2973 0.657756C10.3188 0.252476 9.27015 0.0438824 8.2111 0.0438821C7.15205 0.0438818 6.10338 0.252477 5.12494 0.657757C4.14651 1.06304 3.25749 1.65706 2.50863 2.40592Z" fill="#767676" fill-opacity="0.3"/>
</svg>
