<svg width="26" height="23" viewBox="0 0 26 23" fill="none" xmlns="http://www.w3.org/2000/svg">
<g clip-path="url(#clip0_951_1500)">
<path d="M26 3.8485C26 1.75461 24.2414 0 22.1406 0C20.8574 0 19.6772 0.684629 18.9764 1.73487C17.1971 0.630446 15.148 0.0506382 13 0.0506382C10.852 0.0506382 8.79734 0.631965 7.02305 1.73436C6.32227 0.684122 5.14262 0 3.85938 0C1.75855 0 0 1.75461 0 3.8485C0 5.39297 0.95875 6.73944 2.34254 7.33495C1.8327 8.62116 1.57422 9.99953 1.57422 11.4442C1.57422 17.7269 6.69957 22.8378 13 22.8378C19.3004 22.8378 24.4258 17.7269 24.4258 11.4442C24.4258 9.99649 24.1658 8.61559 23.658 7.33495C25.0418 6.73944 26 5.39297 26 3.8485ZM13 19.7995C10.0603 19.7995 7.66797 17.414 7.66797 14.4825C7.66797 11.5511 10.0603 9.16552 13 9.16552C15.9397 9.16552 18.332 11.5511 18.332 14.4825C18.332 17.414 15.9397 19.7995 13 19.7995Z" fill="#767676"/>
<path d="M15.2049 12.6239C15.016 12.2476 14.5595 12.0977 14.1827 12.2841L13 12.874L11.8173 12.2841C11.441 12.0992 10.9855 12.2476 10.7951 12.6239C10.6077 12.9991 10.7595 13.4553 11.1358 13.6432L12.2383 14.1926V16.0019C12.2383 16.4217 12.579 16.7615 13 16.7615C13.421 16.7615 13.7617 16.4217 13.7617 16.0019V14.1926L14.8642 13.6432C15.2405 13.4553 15.3923 12.9996 15.2049 12.6239Z" fill="#767676"/>
</g>
<defs>
<clipPath id="clip0_951_1500">
<rect width="26" height="22.8378" fill="white"/>
</clipPath>
</defs>
</svg>
