<svg width="25" height="26" viewBox="0 0 25 26" fill="none" xmlns="http://www.w3.org/2000/svg">
<path d="M17.9639 16.6016C17.7383 16.8604 17.4863 17.0947 17.1875 17.2681V18.3882C20.4355 18.8442 22.6562 19.7578 22.6562 20.8125C22.6562 22.3228 18.1094 23.5469 12.5 23.5469C6.89062 23.5469 2.34375 22.3228 2.34375 20.8125C2.34375 19.7578 4.56445 18.8447 7.8125 18.3882V17.2681C7.51367 17.0947 7.26172 16.8604 7.03613 16.6016C2.87451 17.3623 0 18.9595 0 20.8125C0 23.4014 5.59668 25.5 12.5 25.5C19.4033 25.5 25 23.4014 25 20.8125C25 18.9595 22.1255 17.3623 17.9639 16.6016ZM12.5 6.75C14.2261 6.75 15.625 5.35107 15.625 3.625C15.625 1.89893 14.2261 0.5 12.5 0.5C10.7739 0.5 9.375 1.89893 9.375 3.625C9.375 5.35107 10.7739 6.75 12.5 6.75ZM9.375 16.125V20.8125C9.375 21.6753 10.0747 22.375 10.9375 22.375H14.0625C14.9253 22.375 15.625 21.6753 15.625 20.8125V16.125C16.4878 16.125 17.1875 15.4253 17.1875 14.5625V9.875C17.1875 8.58057 16.1382 7.53125 14.8438 7.53125H14.2676C13.7271 7.77686 13.1318 7.92188 12.5 7.92188C11.8682 7.92188 11.2729 7.77686 10.7324 7.53125H10.1562C8.86182 7.53125 7.8125 8.58057 7.8125 9.875V14.5625C7.8125 15.4253 8.51221 16.125 9.375 16.125Z" fill="#767676" fill-opacity="0.3"/>
</svg>
