<svg width="23" height="23" viewBox="0 0 23 23" fill="none" xmlns="http://www.w3.org/2000/svg">
<path d="M22.3147 12.9375H12.2822L18.9636 20.0365C19.219 20.3079 19.6392 20.3299 19.9018 20.0671C21.538 18.4292 22.6635 16.2213 22.9937 13.7393C23.0503 13.3144 22.7184 12.9375 22.3147 12.9375ZM21.6454 10.0265C21.297 4.66007 17.261 0.371785 12.2103 0.0016244C11.8248 -0.0266767 11.5001 0.318776 11.5001 0.729367V10.7812H20.9609C21.3473 10.7812 21.672 10.4362 21.6454 10.0265ZM9.47065 12.9375V2.27784C9.47065 1.84883 9.11593 1.49619 8.71639 1.55639C3.67797 2.31288 -0.173253 6.98975 0.0060115 12.5947C0.190349 18.3511 4.85502 23.0715 10.2752 22.9992C12.4061 22.9709 14.375 22.2413 15.9939 21.0212C16.3279 20.7697 16.3499 20.2472 16.0603 19.9395L9.47065 12.9375Z" fill="#767676"/>
</svg>
