<svg width="24" height="25" viewBox="0 0 24 25" fill="none" xmlns="http://www.w3.org/2000/svg">
<path d="M22.8885 15.4102L20.8084 14.209C21.0184 13.0762 21.0184 11.9141 20.8084 10.7813L22.8885 9.58012C23.1277 9.44341 23.2352 9.1602 23.157 8.89653C22.615 7.15825 21.6922 5.58598 20.4861 4.27739C20.3006 4.07719 19.9979 4.02837 19.7635 4.16509L17.6834 5.36626C16.8094 4.6143 15.8035 4.03325 14.7147 3.65239V1.25493C14.7147 0.981491 14.5242 0.742233 14.2557 0.68364C12.4637 0.283249 10.6277 0.30278 8.92364 0.68364C8.65508 0.742233 8.46466 0.981491 8.46466 1.25493V3.65727C7.38067 4.04301 6.37481 4.62407 5.4959 5.37114L3.42071 4.16997C3.18145 4.03325 2.8836 4.07719 2.69805 4.28227C1.492 5.58598 0.569147 7.15825 0.0271543 8.90141C-0.0558535 9.16508 0.0564511 9.44829 0.295709 9.58501L2.37579 10.7862C2.16583 11.919 2.16583 13.0811 2.37579 14.2139L0.295709 15.4151C0.0564511 15.5518 -0.0509707 15.835 0.0271543 16.0987C0.569147 17.837 1.492 19.4092 2.69805 20.7178C2.8836 20.918 3.18633 20.9668 3.42071 20.8301L5.50079 19.629C6.37481 20.3809 7.38067 20.962 8.46954 21.3428V23.7452C8.46954 24.0186 8.65997 24.2579 8.92852 24.3165C10.7205 24.7168 12.5565 24.6973 14.2606 24.3165C14.5291 24.2579 14.7195 24.0186 14.7195 23.7452V21.3428C15.8035 20.9571 16.8094 20.376 17.6883 19.629L19.7684 20.8301C20.0076 20.9668 20.3055 20.9229 20.491 20.7178C21.6971 19.4141 22.6199 17.8418 23.1619 16.0987C23.2352 15.8301 23.1277 15.5469 22.8885 15.4102ZM11.5897 16.4014C9.43634 16.4014 7.68341 14.6485 7.68341 12.4952C7.68341 10.3418 9.43634 8.58891 11.5897 8.58891C13.743 8.58891 15.4959 10.3418 15.4959 12.4952C15.4959 14.6485 13.743 16.4014 11.5897 16.4014Z" fill="#767676"/>
</svg>
