<svg width="13" height="13" viewBox="0 0 13 13" fill="none" xmlns="http://www.w3.org/2000/svg">
<path d="M12.0289 6.59048H7.30675L10.4516 9.93193C10.5718 10.0596 10.7696 10.07 10.8932 9.94631C11.6633 9.17538 12.1931 8.13614 12.3485 6.96791C12.3752 6.76788 12.219 6.59048 12.0289 6.59048ZM11.7139 5.22032C11.5499 2.69441 9.65022 0.675971 7.27292 0.501741C7.09143 0.48842 6.9386 0.651021 6.9386 0.84428V5.57555H11.3917C11.5736 5.57555 11.7264 5.41316 11.7139 5.22032Z" fill="#767676" fill-opacity="0.3"/>
<path d="M5.88548 6.65415V0.425488C5.88548 0.174808 5.67821 -0.0312475 5.44475 0.00392634C2.50068 0.445962 0.250327 3.17876 0.355075 6.45387C0.462788 9.81744 3.18846 12.5757 6.35561 12.5334C7.60073 12.5169 8.75123 12.0906 9.69718 11.3777C9.89234 11.2307 9.90519 10.9254 9.73596 10.7456L5.88548 6.65415Z" fill="#E2F070"/>
<path d="M5.88548 6.65415V0.425488C5.88548 0.174808 5.67821 -0.0312475 5.44475 0.00392634C2.50068 0.445962 0.250327 3.17876 0.355075 6.45387C0.462788 9.81744 3.18846 12.5757 6.35561 12.5334C7.60073 12.5169 8.75123 12.0906 9.69718 11.3777C9.89234 11.2307 9.90519 10.9254 9.73596 10.7456L5.88548 6.65415Z" fill="#E2F070"/>
</svg>
