<svg width="17" height="16" viewBox="0 0 17 16" fill="none" xmlns="http://www.w3.org/2000/svg">
<path d="M14.6841 7.66669C14.6864 8.5466 14.4808 9.41461 14.0841 10.2C13.6137 11.1412 12.8906 11.9328 11.9957 12.4862C11.1008 13.0396 10.0696 13.3329 9.01742 13.3334C8.1375 13.3356 7.26949 13.1301 6.48408 12.7334L2.68408 14L3.95075 10.2C3.55404 9.41461 3.34845 8.5466 3.35075 7.66669C3.35116 6.61452 3.64449 5.58325 4.19789 4.68839C4.7513 3.79352 5.54292 3.0704 6.48408 2.60002C7.26949 2.20331 8.1375 1.99772 9.01742 2.00002H9.35075C10.7403 2.07668 12.0528 2.66319 13.0368 3.64726C14.0209 4.63132 14.6074 5.94379 14.6841 7.33335V7.66669Z" stroke="#767676" stroke-opacity="0.3" stroke-width="1.33333" stroke-linecap="round" stroke-linejoin="round"/>
</svg>
