<svg width="13" height="13" viewBox="0 0 13 13" fill="none" xmlns="http://www.w3.org/2000/svg">
<path d="M11.838 5.30555C11.6536 2.46589 9.51799 0.196731 6.84541 0.000859554C6.64138 -0.014116 6.46956 0.168681 6.46956 0.385946V5.7049H11.4758C11.6803 5.7049 11.8521 5.52234 11.838 5.30555ZM5.39569 6.84589V1.20532C5.39569 0.978314 5.20799 0.791713 4.99657 0.823566C2.33048 1.22387 0.2926 3.69864 0.387458 6.66452C0.485001 9.71051 2.95332 12.2083 5.82144 12.1701C6.949 12.1551 7.99087 11.7691 8.8475 11.1234C9.02424 10.9903 9.03587 10.7139 8.88262 10.551L5.39569 6.84589Z" fill="#767676" fill-opacity="0.3"/>
<path d="M12.0216 6.81543H9.36724H6.71289L10.2484 10.5719C10.3835 10.7155 10.6059 10.7271 10.7448 10.5881C11.6106 9.72141 12.2062 8.55307 12.3809 7.23974C12.4109 7.01487 12.2352 6.81543 12.0216 6.81543Z" fill="#E2F070"/>
</svg>
