<svg width="20" height="20" viewBox="0 0 20 20" fill="none" xmlns="http://www.w3.org/2000/svg">
<path d="M20 10C20 15.5228 15.5228 20 10 20C4.47715 20 0 15.5228 0 10C0 4.47715 4.47715 0 10 0C15.5228 0 20 4.47715 20 10Z" fill="#F8F8F8"/>
<path d="M8.59027 14.3683L5.22652 11.0045C5.02443 10.8025 5.02443 10.4748 5.22652 10.2727L5.95835 9.54082C6.16044 9.33872 6.48813 9.33872 6.69021 9.54082L8.9562 11.8068L13.8097 6.95332C14.0118 6.75124 14.3394 6.75124 14.5415 6.95332L15.2734 7.68518C15.4755 7.88727 15.4755 8.21493 15.2734 8.41704L9.32213 14.3683C9.12002 14.5704 8.79235 14.5704 8.59027 14.3683Z" fill="#767676" fill-opacity="0.3"/>
</svg>
